<svg xmlns="http://www.w3.org/2000/svg" width="62.4" height="46.8">
  <g fill-rule="evenodd" clip-rule="evenodd">
    <path fill="#FFF" d="M31.4 42.2c2.4-3.6 8-1.4 10.6.4-4.8-1.3-5.4-1.8-10.6-.4zm-.8-.4c.2.1.3.2.5.4-.8 0-.4 0-.7-.2-2-.2-2.8-.8-5.2-.6-1.8.2-3.3.8-4.9 1.2 2.1-1.3 8.4-4 10.3-.8zm1-1.6c4.6-1.7 7-.4 10.7 1.3 4.4 2.1 6.2 1.8 11.2.9-2.2-.3-4.1-.1-6.3-.7-8-1.8-7.4-4.8-15.6-1.5zm-2-.6c-1.9-.4-2.9-1.1-5.3-.9-1.6.2-3.3 1-4.7 1.5-4.4 1.9-5.6 1.6-10.6 2.2 11.5 1.7 8.2-.6 14.8-2.6 2.4-.7 3.5 0 5.6 0 .2.2-.2.3 1 .5.9.1.5-.1.6-.1-.8-.6-.4-.4-1.4-.6zm27.9.5c-5.5.6-8.4-.4-13.2-1.8-4.2-1.3-8.9-1.9-12.4.4 6.5-.6 5.6-1.1 13 1.4 6.4 2.2 7.4 1.6 12.6.3.5-.2.1.1.7-.3h-.7zm-52.7.2c5.1 1.4 7.2 1.6 12.3-.2 1.9-.6 3.7-1.3 5.7-1.8 2.9-.6 4.1-.1 6.7-.1.3.2-.1.1.5.3.4.2-.1 0 .6.1l-.2-.2-.2-.2-.5-.3c-2.3-.5-3.3-1.3-6.3-1-2.2.2-4.1.8-6 1.3-4.3 1.5-7.4 2.5-12.6 1.8h-.7l.7.3zM32 36.7c2.5-.1 3.7-.9 6.8-.5 5.2.6 12 4.2 19 2.1-2.8-.1-4.4 0-7.2-.5-6.1-1.4-12.5-4.4-18.6-1.1zm-16.6-1.6l-.6-1c.6-1.6 1.7-1.6 2.4-.2-.5.6-1 1.1-1.8 1.2zM46 32.5c.4.9 1.1 1.3.9 2.1-.7.2-1.6-.1-2.1-.5l.9-.4v-.5l.1-.3c.5-1.1-1.1.3.2-.4zm0-.6c.8.3.5.2 1.1.5.6.3.5.1 1.1-.1-.2.9-.3.8-.7 1.5-1.3-2 .9.5-1.1-1.2l-.4-.7zm-31.9 1.3c.8-.2 1.6-.5 1.9-1.4l-1.6.7c-.2.2-.9.7-.3.7zm.8-2.9c.6.5.5.3.6 1.1-.7.5-1 .7-1.8.8-.5-.6-.4-.4-.4-1.2l.8.3-.1-.6.5.1.1.5c.5-.3.3-.1.3-1zm32.2-.5l.5.9-1 .2.8.5c.7.4-.1.4 1.2.3l.5-1.1-2-.8zm-32.2.2c-.2-.8-.1-.7-.7-1.1-.7.3-.6.1-.7 1.2l-.5-.3c-.6-.3.2-.2-.5 0l.7.8c.8-.3.6.1.8-1.1.8-.2.2-.1.4.1v.6l.4.1.1-.3zm33.7-4.3c.3.3 0 0 .2.5.3 0 .4 0 .7.1.6.2.3 0 .7.5-.2.2.1.1-.5.4.3.4.1 0 .2.8l-1-.7-.9.4c.4.7 2.3 1.5 1.1 1.9l-1.9.2c.4-.9-.1-.1.7-.8l.5-1.9-.4-.7v-.3l.2-.4c.9-1.4.3-.6.2-1.9 2 .6 1.8.5 2.1 1.1-.6.6-1 .6-1.9.8zm-35-.6c.8-.2.4.1.4.9-.4.9 0 .3-.7.9l-.2.1.1.3c1.3-.2.5 0 .8.2-.6.4-1.1.4-2.1.5 0-.9.2-.8.8-1.3-.1 0-.6.1-1-.4L13 26c-.1-.5-.5-.4 0-.4-.8-.4-.9 0-1.6-.7.2-.6-.1-.6 2.1-1.2-.1.5-.2.4-.2.5-.2.6-.1-.4-.2.7l.5.2zm-2-1.1c.8-.4-.7.3.3-.3.9-.5.9-.1 1.7-.4-.5-.9 0-.1-1.1-.4-.6-.2-.7-.5-1-.5l.1 1.6zm38.8 0c-.2-1 0 0-.2-.5s-.4.3 0-.8c0 0 .1-.1.1-.2s.1-.2.1-.2c-.5.2-.8.4-1.2.6-.1 0-.5.2-.5.2-.6.3-.1-.1-.4.3.5.1 1.5.4 2.1.6zm-11.9-3.2c1.4-.9 2.2-1.2 2.1-3.6l5 4.8c-.3.9-3 3.4-3.8 3.9 0-2.4-1.2-4.3-3.4-4.4-.9-.2-.2 0-.4-.4l.5-.3zm-24.8 1.7c-.7-.2-1.5-.5-2-1.2.6-.7 1.3-.6 2.3-.8-.3.8-.6.3-.4 1.3l.1.7zm35.8-1.2l-.3.8-1 .1c-.2-.9-.3-.8.1-1.7l1.7-.2c.3.7.4 1.1.1 1.8-.4-.7 0-.5-.5-1l-.1.2zM12 19.7c.5-.3-.1-.3 1.5 0l.8-.6-.3 1.1c-1.2 0-1.4 0-2-.5zm35.5-1.2l.3 1.1c3.4 1.3 1.9-3.8-.3-1.1zm-35.2-.3c.2-.1.2-.5 1.5.1.4.2.3.1.6.4-.2.1 0 .3-1 .1-.5-.2-.7-.3-1.1-.6zm9.3 5c7.7-3 8.6 6.8 4.1 6.6-2.3-.1-8.8-6.5-9.3-7.7l6.1-6.1-.9 7.2zm-7-5.3c.5-.8.1-1.8-1.3-.7l-.1-.9c-.7.5-.6.6-.1 1.4l1.2-.1-.1.7.4-.4zM48.4 16c.3-.3-.5-.4.5-.2l-.2.6.6 1-2.2.1c.4-1.1.5-.2 1.3-1.5zm-2.2-.5c.2-.7 1.2-1.1 2-1.1-.3.7-1.4 1.1-2 1.1zM31 36.7l5.8-5.8c-1.7.3-6.6 1.1-5.9-1.7.7-2.7 2.6 1.1 6 .7 1.1-1.1 2-2.8 1.1-4.8-1-2.5-3-1-4.4-2.2.7-1.5 3.3-1 3.6-3.4.3-2.4-2-3.4-3.9-2.2-.9.5-1.4 1.9-1.8 1-.2-.6.6-1.5 1.1-2 1.5-1.5 2.9-1.3 5.2-1.4l.4.3c-.1-.7.1-.2-.4-.4l-7-7.1-7.1 7.3h7.5l-.8 2.7h-6.8l-.6 4.1c11.4-3.6 10.5 8.1 3.1 9.1l-.6.1c-.2 1.1-.1.2.2.6l4.7 4.8c-2.3.1-3.2-2.7-12.9-.2-7.3 1.9-5.4 1.7-12.9 2 4.1 1.3 9.1.4 13-.7 8.2-2.3 6.1-1.5 12.6-.9l.2.2.2.1c.5.1.4.3.4-.2zm15.1-22.6l-.3.8c1-.5.1-.2.8-.7.1-.1.6-.3.8-.4 0-1-.1-.9-.6-1.3-.6.3-1.2.6-1.6 1.2.3.2-.1.4.5 0 .5-.1.4-.2.4.4zm-29.5 0l-.2-.5c-.2-.3-.1.1-.2-.4 0 0 0-.4.1-.5l-.4.2s-.1.1-.2.1l-.2.1c0-.3.1-.7-.1-1l-.6 1 1.4 1c-.3.2.3 0-.5.2-.3.1-.4 0-.7 0l-.2-.7c-.4-.2.5-.4-.4-.1 0 0-.3.1.1.8-.1.5.4.4-.5.2.1.6-.2.4.7.9l.9.5c.2-.2.3.4.2-.3.2-.4.1-.4.5-.7l.4-.5c-.2-.2-.2-.2-.1-.3zm.1-2.2l.5-.2c.3 1.4.1.2-.1.7l-.5.2.1-.7zm29.7-.3c.2.4.3-.5.2.6l-.5-.2-.4-.4c-.3.5-.2.1 0 1l-.9-.4c.2.6.3.7.1 1.1l-.8-1 1.8-1.2.5.5zM17.2 9.8c.4.4.7-.4.1 1 1.7-.6 2.1.7.4 1.4 0-.1.1-.1.1-.2 0 0 .1-.1.1-.2l.2-.7c-1.1.1-1.1.4-1.5-.9l.6-.4zm26.3 1.4c-.3-1.9.8-1 1.6-.5 0-.7-.2-.7-.6-1.1-1.1 0-.9 0-1.6.5v1.3c.4.3.4.3.8.5 1.5-1.1.5-1.2.5-1.2-.5 0-.1-.1-.4.3-.3.3.3 0-.3.2zm-24.6-.3c0-.1.1-.1.1-.2l.3-.9-.8.2.1-.8c-.9.5-.4.3-.8.2.3-.6-.1-.4.8-.7l1.3 1.4c-.3.5-.3.6-1 .8zm22.5-1.1c.3-.7.6-.9 1-1.7 1 .4.8.3 1.1.8H43c-.1 0-.2-.1-.4-.1 0 .4.1.4.3.9l-.9-.2.4 1.1-1-.8zm-1.9-1c1-.5.4-.3 1-1.1 0 1.7-.2 1 .3 1.7.6-.3 1.1-1 1.1-1.9l-.9.9c-.2-.8.2-.9-.3-1.6-.5.3-1 1.1-1.2 2zM21 8.3c.9.9.8 0 .8 0 .1-.3-.5-.9-.6-1.7.7.4.1-.2.7.5.6.6.5 1.2.3 1.9-1.3.3-1.9-.3-2.1-1.6 1.1.5.4.4.9.9zm16.4-.9l-.8-.1-.2-.6h-.1l-.7-.1-.4.4c.3-.8.4-1.1 1.1-1.5.1-.4-.4-.4.6-.3v1.2c.1.1.2.4.3.6l.4.4.6.2c-.3-1.3-.6-.6-.2-1.8 1.7-.2 1.4.8.9.4-.6-.1-.5-.2-.4.3.3.4.6.9.1 1.2-.3.2-.2.2-.7.1-.9-.2-.2 0-.5-.4zm-13.5-.5c0-.1-.2-.6-.2-.6-.1-.7 0-.4.1-.7.5.6.7 1.1.8 2.1-1.2-.2-.6-.3-1.6-.7.1.2.2.7.2.8 0 .9.3-.1-.3.5l-.7-2.1c1.3 0 .7 0 1.7.7zm1.3.5c-.1-.3-.4-.7-.5-1.1-.3-.9-.1-.8 0-.9.2.3.5.6.6 1.1.4 1.2 0 .7-.1.9zm1.4-1.2c-.2-.2-.3-.5-.5-.7-.4-.5-.2-.4-.8-.6.8 2.1 1 1.9 1.7 2.1l.3-2.4c-.6.4-.3-.6-.7 1.6zM31 6l.2.5-.6-.1c-.1-.5-.1-.4-.3-.8-.8 1.2-.1.7-.7.8l-.1-2.1 1.3.2c.4 1-.1.5.2 1.5zm3.6.8c.1-.2.2-.1.3-.5.2-.7-.1-.6.6-1.2l.1-.1.1-.1-1.7-.4c0 .1.1.1.1.2.1.3.2.2.3.3.3.9-.3.8.2 1.8zm-1.5-2.3c.5-.1-.7-.6.7-.1l-.1.6c-.1 1 0 .8-.4 1.6-.3-.5-.2 0-.2-1 0-.6.1-.5 0-1.1zM28.3 6l.9.1v.5l-1.3-.1-.1-1.9 1.3-.3c-.2.7.2.2-.3.6l-.6.1.5.3.3.2c-1 .3-.4-.1-.7.5zm4.3-1.7c-2-.2-1 .9-.4 1.5l-.5.2-.1.1-.1.1c.6.3 1.2.4 1.3-.3.1-.5-.4-.6-.7-1.1l.2-.1c.4.3-.7.3.7.2l-.4-.6zM1.2 6v22.7l.2 16.9h59.7l.1-17V1H1.5l-.3 5z"/>
    <path fill="#2B2F7F" d="M26.1 30.9c-.3.3-.2.3-.5.7l4.7 4.8c.7.1.4-.3.6.2l5.8-5.8c-1.7.3-6.6 1.1-5.9-1.7.7-2.7 2.6 1.1 6 .7 1.1-1.1 2-2.8 1.1-4.8-1-2.5-3-1-4.4-2.2.7-1.5 3.3-1 3.6-3.4.3-2.4-2-3.4-3.9-2.2-.9.5-1.4 1.9-1.8 1-.2-.6.6-1.5 1.1-2 1.5-1.5 2.9-1.3 5.2-1.4v-.1l-7-7.1-7 7.4h7.5l-.8 2.7h-6.8l-.6 4.1c11.4-3.6 10.5 8 3.1 9.1z"/>
    <path fill="#00A9E2" d="M0 46.8h62.4V28.6h-1.2l-.1 16.9H1.4l-.2-16.9-1.2-.1"/>
    <path fill="#04204C" d="M1.2 6l.3-5h59.7v5l1.2.3V0H0v6"/>
    <path fill="#00A9E2" d="M22.5 16l-6.1 6.1c.5 1.2 6.9 7.7 9.3 7.7 4.5.1 3.6-9.6-4.1-6.6l.9-7.2z"/>
    <path fill="#A23781" d="M4.8 40v.3c5.1 1.4 7.2 1.6 12.3-.2 1.9-.6 3.7-1.3 5.7-1.8 2.9-.6 4.1-.1 6.7-.1l.3-.3c-2.3-.5-3.3-1.3-6.3-1-2.2.2-4.1.8-6 1.3-4.4 1.5-7.5 2.5-12.7 1.8z"/>
    <path fill="#EADB16" d="M57.6 40.3V40c-5.5.6-8.4-.4-13.2-1.8-4.2-1.3-8.9-1.9-12.4.4 6.5-.6 5.6-1.1 13 1.4 6.3 2.2 7.3 1.6 12.6.3z"/>
    <path fill="#00A9E2" d="M38.5 20.8l-.1.7c2.2.2 3.3 2.1 3.4 4.4.8-.5 3.5-3.1 3.8-3.9l-5-4.8c.1 2.4-.7 2.7-2.1 3.6z"/>
    <path fill="#00A44C" d="M30.2 36.7l.2-.2c-2.3.1-3.2-2.7-12.9-.2-7.3 1.9-5.4 1.7-12.9 2 4.1 1.3 9.1.4 13-.7 8.2-2.3 6.1-1.5 12.6-.9z"/>
    <path fill="#F17E21" d="M32 36.7c2.5-.1 3.7-.9 6.8-.5 5.2.6 12 4.2 19 2.1-2.8-.1-4.4 0-7.2-.5-6.1-1.4-12.5-4.4-18.6-1.1z"/>
    <path fill="#F8ADAE" d="M31.6 40.2c4.6-1.7 7-.4 10.7 1.3 4.4 2.1 6.2 1.8 11.2.9-2.2-.3-4.1-.1-6.3-.7-8-1.8-7.4-4.8-15.6-1.5z"/>
    <path fill="#2B2F7F" d="M12.7 21.8c-.1 0-.2-.2-.5-1.5 0 1.8.5.9.6 1.1.6-.7-.1.3.7.5l-.8-.1zm.8.2c-.2-1 .1-.5.4-1.3-1 .1-1.7.1-2.3.8.5.7 1.3.9 2 1.2l-.1-.7z"/>
    <path fill="#00A9E2" d="M29.4 39.8l.3-.1c-1.9-.4-2.9-1.1-5.3-.9-1.6.2-3.3 1-4.7 1.5-4.5 1.8-5.7 1.5-10.7 2.1 11.5 1.7 8.2-.6 14.8-2.6 2.3-.7 3.5 0 5.6 0z"/>
    <path fill="#8E9093" d="M31.4 42.2c5.2-1.4 5.8-.9 10.6.4-2.6-1.7-8.2-4-10.6-.4z"/>
    <path fill="#EA1D25" d="M30.5 42l.2-.2c-2-3.2-8.2-.5-10.2.8 1.6-.4 3.1-1 4.9-1.2 2.3-.3 3.1.3 5.1.6z"/>
    <path fill="#2B2F7F" d="M48.3 28.8c0-.1.2-.4.3.1.3.8-.2.3-.3-.1zm0-1.9l-.5 1.9c-.8.7-.2-.1-.7.8l1.9-.2c1.2-.3-.6-1.2-1.1-1.9l.9-.4 1 .7c-.1-.7.1-.3-.2-.8-.5-.4-.2.6-.4-.5l.9.1c-.4-.4-.1-.3-.7-.5-.3-.1-.4 0-.7-.1l-.7.1v.3h.7c.2.9.2.2-.4.5zm-4.8-15.7c-.3-1.9.8-1 1.6-.5 0-.7-.2-.7-.6-1.1-1.1 0-.9 0-1.6.5v1.3c.4.3.4.3.8.5 1.5-1.1.5-1.2.5-1.2-.5 0-.1-.1-.4.3-.3.3.3 0-.3.2zm-4-2.4c1-.5.4-.3 1-1.1 0 1.7-.2 1 .3 1.7.6-.3 1.1-1 1.1-1.9l-.9.9c-.2-.8.2-.9-.3-1.6-.5.3-1 1.1-1.2 2zm8.6 10.4c0-.5-.1-.6.3-.8.7-.4.8.1.8.1.4.9-.4.9-1.1.7zm-.2.4c3.4 1.3 1.8-3.8-.3-1.1l.3 1.1zm-24-12.7c-1-.7-.4-.7-1.6-.7l.7 2.1c.5-.6.2.4.3-.5 0-.1-.2-.6-.2-.8 1 .5.4.5 1.6.8-.1-.9-.3-1.4-.8-2.1-.1.3-.2 0-.1.7-.2-.1.1.4.1.5zm-8.5 27.7c-.1-1.1.2-1.3 1.2-1-.4.9-.4.7-1.2 1zm0 .5c.9-.1 1.3-.6 1.8-1.2-.8-1.4-1.8-1.4-2.4.2l.6 1zm-2.5-10.5c-.3.5.5.6-.6.2l.6-.2zm.3 1.1c.6-.2.6.4.4-.5l-.3-.2c.1-1 0-.1.2-.7 0 0 .1 0 .2-.5-2.2.6-1.9.6-2.1 1.2.7.6.8.3 1.6.7zm36.3-4.4c-.6-.1-.1-.1-.5.1-.1 0 0 .8-.3.2 0-.1-.1.1-.2.1.1-.9-.1-.5.5-1 1.1 0 .4 0 .7.3.5.5.1.2.5 1 .3-.7.2-1-.1-1.8l-1.7.2c-.4.9-.3.7-.1 1.7l1-.1.2-.7zm.1 3.7c-.8.1-.2.3-.6-.4l.6.4zm-1.5.7h.4c.9-.2 1.3-.2 1.8-.7-.3-.6-.1-.5-2.1-1.1.3 1.2.9.4-.1 1.8zM30.2 4.6c.3.4.6-.1 0 .6-.6-.5-.1-.4 0-.6zm.4 1.8c.6 0 .4.1.4-.4-.3-1 .1-.5-.2-1.6l-1.3-.2.1 2.1c.6-.2-.1.4.7-.8.2.5.2.4.3.9zm-8.8 1.9s.1 1-.8 0c-.5-.6.2-.4-.9-.9.2 1.3.8 1.9 2.1 1.6.2-.6.3-1.2-.3-1.9s0-.1-.7-.5c.2.9.7 1.4.6 1.7zm-7.4 22.6c-.6 0-.4-.1-.4.5l-.7-.4c0 .8-.1.6.4 1.2.8-.1 1.2-.3 1.8-.8-.1-.8 0-.7-.6-1.1 0 .9.2.6-.3 1l-.2-.4zm33.8.5c-.3 0-.9.4 0-.6.5 1 .1.5 0 .6zm.8-.8l-1.9-.8.5.9-1 .2.8.5c.7.4-.1.4 1.2.3l.4-1.1zm-3.2 3.5c-.5-.8.3-.2.3-.2.7-.3-.1.6-.3.2zm.2-1.6c-1.3.6.3-.8-.2.4l-.1.3v.5l-.9.4c.5.4 1.5.7 2.1.5.2-.8-.5-1.1-.9-2.1zm-32.7-5.1c-.1 0 .5.7-.6 0l.5-.3.2-.1-.2-.9-1.3.3c.4.5 1 .4 1 .4-.6.4-.8.4-.8 1.3 1-.1 1.5 0 2.1-.5-.4-.2.5-.3-.9-.2zm32.4-13.7l.7-.6c.8.2.3-.4.6.4l-.4.1c-.1 0-.2.1-.2.1s-.1.2-.2.1c0 0-.1.1-.1.2l-.3.8c1-.5.1-.2.8-.7.1-.1.6-.3.8-.4 0-1-.1-.9-.6-1.3-.6.3-1.2.6-1.6 1.2.3.3-.1.5.5.1zM26.6 6.2c-.2-.2-.3-.5-.5-.7-.4-.5-.2-.4-.8-.6.8 2.1 1 1.9 1.7 2.1l.3-2.4c-.6.4-.3-.6-.7 1.6zm14.8 3.6l1 .7-.4-1 .9.2c-.2-.5-.3-.5-.3-.9.1 0 .3.1.4.1h.5c-.4-.5-.2-.4-1.1-.8-.4.8-.8 1-1 1.7zm-27.1 7.9l.3.2c.5-.8.1-1.8-1.3-.7l-.1-.9c-.7.5-.6.6-.1 1.4h1.2zm0-3.4c-.1.5.4.4-.5.2.1.6-.2.4.7.9l.9.5c.2-.2.3.4.2-.3l-.6-.4c.5-.4.2-.3 1.1-.3l-.1-.1c-.9-.4-.5 0-1-.4l-.2-.7c-.7.2-.6-.5-.5.6zM46.1 12c.5 0 .4.1.3-.4l-.5-.6-1.8 1.2.8 1c.2-.4 0-.5-.1-1.1l.9.4c-.2-.9-.3-.5 0-1l.4.5zm-29.4-1.8c.4 1.3.4 1 1.5.9l-.2.7c0 .1-.1.1-.1.2s-.1.1-.1.2c1.7-.6 1.3-2-.4-1.4.6-1.4.3-.6-.1-1l-.6.4z"/>
    <path fill="#2B2F7F" d="M48.8 16.4c.1-.6.2-.5-.4-.4-.8 1.3-.9.4-1.3 1.4l2.2-.1-.5-.9zM32.2 4.7c.6.1.5.2.5-.4-2-.2-1 .9-.4 1.5l-.5.2-.1.1-.1.1c.6.3 1.2.4 1.3-.3.1-.5-.4-.6-.7-1.1v-.1zM17.9 9.4c.4.2-.1.3.8-.2l-.1.8.8-.2-.4.9s-.1.1-.1.2c.7-.2.7-.3 1.1-.8l-1.3-1.4c-.9.3-.5.1-.8.7zm19.8-2.1l-.3.1c.3.4-.3.2.4.4.4.1.4.1.7-.1.6-.4.2-.8-.1-1.2 0-.1-.5.2 0-.3.7-.7.2-.1.4 0 .5.4.8-.6-.9-.4-.3 1.2-.1.4.2 1.7l-.4-.2zM50.4 24c-.2-1 0 0-.2-.5s-.4.3 0-.8c0 0 .1-.1.1-.2s.1-.2.1-.2c-.5.2-.8.4-1.2.6-.1 0-.5.2-.5.2-.6.3-.1-.1-.4.3.5.1 1.5.4 2.1.6zM29.2 6.6l-.4-.2s-.1-.1-.2-.1l-.3-.3c.3-.6-.3-.2.7-.5l-.3-.2s-.4-.2-.5-.3l.5-.2c-.3-.2.3-.3-1-.3l.1 1.9 1.4.2zM46 31.9l.4.7c2 1.8-.2-.8 1.1 1.2.4-.7.5-.6.7-1.5-.6.3-.5.4-1.1.1-.6-.3-.3-.3-1.1-.5zM16.1 14.1h.5l-.2-.5c-.2-.3-.1.1-.2-.4 0 0 0-.4.1-.5l-.4.2s-.1.1-.2.1l-.2.1c0-.3.1-.7-.1-1l-.6 1 1.3 1zm-1.7 15.5c.1.1.4.3.5.4-.2-.8-.1-.7-.7-1.1-.7.3-.6.1-.7 1.2l-.5-.3c-.6-.3.2-.2-.5 0l.7.8c.8-.3.6.1.8-1.1.8-.2.2-.1.4.1zM34.6 6.8c.1-.2.2-.1.3-.5.2-.7-.1-.6.6-1.2l.1-.1.1-.1-1.7-.4c0 .1.1.1.1.2.1.3.2.2.3.3.3.9-.3.8.2 1.8zM11.9 23.6c.9-.5.9-.1 1.7-.4-.5-.9 0-.1-1.1-.4-.6-.2-.7-.5-1-.5v1.6c.9-.3-.6.3.4-.3zm.1-3.9c.6.5.8.5 2 .6l.2-1.1-.8.6c-1.5-.4-.9-.4-1.4-.1z"/>
    <path fill="#FFF" d="M48.1 19.2c.7.2 1.5.2 1.1-.7 0 0-.1-.5-.8-.1-.4.2-.3.3-.3.8z"/>
    <path fill="#2B2F7F" d="M33.7 5c0-.8.2-.7-.6-.5.1.6 0 .5 0 1.1 0 1-.1.6.2 1 .4-.8.3-.6.4-1.6zm-8.5 2.4c.2-.2.5.4.2-1-.1-.5-.4-.8-.6-1.1-.1.2-.4 0 0 .9 0 .5.2.9.4 1.2zM12.3 18.2c.3.3.6.4 1.1.5 1 .3.8.1 1-.1-.2-.3-.1-.2-.6-.4-1.2-.4-1.3-.1-1.5 0zm2 14.3c-.3.4-.1 0-.2.7.8-.2 1.6-.5 1.9-1.4l-1.7.7zm31.9-17c.6 0 1.7-.4 2-1.1-.8 0-1.8.4-2 1.1z"/>
    <path fill="#FFF" d="M15.4 34.6c.8-.3.9-.1 1.2-1-1-.3-1.3-.1-1.2 1z"/>
    <path fill="#D1D4E8" d="M49.5 21.3l.1-.3c-.3-.4.5-.3-.7-.3-.5.5-.3.1-.5 1 .1 0 .2-.1.2-.1.3.7.3-.1.3-.2.5-.2 0-.2.6-.1z"/>
    <path fill="#04204C" d="M36.3 5.5c.4.2.2.1.5.3-.2.9.2.4-.4.9h.1l.5.6V5.1c-1.1 0-.6 0-.7.4z"/>
    <path fill="#D1D4E8" d="M13.2 25.7c-.5 0-.1-.1 0 .4h.9c0-.8.3-1.1-.4-.9.1.9.1.3-.5.5z"/>
    <path fill="#9ADBF9" d="M29.4 39.8c.2.2-.2.3 1 .5.9.1.5-.1.6-.1-.8-.5-.3-.4-1.3-.5l-.3.1z"/>
    <path fill="#6467AF" d="M36.3 6l-.6.7.7.1c.6-.5.3 0 .4-.9-.2-.2-.1-.1-.5-.3l.1.4.1.4c-.4-.1-.3 0-.2-.4z"/>
    <path fill="#2B2F7F" d="M35.6 6.6l.7-.6.1-.1-.1-.4c-.7.4-.9.8-1.1 1.5l.4-.4z"/>
    <path fill="#9295C7" d="M14.9 14.3c.5.4.1.1 1 .4 0 0 .1 0 .1.1l.4-.5c0-.1.1-.1.1-.2H16c-.3.2.3 0-.5.2-.2.1-.3 0-.6 0zm21.5-7.6l.2.6.8.1.3-.1-.4-.4c-.1-.1-.3-.5-.3-.6v1l-.6-.6z"/>
    <path fill="#2B2F7F" d="M13.4 27c.7-.6.3 0 .7-.9h-.9l.2.9z"/>
    <path fill="#9295C7" d="M15.5 15.5c.2-.4.1-.4.5-.7-.9 0-.5-.1-1.1.3l.6.4z"/>
    <path fill="#CC95BA" d="M29.5 38.3c.3.2-.1.1.5.3.4.2-.1 0 .6.1l-.2-.2-.2-.2-.5-.3-.2.3z"/>
    <path fill="#A4D7BB" d="M31 36.7c-.3-.5.1-.1-.6-.2l-.2.2.2.2.2.1c.5 0 .4.2.4-.3z"/>
    <path fill="#9295C7" d="M48 26.1l.8.1c-.2-.5.1-.2-.2-.5h-.4l-.2.4zm1.8 1c.6-.3.2-.2.5-.4l-.9-.1c.2 1.1-.1.1.4.5z"/>
    <path fill="#6467AF" d="M45.7 13.7c.5-.1.4-.2.3.4 0-.1.1-.2.1-.2s.1-.1.2-.1c0 0 .1-.1.2-.1l-.1-.5-.7.5z"/>
    <path fill="#2B2F7F" d="M17.1 12.4c.1-.6.3-.5-.4-.5l-.1.7.5-.2z"/>
    <path fill="#6467AF" d="M28.8 4.8c.5-.4.1.1.3-.6l-1.3.3c1.3.1.7.2 1 .3z"/>
    <path fill="#D1D4E8" d="M48.2 31.4c0-.1.5.5 0-.6-.9.9-.3.5 0 .6z"/>
    <path fill="#9295C7" d="M48.3 26.9c.5-.2.6.4.4-.4H48l.3.4zm-22.6 4.7c.2-.5.1-.4.5-.7l-.7.1c-.2 1.1-.1.2.2.6zm3.5-25v-.5l-.9-.1.3.2s.1.1.2.1l.4.3z"/>
    <path fill="#52C4F1" d="M38.4 21.5l.1-.7-.5.3c.2.4-.5.2.4.4z"/>
    <path fill="#6467AF" d="M14.9 30.3V30c-.1-.1-.4-.3-.5-.4v.6l.5.1z"/>
    <path fill="#D1D4E8" d="M30.2 5.2c.6-.7.3-.2 0-.6-.1.2-.6.1 0 .6zm16.4 8.4l.4-.1c-.3-.8.2-.2-.6-.4l.2.5z"/>
    <path fill="#9295C7" d="M13.3 27.4l-.1-.3-.5.3c1.2.8.5.1.6 0z"/>
    <path fill="#FFF" d="M45.8 34.1c.2.4.9-.5.3-.2 0 0-.8-.6-.3.2z"/>
    <path fill="#D1D4E8" d="M48.3 28.8c0 .4.5.9.3.1-.1-.5-.3-.2-.3-.1z"/>
    <path fill="#F0565C" d="M30.5 42c.3.2-.1.2.7.2-.2-.2-.3-.2-.6-.4l-.1.2z"/>
    <path fill="#9295C7" d="M14.3 14.3c-.2-1.1-.2-.4.4-.6-.4-.2.5-.4-.4-.1-.1-.1-.4 0 0 .7zm17.9-9.6c.4.3-.7.3.7.2l-.3-.5c0 .5.2.3-.4.3z"/>
    <path fill="#F7F081" d="M57.6 40.3c.5-.2.1.1.7-.3h-.7v.3z"/>
    <path fill="#6467AF" d="M14.6 17.9l-.3-.2-.1.7"/>
    <path fill="#D1D4E8" d="M12.2 24.9c1.1.3.3.2.6-.2l-.6.2z"/>
    <path fill="#9295C7" d="M14.1 33.2c.2-.6 0-.3.2-.7-.1.2-.8.7-.2.7z"/>
    <path fill="#D1D4E8" d="M49.6 25l-.6-.5c.4.8-.2.5.6.5z"/>
    <path fill="#CC95BA" d="M4.8 40.3V40h-.6"/>
    <path fill="#9295C7" d="M46.1 12l.5.2c.2-1.1.1-.2-.2-.6 0 .5.1.4-.3.4zm-29 .4c.2-.5.4.7.1-.7l-.5.2c.7 0 .6-.1.4.5z"/>
    <path fill="#D1D4E8" d="M12.7 21.8c.7-1 .1-.3 0-.6-.5.9-.5-.9-.2.3.1.3.3.1.2.3z"/>
    <path fill="#9295C7" d="M37.9 14.8l.4.3c-.1-.7.1-.2-.4-.4v.1z"/>
    <path fill="#6467AF" d="M48.8 16.4l.2-.6c-1-.2-.2-.1-.5.2.5-.2.3-.3.3.4z"/>
    <path fill="#FFF" d="M36.4 5.9l-.1.1c0 .4-.1.3.3.3l-.2-.4z"/>
    <path fill="#6467AF" d="M38.4 6.5c-.1-.5-.1-.3.4-.3-.2-.1.3-.6-.4 0-.5.5 0 .2 0 .3z"/>
    <path fill="#9295C7" d="M33.7 5l.1-.6c-1.3-.5-.2-.1-.7.1.8-.2.6-.4.6.5z"/>
    <path fill="#6467AF" d="M30.6 6.4l.6.1L31 6c0 .5.2.4-.4.4z"/>
    <path fill="#9295C7" d="M14.1 31.4c0-.6-.2-.5.4-.5l-.5-.1.1.6z"/>
  </g>
</svg>
