<?xml version="1.0" encoding="UTF-8"?>
<!DOCTYPE svg PUBLIC "-//W3C//DTD SVG 1.1//EN" "http://www.w3.org/Graphics/SVG/1.1/DTD/svg11.dtd">
<!-- Creator: CorelDRAW X7 -->
<svg xmlns="http://www.w3.org/2000/svg" xml:space="preserve" width="2550px" height="3300px" version="1.1" shape-rendering="geometricPrecision" text-rendering="geometricPrecision" image-rendering="optimizeQuality" fill-rule="evenodd" clip-rule="evenodd"
viewBox="0 0 2550 3300"
 xmlns:xlink="http://www.w3.org/1999/xlink">
 <g id="Layer_x0020_1">
  <metadata id="CorelCorpID_0Corel-Layer"/>
  <g id="_427337304">
   <path fill="#FEFEFE" d="M1283 2177c57,-102 220,-36 294,12 -49,-10 -90,-29 -142,-34 -70,-6 -93,10 -152,22zm-24 -10l15 10 -20 -6c-57,-7 -77,-23 -144,-15 -48,6 -92,22 -137,34 63,-44 234,-109 286,-23zm27 -45c138,-53 150,-59 293,-5 201,75 141,43 319,65 -375,81 -310,-148 -612,-60zm-56 -16c26,3 16,-2 36,15 -2,0 -8,3 -15,1 -27,-4 -14,-3 -28,-13 -164,1 -74,-39 -277,57 -114,54 -180,35 -294,16 134,-13 170,-6 299,-57 42,-17 86,-38 131,-43 66,-8 92,11 148,24zm784 11c7,-4 -1,-13 20,0l-19 9c-159,39 -194,45 -354,-9 -55,-19 -110,-39 -167,-49 -92,-16 -120,5 -198,7 123,-63 216,-50 348,-9 140,43 218,68 370,51zm-1480 8l-17 -9 18 0c144,18 222,-5 356,-46 57,-17 109,-33 169,-37 84,-7 105,13 177,29l22 14c-30,3 -13,8 -31,-7 -75,0 -105,-15 -188,2 -53,11 -109,31 -161,49 -142,50 -203,46 -345,5zm764 -103c176,-93 347,-7 522,29 79,17 125,11 201,16 -198,61 -384,-42 -533,-59 -86,-9 -121,13 -190,14zm-467 -44l-18 -28c17,-43 48,-46 68,-4 -14,18 -28,29 -50,32zm855 -71c14,19 32,37 30,60 -21,2 -47,-5 -63,-18l26 -12c5,-22 -10,-10 7,-30zm6 -18c54,13 12,21 60,13l-20 39c-24,-42 12,4 -30,-35 -22,-20 0,-5 -10,-17zm-898 37l-4 -8 12 -11c22,-8 23,-16 46,-16 -7,19 -33,30 -54,35zm23 -82c17,11 14,10 18,30 -16,15 -29,20 -52,24 -13,-18 -12,-12 -10,-34l21 9 -4 -16 15 2 5 15c13,-13 8,-6 7,-30zm905 -14l53 23 -14 31c-20,0 -44,-12 -57,-20l29 -9c-16,-19 -13,-3 -11,-25zm-904 5l-1 9 -11 -2 -2 -17 -11 -4c-7,33 1,23 -23,30 -22,-14 -9,1 -18,-24 23,-3 -10,-8 12,2 0,0 3,1 3,2l8 5c7,-28 0,-21 22,-30 20,10 16,5 21,29zm945 -120c9,8 0,-1 6,13 28,2 24,-2 40,15l-13 11 6 21 -29 -20 -26 13c21,26 44,21 42,49l-62 8c9,-24 -2,-6 17,-23l-5 -41 17 -13 -10 -14 0 -8 4 -12 14 -20 -10 -31c23,5 49,12 60,30 -15,18 -28,16 -51,22zm-981 -16c19,0 12,7 12,26l-23 29 3 9c28,-3 13,-1 23,5 -17,11 -37,12 -59,12 0,-24 2,-17 22,-36 -12,-3 -14,3 -29,-8l39 -10c-3,-15 -13,-12 0,-12 -24,-12 -26,0 -46,-21 9,-20 37,-27 58,-31l-11 31 11 6zm-57 -34l-1 -45c28,11 -6,6 27,14 30,9 18,-11 32,12 -20,8 -15,1 -33,5 -34,8 -2,4 -25,14zm1086 2c-15,-6 -49,-17 -57,-22 10,-8 41,-20 58,-26 -13,64 -4,-1 -1,48zm-332 -89c56,-36 56,-35 61,-101l139 135c-10,23 -85,94 -105,109 -7,-59 -26,-119 -97,-124l-14 -8 16 -11zm-697 47c-20,-6 -43,-14 -55,-32 16,-19 36,-19 62,-20 -14,41 -14,3 -7,52zm1008 -34l-9 22 -27 1c-9,-25 -10,-23 2,-46l44 -6c12,21 16,27 4,47l-13 -25 -1 7zm-1055 -45c18,-11 6,-4 29,-2 37,2 5,6 32,-12l-4 30c-25,-1 -39,-2 -57,-16zm997 -34c63,-73 103,68 10,31l-10 -31zm-986 -7c15,-10 44,1 58,13 -15,9 0,10 -28,3 -14,-4 -21,-8 -30,-16zm260 140c206,-88 247,190 114,186 -73,-3 -252,-202 -260,-217l170 -172 -24 203zm-196 -151l-11 13 2 -18 1 -15c-22,10 -15,14 -35,13 -17,-19 -16,-20 2,-37l3 24c43,-28 53,-2 38,20zm947 -52l14 -6 -3 17 -7 8c24,15 8,-5 20,18l-59 4c6,-22 18,-14 35,-41zm-61 -14c6,-19 35,-30 54,-29 -7,18 -35,29 -54,29zm-426 594l-9 14 -13 -13c-184,-18 -130,-37 -354,25 -116,32 -251,55 -365,19 74,-5 118,1 195,-15 114,-22 238,-72 349,-72 70,0 149,36 179,36 -4,-19 -110,-122 -133,-136l-6 -16 19 -4c146,-20 233,-222 61,-273 -53,-16 -98,4 -147,15l18 -111 189 -1c10,-24 23,-51 19,-76l-206 0c12,-26 170,-178 202,-207 24,17 189,177 197,198l12 9 -13 -6c-48,2 -107,-13 -158,54 -17,22 -29,29 -16,49 23,-5 39,-37 67,-45 99,-29 138,93 27,141 -30,13 -26,3 -37,28 27,18 23,0 61,7 15,3 33,14 43,24 29,28 32,73 22,111 -34,124 -139,11 -178,5 -44,8 -61,125 137,76 -5,14 -142,149 -162,164zm423 -634c0,-14 4,-12 -10,-10 -17,11 -6,6 -16,0l46 -35c40,39 4,43 -5,49 -16,12 -2,7 -21,19l6 -23zm-829 1l-15 20c-18,16 -5,5 -14,20l-3 11c-20,-13 -36,-18 -49,-35 22,-11 14,9 18,-11 -9,-17 -8,1 -2,-22l12 4 7 19c23,0 16,3 33,-6l-40 -30 19 -28c8,24 3,3 3,29l18 -11c0,27 -2,13 6,27l7 13zm5 -61l14 -6 -3 19 -13 7 2 -20zm832 -8l5 15 -14 -4 -10 -10c-9,12 -5,-2 -3,25l-20 -11c4,30 6,13 0,31l-21 -28 45 -37 18 19zm-816 -52c13,20 10,0 1,27 24,-7 10,-11 33,1 11,28 2,31 -22,35l12 -26c-28,2 -31,15 -41,-24l17 -13zm735 40l12 -10c35,-27 -24,1 13,-7 7,22 1,23 -16,36 -83,-35 35,-107 34,-33 -24,-17 -53,-34 -43,14zm-689 -11c16,-22 10,-2 12,-26l-22 3 2 -22c-18,10 -8,10 -22,4 9,-17 4,-12 24,-19 13,7 30,26 35,40 -14,22 -8,17 -29,20zm661 -78l29 23c-21,8 0,3 -27,-1l10 23 -25 -4 9 29 -28 -23 32 -47zm-81 19c1,-18 1,-31 30,-54 19,18 10,13 12,45l23 -25c1,21 -16,44 -31,54 -16,-23 -8,-17 -9,-48 -17,21 -3,15 -25,28zm-546 -36c34,15 16,47 48,27 -2,-24 -13,-15 -15,-48 23,14 36,37 23,63 -33,14 -55,-11 -56,-42zm483 0l-21 -3 -6 -18 -2 1 -19 -2 -11 8c5,-22 12,-31 29,-41 4,-10 -11,-11 17,-9l1 33c12,20 3,11 20,28l14 3c-5,-34 -16,-9 -5,-45 43,-7 38,21 25,11 -17,-2 -15,-7 -13,8 13,19 14,13 5,31 -16,10 -22,11 -34,-5zm-379 -16c-6,-18 -11,-15 -4,-36 15,20 22,34 23,59 -33,-4 -12,-5 -40,-19 6,38 6,23 -4,35l-19 -57c37,-1 14,2 44,18zm39 14c-13,-16 -24,-41 -15,-59 8,10 13,17 17,32 8,28 6,15 -2,27zm38 -33c6,-26 -2,-27 15,-44 4,23 2,42 -6,64 -23,-4 -32,-14 -42,-54 22,8 19,16 33,34zm125 -6l3 15 -16 -3 -11 -23c-13,26 5,16 -17,23l-1 -60 36 5c9,31 -3,15 6,43zm98 24c-12,-27 -2,-15 -2,-37 -1,-20 -9,-10 -11,-29l46 11c-24,19 -11,-6 -21,23 -7,21 4,9 -12,32zm-40 -67l19 -1 -2 16c-4,26 0,24 -11,46 -13,-26 -1,-29 -6,-61zm-136 44l26 2 -1 15 -36 -4 -4 -54 38 -5 -8 14 -19 6 24 11c-26,10 -9,-1 -20,15zm123 -48l6 16 -19 -5 -5 3c16,22 28,14 17,40 -22,12 -14,11 -35,-4l24 -6c-19,-24 -24,-9 -19,-42l31 -2zm-883 47l0 636c24,40 -9,390 9,473l1673 1 2 -476 0 -633 -3 -139 -1672 0c-7,40 11,107 -9,138z"/>
   <path fill="#2E3191" d="M1132 1860c-17,16 -5,4 -13,20 23,14 129,117 133,136 20,2 10,-8 18,6 20,-15 157,-150 162,-164 -198,49 -181,-68 -137,-76 39,6 144,119 178,-5 10,-38 7,-83 -22,-111 -10,-10 -28,-21 -43,-24 -38,-7 -34,11 -61,-7 11,-25 7,-15 37,-28 111,-48 72,-170 -27,-141 -28,8 -44,40 -67,45 -13,-20 -1,-27 16,-49 51,-67 110,-52 158,-54l1 -3c-8,-21 -173,-181 -197,-198 -32,29 -190,181 -202,207l206 0c4,25 -9,52 -19,76l-189 1 -18 111c49,-11 94,-31 147,-15 172,51 85,253 -61,273z"/>
   <path fill="#052565" d="M433 1161c20,-31 2,-98 9,-138l1672 0 3 139 32 8 1 -177 -1750 0 0 168 33 0z"/>
   <path fill="#00AEEE" d="M1030 1442l-170 172c8,15 187,214 260,217 133,4 92,-274 -114,-186l24 -203z"/>
   <path fill="#A54485" d="M535 2116l-1 9c142,41 203,45 345,-5 52,-18 108,-38 161,-49 83,-17 113,-2 188,-2l9 -7c-72,-16 -93,-36 -177,-29 -60,4 -112,20 -169,37 -134,41 -212,64 -356,46z"/>
   <path fill="#EBDB03" d="M2015 2126l-1 -9c-152,17 -230,-8 -370,-51 -132,-41 -225,-54 -348,9 78,-2 106,-23 198,-7 57,10 112,30 167,49 160,54 195,48 354,9z"/>
   <path fill="#00AEEE" d="M1479 1578l-2 19c71,5 90,65 97,124 20,-15 95,-86 105,-109l-139 -135c-5,66 -5,65 -61,101z"/>
   <path fill="#F4811E" d="M1298 2022c69,-1 104,-23 190,-14 149,17 335,120 533,59 -76,-5 -122,1 -201,-16 -175,-36 -346,-122 -522,-29z"/>
   <path fill="#02A651" d="M1248 2023l4 -7c-30,0 -109,-36 -179,-36 -111,0 -235,50 -349,72 -77,16 -121,10 -195,15 114,36 249,13 365,-19 224,-62 170,-43 354,-25z"/>
   <path fill="#F7AFB0" d="M1286 2122c302,-88 237,141 612,60 -178,-22 -118,10 -319,-65 -143,-54 -155,-48 -293,5z"/>
   <path fill="#00AEEE" d="M1223 2109l7 -3c-56,-13 -82,-32 -148,-24 -45,5 -89,26 -131,43 -129,51 -165,44 -299,57 114,19 180,38 294,-16 203,-96 113,-56 277,-57z"/>
   <path fill="#929497" d="M1283 2177c59,-12 82,-28 152,-22 52,5 93,24 142,34 -74,-48 -237,-114 -294,-12z"/>
   <path fill="#EC1B24" d="M1254 2171l5 -4c-52,-86 -223,-21 -286,23 45,-12 89,-28 137,-34 67,-8 87,8 144,15z"/>
   <path fill="#2E3191" d="M1756 1802c0,-2 4,-13 8,1 5,16 -7,11 -8,-1zm0 -54l-17 13 5 41c-19,17 -8,-1 -17,23l62 -8c2,-28 -21,-23 -42,-49l26 -13 29 20 -6 -21 -10 -14 23 3c-16,-17 -12,-13 -40,-15l-23 -2 0 8 19 2c3,13 6,5 -9,12z"/>
   <path fill="#2E3191" d="M1511 1238c22,-13 8,-7 25,-28 1,31 -7,25 9,48 15,-10 32,-33 31,-54l-23 25c-2,-32 7,-27 -12,-45 -29,23 -29,36 -30,54z"/>
   <path fill="#2E3191" d="M1750 1531c-2,-24 8,-27 31,-20 6,26 -10,31 -31,20zm-8 12c93,37 53,-104 -10,-31l10 31z"/>
   <path fill="#2E3191" d="M832 1963c-2,-25 4,-41 30,-25 -5,20 -10,19 -30,25zm-1 15c22,-3 36,-14 50,-32 -20,-42 -51,-39 -68,4l18 28z"/>
   <path fill="#2E3191" d="M1620 1308c-10,-48 19,-31 43,-14 1,-74 -117,-2 -34,33 17,-13 23,-14 16,-36 -37,8 22,-20 -13,7l-12 10z"/>
   <path fill="#2E3191" d="M1069 1186c-30,-16 -7,-19 -44,-18l19 57c10,-12 10,3 4,-35 28,14 7,15 40,19 -1,-25 -8,-39 -23,-59 -7,21 -2,18 4,36z"/>
   <path fill="#2E3191" d="M1790 1591c-27,-4 -16,27 -24,7 -1,-2 -3,1 -5,1 3,-21 -6,-8 12,-25 27,2 11,-1 18,10l13 25c12,-20 8,-26 -4,-47l-44 6c-12,23 -11,21 -2,46l27 -1 9 -22z"/>
   <path fill="#2E3191" d="M774 1763c-6,3 9,14 -16,0l13 -9 23 -29 -24 1 -39 10c15,11 17,5 29,8 -20,19 -22,12 -22,36 22,0 42,-1 59,-12 -10,-6 5,-8 -23,-5z"/>
   <path fill="#2E3191" d="M1248 1122c10,13 16,-2 0,18 -16,-16 -4,-11 0,-18zm10 51c17,0 13,4 13,-12 -9,-28 3,-12 -6,-43l-36 -5 1 60c22,-7 4,3 17,-23l11 23z"/>
   <path fill="#2E3191" d="M1752 1875c-15,-16 -8,-8 0,-19 8,16 9,1 0,19zm23 -22l-53 -23c-2,22 -5,6 11,25l-29 9c13,8 37,20 57,20l14 -31z"/>
   <path fill="#2E3191" d="M1685 1951c7,-5 8,-5 8,-5 15,-8 -2,15 -8,5zm1 -44c-17,20 -2,8 -7,30l-26 12c16,13 42,20 63,18 2,-23 -16,-41 -30,-60z"/>
   <path fill="#2E3191" d="M1774 1698c10,-14 -14,-20 19,-7l-19 7zm-24 16l13 1c23,-6 36,-4 51,-22 -11,-18 -37,-25 -60,-30l10 31 -14 20z"/>
   <path fill="#2E3191" d="M1013 1229c-32,20 -14,-12 -48,-27 1,31 23,56 56,42 13,-26 0,-49 -23,-63 2,33 13,24 15,48z"/>
   <path fill="#2E3191" d="M745 1694c0,0 -1,-16 12,-5 15,14 -11,7 -12,5zm25 20c18,-5 17,11 12,-15l-11 -6 11 -31c-21,4 -49,11 -58,31 20,21 22,9 46,21z"/>
   <path fill="#2E3191" d="M805 1859c-16,0 -11,-3 -11,14l-21 -9c-2,22 -3,16 10,34 23,-4 36,-9 52,-24 -4,-20 -1,-19 -18,-30 1,24 6,17 -7,30l-5 -15z"/>
   <path fill="#2E3191" d="M746 1602c-2,-20 -1,-6 13,-7 16,0 -11,25 -13,7zm36 23c-7,-49 -7,-11 7,-52 -26,1 -46,1 -62,20 12,18 35,26 55,32z"/>
   <path fill="#2E3191" d="M801 1394c-4,20 4,0 -18,11 13,17 29,22 49,35l3 -11 -17 -13 31 -7c-23,-16 -7,5 -31,-14l-7 -19c-15,6 -14,-12 -10,18z"/>
   <path fill="#2E3191" d="M1683 1378c12,-6 11,-4 20,-16 17,3 8,-8 17,9l-13 5c-13,9 1,-14 -14,12l-6 23c19,-12 5,-7 21,-19 9,-6 45,-10 5,-49l-46 35c10,6 -1,11 16,0z"/>
   <path fill="#2E3191" d="M1146 1167c-14,-18 -11,-26 -33,-34 10,40 19,50 42,54 8,-22 10,-41 6,-64 -17,17 -9,18 -15,44z"/>
   <path fill="#2E3191" d="M868 1281c10,39 13,26 41,24l-12 26c24,-4 33,-7 22,-35 -23,-12 -9,-8 -33,-1 9,-27 12,-7 -1,-27l-17 13z"/>
   <path fill="#2E3191" d="M1692 1331c14,0 10,3 9,-11l-18 -19 -45 37 21 28c6,-18 4,-1 0,-31l20 11c-2,-27 -6,-13 3,-25l10 10z"/>
   <path fill="#2E3191" d="M1560 1266l28 23 -9 -29 25 4 -10 -23c27,4 6,9 27,1l-29 -23 -32 47z"/>
   <path fill="#2E3191" d="M901 1256c14,6 4,6 22,-4l-2 22 22 -3c-2,24 4,4 -12,26 21,-3 15,2 29,-20 -5,-14 -22,-33 -35,-40 -20,7 -15,2 -24,19z"/>
   <path fill="#2E3191" d="M1303 1125c17,2 13,6 13,-11l-31 2c-5,33 0,18 19,42l-24 6c21,15 13,16 35,4 11,-26 -1,-18 -17,-40l5 -3z"/>
   <path fill="#2E3191" d="M1811 1667c-3,-49 -12,16 1,-48 -17,6 -48,18 -58,26 8,5 42,16 57,22z"/>
   <path fill="#2E3191" d="M1456 1199l-8 3c12,16 18,15 34,5 9,-18 8,-12 -5,-31l-2 -10 15 2c13,10 18,-18 -25,-11 -11,36 0,11 5,45l-14 -3z"/>
   <path fill="#2E3191" d="M801 1489l9 5c15,-22 5,-48 -38,-20l-3 -24c-18,17 -19,18 -2,37 20,1 13,-3 35,-13l-1 15z"/>
   <path fill="#2E3191" d="M1768 1453c2,-18 6,-16 -11,-11 -17,27 -29,19 -35,41l59 -4c-12,-23 4,-3 -20,-18l7 -8z"/>
   <path fill="#2E3191" d="M804 1825c5,4 9,6 14,10 -5,-24 -1,-19 -21,-29 -22,9 -15,2 -22,30l-8 -5c0,-1 -3,-2 -3,-2 -22,-10 11,-5 -12,-2 9,25 -4,10 18,24 24,-7 16,3 23,-30l11 4z"/>
   <path fill="#2E3191" d="M1218 1179c-2,-2 -4,-3 -5,-4 -2,-1 -4,-3 -6,-3l-9 -7c-1,-2 -3,-2 -5,-3 11,-16 -6,-5 20,-15l-24 -11 19 -6c-17,-12 1,-9 -30,-9l4 54 36 4z"/>
   <path fill="#2E3191" d="M851 1389l13 0 -7 -13c-8,-14 -6,0 -6,-27l-18 11c0,-26 5,-5 -3,-29l-19 28 40 30z"/>
   <path fill="#2E3191" d="M750 1651c18,-4 13,3 33,-5 -14,-23 -2,-3 -32,-12 -33,-8 1,-3 -27,-14l1 45c23,-10 -9,-6 25,-14z"/>
   <path fill="#2E3191" d="M1369 1185c16,-23 5,-11 12,-32 10,-29 -3,-4 21,-23l-46 -11c2,19 10,9 11,29 0,22 -10,10 2,37z"/>
   <path fill="#2E3191" d="M1692 1889c10,12 -12,-3 10,17 42,39 6,-7 30,35l20 -39c-48,8 -6,0 -60,-13z"/>
   <path fill="#2E3191" d="M735 1546c18,14 32,15 57,16l4 -30c-27,18 5,14 -32,12 -23,-2 -11,-9 -29,2z"/>
   <path fill="#2E3191" d="M1346 1133c0,-24 6,-20 -17,-15 5,32 -7,35 6,61 11,-22 7,-20 11,-46z"/>
   <path fill="#2E3191" d="M802 1907c-8,10 -2,1 -8,19 21,-5 47,-16 54,-35 -23,0 -24,8 -46,16z"/>
   <path fill="#FEFEFE" d="M1750 1531c21,11 37,6 31,-20 -23,-7 -33,-4 -31,20z"/>
   <path fill="#2E3191" d="M1108 1200c8,-12 10,1 2,-27 -4,-15 -9,-22 -17,-32 -9,18 2,43 15,59z"/>
   <path fill="#2E3191" d="M746 1505c9,8 16,12 30,16 28,7 13,6 28,-3 -14,-12 -43,-23 -58,-13z"/>
   <path fill="#2E3191" d="M1696 1428c19,0 47,-11 54,-29 -19,-1 -48,10 -54,29z"/>
   <path fill="#FEFEFE" d="M832 1963c20,-6 25,-5 30,-25 -26,-16 -32,0 -30,25z"/>
   <path fill="#052565" d="M1418 1147l16 8 -15 27 2 -1 13 17 2 -27 -1 -33c-28,-2 -13,-1 -17,9z"/>
   <path fill="#D2D4E8" d="M1790 1591l1 -7c-7,-11 9,-8 -18,-10 -18,17 -9,4 -12,25 2,0 4,-3 5,-1 8,20 -3,-11 24,-7z"/>
   <path fill="#D2D4E8" d="M770 1714c-13,0 -3,-3 0,12l24 -1c0,-19 7,-26 -12,-26 5,26 6,10 -12,15z"/>
   <polygon fill="#6A6CB1" points="1417,1161 1400,1180 1419,1182 1434,1155 1418,1147 1420,1158 1420,1169 "/>
   <path fill="#2E3191" d="M1400 1180l17 -19 3 -3 -2 -11c-17,10 -24,19 -29,41l11 -8z"/>
   <path fill="#99DDF8" d="M1223 2109c14,10 1,9 28,13 7,2 13,-1 15,-1 -20,-17 -10,-12 -36,-15l-7 3z"/>
   <path fill="#9798C8" d="M818 1395c24,19 8,-2 31,14l15 -20 -13 0c-17,9 -10,6 -33,6z"/>
   <path fill="#9798C8" d="M1421 1181l6 18 21 3 8 -3c-17,-17 -8,-8 -20,-28l-2 27 -13 -17z"/>
   <path fill="#A5DDBD" d="M1270 2022c-8,-14 2,-4 -18,-6l-4 7 13 13 9 -14z"/>
   <path fill="#CD97BB" d="M1228 2069c18,15 1,10 31,7l-22 -14 -9 7z"/>
   <path fill="#9798C8" d="M1746 1726l23 2c-6,-14 3,-5 -6,-13l-13 -1 -4 12z"/>
   <path fill="#2E3191" d="M880 1341c4,-18 8,-13 -11,-13l-2 20 13 -7z"/>
   <path fill="#9798C8" d="M835 1429c9,-15 -4,-4 14,-20l-31 7 17 13z"/>
   <path fill="#D2D4E8" d="M746 1602c2,18 29,-7 13,-7 -14,1 -15,-13 -13,7z"/>
   <path fill="#9798C8" d="M1218 1179l1 -15 -26 -2c2,1 4,1 5,3l9 7c2,0 4,2 6,3 1,1 3,2 5,4z"/>
   <path fill="#6A6CB1" d="M1683 1378c14,-2 10,-4 10,10 15,-26 1,-3 14,-12l-4 -14c-9,12 -8,10 -20,16z"/>
   <path fill="#D2D4E8" d="M1248 1140c16,-20 10,-5 0,-18 -4,7 -16,2 0,18z"/>
   <path fill="#9798C8" d="M1756 1748c15,-7 12,1 9,-12l-19 -2 10 14z"/>
   <path fill="#6A6CB1" d="M1208 1130l8 -14 -38 5c31,0 13,-3 30,9z"/>
   <path fill="#F5EE86" d="M2015 2126l19 -9c-21,-13 -13,-4 -20,0l1 9z"/>
   <path fill="#D2D4E8" d="M1707 1376l13 -5c-9,-17 0,-6 -17,-9l4 14z"/>
   <path fill="#6A6CB1" d="M817 1844l1 -9c-5,-4 -9,-6 -14,-10l2 17 11 2z"/>
   <polygon fill="#9798C8" points="1796,1754 1809,1743 1786,1740 "/>
   <path fill="#D2D4E8" d="M745 1694c1,2 27,9 12,-5 -13,-11 -12,5 -12,5z"/>
   <polygon fill="#58C6F3" points="1477,1597 1479,1578 1463,1589 "/>
   <path fill="#D2D4E8" d="M1752 1875c9,-18 8,-3 0,-19 -8,11 -15,3 0,19z"/>
   <path fill="#9798C8" d="M1119 1880c8,-16 -4,-4 13,-20l-19 4 6 16z"/>
   <path fill="#9798C8" d="M774 1763l-3 -9 -13 9c25,14 10,3 16,0z"/>
   <path fill="#FEFEFE" d="M1685 1951c6,10 23,-13 8,-5 0,0 -1,0 -1,0 0,0 -19,-14 -7,5z"/>
   <path fill="#D2D4E8" d="M1756 1802c1,12 13,17 8,1 -4,-14 -8,-3 -8,-1z"/>
   <path fill="#D2D4E8" d="M1774 1698l19 -7c-33,-13 -9,-7 -19,7z"/>
   <polygon fill="#6A6CB1" points="810,1494 801,1489 799,1507 "/>
   <polygon fill="#CD97BB" points="534,2125 535,2116 517,2116 "/>
   <path fill="#9798C8" d="M801 1394c-4,-30 -5,-12 10,-18l-12 -4c-6,23 -7,5 2,22z"/>
   <polygon fill="#F15E64" points="1254,2171 1274,2177 1259,2167 "/>
   <path fill="#9798C8" d="M794 1926c6,-18 0,-9 8,-19l-12 11 4 8z"/>
   <path fill="#9798C8" d="M1303 1125l19 5 -6 -16c0,17 4,13 -13,11z"/>
   <path fill="#9798C8" d="M1692 1331l14 4 -5 -15c1,14 5,11 -9,11z"/>
   <path fill="#6A6CB1" d="M1258 1173l16 3 -3 -15c0,16 4,12 -13,12z"/>
   <path fill="#9798C8" d="M794 1873c0,-17 -5,-14 11,-14l-15 -2 4 16z"/>
   <polygon fill="#9798C8" points="1464,1408 1477,1414 1465,1405 "/>
   <polygon fill="#FEFEFE" points="1420,1158 1417,1161 1420,1169 "/>
   <path fill="#9798C8" d="M880 1341l3 -19 -14 6c19,0 15,-5 11,13z"/>
   <path fill="#6A6CB1" d="M1768 1453l3 -17 -14 6c17,-5 13,-7 11,11z"/>
   <path fill="#9798C8" d="M1346 1133l2 -16 -19 1c23,-5 17,-9 17,15z"/>
   <path fill="#6A6CB1" d="M1477 1176c-2,-15 -4,-10 13,-8l-15 -2 2 10z"/>
  </g>
 </g>
</svg>
