<svg xmlns="http://www.w3.org/2000/svg" width="640.1" height="156">
  <path fill="#FEFEFE" d="M.8 156.8C.8 105.9.8 54.9.7 4 .7 1.3 1.2.7 4 .7c211.2.1 422.4.1 633.7 0 2.7 0 3.3.5 3.3 3.3-.1 49.7-.1 99.5 0 149.2 0 3-.7 3.7-3.7 3.7-212.2-.1-424.3-.1-636.5-.1z"/>
  <path fill="#CF9A2C" d="M133.7 109.7c-9.5 17.6-24 29-43.3 33.7-14.9 3.6-29.6 2.2-43.5-4.8-19-9.5-31.3-24.5-36.1-45.1C6.4 75.3 9.7 58.1 20 42.4c3.4-4.1 6.4-8.6 10.7-11.9 1.4-.8 2.9-1.4 4.2-2.3 2.2-1.5 4.6-2.7 6.6-4.5.3-.2.7-.3 1-.4.7-.2 1.5-.3 2.2-.4 3.1-1 5.8-3.4 9.3-3.4.3-.1.7-.3 1-.4 1.1-.5 2.3-.6 3.5-.9-.3-.9-1.7-.7-1.8-1.8 0-.6.7-.8 1-1.3 2.5-.5 5-1.1 7.5-1.3 1-.2 1.9-.3 2.8.3.2.7.5 1.5 1.3 1.8.3.5.3 1 .1 1.5-.4.7-1.1 1-1.7 1.3-.3.2-.7.3-1.1.4-6.5 1.8-12.8 4.1-17.9 8.7-6.6 4.2-10 11.2-14.8 16.9C20.7 60.5 20.3 82 30 99c10.9 19.2 27.4 29.6 49.9 29.4 14.1-.1 27.5-2.6 39.6-10.4.9-.7 2-1 2.9-1.7.1-.1.2-.2.2-.3-.7.5-1.3.3-1.8-.2-.3-.5-.4-1.1-.3-1.7.2-.8.6-1.5 1.1-2.1 5.6-5.3 8.4-12.2 10.7-19.3.7-2.5 1.8-5 1.1-7.8-.9.2-.8 1-1 1.6-2.5 7.3-8.8 11.4-13.9 16.6-1.5 1.5-3.2 2.8-5 3.9-1.7.7-3.2 2-5.3.4-1.1-.8-2.5 1-3.7 1.6-11.5 5.4-23.3 5.3-35.1 1.3-14.3-5.9-23.4-16.6-27.7-31.2-5.8-19.7 3-37.8 25.9-41.2 6.4-1 12.5-.4 18.3 2.5 4.3 2.1 7.4 5.2 8.7 9.9 1.6 6-2.1 11.1-8.3 11.4-4.1.2-8.3.1-12.4.1-2.3 0-4.5.4-6.7 1.1-9.1 3.1-12.5 10.9-8.7 19.8 2.1 4.8 5.4 8.7 9.8 11.3 8.2 4.8 16.9 6.6 26.5 4.9 7.3-1.3 13.5-4.7 20-7.8 4.9-1.4 7.8-5.3 10.9-8.8 1.8-2 2.9-4 6-3 .6.2 1.2-.5 1.8-.7.8-.3 1.6-.5 2.5-.5 2.9-.3 3.6 1.4 3.9 3.8.6 5.2-1.1 10-2 14.9-.3 1.4-.6 2.9-.7 4.3-.8 3.1-2.5 5.7-3.5 8.6z"/>
  <path fill="#FEFEFE" d="M230.3 121.5c1.2 6.4-4.4 13-10.9 12.9-5.5-.1-10.9 0-16.4-.1-1.2 0-2.8 1.3-3.5-.5-.6-1.6-.4-3.2.7-4.9 2.8-4.1 6.3-7.5 9.7-11 1.2-1.2 1.1-2.1.6-3.5-.5-1.5-1.4-1.7-2.7-1.7-11.9 0-23.8-.8-35.6.4-5.6.5-4.8.4-4.6-4.7.7-22.4.2-44.8.4-67.2 0-2-3.4-3.6-.7-5.6 2.1-1.6 3.4 1.2 5.5 1.2 11.7-.2 23.5-.2 35.2 0 1.8 0 3.1-3.2 4.9-.8 1.1 1.5-.4 3.5-.2 5.4.5 4.6-.6 9.3.7 13.9.4 1.6-.5 3.7-2.1 2.7-3.8-2.3-7.8-.7-11.7-1.2-.9-.1-1.9 0-2.8 0-6 0-6.2.3-5.7 6.3.2 1.9.9 2.6 2.7 2.5 5.7-.3 11.4.6 17.1-.6 2.1-.5 3.1.1 2.5 2.8-1.1 5.3-1.8 10.6.5 15.8.4.8.2 1.6-.4 2.1-.7.6-1.3.4-2.2.1-6.2-2.4-12.6-.7-18.9-.9-1.9-.1-1.2 2-1.3 3.2-.1 1.8 1 2.2 2.5 2.2h12.8c5.2 0 6.2 1.1 6.2 6.4v10.8c0 1.5.1 3.3 2.1 3 1.1-.2 1.7-1.4 2.1-3.1.7-3.1 2.5-6.3 5.5-8.2 1.8-1.2 3.4-2 2.5-4.5-.2-.5.1-1.8.4-1.8 4.8-.8 4.1-5.8 6.2-8.6 2.3-3.2 4.9-6.1 7.3-9.2 2.4-3.1 1.5-6.9-2-8.9-3.9-2.3-5.9-6.5-7.8-10.2-2.1-4.2-3.6-8.5-7.9-11.2-2.7-1.7-3.1-4.6-3.4-7.3-.2-1.8 1.4-3.1 2.8-2.2 3.4 2.2 7 1.1 10.4 1.3 3.3.2 6.7 0 10-.1.3 0 .7-.2.7-.2 1.3 2.3 4.2 2.3 5.7 3.8 1.6 1.6 3.6 3.7 2.6 7-.4 1.4 1.1 3.6 2.7 4.4 1.6.9 2-1.3 2.9-2.1.9-.8 1.8-1.4 3-1.7 1.8-.5 3-1.8 2.6-3.8-.3-1.4.7-2.2 1.1-3.2 1.9-5.4 5.4-4.6 10.2-4.3 13.3.8 26.6.3 40 .3h16.4c1.8 0 3.7.5 5.3-1.1.4-.4 1.7-.5 1.8-.3 2.8 4.2 8.4 2.7 11.9 6.6 3 3.3 4.6 7 6.8 10.5 1 1.6-1.5 2.4-.9 3.5 1.9 3.8-.1 7.8.4 11.1.9 5.6-2.1 8.7-4.4 12.2-2.3 3.4-5.4 7.2-10.8 5.7-.2-.1-.7 0-.8.1-2.7 5.9-7.4 1.8-11.2 2.1-2 .2-4 .1-6 0-1.4 0-2 .2-1.9 2 .2 6 .4 12 0 18-.2 2.4 3.4 4.3 1 6.5-2 1.9-3.7-1.5-6.2-1-4.5 1-9.3-1.2-13.6 1.5-.7.4-1.6.1-2.1-.7-.5-.7-.6-1.6 0-2.2 1.5-1.7 1.1-3.8 1.1-5.7 0-14.9-.1-29.9.1-44.8 0-3.2-.9-4.2-4.1-4-4.9.2-9.9.1-14.8.1-3.2 0-4.9 1.5-4.5 4.8.3 2.2-1 3.8-2.3 4.8-1.9 1.5-1.5 4.7-4.2 5.5-.3.1 2.9 7.2 3.3 7.3 2.1.7 3.4 1.8 3.3 4.3-.1 3.2 2.5 5.1 4.7 6.8 4.9 3.8 8.4 8.2 9 14.5.2 1.6 1.3 1.3 2.3 1.6 2.8.7 4.1 3.2 3 5.8-.4.8-1 1.9-2 1.6-6.5-2.2-13.2-.4-19.8-1-3.8-.4-7-1.6-9.3-5.1-1.3-2 .4-3.7-.9-5.9-2.1-3.4-5.5-4.9-8-7.6-.9-.9-3.1-1.3-3.6.7-.5 1.8-1.9 2.4-2.8 3.5-1.4 1.8-3.4 3.3-3.3 6.2.1 2.5-1.4 4.7-4.2 5.7-2.5.9-3.7 2.2-3.9 5.4-.2 3.2-3.6 4.9-6.8 5.8-.8-1.5.3-2.5 1-3.6 6.2-9.3 13-18.2 19.5-27.3 3-4.1 4.4-4 7.4.4 3.7 5.4 7.6 10.6 11.3 16 1.6 2.3 3.6 3.3 6.4 3.2 3.3-.1 6.7 0 10 0 3.4-.1 3.7-.5 1.8-3.3-5.1-7.3-10-14.8-15.3-22-2.2-3-4.2-6.2-6.3-9.3-1.5-2.1-1.5-4.2.1-6.3 2.8-3.7 5.3-7.6 7.9-11.5 1.6-2.4 3.8-3.5 6.7-3.6 4.9 0 9.9-.1 14.8 0 4.6.1 5.4.8 5.4 5.4.1 14.3 0 28.5 0 42.8 0 7.8 0 7.8 7.9 7.8.8 0 1.6-.1 2.4 0 3.3.4 4.6-1 4.4-4.4-.2-4 0-8 0-12 0-8.1.4-8.5 8.3-8.4 4.5.1 8.7-.9 12.9-2.4 10.3-3.9 15.8-12.9 14.8-24.3-.8-9.6-8.3-17.1-18.9-18.8-4.5-.7-9-1.2-13.5-1.1-14.9.1-29.9.1-44.8 0-3.9 0-6.6 1.3-8.6 4.6-2.5 3.9-5 7.9-7.9 11.5-2.5 3-4 3-6.3 0-3.2-4.1-6.2-8.4-9.1-12.7-1.6-2.3-3.5-3.4-6.4-3.3-3.3.1-6.7-.1-10 0s-3.7.7-1.8 3.4c5.1 7.3 10.2 14.7 15.3 22 7 10.1 6.3 7.4.2 16.3-10.8 15.7-21.8 31.3-32.9 46.8-1.1 1.6-2.4 3.1-3.4 5.3 5 0 9.8 0 14.5-.1 1.9 0 3.3-.9 4.3-2.5 1.5-2.1 3-4.1 4.5-6.2.8-1.2 1.6-2.5 3.4-2.4zM598.4 36c1.5 1.4 3.1 2.4 3.2 5 .1 1.7 1.6 3.3 3 4.8 2 2.1 4.7 4.7 3.3 8.4-.4 1.1-.1 2.6.6 2.9 3.2 1.3 4 4.3 5.5 6.8.7 1.2 1.2 2.3 1.2 3.7-.1 2.4-.4 4.9 2.9 5.6.4.1 1 .8.9 1.2-.8 5.2 3.1 8.7 4.7 13.1 1.8 4.8 5.6 8.3 7.3 13.2 1.2 3.4.4 6.9 1.7 10.2.5 1.4-.8 2-2.2 2h-16.4c-1.4 0-2.4-.8-3-1.7-2.2-3-5.2-3.3-8.5-3.2-3.7.2-7.5 0-11.2 0-3.4 0-6.8-.7-9.1 3.3-.9 1.5-3.5 1.6-5.6 1.5h-38.4c-4.2 0-7-2.6-9-6.3-2.3-4.2-3.5-8.8-6.4-12.7-2-2.7-5.6-3-7.3-6.3-.7-1.3-2.1.9-2.1 2.5 0 6.3-.2 12.5.1 18.8.1 3.1-.8 4.3-4 4.1-3.6-.3-7.2-.3-10.8 0-3.5.3-4.6-.8-4.5-4.4.2-15.6.1-31.2 0-46.8 0-1.6 1-3.7-1.1-4.7-1.2-.6-3.3-.9-4.1.4-1.1 1.8-2.6 3.7-1.9 6.3 1.9 6.8.8 13.8.7 20.6-.1 3.9-2.9 8-3.3 12.3 0 .4-.3 1-.5 1-4.4 1.1-5.4 7.2-10.5 7.2-.1-.2-.2-.4-.2-.6.9-2.9 3.4-4.7 5.2-7 16.2-21.6 5.2-53.1-21.3-58.9-17-3.7-33.1 3.1-41.8 20.5-.7 1.4-1.2 3-2.2 4.3-.6.7-1.2 1.2-2.2.9-1.8-5.4 1.3-9.4 4-13.5.4-.6 1.1-1.3 1.8-1.4 3.8-.8 5.5-3.8 7.1-6.9.9-1.8 1.4-4.4 4.5-2 1.1.9 3-.6 3.5-1.8 1.1-2.6 1.9-3.9 5.2-2.3 1.3.6 5.1 1.1 6.3-2.3.3-1 1.8-1.5 2.3-.9 2.2 2.2 5.5.7 7.8 2.5 1.2.9 2.8.7 4.2.1 3.3-1.4 6.1-1.6 8 2.4 1.2 2.6 4 3.2 6.4 3.5 3.8.4 5.8 2.7 6.7 5.9.6 2.3 1.1 4.1 3.9 4 1.7-.1 1.5 2 3.5 3.2-.3-5.6.8-10.6-.8-15.6-.4-1.2-1.2-2.2 0-3.2 1.1-.9 2.2-.7 3.2.2 1.1 1.1 2.5.7 3.8.7h32.8c4.1-1.8 6.6-.2 10.4 2.4 3.1 2.1 5.8 5.2 8.9 6.5 5.6 2.5 4.9 6.4 5 10.8l.3 12.3c.1 2.3.3 6.7-4.4 7.6-2.3.4-3.8 6.9-2.3 9.1.8 1.2 1.3 1.9.7 3.5-.6 1.8 1.3 3.1 2.5 3.6 4.4 1.7 6.1 5 6.1 9.4 0 1.3 6.4 4.2 7.3 3.5.8-.6.2-1.5.1-2.2-.1-2.9 1.2-4.8 3.6-6.5 2.2-1.5 4.8-3.4 3.1-6.9-.4-.9-.3-1.8.3-2.6 4.2-6.9 6.7-14.7 10.7-21.8 1.4-2.5 2.6-4.7 4.7-6.7 2.9-2.6 2.5-6.6 3.1-10 .6-3.2 1.3-5.9 4.6-7.7 1.5-.8 2.9-2.9 2.1-5.4-.4-1.3-.7-3.4.9-3.9 1.9-.5 4.4-.8 6 .1 2.2 1.3.7 3.1-.6 4.3-1.1.4-2.8-2.5-3.4.7-1.4 5-3.9 9.6-6.1 14.3-8.7 18.6-17.1 37.3-25.9 55.8-1.1 2.3-1 3.5 1.9 3.4 2.5-.1 5.1-.1 7.6 0 3.3.2 6-.4 7.5-3.9.7-1.8 2.4-2.5 4.2-2.5 7.9-.1 15.7-.1 23.6 0 2.2 0 3.8 1.1 4.6 3.2.9 2.5 2.8 3.3 5.4 3.2 2.9-.1 5.9-.1 8.8 0 3 .1 3.5-1.3 2.3-3.7-2.5-5.1-4.9-10.3-7.3-15.5-7.4-16.2-15-32.4-22.4-48.6-.7-1.4-1.5-2.9-1.5-4.5 0-.8.2-1.4.7-1.9z"/>
  <path fill="#FEFEFE" d="M473.7 104.9c-2.3 2.4-2.8 6.6-7.9 6.1-2.1-.2-4.8 1.1-6 3.7-.5 1.1-1.4 1.5-2.6 1-5.5-2-11-2.2-16.5.1-1.5.6-2.7-.2-3.4-1.4-1.7-2.8-3.9-3.6-7.2-3.7-2.4 0-5.5-.6-6.7-3.8-1-2.6-2.3-4.7-5.6-5.4-3.1-.6-2.8-4.7-4.9-6.7-.5-.5-.6-1.4-2-1.9 1.1 6.5-1 12.8 1.2 18.9.5 1.4-.6 2.3-1.6 2-8.2-2.3-16.6-.6-24.9-1-5.6-.3-11.2-.2-16.8 0-3.1.1-4.1-.8-4.1-4 .2-15.9 0-31.7.1-47.6 0-3.4-.7-5-4.4-4.5-2.8.4-3.8-1-3.7-3.7.1-4.1.2-8.3 0-12.4-.1-3 1.2-3.9 4.1-3.9 6.5.1 13.1.2 19.6 0 2.8-.1 3.6.9 3.6 3.7-.1 15.3 0 30.7-.1 46 0 3 0 4.5 4 4.2 6.9-.5 13.8-.5 20.7.1 4.5.4 2.8-2.9 2.5-5.2.9-.2 1.6.3 2.1.9 2.9 5 5.1 10.4 9.4 14.7 12.8 12.5 30.8 14.7 46.1 5.3 1.4-.8 2.5-2.6 4.6-1.7l.4.2z"/>
  <path fill="#D09B2E" d="M136 101.6c0-3.8.6-7.5 1.9-11.2 1.1-3.3.5-6.8.4-10.2-.1-2.2-1.9-1.1-3.1-1.1-.8-1.1-1.6-.8-2.4 0-.1.9-.7 1.9-1.4 1.5-3.3-2-3.9 1-5.5 2.6-3.3 3.2-6.1 7.3-10.9 8.6-.1-1.9 1.3-2.8 2.4-3.9 1.4-1.4 3.1-2.5 4.5-3.9 4.8-5 8.4-10.5 7.5-17.9-.4-3.3-.1-6.6-.1-9.9.1-6.4-2.1-11.9-5.8-17-1.1-1.2-2.2-2.4-2.5-4 .1-1.5.6-2.1 2.2-1.3 1.2.6 1.6 1.9 2.5 2.8.9 2 2.8 3.2 4 4.9 5 7.3 8.8 15.2 10.3 24 2.1 8.2.6 16.4 0 24.5-.2 3.7-.2 8.5-4 11.5z"/>
  <path fill="#FEFEFE" d="M622.4 134.4c-1.3.6-2.8 1.4-4.1.1-1.2-1.2-.5-2.6-.3-4.1.3-2.4-.9-5.2 2.5-6.6.7-.3.9-2.9 2.3-2.6 3 .6 6.1 0 9.1.7.7.2 1 1.1.8 1.6-1.3 3.7 1.6 7.1.8 10.8-.2.8 0 1.6-.7 2.2-1.6 1.3-8.6-.1-10.4-2.1 1.1-1 2.2-.2 3.3 0 1.9.6 3.7 1 5.6-.1.5-.6.5-1.4.5-2.2-.8.6-.8 1.6-1.6 2-1.2.6-2.5.6-3.8.3-3.5-1.4-4.6-4.1-3.9-7.6.8-2.6 3.2-2.7 5.3-3.3.2-.2.1-.2-.3-.1h-.4c-2.2.4-4.3.8-4.8 3.5-1.2 2.5.7 5 .1 7.5zm-319.8 2.3c-1.9.4-3.8-.6-5.8.6-1.4.8-4.4-2.9-3.4-4.5 1.4-2.3 1-4.6.7-6.9-.5-3.5 1.7-5.5 5.1-4.7 1.9.5 3.7.3 5.5.3 1.3 0 2.4.3 2.4 1.9 0 1.6-.8 2-2.2 2.1-1.4.2-4.2-.8-4.1.8.1 2.9 3 1 4.1.8 4.4-.7 6.4 0 3.9 4.7-.2.3 0 .8 0 1.2.3 4.5.3 4.5-4.2 3.6.2-1.8 3.8-2.6 1.7-5.2-1 .5-.6 1.7-1.3 2.4-1.5 1.8-3.3 1.3-5 .6-.8-.2-1.5-.7-2-1.4-.6-.8-1-1.8-1.2-2.8-.2-1-.1-2 .2-2.9 1.2-2.7 3.4-3.8 6.1-4-1.8.3-3.7.1-5 1.9-2.1 1.6-2.4 3.7-1.6 6.1.5.9.8 1.8 1.7 2.4.8.6 1.8.9 2.7 1.3.5.2 1 .4 1.4.7.4.4.4.7.3 1zm77.9 0c-3-2.2-6.9.5-10.7.2-2.2-.2-2.7-1.1-2.5-3 .4-3.5 1.2-6.9 3.6-9.7 1.9-2.2 9-3.9 10.1-.9 1.1 3.2 3.5 5.9 3.6 9.2 0 1.5.3 4.7-4.1 4.2zm137.8-1.7c.1 1.8-1 1.9-2.4 1.8-1.2-.1-1.5-.9-1.5-2v-11.2c0-1 .4-1.8 1.5-1.9 2.5-.3 5-.8 7.4-.7 5 .2 5.4.7 5.4 5.9 0 1.9.2 3.7 0 5.6-.2 1.5 1.1 3.7-1.5 4.3-2.3.5-4.7 1.4-6.2-1.6-.5-1-1.7-1.6-2.6-2.4-1.1-1-.9-2.5-1.3-3.8-.1-.4 0-.8 0-1.2.3-.9 1-1.2 1.9-1.1.6.2 1 .5 1.4 1 1.6 1.9 2.8 4.1 4.9 5.5 2.2-2 .5-4.7 1.1-6.4-.2 1 .3 2.6-.3 4.1-2.8 1.2-3.4-1.6-4.9-2.7-.8-.9-1.7-1.8-2.4-2.8-.4-.5-.7-1-1.2-1.5-.4-.3-.8-.2-1.1.1-.5 3.2-.2 6.3-.2 9.5.1.3.2.6.4.8.5.4 1.1.5 1.6.7zm73.8 1.8c-.6.2-1.7.7-1.7.1-.3-4.6-3.5-9.2 0-13.7.4-.5.6-1.6 1.2-1.3 4.5 2 8.3-2.1 12.6-1.3 1.1.2 2 .8 1.5 2.2-1.4 4.4-1.6 8.7.3 13 .8 1.8-.3 2.8-2.2 2.6-4.1-.4-7.3-2-8.6-6.2-1-1-.9-2-.2-3.1.3-.2.6-.3 1-.3 1.1.8 1.8 2.1 3.1 2.8.9.5 1.6 1.3 2.4 1.9 1.6.5 1.4-.9 1.4-1.6.1-2.1.1-4.2 0-6.4-1 1.8.8 4.8-2.5 5.6-2.4-1-3.2-3.4-4.8-5.2-.5-.7-1-1.3-1.7-1.8-.7-.3-1.2-.2-1.6.5-.4 3.9.5 8.1-.2 12.2zm-114.5-9.6c3.4 2.3 1.9 5.5 1.4 8.4-.3 2-2.4 1-3.7 1.2-1.6.2-2.2-1.1-2.8-2.4-.9 3.3-3.8 5-7 3.8-1.6-.6-1.8-1.9-1.2-3.2 2-4 1.8-8 .1-12-.3-.8-.5-1.5.1-2.2.6-.7 1.4-.9 2.1-.4 2.9 2.2 6.1 1.2 9.1.8 1.3-.2 2.1.2 2.7 1.1.6 1-.3 1.4-.9 1.7-.5.5-.9 1-1.7 1.1-.5 0-.9-.3-1.3-.7-.6-.8-1.5-1-2.5-1-1.3.1-2.7-.1-4 .4-1.3 3.4-.7 6.9-.4 10.4 0 .5-.1-.1.3.1.3.2.4-.5.5-.9 1-4 1.4-4.3 5.5-3.2.9.7 1.4 1.7 1.9 2.7l.3-.1-.1-.3c-.4-.7-.8-1.3-1.3-1.9-1-1.4-.5-2.3.8-3.2.7-.3 1.3-.6 2.1-.2zm97.6 3v2.4c0 1.4.4 4 0 4.1-1.8.5-3.6.5-5.3 1.6-.8.5-2.1-.9-1.8-2 .6-2.1-1-4.5.9-6.4.8-.9.1-1.7-.4-2.5-1-1.6-.6-3.4-.5-5 .1-1.7.9-2.4 3-1.7 3.3 1.1 4.9 2.9 4.2 6.5-.2.8-.1 1.9-.1 3zm-26.3 6.6c-1 .7-1.7 2.4-3.2 1-1-.9-.8-2-.2-3.2 1-2.1-1.1-7.3-3.3-8.4-1.1-.6-1.4-1.5-1.2-2.6.3-1.2.9-2.3 2.4-2.2 4.4.3 8.7.6 13.1-.2 1.6-.3 2.1 1 2 2.3-.2 1.6-1 2.8-2.8 2.7-1.2-.1-2.3-.3-3.5-.5-.5-.9 1-1.2.7-2-1.8-.3-3.6 0-5.3-.3 2.7 2.8 1.5 6.3 1.5 9.5-.9 1.2.3 2.6-.2 3.9zm-293.7-15.2c3.3-2.2 4.4 1 5.9 2.6 1.1 1.1-1 10.2-2.3 11.3-1.1 1-11.1 1.8-12.3 1-.4-.3-.8-.8-.8-1.2.3-4.6-1-9.2.7-13.7.3.3.5.7.7 1.1.9 3.7 0 7.5.6 11.2 1.3 1.8 3.1 1 4.7.7 1.2-.3 2.3-.7 3.1-1.7 2.4-2.9 1.4-5.8-.2-8.6-.2-.9-.6-1.7-.1-2.7z"/>
  <path fill="#DEBA6F" d="M136 101.6c2.2-5.3 4.4-10.7 3.2-16.6-.8-3.8 2.6-7 1.5-10.8-.8-2.8-.9-5.7-.6-8.6 2.8 9.7 2 19.4-.3 29-1.3 5.3-2.8 10.6-6.1 15.2-.2-3.1 2.1-5.3 2.3-8.2z"/>
  <path fill="#FEFEFE" d="M348.2 121.6c1.9 0 3.7.1 5.6 0 2.5-.2 2.4 1.8 2.5 3.2.1 1.9-1.5.9-2.3.8-2.1-.2-2.9.8-2.7 2.8.1 2 0 4 0 6 0 1.3-.3 2.4-1.9 2.4-1.6 0-2.1-.8-2.1-2.2v-4c.1-2.7.4-5.4-3.8-5.1-1.6.1-2.5-1.7-2.3-3.2.2-1.6 1.7-.6 2.6-.6 1.5-.1 2.9-.1 4.4-.1z"/>
  <path fill="#D3A23B" d="M56.8 16c.4.3.8.6 1.3.7.9.2 2.1.1 2.1 1.2 0 1.2-1.2 1.1-2.1 1.2-1 .2-2 .5-3 .8-.3.1-.5-1-.8 0-3.5.6-6.4 2.6-9.6 4-.8-.8-1.6-.6-2.4 0l-.3.1h-.4c-.4.3-.9.5-1.4.1-.5-.5-.2-.9.3-1.2.6-.4 1.4-.7 1.8-1.4h-.1c1-.7 2.3-.8 3.3-1.6h-.1c1-.7 2.4-.8 3.3-1.7.3-.6.9-.7 1.5-.6 2.2-.8 4.3-1.5 6.6-1.6z"/>
  <path fill="#FEFEFE" d="M398.5 129.3v-5.6c0-1.2.5-2 1.8-2.1 1.5-.1 2.2.7 2.1 2.2 0 1.6.2 3.2 0 4.8-.6 3.8 1.2 4.6 4.5 4.3.9-.1 2.9-1.8 2.9.9 0 1.8-.6 3.5-3.1 3.1h-.8c-7.5 0-7.5 0-7.4-7.6z"/>
  <path fill="#D5A645" d="M65.6 14.4c-2.8-.4-5.3 1.4-8.1.7C66.2 12 75 11.7 84.1 13c1.6.2 3.1.5 4.7.7.9.6 3 .5 2.3 2-.9 1.9-2.7.6-4.2.3-1.8-.8-3.7-.4-5.6-.5-5.2-.8-10.4-1.4-15.7-1.1z"/>
  <path fill="#FEFEFE" d="M446.4 130.6c-1.3 1.4-3.9 1.8-3.3 4.7.2 1.2-.9 1.4-2 1.4s-1.9-.4-1.9-1.6v-12c0-.4.2-.8.5-1 .7-.8 8.6-.9 9.7 0 2.4 1.9 2.2 4.2.9 6.7-.4-.4-.7-.9-.8-1.4-.2-1-.1-2.1-1-2.9-.7-.4-1.4-.8-2.2-.9-4.7-.7-5.4-.2-5.3 4.5 0 1.6-.2 3.1.2 4.8.3-.9.4-1.7.9-2.4 1-1 2.2-1 3.4-.7.5.1.8.4.9.8z"/>
  <path fill="#D6D0CD" d="M275.2 130.4v-3.2c-1.1-1.6-1.3-3.2.1-4.8 1.9.3 1.7 1.8 1.6 3-.1 2.1.1 4.1-.1 5.7-.7-2.5 1.3-5.7-.6-8.6-.2-.2-.3-.4-.3-.6 0-.2.1-.3.2-.3.9 0 1.9 0 2.5.8 1.1 1.3.8 12.4-.3 13.7-.6.7-1.4.6-2.2.6-2.7-1.7-2.3-4-.9-6.3z"/>
  <path fill="#FEFEFE" d="M324 129v-5.2c0-1.4.5-2.3 2.1-2.2 1.3 0 1.9.7 1.9 2v11.1c0 1.3-.6 2-1.9 2-1.6.1-2.1-.8-2.1-2.2.1-1.8 0-3.6 0-5.5z"/>
  <path fill="#E4C689" d="M87.2 15.2c1.1.2 2.2.5 3.3.7.2-1.6-1.5-1.3-1.8-2.3 4.3.4 8.4 1.8 12.2 3.8-.6 1.1-1.6 1.5-2.8 1.6-4-.7-8.3-.2-11.9-2.8 0-.6 0-1.2 1-1z"/>
  <path fill="#FEFEFE" d="M498.4 129.4v5.2c0 1.4-.5 2.3-2.1 2.2-1.3 0-1.9-.7-1.9-2v-11.1c0-1.3.6-2 1.9-2 1.6-.1 2.1.8 2.1 2.2v5.5zm-223.2 1c.2 2.1-.5 4.4.9 6.3-.2 1.6-1.2 2.1-2.4 1.1-1.5-1.1-2.7-2.6-2.1-4.7.4-1.7 1.5-3 3.6-2.7z"/>
  <path fill="#CEC5C3" d="M412.8 86.4l-1.5-.9c0-.5-.1-1-.1-1.5-.8-.9-1.4-2-1.2-3.2.7-4.8-.9-9.7 1.2-14.4.1-.8.1-1.5.2-2.3l1.5-.9c1.4 1.5.7 3.3.4 4.9-.8 4.5-.8 8.9 0 13.4.2 1.6.9 3.4-.5 4.9z"/>
  <path fill="#DCB666" d="M31.2 31.2c-4.5 3-7.1 7.9-11.2 11.2 1.3-3.8 4.8-6.1 6.6-9.5.2-1.3 1.1-2 2.3-2.4 1.3-.8 2.6-1.7 3.9-2.5 1.3 1.9-1.4 2-1.6 3.2z"/>
  <path fill="#FEFEFE" d="M411.1 66.4c-1.2 5.9-.9 11.7.1 17.6-2.5-.1-3.8-.9-2.3-3.6 1.7-3.3.4-6.9.8-10.4.1-1.3-.7-3.1 1.4-3.6z"/>
  <path fill="#D9D2D0" d="M592.1 136.8c-1.2-4.8-1.6-9.5.1-14.3 1.6 2.6.1 5.4.7 7.7.2-1.3-.4-3 .5-4.5.9-.7 1.5-.1 2.1.5.2.4.2.9.1 1.3-1.6 2.6 0 5.7-1.1 8.4-.6 1-1.5.8-2.4.9z"/>
  <path fill="#FEFEFE" d="M276 121.6v.8c-1.7 1.3-.5 3.2-.9 4.7-2.8.1-4.1-1.8-3.6-4 .4-1.9 2.2-3.3 4.5-1.5z"/>
  <path fill="#D5A747" d="M125.7 36.7c-1.3-.3-1.9-1.4-2.8-2.2-1.1-.9-1.2 0-1.4.8-2.9-1.3-5-3.3-5.5-6.7.6-.3 1.1-.3 1.6.1 2.4 1.3 4.3 3.1 6.3 4.8.7.4 1.3.9 1.4 1.7.2.6.3 1.1.4 1.5z"/>
  <path fill="#DFBC74" d="M117.7 28.8c-.6 0-1.2.1-1.9.1-3.5.4-4.9-2.6-6.9-4.5-.1-.8-1-2 .8-2.1 2.9 1.9 6.5 2.9 8 6.5z"/>
  <path fill="#DED8D7" d="M555.3 123.2c.1 2.4-2.6 1-3.2 2.4-.9 2.5-.2 5.2-.4 7.8-.1 1.3.3 2.7-1.2 3.4h-1.6c-.2-1.1-2.4-1.6-.8-3.2.4 0 .8-.1 1.1-.5.8-3.1-.8-6.4 1.3-9.3 1.5-.9 3.1-.6 4.8-.6z"/>
  <path fill="#D5A644" d="M42.3 21.5c.8 1.2-2.7 1.1-.7 2.5-1.2 2.8-4.2 3.3-6.4 4.8-1.1-1.4 1-2.1.7-3.3.7-.7 1.9-.7 2.5-1.6 1-1.3 2.3-2.1 3.9-2.4z"/>
  <path fill="#AFA09D" d="M304.8 133.6c0-.8 0-1.6.1-2.4 0-.9.3-1.6 1.3-1.7.9 0 1.4.6 1.6 1.4.8 2.9-.2 4.8-3.1 5.7h-2.1c-.1-.2-.2-.4-.3-.7.6-1 1.8-1.2 2.7-1.7.3-.1.6-.3.8-.7.1-.2.2-.5.2-.7-.2.2-.1.5-.4.7-.3.4-.6.3-.8.1z"/>
  <path fill="#D6A848" d="M35.9 25.5c1.2 1.4-1 2.1-.7 3.3-1.1 1.3-2.7 1.6-4 2.4.5-1.1 1.1-2.1 1.6-3.2.3-1.8 2.1-1.6 3.1-2.5z"/>
  <path fill="#E5C98E" d="M109.7 22.3c-.9.5-.2 1.3-.2 1.9-2.7.3-4.3-1.1-5.7-3.1.2-1 1.4-.6 1.8-1.2 1.9-.1 3.1 1 4.1 2.4z"/>
  <path fill="#EDEAE9" d="M255.2 121.6l.9 2.1c-.4 1.2-1.2.6-2 .4-1-.7-2.2-.7-3.4-.7-1.4-.1-2.9.2-4.2-.8-.1-.3-.1-.7-.2-1h8.9z"/>
  <path fill="#E1C07C" d="M98.3 18.4l2.7-.9c1.2.3 2.2.7 3.1 1.6.3 1.3-.7 1.4-1.6 1.6-1.7-.2-3.6.1-4.2-2.3z"/>
  <path fill="#FEFEFE" d="M550.4 136.8c1.4-2.1.7-4.5.9-6.8.1-1.5-.6-3.1.7-4.4v8.2c0 1.3.4 2.8-1.6 3z"/>
  <path fill="#EEEBEB" d="M594.4 136c.5-2.9-.8-6 .7-8.8 1.5-.2 1.2.6.9 1.5-1.2.8-.8 2.1-.9 3.3-.1 1.4.7 2.9-.7 4z"/>
  <path fill="#A1908C" d="M517.7 128.7c.9 1.3.3 2.8.7 4.1 0 .7 0 1.4-.1 2.2-.7.4-1.4 1.6-2.3.2.9-2.1-.1-4.6 1.7-6.5z"/>
  <path fill="#D4A33F" d="M56.8 16c-2.1.8-4.3 1.5-6.6 1.5 2.2-1.6 4.7-2 7.3-2.4-.2.3-.4.6-.7.9z"/>
  <path fill="#D5A747" d="M129.7 41.6c-1.9-1.2-3.8-2.3-4-4.9 1.7 1.3 3.3 2.7 4 4.9z"/>
  <path fill="#E6E1E0" d="M450.3 127c0 .6.1 1.2.1 1.8-1.3.8-2.4 1.8-4 1.8-.1-.1-.1-.2-.1-.4.2-1.7 1.7-2.3 2.8-3.2.5-.1.8-.1 1.2 0z"/>
  <path fill="#FEFEFE" d="M28.9 30.5c-.5 1-1.3 1.8-2.3 2.4-.5-2.1.1-2.7 2.3-2.4z"/>
  <path fill="#D5CECC" d="M476 124.6c.5-.2 1.1-.4 1.6-.6v3.2c-.6.2-1.2.4-1.7.7-.7-1.1-.1-2.2.1-3.3z"/>
  <path fill="#D6A848" d="M38.4 23.9c0 1.7-1.2 1.7-2.5 1.6.1-1.6 1.4-1.4 2.5-1.6z"/>
  <path fill="#E2C17E" d="M102.2 20.1c.7-.1 1.4-.2 1.8-1 .5.3 1.1.5 1.6.8-.4.8-1.1.9-1.8 1-.8.4-1.4.2-1.6-.8z"/>
  <path fill="#D4A644" d="M45.6 19.9c-.7 1.3-1.9 1.7-3.3 1.6.7-1.2 1.9-1.7 3.3-1.6z"/>
  <path fill="#FEFEFE" d="M33 131.2c.1.6-.2.8-.6.7-.3-.1-.7-.3-.8-.6-.1-.4.2-.7.6-.6.3.1.6.3.8.5zm33.6-120c.7.1 2 .1 2 .2.1 1-.7.4-1.2.5-.3.1-.7-.1-1-.2 0-.1.1-.3.2-.5z"/>
  <path fill="#D4A644" d="M48.7 18.2c-.7 1.4-1.9 1.7-3.3 1.7.8-1.3 2.1-1.5 3.3-1.7z"/>
  <path fill="#FEFEFE" d="M125.4 35.3c-.7-.4-1.2-.9-1.4-1.7 1.4-.2 2.2.1 1.4 1.7zm-23.2-15.2c.5.3 1.1.5 1.6.8 1.9 1.1 3.8 2.2 5.6 3.3 2.1 1.6 4.2 3.1 6.3 4.6 1.9 2.2 3.8 4.3 5.7 6.5.7 1.1 1.4 2.1 2.2 3.2 4 5.2 5.7 11.3 6.6 17.6.1 2.9 0 5.8.3 8.7.8 9.3-3.2 16.3-10.1 21.9-1.9 1.6-3.7 3.4-5.5 5.1-6.5 3.6-13 7.2-20.6 8.1-13.3 1.6-25.3-.6-34.2-11.6-4.3-5.3-6.4-11.6-3.6-18.2 2.9-6.8 9.2-8.9 16-9.4 4-.3 8 0 12 .1 7.9 0 11.4-6.1 7.5-13-3.5-6-9.2-8.4-15.6-8.9-10.5-.8-20.3 1.4-27.9 9-8.7 8.7-9.4 19.6-6.2 30.9 4.1 14.3 13.3 24.3 26.5 30.7 9 3.7 18.1 4.3 27.7 1.9 3.7-.9 6.8-3.6 10.8-3.2 2.4 1.3 3.8-.8 5.5-1.8 5.8-4.8 11.7-9.6 16.3-15.7 1-1.3 1.8-2.6 2.2-4.2.4-.8.9-1.9 1.9-1.7 1.4.3.6 1.4.5 2.3-.3 1.9-.3 3.9-.8 5.8-1.9 8.4-5.9 15.6-12 21.6-.6.7-.9 1.6-1.2 2.3 0 .7.9 1 .6 1.8-7.5 6-16.5 8.5-25.7 10-10.5 1.6-21.2 2.3-31.6-1-20.4-6.4-33.6-20.1-39-40.6-5-18.2.1-33.9 12.6-47.9 3.7-4.1 6.9-8.5 11.4-11.9 5.9-4.1 12.3-7 19.3-8.8 4.1-2.4 8.8-2.6 13.4-3.2 1.1-.2 2.2-.1 3.3-.1.9 0 1.8.1 2.5.8l11.9 2.4c1 1.1 2.5 1.4 3.8 1.8z"/>
  <path fill="#F6EDDA" d="M108.1 109.5c-2-1.1-3.7-.4-5.7.4-10.6 4.5-21.3 4.8-32.1.8-.6-.2-1-.8-1.5-1.2 4.9.9 9.6 2.6 14.7 2.7 7.4.1 14.4-1.2 21.2-4.2 3.4-1.7 3.6-1.6 3.4 1.5z"/>
  <path fill="#D4A33F" d="M84 16c-1 0-2 .1-3 .1-2.5.7-5.2 0-7.7.6-1.8-.3-3.7-.3-5.3-1.5-.6-.9-1.5-.8-2.4-.8 4-.7 8-2.4 12.2-.2 1.1.5 2.6.2 3.9.3.4.9 2.5-.6 2.3 1.5z"/>
  <path fill="#D5A645" d="M67.3 18.5C60.7 21 54.3 24 48 27.3c.2-.5.3-1.2.6-1.4 6.1-2.9 11.6-7.2 18.7-7.4z"/>
  <path fill="#DBB462" d="M132.8 92.8c-.3-2.5.1-4.9.5-7.3-1-.3-1.3.9-2 1-.2-1 .3-1.8.8-2.6.3-.4.8-.9 1.2-.9.8 0 1.1.7 1.1 1.4.1 2.9 0 5.8-1.6 8.4z"/>
  <path fill="#E4C688" d="M108.1 109.5c.2-3.3-2-1.6-3.3-1.6 1.6-1.3 1.6-1.2 4.9-.3 1.1.3 1.8-1.5 3.2-1.2-1.2 1.8-2.7 2.9-4.8 3.1z"/>
  <path fill="#D5A645" d="M72.8 16c2.7 0 5.5.1 8.2.1l-13.8 2.4c.3-.7.9-.9 1.5-.9.8-1.3 2.1-1.7 3.5-1.6h.6z"/>
  <path fill="#E9D19F" d="M120.1 118.5c.2-1.4-3.4 1.2-1.8-1.7.8-.5 1.6-.8 2.5-.8.6 0 1.8-.2 1.7.4 0 1.3-1.1 1.9-2.4 2.1z"/>
  <path fill="#D6A94B" d="M65.8 16.3c-1.6 1.7-2.6 1.4-3.9.8.9-1.6 2.1-.9 3.9-.8z"/>
  <path fill="#D5A645" d="M68 15.2c1.6.3 3.4-.7 4.8.8-1.3.6-2.7.6-4 0-.3-.2-1.5.4-.8-.8z"/>
  <path fill="#D6A94B" d="M132.8 79.2c.1-1.4 1-1.8 2.1-1.5 1 .2.4 1 .3 1.5h-2.4z"/>
  <path fill="#D4A33F" d="M68.8 16h4c-1.1 1.3-2.9.6-4 1.6V16z"/>
  <path fill="#E0BE77" d="M120.8 116c-.6 1-1.6.8-2.5.8.6-1.1 1.3-2 2.5-2.4v1.6z"/>
  <path fill="#D5A746" d="M54.4 20c-.6-.1-1.2-.2-1.8-.4.2-.3.3-.8.6-.9 1.2-.5 1.6.4 2 1.2-.3.1-.5.1-.8.1z"/>
  <path fill="#D5A644" d="M42.4 24c.8-1.2 1.6-2.5 2.4 0h-2.4z"/>
  <path fill="#54352D" d="M230.3 121.5c-3 2.9-4.9 6.6-7.5 9.8-.9 1.2-1.8 2.3-3.5 2.3h-17.5c1.2-3.2 3.2-5.3 4.9-7.7 11.8-16.9 23.7-33.8 35.6-50.7 1.5-2.1 1.6-3.4.1-5.5-6.6-9.2-13-18.5-19.4-27.9-.7-1-2.3-2-1.6-3.4.6-1.2 2.2-.6 3.3-.5 5.4.2 11.7-1.9 16.1.8 4.2 2.5 6.5 8.2 9.6 12.6 4.4 6.2 4.3 6.2 8.7.1 3.1-4.4 5.1-10.7 9.8-12.8 4.5-2 10.5-.6 15.8-.7 13.7 0 27.5-.1 41.2 0 7.6 0 14.9 1.5 20.5 7.2 6.3 6.4 7.8 14.2 5.8 22.5-2.3 9.9-9.4 15-18.8 17.6-4 1.1-8.2 1.6-12.3 1.1-3.4-.4-4.1.9-4 4 .2 5.9 0 11.7.1 17.6.1 2.6-.8 3.7-3.4 3.4-4.3-.4-9.8 1.9-12.7-1-2.5-2.5-.7-7.9-.7-12-.1-13.1-.1-26.1 0-39.2 0-3.3-1-4.1-4.1-4-5.3.2-10.7.1-16 0-2.2 0-3.7.7-4.9 2.6-2.6 4-5.3 8-8.2 11.8-1.6 2.1-1.5 3.6 0 5.6 7.6 10.6 15 21.4 22.4 32.1.7 1 2.3 2 1.4 3.4-.7 1.1-2.2.5-3.4.5-5.3 0-11.3 1.3-15.8-.7s-6.5-8.2-9.7-12.4c-2.1-2.8-4.1-5.6-6-8.5-1.1-1.7-2-1.9-3.2-.1-7.5 10.9-15.6 21.1-22.6 32.1z"/>
  <path fill="#54352D" d="M169.6 74.8c0-10.9.1-21.9-.1-32.8 0-3 .6-4.2 3.9-4.1 11.2.2 22.4.2 33.6 0 3.4-.1 4.1 1.1 3.9 4.1-.2 3.1-.3 6.1 0 9.2.3 3.5-1.1 4.3-4.4 4.2-5.5-.2-10.9 0-16.4-.1-2.6-.1-3.8.5-3.8 3.5 0 8.5-.1 8.5 8.3 8.5 4.5 0 9.1.1 13.6 0 1.9 0 2.7.6 2.6 2.5-.1 3.9-.1 7.7 0 11.6.1 2.2-1.1 2.6-3 2.6-6-.1-12 .1-18-.1-2.9-.1-3.6.9-3.5 3.7.3 7.8-1 6.6 6.5 6.7 5.1.1 10.1.1 15.2 0 2 0 2.9.6 2.8 2.7-.1 3.7-.2 7.5 0 11.2.1 2.7-1.1 3.4-3.6 3.3-11.5-.1-22.9-.1-34.4 0-2.6 0-3.5-.8-3.4-3.4.3-11.2.2-22.3.2-33.3zm372.1 2.9c-4.7 4.7-4.8 4.7-.7 10.4 4.6 6.5 9.2 13.1 13.8 19.6.6.8 1.7 1.6 1.3 2.8-.6 1.4-2.1.8-3.2.8-4.4.1-8.8-.1-13.2.1-2.4.1-3.9-.8-5.2-2.8-4.3-6.6-8.9-12.9-13-19.6-1.9-3.1-4.7-2.7-7.3-2.6-2 0-1.4 1.9-1.4 3.1-.1 6.1-.1 12.3 0 18.4.1 2.6-.8 3.6-3.4 3.5-3.3-.1-6.7-.2-10 0-3 .2-3.9-1-3.9-3.9.1-15.7 0-31.4.1-47.1 0-3.5-.4-5.7-4.7-5.1-2 .3-2.9-.8-2.9-2.8.1-4 0-8 0-12 0-1.6.5-2.6 2.3-2.5 13.5.6 27.2-1.5 40.6 1.3 6 1.3 11 4.6 14 10.3 1.3 1.7 1.4 3.9 2.5 5.6.9 4.3.8 8.6-.1 12.9-1.2 3.5-3.2 6.7-5.6 9.6zm-128.9 8.7c-1.8-7.7-1.8-15.5 0-23.2 5.4-16.2 18.3-25.9 35.4-26.8 14.9-.8 29.7 8.7 36 23.2 6.2 14.2 2.6 32.2-8.8 43.1-.7.6-1.3 1.3-1.9 2-9.5 6.8-19.8 10.4-31.5 7.9-14.7-3.2-24.3-12.1-29.2-26.2zm185.6-48.7c8 17.5 16 35 24.1 52.5 2.6 5.7 5.3 11.3 7.9 17 1.8 3.9 1.7 4.1-2.8 4.1-2.8 0-5.6-.2-8.4.1-4 .4-7-.5-8.1-4.9-.4-1.6-1.8-2.1-3.4-2.1-7.7.1-15.5.1-23.2 0-2.4 0-3.3 1.3-3.9 3.2-.9 3-2.9 4.1-6 3.8-3.3-.3-6.7-.1-10-.1-4.8 0-4.8 0-2.9-4.1 9-19.5 18.1-39.1 27.1-58.6 1.9-4.2 3.7-8.4 5.6-12.7 2.9-2.9 2.9.7 4 1.8z"/>
  <path fill="#79615B" d="M547.3 68.1c0-4.3 0-8.6.1-12.9 2.1 4.2 1.5 8.5-.1 12.9z"/>
  <path fill="#79615B" d="M541.7 77.7c1.9-3.2 3.7-6.5 5.6-9.7-.5 4-2.5 7.2-5.6 9.7z"/>
  <path fill="#C6BBB9" d="M598.4 37.7c-1.4-.4-1.3-4-4-1.8 0-1.1 0-2.1 1.4-2.3 1.9-.3 1.6 1.7 2.6 2.5v1.6z"/>
  <path fill="#79615B" d="M547.4 55.1c-1.8-1.4-2-3.6-2.5-5.6 1.8 1.5 2.5 3.4 2.5 5.6z"/>
  <path fill="#54352D" d="M365.8 83.3c0-8.1-.1-16.3.1-24.4.1-2.8-.9-4-3.6-3.6-3.1.5-4.4-.7-4.1-4 .3-3.6.1-7.2 0-10.8 0-1.9.7-2.6 2.6-2.6 6.5 0 13.1.1 19.6 0 2.9 0 2.6 2 2.6 3.8v39.6c0 3.1.2 6.1 0 9.2-.2 2.8.8 3.8 3.6 3.7 6.5-.2 13.1 0 19.6-.1 2.5-.1 3.6.6 3.5 3.4-.2 3.5-.1 6.9 0 10.4.1 2.5-.7 3.6-3.4 3.5-12.3-.1-24.5-.1-36.8 0-2.8 0-3.7-1-3.6-3.7 0-8.2-.1-16.3-.1-24.4z"/>
  <path fill="#D5A747" d="M130.3 56.1c-1.7-6.1-3.4-12.1-6.6-17.6 4.9 4.9 6.5 11 6.6 17.6z"/>
  <path fill="#836C67" d="M625.5 135.3l-3-.9c-1.3-2.6-2.8-5.1-.9-8.1.6-.4 1.3-.5 1.9 0-.7 3.1-.1 5.8 3 7.4.6.3 1.2.8.7 1.4-.4.6-1.1.5-1.7.2z"/>
  <path fill="#A1918C" d="M623.5 126.3h-1.9c.9-2.7 3-3.8 5.7-3.9.5 1 2.6-.5 2.4 1.5-2.1.8-4.5.9-6.2 2.4z"/>
  <path fill="#8A7670" d="M630.5 133.6v-1.9c0-.9.1-2 1.3-2 1.1 0 1.4 1.1 1.3 2-.1 1.2.6 2.7-.9 3.5-1.8.6-2.4.2-1.7-1.6z"/>
  <path fill="#978480" d="M630.5 133.6c0 1.1.6 1.5 1.6 1.6-2.2 1.5-4.4 1.2-6.6.1 1-.1 1.6-.5 1-1.6 1.3 0 2.6 0 4-.1z"/>
  <path fill="#755D56" d="M629.7 124l-2.4-1.5c1 0 2-.1 3-.1.6 0 1 .4.9 1-.2.7-.9.6-1.5.6z"/>
  <path fill="#96847F" d="M297.4 124.7c1.7-2.4 4.1-2.5 6.7-2.5.9 0 2.1-.2 2.1 1.1 0 1.2-1.1 1.3-2.1 1.1-2.7-.3-4.9.6-6.4 3-1.2-.8-.1-1.8-.3-2.7z"/>
  <path fill="#7E6762" d="M297.4 124.7c1.2.8-.1 1.9.3 2.8 0 1-.1 2-.1 3-1.8.4-.7-1.5-1.4-2-.1-.5-.6.4-.2.1.6 1.2.9 2.3 0 3.5-1.7-2.9-1-5.4 1.4-7.4z"/>
  <path fill="#9D8B87" d="M305.8 135c-1.2.4-2.3.7-3.5 1.1-.5 0-1-.1-1.5-.1-.3-.8-1.3-1.3-.8-2.3 1.6-.1 3.2 1.7 4.7 0h.8c.6.3.5.8.3 1.3z"/>
  <path fill="#785F59" d="M296 132v-4.1c1.3.5.5 2.1 1.6 2.4.3.8.6 1.5.9 2.3-.1.7-.4 1.2-.9 1.6-1.3-.1-1.1-1.3-1.6-2.2z"/>
  <path fill="#634740" d="M297.6 134.3c0-.7.3-1.3.9-1.6l1.5.9c.3.8.5 1.6.8 2.3-1.1-.5-2.1-1.1-3.2-1.6z"/>
  <path fill="#694E47" d="M379.8 133.7c-2.1-3-5.3-3.3-7.8-.9-1.9-.2-1.2-1.3-.7-2.3.3-.3.5-.6.8-.9.4-.4.9-.6 1.4-.5.3 0 .7.1 1 .2.9.1 1.8.5 2.6-.4.3-.9-.2-1.9.3-2.8.3-.5.7-.8 1.3-.5.3.5.5 1 .8 1.5.4 1.1.7 2.3 1.5 3.3l.9 2.4c.3.4.5.9.1 1.3-1.1.9-1.6-.2-2.2-.4z"/>
  <path fill="#775E58" d="M378.5 125.6l-1 1c-1.2-.1-2.2.1-3.2.8-1.7-.2-.9-1.7-1.2-2.6 2.4-2.5 3.8-2.3 5.4.8z"/>
  <path fill="#836D67" d="M371.3 130.5c.1.8-.2 1.7.7 2.3 0 1.5-.5 3.2-2.3 2.6-1.3-.5-.3-2 .3-3 .3-.7.4-1.6 1.3-1.9zm1.9-5.6c.3.8.7 1.5 1 2.3 1 1.2.2 1.9-.7 2.5-.5 0-.9 0-1.4-.1-.6-1.8.8-3.1 1.1-4.7z"/>
  <path fill="#765D57" d="M379.8 133.7c.8 0 1.9.8 1.9-.9 1.2.7 1.4 2 .3 2.5-1.1.7-1.9-.5-2.2-1.6zm1-3.3c-1.4-.7-1.7-1.9-1.5-3.3.8.9 1.3 2 1.5 3.3z"/>
  <path fill="#6E544D" d="M525.5 131c.2-2.8-.7-5.7.4-8.4h1.3c0 3.9.2 7.9-.1 11.8-.1 1.6-1.5 1-2.3.1-.4-1.3-.2-2.5.7-3.5z"/>
  <path fill="#87716B" d="M517.7 128.7c-.8 2.1 1.1 4.9-1.7 6.5-.6-4.2-.7-8.4 0-12.6.9-.3 1.8-.6 2.2.7-.5.8-.1 1.6-.3 2.4 0 .8-1.1 1.4-.3 2.3.2.2.2.5.1.7z"/>
  <path fill="#917E78" d="M525.5 131c.4 1.3-.2 2.4-.7 3.4-2-1.8-3.6-4-4.9-6.3.4-.6 1.2-.4 1.7-.7 1.7.7 1.9 3.2 3.9 3.6z"/>
  <path fill="#A1908C" d="M516.1 122.6v12.6c-1.3-4.2-1.4-8.4 0-12.6z"/>
  <path fill="#694E47" d="M521.6 127.4c0 1.6-1.1.6-1.7.7-.2-.3-.5-.6-.7-.8-.2-.3-.4-.6-.5-1 0-.6.1-1.1.6-1.5l2.3 2.6z"/>
  <path fill="#664B44" d="M519.3 124.7v1.6c-1 .8-1.3-.1-1.6-.8-.5-.9-1.6-2 .5-2.2.4.4.7.9 1.1 1.4z"/>
  <path fill="#A1908C" d="M517.7 125.5c.5.3 1 .5 1.5.8 0 .3-.1.7-.1 1-.7-.1-1.1.2-1.5.7-1.1-.8-.9-1.7.1-2.5z"/>
  <path fill="#836C67" d="M600.1 130.4c3-.9.8-3.3 1.3-5 .3-1-.4-2.8 1.3-2.8 1.8 0 1.2 1.7 1.2 2.8.1 2.6 0 5.3 0 7.9 0 .9.1 2-1.1 2.2-1 .1-1.7-.5-2-1.5-.2-1.2-1.4-2.2-.7-3.6z"/>
  <path fill="#755C56" d="M593.7 125.6v9.2h-1.5v-12.4c.9-.2 1.8-.5 2.3.7-.1.9-.6 1.7-.8 2.5z"/>
  <path fill="#816A64" d="M600.1 130.4c.6 1.1.9 2.3.7 3.6-.7-.7-1.5-1.3-2.2-2-.8-1.1-1.8-2-2.4-3.2l-.9-1.5v-.8c0-.6.2-1.2.8-1.5 1.6 1.5 3 3.3 4 5.4z"/>
  <path fill="#6C514A" d="M596 124.9c-.1.6-.2 1.2-.8 1.5-.5-.3-1-.5-1.5-.8-1.4-1.4-.9-2.1.8-2.5.8.5 1.3 1 1.5 1.8z"/>
  <path fill="#EEEBEB" d="M596.1 128.7c1.2.8 2 1.8 2.4 3.2-1.4-.5-2.4-1.5-2.4-3.2z"/>
  <path fill="#6D534C" d="M476 124.6c1.6 1.2-.1 2.1-.2 3.2-1.3.6-1.5 1.4-.5 2.5-.1.5-.4.9-1 1-4.6-2.1-5-1.8-4.9 2.9-.3.8-.7 1.5-1.7 1.3-.8-.1-.9-.8-.9-1.5.4-1.1.2-2.4.6-3.5 1-2.2 3.5-1.2 5-2.3.7-1 1-2.2 1.3-3.4.3-.5.6-.9 1.3-.7.4.2.7.4 1 .5z"/>
  <path fill="#DCD5D4" d="M467.2 133.6c.2 2.3 1.2 1.6 2.3.6.2 1.2-.1 2.1-1.4 2.3-.9.1-1.6-.7-1.5-1.5.2-4.2-1.1-8.5.7-12.6 2.3 3.7.4 7.5-.1 11.2z"/>
  <path fill="#88726C" d="M467.2 133.6v-11.2h5.6c.2 1.9-1.6 1.5-2.4 2.2-.4.2-.8.4-1.3.4-.8 1.2.2 2.6-.3 3.8-.2.5-.4 1-.7 1.5-.2 1.2.3 2.5-.9 3.3z"/>
  <path fill="#998782" d="M469.6 124c.7-1.3 2.5-.3 3.2-1.6 1.2-.1 2.4-.1 2.2 1.7-.2.3-.5.5-.7.8-1.7.9-3.2.3-4.7-.9z"/>
  <path fill="#6A4F48" d="M474.4 131.3l1-1c1 .5 1.6 1.2 1.6 2.4-.1.7-.2 1.3-.9 1.7-1-.8-1.5-1.9-1.7-3.1z"/>
  <path fill="#62463F" d="M476 134.5c.1-.7.2-1.4.9-1.7.5.7 1.4 1.4.5 2.3-.5.5-1.1.1-1.4-.6z"/>
  <path fill="#60433C" d="M573.7 129v4.8c0 .7-.3 1.4-1.1 1.4s-1.1-.7-1.1-1.4v-9.9c0-.7.3-1.4 1.2-1.2.4.1.8.7.9 1.1.1 1.7.1 3.5.1 5.2z"/>
  <path fill="#8C7772" d="M555.3 123.2c-1.3 1.1-3.1.5-4.5 1h-.5c-1.3 3.1 0 6.4-.7 9.6-.2.4-.4.6-.8.8-.2-.3-.4-.7-.6-1 .1-.9.1-1.9.1-2.8 0-3.3 1.3-7.5-4.6-7.8 4-.6 7.8-1.9 11.6.2z"/>
  <path fill="#7E6862" d="M246.6 122.7c1.5-.4 3.1-.5 4.6-.2.3 1.3-1.3 1.7-1.2 2.9-.3 2.6 0 5.3-.1 7.9.1 2.2-.9 2.8-2.8 2-1.3-4.2-.3-8.4-.5-12.6z"/>
  <path fill="#836D67" d="M254.3 123.3c.5.5 1.1.7 1.8.5 2.5 3.3 3.5 5.3.2 10-.7.3-1.1 0-1.4-.5.1-3 .8-6-1.6-8.5-.1-.8-.2-1.6 1-1.5z"/>
  <path fill="#95837E" d="M247.1 135.3c1.2 0 2.4-.1 1.9-1.9 1-.8 2.1-.7 3.3-.3 1.1.5.7 1.5.8 2.3-2 .9-4 1.3-6-.1z"/>
  <path fill="#907C77" d="M253 135.3c-1-.4-.5-1-.2-1.6.4-1 1.2-1.3 2.3-1.2l1.1 1.1c-.7 1.3-1.8 1.9-3.2 1.7z"/>
  <path fill="#836D67" d="M350.5 124.3c0 2.9 0 5.7-.1 8.6 0 1.1.6 2.8-1.6 2.5-.7-2.2-.3-4.5-.3-6.7-.1-4.7 0-4.7-4.7-5.3.1-1.8 1.6-1 2.4-1 2.5-.1 5 .1 7.5.1-.1 2.3-2.7.1-3.2 1.8z"/>
  <path fill="#8C7772" d="M343.8 123.3c5-.2 5.1-.1 5.1 4.9v7.1c-1.8-1.6-.9-3.8-.8-5.6 0-3.3-.3-6-4.3-6.4zm6.7 1c.4-1.7 2.5-.5 3.1-1.8 1.6.1 1.6.9.3 1.4-1 .4-2.2.2-3.4.4z"/>
  <path fill="#907C77" d="M401.7 128.7c-.4 2.8-.6 6.1 4.5 5.1.8-.2 1.8.1 1.8 1.1 0 .9-1 1.1-1.8 1.1h-4.8c-1.6 0-2.4-.8-2.4-2.4v-8.7c0-1-.1-2.4 1.4-2.3 1.5.1 1.2 1.5 1.3 2.5v3.6z"/>
  <path fill="#D09C2F" d="M84 16c-.8-.5-1.6-1.1-2.4-1.6 1.9.3 3.9-.8 5.6.8l-.8.8H84z"/>
  <path fill="#866F6A" d="M442.6 130.7c-.4 1.6 1.1 4.7-1.3 4.7-2.5 0-1-3-1.3-4.6-.2-.8-.1-1.6 0-2.4.3-2-1.3-4.9 1-5.7 2.7-1 6.1-1.2 8.5 1.4-.6.8-1.5 1-2.4 1.2-2.4-.5-3.9.3-4 3-.1.3-.4.6-.6.8-1.6-.2-.5 1.5-1.3 1.9.3.1.4 0 .4-.3 0 0 .2-.1.3-.2.3-.3.5-.2.7.2z"/>
  <path fill="#765D57" d="M449.6 127.2c-.4 1.8-2.2 2-3.3 3-1.3.1-2.5.3-3.8.4 0-.2-.1-.3-.2-.5-.4-.4-.4-.8 0-1.2l.1-.3c1.8-1 4.1-1.2 5.3-3.1 1.6-.2 1.8.7 1.9 1.7z"/>
  <path fill="#725952" d="M449.6 127.2l-1.6-1.6c-.7.1-1.1-.1-.7-1 .6-.8 1.5-.6 2.3-.6 1.1.8.6 1.9.8 3-.3.1-.5.2-.8.2z"/>
  <path fill="#816A64" d="M276.1 122.5c1 0 2 .3 2 1.4-.1 3.3-.4 6.6 0 9.9.1.7-.4 1.3-1.2 1.3-.8-.1-.9-.8-.9-1.5 0-3.8 0-7.4.1-11.1z"/>
  <path fill="#70564F" d="M324.8 128.6v-4.8c0-.7.4-1.3 1.2-1.3.8 0 1.1.6 1.2 1.4v10c0 .7-.3 1.4-1.1 1.5-1.1.1-1.3-.7-1.4-1.5 0-1.9 0-3.6.1-5.3z"/>
  <path fill="#7E6761" d="M497.6 129.1v4.8c0 .8-.3 1.7-1.3 1.6-.7 0-1.2-.7-1.2-1.4v-10.3c0-.7.3-1.3 1.1-1.4 1.1-.1 1.3.7 1.4 1.5.1 1.8 0 3.5 0 5.2z"/>
  <path fill="#8C7772" d="M550.7 124.2c-.1 2.9-.1 5.7-.2 8.6 0 1.1.4 2.9-1.9 1.8.1-.1.2-.3.3-.4.6-2.6.1-5.2.3-7.8.1-.9-.6-2.2 1-2.5.2.1.4.2.5.3z"/>
  <path fill="#62473F" d="M305.8 135c-.1-.5-.2-1-.3-1.4l.4-3.6c.8 2.4 1.1 3.7-.1 5z"/>
  <path fill="#846E69" d="M254.3 123.3c-.2.5-.4.9-.7 1.4-1.7.9-3.2.4-4.7-.4.2-1.3 1.8-.8 2.3-1.8 1.1-.1 2.3-.5 3.1.8z"/>
  <path fill="#FBFBFB" d="M324.3 55.2c2.2.2 4.5.2 6.7.7 4.5.9 6.2 6.1 3.3 9.6-2.5 3.1-12.5 5-16.1 3-.8-.5-1.1-1.1-1.1-1.9v-4c.2-8-1.2-7.2 7.2-7.4z"/>
  <path fill="#FCFBFB" d="M512.6 62c.1-7.7-1-6.7 6.8-6.7 2.4 0 4.8.2 7.1.6 2.6.5 4.2 2.2 4.6 4.9.4 2.5-.5 4.4-2.6 5.8-4.6 3.2-9.6 2.4-14.7 1.9-1.2-.1-1.3-1.2-1.3-2.1.1-1.5.1-2.9.1-4.4z"/>
  <path fill="#FEFEFE" d="M440.1 94.3c-6.9-4.1-11.5-9.7-12-18.1-.6-9.4 5.1-18.2 13.6-21.3 8.9-3.2 18.5-.4 24.2 7.3 5.7 7.4 5.7 17.7.1 25.3-.7 1-1.4 1.9-2.2 2.9-6.9 6.4-14.9 7.7-23.7 3.9z"/>
  <path fill="#715851" d="M440.1 94.3c8.7 2.8 16.6 1.7 23.9-4-4.6 6.7-17.6 8.9-23.9 4z"/>
  <path fill="#F6F5F4" d="M595.8 88.2c-6.4 0-6.4 0-3.8-5.8.9-1.9 1.8-3.9 2.7-5.8.9-1.9 1.8-1.8 2.7 0 .9 1.8 1.7 3.6 2.5 5.4 2.8 6.2 2.8 6.2-4.1 6.2z"/>
  <path fill="#C7BDBA" d="M373.5 129.7c.2-.8.5-1.7.7-2.5.8-2.2 1.8-3.2 3.4-.6l.9 2.9c-1.6.9-3.2.5-4.8.3l-.2-.1z"/>
  <path fill="#836D67" d="M373.6 129.8l4.8-.3c-1.5 1.6-3.1 1.3-4.8.3z"/>
  <path fill="#D5CECC" d="M469.6 124c1.7-.3 3.2.4 4.7.9.8 1.9-.2 3-1.7 3.8-.9 1-2 .5-3.1.4-1.4-1.2-1.5-2.5-.6-4 .3-.4.5-.8.7-1.1z"/>
  <path fill="#644841" d="M469.7 128.8c1 0 2-.1 2.9-.1-1 2-3.4.2-4.5 1.7v-1.5c.5-.6 1.1-.6 1.6-.1z"/>
  <path fill="#775E57" d="M469.7 128.8c-.6 0-1.1 0-1.7.1 0-1.4-.4-3 .1-4.3.5-1.3.5.2.8.4.1 1.3-.1 2.6.8 3.8z"/>
  <path fill="#634840" d="M550.3 123.9c-1.8 3.3.5 7-1.3 10.3V125c-.1-.7-.3-2 1.3-1.1z"/>
  <path fill="#EDEAE9" d="M248.9 124.2c1.6-.6 3.2 0 4.7.4 2.9 2.2 3 4.9 1.5 8-.8.4-1.5.8-2.3 1.2-1.3-.1-2.6-.3-3.8-.4 0-3.1 0-6.1-.1-9.2z"/>
  <path fill="#745B55" d="M400.8 127.2v7.1h-.7v-7.1c.2-.3.4-.4.7 0z"/>
  <path fill="#6A5049" d="M400.8 127.2h-.6c.1-1.1-.4-2.3.3-3.4.7 1.1.2 2.3.3 3.4z"/>
  <path fill="#E6E1E0" d="M447.3 124.7c.2.3.5.6.7 1-.2 3.9-3.1 3.1-5.5 3-.3-5.2-.1-5.4 4.8-4z"/>
  <path fill="#6E544D" d="M442.4 129v1.2c-.4.9-.8 1.8-1.2 2.8-.4-3.6-.4-3.6 1.2-4z"/>
  <path fill="#5F423B" d="M496.7 124.2v9.3h-.3v-9.3h.3z"/>
</svg>
