<svg xmlns="http://www.w3.org/2000/svg" width="350" height="120" viewBox="0 0 393.25843 400.00001" color-interpolation-filters="sRGB" id="root" version="1">
  Converted with TEXTCAFE (tm) http://www.texterity.com
  <title id="title3">
    12.eps -- Page 1
  </title>
  <defs id="defs5">
    <style id="style7">
      clipPath{shape-rendering:crispEdges} image{shape-rendering:crispEdges}
    </style>
    <clipPath id="id2">
      <path id="rect10" d="M0 0h200v200H0z"/>
    </clipPath>
  </defs>
  <g id="g2210">
    <g transform="matrix(6.15468 0 0 -6.15468 -394.01 793.85)" clip-path="url(#id2)" id="g2212">
      <g id="g2214" fill="#061120" fill-rule="evenodd">
        <path d="M103.02 82l-1.3-.73c-.55-.26-2.74-1.2-4.97-1.2-2.03 0-3.5.76-4.16 1.14-2.4 1.5-3.3 3.9-3.7 6.5-.2 1.1-.2 2.2-.2 2.6 0 4.2 1.2 6.5 2.6 7.9.7.7 2.3 2.2 5.1 2.2 1.5 0 3.6-.2 5-.9.1-.1.8-.4 1.2-.7l.1-1.8h.6l-.1 1.2v2.6h-.8c-1.2 0-1.5.1-2.7.3-1.4.2-2.2.2-2.8.2-5.1 0-7.6-2.4-8.8-4-2-2.7-2.1-5.7-2.1-6.8 0-1.2.1-5.9 3.7-8.8 2.4-2 5-2 6.1-2 3.4 0 5.5 1.3 6.7 1.9v.9" id="path2216"/>
        <path d="M30.25 85.37c-1.92-.02-3.63-.02-5.55-.02.35.93.8 1.82 1.2 2.7.67 1.45 1.12 2.38 1.77 3.82.4-1.06.73-1.6 1.1-2.66.5-1.2 1-2.5 1.48-3.8zm-5.97-5.57c-.6.02-1.18.06-1.77.1.5 1.22.9 2.52 1.5 3.7l.6 1.17c2.1.06 4 .08 6 0l1-2.4c.3-.78.5-1.68.8-2.47-.6-.04-.9-.08-1.5-.1v-.5c1.8.05 3.7.07 5.5 0v.5c-.5.02-.9.04-1.4.08-1.8 3.46-3.2 7.1-4.5 10.7-.4 1.16-.9 2.3-1.2 3.45h-1c-.1-.4-.3-.8-.4-1.18-.4-.93-.8-1.86-1.3-2.8L25 87.1c-.5-1.07-1-2-1.54-3-.6-1.2-1.26-2.4-1.96-3.57-.1-.2-.24-.5-.4-.7-.54-.04-1.06-.06-1.6-.08l-.04-.5c1.74.07 3.46.07 5.2 0v.5" id="path2218"/>
        <path d="M114.78 85.48c-1.93-.02-3.63-.02-5.55-.02.35.94.8 1.82 1.2 2.7.67 1.45 1.12 2.38 1.77 3.82.4-1.05.73-1.6 1.1-2.65.5-1.3 1-2.55 1.48-3.85zm-5.98-5.56c-.6 0-1.17.06-1.77.1.42 1.2.9 2.5 1.42 3.7.18.4.38.77.55 1.16 2.1.06 3.95.08 6.03 0l.92-2.4c.3-.78.47-1.68.75-2.47l-1.56-.1v-.4c1.8.1 3.6.1 5.4 0v.5l-1.4.1c-1.78 3.5-3.2 7.1-4.55 10.7-.5 1.2-.9 2.3-1.2 3.5h-1c-.2-.4-.3-.8-.5-1.1-.4-.9-.9-1.8-1.3-2.8l-1.5-2.9c-.5-1-1-1.9-1.6-2.9-.7-1.2-1.3-2.3-2-3.5-.1-.2-.3-.5-.4-.7-.6 0-1.1-.1-1.6-.1v-.5c1.7.1 3.4.1 5.2 0v.5" id="path2220"/>
        <path d="M158.24 82c-.03-.53-.05-1.2-.17-1.35-.07-.1-.27-.13-.58-.2-1.6-.32-3.8-.42-3.9-.42-.5-.02-1 0-1.5 0-.1.47-.2.92-.2 1.4 0 .6 0 1.17-.1 1.76v3.1c1.4 0 2.2 0 2.7-.1.4-.1.9-.2 1-.3.1-.1.4-.3.4-.4v-1h.6l-.1 1.7c0 .7 0 1.5.1 2.2h-.5c0-.2-.1-1.1-.2-1.3-.1-.1-.3-.2-.4-.2-1.3-.2-2.4-.2-3.7-.1V89c0 1.35 0 2.73.1 4.06.3.07.7.07 1.1.07 1.9 0 3.1-.27 3.7-.4.8-.2.8-.66.8-1.6h.5v2.56l-3.1-.1h-7v-.5c.5-.1 1.2-.1 1.7-.1.1-.9.1-1.8.1-2.7v-3.2c0-1.2-.1-2.3-.1-3.5 0-1 0-2-.1-3 0-.4 0-.7-.1-1-.6 0-1.4 0-2.1-.1V79h8.9c.7 0 1.3-.05 2-.1v2.6h-.5" id="path2222"/>
        <path d="M170.98 82.16l-.07-1.5c-.5-.15-1.1-.26-1.7-.34-2-.27-3-.25-3.8-.25l-.1 2.37v5.32c0 1.27 0 2.52.1 3.76.1.62.1 1.22.2 1.82l1.8.18V94c-.7-.02-1.8-.04-2.5-.04-1.1 0-2.2 0-3.3.04v-.48c.6-.06 1.2-.12 1.9-.16.1-1.6.3-3.24.3-4.85v-4.4c0-2.3 0-2.6-.3-4h-1.9v-.6H172v2.7h-.6" id="path2224"/>
        <path d="M183.63 82.16l-.07-1.5c-.57-.15-1.13-.26-1.73-.34-2.06-.27-2.98-.25-3.86-.25-.07.83-.12 1.55-.17 2.37-.02.85-.02 1.67-.02 2.52v2.8c0 1.27 0 2.52.07 3.76.05.62.1 1.22.17 1.82l1.75.18V94c-.7-.02-1.87-.04-2.57-.04-1.1 0-2.23 0-3.3.04l-.04-.48c.63-.06 1.23-.12 1.85-.16.2-1.6.3-3.24.3-4.85v-4.4c0-2.3 0-2.6-.2-4h-1.9v-.6h10.5v2.7h-.6" id="path2226"/>
        <path d="M37.7 79.26l2.17.02c.6 0 1.2 0 1.8-.02.6-.02 1.17-.06 1.76-.06.72 0 2.3-.02 3.94.93.52.3.84.6 1 .78.53.7.8 1.6.8 2.4 0 .9-.34 1.6-.5 1.9-.44.6-1.13 1.3-2.94 1.6-.42.1-.84.1-1.26.2l-.02.1c.2.1.25.1.45.1.7.2 1.2.4 1.43.6.67.4 1.94 1.2 1.94 2.9 0 .9-.28 1.5-.45 1.8-.07.2-.32.6-.77.9-1.1.9-2.63.8-2.97.8h-1.86c-.77-.1-1.56-.1-2.33-.1s-1.5 0-2.2.1l-.1-.5c.6 0 1.3 0 1.9-.1.1-1.6.1-3.3.1-4.9V84c0-1.3 0-2.6-.2-3.88l-1.8-.1v-.5zm3.9 13.94c.67.1 1.2.06 1.9.06.9 0 .38 0 .76-.13.44-.2.8-.48.9-.6.9-.84.98-1.85.98-2.22-.03-1.3-.74-2.6-2.33-3.1-.9-.2-1-.2-1.2-.2h-1v1.8l.1 1.2c0 .7 0 1.4.1 2.1 0 .5.1.9.1 1.3zm-.12-6.78c.52.04 1.06.06 1.6.06 2.14 0 2.56-.53 3.15-1.17.5-.5.7-1.3.7-1.9 0-.3-.04-2.7-2.25-3.4-.5-.1-.3-.1-1.45-.1-.8 0-1.34.1-1.6.2-.1.9-.14 1.7-.14 2.6-.1 1.3-.1 2.6 0 3.9" id="path2228"/>
        <path d="M79.34 79.88l-1.27.06c-.27.23-.55.45-.8.68-.72.66-1.35 1.33-2.04 2-.56.56-.87 1.1-1.43 1.66l-1.52 1.58c-.25.3-.48.55-.73.82.17.02.5.1 1.1.26.6.16.96.22 1.5.5.7.4 2.1 1.26 2.1 3.1.02.84-.3 1.44-.5 1.73-.1.18-.42.64-.9.95-1.17.74-2.87.7-3.12.7-.77 0-1.5-.03-2.26-.05-1.4-.02-2.74-.02-4.14 0l-.03-.47 1.83-.15c.08-1.43.08-2.83.08-4.22v-6.58c0-.84-.1-1.7-.2-2.53l-1.8-.06v-.5c.7.03 1.4.03 2.1 0 1.2 0 2.6.03 3.8 0l.1.5c-.6.02-1.1.04-1.7.04-.1.9-.1 1.8-.2 2.68v4.22c1.3-1.1 2.3-2.2 3.5-3.5 1.2-1.2 2.3-2.4 3.3-3.7 1.1.1 2.4 0 3.5-.02V80zm-9.96 13.34c.7.06.6.08 1.26.08.76 0 1.14.02 1.5-.07.86-.22 2.06-.92 2.06-2.64 0-.8-.28-1.8-.97-2.4-.4-.4-.94-.6-1.14-.7-1.6-.6-2.6-.5-3.1-.5v2.6c0 1.2.1 2.3.2 3.5" id="path2230"/>
        <path d="M15.18 79.97c-.75.03-1.5.06-2.26.06-.1 1.43-.12 2.9-.15 4.34 0 1.68 0 3.35-.03 5.03.24.03.48.03.72.03 1.72 0 3.6-.33 4.05-.45.1-.03.5-.08.7-.23.4-.3.3-1.06.3-1.94h.7v2.5c0 1.1.1 2.1.1 3.2l-.6.1c0-.8 0-1.5-.2-1.8-.1-.1-.6-.2-.7-.2-1.8-.4-4.5-.3-4.8-.3 0 1.7 0 3.3.1 5l.2 4.3c.6.1 1.2.1 1.7.1 2.2 0 4-.3 4.8-.4.1 0 .5-.1.8-.3.4-.1.4-.4.5-.6.1-.3.1-.4.1-1h.7c0 1 0 2 .1 3.1h-5.1c-2.6 0-5.2 0-7.8.1L9 100c.73 0 1.5-.1 2.2-.2.13-1.5.2-3 .2-4.44l-.08-6.6c-.04-2.7 0-5.4-.25-8.1-.7-.07-1.4-.07-2.04-.1v-.7c.98.05 1.95.1 2.95.1 1.2 0 2.4-.05 3.6-.1v.7" id="path2232"/>
        <path d="M62.03 81.94c-.03-.53-.05-1.2-.17-1.36-.08-.08-.27-.12-.58-.18-1.57-.33-3.74-.43-3.9-.43-.5-.02-1 0-1.48 0-.08.47-.12.92-.15 1.4-.02.6-.02 1.17-.05 1.76 0 1.1 0 2 .04 3.1 1.47.02 2.2.05 2.7-.04l1-.3c.15-.1.4-.3.4-.4 0-.4.04-.7.06-1h.56l-.03 1.6c0 .7.03 1.5.08 2.2H60c0-.2-.05-1.1-.2-1.3-.07-.1-.3-.2-.36-.2-1.23-.2-2.38-.1-3.64-.1.02.8 0 1.4.02 2.2.02 1.3 0 2.7.12 4h1.1c1.9 0 3.1-.3 3.68-.4.78-.2.75-.7.8-1.6h.5c0 .7 0 1.8.03 2.5H51.97V93c.52-.04 1.23-.06 1.76-.1.1-.9.13-1.76.15-2.63.03-1.1.03-2.1.03-3.2v-3.5c0-1 0-2-.1-3 0-.34 0-.67-.1-1-.6 0-1.4-.04-2.1-.06V79c.2 0 .4 0 .5.07h6.4c.7.05 1.5.05 2.2.05.7 0 1.4 0 2-.08.1.82 0 1.7.1 2.6h-.5" id="path2234"/>
        <path d="M77.8 86.42c2.28.03 4.56 0 6.78 0l.02.63H82c-1.4 0-2.82-.02-4.2 0v-.63" id="path2236"/>
        <path d="M130.3 91.6c0 .76 0 1.52.04 2.3-1.37.27-2.02.3-2.7.3-.76 0-3.7.03-5.05-2.1-.6-.85-.6-1.6-.6-1.94 0-.53 0-1.4 1-2.34.2-.22.6-.6 1.3-.92.7-.33 1.2-.54 2-.76 1.2-.4 2.5-.7 3.2-1.8.3-.6.4-1.27.4-1.5 0-1.2-.5-1.78-1-2.17-.8-.68-1.7-1-2.8-1-1.3 0-2.4.38-2.8.57-.4.14-.6.3-.7.4l-.3 1.44-.6-.02v-1.3c0-.44 0-.87-.1-1.3.6-.17 1.6-.33 3.2-.33 2.5 0 3.9.55 4.8 1.13 1.3.82 1.8 1.9 1.8 3.2 0 1.8-1.4 2.72-2.1 3.08-.9.46-1.8.7-2.1.8-1.4.4-2.7.7-3.5 1.82-.4.62-.5 1.26-.5 1.48 0 1.65 1 2.82 3 2.92 1 .06 2.1-.3 2.4-.4.1-.06.1-.14.3-.2l.1-1.36h.6" id="path2238"/>
        <path d="M145.84 91.32c.03.76.03 1.8.05 2.57-2.1-.1-4.2-.2-6.3-.2-2.1 0-4.1.1-6.2.1l-.1-2.6h.6l.1 1.5c1.7.4 2.3.3 4.4.3 0-.7.1-1.1.1-1.8 0-1.1-.1-2.2-.1-3.3v-3.2c-.1-1.7-.1-3.3-.2-5-.6 0-1.2 0-1.9-.1v-.5h2c1.2 0 2.6 0 3.7-.1v.5h-1.8c-.1.9-.1 1.8-.1 2.7v8.6c0 .7.1 1.1.2 1.7 2.4 0 2.9 0 4.3-.3l.1-1.5h.6" id="path2240"/>
        <path d="M91 121.25c0 .2.17.3.4.3.2 0 .44-.07.44-.28 0-.2-.23-.48-.45-.48-.3 0-.4.2-.4.4" id="path2242"/>
        <path d="M87.87 119.95s-.68.03-.72-.55c-.04-.5.5-.6.5-.6s.14 0 .13-.12c0-.12-.53-.83.2-1.13.7-.3 1.5.33 1.68.47.2.14.6.7.9.72.3.02.54.03.55-.1.1-.2-.5-.24-.6-.6-.1-.2 0-.8 0-.8s-.1-.13-.1-.2c0-.15.2-.05.2-.2 0-.14-.5-.65-.6-.78l-.1-.5c0 .1.2-.9.6-.9.3-.03 1.5.46 1.6.62.1.15.2.5.1.85-.1.34-.2.44-.2.53 0 .1.2.44.6.55.2.1.1.3 0 .3-.4.1-.7.1-.8.2 0 .2.7.1.6.3 0 .2-.4.4-.4.6 0 .1.4.4.4.4s-.3.2-.3.3c-.1.4-.1 1.3-.1 1.4 0 .1-.4.2-.4 0 0-.1-.1-1.1-.3-1.3-.2-.1-.9-.3-1.2-.4-.2-.1-.7-.5-1-.4-.2 0-.5.1-.5.4 0 .3 1.8.4 1.8.5s-2 .2-2.1.5c0 .2.1.4.1.4zm2.98-3.3s.06-.34.07-.5c0-.18-.07-.53.25-.47.3.06.16.5.13.6-.1.3-.45.38-.45.38" id="path2244"/>
        <path d="M82.2 115.03h7.5s.25-.18.2-.44c-.15-.1-7.74 0-7.74 0s-.23 0-.22.2c0 .1.26.2.26.2" id="path2246"/>
        <path d="M89.8 111.12v1s.02.22-.07.38c-.1.15-.57.83-.62.86 0 .04-.2.1-.3 0s0-.25 0-.3l.4-.5c.1-.02 0-.1 0-.1s-1.1.06-1.7-.2c-.6-.23-.6-.27-.8-.27-.1 0-.3.1-.8.1-.3 0-.6-.1-.8-.2-.3 0-.9-.1-1.2-.2-.2-.1-.7-.4-1-.7-.3-.4-.4-.9-.6-1.2-.3-.3-.6-.7-.9-.9 0 0 .6-.1.5-.3 0-.2.1-.4-.2-.9-.2-.6-.4-.8-.6-1-.2-.2.3-.1.4 0 .1 0 .2.2.3.1.1-.1 0-.6 0-.7l-.2-.4s.3-.1.6-.1c.5 0 .7.4.7.7.1.3.2 1.5.2 1.5s.7-.2 1.1-.2c.4 0 .7.2.8 0 .1-.2-.2-.9-.2-1 0-.2-.8-2.2-.9-2.3v-.4H85s.5 1.5 1 2.1c.5.6 1.2 1.2 1.37 1.2.2 0-.13-.3-.13-.3s-.72-1-1-1.5c-.2-.6-.4-1-.4-1.6h.7s.2 1.1.4 1.7.6 1.3.8 1.5c.1.1-.03.3-.07.2l.15.1c.04 0 .63.2.6.5-.04.3-.55.4-.63.4-.1 0-.9-.1-1 .4-.1.5.9 1.1.9 1.1s.9.7 1.1.6c.1-.1-.2-.3-.2-.3l-1.1-1.1c-.1-.1-.1-.3-.1-.3 0-.1.3.1.5 0 .1-.1.2-.1.3-.2.1-.2.3-.7.7-.7s.5.4.5.5l.9 1.3s0 .1-.1.2c-.2 0-1.1-.2-1.2-.1-.2.1-.1.7-.1.8 0 .1-.1.1-.3.2-.1 0-.5 0-1.6-.5s-1.2-.7-1.5-.7c-.3 0-.5-.1-.5 0s-.1.7.1 1c.2.2.5.7.9.6.1-.1 0-.2 0-.2s-.4-.8-.2-.8h1s.1.5.3.7c.2.2.4.5 1 .4.7 0 .8-.2.9-.3 0-.1-.1-1.1 0-1.1s1.2.1 1.2.2c0 0 .1.1.1.2 0 0 0 .1-.2.2h-.6zm-4.83-1.67s-.22-1.06-.17-1.08c.06-.02.65.06.62.33-.04.43-.45.75-.45.75zm.33-1.64c-.1 0-1.22-2.9-1.27-3-.04 0 .02-.2.2.2.16.4 1.93 2.8 2 2.9.07.1.17.2.14.3-.04.1-.25.1-.42.1-.17 0-.56-.1-.65-.2zm-1.37 3.4c-.1 0-.76-.3-.9-.8-.16-.5-.48-1.5-.37-1.7.1-.2.3-.1.45 0 .2.1.4.4.4.6 0 .2 0 .5.1.8.1.3.2.7.3.9.1.2.2.3.1.3" id="path2248"/>
        <path d="M90.73 110.08s-.05.16-.13.17c-.08 0-.2-.2-.2-.2l-.62-.97s-.07-.2 0-.22c.1-.03.6-.03.73 0 .2.02.5.04.5.14.1.1-.2 1.08-.2 1.08" id="path2250"/>
        <path d="M90.72 108.56c0 .15.12.27.27.27.1 0 .2-.12.2-.27 0-.16-.1-.28-.3-.28s-.3.12-.3.28" id="path2252"/>
        <path d="M95.45 112.33s.18.16.38.2c.2.06.76.08.76.08l.1.4s0 .1.1.1.1-.3.1-.4c0-.1.2-.1.3-.1 0 .1.1.1.1.2 0 .2.1.4.1.4s.1.1.1 0c0 0 0-.4.1-.4h.6v1.2s0 .1-.1.2-.5.1-.5.1l-.3.4-.2.1h-.9s-.2 0-.2-.1v-.2l.4-.4v-.2l-.4-.2c-.1 0-.1.1-.1.2l-.1.7s0 .1-.1.1c0 .1-1.5.1-1.5.1s-.4 0-.6-.1c-.2-.1-.2-.2-.2-.2l.3-.2s1.5-.7 1.7-.7c.1 0 .2-.1.2-.1-.1 0-.3 0-.3.1-.1 0-1.7.7-1.7.7l-.5.3s-.2.1-.3-.1c-.2-.1-.3-.2-.3-.2 0-.1.1-.3.9-.8.7-.5 1-.6 1-.6s.1 0 .2.1l.3.3" id="path2254"/>
        <path d="M91.52 111.36s.26-.1.35-.23c.08-.15.18-1.26.36-1.4.2-.15.37-.04.43-.12h.5s.02.3-.1.4c-.1.1-.15.2-.22.2-.06 0-.24-.2-.3-.2-.08 0-.13.1-.16.3l-.22 1.4c-.03.1-.1.1-.15.1 0 0-.1-.1-.2-.1l-.2-.1zm4.18.97c-.25-.07-.43-.42-.53-.45-.1-.04-.27 0-.27 0s-.5.27-1.03.66c-.53.4-.77.68-.82.74-.05.06-.14.1-.18.1-.04 0-.1-.04-.1-.15-.03-.12-.23-1.47-.23-1.47s-.1-.1-.15-.08c-.1 0-.5.32-.6.35l-.2.05c-.1 0-.4-.2-.4-.15 0 .05.1.24.2.28.1.1.1.1.2.1l-.5 2.2-.1.2c-.1.1-.8-.1-.8-.2-.1 0-.1-.2-.1-.2h-.2l-.3-.9c-.1-.2-.2-.5 0-.5s.2.4.4.5c.2.3.4.3.4.3s-.6-.6-.5-.8c0-.2.6-.8.7-1.1 0-.4.7-2.9.7-2.9s0-.1.1-.1l.5.4v.4s.3-.2.4-.2c.1.1.8.5 1.4.7.6.3.9.4 1.2.4.4.1.6.1.6 0 .1-.1-.1-.3-.7-.6l-1.1-.4c-.1 0-.2-.3-.3-.5-.1-.2-.1-.6-.1-.6s1.3.3 2.2.8c.8.6 1.4 1.2 1.4 1.2v1.1l-1.2.6s-.2 0-.1.1c0 .2.2.8.2.9-.1 0-.1.1-.2.1-.2 0-.4 0-.5-.1zm-1.13-1.74c-.2 0-1.08-.1-1.2-.2-.1-.1-.2 0-.1.1s.46.4 1.2.4c.77-.1 1.4-.3 1.48-.4.08-.1.18-.2.14-.2-.1 0-.3-.1-.4 0-.1 0-1 .1-1.2.1" id="path2256"/>
        <path d="M92.64 113.87s-.2.14-.42.03c-.22-.12-.33-1.4-.26-1.6.07-.2.22-.3.3-.3.1 0 .17 0 .25.6l.2 1.27" id="path2258"/>
        <path d="M92.95 115.64l-.03-.4c0-.07-.1-.1-.15-.14-.05-.02-1.04-.16-1.04-.16s-.1.04-.16-.03c-.05 0-.1-.2-.04-.4.05-.2.13-.4.23-.4s.87.3.94.3c.13.1.22 0 .22 0l.03-.3h.2s.5.5.8.5l10.22.1v.1h.14s.2-.2.4-.2.9.2.9.4-.7.3-.9.3c-.2 0-.3-.2-.3-.2h-.1l-.1.1-10.1.1-.6.3-.2.2H93" id="path2260"/>
        <path d="M98.65 117.55s-.02-.85-.1-1.02c-.1-.17-.45-.36-.64-.15l-.1.22s-.1.03-.1-.03c0-.07-.1-.16-.1-.16h-.2v-.1l.3-.3c.1 0 .1-.1.1-.1s-.2-.1-.2-.2.1-.2 0-.3c-.1 0-.6-.1-.8-.1-.2 0-.9.1-1 .1l-.1.5c0 .1-.1.1-.2.1s-.5-.6-.6-.6c-.1 0-.4 0-.5.2-.1.2.1.6.4.8.3.3 1.2 1 1.9 1h1.8l.5.5h.1zm-2.1-1.23s-.06.08-.4-.04c-.35-.12-.48-.2-.42-.25.06-.05.27-.17.4-.18.1 0 .26.12.33.2.07.1.1.27.1.27" id="path2262"/>
        <path d="M98.5 115.3c0 .08.02.45-.05.52-.07.06-.22.12-.38-.05-.16-.17-.2-.5-.17-.5.04-.02.2-.05.3-.05.1 0 .3 0 .3.08" id="path2264"/>
        <path d="M101.1 117.05c.06.02.26.07.58-.16.32-.3.33-.3.28-.4-.05-.1-.45-.5-.45-.6v-.3c.1 0 1.1-.5 1.2-.5.1 0 .5-.1.6 0 .1 0 .3.1.4.1v.7s0 .2-.3.4l-2.5 2s-.1.1-.4.1l-.6-.1s-.1-.6 0-.6c.1-.1.1-.2.3-.2.1 0 .6-.1.6-.2 0-.2-.1-.2-.2-.3-.1-.1-.2-.1-.2-.2 0-.2.2-.3.3-.3s.1 0 .3.1c.2 0 .3.1.3 0 .1-.1.1-.3 0-.4-.1-.2-.2-.2-.2-.3 0-.1 0-.1.1-.2s.2-.2.3-.4l.2-.6h.8s.1.1 0 .1-.8.3-.9.5c0 .1 0 .2.1.4.1.1.2.2.2.7" id="path2266"/>
        <path d="M99.5 120.26v-.36l3.95-3.27s.27-.3.28-.43c0-.15.02-.7.04-.73.02-.03.1-.07.17-.07s.55.1.87.46c.4.37.5.7.5.77v.27c0 .03-.7-.03-.9.02l-.3.1-4.2 3.2-.2.04" id="path2268"/>
        <path d="M103.52 118.96s.16-.67-.58-.68c-.73 0-.65.58-.65.58l1.2.1" id="path2270"/>
        <path d="M105.6 119.14v-.17s-.16-.2-.28-.28c-.12-.1-.46-.3-.46-.3s.2-.5.2-.6v-.7s-.03-.2-.4-.2c-.38 0-.5.1-.5.1-.02 0-.06.5-.06.5s-.1.2-.17.3l-.17.2c-.02 0 .18.5.2.5l.12.1 1.52.1" id="path2272"/>
        <path d="M99.4 120.1v.37l-2.95 2.36h-.3s-.04-.2 0-.22c.04 0 3-2.4 3.05-2.5h.2" id="path2274"/>
        <path d="M95.35 123.6s0-.34.12-.48c.13-.13.33-.22.5-.08.18.14.06.3-.06.42-.1.12-.5.14-.5.14" id="path2276"/>
        <path d="M108.96 118.8s.36.1.54.58c.18.47.24 1.02-.25 1.47-.5.46-1.05.26-1.16.23-.1-.03-.5-.18-.5-.28-.1-.1-.1-.22.1-.2.1 0 .7.1 1-.33.3-.43.2-.6.2-.73s0-.53-.1-.63c-.1-.1 0-.1 0-.1" id="path2278"/>
        <path d="M106.4 117.3l.03-.45s.18-.02.45 0c.27 0 .57-.04.68-.12.1-.1.18-.18.12-.25s-.53-.06-.73-.04c-.17.02-.9.34-.96.44-.1.1-.2.1-.3.02-.1-.07-.8-1.17-.9-1.27-.1-.1-.1-.24 0-.27.1-.04.2.06.3-.02.1-.07-.1-.26.2-.34.3-.1.3-.1.4-.03s.4.7.4.74c0 .1 0 .2-.1.2l-.5.3s.1.1.2 0c.1 0 .6-.2.6-.2v-.2s-.5-.8-.6-.8c-.1-.1-.4-.5-.8-.6-.3 0-.4 0-.4.1-.1 0-.2.1-.3.1h-4.1s-.2 0-.2-.1c-.1-.1-.1-.4-.2-.4 0 0-.2-.1-.3-.1-.1 0-.4 0-.5-.1-.1 0-.3-.2-.3-.2v-.9s0-.8.2-1.5c.2-.6.3-1.3.4-1.3.1-.1.2 0 .3 0 0 0 .4.3.5.3 0 .1.1.1 0 .2s-.3.7-.4.9c-.1.3-.2.8-.2.9 0 .1 0 .2.1.2s.3-.2.4-.3c.1-.1.5-.5.6-.5h.1v1.1s-.1.2-.5.3c-.4.2-1.1.3-1.1.3v.2c.1 0 .9.2 1.3 0 .4-.1.4-.1.4-.2.1 0 .1-.5.1-.5 0-.1 0-.1.2-.1s.2.1.4.1.6.1.7 0h.4s-.1.2-.2.3c-.1.1-.2.2-.2.3-.1.1-.1.4-.1.4l.2-.2c.1-.1.3-.1.3-.2.1-.1.1-.1.1-.2s-.2-.2-.2-.3c0-.1-.1-.2 0-.2l.5-.7h.2c.1 0 .5.7.9.9.4.3.5.5 1.3.6.8.1 1.3.1 1.3.1s.1 0 .1.1c-.1 0-.6.3-1.3.3-.7-.1-1-.3-1.1-.3-.1 0-.5.1-.7.2-.2.1-.5.5-.5.6-.1.2 0 .2 0 .2s0 .1.1 0c.1 0 .1-.1.2-.1h.5c0 .1.2.1.5.3.2.2.9 1.1 1.3 1.8.3.7.5.7.5.7s-.1-.6-.2-.8c-.1-.2-.2-.4-.2-.5s.1-.3.4-.4c.2-.2.4-.2.4-.1l.1 1.1c0 .2 0 .5-.1.7l-.2.3v.3c.07.08.5.3.5.88 0 .5-.3.7-.3.7v.1c.1.06.67.44.5.98-.1.6-.33.9-.9.9-.6.05-.9-.45-.9-.7 0-.2.2-.5.56-.5s.3.2.6.15c.2 0 .3-.24.3-.3 0-.1-.2-.44-.4-.5h-.6s-.3 0-.4-.2l-.4-.3v-.1s.6-.1.6-.2 0-.1-.16-.1c-.1-.02-.6-.03-.6-.2zm-3.85-3.92l.58.04s.17.2.38.3c.3.07.5.24.5.24s-.5.1-.9-.15c-.4-.2-.5-.4-.5-.4zm2.27-.94s.02-.07-.04-.1c-.05-.06-.3-.3-.4-.3-.1 0-.23.15-.22.23 0 .07.03.18.03.18h.6" id="path2280"/>
        <path d="M107.43 113.05s.02.14 0 .18l-.8.72c-.15.1-.2.1-.32.04-.1-.1-.4-.4-.6-.5-.1-.1-.5-.2-.8-.1-.3 0-.2-.2-.2-.2.1-.1.3-.3.5-.3h.8c.1 0 .7.1.9.1.2 0 .7-.1.7-.1" id="path2282"/>
        <path d="M107.07 114.45l6.17-4.94s.16-.1.06-.2-.25 0-.25 0l-6.3 5s-.16.2-.03.3c.14.1.35 0 .35 0" id="path2284"/>
        <path d="M112.44 105.95s-1.16-.08-1.87.8c-.7.9-.72 1.1-.72 1.1s-.17.47-.16.6c0 .13.3.58.3 1.28 0 .7-.6 1.5-.9 1.86-.3.3-1 .7-1.7.7s-1.2-.3-1.3-.4c-.1-.1-.1-.1-.1-.2s0-.1.1-.1.8 0 1-.3c.2-.4.3-.7.3-.8 0-.1-.1-.2-.1-.2-.1 0-.7-.3-.8-.7-.2-.4-.3-.8-.4-.9 0-.1-.1-.2-.2-.2s-.4.6-.4.8c-.1.2-.2.6-.1 1.1 0 .4.2.6.2.7-.1.1-.1.1-.2.1-.2 0-.4-.5-.5-.6-.1-.1-.2-.5-.2-.6 0-.1-.1-.1-.1-.1l-.5.5h-.1v-.2s.4-1 .5-1.4l.3-1.2v-.2c.1 0 .8-.2 1.1-.5.3-.3.7-.5.8-.7.1-.1.1-.3-.1-.3l-.7-.2c-.2-.1-.2-.1-.3-.1s-.8.8-1 1c-.2.1-.4.6-.5.9-.1.3-.2 1.2-.3 1.5-.1.2-.2.6-.4.7-.2.2-.7.5-.7.5v.6l-.4.2c-.2 0-.6 0-.7-.1-.2-.1-.3-.1-.3-.2l.1-1.1c0-.1 0-.1-.1-.1s-.8.1-.8.1-.1-.1 0-.2l.6-.7h.1l.1.2s.2-.3.2-.5c0-.1 0-.3.1-.3 0-.1.4-.1.4-.1s0-.2.1-.3.3-.2.4-.1.1.4 0 .5c-.1.1-.3.1-.3.1l.1.5c0 .1.1.5.1.5h.1c.1 0 .3-.2.4-.5 0-.3.3-.9.2-1.5 0-.7-.1-.7-.1-.8 0-.1-.2-.3-.5-.5s-.9-.5-1.6-1.1c-.7-.6-1.3-1.4-1.4-1.7l-.1-.3.2-.05h1.3l.1.1s.3.8 1.4 1.2c1 .4 1.3.4 1.5.4h.3c0-.07.3-.86.6-.88.2-.1.3-.18.6 0 .2.1.4.6.7.8.2.2.4.4.7.4s.2-.1.3-.2c0 0 .1-.3.3-.5l.5-.3h.7v.2s-.5.3-.7.7c-.2.4-.3.8-.3 1.1 0 .3 0 .8-.1 1-.1.2-.3.5-.4.6l-.3.1s-.1.1.1.2.5.1.6.1c.1-.1.3-.2.4-.4 0-.1.1-.6 0-.8-.08-.2-.38-1.2.22-1.8.6-.57 1.2-.8 1.43-.8.23-.1.9-.1 1.1 0l.5.24v.2zm-3.65 4.3s-1 .1-1.1-.42c-.1-.6-.1-.72-.1-.82l.3-.3v-1.3l-.1-.7s-.1-.1-.2 0-.3.2-.3.7c-.1.4-.3 1.5-.3 1.9 0 .5.2 1.1.4 1.2.2.2.4.2.5.2.1 0 .5-.2.5-.2l-.1-.1zm-7.6-5.4v.2s.6.83 1.5 1.3c.9.5 1.3.64 1.3.64s.4.1.5-.1c0-.3-.1-.3-.3-.3-.3-.1-1.1-.4-1.6-.8s-.9-1-.9-1h-.5" id="path2286"/>
        <path d="M84.73 75.22c-.05-.2-.15-.43-.34-.47-.3-.1-.5.1-.5.28 0 .24.1.47.3.57.3.1.5-.2.5-.38" id="path2288"/>
        <path d="M111.8 76.03c-.57-1.94-1.33-3.93-1.95-5.82-.1-.1.05-.4.33-.4.1 0 .24 0 .3-.1l-.1-.1h-2.18l-.1.1c.33.2.85.3 1.04.8.52 1.7 1.28 3.3 1.6 5.1-.13.4-.56-.1-.65.2.5.2 1.1.3 1.7.5" id="path2290"/>
        <path d="M100.57 75.98c-.66-1.98-1.37-3.93-2-5.9-.04-.2.2-.4.34-.44h.3v-.14c-.7-.05-1.6-.1-2.3 0 .2.23.5.18.8.37.8 1.66 1.3 3.56 2 5.36 0 .14-.1.23-.3.23-.1 0-.3-.04-.4.05.5.3 1.2.4 1.8.5" id="path2292"/>
        <path d="M105.02 75.8c-1.32-2.1-2.46-4.4-3.8-6.4-.08.05-.22.05-.27.2.9 1.8 2.13 3.64 3.13 5.48l-.2.15c-.94.04-1.94.04-2.4-.76l-.06.05.7 1.33c.9.13 1.86.04 2.8.1l.1-.15" id="path2294"/>
        <path d="M92.52 73.15c.05-.3-.05-.57-.33-.53-.5 0-.1.53-.5.62-1 0-1.5-1.14-1.7-1.9-.2-.47-.2-1.1.1-1.42.2-.24.6-.2 1-.05.1.1.2.24.3.2-.1-.24-.3-.53-.5-.72-.5-.14-1.1-.28-1.5.05-.4.47-.5.95-.4 1.66.1 1.04.9 2.04 1.9 2.4.4.1 1.1.16 1.3-.3" id="path2296"/>
        <path d="M84.23 73.15c-.33-1.05-.85-2.14-1.18-3.08 0-.1.04-.24.2-.2.36.2.6.48.9.76l.08-.14c-.47-.6-1-1.4-1.85-1.3l-.14.3c.3 1 .95 2 1.23 3.1-.1.1-.28 0-.38-.1-.1-.1-.2-.2-.4-.2h-.1c.2.4.6.8 1.1.9.2 0 .4-.1.4-.4" id="path2298"/>
        <path d="M86.46 73.15c0-.4-.24-.72-.15-1 .7.57 1.3 1.56 2.3 1.28.3-.24.2-.7.1-1l-1-2.22c.4-.5.7.3 1.1.4.1-.3-.2-.5-.4-.7-.3-.3-.8-.6-1.2-.5l-.1.3c.4 1 .9 2 1.4 3.1.1.3-.1.5-.4.5-.9-.5-1.5-1.6-2-2.4-.2-.4-.4-1.1-.8-1.4-.1.1-.3.2-.3.4.4.9 1.1 1.9 1.3 3.1-.1.4-.4 0-.5-.1 0-.1-.1-.2-.2-.2.1.4.4 1 .8 1.2.3.1.6-.1.6-.3" id="path2300"/>
        <path d="M82.24 73.1c0-.2-.1-.38-.28-.38-.33 0-.52.66-.95.28-.6-.7.4-1.42.7-2.08.1-.57-.2-.9-.5-1.38-.4-.28-1-.56-1.4-.23-.2.2-.2.5-.1.6.5.4.7-.6 1.3-.2 1.2 1-1.2 1.7-.4 3 .3.4.6.8 1 .9.4 0 .9.1.9-.3" id="path2302"/>
        <path d="M108.9 75.9c-1.18-.3-2.12-1.24-2.7-2.28.53.14 1.2.18 1.57-.3.38-.5.33-1.22.2-1.84-.25-.85-.82-1.5-1.58-1.98-.4-.2-1-.2-1.4.1-.8.8-.8 1.4-.5 2.45.4 1.9 2.2 3.84 4.3 3.98v-.14zm-2.36-2.57c-.3-.05-.52-.14-.76-.33-.43-.95-1.1-2.32-.28-3.22.23-.14.6-.05.85.14.62.8 1.04 1.85.85 2.9-.14.23-.33.5-.66.5" id="path2304"/>
        <path d="M95.45 73.1c0-.34 0-.76-.33-1.05-.57-.47-1.32-.66-2.08-.7-.3-.48-.24-.86-.05-1.33.2-.34.8-.34 1.1-.1.2.05.3.38.4.24-.2-.66-.9-.9-1.5-.95-.4.1-.9.3-.9.7-.2 1.1.2 2.2.9 3.1.5.7 1.8 1 2.2.2zm-1.04.18c-.7-.23-1-1-1.2-1.56.2-.14.6 0 .8.05.5.2.9.66.9 1.2 0 .18-.2.3-.4.3" id="path2306"/>
      </g>
    </g>
  </g>
</svg>
