<svg xmlns="http://www.w3.org/2000/svg" width="282.2" height="307.1">
  <path fill="#FFF" fill-rule="evenodd" d="M147.1 265.3c.6-2.7 1-5.1 1.7-7.7.3-1.2.9-2.3 1.4-3.5.5-1.2.9-2.3 1.6-3.3.6-1 1-1.9 1.6-2.9 2-3.2 6.1-8 8.9-10.2 5.5-4.3 9.1-6 15.9-8 2-.6 6-1.2 8.4-1.2-.3 3.9-4.8 12.7-7.3 16.4-4.1 6-8.7 10.2-14.7 14.1-4.2 2.6-12.9 6.3-17.5 6.3zM95.5 229c2.5 0 6.1.6 8.3 1.1 2.5.6 5 1.4 7.2 2.4 1.2.6 2 .8 3.1 1.5 3.8 2.3 5.2 3.1 8.5 6.3l.3.3.1.1 1.7 1.8c.9.9 1.5 1.6 2.3 2.6l2 2.8c4.1 6.8 4.7 9.4 6.6 17.4-3 0-8.6-1.7-11.4-2.9-1.2-.5-2-1.1-3.3-1.6L111 254c-.6-.5-.7-.5-1.3-1.1-1.7-1.6-3-3.2-4.5-5-.4-.5-.7-.7-1.1-1.3-3.2-4.4-5.7-8.9-7.4-14.1-.4-.9-.8-2.8-1.2-3.5zm-82.1-12.9c.1 1.3 1 3.9 1.4 5.3 2.7 8.3 8.5 17.7 15.8 23l29.7 15.5c4 2 33.6 17.7 36.2 18.7l14.9 7.7c5.3 3 12 6.6 18 7.8 10.8 2.1 23 1.6 32.9-3.5l8.5-4.4c1.5-.8 2.8-1.3 4.3-2.2l19.1-9.9c.4-.2.7-.3 1.1-.5.4-.2.6-.4 1-.6 1.5-.8 2.9-1.3 4.3-2.2l40.4-20.9c1.6-.7 9.1-4.6 10.5-5.6l6.6-6.3c3.8-4.6 10-16.2 10.4-21.8-6.3 7.2-3.6 4.2-8.9 9.1-1 .9-2.3 1.7-3.5 2.4l-17.8 9.3c-10.8 5.4-22.4 11.7-33.4 17.2l-13.8 7.2c-.7.3-1.2.6-2 1s-1.2.6-1.9 1-1.1.7-1.9 1l-11.9 6.1c-7.5 3.7-4.2 2.5-12.1 5.6-12.4 4.9-33.6 4-45.5-1.9-1.3-.6-2.7-1.3-3.9-2-1.3-.8-2.5-1.4-3.9-2-.7-.3-1.3-.7-1.9-1-.8-.4-1.2-.5-2-.9-1.4-.8-2.5-1.4-4-2.2L80.6 256c-.7-.4-1.3-.5-2-.9l-23.5-12.3c-5.5-2.8-17.1-8.4-21.6-11.2l-3.9-2c-2.3-1.1-5.4-2.8-7.3-4.5-1.1-1-2.2-1.6-3.2-2.7-3.1-3.1-3.1-3.4-5.7-6.3zm255.3 0zm-255.3 0zM11.8 176c0 3.3.4 6 .8 8.9.8 6.3 3.4 12.1 6.2 17.5 2.5 4.8 5.9 9.7 10.4 13 3.3 2.4 14.4 8.2 18.3 9.9.8.3.8.5 1.5.9l17 8.8 3.2 1.6c1.2.6 1.8 1 3 1.6l12.5 6.4c2.1 1.1 4.1 2.1 6.2 3.2-.2-.7-8.3-14.1-8.3-23.9 0-2.1.5-3.7 2.3-5 1.3-1 2.7-1.1 4.5-1.4 11.3-1.5 23.6 2.2 32.6 7.6 2.4 1.4 4.8 3.1 6.8 5 2 1.8 4.1 3.7 5.7 5.8.9 1.1 1.7 2.1 2.5 3.4.8 1.2 1.7 2.4 2.3 3.6.5.9 1.4 2.9 2.1 3.5.7-2.9 5.6-9.8 7.5-11.9 9.6-10.9 23-18 39.6-18 11.6 0 12.3 3.7 9.9 13.4-1 4.1-2.3 8.6-4.4 12.3-.5 1-2.6 4.8-2.8 5.5l56-29c4.1-2 7.7-4.6 10.6-8.3l5.7-8.6c4.4-7.8 6.8-16.8 6.8-26v-44.7c0-4.2-.6-8.8-1.4-12.3-.5-2-1-3.5-1.6-5.4-2.5-8.2-8.3-17.3-15.2-22.5-4.2-3.1-19-9.8-24.6-13.1-4.4-2.5-9.2-4.4-13.5-7l-4.4-2.3c-.9-.4-1.5-.7-2.3-1.2l-15.8-8.2c-1.6-.8-3-1.6-4.6-2.4-1.5-.8-2.9-1.5-4.5-2.2l-9.1-4.7c-1.7-.8-2.9-1.6-4.6-2.4-.9-.4-1.5-.8-2.3-1.2l-6.9-3.3c-10-4-21.9-4.1-32.4-1.7-1.7.4-3.6 1.1-5.2 1.8l-13.5 6.9c-6.9 3.4-13.7 6.8-20.4 10.5l-1.2.7c-.4.2-.7.3-1.1.5-.8.4-1.3.8-2.2 1.3l-20 10.6c-.9.4-1.4.8-2.2 1.3l-6.8 3.4c-2.9 1.8-6.2 2.9-9 4.7-4.2 2.5-9.2 4.5-13.4 7-5 3-8.5 7.5-11.7 12.3l-3.5 6.7c-1.4 3.4-2.6 6.6-3.5 10.2-.9 3.5-1.4 7.8-1.4 12V176h-.2zm256.9-85zM13.4 91c.4-4.3 5.2-14.2 7.7-17.9 3.6-5.4 7.5-9.5 13.4-12.4 4.8-2.4 15.3-8.2 19.1-9.9 1-.4 1.3-.5 2.2-1L115.4 19c2.8-1.4 5.9-3.2 8.8-4.1 6.2-2 9.7-2.6 16.8-2.6 4.3 0 8.4.2 11.8 1.1 3.7.9 8.5 2.6 11.7 4.4l83 42.9c6 3 9.9 7 13.4 12.4 1.7 2.6 3.4 5.4 4.5 8.4l1 2.2 2.3 7.4-8.9-8.9c-.6-.5-.9-.8-1.7-1.3l-5.7-3.2c-.9-.4-1.1-.7-1.9-1.1l-10-5.1c-1.4-.7-2.5-1.4-3.9-2l-43.1-22.3c-1.3-.7-2.5-1.3-3.9-2L173.9 37c-8.3-4.2-11.6-6.5-21.5-8.1-12.7-2.1-28.9-.6-40 5.9-.8.4-1 .7-1.9 1-1 .4-1 .5-1.9 1l-6 3.1c-7.1 3.4-14.4 7.4-21.5 11-4.3 2.2-14.2 7.6-17.7 9.2-.9.4-1.2.6-1.9 1L30 77.4c-1.5.8-2.6 1.3-4.1 2.1-4.4 2.7-7.7 5.8-11 9.7-.3.5-1.1 1.5-1.5 1.8zM0 100.7v105.4c0 4.9.8 9 1.8 13 .6 2.2 1 3.9 1.7 5.8 1.2 3.6 2.8 7.3 4.6 10.5 6.2 10.8 11.6 17 22.5 22.4 1 .5 1.5.8 2.4 1.3.9.5 1.7.8 2.5 1.2 6.6 3.5 13.2 6.9 19.9 10.3 3.2 1.6 6.4 3.6 9.8 5l34.7 18c4.7 2.3 13 7 17.5 8.8l8.5 2.8c11.2 2.9 25.3 1.9 36-1.7 2.7-.9 5.2-2.3 7.7-3.6l7.5-3.8c2.4-1.4 5.1-2.4 7.5-3.8l12.2-6.4c10-5 19.8-10.4 29.8-15.4 3.4-1.7 6.4-3.3 9.8-5l19.8-10.3c6.1-3.4 11.1-9.2 14.9-14.9 6.4-9.7 11.1-22.4 11.1-34.1V100.7c0-11.7-5.3-26.9-12.7-36.3l-1.6-2.2c-1.2-1.5-2.2-2.6-3.5-4-2.7-2.7-5-4.6-8.4-6.6l-32.4-16.8c-4.2-2.2-8.3-4-12.5-6.4-7.7-4.3-15.7-8.1-23.5-12.2l-18.7-9.6c-.9-.4-1.4-.9-2.4-1.3-3.7-1.7-7.3-2.8-11.4-3.7-13.4-2.9-29.2-1.9-41.4 4.8-5.6 3.1-11.8 5.8-17.4 9L41.4 43.6c-.9.5-1.5.8-2.5 1.3l-5 2.5c-8.1 4-14 7.4-19.6 14.6l-1.6 2.2c-2.8 3.7-5 7.7-7 11.9-1.6 3.5-2.7 7.3-3.8 11.2C.9 91.1 0 96 0 100.7z" clip-rule="evenodd"/>
  <path fill="#FFF" fill-rule="evenodd" d="M95.5 121.1l-.1 40.2c0 .4.1.7.3 1 .9 1.6 5.5 1 8.7 1 2.3 0 2.2-1.8 2.2-4v-19.1c1.1.4 2.4 4.8 2.8 5.8l6.4 15.7c.5 1.2 1.3 1.7 2.9 1.7h8.3c1.9 0 2.7-.8 2.7-2.7v-39.8c0-3.6-3-2.7-8.6-2.7-1.7 0-1.8.5-2.7 1.1v22.1c-1.1-.3-.6-.3-1.6-2.7-.5-1.1-.9-2.2-1.3-3.2l-2.6-6.3-3.9-9.5c-1.2-2.1-7.1-1.3-11-1.3-3.3-.3-2.5 2.1-2.5 2.7zm31.5 65.1c-7.1 0-6.5.8-6.5-6.2 0-2.9 3-2.2 6.5-2.2 3.1 0 3.2 2.4 3.2 4.8 0 2.3-1 3.6-3.2 3.6zm-17.8-17.5v40.6c0 1.3.9 2.2 2.2 2.2h7.5c1.8 0 1.6-2.7 1.6-3.5-.1-11.3-.7-10.5 4.8-10.5l5.6 11c1.9 3.7.6 3 10.2 3 4.7 0 .6-6-.4-7.7-.4-.8-.7-1.3-1.1-2.2-.9-1.8-3-4.8-3.4-6.5 1.6-2.4 5.1-3.6 5.1-13.2 0-11.1-5.7-15.3-16.4-15.3h-13.2c-1.4 0-2.5.5-2.5 2.1zm18.3-95.5V113c0 3.6 3.2 2.7 8.6 2.7 1.7 0 1.8-.5 2.7-1.1v-7c0-7-1.2-5.9 8.1-5.9.7 0 .7.1 1.3.3 1.5 6.5-2 13.7 3 13.7 4.3 0 8.6.8 8.6-2.2V72.7c0-.9-.5-1.9-1.3-1.9-11.6 0-10-1.5-10 8.9 0 3.4.4 7.6-.3 10.5-2.4.6-5.5.3-8.1.3-2.2 0-1.3-6.4-1.3-8.6V71.7c-.6-.4-.9-.8-1.9-.8-7.1-.1-9.4-1-9.4 2.3zm5.9 47.6v39.8c0 1.9.8 2.7 2.7 2.7h26.1c1 0 2.2-.7 2.2-1.6 0-10.2.9-9.7-4-9.7h-11.8c-2.5 0-3.5-.3-3.5-2.7 0-1.1.2-2 .5-2.7 6.5-1.5 13.4 2.1 13.4-3 0-9.1.7-8.6-5.4-8.6-2.6 0-5.9.2-8.1-.3-.5-1.1-.5-1.4-.5-2.7 0-2.3.9-2.7 3.2-2.7H160c5.2 0 4.3.7 4.3-9.7 0-1.1-1.5-1.6-2.7-1.6H136c-1.8.1-2.6.9-2.6 2.8zm13.7 46.3c-.7 2.9-.3 36.6-.3 42.5 0 1.3.6 1.9 1.9 1.9 4.6 0 25.7.4 28.5-.3.9-1.8.9-8.7 0-10.5-4.5-1.1-15.1.8-18.6-.8-.4-1.8-.3-1.6-.3-3.8 0-.6.4-.8.8-1.3h7.5c6.3 0 5.4.7 5.4-9.4 0-4-9.4-.5-13.4-2.4-.5-2.1-.6-3.5.5-5.1H175c3.5-.1 2.7-2.9 2.7-8.6 0-1.6-.5-2.7-2.2-2.7h-26.4c-.8 0-1.3.2-2 .5zm16.4-94.4v40.9c0 1.6 1.1 2.2 2.7 2.2h25.6c3.7 0 2.7-2.4 2.7-9.4 0-2.7-4-1.9-8.6-1.9-3.3 0-7.4.4-10.2-.3-.7-1.4-.5-1.9-.5-3.5 0-2.6 3.1-1.9 6.7-1.9 8.4 0 7 1.4 7-9.4 0-2.6-3.1-1.9-6.7-1.9-6.8 0-7 .6-7-3.2 0-1 .2-1.5.5-2.2 2.4-.6 11.7-.3 15.3-.3 4.4 0 3.5-.2 3.5-9.7 0-.6-.7-1.3-1.3-1.3h-27.7c-1.3 0-2 .6-2 1.9zm18.6 96v40.9c0 1.3.6 1.9 1.9 1.9h27.2c1.3 0 1.9-.6 1.9-1.9v-7.3c0-1-.4-1.3-.8-1.9h-10c-8.7 0-8.6.9-8.6-4.3 0-.6.4-.8.8-1.3h10.8c1-.1 2.1-.7 2.1-1.6 0-11 1-9.7-5.9-9.7-2.6 0-5.8.3-7.5-.5-.5-2.1-.6-3.5.5-5.1h15.3c4.1 0 3.2-1.5 3.2-9.2 0-1.3-.9-2.2-2.2-2.2h-26.6c-1.2.1-2.1.9-2.1 2.2zm-15.3-38.4c0 15.9 20.4 13.8 20.4 19.6 0 3.5-8.1 4.5-10 .3-1.5-3.4.5-4.3-4.6-3.3l-5.3 1.1c-.7.2-1.9.8-1.9 1.6 0 8.1 6.3 14.5 15.3 14.5 7.1 0 12.9-.9 17-7.5 4.3-6.8.8-14.7-6.5-18.3-1.1-.5-2.1-1.1-3.2-1.6-1.2-.6-2.3-.9-3.7-1.5-1.9-.8-5.8-2.2-5.8-4.2 0-2.8 4.2-3.1 6.4-2.1.7.3 1.3.9 1.7 1.5 2.7 3.6-1.6 5 7.9 2.8 1.3-.3 2.9-.3 3.7-1.1 1.7-1.6-.1-5.5-.8-6.9-2.4-5-7.8-8-13.8-8-3.3 0-5.5-.1-8.6 1.1-1.6.6-2.9 1.5-4.1 2.6-2 1.8-4.1 5.7-4.1 9.4zM44.9 119.8v42c0 2.4 6.3 1.6 9.4 1.6 3 0 2.2-3.9 2.2-7.8 0-3.8-.5-7.2.8-9.1h7.5c6.9 0 5.9 1.3 5.9-9.4 0-.7-.1-.7-.3-1.3-2.3-1.1-9.7-.5-13.2-.5-1-1.5-.8-1.2-.8-3.8 0-2.2 1.9-1.9 4-1.9h11.8c4.9 0 4 .5 4-9.7 0-1.1-1.5-1.6-2.7-1.6H47.6c-1.2-.2-2.7.4-2.7 1.5zm155.5 1.3c0 9.5-1.4 8.4 9.7 8.3 4.1 0 3.2.6 3.2 10v19.4c0 5.4-.1 4.6 8.6 4.6 3.5 0 2.7-2.8 2.7-6.2v-26.9c.9-.6 1-.8 2.7-.8 11.7 0 10 2.2 10-9.7 0-1.1-1.5-1.6-2.7-1.6h-31.2c-2.2-.1-3 .8-3 2.9zM87.7 71.6v8.1c0 2.6 6.8 1.5 10.8 1.6 2.6.1 1.9 1.6 1.9 4.3v18.6c0 12.5-1.9 10.8 10 10.8 1.8 0 1.3-3 1.3-4.8V84.9c0-2.9-.1-3.5 3-3.5h6.2c4.6 0 3.8-.8 3.8-8.6 0-1.6-.5-2.7-2.2-2.7H89.3c-.6-.1-1.6.9-1.6 1.5zm-18.6 97.1c0 10.9-2 9.1 12.1 9.1 1.3 2 .8 4.2.8 8.1v22.9c0 3.6 1.5 2.7 9.7 2.7.6 0 .8-.4 1.3-.8v-29.9c0-3.7.6-3 8.9-2.9 5 0 4-.3 4-9.7 0-.9-1.2-1.6-2.2-1.6H71.3c-1.3 0-2.2.8-2.2 2.1zm10.5-47.9v39.8c0 3.6 3.1 2.7 8.9 2.7 1.2 0 2.2-.6 2.2-1.9 0-5.9.4-39.8-.3-42.8-1.7-.8-5.8-.5-8.1-.5-1.9 0-2.7.8-2.7 2.7z" clip-rule="evenodd"/>
</svg>
