<svg xmlns="http://www.w3.org/2000/svg" width="2406" height="613.8" text-rendering="geometricPrecision" image-rendering="optimizeQuality" shape-rendering="geometricPrecision" viewBox="58 1097 2406 613.8">
  <path fill="#EC2126" d="M567 1677c.6 4.6 1.2 9.2 0 0zm-288-8c-3 0 1.3 0 0 0-2 0 1 0 0 0zm4-6v1-1zm20-4zm-17 1c1-3 2-5 6-5 0 5-1 5-6 5zm22-4h-1 1zm-12-4c-3.7 0 1.3 0 0 0-3 0 1 0 0 0zm262 11c0-10.4 0-18.6 6-25 0 5.5 0 22-6 25 0-4 6-3 0 0zm-259-14c4.2-2 8.6-2 0 0 0 0 4-1 0 0zm10-7c-2.2 1.8-4.7 1.6 0 0 0 0-3 1 0 0zm2-4c5.8 1.4 1.2 1.8 0 0 0 0 2 3 0 0zm4-1c1-5 1-2 6-4 0 4-1 4-6 4zm58-6c0-2 2 0 1 0 0 0-1 3-1 0zm-14 0c6.5-19.6-41.8 24.6-49 21 7.5-11.3 22.3-9.5 14-22 7.2 0 59.7-27.5 63-11-16.2 0-16.3 9-28 12 2-6 4-1 0 0zm258-3c0 30-10 40-38 54 0-22.4 33-36.7 33-59 3-3 29.3-54 39-15-8.6 0-34 8.3-34 20zm-78-70c.8-4 55.3-18.3 58-13 24.4 29.3-53.6 12.8-58 13zm-434-15c-.6-4.3 1.4-6.7 6-7 0 3.4-6 15.7-6 7zm470-60c9.3-2 37.8 34 30.3 46.4 7.2-11.7-45.8-14-51.3-21.4 3.4-8 15.7-14.3 21-25 5-1-2 4 0 0zm-77 37c0-5.4 8.6-39.4 21-32 5.5 3.2 8.8 9.6 17 14-.2.7-37.4 18-38 18 0-4 8 1 0 0zm-204-19c2-4.2 14.5-6.7 12.8-2-5 13.8-31.4 55-47.8 41 0-9 16.6-10 13-19-3.7 0-24.5 5-24.5-1 0-8 38.8-19 46.5-19 2-4-3 0 0 0zm-115-1c3.3-1.4 7.6 0 0 0 0 0 3 0 0 0zm-72-9c-14 6-13-7-4-5 3 1 4 2 4 5zm47-74c0-35.8 38.2 0 0 0 0-5 6 0 0 0zm323 48c-3-2-5-4.6-6-8 24.2-29 74 7.2 74-54 13.8 0 14 24 23.5 32 6.2 5.3 45 19 51.5 2.5 4.5-11.3 15 13.6 14.3 11.3 1.5 4.6-10 20.8-11.8 26-14 42-44.5-14-51.5-14-1.2 4-.5 7.7 2 11-9 4.5-50 8.4-60 8-26.8 13.6-17.2-14.8-36-14.8-6-5 1 0 0 0zm115-46c-1-1.5-8.4-18.4-9-18 5-5 30 0 30 10 0 5.3-12.2 0-15 0 5.7 8.6 11 5.5 21 8v6c-10.3 7.4-20.7 2.2-27-6zm-408-22c-3.2 0-19.7-10-11-14 12.8-5.8 18 0 31 0 0 7.3-14 14-20 14zm64-5c9.6-9.6 44.7 7.4 48-9-5-2.5-13.4 0-9-9 4.8 0 38.7 7.2 39.6 12.8 3 17.7-99.2 25.8-78.6 5.2zm-93-17c1-1 3 1 1 0 0 0-3 1-1 0zm3-4s4-1 2 1c-2 1-3 0-2-1zm-11 0c0-2 3 0 0 0-1 0 0 2 0 0zm3-3c1-2 1-3 2-2 2 2 0 2-2 2zm7-6c-1 2-1 4-2 2-2-2 0-1 2-2zm2-1c4-3.5 6.7-2.2 0 0 0 0 3-1 0 0zm40 4c-9 0-19 1.2-28 5 2.8-19.4 31-33 43-15-2.8 1.7-12 10-15 10zm14-32c4.7-1 42 4 34 17.6-5 8-34-8-34-17.6zm-1-7zm40 6c-4 0 3-23 16-10-5.7 2.7-11 6-16 10zm-20-13c0 .5-21 3.3-2-5.5 3-1.5 12.8-7.6 17-5.5-2 10.6-6.8 9.4-15 11zm32-15c-28 0 19.2-39 25-10-9.8 0-15.6 7.5-25 10zm52-28c14.7-29.4 11.7-37.2 29.6-8.5 11.8 18.8-20 13.2-29.6 8.5 1-2 8 4 0 0zm-20 2c-13 0 3-13 5-15 1 2.6-4.4 12-5 15-9 0 1-5 0 0zm121-13c.8-13-1.7-11.8-7-21 14-14-3.4-17.7 19-14 9.4 0 37.3 5.8 40.3 19 8 36.2-19.7 14.2-45 27-21.5 10.7-27 32-55.3 15-3.6-14.5 15 1.4 15-7 0-4.8-7-5.4-7-12 14.4 0 26.3.6 40-7 1-17-18 10 0 0zm-98-26c0-11.3 17.6-37.7 27-19-11 2.7-16.4 17-27 19 0-5 5-1 0 0zm70-22c5.2-1.4 8.5 0 10 4-.6-.6-11-4.4-10-4zm0 0c-8.7 0-6-3.3 0 0-6 0 0 0 0 0zm-14-10c-9.8 5-16.3 3.6-27 0 1-8 15-11.4 21-13.8-2.2 1 6.3 14.4 6 13.8-4 2-5-10 0 0zm42-14c4.7 1.6 2.2 1.8 0 0 3 1 0 0 0 0zm-26 12c-31 0 4.5-54 25-13-12-.7-19.5 2-25 13-1 0 1-2 0 0zm153-11c6.2-3-17.4-30.7-10.4-38.8 7-8 27 35 28.4 37.8h7c1.5-12-9.6-16.4-7-28 7.2 0 26 40.7 26 49-10.3.6-15.7-4.4-16-15-8.5.7-17.2 4-28 5 1.7 4.2 3 8.6 4 13-16.5 3.7-7.6-18.4-4-23 2-1-4 5 0 0zm-116-4c-8.2-7.4-7-14.5-18-20 1-2 31.5-20.7 38-25 0 16.6-19 28.2-20 45zm64-54c10 3.4 22 13.2 22 24-6.2-4.7-22-15.4-22-24 3 1 0 9 0 0zm-4-4c0-2.2 2 3.7 0 0 0-2 1 2 0 0zm-60 22c-4.3-4.3 3-20.3 3-26 15-5 26.2 0 43 0 0 20.4-46-5.6-46 26-2-2 0-5 0 0zm68-32c0-13 72-9.4 38 16-6-10.6-38-8-38-16zm197 321c-9.7 18.7 16.5 119.6-40 114 0-14-12.2-43.7-2.3-58.6 3.4-5 8.7-25.2 16.3-24.4-1.3 6.4-13.2 57-9 55 2.5 0 24.8-62 4-62 0-6.4-20.6-13.3-3.6-15 21-1.8-29-40.7-30.4-45 10.4 0 15 9.7 24 11 0-9.3-1.6-34-13-36-1.6 6.4-1.3 12.8 1 19-12.3 0-13.7-13.6-9.8-24.2 6-16.5-19.8-30.3-11.2-51.8 10.6 1 8.4 26.5 20 31 5.6-9.8-12.6-52.8-28-40.5-11 9 8.5 45.3 14 52.5-7.2 3.2-5.5-2.7-13-2-4.7 9.5 8.8 3.5 8.8 12.4 0-1-33 6-35.8 5.6 0-44.2-34 5.7-36.7 0-2.8-5.8 7-13.2 7.7-19-8 .7-6.8-3-14-3 1.5 20.6-19-1.2-42-8 1 13.6-.3 5.4-4 14 6.2 6.2 10-2 14-6 4 8 5.2 3 15 3-.5 8.7-1.8 5.7-6 11 1.6.8 10 1.7 8.4 5.6-5.4 14-29 18-40.4 11.4-2-11 3-14.7 8-22-6.7-6.7-8-7.3-13-14-2 1.6-14.2 11.6-15 10-.4-3.8-1.4-7.5-3-11-22.8 0 7 26.4 7 34 7.6-2.5 21.7 8.7 14 15.4-6.7 6-10-12.3-10 4.6-7.6 0-10.6-3.4-9-10 2.7-2.2 5.3-1.8 8 1-.2-2.7-11.8-19.8-14-22-8.6 13-37-15.8-51 5 3 2 51 4 43.3 11.8-3 3-22-1.8-26.8-1.3-13.4 1.5-31.2 13.6-30.5 13.5 5-1 61.6 1 59 7 3.4-8.4-84.2 13.5-67.3 20.2 16.5 6.6 36-12 55.3-2.2-13.4 6.6-48.6 11.3-66 10 3 25 59.6 4 58 12-1 6.2-93 9-51 34 3.2-8.2 34-28 46-19-4.3 15.2-43 8.2-46 28-4.6 28.5 34.8-12 46-12-1.7 17.2-70 56-34 56-1-4.2.3-7.2 4-9 10.6 3.5 4.6 17 15 20 3.8 1.6 14.6-12.7 20-10 2.3 8-13 25-20 25-3.5-6.3-23-19.3-29-21-12 24-77.5-10.5-16-31 .5-2.7-34-3-42-11-19-38.3-41-3.6-73-10-7.2-21.7 32.5-34 52-30 13 0 54.2-15 70-23-11.6-23.2-79-16-79-24.6 0-5.7 40.4.2 46-.4 0-8.8-9-14.4-9-24 0-13.3 31.8-7.4 16-25-6-7.7-51.8-10.4-65-17 0-12 82 3.5 82-27-10-.8-47.2 7-55-11 7.2-12 25.7-7.2 36-14 22.3-7.4 34.7 4 30 23 31.3 26 66.5-85 91.6-35 1 1.5 2 2.8 3.4 4 4-7.7 41.2-38.7 41-35 .3-4.5-33.5-53.5-38-55-5.7 8.5-13.4 10.6-25.5-1.5-4-4-15.2 0-12.3-8.8.6-1.8 12.8-28.2 17.8-25.8 9.5 7 1.8 34 18 36-1-5-1.7-9-2-13 11.4 0 22.7 0 34-1-5.4-11-28.7-6-38-6-9.6-15 19-14 27-14 14.2 0 52.2 20 29 26 0 46 31.8 20 49 26 10.6 6 18.2-6 23 10 2.6 7 6 18 16 18 1.6 3 14.5 31 3 28 18.8 4 11.8 0 26 17 8 9 46.3 52 12 52 0 21 40 38 45 55 1.6 10-22 41-5 41-2-12 13-18 13-31-1.3-16-28.3-31-28.3-42 0-12-8.4-6-4.6-19 3-9 2-19 0-27-2-10-12-15-17-23-17-27-35-46-52-70-16-23-25-93-54-74-2-13 16-27 2-38-11-9-22-9-34-16-14-10-29 11-37 16-11 6-28-13-41-6-33 33-66 74-113 93-24 10-19 54-48 68-15 11-35 19-52 31-13 13-117 72-109 81 2 1 20-10 27-10-3 3-18 24-14 26 1-4 0-8-2-11-4 0-11 2-13 7-10-11-28-3-18 5 9 6 26 0 26 3-5 1-41 28-40 32 1 1 25-9 28-11 1 4-10 9 0 13 13-13 14-27 33-30 0 31 22 1 29 15 1 2-86 40-68 40-8 12-42 3-47 27 5 3 34-14 34-15 1 14-15 24-19 34-1 0 9-4 13-6 6 8-8 7-1 15 4-4 22-31 29-23 17 18 34-6 64 4-13 20-43 12-57 22-6 4-18 0-25 6-2 11-28 47-22 47 11-19 45-28 53-11-19 0-45 7-55 23 15 10 27-11 43-11 22-1 35-11 57-11-4 2-7 6-9 12 17 0 29-8 47 1-4 9-77 56-76 56 19 6-73 44-74 46 15 15 68-25 87-21-3 5-82 31-70 47-1-2 73-36 86-32 15 0 40 4 52 8 19 4.5 44-16 62-16-14 23.6 17 7 32 12 19 9.2 78-3.7 55-34-5 0-9 3-15 3 0-7.8 3-17.6 11-20 0 10.2 7 7 12 2 0 16 13-4 20-5 11-7 27-3.4 38 0 6 8-15 45-7 62 11 0 15-20 24-20 21 61 9-16 20-16 3 10.3 34 52 40 23 12 7 19-3.6 27 2-5 4.2-5 8 0 11 10 0 14-10.4 19-16 0 17 23 17 25 9.3-2 3-3 6-2 10 15 7 52-14.7 54-32 4 1 19 42 28 18 2-4.5 1-36 0-41-9-33 59 15 54 14.6 12 2 8-28-12-28-7 3-30-9-37-12 17-4 32 12 49 7 0-18.5-39-5-43-31-1-8 8-40.4 12-47 8-19 26-31 23-56 0-6-7-43.3-9-44zm1751 97c-9.4 35.4-1.3 61.6-26.6 94.3-28 36.2-72 44.4-115.3 41.4-57-4-133-85.6-102-148.8 27-56 58-89 127-89 39-6 136 54 117 102-4 15 4-10 0 0zm-536-58c0-15.3 22-11 22 2 5.8 8-2.4 23.5-3.4 32-4 36 11.5 79.7-.6 116-12.4 37-23.2-21-23-30 0-13.7 8-34.7 2.5-48-9-22.3 2.5-51.8 2.5-72zm-64 5c0-9.2-42.7-55 4.5-46.3 7.6 1.4 63.8-7 60.2 13.2-2 10-18.5 20-19.8 27-4 17 0 51 2 69 4 31-1 64 3 95 14 23 14 25-27 25-57 0-25-10-22-39 4-49-2-98-2-146zm-86 93c1 3 5.3 11 9 11 0-24.2-2.3-59.4 1.5-83.3 3.3-21-31.7-60-25-63 11.5-5.4 51.5-3 62.7 3.6 20.8 12-5.4 17.7-8.2 30.7-3.5 16.6-7.6 29.7-3.8 47 7.3 32.6.5 79.6 1.4 114.7.5 20.6-2 38-28 28-13-5-7.4-15.4-15.7-23.7-38-37.5-81-81.6-105-131-2-.2-5 99.6-7 113 0 19.2 41 25 41 39.5 0 13.8-89 16.2-87-11.5 38-19.2 25-92 24-126.3-1-11.6 2-44.4-4-54-7-9.4-18-9.6-19-23-1-8.5 49 .3 53 .2 35-1 8 10 24 28 11 17 68 100 86 100 2 6-3 0 0 0zm243-132c3.5 42.3 31 105 58 143 2 .2 67-130.6 67-148 8.2 0 74.3-2.5 56 25-15.4 23-10.5 29.7-15 57-4.2 34-2.6 69-1.6 103 .7 24 28.4 31.8-8.4 38-41 3.7-59 9.8-39-30 6.6-19.8 13.4-103.2 5-120-9.7 2.8-35 65.4-35 77-11.6 26.4-22.4 52.6-37 77-11.8 2.4-36-60.7-36-69-15.7-26.2-35-51.8-44-82-10 15 .8 56 2 72.8.6 10.8 2.3 23.4 0 34.2-1.3 11.5 15 16.4 14 25-2.7 20.8-10.5 20.3-40.3 18.6-49.2-2.7-3-19-5-50-3-45.6-1.7-96.5-1.7-139.6-1.7-10-29.5-24.8-18.4-36 9.8-9.7 66.7.2 79.4 4zm254-14c-26 0-70 68.5-70 92-32-8 62.3-97.4-34-98 22.8-8 28.8-25.3 34-46 0-13 2.8-31.3 7-44 1.3-17.7 31.2-22.2 26.4-5.8-13 44.3 29.4 65.8 36.6 101.8-12 0-1-5 0 0zm-104-304c13.7 0 60-11 66 2.7 4 9 13.6 24 3.2 32.2-7 5 8 23 8 35 5 40 54 34 74.2 9 14.2-18-3.8-35 10.8-51 3-11 6-20 6-31 10 0 66 0 69 2 14.8 29 32 60 32 95 6 32 16 66 16 100 2 15 14.7 65 6 78 0 19-36 2-46.4 0-42.5-10-6.8-195-82.6-117-9 9-26.8 41-13.4 50 9.5 6-.6 20-1.8 29-2.3 18-14.7 30-17 52-57 14-23.7-114-63-114-46.5-10-56 58-56 92-23.2 18-38.7 18-73 15-2.2-30 9.3-64 27-77 0-16-9.3-43-1-59 5.7-12 22.3-63 20-72-5.5-17-12.7-6-7.3-26 2.3-9 16.2-48 23.3-48zm-365 199c0 23.7 11 75.2-13 80-25 0-47 9.6-57-20-6.6-33 8.3-49.7 14-78 3.4-18.2-3-39-3-59-9-35.8-9.8-53.7-31.3-86-6.6-9.8-14.6-23.4-10.3-36 15-44.5 63.6 26 54.5 26 39-61.8 53-17.3 53 31 0 47.6-7 94.7-7 142zm113 37c0-20.2 11.8-37 11.6-57.5-.2-22.7-7-47.5-11.6-69.6-7.5-36-4-69-4-104 4.2-17 158.4-17 176-8-1.7 8-24 18-13 28-.5 1 15 10 16 12-15.6 13-64.3-2-85.7 7-27 11-30.5 46-11.4 67 17 18 51 12 73 16 21 2 16 6 11 22-8 23-21 17-45 19-25 2-39 7-54 27-16 25 9 40 9 65 0 29-21 7-34 10-19-13-32 15-36 11-6-6-4-39-4-47zm422-261c-27 0-18.6 14.4-24 36-2 9.4-21.3 27.7-14 35-3.5 12.2 10.5 13.5-5 29-33.7 20.2-25.3-6.6-28-28-1.5-10.6-11.7-68-27-68-17.3 0-35-1-52 1-12.4 1.5-29.6-1.8-41 2-9.3 3-.5 13.6-6 19-9.8 15-8.3 34-17.4 50-4.7 8-9.5 103.3-13.4 99 5.5 6-14.5 82.8-16.6 91.5-3.8 15.2-7.6 31.6-9.4 47-2.8 25.6 36 7 49 14.5-23.3 34.8-54 84.5-54 129-17-12.6-41-71.3-44-95-10.2-50.5-56.7-33-100-33 6.5-23.2 33.8-6 51-6 28 0 26.6-53.2 16.4-69-39.5-61.4 99.5-29.3 99.5-53 0-14.6-4-17.2 0-34 4-27-4-27-27-33-1-.4-120-18.2-65-46 20-5.7 97 7.7 104-17 3-9-2-19-9-25-12-8.6 5-15.8 6-28.8 4-23.6-30-16.7-47-17.8-33-2-65-.4-98 1-37 1.8-64-6.8-73 31.6-14 66.2 19 133 10 199 0 26-4 52.6-3 79.8 1 27.7-32 7.5-52 16.7-12 5.5-73 4.4-85 .5 24-31.4 66 26 61-31.4-4-54.4-1-114.8 7-168.6 4-30.2 13-112.4-23-127.8-14-6.4-37 13.4-46 6.8-10-8.7-47-14-60-6-28 9.4-17 51-4 68 21 28.3 16 54 31 84.5 10 21.5-19 19.5-4 40 10 13-7 29-9 46-3 38 0 74.3 41 84.5-10 20.7-25 21-1 45 4 7.8 17 6 17 16 1 12 6 52.4 0 64-14-14.5-25-33.8-40-49-13-16.2-25-60-40-63.4-37-8.8-87-14.2-87 28.4 0 8 16 16 16 26 4 19.8 0 44.4 0 64.5v62.6c0 12-15 15-18 24-17 47 40 42 72 40 37 0 72-9 25-42-28-19-22-48-22-81 15 2 43 44 53 57 17 21 37 67 68 67 53 0 35-86 29-119 0-24 2-49 2-74 0-3 9-33 19-18 6 10 0 11 0 25 0 31 21 105 0 131-6 23-28 59 19 57 36-2 122 11 150-10 12-8 17-18 5-30-11-21-16-31-16-58 26 9 35 72 49 93 23 34 59-65 68-84 0 25-13 39-15 63-3 36 75 27 96 15 17-6-7-111-4-139 10 7 9 65 19 82 8 15 23 38 38 48 60 40 137 32 189-17 98-93-2-227-114-227 2-13-13-5-10-21 3-13 15-23 18-37 0-25-8-52 14-71 25-23 14 59 17 69.6 5 31 12 54 41 59 28 9 72 29 72.4-13 .3-49.4-16.4-97.5-16.4-146 0-43.5-20-136.6-61-164-13 31-42 8-65.8 8z"/>
  <path fill="#EC1E23" d="M1246 1637c1 1 1-2 1 2-1-1-1 1-1-2zm0 0c-6-1-7.7-5-5-12 1 1.6 3.4 8 5 12-6-1-2-5 0 0zm-272-1c0-10 8-10 8-21 6.2 14.4-1.6 12.8-8 21zm330-72c6.4-1.6 10.5-12.8 17-16 0 28.2-.3 48.3 17 70-2.3-3-18.4 3.3-24-21 0-11.5-10-22-10-33 4-1 0 6 0 0zm278-25c-7 24.7-3.8 52.2-12.5 78.3-5 15-40.7 48.8-55.5 48.8-64 39-144.3-7-172-68-17-67 4.4-130 76-154 45.8 0 85-17 121.2 23 15.5 17 48.6 47 42.8 73-4 14 2-9 0 0zm-511-23c-27-46 74-3 85-14 11 1.8 7.5 132-4 138 10.7-37.6-15.7-48-40.3-42-14.2 3.6-17 25.6-33 30.3-24 7-14.2-21-14.8-39.3 25 0 29 33.2 51 1 12-13 3-68 2-85-16-3-41-11.6-46 11zm-106-43c0-36.6 25.7.8 28 16 1.7 7.8-15.4 94.7-10 93 2.6-1-35-12-35-12-19.7-.5-37.2.4-57.2-.3-33.2-1-31.6 52.3 0 56.3-8.6 17.5-65-2-65-25-4-33.7-9.7-77.6 13-106 24.6-30.6 70.4 19.5 91 31 15.4 15.3 31.6 13.3 42-3 15.2-22.5-6.8-31-6.8-50zm-211 84c0-73.6 56-119 127-119 26.7 0 49 9.7 73 21 15.2 7 19 81.3-20 50-22-14.6-13.7-28.2-44-34.3-31-6.3-62.2-3.4-73.6 31-12 36.3-17.7 103.6 17.6 129.3 13.8 10 39.5 11.6 56.3 9.3 20.3-2.8 15.7-16 15.7-32.3-6.2-.6-29.7-.8-24.6-15.3 7.6-21.8 50.6-9.5 69.8-11.6 32.5-3 8.4 78 4 79-9 10-61.5 14-77 14-26 1-46.3-1-68-16-36.8-12-56.2-71-56.2-105zm519 103c-19-19-13.6-90-41-90-19.5 0-7 73 7.5 82 41 25.3-58.4 19.7-68.3 20.3-39.8 2.3 3.5-27.7 3.7-40.3 0-26 1-55.7-1-82 0-7.7-13-103.3-10-105 18-14 86-1 105 6 46 17 68 67.5 25 102-20 14.2 12 74.2 29 81 4 26.2-34 53.7-50 26-3-3 3 5 0 0zm-134-164c-24 0-48.7-33-81.6-33-4.4 0-9.4 66-4 72.5 17.4 19.8 62.2-56.7 47.6 11-1.6 7.3 8 60.7-18 37-10-9-20.6-20.4-35-20.4 0 27-13.2 92 31 82 17.7-4 21.2-2 29.5-19 6-12 28.5-28 28.5-4 11 44-13.5 52-53 48-19.3 0-97.8 15-108-6-3.7-11 6.4-14 16-19 16.7-8 5-61 8-77 2.7-16-3-28 0-47 10-37-13.2-34-16-60-2.3-21 3.7-21 27.4-18 26 4 50.8-4 77 1 25.5 5 84.3 6 50.6 54zm-134-329c0-30 55.7-63.2 84-42 3.7 4.6 14.5 32 25 25 14.8-7.4 5.4-20.8 23-12 21.2 14.2 82.8 112.6 57.5 127.8-16 9.5 5.7 46-11.5 63.3-8.2 27-21 55-45 72-45.7 34-104.6 6-148-17 0-25-2.6-14-14-32-15.3-5-31.8-84-21-95 12-24 8.7-94 50-90zm285 165c0-41.2 20-108 51-139 10.6-10.6 11-38.6 24-46 16-8 13-27 32-27 16 0 35.3-1 51 3-3.4 13.5-22.7 21.6-34 23-7 4-5.2 29.6-9 43-4.2 25 8.8 52.4 35.6 57 32 5.5 7 3.6 22.4 19 12.6 6.3 22.7-10.8 28.5 3 11.6 27.8 17 63.5 7.5 92-15 30-65 58-99 58-27.6 0-63-12-83-32-9.5-9.5-27-39-27-54zm70-220c0 28.7-51.5 98-69 133-44.3 97-1.7 171 99 191-27 12.7-41.3 43.7-60 64 6.5 0-31.5-42-38-46-50-31.2-123-20-180-20 31.6-16.7 49.8-32.6 75.8-62.5 12.4-14.2 7-31.4 19.2-43.5 0-20.8 8.8-42.6 12.8-60 8-36.7-24.5-85.6-43-115-21-33.8-45-33-70.8-37-9.2-1.4-4.4-18.8-18-12-14.4 4-33 1.5-48 5-12 0-42 9.5-47 24-10.7 32.5-53.3 45-46 78-34.8 34.8-7 118.7 14 154 21 35 8-14.3 8 22-1 9 18 18 24 20 14 9.3 65.8 14.7 72 27-22 0-68.2-9.4-89 1-18.3 27.5-21.7 7-47 7-68.5-19-121-11-171 39-22.4 22.4-25.4 92.3-12 119 17.3 34.7 31.6 61.6 68 80 35 17.6 78.8 13.6 117 4 44-14.7 126.2-4.8 171.6 2.2 23.8 3.7 39.2-9 61.3 0 16 6.3 54-1.5 72-2.2 48-5.3 101 10.8 105-59 30 90.8 183 85.7 230 13 19-29.2 51-99.6 20-130-12-17-29-43.6-45-58-32-28-59-19-95-28 17-26.2 51-32.5 68-66 11-22.3-1-44-6-65-5-16-2-32.8-15-45.6-10-10-18 4.2-25-8.4-6-19-43-2.5-51-27-12-23.5 21-24.4 10-46-3-5.2 45-36 38-56 0-6.2-113-16.6-113 4z"/>
  <path fill="#FFFCFB" d="M2151 1130c-8 0-37.3 58.8-21 67-4.3-1.4-14 123-14 137-17.8 13.4-29.3 47.4-27 77 18.6 1.7 56 8.6 68.8-10.6 17.7-26.5.4-97 49.4-97 54 0 17.5 128.7 74 114.7 3-30 21-49 21-80-18.5-12 2.2-34 8.5-48 20-46 57.2-13 57.7 21 .3 22-5 85 27.3 93 56.5 13 49-2 43-57-4.2-39-10-78-17.8-116-6-30-9-61-24-88-8-10-59-13-78-13 0 9-1 20-4 28-6 17-2 25-6 41-9 38-76 49-81 4 0-3-11-33-12-31 5-11 11-12 5-27-12-26-46-11-70-11zm-1034 79c2 22.5 18.3 46.3 24 69 3 18.3-19.8 30.2-20.7 48.4-1.6 34.6-39.4 40.7-65.8 27.5-28.6-15-40.6-51-41-84-.6-31 7.3-72 38.5-88 36-11 39.4 6 65 26 1 11-4-3 0 0zm-112-42c-29-3-48.3 54-48.3 77.3 0 29.5-5 66.7 6.3 95.8 12.3 31 27 5 27 44 43.6 24 101 51 147 17 17.3-12 39.6-40 43.2-61 1-5 5.5-20 11-24 12-9-13.5-40 3.4-50 23.3-14-31.6-103-47.5-120-17-18-47 11-47-5-18-37-95-15-95 26z"/>
  <path fill="#FEF8F7" d="M2031 1529c-14.6-14.6-11.8-35.2-29-47.6-12.5-9 5.8-26.4-5-35.4-14.4-6.2-37.3-1.2-52.6-2.3-47.7-3.6-8.2 15.3-5.2 29.3 3.8 18 11.2 47.8 6 63.7-9 27.5 13 91.6-12 111.3-38.5 32 47 28.6 56 16-15.2 0-27.3-131.2-18-145 2.7 9.3 28 70 35 70 7 9.6 31 81 41 81 38.2 0 42.8-144.6 76-154 5.6 11.5 1.8 79.5-4.2 91.5-9.3 18.5 5.2 22.4-12 39.5-20.4 34 48.7 20 63 17.8 9-1.5-23-167.7 5-190.3 34-27.2-36.8-37.5-56-22.5-15 11.8-16.4 51-30.2 67.5-13 15.5-7 73.4-29.8 71.5-10.6-15-14.8-51.4-28-62-5-5 5 4 0 0zm-695-197c0-70 122.5-82.6 108-10-4.6 34.8-23.4 48-56 48-20.5-5-32.5-29.6-52-38 0-7 7 3 0 0zm-46 0c0 6.8 14 41 17 45 22.4 22.4 49 34.3 80 39.6 34.7 6 92-19.6 108-51.6 17-25.4 5.5-53.3 1-81.2-.5-3.7-4.2-29-13.6-21-19.8 17-18-7.6-24.4-16-22 0-53-11.3-53-39-1.8-11 5.4-60.7 9-62 11.3-1.3 30.6-9.4 34-23-47-11.7-98.5 14-105 66.6-2 14-20 34.6-27.5 47.5-16.3 28-25.5 62-25.5 95z"/>
  <path fill="#FDF4F3" d="M553 1222c-1 6.4-3.3 10-10 9 0 4-14.3 25.4-24.6 19.5-9.6-5.5-19-32.5-30.4-32.5 2.5 12.3 16.6 15.7 23.3 24.5 16.2 21.6-15 19.7-14.6 20.8.7 3-26.3 36.8-21.6 36.8-21 2-27-44-48 2-4 9-36 31-48 21 3-12-5-34-24-26-10 5-35 7-41 18 8 18 45 11 55 11 0 31-82 15-82 27 14 7 59 10 65 17 17 19-9 14-16 16 0 13 9 22 9 33-5 1-46-5-46 1 0 15 48 5 55 4 13 2 21 19 34 17-19-29 44-16 49-26-14-5-29 1-44-2-5-25 25-10 35-19-1-6-22 1-26-1 0-1 12-21 15-24 8-10-5-20 12-26 5 0 11 3 15-2 5-6 31-12 35-14 21-7 19-6 36-23 49-48 39 19 74 36 0-7 10-30-3-32 0 42-29-40 5-10 17 5 20 16 3 23 5 9 9 23 19 25 2-20 1-46 23-13 7 11 15 14 7 28-11-4-9-30-20-31-8 22 17 36 11 52-4 11-2 24 10 24-2-6-3-12-1-19 11 2 13 27 13 36-9-1-14-11-24-11 6 18 35 21 35 43-19 15-1-1-1 17 21 0-1 62-4 62-4 2 8-48 9-55-8-1-13 20-16 25-10 15 3 45 3 59 13 2 42-35 40-44s1.8-72 .8-73c-18.7-9 2.6-17 4-33 1.6-26-44.7-36-44.7-62 27 0 7-34-4-44-20.7-20-12-19.4-33.6-25 5.8 2 7-22-9.3-30-4.5-2-42.5-54-53-23-1 6 1-3 0 0z"/>
  <path fill="#FFFCFB" d="M1899 1366c0 7.3-2.3 40.8 3.8 46.4 7.6 7 15.6-30.8 33.7-12.7 11 11 27.3 10.3 34.4-1 12-19.3-13-33-13-48.8 0-27 16-45 42-49 27-5 70 3 66-38-1-9-71-12-83-18-24-10-25-50-7-65 26-24 75 5 97-14-1-2-17-11-16-12-11-10 11-20 13-28-18-9-172-9-176 8 0 29 1 59 1 89 4 23 8 48 13 72 5 25-10 45-10 70z"/>
  <path fill="#FEF8F7" d="M1393 1555c0-36.4 1.6-86 55-96 59.5-9.2 91.5 74.2 81 119-3.5 31.3-30.6 81.3-70 68.8-56.2-17.7-66-24.2-66-91.8zm189-16c14.7-66-110.8-124.3-158-96-53 17.6-121 86.3-84 151 14 24.6 34.5 59.8 61 73 13 10.5 102.7 19.2 111 .8 6.4-14.6 42.5-33 55-47.8 25.4-19 8.3-57.4 15-81 2-9-4 14 0 0zm726-80c26.7-16 83.4 44.6 79.4 66.4-3.7 20.2 6 147.2-60.5 122.8-22-8-38-4.6-58-20-29-21.2-5-67-21-93.4-13-22 40-69.3 59-75.8 5-3-3 1 0 0zm136 81c6.8-17-16-30.2-16-45-13.7-13.7-25.6-39-45.7-44.3-5.7-1.5-51.8-14-51.8-13.8 0-15-94 30-98.5 35-15 14-23 35-32 54-23.6 48 31 139 83 147 57 6 86-5 130-34 31.8-32 21-62 31-100 4-10-4 15 0 0z"/>
  <path fill="#FEF5F4" d="M754 1557c0 39.4 18.8 80.2 51 103 52.7 26.3 89 10.4 145 4.5 10-1 23.8-60 18.7-71.5-5.2-11.6-77-12-83.6-3-13 27.3 46 22.2 20 48-26 13-44 2.2-70-1-88-58.7 24-251.7 97-130 22 36 31-9.3 30-28 0-22-43-40.6-65-41-76-2-142 35.6-142 119z"/>
  <path fill="#FEF8F7" d="M1739 1453c20 20 34.5 23.4 29.5 54.8-3.8 24-1.5 59-1.5 83.3-16 0-60.4-62-68-78-7.2-8-32.3-31-31.3-43 2-26-11.7-12-33.7-18-62.2-31-19 27-18 42 0 40 20 121-9.3 152-34 37 48 39 70.8 26 11.6-6-31-31-37-40-7-11 10.7-116 6.5-116 9.3 19 20 37 36 51 7.6 7 49.5 50 51 61 2 18 60.6 72 61.7 29 1.4-56-14.2-118 1.3-172 7-24 29.2-30-9-36-9 0-51.2-12-49 7 3 3-1-9 0 0z"/>
  <path fill="#FFFCFB" d="M1220 1500c-13.8-41.4 67.5-28.3 48.6 21-6.5 17-22.3 29.6-41 20.5-9-4.3-5.8-32.7-7.6-41.5-1-3 1 5 0 0zm44 138c10.4 10.4 7.4 25 24.8 30.6 15.4 5 32.3-19 32.3-31.6-35-3-12-39.5-28-56-29-29.3 23-34 23-65 0-79.6-97-68-151-68-3 22 15 43.7 15 67.7 1 29.3-1 57.2-4 86-3 29.5 6 33-16 54.4 4 22 13 11 36 13 109 10-1-22 26-60 7-9-10-60 21-39 20 15 13 48 23 68z"/>
  <path fill="#FEF5F4" d="M1050 1500c0-11-1-43 15-35 22.4 12 40.3.7 57 22.5 19.6 25.2 25.5-9.3 23.4-23-4.5-28.7-39.4-18.4-57-22-26-5-51 3-77-.5-27-3.8-29.4-1-25.3 20 35 34.7 13 116 13 163 0 21-28 20.7-24 38 3 10.6 38 7 44 7 23 0 131 18 117-23.4-4-11.2 10-25-2-36.6-17-15.2-25 22-31 29.3-7 8.7-47 8.4-52-2-7-18-1-55.7-1-74.2 20 0 27 23 43 26 15 3 15-55 14-65-2-18-33 11-41 15-15 4-14-26-14-37z"/>
  <path fill="#FFFCFB" d="M1724 1289c11.5 34.5-26.7 72-4 110 16 19.8 38.5 10.5 61 9.4 10-.5 3-72 5.5-85 8.4-42 6.8-93.4 6.5-136.4 0-48.3-13.4-92.8-53-31 9 0-39.5-70.4-54.5-26-5.6 16.3 8.3 33.2 16.5 45.5 17 25.6 40.2 88 22 113.5 3 9 5-7 0 0zm-935 99c4.5 28.6 68 29.2 68.3 14 1.2-39.7-3-80 1.8-119.5 6-42.6 7-88.4 3-131-6-67.6-35 6.5-52 6.5-8-53.4-73-38.6-44 5.6 7 10 13 20 20 29.7 8 12 0 32.7 9 41.7 7 10 9 30 7 41 1 6.3-14 12.5-3 18 5 4.3 6 13.8 5 19-2 13.8-15 13.8-15 30 0 15-1 30.5 2 45 3 19-1-4 0 0z"/>
  <path fill="#EC1E23" d="M809 1158c16.8 0 45.7-74.2 52.4-6.6 5 49.6-3.4 98.4-3.4 147.6 0 15 5.4 106-6.3 107.8-30 4.4-64.7 11.2-64.7-30.5 0-14.6-2.7-32 0-46.3 11.8-11.8 21-15.8 12-34.3-6.7-13.2-3.6-46.7-8.7-68-6-25-10.5-40.5-25.8-64.2-28.5-44 36.3-59 44.5-5.5 2 0-2-13 0 0zm-72-24c0 26 15 45.3 29 66 8.6 12.3-.4 35 11 46.3 18.5 18.5-14.2 34-2.5 50.8 18.5 27-39.5 134 42.5 134 8.6 0 63.2-2 62.7-8-2-24-4.7-46-4.7-70 0-47 7.6-94 8-141 .2-24 4-142-53-105-19.7 20-93-31-93 27z"/>
  <path fill="#FEF5F4" d="M1844 1487c0 48 6 96.7 1.3 145.4-1.7 17.4-39 40 7.8 39 11-.4 46 6 51-5.7 8-18.6 1-3.3-9-19.8-3-27-3-52-2-79 1-23-2-47-2-70-4-24 15-24 19-44 4-23-37-9-45-10-63-9-19 18-19 43z"/>
  <path fill="#EC2328" d="M1035 1266c0-22.2 2.3-54.8 26-65 35.4-17.7 35.2 27.7 49 45 13.3 31 1 98.2-39.6 90-32-6.2-35.4-43.5-35.4-70zm82-57c-14.4-10.8-35.7-48.5-61.3-27.7-26.2 21.3-40 38.3-42 74.4-1.8 30.7 6 75.5 31.3 93.3 58 29 78.3-13.3 95-61.3 8.7-25.6-20.8-54.3-23-78.7-4-3 1 11 0 0z"/>
  <path fill="#EB2227" d="M1456 1473c13.6 0 36.5 22 43 34 0 2 14 15.3 9 9.3 8.8 11-5.2 27.6 1 40.7 11 32.7-8.8 51.8-30 73-84.4 42.2-103.8-140.7-23-157zm-63 82c0 40.5 3 94 57 91 16.2 0 30 4 46-6 21 0 24-46 31.7-57 4-5.7 2.4-64.7.5-70.4-4.7-14.6-49.5-53-64.6-54.4-40.6-4-51.4 26.8-67.6 53.8-10 20.2-3 21-3 43zm873-24c0-20 30-55 48.6-57.6 49-7 60.4 72 60.4 103.6-9.4 28-16.8 59.2-54 53-56.5-.6-55-52-55-99zm42-72c-25.4 8.5-55.8 39.8-59 67-3.7 6.4 5.5 66.8 7.4 77.7 6.7 37.6 39.4 34.8 66.7 42.8 116 33.8 66-235.7-15-187.5-3 1 5-3 0 0z"/>
  <path fill="#F38887" d="M442 1381c-76-15.2 58.3-52 29-20 0-33-19.8 23.8-16 20-3.3 0-13-11.8-13 0-5-1 0-5 0 0zm54-25c-2.4-3-10.5-17.4-12-22 6-12.2 46 9.3 57 12-3.2 6.4-10 7.7-13 14-2 0-18-4-20-5 3.8-3.5 4-7.2 1-11-13.2-3.3-6.5 25.5-20 21-2.7-1-3.3-3-2-6 2.2-.6 7.4-1.4 9-3zm30-29c-1-.8-12.6-14.3-12.8-14.3 5.4.8 10.7.3 16-1.5 2.7-7.4-10-13.8 1.4-18.7 6.6-2.8 23.4 9.5 25 15.4 3.3 13 16.2 39 7.3 48-8-17-16-20-30-20 3 2 7 2 12 1 0 17-32-3-34-6-30-30-26 25-27 25-5-3-16-14-18-18 2-5 16-10 19-15-15 0-37 21-53 18-6-1-34 40-32 49 4 1 24-6 26 1-10 8-41-7-35 19 14 2 29-3 44 2-6 11-30-2-38 7 6 1 54 1 57-4 2-6-54-8-59-7-1 0 17-12 30-14 4-1 23 4 27 1 7-8-40-10-44-12 14-21 42 8 51-5 2 2 13 19 14 22-3-3-6-4-8-1-2 6 1 10 9 10 0-17 3 1 10-5 7-7-7-18-14-16 0-8-30-34-7-34l3 11c0 1 13-9 15-10 5 6 6 7 13 14-5 7-10 11-8 22 11 6 35 2 40-12 1-4-7-5-9-6 4-6 5-3 6-11-10 0-11 5-15-3-4 4-8 12-14 6 3-9 5-1 4-14 23 6 43 28 42 8 7 0 6 3 14 3-1 5-11 13-8 19 2 5 36-45 36 0 2 0 35-7 35-6 0-9-14-3-9-13 7-1 6 5 13 2-7-9-28-53-7-53-14-18-9 25-9 27l-5-2c12 30-28 29-37 11 9-18 15 4 26 1-5-11-3-21-6-32 13 2 6 20 8 20 15 7-4-21-5-24 17-8 13-19-3-23-34-31-5 51-5 10 13 1 3 24 3 32-6-6-14-18-20-21 0 15 15 15 15 26-21 10-20-29-24-39-8-19-35-15-30 8-6 0-11 1-16 1 1 8 9 13 16 16z"/>
  <path fill="#FEF8F7" d="M471 1457c3.7 7.5 20.4 27.3 27 30-1.6-.8 75.3-15 75-15-2.5-3.4-3.2-7-2-11 7.2 0 12 22 22 26 13.4 5.3 15-1 26-8 22.3-13.4 3.2-47 1-41.5-5.6 14-43.6 4-48 .5-10-8-14.5-35-27-35 0 61.2-49.8 25-74 54 1 2 5-6 0 0z"/>
  <path fill="#EC1E23" d="M1558 1409c0-7.5 9.5-14.5 11-22-56.5-37.7 18.7-38 22-33 0 18.6-11 8 12 24 25 15.5-30.7 35.8-45 31 0-7 6 2 0 0zm-4-77c-43.6 0-32 113.2 42 92 17.5-4.4 47-38.4 25-55-7.7-39.2-27.7-37-67-37z"/>
  <path fill="#FDF4F3" d="M342 1538c19.6 0 19.3 26.5 41 2-18-27 33-20.6 33-43-13.7 1.7-19.8 22.5-34 13-15.8-10.5-7.3-41.5 9-48-15.5-10.4-30-21.4-53.4-7.4-25 15-10.7 12.4-44.6 14.4-15.4 0-34.6 6.4-36 22 12.2 3 63.7-22.6 66.4 1 3.2 29 51.8 14 49.3 23.4-3.7 13-30.7 9.2-30.7 22.6 1 0 0-2 0 0z"/>
  <path fill="#EC1B23" d="M1359 1322c9.7-19.5 49.3-55 65-18.6 6.3 15 0 33.7-11 44.6-24.7 16.5-35.5-16.8-54-26 3-6 2 1 0 0zm-23 10c32.6 14 83.3 73.8 104.5 6 27-86-104.5-83.7-104.5-6 7 3 0-7 0 0z"/>
  <path fill="#F5A4A3" d="M342 1538c0-13.4 27-9.5 30.6-22.6 2.5-9.3-46 5.6-49.3-23.3-2.6-23-54.2 2-66.4-1 3-33 60-11 78-34 20-20 41-4 56 5-31 12-12 24-12 46 16 12 20-9 37-11 0 23-51 16-33 43-22 25-22-2-41-2 0-2 1 0 0 0zm10-117c0 10.8 19.7 12.5 24 21-15.8 8-57 23-70 23-19.5-4-59.2 8.3-52 30 16.2 3.2 59.7-24.8 68 0 5.7 28.5 48 15.5 47 21-61.5 20.5 4 55 16 31 4 1.2 19.5 10.6 24.3 13.8 8.8 6 29.8-.2 24.8-17.8-4-2.5-11 6.5-17 7-1-.8-12-15.2-18-17-3 1.8-5 4.8-4 9-36 0 33-38.8 34-56-11 0-50 40.5-46 12 4-19.8 42-12.8 46-28-11-9-42 10.8-46 19-42-25 51-27.8 51-34 2-8-54 13-58-12 18 1.3 53-3.4 66-10-19-9.7-38 8.8-55 2.2-9-3.7 8-13.4 11-16.2-12-3.6-16 11.6-11 19-13 1.3-21-15-34-17 0 1 7 1 0 0z"/>
  <path fill="#F8BCBB" d="M420 1304c13.4 2 14.2-28 39-19.6 3.8 1.3 15 15.6 16 15.6 19.6 0-3.6-14.4 5-23 18 0 7.2-17.5 26.8-15 29.5 4-18-40-18.8-44 11.6 0 24.5 38 36.7 32-4.6 2.2-20-20-23.7-27-14.4-19.6-5.8-44.8 10-21 3.5 2 17.3 30.2 20 29 9.7-5 19 4.5 1 10 12.8-5 11 2.3 11-10 6-2 8.5 0 10-9-14.2 5.7-29-9.8-29-29 23.2-5.8-14.8-26-29-26-8 0-36.6-.4-27 14 9.3 1 32.6-4.8 38 6-11.3 1.4-22.6 1.7-34 1 .3 4.4 1 8.7 2 13-16.2-1.3-8.5-28.4-18-36-2-1-30.7 27.6-9 33 18.3 3.7 19.4 17.4 29 3 5.7 2 31.4 42 34.5 48 3 6-30.7 28.4-37.5 42-1.3-1-2.4-2.4-3.4-4-9.7-19.3-40-7.4-49.6 17 7 1 2-5 0 0z"/>
  <path fill="#FCEAE9" d="M417 1239c0 1-6.5 4.5-7 5 16.2 28.4-11.5 28-33 28 0 6.6 7 7.2 7 12 0 8.4-18.6-7.5-15 7 16.3 9.8 32.2 7.7 44.5-6 19-21 58.6-1.7 62.5-29-16.6-11-59-50.3-59-17z"/>
  <path fill="#F48C8B" d="M1264 1638c-9-18.7-4.7-43.2-16-59.8-25.5-37.7-25 9.3-25 23.8-4.5 36 53 83.2-18 68-78.8-8-20.6-1.8-30-58-3-24.8 4.3-53.5 4.3-79 0-28.4-19.4-60-15.3-85 45.4 0 143.5-12.3 150.3 55.5 4 39.3-42.7 43.8-24.3 74.5 13 19.6-1.4 56.3 31 59 0 34.5-28.7 27.8-48 23 16.6 27.7 54.6.2 50-26-17.4-7-41.6-51.8-37-75 6.5-16.3 30.4-16.5 33-40 1-24.2-12-54-36-62.8-31.8-11.7-61-11.7-95-13-47-2-13.5 39.7-13.5 70 0 21 10.7 119-5.4 133.8-42 35.7 49 25.4 73 23 27-3-7-17-8-22-15-11.6-6-37.8-8-53 0-9-3-40.3 17-20.5 15 14 2 55 22 63.5z"/>
  <path fill="#EB2529" d="M1237 1489c17 0 25 36 4 36 0-12-2.7-24-4-36zm-17 11c2.3 11.5.3 25.3 3.6 36.6 7.2 24.3 40.8-4.6 45-15.6 19-49.3-62.4-62.4-48.6-21 1 5-1-3 0 0z"/>
  <path fill="#FEF2F1" d="M1558 1409c14 4.7 51-1.3 51-23 0-12-18-15-18-32-3.3-5-78.5-4.7-22 33-1.5 7.5-11 14.5-11 22 6 2 0-7 0 0z"/>
  <path fill="#EB2529" d="M485 1323c-2.5 5-16.3 10.5-19 15 2.4 4.8 13.7 15.4 18 18 16.2 0-22.8-35.4 18.4-28.5 1.2.2 42.6 29.7 42.6 9.5-9-1.3-33.5-12.5-35-26 5.4.3 10.7 0 16-1-5-22.8 22.7-26 30-8 4.2 10.3 3 49.5 24 39 0-9-14.2-17.8-15.3-34.3-1.3-21-10.3-18-26.8-19.8-19-2-29 36-53 36-1 2 3 0 0 0z"/>
  <path fill="#FDF9F9" d="M526 1327c13.4 0-1.4 6 22 6 3 9.6 11.8 15.7 15 23 9-9-4-35-7.4-48-2-7.7-13-14-21.6-14-10.8-10.8-5.2 18.3-5 17.3-5 1.8-10.4 2.2-15.8 1.5.2 0 11.7 13.4 12.8 14.2z"/>
  <path fill="#F6D0CF" d="M537 1180c5.4 6.5.4 39.4 11 37-1-4.4-2.3-8.8-4-13 10.8-1 19.5-4.3 28-5 .3 10.6 5.7 15.6 16 15 0-8.3-18.8-49-26-49-2.6 11.6 8.5 16 7 28h-7c-1.3-2.6-21.3-45.8-28.4-37.8-1 1.3 2.8 21.8 3.4 24.8 5 6-1-5 0 0z"/>
  <path fill="#FBDCDB" d="M296 1383c-3.6 18-75.6-4-42.3 21 10.2 7.7 74.3-8.8 73-17.3-1-5.6-35-12.8-39.7-12.8-4.4 9 4 6 9 9z"/>
  <path fill="#ED191E" d="M525 1248c6.5-13 8-6.4 19-10-13.6-6.3-19.7-28-33-36-11.4-17-38.3.4-18 12.7 7.4 4.6 21.6 38.5 32 33.3 1-2-2 1 0 0z"/>
  <path fill="#FBDCDB" d="M294 1501c-7.7 0-46.5 11-46.5 19 0 6 20.8 1 24.5 1 3.6 9-13 10-13 19 16.3 14 42.8-27.2 47.8-41 1.7-4.7-10.7-2.2-12.8 2-3 0 2-4 0 0z"/>
  <path fill="#FEF8F7" d="M442 1381c0-11.8 9.7 0 13 0-3.8 3.8 16-53 16-20 29.3-32-105 4.8-29 20 0-5-5-1 0 0z"/>
  <path fill="#FEF2F1" d="M575 1483c-5.3 10.7-17.6 17-21 25 5.5 7.3 58.5 9.7 51.3 21.4 7.5-12.3-21-48.3-30.3-46.4-2 4 5-1 0 0z"/>
  <path fill="#FDF4F3" d="M484 1334c4.4 13.2 21.7 18 3 25-1.3 3-.7 5 2 6 13.5 4.5 6.8-24.3 20-21 3 3.8 2.8 7.5-1 11 2 1 18 5 20 5 3-6.3 9.8-7.6 13-14-11-2.7-51-24.2-57-12 1 3 1-2 0 0z"/>
  <path fill="#FCEAE9" d="M539 1558c4.4-.2 82.4 16.3 58-13-2.7-5.3-57.2 9-58 13z"/>
  <path fill="#ED2E31" d="M604 1340c-3 0-6 0-9 .6-1.3-.7 4.8-18.8-8-20.6 3.4 11 1.2 21.5 6 32-10.6 3.5-17-18.7-26-1 9.2 18.5 49 19 37-11z"/>
  <path fill="#F59C9B" d="M592 1411c-2.2 13 13 24 27 14v-6c-10-2.5-15.3.6-21-8 2.8 0 15 5.3 15 0 0-10-25-15-30-10-5.4 3.6 7.4 9 9 10z"/>
  <path fill="#F9DFE0" d="M498 1520c.6 0 37.8-17.3 38-18-8.2-4.5-11.5-11-17-14-12.4-7.4-21 26.6-21 32 8 1 0-4 0 0z"/>
</svg>
