<svg xmlns="http://www.w3.org/2000/svg" width="215.8" height="234.2">
  <g fill-rule="evenodd" clip-rule="evenodd">
    <path fill="#909090" d="M81.8 103.1l-1-.4c-1.6.3-.3 0-.9.5l1.9-.1zm37.4-71l-.3.4c.7-.2.2 0 .3-.4zm.1 1.1c0-.7-.2-1 .2-.8l-.2.8zm15.3 29.1c-.4 0-.3-.1-.2.3l.2-.3z"/>
    <path fill="#726E2C" d="M112 126.7l-1.4-.6c.1 1 .5 1.1 1.4.6zm-8.1-2.2l-.2-.2-.7.5c.9-.1.5.1.9-.3z"/>
    <path fill="#2C4050" d="M46.2 126.1c.2.4 1.5.4 2 .3.6 0-.1.1.4-.1 0 0 .1-.1.2-.1 0 0 .1 0 .2-.1.4 0 .3.1.2-.3l.3.1c0-.1-.2-.2-.2-.3 0-.1-.1.1-.1.2l-.2.3h-2.8l-.2-2.8c-.3.2-.2 0-.3.5v1c.2.7.1 1 .5 1.3zm17.5-37.5c-.5-.1-.4.1-.4-.4l-.2.6.6-.2z"/>
    <path fill="#211616" d="M66.2 101.3c.2.3 0 .2.6.5-.3-.5.3-.2-.6-.5zm13.4-2.9c0 .1.1 1.9.1 2.4-.3 2.2-.4 2.5-5.8 3.2-3.8.5-6.4-2.3-8.4-3.4l-.3-.2-.2-.2c-.3-.2-.1-.1-.4-.4l-.4-.4c-.4-.4-.2-.3-.6-.7 0-.6-.3-.8-.5-1.4l-.7-1.5-.3-6.1c.8-.2.1-.1.6-.2l1.9-.3c2.1-.5 4.1-.3 6.2.2 1 .3 1.5.7 2.5.9v.1c2.4 1 2.5 1.4 3.7 3.4.9 1.1 2.1 2.9 2.6 4.6zm-17.2-3.1c0-.4.1-.3-.3-.4.1.5 0 .4.3.4zm8.8-6.3c0 .4-.1.4.4.3l-.4-.3zm.5.3c0 .4-.1.3.3.3l-.3-.3zm.5.2c0 .4-.1.3.3.3 0-.4.1-.3-.3-.3zm.3.3l.4.3c0-.4.1-.3-.4-.3zm7 8.7l.3.4c0-.5.2-.4-.3-.4zm-8.2 5.3l.5.3-.5-.3zm-.4.1c-.1-.4 0-.3-.4-.2 0 .3-.1.2.4.2zm-.7-.3c0-.4.1-.3-.4-.2l.4.2zm-.7-.1c.1-.4.1-.3-.3-.2l.3.2zm-1-.5c.1-.4.2-.3-.3-.2l.3.2zm-1.1-.8l.4.2c0-.4.1-.3-.4-.2l-.3-.2c0 .4 0 .3.3.2zm-4.6-12.1c2.3-.7 4-1.1 6.5-.6 4.8.9 6.6 2.5 8.6 6.7.7 1.4 2.1 4.2.7 5.9-.7.8-5.2 1.4-6.4 1.2-3.1-.5-7.5-3.6-8.7-6.6-.5-1.4-1-4.8-.7-6.6zm61.7-65.3l.3-.8c-.9-.1-.6-.2-1.2.2l1-.2-.1.8z"/>
    <path fill="#80A3BC" d="M51.5 117.1c-1 .3-1.9-.1-2.9.3l-.3.2c1.2.9 1.8 1.6 3.1 2.5 1.1.8 2.1 1.7 3.1 2.3l5.8-5.7c1.3-1.3.3-1.4.9-3 .1-1-.1-1.1.4-1.9-1-.4-.5-.5-1.5-2.4-.7.8-1 1.5-1.9 2.1-.3.2-.9.5-1.1.8l-.1.1-.1.4c-.7 2.1-1.2.9-1.8 2.2-.5 1.2.3-.9-.1.4-.5.8-.9 1.3-3.5 1.7zm11.8-28.9c0 .5-.1.3.4.4 3.1-.1 4.6-.8 7.4.5l.4.3h.2l.3.3h.2c.4 0 .3-.1.3.3.5.1.4-.1.4.3h.4v.1c2.4 1 2.5 1.4 3.7 3.4.9 1.3 2.1 3.1 2.6 4.8l-.1.1c.4 0 .3-.1.3.4.5.7.3 1.8.4 2.8.8-.4 1.5-1 2.1-1.4C80.9 95 77.7 87.8 71.7 87c-2.3-.3-5.3-.7-7.6-.6l-.8 1.8zm-17.2 35.1l.2 2.8 2.8.1.2-.3c0-.1.1-.2.1-.2 0 .1.2.2.2.3.9.4 1.3-.4 1.8-1.1.6-.8 1.4-.9.9-2.3-.4-1.1-2.4-3-4.4-2.6-.7.9-.9 1.8-.9 3.1l-.9.2zM83 65v-1.4l1.2.1c-.1 0 .2-.2-.5-.2-1.3-.1-.5 0-.7.2-.2.5-.3.7 0 1.3z"/>
    <g fill="#527086">
      <path d="M62.8 90.1c-.3 1.7.2 5.2.8 6.6 1.2 3 5.6 6.1 8.7 6.6 1.2.2 5.7-.4 6.4-1.2 1.4-1.7-.1-4.5-.7-5.9-2-4.2-3.8-5.8-8.6-6.7-2.6-.4-4.3-.1-6.6.6z"/>
      <path d="M64.8 85.6c6.5 1.1 8.7-.3 12.8 3.2 2.2 1.8 4.3 7.1 5.5 10.6 4.1-3.6 4.5-13-1.7-17.3-4.3-2.9-10.1-3.2-13.9.1-.6.6-1.1.9-1.6 1.5-.2.3-.6.6-.8.9l-.3 1zm7 18.5l-.5-.3h-.4c-.5 0-.4.1-.4-.2h-.3l-.4-.2-.3.1-.3-.2-.7-.2-.3-.2-.4-.3-.4-.2c-.4.1-.3.2-.3-.2l-.4-.3c-.6-.3-.4-.2-.6-.5l-.7-.7-.3-.2-.2-.2c-.3-.2-.1-.1-.4-.4l-.4-.4c-.4-.4-.2-.3-.6-.7-1.4.6-1.8 1.9-1.2 3.8l.9.5c2.6.9 3 1.1 5.6 4.4 1-.4.7-.6 1.6-1-.2-.7-.3-.5-.6-1.3.5 0 1.3-.1 1.7-.4.9-1 .4-.5.3-.7zm38.9-43.5c-.4-.2-.3 0-.6-.3l.1 1.6.5-1.3zM75.1 70.8l-.3.2.3-.2zm-.5.2l-.3.2.3-.2z"/>
    </g>
    <path fill="#F6EC00" d="M103.9 124.5c-.5.4 0 .2-.9.3l.7-.5c3.8-2 2.6-4-.7-7.6-1.1-1.2-3.5-3.3-5.9-3.5-3-.1-2.8 1.3-2.9 6.2-.2 4.9-.5 11.5 2.7 15.9 1.9 2.6 2.7 3.8 5.5 1.8 1.3-.9 4.3-3.2 5.1-4.3 1.2-1.6 2.4-5.1 1.6-7.5-.9-1.2-3.4-.8-5.2-.8zm22-7.3c.1 2.2-.7 2.6-2.5 3.2-1.2.4-3.2 1.1-4.5 1.3l.1 2.5c1.4.4 8.2.6 9.9.4 3.5-.4 2.2-4.4 1.4-7.5-1.5-5.8-3.5-20.1-8.8-14.3-3 3.2-5.6 3.6-6.3 9.5-.3 2.6 1 6.8 3 7.2 1.5.3 3.2.3 4.7-.1 2.1-.5 2.1-1 3-2.2zm-15.3 8.8l1.4.6c3.7.2 5.4-1.6 4.2-5.3-.6-1.8-.8-2.2-1.8-3.5-1.8-2.4-1.9-4.5-6.4-2.2-4.1 2.1 2.1 6.3 2.6 10.4z"/>
    <g fill="#EC859A">
      <path d="M7.9 175.5c1.7 1 2.3.8 2.5 3.6.2 2.4.2 10.4-.1 12.7-.5 3.3-2.1 2.4-2.6 3.8 0 1.7 8.6 2.3 11.5.4-.1-2.6-2.1 0-2.2-6.1-.1-3.7.7-3.8 4.3-3.9 3.6-.1 4.5.1 4.3 3.9-.1 1.9-.3 3.6-1.6 4.7-.9.7-.8.3-.9 1.3.3 1.7 10.8 2.3 11.3-.6-1.4-1.3-2.3-.6-2.3-3.7l.1-12.4c.1-1.8.3-2.6 1.3-3.2 1-.5.5.1 1-.7 1-2.5-10.3-2.8-11.3-.3.5 1.1 1.2.8 1.8 2 .5.9.5 2.2.5 3.3.1 3.6-1.1 3.2-4.6 3.3-3.5 0-4.1-.1-4-3.7.1-4.7 2.3-3.2 2.5-5.2-1.4-2-10.6-1.9-11.5.8zm154.7 9.3c5-1.5 5.8 9 2.4 10.5-1.1.5-2.8.4-3.6-.2-1.2-1-.8-6-.6-7.6.2-1.8.4-2.3 1.8-2.7zm-2.3-3.7c-8.3.7-6.6 2.7-6.4 8.5.1 2.5.2 5.2.1 7.7-.1 3.6-.6 3.9-2.6 5 .2 1.4.8 1.5 2.1 2 2.3 1 8.8 1.9 9.8-.5-.3-.5-3.3-1.9-2.2-4.9.8-2 3.1-.2 5.1-.2 8.3.2 11-13.4 4.1-17.1-1.9-1-3.9-.8-5.8.1-4.3 2.2-2.7 1.4-4.2-.6zm-37.9-5.7c5.4-1.8 8.1 6.4 4.2 9.4-.9.7-2.4 1.1-3.7.7-1.2-.4-1.3-1.5-1.4-2.9-.3-4.4-1.2-6.5.9-7.2zm-11.8-.2c1 1.7 3.3 0 3.8 3.4.3 2.1.4 4.7.5 6.9.2 2.3.4 4.6.5 7 .4 4.9-1.8 3.4-2.4 5 1.2 2 7.8 1.1 10 .5 1.3-.3 2.1-.6 2.3-1.7-1.6-.9-2.2-.8-2.9-2.8-.5-1.6-.7-3.8-.3-5.2 3.6-1.4 6.9.7 10.7-3 3.7-3.5 4.6-14.5-10.4-12.1-2 .3-4.1.6-6.2.8-1.1.1-2 .1-3.1.2-1.1 0-2 0-2.5 1zm-30.3 8.9c4.6-2.2 6.1 7.5 3 9.8-1 .7-2.5.8-3.6.2-1.7-1-1.2-5.5-.9-7.3.3-2.4.8-2.3 1.5-2.7zm-8.8-2c5.3 7.7 1.1 10.7.7 14.8-.2 2.5-1 2.8-2.5 3.8.6 3.1 10.1 3.8 11.5 1.8-.4-1.3-3.2-1.2-1.8-5.6 2.9-.9 4.8 2.4 9.1-.9 7.5-5.8 2.1-19.8-6.6-14.5-1.7 1-2.9 1.4-3.1-1-3 .1-4.8.9-7.3 1.6z"/>
      <path d="M61.3 184.8c5.1-2.1 4.8 8.6 1 10-1.3.5-3 0-3.6-.8-1.1-1.3.3-5.1.8-6.7.7-2.1.8-2.1 1.8-2.5zm-8.6 6l1.6.6c1.4.7.8 3.5-.3 5-.6.7-1.5 1.7-2.4 2.2-1.8 1-2.7.5-3.5 1.2 1.9 1.2 6.9 4.6 10.1 2.8-.1-1.5-2.4-2.2-1.1-5 1.1-2.2 2.9-.1 4.3.5 4.3 1.7 7.7-1.5 9.1-3.8 1.9-3.1 1.9-8.1-.5-10.6-1.1-1.1-2.9-1.8-5.1-1.4-2.7.4-3.7 2-4.3-1.4-1.6-.3-10.3-.6-9.4 1.7.5 1.3 2.4-.1 1.7 3.9 0 1.2-.9 3.2-.2 4.3zm127.5-9.2c4.8-1.1 6.3 8.8 2.5 10.6-1.1.5-2.6.4-3.5-.4-.8-.8-.8-2.1-.9-3.4 0-3-.6-6.3 1.9-6.8zm-8.5-1.5c1.4 1.1 2.6 2.2 3.4 4.1 4.5 10.1-4.8 15.6-5.1 16 .9 1.6 3.6 2.1 5.8 2.2 1.3.1 2.6 0 3.8-.3 4.7-1.1.8-2.2.1-3.5-.7-1.4-.5-2.4 0-3.6 3.4-.9 5.1 2.2 9.3-1.7 1.9-1.8 3.4-5.6 2.7-9.3-.7-3.1-2.9-6.3-6.1-6.5-2.1-.1-3.4.6-4.8 1.6-2.6 1.8-2.7.5-3.4-.8-1.4 0-4.6 1-5.7 1.8z"/>
      <path d="M201.1 183.7c-.8-3 .7-2.7 1-4.4-.4-1.6-9.3-2.8-11.2-1.4.7 1.4 1.7 2 2.4 4.2.6 1.6.8 3.5 1.4 5.1.6 2 2.9 8.3 2.6 10.2-.3 1.7-2.4 3.2-3.8 1.8-1.1-1.1-.3-3.8-2.4-4.1-3.3-.5-4.8 5 .9 6.4 7.9 1.9 11-6.8 13.8-11.9 1.4-2.5 3.2-6.6 5.4-7.6.8-.4 2.1-.4 2.2-1.1.2-1.4-5.4-2.4-7.1-.9.1 1.8 1.6 1.9.3 4.6-1.9 3.9-4.5 3.3-5.5-.9zm-96.7-3.5c.3 1.4 1.8 1.4 1.4 4.2-.5 3.2-2.7 5.7-5.5.8-1.6-2.9-.1-2.7-.1-5-2.5-1.1-6.3-.4-9.2.2 1.4 2 2.6 3.5 2.9 6.9.2 2.3 1.6 4.2 3.1 6.7.9 1.5 3.3 4.9 2 7.1-.6.9-2.2 1.6-3.2.7-.7-.7-.8-2.2-1.9-3.1-4.9-.9-4.8 5.5.7 6 8.6.6 10-9.5 11.9-16.2 3-11 4.7-6.1 5.2-9-1.5-1.6-6.3-.6-7.3.7zm39 14.6c1 2.2-.4 1.6.9 2.2.6.2 6.3.6 7.8-.8-.9-2.4-2.2 1-1-6.8.2-1.5 1.4-6.9 1-7.8 0 0-.1-.2-.1-.1l-.1-.1c-.5-.3 0-.1-.5-.2l-3.3-.2c-1.5 0-3.1 0-4.3.6 1.3 2.3 2.1.2 1.2 7-.4 2.7-.8 5.6-3.8 5.5-4.8-.3-1.7-8.5-1.1-14.6l-2.9-.2c.1 3.1-.4 4.8-1.9 6.7-1.8 2.4-3.2 1-3 5.6.1 2.7 1.5 4 3.9 4.4 3.8.5 4.4-2.1 7.2-1.2zm-101.3-4.3c2.8-.7 4 5.7.8 6.2-3.5.6-4.5-5.2-.8-6.2zm-8-2.1c2.8 0 2.2-2.6 3.8-4.3 2-2.2 3.9-.7 4.7 1.5 1.4 3.5.4 3.7-2.5 4.6-2.1.6-4.3 1.7-5 3.4 2.1 1 1.4 3.2-.1 4.3.6 1.6 2.9 2.3 5.2 1.8 2.4-.5 3-1.7 4.3-2.7 2-1.6 2.4 1.3 5.4.3 1.7-.6 3-1.9 3.4-3.9 0 0-.1-.2-.2-.1 0 0-1.6-.6-2.4-2.2-1.6-3.3-1-8.3-4.7-9.7-2.8-1.1-5.8-.1-8 1-1.2.6-1.9 1.1-2.9 1.9-1.4 1.4-1 1.5-1 4.1z"/>
    </g>
    <g fill="#C45A6D">
      <path d="M67.9 199.4l.1.4c-.1.5-.4.5-.4 1.3 0 5.2 15.4 6.2 15.4 1.9 0-3.4-1.6-1.9-2.2-4.1 1.2.1 2.4.5 3.8.5 4.2 0 7.8-4 8.6-7.4l1.1 1.8c.9 1.5 3 4.3 3 5.9 0 .7-.1.4-.5.7-1.4-5.9-8.6-4.2-8.6.5 0 7.3 10.4 7.2 14.6 2.3 1.8-2.1 2.5-4.2 3.4-6.9.8-2.4 2.7-12.1 4.7-13.5l1.2-.6c.5-.1 0-.2.4 0 .3.6 1 10.6 1 12.2 0 .7-2.4 1-2.4 3.1 0 3 4.2 3.1 6.7 3.1 3.8 0 9.6-.7 9.6-4.3 0-3-3.4-.3-3.4-6.5 1.9 0 4.7 0 6.2-.7 0 2.9-.1 4.5 1.3 6.2 1.7 2.1 4 2.5 6.9 2.5 1.5 0 2.2-.7 3.4-1 .3 3.9 7.7 2 10.1 1.9-.2 2.4-2.4 1.1-2.4 4.1 0 2.7 5.3 4.3 8.4 4.3 2.9 0 7.4.1 7.4-3.6 0-2.3-2.2-1.3-2.4-3.6 1.7.8 2.8.7 5.3.7.1 1.5 1.7 2.3 2.9 2.8 2.6 1 12.9 2 12.9-2.8 0-.9-.5-1.6-1.1-2-1-.7-1.4-.3-1.5-1.8 1.2.6 3.1.5 4.6.5 0 6.1 7.8 7.7 12.3 5.4 2.9-1.5 5-4.3 6.5-7.2.4-.8.6-1.1 1-1.8 1.3-2.5 3.9-9 6.6-9.9.7-.2 1.4-.3 1.9-.7.9-.7 3.5-5.6-6.8-5.6-2.1 0-3.4 1.3-3.4 3.1 0 1 1.9 2.8-.5 4.6-2.2-4.1.2-3 .2-5.8 0-3.5-6.3-3.7-8.6-3.9-5.8-.5-4.9 1.5-7.5.5-3.1-1.1-6 0-8.4 1.6-.8-3.4-7.8.1-9.2.9-1.9 1-2 .3-4.2.6-1.4.2-2.4 1.1-3.7 1.4-.9-1.7-1.7-1.5-4-1.1-1.6.3-3.2 1-4.7 1.1-.6-2.3-8.1-1.9-10.1-1.2-.7.2-1.1.5-1.6 1.1l-.2.3-.1.1c.2-2 .9-3.4-3.4-3.6-3.1-.1-1.7-3-6.6-5.4-3.1-1.5-6.4-1.1-9.8-.5-1.8.3-3.1.4-4.9.6-1.5.2-8.4-.1-8.4 2.6 0 .9.1 1.7.5 2.4-1.6 0-6.7.5-6.7 2.9 0 2.6 1 2.1 1.4 3.5.1.5 0 1-.2 1.5-.2.9-.1.8-.7 1.2-.3-.9-1.4-1.8-1.4-2.9 0-.7.7-1.2.7-1.9 0-4.9-8.5-3.4-11.5-2.6-2.1.5-1.3.5-3.4 0-2.1-.5-4.7.2-6.5 1.2-1.4-1-.7-1.2-2.9-1.2-1.9 0-4.2.7-5.7 1.2-.5.2-2.3 1-2.5 1-1 .2-2.1-1.2-6.6-.1-.5-2.3-3.5-2.2-5.5-2.2-2.4 0-7.3 0-7.9 2.9-1-.3-1.6-1.2-2.6-1.7-4.5-2-9.8.7-13 2.9l.3-4c.4-1.8 2.4-1.4 2.4-3.9 0-4.4-9.7-3.6-12.6-2.8-.8.2-1 .3-1.6.8l-.8.9-.1.1-.1.1-.1.1c-.9-3.9-11.9-3-14.3-.9-.6.5-1.1 1.4-1.1 2.3 0 1.6 1.4 2 2.4 2.6 0 1.7.2 2.3.2 4.1 0 2.1.4 8.7-.5 10.3-.7 1.3-2.4.8-2.4 3.3 0 4.5 14.4 4.6 15.4.2 0 0 .1.1.1.2.2 1 1.3 1.9 2.3 2.3 2.6 1 7 .8 9.6.2 1.8 3.3 6.4 3.8 9.6 2.2 1.5-.8 1.8-1.4 2.9-2.2 1.2 2.5 1.5 2.9 4 4.4 2 1.2 10.6 4.1 10.6-1 0-1.8-1.3-1.2-1.4-3.1 1.8.5 1.7 1.2 4.5 1.6 1.4.3 3.6 0 4.7-1zm1.5-.9s-.1 0 0 0zm123.8-8.2h.5c.1 3.3 3.2 6.6 1 7.2 0-1.9-1-3.9-2.6-4.1 0-.9.8-1.8 1.1-3.1zm-171.8 4.6l-.4-.6c-.6-.9-1-.9-1.4-1.5-.2-.2-2-4.9.8-4.9h3.4c0 7.5-1.8 4.1-2.4 7zm12.7-3.6c.1-1 .1-.9 1.2-1-.4.3-.8.7-1.2 1zm3.6-2.4c.2-.9 1.5-3.4 2.2-3.8 1 .7 1.1 1.5 1.4 2.9-1.6-.1-2.4.6-3.6.9zm122.6-7.8c1.4 1.9-.1 2.8 4.4.6 1.8-.9 3.9-1.1 5.8-.1 6.8 3.7 4.1 17.3-4.1 17.1-2.1 0-4.3-1.9-5.1.2-1.1 3 1.9 4.4 2.2 4.9-1 2.4-7.5 1.5-9.8.5-1.3-.5-1.9-.6-2.1-2 2-1.1 2.5-1.4 2.6-5 .1-2.5 0-5.2-.1-7.7-.4-5.7-2.1-7.8 6.2-8.5zm-108.9 3.7zm90.7 6.9h-1.4c-.8-3.1 1-7 1-10.3.7 1.1-.3.5 1.3 2 1 .9.1 3.6-.1 5.5-.3 1.7-.5 1.7-.8 2.8zm-108-3.3c0-2.5-.4-2.6 1.1-3.9 1-.9 1.6-1.3 2.9-1.9 2.2-1.1 5.2-2.1 8-1 3.7 1.4 3.1 6.4 4.7 9.7.8 1.6 2.4 2.2 2.4 2.2s.1.1.2.1c-.4 1.9-1.7 3.3-3.4 3.9-3 1-3.4-1.9-5.4-.3-1.2 1-1.8 2.2-4.3 2.7-2.4.5-4.6-.2-5.2-1.8 1.5-1.1 2.2-3.3.1-4.3.7-1.7 2.8-2.8 5-3.4 2.9-.9 3.9-1.1 2.5-4.6-.9-2.2-2.7-3.7-4.7-1.5-1.6 1.5-1.1 4.1-3.9 4.1zm37.4-6.3c2.5-.8 4.3-1.6 7.3-1.7.2 2.5 1.4 2.1 3.1 1 8.6-5.3 14 8.7 6.6 14.5-4.3 3.4-6.3 0-9.1.9-1.4 4.5 1.3 4.3 1.8 5.6-1.4 2.1-10.9 1.3-11.5-1.8 1.6-1 2.3-1.3 2.5-3.8.3-4 4.6-6.9-.7-14.7zm-10 16c-1.4-.6-3.2-2.7-4.3-.5-1.4 2.8.9 3.5 1.1 5-3.3 1.8-8.3-1.6-10.1-2.8.8-.7 1.8-.2 3.5-1.2.9-.5 1.8-1.5 2.4-2.2 1.2-1.5 1.7-4.3.3-5l-1.6-.6c-.7-1.1.2-3 .4-4.4.7-4-1.2-2.6-1.7-3.9-.9-2.2 7.7-1.9 9.4-1.7.6 3.4 1.6 1.9 4.3 1.4 2.2-.3 4 .4 5.1 1.4 2.5 2.4 2.4 7.5.5 10.6-1.5 2.4-5 5.6-9.3 3.9zM19 180.9c0-3.8.4-2.9 2.1-4.6.3-.3.2-.2.5-.4.7 2.5 2.2-.5 2.2 5.5-1.6 0-4.8.4-4.8-.5zm124.4 13.9c-2.8-.8-3.4 1.7-7.2.9-2.4-.5-3.8-1.8-3.9-4.4-.2-4.6 1.2-3.2 3-5.6 1.4-1.9 2-3.6 1.9-6.7l2.9.2c-.6 6.1-3.6 14.3 1.1 14.6 3 .2 3.4-2.7 3.8-5.5 1-6.7.2-4.7-1.2-7 1.2-.6 2.8-.6 4.3-.6l3.3.2c.5.1 0-.1.5.2 0 0 .1.2.1.1l.1.1c.4.9-.8 6.3-1 7.8-1.2 7.8.1 4.4 1 6.8-1.5 1.4-7.3 1.1-7.8.8-1.3-.3.1.3-.9-1.9zm28.3-14.7c1.1-.7 4.3-1.8 5.9-1.8.7 1.3.8 2.6 3.4.8 1.4-1 2.7-1.7 4.8-1.6 3.2.2 5.4 3.4 6.1 6.5.8 3.7-.7 7.5-2.7 9.3-4.3 3.9-5.9.8-9.3 1.7-.4 1.2-.7 2.2 0 3.6.7 1.3 4.6 2.4-.1 3.5-1.2.3-2.5.3-3.8.3-2.3-.1-4.9-.6-5.8-2.2.3-.5 9.6-6 5.1-16-1-1.9-2.2-3-3.6-4.1zm-67.3.1c1-1.3 5.8-2.3 7.2-.7-.5 2.9-2.1-2-5.2 9-1.9 6.7-3.2 16.9-11.9 16.2-5.5-.4-5.6-6.8-.7-6 1 .9 1.1 2.4 1.9 3.1 1 1 2.7.3 3.2-.7 1.3-2.1-1.1-5.6-2-7.1-1.5-2.5-3-4.4-3.1-6.7-.2-3.4-1.5-4.9-2.9-6.9 2.9-.6 6.7-1.3 9.2-.2 0 2.3-1.5 2.1.1 5 2.7 4.9 5 2.4 5.5-.8.4-2.8-1-2.8-1.3-4.2zm86.4-2.4c1.9-1.4 10.8-.2 11.2 1.4-.2 1.7-1.7 1.4-1 4.4 1.1 4.2 3.6 4.8 5.4 1 1.3-2.8-.2-2.9-.3-4.6 1.7-1.5 7.3-.5 7.1.9-.1.8-1.4.8-2.2 1.1-2.2 1-4 5.1-5.4 7.6-2.8 5.1-5.9 13.8-13.8 11.9-5.7-1.4-4.2-6.8-.9-6.4 2.2.3 1.3 3 2.4 4.1 1.4 1.4 3.5-.1 3.8-1.8.4-1.9-1.9-8.2-2.6-10.2-.5-1.7-.8-3.5-1.4-5.1-.6-2.3-1.6-2.9-2.3-4.3zm-80.2-2.6c.5-1 1.4-1 2.7-1 1.1-.1 2-.1 3.1-.2 2.1-.2 4.1-.5 6.2-.8 15.1-2.4 14.1 8.6 10.4 12.1-3.8 3.7-7.1 1.6-10.7 3-.4 1.5-.3 3.7.3 5.2.7 2 1.3 1.9 2.9 2.8-.2 1.1-1.1 1.4-2.3 1.7-2.2.6-8.8 1.5-10-.5.6-1.7 2.8-.1 2.4-5-.2-2.3-.4-4.6-.5-7-.2-2.2-.2-4.8-.5-6.9-.7-3.4-3-1.8-4-3.4zm-102.7.3c.9-2.7 10.1-2.8 11.6-1-.2 2-2.4.6-2.5 5.2-.1 3.6.6 3.7 4 3.7s4.7.4 4.6-3.3c0-1.1-.1-2.4-.5-3.3-.6-1.1-1.3-.9-1.8-2 1.1-2.5 12.3-2.2 11.3.3-.6.8 0 .2-1 .7-1 .6-1.2 1.4-1.3 3.2l-.1 12.4c.1 3.1.9 2.5 2.3 3.7-.5 2.9-10.9 2.2-11.3.6.1-1.1 0-.6.9-1.3 1.3-1.1 1.5-2.7 1.6-4.7.2-3.8-.7-4-4.3-3.9-3.6.1-4.3.2-4.3 3.9.1 6.1 2.1 3.5 2.2 6.1-2.9 2-11.6 1.4-11.5-.4.6-1.4 2.2-.5 2.6-3.8.3-2.2.3-10.3.1-12.7-.3-2.6-.8-2.4-2.6-3.4z"/>
      <path d="M123.1 177.1c2.4 0 3.4 1 3.4 3.8 0 2.4-1.3 2.6-2.9 2.6 0-2-.5-4.2-.5-6.4zm-.7-1.7c-2.1.7-1.2 2.8-.9 7.2.1 1.4.2 2.5 1.4 2.9 1.3.4 2.8 0 3.7-.7 3.9-3.1 1.3-11.2-4.2-9.4zm41 18.3c-1.7 0-.6-6.4-.5-7 1.9 0 2.2 2.1 2.2 3.8 0 1.4-.3 3.2-1.7 3.2zm-.8-8.9c-1.4.4-1.6.9-1.8 2.7-.2 1.6-.6 6.6.6 7.6.8.7 2.5.7 3.6.2 3.4-1.5 2.6-12-2.4-10.5zm18.1-1.5c1.1.3 1.4.6 1.7 1.6.3 1.1 1 4.6-.6 5.3-1 .5-1.4 0-1.4-1.2 0-2-.5-4 .3-5.7zm-.5-1.7c-2.5.6-2 3.9-1.8 6.8.1 1.3 0 2.6.9 3.4.8.8 2.3.9 3.5.4 3.7-1.8 2.2-11.8-2.6-10.6zm-98.6 10.9h-1c0-1.9-.2-5.2.5-6.7.9.1.8.1 1.2.7.6.9 1.1 6-.7 6zm-1.3-8.4c-.8.4-1.2.2-1.5 2.7-.2 1.8-.8 6.3.9 7.3 1 .6 2.6.5 3.6-.2 3.1-2.3 1.6-11.9-3-9.8zM61 192.9c-1.9 0 .5-4.6 1-6.5 1.4.3 1.2.8 1.2 2.9-.1 1.4-.7 3.6-2.2 3.6zm.3-8.1c-1 .4-1.1.4-1.8 2.6-.5 1.6-1.9 5.3-.8 6.7.6.7 2.3 1.2 3.6.8 3.8-1.5 4.1-12.2-1-10.1zm-19.5 8.9c0-.8.1-1 .7-1.2.4.8.2 1.3.2 2.4-.6-.2-.9-.5-.9-1.2zm.3-3.2c-3.7 1-2.7 6.8.8 6.2 3.2-.5 2-6.9-.8-6.2z"/>
    </g>
    <g fill="#FFF">
      <path d="M87.2 70.5c8.4-1.4 9.7 6 1.8 7.4-8.5 1.6-10.1-6-1.8-7.4zm20.5.3c.3-.5 2.4-3 3.2-3.4 2.5 1.5 1.7 2.5 8.5 1.6-.7 1.7-3.1 1.6-5.3 1.9-2.3.2-4.1.3-6.4-.1zM83 63.6c-.2.7-.2.9.1 1.4.2.9.9 1.3 1.5 1.8 3.5 3.1 2.6-2.4-.4-3.2-.1 0 .2-.2-.5-.2-1.2-.1-.4 0-.7.2zm16.5-.9c.3 2.1.2 3.8 1.3 5.5 3.1 4.7 8.4-.1 10.1-6.5 1-3.7.8-9.2-2-10.7-3.9-2-6.5 3.1-7.8 5.2-.1-2.3-.1-4.2-1.2-6.1-3.2-5.4-9.3 0-11 7.1-2.3 9.8 2.8 14.7 7.7 9.9 1.2-1 1.9-2.7 2.9-4.4zm9.7-21c-.2-2.5 4.9-2.2 5.7.4.2.7 0 1.8-.8 1.5-1.1-.3.1-.4-1-1.4-1.6-1.3-2.4-.2-3.9-.5zm-5-1.1c-1.8 0-.3-.8-1.6-1.7-.7-.5-1.7-.3-2.4-.4.2-2.6 5.5-.5 4 2.1zM75.1 70.8l-.3.2h-.2l-.3.2c-1.5.6-3.9 2.4-5.1 3.3-1.6 1.2-2.2 3.4-1.8 6.1 3.3-1.3 4.8-2.6 9.4-1.8 5.8 1.1 2.9 2.8 8.7 2.6L86 79c2.4.3.8 1 2 1.9 1 .7 9.7.2 10.9-.1 3.4-.7 7.3-3.4 11.2-4.4 10.5-2.8 13 .5 9.9 9.6-.8 2.3-4.7 7.3-6.4 9.2l-9 10.4c-.9.9-1 1.1-2.7 1.3-6.6.9-5.9-.9-10.9-4.3-1.6-1.1-2.7-2.7-4.9-2.5-3.4.3-2.9.8-5.3 2.6l1 .4c1.3.3 14.1 5.8 15.7 6.9 1.4.9.8 1.4 2.3 2.3 1.5.9 4.6 3.5 5.4 3.8.4-1.4 1.4-2.1 2.8-2.9 1.3-.7 3.9-.3 5.5-.3 1.4-7.8 1.9-7.6 6.4-11.4 1.2-1 1.6-4.1 2.3-6.6 2.9-11.2 4.4-15.8 9.5-26.1.8-1.5 2.4-4.8 2.8-6.3 0-.4-.1-.3.2-.3 1.1-2.9 3.5-7.5 3.2-10.9-2.7 1.4-3.9 3-7.5 3.5-3.8.5-7.2.7-8.9-2-1.2-2-1.8-6.9-1.2-9.5.6-2.7 2.3-6.5 2.6-8.7-2.2-1.5-2.4-.8-3.6-.3l.1-1.2c0-.7-.2-1 .2-.8-.1-.5.1-.3-.4-.4-.1.4.5.2-.3.4l-1.5.5-.3-5.1-4.9 4.5c-3 2.6-1.4-.6-7.6 1.1-1.7.5-4 3-5.3 4.3-1.7 1.6-3.3 3-5 4.6-1.8 1.7-6.8 8.3-8.3 10.6-2.8 4-4.5 8.9-4.1 15l1.1.7-.1 1.3c-2.5 1.1-3.2-.6-7.8 1zm57.5 50.2c.8.1 2.9-1 3.5-1.6-1.2-3.2-1.7-2.1-2.7-8.1-.7-4.4.5-5.4 2.1-8.6 2.4-4.8 5.4-9.5 7.9-14.1l4-7c1.8-2.4 5.4-.2 8.6-2.4l2.9-2.6c1.1-1 1.7-1.4 2.8-2.7 1.4-1.5 4.9-3.5 4.6-6.4-3.6-1-4.7.4-7.5 1.2 2.2-5.1 4.8-3.3 8.5-4.8.3-.8.3-.8.1-1.8-4.5-.6-6.7.9-9.2 2.6.3-.6.7-1.1 1.2-1.7 2.6-3.6 7-.4 6-3.8-4-.9-8.6 2.6-8.6 2.6l-.6-.1c-.1-.8 1.6-1.7 2.8-2.5 3.4-2.1 3.5-.4 3.2-2.5-1.7-1-5.8 0-6.7 3.7-4.2-1.2.6 1.2.8 4 .1 1.5-.6 2.4-1.2 3.4-.8 1.3-.8 1.7-2.7 1.8.3-2.1 1.7-1.7 2-4.3.4-3.3-.6-2.9-2.2-4.1.4-2.6 3.2-3.7 2.1-6.6-.9.1-2.7 1.9-3.4 2.7l-6.5 6.2c-1.7 1.6-1.7 1.1-2.5 3.9-2.2 7.6 1.8 6.9-1.1 10.2-5.7 6.5-5.6 6.2-10.1 15.3l-3.2 6.2c-1.4 2.6-.6.7 1.1 6.7 1.1 4.2 3.2 11.3 4 15.2zm-71.1-9.3c-.4.8-.3.9-.4 1.9 1.8-.1 2.9-.1 3.4 1.4-.6 1.3-1.9.7-3.7 2.8-1 1.1-2.3 2.1-3.1 3.3 3.4.3 4.8-1.1 7.2-2.6 1-.6 1-.5 1.3-2.1 2.6.1 5.1.4 7.7.5 3.1.2 9.2 2.7 12.4 3.9 4.3 1.6 2.3.8 5.8 2.6v-7.7c-2.5-1.7-6.1-3-9.6-4-4-1.2-8.8-.6-13.1-.6-1.6-1.8-2.5-3.3-4.1-5-1.3-1.3-1.6-1.7-2.8-1.8-1.4-.1-3.1.4-4 .9-.1 1.2.3 2.7 1.6 3.2 1.2.4.5.1 1.9 1.5l-.5 1.8z"/>
      <path d="M97.9 64.5c-.3-.2.2 0-.4-.1-2-.3-2.5-1.7-1.9-4.2.6-3 3.4-5.8 4.7-1.8 2.1-10.7-6.2-13-10-3.5-1.3 3.2-2.2 7.9-.3 11.1.7 1.3 2.2 2.6 4.4 1.7 2.3-.9 2.2-1.7 3.5-3.2zm-13.2 19c.8 1.4 1.6 2.3 2.4 4.1.7 1.6 1.3 3.2 1.9 4.7 4.4-.7 2.3-2.1 6-1.8 3.5.3 3.8-.1 6-1.7 1.5-1.2 3.1-2.4 4.5-3.6.9-.8 3.9-2.9 4-3.9-.8-.7-1.1-.4-2.6-.1-11.2 2-7.4 3.3-22.2 2.3z"/>
      <path d="M110.1 60.3c.3.2.2.1.6.3 0-1.5 1-8.4-3-9.1-5.1-1-9.8 11.1-6.5 16.1 2.6 3.9 6.2.3 7.4-1.9-3.5 2.4-3.7-2.9-2.3-5.4 1.1-2 3.6-3.2 3.8 0zm-65.9 35c-.3 2.5 3.6 6 4.7 7 3 2.6 4.5 3.2 8.7 3.3l.8-2.4-6.4-5.3c-1.4-1.2-5-4.5-7.8-2.6zm5 16.8c.9-.6 1.1-.7 2.6-.5.5.1 1.1.1 1.6.2l1.4-.1.2-1c-1.2-.8-2.3-.6-2.9-1.7 1-3.1 4.5 2.2 5.6 1.2.8-.8-.7-3.5-1.8-3.8-2.2-.7-6.3.4-7.4 1.4-1.4 1.3-2.3 4.3-.8 7 .5.9.6 1 2 1.2 1.8.2 4.2-.6 4.1-2.2-.2-1.7-3.2-.8-4.6-1.7zm49.1-7.1c1.9.3 2.6.1 4-.8 1.9-1.2 4.1-3.2 5.7-4.6 1.1-1 1.7-1.5 1.4-3.8-2-1.1-5.3 1.1-5.6 1.4-.6.7-.3 1.3-1.2 1.7-.4.2-5.7.9-4.3 6.1zm56.8 117.3c1.4-.1 2.2-.3 3.5.1l.1 1.6c-.4.3-.8.5-1.6.6-1.2.2-1.4.2-1.9-.2l-.1-2.1zm-1.8-.9c-.2 1.1.4 7.2.9 8.1 2.3.5 1.1-1.8 1.3-3.7 3-.1 2.9 1.9 4.3 3 .8.6.9.3 1.3-.2.4-1.1-1.8-2.7-2.4-3.4 3.7-1.8 1.9-6-5.4-3.8zM66.2 212h1.3c1.2 0 2.5 0 2.4 1.3-.1 1.2-1.5 1.1-2.6 1.1h-1V212h-.1zm-1.4 7.3c1 .1 1.3.1 1.4-.9.1-.6 0-2 0-2.8 2 0 2.2.5 3 1.8.5.8 1.2 2.5 2.3 1.7.9-.9-1.2-2.6-1.8-3.6l1.6-1.2c.5-.8.4-1.7 0-2.4-.8-1.3-2.8-1.1-4.6-1.1-2.9 0-2.3.5-2.3 3.3 0 1.6-.2 4 .4 5.2zm20.8-5.6c3.9-1.4 4.4 4.6 1.8 5.7-3.8 1.7-4.8-4.6-1.8-5.7zm-.3-1.3c-5.3 1.4-3.9 9.8 2.4 8.5 5-1.1 3.7-10.1-2.4-8.5z"/>
      <path d="M170.3 226.3c.1-1.1-.1-2.1-.5-3-1.2-.2-3.9-.1-3.6 1.2 1.7.7 2.5-1.2 2.5 1.4-4.6 4.1-7.5-4-3.5-5 2.3-.6 2 .9 3.5 1.1.3-.3.3-.2.6-.5-.2-3.2-8.2-2.6-7.7 2.7.4 5.1 5.9 4.5 8.7 2.1zm-56.8-.6c1.4-1.3-.3-2.7 2.7-3.6.3 1 .8 1.9 1.2 2.9.3.7 1 2.5 2 1.3.7-.7-1.5-4.1-1.8-5.1.3-.4.3-.3.8-.7 1.2-.8 2.1-.9 2-2.1-1.5-.8-3.2 1.4-5.6 2.8 0-.9.6-3 .2-3.6-1.5-2.4-2.2 4.1-2.4 5.4-.3 1.5-.9 2.7.9 2.7zm-66-9.5c-.3-1.5-.2-4.8-1.9-3.4-.5 1 .2 3.7.4 5 .2 1.4.2 4.2 1.8 2.9 1-1.7-1-2.3 1.4-4 .6.8 1.3 1.3 1.9 2.1.5.6 1.2 2 2.3 1.2 0 0 .8 0-.1-1.2l-3.2-3.3c.3-.8 1.1-1.5 1.7-2.2 1-1.4 0-1.9-.9-1.3-.2.1-1.4 1.7-1.7 2.1-.5.8-.9 1.6-1.7 2.1zm45.9 5.8c1.1-2-.4-2.4 2.4-3.6.4.9.8 1.7 1.3 2.8.5 1 .7 2.2 2 1.6.7-.6-.3-2-.7-2.7-.5-.9-1-1.7-1.2-2.6 1.1-1.2 2.9-1.3 2.8-2.9-1.3-.6-1.9.3-2.9 1.1-.8.6-1.8 1.5-2.7 1.8.1-.7.6-2.9.3-3.5-.1-.3-1.3-1.6-1.8 1.4-.7 4.7-1.8 6.6.5 6.6zm14.3 2.2c0-1.4-1.5-1.3-4.7-1.8l.3-2.4 3.3.5c1.8.1 2-.9-.3-1.3-.9-.2-1.8-.3-2.7-.4l.3-2.1c1.4.1 3.5.7 4.3.6.5-.1.3 0 .6-.2 1-1.3-5.7-1.7-6.2-1.6-.3.7-1.4 6.3-1.4 7.1.1 1.2 1.7 1.2 2.8 1.3 1.2.1 2.7.7 3.7.3zm13.8 2.7c.2.1 5.7 1.6 6.3.7.7-1.1-3.6-1.4-4.7-1.5l.3-2.5c1.4.1 3.3.9 4.5.3.3-1.3-2-1.3-4.2-1.5l.2-2.2c1.5.1 4.1 1.1 5 .2-.2-.8-.2-.7-1.1-.9l-1.9-.3c-1-.2-2.8-.8-3.4 0-.3.6-1.1 6.9-1 7.7zm20 1.1c-6.7 1.8-.8-8.6-4.3-7.2-.9.4-.8 4.1-.8 5.2 0 1.9.7 2.9 2.4 3.3 5 1.3 5-2.2 5.2-6.2.2-2.9-1.6-3.2-1.7-.1-.2 2.1 0 3.6-.8 5zm-65.7-11.5c.2-.8.3-1 .7-1.8.7-1.6.5-1.1 1-1.5l.9 3.4-2.6-.1zm-3 2.6c1 1 1.5.6 2.2-1.5.6 0 3.4 0 3.8.5.3.7.4 2.2 1.5 1.9 1.1-.3.3-1.8 0-2.6-.6-1.6-1.8-8.1-4-5.8-.2.4-3.4 6.6-3.5 7.5zm74.3 7.5c.2-.9.7-2.5 1.2-3.2.1.1.2.2.3.5l.5 1.2c.2.6.4 1 .6 1.5h-2.6zm-.4 1.2l3.6-.1c.5 1.3.6 2.4 2.2 1.9.3-1.2-1.3-3.9-1.8-5.2-.5-1.2-1.9-5.1-3.4-2.5-.6 1-1.6 3.9-2.1 5.3-.3.9-1.2 2.3-.1 2.6 1 .4 1.2-1.3 1.6-2zm-88.3-14.4c.4-.7.2-.3.5-.6.3 1.1 1.1 2.3 1.2 3.4l-2.5.1.8-2.9zm-3.3 6.1l1.1.2.9-2.2 3.7-.1c.3.9.5 2.2 1.6 2 1.2-.2.3-1.7 0-2.3-2.5-5.2-3.3-9.4-5.7-3-.6 1.3-2.1 4.3-1.6 5.4zm118.2-.2c.9.7 1.8 1.9 2.2 2.9l-2.5.7.3-3.6zm-1.9 7.2c1.5.9 1.1-1.3 1.6-2.2l3.5-1.1c.7 1.3 1.1 2.4 2.4 1.2-.1-1.2-5.1-6.7-5.1-6.8-2.1-1.1-2 1.9-2.2 3.4l-.5 4.1v.9l.3.5zm-62.4-94c.3.1 13.7-6.2 14.6-7l-4.8-.2-1.6 1.2c-2.4 1.4-3.8 1.8-6.8 1.8l-1.4 4.2zm22.4 94.5c.1-1.5.3-3 .5-4.5.1-.6.3-1.5 0-2.1-.2-.5-.8-.6-1.2-.2-.6.6-1.2 6.8-1.1 8 .8.3 2 .4 3 .5.5.1 1 .2 1.5.2 1.2.1 1.2-.1 1.4-.4.8-1.1-2.5-1-3.6-1.3-.5-.1-.3 0-.5-.2zM43.9 93.4l1.2-.5c-.9-.3-.7-.3-1.2.5z"/>
    </g>
    <g fill="#4977BC">
      <path d="M146.7 227.8c-.4.7-.6 2.4-1.7 2.1-1.1-.3-.3-1.7.1-2.6.6-1.4 1.5-4.3 2.1-5.3 1.6-2.6 2.9 1.2 3.4 2.5.6 1.3 2.1 4 1.8 5.2-1.5.5-1.6-.7-2.2-1.9h-3.5zm-3.5 6.4l9.2-.5c2.9-.3 5.8-.8 8.6-1.2 7-.9 18-3.3 24.3-5.4 2.5-.8 5-1.7 7.1-2.7l4.8-2.6c.7-.4.8-.7 1.9-.8l-5.9-1.6c-2.3-.5-3.9-.5-4.1-3.1-.3-3.5 4.1-5.1 4.2-9.7-.9.2-1.9.7-2.7 1.1l-5.5 2.2c-5.7 1.9-8.5 2.9-15 4.2-8.1 1.6-18.4 2.8-28.1 2.8-12.7 0-34.4-4-46.8-6.5-21.2-4.3-40.3-5.8-61.2 1.2l-11.8 4.5c-.7.3-1.7.8-2.4 1v.5c1.1 0 5.9 1.2 7.2 2.8 1.5 1.8 2.2 2-.3 6-.4.7-3.1 3.3-4.3 5.3 2.3 0 2.2-.1 4.7-1.3 9.5-4.6 24-8.1 34.9-8.1 8.2 0 13.6.4 21.4 1.9l41 8.4c4.3.6 13 1.4 17.7 1.5h1.1v.1zm-1.7-6.2c-6.7 1.8-.8-8.6-4.3-7.2-.9.4-.8 4.1-.8 5.2 0 1.9.7 2.9 2.4 3.3 5 1.3 5-2.2 5.2-6.2.2-2.9-1.6-3.2-1.7-.1-.2 2.1 0 3.6-.8 5zm29.7-2v-.9l.5-4.1c.2-1.5.1-4.5 2.2-3.4.1 0 5 5.6 5.1 6.8-1.3 1.2-1.7.1-2.4-1.2l-3.5 1.1c-.4.9-.1 3.1-1.6 2.2l-.3-.5zm-17.9-4.6c7.3-2.2 9.1 2 5.3 3.9.6.7 2.9 2.2 2.4 3.4-.4.5-.6.7-1.3.2-1.4-1.1-1.3-3.1-4.3-3-.1 1.9 1 4.2-1.3 3.7-.4-.9-1-7.1-.8-8.2zm-21.9 5.6c.3.2 0 .1.6.3 1 .3 4.4.2 3.6 1.3-.2.3-.2.4-1.4.4-.5 0-1-.2-1.5-.2-1.1-.1-2.2-.2-3-.5-.2-1.2.4-7.5 1.1-8 .4-.4 1-.2 1.2.2.3.6.1 1.5 0 2.1-.4 1.4-.6 2.9-.6 4.4zm38.9-.7c-2.8 2.4-8.3 3-8.7-2.2-.5-5.4 7.5-6 7.7-2.7-.3.3-.3.3-.6.5-1.5-.1-1.2-1.7-3.5-1.1-4 1-1.1 9.1 3.5 5 0-2.6-.8-.6-2.5-1.4-.3-1.3 2.4-1.4 3.6-1.2.4 1 .6 2 .5 3.1zm-48.8.6c-.2-.9.7-7.1 1.1-7.6.6-.7 2.5-.1 3.4 0l1.9.3c.9.2.9.1 1.1.9-.8.9-3.5-.1-5-.2l-.2 2.2c2.2.2 4.5.2 4.2 1.5-1.1.5-3.1-.2-4.5-.3l-.3 2.5c1.1.1 5.3.4 4.7 1.5-.7.8-6.1-.7-6.4-.8zm-8-1.2c-1.7-.1-1.2-1.2-.9-2.7.2-1.3.9-7.9 2.4-5.4.4.6-.3 2.7-.2 3.6 2.4-1.4 4.1-3.6 5.6-2.8 0 1.3-.9 1.3-2 2.1-.5.4-.5.3-.8.7.4 1.1 2.6 4.4 1.8 5.1-1 1.2-1.6-.6-2-1.3-.4-1-.9-1.9-1.2-2.9-3 .9-1.3 2.3-2.7 3.6zm-28.2-13.3c6.1-1.6 7.3 7.4 2.4 8.5-6.2 1.3-7.6-7.1-2.4-8.5zm-12.5 6.7c.1-.9 3.2-7.1 3.5-7.4 2.2-2.4 3.4 4.1 4 5.8.3.8 1.1 2.3 0 2.6-1.1.3-1.2-1.3-1.5-1.9-.4-.5-3.2-.5-3.8-.5-.6 2-1.1 2.5-2.2 1.4zm-17.7.4c-.5-1 1-4.1 1.5-5.5 2.4-6.5 3.3-2.2 5.7 3 .3.7 1.3 2.1 0 2.3-1.1.2-1.3-1.1-1.6-2l-3.7.1-.9 2.2-1-.1zm52.6 4.7c-1 .4-2.5-.1-3.8-.3-1.1-.2-2.7-.1-2.8-1.3 0-.8 1.1-6.4 1.4-7.1.5-.1 7.2.3 6.2 1.6-.3.2-.1.1-.6.2-.8.2-2.8-.5-4.3-.6l-.3 2.1c.9.1 1.7.3 2.7.4 2.3.4 2.1 1.5.3 1.3l-3.3-.5-.3 2.4c3.3.4 4.8.3 4.8 1.8zM93.4 222c-2.3 0-1.2-1.9-.5-6.7.4-2.9 1.6-1.7 1.8-1.4.3.6-.2 2.8-.3 3.5.9-.3 1.9-1.1 2.7-1.8 1-.7 1.6-1.7 2.9-1.1.1 1.6-1.7 1.7-2.8 2.9.3.9.8 1.7 1.2 2.6.4.7 1.4 2.1.7 2.7-1.3.6-1.6-.6-2-1.6-.5-1-.9-1.9-1.3-2.8-2.8 1.2-1.3 1.7-2.4 3.7zm-28.6-2.7c-.6-1.2-.4-3.5-.4-5.2 0-2.8-.6-3.3 2.3-3.3 1.8 0 3.8-.2 4.6 1.1.4.6.5 1.6 0 2.4l-1.6 1.2c.6 1 2.7 2.7 1.8 3.6-1.1.8-1.8-.8-2.3-1.7-.8-1.3-1-1.8-3-1.8 0 .7.1 2.1 0 2.8-.1.9-.4 1-1.4.9zm-17.3-3.1c.8-.6 1.2-1.4 1.7-2.1.3-.5 1.5-2 1.7-2.1.8-.6 1.9 0 .9 1.3-.5.7-1.3 1.4-1.7 2.2l3.2 3.3c.9 1.2.1 1.2.1 1.2-1.1.9-1.8-.5-2.3-1.2-.7-.8-1.4-1.3-1.9-2.1-2.5 1.8-.4 2.3-1.4 4-1.6 1.3-1.6-1.5-1.8-2.9-.2-1.3-.9-4-.4-5 1.7-1.4 1.6 2 1.9 3.4z"/>
      <path d="M85.6 213.7c-3.1 1.1-2 7.3 1.8 5.7 2.7-1.1 2.1-7-1.8-5.7zm-19.4.7h1c1.2 0 2.5.1 2.6-1.1.1-1.3-1.3-1.3-2.4-1.3h-1.3v2.4zm88.9 10c.6.3.8.4 1.9.2.7-.1 1.1-.3 1.6-.6l-.1-1.6c-1.3-.4-2.1-.2-3.5-.1l.1 2.1zm17.8-1.5l2.5-.7c-.4-1-1.4-2.2-2.2-2.9l-.3 3.6zm-115.4-6.7l2.5-.1c0-1.1-.8-2.3-1.2-3.4-.3.3-.1-.1-.5.6l-.8 2.9zm89.6 10.4h2.6c-.2-.6-.3-1-.6-1.5l-.5-1.2c-.2-.3-.2-.3-.3-.5-.5.6-1 2.3-1.2 3.2zm-71.3-10.1l2.5.1-.9-3.4c-.5.4-.3-.1-1 1.5-.3.8-.5.9-.6 1.8z"/>
    </g>
    <g fill="#31AE4D">
      <path d="M185.9 117.6c-.5-.5-1.2-1.5-1.6-2.2l-3.4-4.8c-.6-.8-1.2-1.6-1.6-2.4l-9.2 6.1c-6.4 4.3-23.4 15.3-28.9 18.1-5.3 2.7-4.5 2.6-11.1 4.5-1.1.3-3.1 1-4.2 1.1l-.5.2h-.4l-.2.2c-1.4.2-4.5 1.8-6.1 2.5-2.1.9-4 1.6-6.1 2.5-24.7 9.8-60.5 18.6-86.8 12.2-6.7-1.6-7.1-2.5-12.3-4.7 0 2.6-.6 2.9.1 7 .4 2.1 1.2 4 2.3 5.4 2.6 3.5 5.7 5 10.4 5 10.4 0 20.2-.2 30.7-.2-.5-.3-4.2-1.8-6-2.8 3.1.4 6.5 1.1 10 1.4 22.9 2 47.7-4.3 68.3-12.7 11.4-4.7 21.1-10 30.6-15.9 2-1.2 11.5-7.7 13.7-9.6 1.2-1 2-1.5 3.2-2.6 2-1.8 4.8-3.9 6.3-5.5.8-.9 2.3-1.9 2.8-2.8zm-57.5 44.1c-.3.3-.3.3-.7.5-.5.2-.6.2-1.2.3-.3.2.4.2-.7.2-.5.4-.4.4-1.2.5-.3.2.4.2-.7.2-.3.2.4.2-.7.2-.3.2.4.2-.7.2-.3.2.4.2-.7.2-.3.2.4.2-.7.2-.3.2.4.2-.7.2-.3.2.4.2-.7.2-.3.2.4.2-.7.2-.3.2.4.2-.7.2-.3.2.4.2-.7.2-.3.2.4.2-.7.2 0 0-.1 0-.1.1s-.1.1-.2.1c-.3.1-.3.1-.7.1-.3.2.4.2-.7.2-.3.2.4.2-.7.2-.5.3.5 0-.6.3-.6.2-.4.1-1.1.1l-1.6.6c-.8.2-1.2.3-1.9.5l-3.4.9s-.1.1-.2.1c0 0-.1 0-.2.1h79.7c6 0 11.4-.4 16.2-3.7 1.8-1.2 3.4-3.5 3.7-6.1.4-3.4-.7-6.2-1.6-8.4-.9-2.2-13.6-25.1-14-25.9l-6.3 5.7c-.6.6-.9.8-1.6 1.3l-1.7 1.4c-3.9 3.1-10.1 7.8-14.3 10.2l-17.7 9.9-10.6 4.8c-1.6 1.1-7.7 3.7-8.9 3.8z"/>
      <path d="M96.2 137.3c-1.9-4-2.2-3.5-3.7-8.5-.4-1.4-.3-2.4-.5-3.5-1.5-1.1-9.1-3.7-11.4-4.5-4.5-1.5-8.7-2.3-13.8-1.4-1.2 2-1.5 2.8-4.4 3.5-2.9.8-4.3.5-7.1.3l-.8 1.6c-1 .2-1.1.3-2.1 0-.1 2.3.7 2.6-2 2.7-.5.5-.1 1-2.6 1-4.3-.1-4.4-2.3-3.6-6.1l1.9.1c-.1-2 .2-1.9 1.4-2.7l.2-2.4c.5.1.3 0 .7.2l.3-.2c1-.3 1.9.1 2.9-.3l-4 .1c-.7-1.6-2.7-2-1.5-6.9.3-1.1 1.1-1.9 1.8-2.8 2.5-3 .6-.9 2.4-2.2l-4.9-4.2c-.8-.7-.6-.9-1.6-1.3l-17.4 30.1c-.5.8-1 1.3-1.1 2.3.6.2 4.5 2.9 6.7 3.8 3.2 1.4 4.4 1.8 7.7 2.9 2.5.8 6 1.5 8.7 1.9l7.1.8c4.1.1 8.8.5 13 0 3.6-.4 5.5-.1 10-.8 4.3-.7 9.1-1.5 13.3-2.5 1.2-.3 3.2-.9 4.4-1zm43.8-17.6c6.8-4.1 10.2-5.7 17.3-10.5 1.4-1 2.7-1.9 4.1-2.8l6.9-5.1c1.1-.9 4.5-3.5 4.8-4.1l-11.3-19.6c-.9.4-1.5 1.3-2.4 1.9-3.7 2.9-.9 2.2-6.5 2.3-2.3 0-2.3 0-3.6 1.1-1.4 1.2-5.6 8.6-7 11-3.5 6.1-7.7 12.7-5.7 20.2 1.2 4.8 3.2 2.4 3.4 5.6zM95.5 10.8c.5.6 4.3 2.7 5.8 5.9s-.6 6.9-.8 10.4c4.2 1.8 2 2.1 3.8 4.7 2.9-1.3 3.7-.6 6.8-.8l8.8-9.6c.6 1.8.1 3.3.4 5.1.3-.6 2.1-2.1 3.3-2.3.6-.4.3-.3 1.2-.2l-.3.8c.1 2.5-1.2 2.7-.9 6.3l1.6-1 .1 1.6 1.8.8 5-5.5-1.3-2.2-8.1-13.8c-1.5-2.4-3.5-6.4-5.3-8.2-4.8-4.7-12.4-3.3-17.3 1.1-.6.5-.9.6-1.3 1.1-.6.6-1.3 2-1.8 2.8-.3 1-1 2.1-1.5 3zM70 54.7c-.3.8-1.3 2.4-1.7 3.1l-.3.2-17.8 30.8c-.9 1.4-1.6 3.1-2.6 4.3.5.5.7.5 1.5.9 3.3 1.4 5.2 2.9 7.8 5.3 1.6 1.4.7 1.6 3.6 1.8.2-.5.1-1.2 1-2.2.6-.7 1.2-1 1.7-1.6l-.7-1.5v-.4c-.4 0-.2.1-.3-.4-.7-3.1-.5-6.4.9-9.1 1-1.9.3-2.7.5-5 .4-4.6 2.8-8 6.5-10.4 3.1-2.1 4.3-2 8.1-3.2 1.2-7-1-6 4.6-14.8 1.5-2.4 6.1-9.2 8.1-11.1-3.9-.5-9.4-1.3-8.7-7.3l-.1.1-.7 1c-.3.5-.5.9-.8 1.3-.6 1-.9 1.6-1.5 2.6L71.6 52c-.6 1-1.2 1.7-1.6 2.7zm79 1.2s-.1-.2-.1-.1l-.9-1.5c-.7-1.2-2.8-4.6-3.1-5.5l-4.8 1.3c.4 3 .5 2.2-1.2 6.5l-7.1 17.9c-2.1 4.9-2.8 5.9-4.9 11.7-1.2 3.2-3.6 9.6-3.9 13.1 1.4-.4 1-.3 2.2-2.4.5-.9 1.1-1.8 1.6-2.7 1.1-1.9 2.2-3.7 3.3-5.6 1.1-1.8 2.2-3.7 3.4-5.5 2.4-3.7 3.5-4.5 5.9-7.3 1.5-1.8-2.1-5.7 1.2-10.5l6.2-7c.8-.8 2-1.2 2.2-2.4zm-75.8 48.5c-1.1 1.7-1 3.8-2.6 4.7 2.6.5 4.9-.1 11.8 1.3 3.4.7 7.4 1.5 10.7 2.5.6-3.7.5-3.3-2.7-4.3-2.6-.9-9.2-2.9-11-4.2-1.4-1.1-1.1-.1-6.2 0zm35.8 28.1l-.6 1.2h.6l.5-.3h.2l.5-.2h.2l.5-.2h.2l.2-.2h.5l.2-.2c1.7-.3 14.7-5.6 15.8-6.8l-4.3-.2c-.8.7-14.2 7-14.5 6.9zm23.6-11.5l.2 2.4c1.1-.5 4.4-2.1 5.1-2.8h-1l-.8-1.2c-.7.6-2.7 1.7-3.5 1.6z"/>
    </g>
    <g fill="#0270B4">
      <path d="M196.8 24.5c.1-.1 0-.1 0 0zm19 23.7v2.6c-.3 6.4-2.7 12.6-5.8 18.8-2.1 4.1-6.8 11.3-9.8 14.7l-6.4 7.3c-.5.6-1.1 1.1-1.7 1.7-9.4 9.4-19.4 17.5-30.7 25-5.1 3.4-23.7 14.7-31.1 17.6l-4.5 2.2-.5.2h-.3l-.2.2c-1.4.2-4.5 1.8-6.1 2.5-2.1.9-4 1.6-6.1 2.5-24.7 9.8-60.5 18.6-86.8 12.2-6.7-1.6-7.1-2.5-12.3-4.7-.6-.5-1.2-.7-1.8-1.1-3.8-2.5-7.2-6.1-9.2-10.2-1.6-3.2-2.3-6.5-2.4-9.9v-1.9c.3-9.2 4.8-18.7 9.7-26 .8-1.2 1.5-2.1 2.3-3.3 1.7-2.5 3.2-4.1 4.8-6.2l5.3-5.9c1-1 1.7-1.7 2.7-2.8l14.6-13c3-2.5 23.3-17.1 26.3-17.8-.5.6-1.3 1-2.1 1.5-5.5 4-11.1 8-16.2 12.6-.4.4-.5.5-1 .9-2.1 1.7-6.2 5.8-8.2 7.8l-3.4 3.6c-.8.8-1 1-1.7 1.9-.3.4-.6.6-.9 1-3.6 4.2-6.9 8.8-9.7 13.6-7.8 13.5-11.7 29.9 2.7 40.8 5.9 4.5 13.7 6.3 21.2 7.3 15.7 2.2 32.4-1.4 47.3-5.2.9-.2 1.7-.5 2.7-.8 2.1.8 4.8 2.8 6.8.6.6-.7 4.1-3.9 4.7-4.4l.2-.3c1.1 0 .5 0 .7-.2l.5-.3h.2l.5-.2h.2l.5-.2h.2l.2-.2h.5l.2-.2c1.7-.3 14.7-5.6 15.8-6.8.7 0 2.7-.1 3.4-.2 1.3-.2 1.4-.7 1.6-2 1.1-.5 4.4-2.1 5.1-2.8l2-.3.1-.7c6.8-4.1 10.2-5.7 17.3-10.5 1.4-1 2.7-1.9 4.1-2.8l6.9-5.1c1.1-.9 4.5-3.5 4.8-4.1 1.7-1 4.8-4.2 6-5.2 2.6-2.1 9.1-8.7 11-11.1l4.9-6.1c5.6-7.5 10.3-15.5 12.1-24.8.4-2.3.4-4 .5-6.7.1-12.3-9.8-17.7-10.6-18.7 1.5.3 3.5 1.5 4.8 2.2 3.9 2 8.6 6.2 10.7 10.2 2.2 3.6 3.2 7.4 3.4 11.2zM66 52.8c.1 0 1.1-.4.2-.4-.3.1-1 .4-.2.4zm.7-.5c.6 0 0-.4 0-.1 0 0-.6.1 0 .1zm.5-.2c-.1-.1 0 0 0 0z"/>
      <path d="M185.9 117.6c-.5.9-2 2-2.9 3-1.5 1.6-4.3 3.7-6.3 5.5-1.2 1-2 1.5-3.2 2.6-2.2 1.9-11.7 8.4-13.7 9.6-9.5 5.9-19.2 11.2-30.6 15.9-20.6 8.4-45.3 14.7-68.3 12.7-3.5-.3-6.9-1.1-10-1.4 1.8 1 5.5 2.5 6 2.8 1 .2 1.9.6 2.9.9 1.1.3 2 .6 3.2.9 9.3 2.2 19.8 2 29.4.9l13.5-2.3c1.8-.4 5-1.5 6.6-1.5.5-.3-.5 0 .6-.3.6-.2.4-.1 1.1-.1.3-.2-.4-.2.7-.2.3-.2-.4-.2.7-.2l.1-.1c0 .1.1-.1.2-.1.3-.1.3-.1.7-.1.3-.2-.4-.2.7-.2.3-.2-.4-.2.7-.2.3-.2-.4-.2.7-.2.3-.2-.4-.2.7-.2.3-.2-.4-.2.7-.2.3-.2-.4-.2.7-.2.3-.2-.4-.2.7-.2.3-.2-.4-.2.7-.2.3-.2-.4-.2.7-.2.3-.2-.4-.2.7-.2.3-.2-.4-.2.7-.2.5-.4.4-.4 1.2-.5.3-.2-.4-.2.7-.2.3-.3.3-.3.7-.5.5-.2.6-.2 1.2-.3l3.5-1.6c8.4-3.5 16.8-7.7 24.5-12.4 7.6-4.6 11.6-7.7 18.4-13 5.3-4.2 11.7-10.5 16.2-15.3.5-.6.6-.9 1.2-1.4 7.3-7.7 15.5-21.8 17.8-32.4.5-2.2 1.3-7.2.8-9.3l-.1.3c-.5 1.7-.4 3.1-1.5 6.2-.7 2.2-1.3 4-2.2 6-.4.9-.8 2-1.3 2.8-3.3 6.7-10.4 16.5-15.5 21.7-1 .5-2.6 2.8-4 3.6zm-30.1-97.5l.8.7-.1 2.9c2.1 0 10.1-.7 11.4-.1.8-.3 2.3-.8 3.4-.8 1.5 0 2 .7 2.9 1.2 10.9 1.4 20.1 5.5 24.8 13 4.3 6.9 3.5 15.1.7 22.9-.4 1.2-.9 2.2-1.4 3.4-.5 1.1-1.3 2.2-1.5 3.3.8-.6 1.7-2.9 2.2-4 5.5-11 7.1-23.9-2.3-33.4-5.4-5.4-16.8-9.4-25.4-9.4-2.6 0-5.2-.6-9.3-.2l-6.2.5zm40.5 46.6c.4-.4.1.3.1.3.3.6-.3 0-.1-.3zm-.2.5c-.1 0-.7.7 0 .5.4-.2.4-.6 0-.5zm-.5.7c.4-.4.1.3.1.3.3.6-.4 0-.1-.3zm-.2.5c-.3.3.4.9.1.3 0-.1.3-.7-.1-.3zm-.3.5c.1 0 0 0 0 0zm-.2.2c.4-.4.1.3.1.3.3.6-.4 0-.1-.3zm-.3.5c-.3.3.4.9.1.3.1-.1.3-.7-.1-.3zm-.2.5c.1 0 0 0 0 0zm-.2.2c.4-.4.1.3.1.3.2.6-.4 0-.1-.3zm-.3.5s.1 0 0 0zm-.2.2c-.3.3.4.9.1.3 0 0 .3-.7-.1-.3zm-.3.5c.1 0 0 0 0 0zM67.9 58.1c0-.4-.1-.2.3-.2.4-.7 1.4-2.3 1.7-3.1L62 60.7c-1.3 1.1-2.5 2.1-3.8 3.1-3.9 3.1-7.4 6.9-10.9 10.4l-1.7 1.7c-.7.8-4.6 5-4.9 5.9 1.1-.7 1.8-2 3.1-3.2l3.1-3.4c.7-.7 1-.8 1.7-1.4.6-.5 1-1 1.6-1.6 2.8-2.7 14.5-12.4 17.7-14.1zM39.8 83c.2-.8.3-.8 1-1.2-.2.8-.3.8-1 1.2zm-.2 0s.1.1 0 0c.1.1 0 0 0 0zm-.2.3c-.1 0-.7.7 0 .5.4-.2.4-.6 0-.5zm-.5.7s0 .1 0 0c.1 0 0 0 0 0zm-.3.2c0 .1.1.1 0 0zm-.2.3s.1 0 0 0c.1 0 0-.1 0 0zm92.5-59.6l1.3 2.2 3.5-3.4c-1.7.4-3.1.9-4.8 1.2zM193 72.5c0-.1-.1-.1 0 0z"/>
    </g>
    <path d="M49.4 126l-.3-.1c.1.4.3.4-.2.3-.1 0-.1.1-.2.1 0 0-.1.1-.2.1-.5.1.2 0-.4.1-.6 0-1.9.1-2-.3-.4-.3-.3-.6-.4-1.3 0-.3-.1-.7 0-1 .1-.5 0-.3.3-.5l.8-.2c.1-1.3.2-2.2.9-3.1 1.9-.4 4 1.5 4.4 2.6.5 1.4-.3 1.5-.9 2.3-.5.6-.8 1.4-1.8 1zm54.4-1.7l.2.2c1.8 0 4.2-.4 5.1.9.8 2.4-.4 5.9-1.6 7.5-.8 1.1-3.8 3.4-5.1 4.3-2.8 2-3.6.8-5.5-1.8-3.2-4.4-2.9-10.9-2.7-15.9.2-5 0-6.4 2.9-6.2 2.4.1 4.8 2.2 5.9 3.5 3.4 3.5 4.5 5.6.8 7.5zm8.2 2.4c3.7.2 5.4-1.6 4.2-5.3-.6-1.8-.8-2.2-1.8-3.5-1.8-2.4-1.9-4.5-6.4-2.2-4.1 2 2.1 6.2 2.6 10.4.1 1 .5 1.1 1.4.6zm13.9-9.5c-1 1.2-1 1.7-3 2.2-1.4.4-3.2.4-4.7.1-2-.4-3.3-4.6-3-7.2.8-5.9 3.4-6.3 6.3-9.5 5.4-5.9 7.3 8.4 8.8 14.3.8 3.2 2.1 7.1-1.4 7.5-1.7.2-8.5.1-9.9-.4l-.1-2.5c1.2-.2 3.3-.9 4.5-1.3 1.9-.6 2.6-1 2.5-3.2zm-52.7-12.8c5.1-.1 4.8-1.1 6.3 0 1.7 1.3 8.3 3.3 11 4.2 3.2 1.1 3.3.7 2.7 4.3-3.3-1-7.3-1.9-10.7-2.5-6.9-1.4-9.1-.8-11.8-1.3 1.5-.9 1.4-3.1 2.5-4.7zm-24 7.7c1.4 1 4.4 0 4.5 1.7.1 1.6-2.3 2.4-4.1 2.2-1.4-.2-1.5-.2-2-1.2-1.4-2.7-.5-5.7.8-7 1.1-1 5.2-2.2 7.4-1.4 1 .3 2.6 3 1.8 3.8-1 1-4.6-4.3-5.6-1.2.6 1.1 1.7.9 2.9 1.7l-.2 1-1.4.1c-.5-.1-1.1-.2-1.6-.2-1.4-.2-1.6-.2-2.5.5zm49.1-7.1c-1.4-5.2 3.9-5.9 4.4-6.2.9-.5.5-1 1.2-1.7.2-.3 3.6-2.5 5.6-1.4.3 2.3-.3 2.8-1.4 3.8-1.6 1.4-3.8 3.5-5.7 4.6-1.5 1-2.2 1.2-4.1.9zm-54.1-9.7c2.8-1.8 6.4 1.5 7.9 2.6l6.4 5.3-.8 2.4c-4.2-.1-5.7-.8-8.7-3.3-1.2-1-5.1-4.5-4.8-7zm20.9-10.7c.2-.3.6-.6.8-.9.6-.6 1-1 1.6-1.5 3.7-3.3 9.6-3 13.9-.1 6.2 4.3 5.8 13.7 1.7 17.3-1.2-3.6-3.3-8.8-5.5-10.6-4.1-3.5-6.3-2-12.8-3.2l.3-1zm19.6-1.1c.8 1.4 1.6 2.3 2.4 4.1.7 1.6 1.3 3.2 1.9 4.7 4.4-.7 2.3-2.1 6-1.8 3.5.3 3.8-.1 6-1.7 1.5-1.2 3.1-2.4 4.5-3.6.9-.8 3.9-2.9 4-3.9-.8-.7-1.1-.4-2.6-.1-11.2 2-7.4 3.3-22.2 2.3zm49.9-21.2c1.1-2.9 3.5-7.5 3.2-10.9-2.7 1.4-3.9 3-7.5 3.5-3.8.5-7.2.7-8.9-2-1.2-2-1.8-6.9-1.2-9.5.6-2.7 2.3-6.5 2.6-8.7-2.2-1.5-2.4-.8-3.6-.3l.1-1.2.2-.8c-.1-.5.1-.3-.4-.4l-.3.4-1.5.5-.3-5.1-4.9 4.5c-3 2.6-1.4-.6-7.6 1.1-1.7.5-4 3-5.3 4.3-1.7 1.6-3.3 3-5 4.6-1.8 1.7-6.8 8.3-8.3 10.6-2.8 4-4.5 8.9-4.1 15l1.1.7-.1 1.3c-2.5 1-3.2-.6-7.8.9l-.2.2h-.2l-.3.2c-1.5.6-3.9 2.4-5.1 3.3-1.6 1.2-2.2 3.4-1.8 6.1 3.3-1.3 4.8-2.6 9.4-1.8 5.8 1.1 2.9 2.8 8.7 2.6L86 79c2.4.3.8 1 2 1.9 1 .7 9.7.2 10.9-.1 3.4-.7 7.3-3.4 11.2-4.4 10.5-2.8 13 .5 9.9 9.6-.8 2.3-4.7 7.3-6.4 9.2l-9 10.4c-.9.9-1 1.1-2.7 1.3-6.6.9-5.9-.9-10.9-4.3-1.6-1.1-2.7-2.7-4.9-2.5-3.4.3-2.9.8-5.3 2.6-1.6.3-.3 0-.9.5l1.8-.1c1.3.3 14.1 5.8 15.7 6.9 1.4.9.8 1.4 2.3 2.3 1.5.9 4.6 3.5 5.4 3.8.4-1.4 1.4-2.1 2.8-2.9 1.3-.7 3.9-.3 5.5-.3 1.4-7.8 1.9-7.6 6.4-11.4 1.2-1 1.6-4.1 2.3-6.6 2.9-11.2 4.4-15.8 9.5-26.1.8-1.5 2.4-4.8 2.8-6.3l.2-.2zM82.1 34.1c-.6 6 4.9 6.8 8.7 7.3-2.1 1.9-6.6 8.7-8.1 11.1-5.6 8.8-3.4 7.9-4.6 14.8-3.8 1.2-5 1.1-8.1 3.2-3.7 2.4-6.1 5.7-6.5 10.4-.2 2.3.5 3.1-.5 5-1.4 2.7-1.6 6-.9 9.1.4.1.3 0 .3.4v.4l-.3-6.1c.8-.2.1-.1.6-.2l1.9-.3c2.1-.5 4.1-.3 6.2.2 1 .3 1.5.7 2.5.9v.1-.1h-.4l-.4-.3c-.4 0-.3.1-.3-.3H72c-.4.1-.3.2-.3-.3h-.2c-.4.1-.3.2-.4-.3-2.9-1.3-4.3-.6-7.4-.5l-.7.3.2-.6.8-1.8c2.2-.1 5.3.3 7.6.6 6 .8 9.2 8 10.6 13.3-.6.5-1.2 1-2.1 1.4 0-1.1.2-2.1-.4-2.8l-.3-.4.1-.1c0 .1.1 1.9.1 2.4-.3 2.2-.4 2.5-5.8 3.2-3.8.5-6.4-2.3-8.4-3.4l-.3-.2-.2-.2.2.2.3.2.7.7c.9.4.3.1.6.5l.4.3.3.2c.5-.1.4-.2.4.2l.4.3c.4-.1.4-.2.3.2l.7.2c.4-.1.4-.2.3.2l.3-.1c.4 0 .3-.1.4.2h.3c.4 0 .3-.1.4.2h.4l.5.3c.1.2.7-.3-.1.4-.3.3-1.2.4-1.7.4.3.8.3.6.6 1.3-.9.4-.5.6-1.6 1-2.6-3.3-3-3.5-5.6-4.4l-.9-.5c-.6-1.9-.2-3.2 1.2-3.8 0-.6-.3-.8-.5-1.4-.5.6-1.1.9-1.7 1.6-.9 1.1-.7 1.8-1 2.2-2.9-.2-2-.3-3.6-1.8-2.7-2.4-4.6-4-7.8-5.3-.8-.3-1-.3-1.5-.9-1-.2-1.2-.2-2.4-.2l-1.2.5c-2.1 1.2-1.2 4.7-.2 6.4 1 .4.8.6 1.6 1.3l4.9 4.2c-1.8 1.3.1-.9-2.4 2.2-.7.8-1.5 1.7-1.8 2.8-1.2 4.9.8 5.3 1.5 6.9l4-.1c2.6-.4 3-.9 3.4-2 .4-1.3-.4.8.1-.4.6-1.3 1.1 0 1.8-2.2l.1-.4.1-.1c.2-.3.8-.6 1.1-.8.9-.6 1.2-1.3 1.9-2.1 1 2 .5 2 1.5 2.4l.4-1.8c-1.4-1.4-.6-1.1-1.9-1.5-1.3-.5-1.7-2-1.6-3.2.9-.6 2.6-1 4-.9 1.2.1 1.5.5 2.8 1.8 1.6 1.6 2.5 3.1 4.1 5 4.3-.1 9.1-.6 13.1.6 3.5 1 7.2 2.3 9.6 4v7.7c-3.5-1.8-1.5-1-5.8-2.6-3.2-1.2-9.3-3.7-12.4-3.9-2.6-.2-5.1-.4-7.7-.5-.3 1.5-.3 1.4-1.3 2.1-2.4 1.5-3.9 2.9-7.2 2.6.9-1.2 2.1-2.2 3.1-3.3 1.8-2.1 3.1-1.5 3.7-2.8-.5-1.4-1.6-1.4-3.4-1.4-.7 1.6.4 1.7-.9 3l-5.8 5.7c-1-.5-2.1-1.5-3.1-2.3-1.3-.9-1.9-1.6-3.1-2.5-.3-.3-.1-.2-.7-.2l-.2 2.4c-1.1.7-1.4.7-1.4 2.7l-1.9-.1c-.8 3.8-.7 6.1 3.6 6.1 2.5 0 2.1-.5 2.6-1 .1 0 .1-.1.2-.1l1.5-.2.2-2.2c0-.1.1-.1.1-.2 1 .3 1.1.2 2.1 0l.8-1.6c2.8.3 4.3.5 7.1-.3 2.8-.7 3.2-1.5 4.4-3.5 5.2-.9 9.3-.1 13.8 1.4 2.3.8 9.9 3.4 11.4 4.5.3 1.1.1 2.1.5 3.5 1.5 5.1 1.8 4.5 3.7 8.5.2.3.2.2.3.6 2.1.8 4.8 2.8 6.8.6.6-.7 4.1-3.9 4.7-4.4l.2-.3.1-.2.6-1.2 1.4-4.1c3 0 4.4-.4 6.8-1.8l1.6-1.2 4.8.2 4.3.2c.7 0 2.7-.1 3.4-.2 1.3-.2 1.4-.7 1.6-2l-.2-2.4c-.7-3.9-2.9-11.1-4.1-15.3-1.7-6-2.5-4.1-1.1-6.7l3.2-6.2c4.5-9.1 4.4-8.8 10.1-15.3 2.9-3.3-1.2-2.6 1.1-10.2.8-2.8.9-2.4 2.5-3.9l6.5-6.2c.7-.7 2.5-2.5 3.4-2.7 1.1 2.9-1.6 4-2.1 6.6 1.7 1.2 2.6.8 2.2 4.1-.3 2.5-1.7 2.2-2 4.3 1.9-.1 2-.5 2.7-1.8.6-1 1.3-1.9 1.2-3.4-.2-2.8-5-5.2-.8-4 .9-3.6 4.9-4.6 6.7-3.7.3 2.2.2.4-3.2 2.5-1.3.8-3 1.7-2.8 2.5l.6.1s4.6-3.5 8.6-2.6c1 3.4-3.4.1-6 3.8-.4.6-.9 1.1-1.2 1.7 2.6-1.6 4.7-3.1 9.2-2.6.1 1 .2 1-.1 1.8-3.7 1.4-6.4-.4-8.5 4.8 2.8-.8 3.9-2.2 7.5-1.2.3 2.9-3.2 4.9-4.6 6.4-1.1 1.2-1.7 1.7-2.8 2.7l-2.9 2.6c-3.2 2.2-6.8 0-8.6 2.4l-4 7c-2.6 4.6-5.5 9.4-7.9 14.1-1.6 3.2-2.8 4.1-2.1 8.6 1 6 1.5 4.8 2.7 8.1l.8 1.2h1l2-.3.1-.7c-.2-3.2-2.1-.8-3.4-5.7-1.9-7.5 2.2-14.1 5.7-20.2 1.4-2.4 5.6-9.8 7-11 1.3-1.1 1.3-1 3.6-1.1 5.7-.1 2.8.6 6.5-2.3.8-.7 1.4-1.5 2.4-1.9 0 0 .1-.2.1-.1l4.7-4.4c1.9-1.9 2.9-3.1 2.1-6.8 2.7-1.8.7-4.7-.7-5 .2-1 .5-1.1.5-2.4-1.6-1.1-2.5-2.4-5-1.2.5-2.1 2.3-3.1-4.6-2.9-1.5 0-1.4.4-2.6.5-.4-1.6-1.9-3.1-3.4-2.3-1.7.9-2.1 2.1-3.8 3-.3 1.1-1.5 1.6-2.2 2.3l-6.2 7c-3.3 4.8.2 8.7-1.2 10.5-2.4 2.9-3.5 3.6-5.9 7.3-1.2 1.8-2.3 3.7-3.4 5.5-1.1 1.8-2.2 3.6-3.3 5.6-.5.9-1.1 1.8-1.6 2.7-1.2 2.1-.7 2-2.2 2.4.3-3.5 2.7-9.9 3.9-13.1 2.1-5.8 2.8-6.8 4.9-11.7l7.1-17.9c1.7-4.3 1.6-3.6 1.2-6.5l4.8-1.3c1.2-.1 1.8-.4 3.3-.2 3.2.4 5 1.5 10.1.2 3.7-1 6.3-3.6 9-5.9l5.8-5.3c3.2-2.7 4.2-6.6 2.3-10.9-.4-1-1-1.6-1.4-2.5-.8-.5-1.3-1.2-2.9-1.2-1.1 0-2.5.5-3.4.8-.5.3-.9.4-1.5.7-.7.3-.9.5-1.5.9-2.9 1.6-6.8 5-8.3-1.5l.1-2.9-.8-.7c-6.7-3.4-12-2.6-18.1 2.1l-1.9 1.5-3.5 3.4-5 5.5-1.8-.8-.1-1.6-1.6 1c-.4-3.7.9-3.9.9-6.3l.1-.7-1 .2c-1.1.1-2.9 1.7-3.3 2.3-.3-1.8.2-3.3-.4-5.1l-8.8 9.6c-3.1.2-4-.5-6.8.8-1.8-2.6.3-2.9-3.8-4.7.1-3.4 2.3-7.1.8-10.4-1.5-3.2-5.3-5.4-5.8-5.9-.8-.2-1.2-.4-2-.6-.9-.2-1.3-.3-2.3-.4-4.6-.5-10.7-.4-14.7.9-6.3 2.1-22.6 9.4-15.8 18.6 1.6 2.1 5.5 2.6 8.2 2.6 7.1.1 10.7-3.1 13.9-1 .1 3-.3 1.6-.6 3.5z"/>
    <path d="M110.7 60.6l-.5 1.4-.1-1.6c-.2-3.2-2.8-2-3.8-.1-1.4 2.5-1.2 7.8 2.3 5.4-1.3 2.2-4.8 5.8-7.4 1.9-3.3-5 1.4-17 6.5-16.1 3.9.7 3 7.5 3 9.1zm-12.8 3.9c-.3-.2.2 0-.4-.1-2-.3-2.5-1.7-1.9-4.2.6-3 3.4-5.8 4.7-1.8 2.1-10.7-6.2-13-10-3.5-1.3 3.2-2.2 7.9-.3 11.1.7 1.3 2.2 2.6 4.4 1.7 2.3-.9 2.2-1.7 3.5-3.2zm1.6-1.8c.3 2.1.2 3.8 1.3 5.5 3.1 4.7 8.4-.1 10.1-6.5 1-3.7.8-9.2-2-10.7-3.9-2-6.5 3.1-7.8 5.2-.1-2.3-.1-4.2-1.2-6.1-3.2-5.4-9.3 0-11 7.1-2.3 9.8 2.8 14.7 7.7 9.9 1.2-1 1.9-2.7 2.9-4.4zm-12.3 7.8c-8.3 1.4-6.7 9 1.8 7.4 7.9-1.4 6.6-8.8-1.8-7.4zm20.5.3c2.2.4 4.1.3 6.4.1 2.3-.2 4.7-.1 5.3-1.9-6.8.9-6-.1-8.5-1.6-.8.4-2.9 2.9-3.2 3.4zm1.5-29.1c1.4.3 2.3-.8 3.8.5 1.2 1 0 1.1 1 1.4.9.3 1.1-.8.8-1.5-.7-2.6-5.8-2.9-5.6-.4zM83 65c.2.9.9 1.3 1.5 1.8 3.5 3.1 2.6-2.4-.4-3.2H83V65zm17.1-26.6c.7.2 1.7-.1 2.4.4 1.3.9-.1 1.7 1.6 1.7 1.6-2.5-3.7-4.6-4-2.1z"/>
    <path fill="#126535" d="M50.4 127.5c2.6-.1 1.8-.4 2-2.7-.1 0-.1.1-.1.2l-.2 2.2-1.5.2c-.1 0-.2 0-.2.1z"/>
  </g>
</svg>
