<svg xmlns="http://www.w3.org/2000/svg" width="1750.1" height="2225" text-rendering="geometricPrecision" image-rendering="optimizeQuality" shape-rendering="geometricPrecision" viewBox="410.9 513 1750.1 2225">
  <ellipse cx="1278" cy="1628" fill="#EC2727" rx="617" ry="602"/>
  <path d="M1278 2235c-343 0-622-273-622-607 0-335 279-607 622-607s622 272 622 607c0 334-279 607-622 607zm0-1204c-337 0-611 268-611 597s274 596 611 596 612-267 612-596-275-597-612-597z"/>
  <path d="M944 2064c-1 1-5 8-9 15-5 7-4 11 3 16 6 3 9 5 18 11 10 5 14-1 17-5 2-4 6-12 9-10s0 6-4 13c-4 6-9 10 8 20s17-2 17-2c-3 2-6 4-16-1-9-6-3-13 0-17 3-5 9-9-3-15-7-5-10 1-12 5-5 8-8 13-21 5-1-1-2-1-6-4-4-2-5-6-2-11l10-15-9-5zm-100-48l5 5c4 4 11 8 15 4l14-14 15 24c-4 4-8 8-10 11-4 3-1 7 4 11l7 7c7 6 11 6 13 4 3-2 7-7 12-12 4-4-2-11-2-11s1 5-1 7c-2 1-8 8-11 11-3 2-8 0-9-1-2-1-3-3-6-5-2-3-5-6-4-8 1-1 6-6 10-9l2 3s3 4 6 3c2 0 3-1 4-3 2-1 2-4 2-5 0 0-6-5-7-7-1-1-3-2-5-1l-3 3c-6-10-14-23-16-24l-4-4-16 16c-2 2-6-1-8-3s-2-1-4-3-4-5-1-8 16-15 16-15l-7-7s-13 14-16 16c-2 2-4 6 5 15zm56 20c1-2 3-1 3 0 1 1 2 1 2 2 0 0 0 1-1 2-2 2-2 3-2 3s-2-2-4-6c1 0 2-1 2-1zm-137-187s-17 9-20 10c-3 2-6 5 0 17 0 0 1 1 4 6 2 4 7 10 13 8l17-10 8 27c-5 3-11 6-14 7-4 3-2 7 1 13 4 6 5 8 5 8 4 8 8 9 11 8 3-2 9-5 15-8s2-11 2-11-1 5-4 6c-2 1-10 5-13 7-4 2-8-1-9-3s-2-4-4-7c-1-3-3-7-1-8 1-1 7-4 12-6l1 4s2 4 4 4c3 1 4-1 6-2 1-1 3-3 3-5 0 0-4-6-5-7-1-2-2-4-4-3-1 0-2 1-4 2-3-11-7-26-8-27-1-3-3-6-3-6s-17 9-19 11c-3 1-7-2-8-5l-2-4c-2-3-3-6 1-8 3-2 19-10 19-10 7-4 19-10 22-12 4-2 5-4 2-9-3-6-7-7-11-5-4 3-21 11-21 11l1 2s19-9 20-10c2-1 5-1 6 1 0 1 0 2-2 3l-21 11zm28 61c2-1 3 0 3 1 1 1 1 2 1 2 0 1 0 2-1 2-3 1-4 2-4 2s0-2-1-6c1 0 1-1 2-1zm-59-133c0 3 3 13 5 21-5 1-12 2-15 3-5 1-4 5-2 12 1 7 2 9 2 9 2 9 6 11 9 11 3-1 9-3 16-4 7-2 5-11 5-11s-2 5-5 5c-2 1-11 3-15 4s-7-3-7-5c-1-2-1-5-2-8s-1-7 1-8c1 0 8-2 13-3h1c1 2 1 4 1 5 1 4 2 8 5 7 3 0 1 0 3-1 2 0 4-1 3-6 0 0-2-7-3-9 0-2-1-4-3-3-1 0-2 0-4 1h-2c-2-9-5-21-5-21l8-1s-1-4-2-4c-2 0-5 1-6 1-1 1-3 1-1 5zm8 25h2c2-1 3 1 3 2 0 0 1 1 1 2 0 2 1 5-1 6h-2s-1 0-2-5c-1 0-1-2-2-5h1z"/>
  <path d="M732 1777s-14 3-15 3c-2 1-5 0-6-5-1-2-3-9-3-11-1-3-2-8 3-9s18-4 20-5c1 0 2 0 2-2-1-1-2-2-3-2-2 0-19 4-20 5-1 0-5 2-6-4-2-5-2-9-3-13-1-3-2-8 4-10 6-1 23-5 23-5l2 7s-20 5-23 6c-4 0-4 4-3 7v3c1 2 2 6 7 5 3-1 16-4 18-4 2-1 4-1 6 5 1 6-1 8-3 8-2 1-17 4-18 5-3 0-4 4-3 8 0 0 0-2 1 3 1 4 4 6 6 6 2-1 14-3 14-3v2zm-31-163s-1 3-4 3-4-6-3-12c0-7 1-16 6-15 5 0 19 1 21 1 1 0 2-1 2-3s-1-2-2-2-16-1-19-1-7-4-6-11v-9c1-4 2-11 9-10 7 0 54 3 54 3l-1 7s-48-3-53-4c-5 0-7 3-7 6v7c-1 2 1 7 4 7 4 0 17 1 20 2 2 0 4 0 3 6 0 5-1 9-5 9s-18-1-20-1c-3-1-5 1-5 6 0 6 0 13 6 11zm27-74s-2 7-6 6c-4 0-16-1-18-1s-4-1-4-9c1-7 2-10 8-10 6 1 12 1 16 1s6-2 7-8c0-7 2-27 2-27s-3-1-6 3-5 11-5 11 2-2 3-4c0-1 2-3 4-3 0 0-1 13-1 15 0 3-2 5-5 5-3-1-11-1-14-1-3-1-9 0-10 14 0 0-1 5-1 9 0 3 1 8 7 9 5 0 14 1 17 1s6-4 6-11zm158-300s-7 8-12 13c-5 4-8 5-11 2l-11-11s-8-2-13 3-4 8-3 9l13 13c3 2 9-2 9-2-5 5-9 7-12 5l-12-12s-2-8 1-11c2-3 6-7 6-7 10-9 15-6 17-4l10 10s5 2 7 0l9-9c3-3 4-5 1-7-3-3-9-8-11-11-3-2-6-6 1-12l7-7s10-4 16 2l11 11c3 2-1 7 2 7 3-1 4-1 6 1 1 3-4 19-28 43s-44 34-50 29c15-5 9 3 33-17 24-19 37-39 40-46 3-6 2-7-2-6-3 1-5 1-5 1s4-4-1-9c-4-4-13-12-15-14s-5-2-7 1l-6 6s-3 4-1 7c3 2 10 9 13 11 2 2 4 5-2 11zm81-62s-9 6-14 11c-5 4-8 4-11 1-2-3-6-7-10-12-4-4-7-3-13 2-6 4-5 7-4 8 1 2 9 11 12 14s8 0 8 0c-4 4-9 5-11 3s-8-9-11-13c-4-4-2-9 1-11 3-3 8-6 8-6 10-9 15-5 17-2 2 2 7 8 9 10s5 3 7 1 16-13 16-13-6 4-10-1-7-7-9-10-4-6 1-10 13-10 17-14c5-4 14-6 13 1-2 7-13 20-13 20s9-7 18-7c8-1 12-2 15-4l6-4s-4 5-10 9-12 1-20 4-14 6-14 6 7-9 10-16c4-7 1-11-5-7 0 0-8 7-11 10-3 2-6 5-3 8 2 3 7 8 9 11 3 4 17-3 17-3s-4 5-15 14zm-216 191s0 2-2 6c-2 5-3 13 2 15 6 2 19 7 19 7l-16 23c-5-2-11-4-14-5-5-2-7 2-10 9-2 6-3 8-3 8-3 9-1 13 2 14s9 3 15 6c6 2 10-6 10-6s-4 2-7 1c-2-1-10-4-14-5-4-2-4-7-3-8 0-2 1-5 2-8 2-3 4-7 6-6 1 0 8 3 13 5l-3 3s-2 4-1 6c2 2 3 2 5 3s5 0 6-1c0 0 3-7 3-9 1-1 2-4 0-4-1-1-2-1-4-2 6-9 15-22 16-24s2-5 2-5-18-7-21-8-3-6-2-8c1-3 1-2 2-5s2-6 7-4c4 1 21 7 21 7l3-8s-18-7-21-8-8-1-13 11zm5 57c2 1 1 3 1 4 0 0-1 1-1 2 0 0-1 1-2 0-3-1-4-1-4-1s2-2 4-5h2zm-40 62s-4 6-7 5c-4-1-3-6 0-14s4-11 6-16c3-8 8-10 15-8 7 3 19 7 19 7l-3 7s-18-6-22-8c-4-1-6 0-7 4-2 4-1 5 1 6s4 1 4 1l-2 6s-3-1-4-2c-1 0-3-1-5 3-2 5-3 8 0 10 2 2 5-1 5-1zm31-116s-3 1-2-3c2-4 3-5 1-6s-10 10-12 16c-1 5 3 5 7 1 2-3 3-5 4-5 0 1 1 0 1 0s-5 8-9 10-7 0-4-10c2-10 13-21 16-19 3 1 3 7-2 16zm45 11c3-5 5-6 8-5 2 1 5 2 7 2 3 1 2 2 2 4-1 2-3 7-5 12s-1 4-6 7l-3 3c-1-2-4-4-6-5-4-1-5 5-5 5-2 3-2 7 1 8 2 0 5-2 9-4 0 2 1 3 1 5 1 5-1 9-3 15-3 5-4 3-7 2-3-2-4-4-4-4-2 5-1 8 2 9 5 1 8 3 10-4 2-6 0-1 4-9 3-8 0-12-1-15 1-1 2-2 3-2 5-3 6-4 7-7s3-7 5-14c3-6 1-8-1-9-2 0-2-1-8-3-7-2-10 9-10 9zm-5 26c-2-1-1-4-1-4 1-2 1-2 2-1 1 0 3 2 4 4-2 1-3 2-5 1zm733-309s-3-3-1-5c1-2 6-1 13 2 6 3 13 8 11 12-3 4-9 17-10 18s0 2 2 3c1 1 2 0 3-1 0-1 7-14 9-17 1-2 6-4 12-1 0 0 5 3 8 5 4 2 10 6 7 12-4 6-22 37-22 37l-5-3s18-33 20-37c3-4 0-7-3-9l-6-3s-6-2-8 1-8 15-9 17-2 3-7 1c-5-3-9-5-7-9 2-3 9-15 10-17s0-5-5-7c-5-3-12-6-12 1zm285 800s1-1 3-6c3-4 5-12-1-15-5-2-17-8-17-8l18-22c5 3 11 5 14 7 4 2 7-2 10-8l4-8c4-9 3-13 0-14s-9-4-15-7-11 5-11 5 5-2 7-1c3 1 11 5 14 7 4 2 3 7 3 8-1 2-2 4-4 7-1 3-4 7-6 6-1-1-8-4-12-6l2-3s3-4 2-6-3-3-5-3c-1-1-4-1-5 0 0 0-4 6-5 8 0 2-1 4 1 5 0 0 2 1 3 2-7 8-17 20-18 22s-3 5-3 5l20 10c3 1 2 6 1 9l-2 4c-2 3-3 6-7 4l-20-10-5 8s17 8 20 10c4 1 8 2 14-10zm2-57c-2-1-2-3-1-4 0 0 1-1 1-2h3c2 2 3 2 3 2s-2 2-4 5c-1-1-2-1-2-1z"/>
  <path d="M1748 1898c2 1 39 18 41 20 3 1 5 5 2 12 0 0 0-2-1 1-2 4-6 10-12 7-7-3-49-24-49-24l3-6s44 21 48 24c5 2 7 0 8-2 1-1 1-2 1-2s1-5-2-7c-3-1-38-18-41-20-5-2-5-10-1-18 4-7 19-36 24-46s8-11 11-12c4-1 5 2 5 2s-6-2-11 8c-5 9-23 44-26 50s-3 11 0 13zm87-309s-1-11-1-17c-1-7 1-10 5-10 3 0 9-1 15-2 6 0 7-4 6-11s-3-8-5-8-14 1-18 2c-4 0-5 7-5 7-1-6 1-11 4-11 3-1 12-2 17-2 6-1 8 4 9 7 0 4 1 9 1 9 1 14-5 16-8 16s-11 1-14 1c-3 1-5 3-4 5 0 3 1 13 1 13 1 8 2 13 3 12 2 0 2-4 1-8 0-4 1-8 6-8 3 0 7-1 10-1s8-1 9 9c0 0 1 7 1 13 1 7 1 11-4 11-6 1-20 2-21 2-2 0-3 1-3 3 1 1 1 2 3 2s18-1 21-2c2 0 6-1 7 8 0 0 0 2 1 11s-2 10-10 11-20 2-20 2l-1-6s18-1 23-2c4 0 6-1 5-8 0 0 0-5-1-8 0-2 0-3-5-3-5 1-17 2-19 2s-5-1-6-7c-1-7 1-9 5-10 3 0 16-2 19-2s4-1 3-7c0-5-1-7-1-11 0-3-2-5-5-4-3 0-9 1-10 1-2 0-5 1-4 8 0 6-1 9-4 9-2 0-4-1-6-16zm-229 501s4 0 6 2c1 3-3 6-10 9-6 3-14 6-16 2s-9-17-9-18c-1-1-2-2-4-1s-1 2-1 3c1 1 7 14 9 17 1 3 0 7-7 10l-20 10s-11 4-14-2l-10-20 7-3 9 19c2 5 6 5 9 3 3-1 16-7 18-8s6-4 4-7c-1-4-7-16-8-18-1-1-2-3 3-6 5-2 10-3 11 0l9 18s3 3 8 1c6-3 12-7 6-11zm-52 37s3 2-1 4c-4 1-5 2-5 3 1 2 14 0 20-3 5-3 1-5-4-5-4 0-6 1-6 1 0-1-1-1-1-1s9-3 14-1c4 2 5 5-4 10-10 5-25 6-26 3-2-3 3-7 13-11zm266-655c0-2-3-12-5-20 5-1 12-3 15-3 5-2 4-6 2-13-1-7-2-9-2-9-2-9-6-11-9-10s-9 2-16 4c-7 1-5 10-5 10s2-4 5-5c2-1 11-3 15-4 4 0 7 4 7 6 1 1 1 4 2 7 1 4 1 8-1 8-1 1-8 2-13 3l-1 1c0-3-1-5-1-6-1-4-2-7-5-7-3 1-1 1-3 1s-4 2-3 6c0 0 2 7 3 9 0 2 1 4 3 4 1-1 2-1 4-1l2-1c2 9 5 21 5 21l-8 2s1 4 2 3c2 0 5-1 6-1s3 0 1-5zm-8-25c-1 0-2 1-2 1-2 0-3-1-3-2s-1-2-1-3c0-2-1-5 1-5 2-1 1-1 2-1s1 0 2 5c1 1 1 3 2 5h-1z"/>
  <path d="M1820 1473s14-3 15-4c2 0 5 0 6 5 1 3 3 9 3 12 1 3 2 7-3 8-5 2-18 5-20 5-1 0-2 1-2 2 1 2 2 3 3 2 2 0 18-4 20-4 1-1 5-3 6 3 2 6 2 9 3 13s2 9-4 10c-6 2-23 6-23 6l-2-8s20-4 23-5c4-1 4-4 3-8-1-3 0 0 0-2-1-3-2-7-7-5-3 0-16 3-18 4-2 0-4 1-6-5-1-6 1-8 3-9 2 0 17-4 18-4 3-1 4-4 3-8 0 0 0 1-1-3s-4-7-6-6c-2 0-14 3-14 3v-2zm33 39s11 8 17 11 8 3 8 3-2 6-11 1c-8-5-13-9-14-15zm-43 292s1 4 2 4c1 1 2-1 3-5 1-3 1-6 0-6s-6-2-12-3v-5l13 2s13 3 20 4c8 2 11 1 13-7 2-9 2-12 2-12 2-8-2-8-4-9-3 0-18-3-20-4-2 0-2-2-2-3s2-2 3-2c1 1 15 3 20 4 6 2 7-2 8-9 2-6 3-13 3-13 2-10-3-10-6-11-3 0-6-1-9-2-5-1-7 2-8 6s-2 8-4 8c-1 0-1-5 1-13 0 0 2-10 2-12 1-3 4-4 6-4 3 1 11 2 14 3 3 0 9 1 12-13 0 0 1-5 2-8 1-4 0-9-6-10-5-1-14-3-17-4-3 0-6 4-7 10 0 0 3-6 7-5s16 3 18 3c2 1 4 2 2 9-1 7-3 11-9 10-6-2-12-3-16-4-3 0-6 2-7 8-2 7-4 17-4 17-3 15-2 17 1 18 2 0 5-2 6-9 1-6 4-6 6-6s7 1 10 2 4 3 4 6c-1 3-1 5-3 11-1 5-2 6-5 5-2 0-16-3-19-4-3 0-6 2-7 8s1 9 3 9c2 1 14 3 19 4s4 2 4 4c-1 3-2 8-2 8-1 7-3 7-7 6-5-1-22-5-22-5s-8-1-15-3c0-6 1-13 2-17 2-9 2-15 11-55 12-45 22-44 22-44s-2-1-5 2c-4 3-13 18-19 45-2 11-6 27-9 44-2 10-3 18-4 25-5-1-11-2-12-2-2-1-3 2-3 4-1 2-1 3-1 4 0 2 1 5 3 5 1 0 7 2 13 3 0 1 1 8 3 10 1 2 3 1 5-1l1-1zm-22-13c-1 0-1-2-1-4 0-1 0-2 2-1 1 0 6 1 12 2v6c-6-1-12-3-13-3zm17 11c-1-1-2-5-2-5v-1l10 2c1 1 1 1 1 2s-1 3-2 2c-1 0-1-2-1-3-1 0-2 2-2 2s-3 2-4 1zm-166 248c3-2 11-8 17-13 3 4 7 9 9 11 4 4 7 1 13-3s7-6 7-6c8-6 8-10 6-12-2-3-6-7-10-13-4-5-12 0-12 0s5 0 7 2c1 2 7 9 9 12 3 3 0 8-1 9-2 1-4 3-7 5-2 2-6 4-7 3-1-2-6-7-9-11l-1-1c3-1 4-3 5-3 3-3 6-5 4-7-1-2-1-1-2-3-1-1-3-2-7 1 0 0-5 4-7 5-1 2-3 3-2 5 1 0 2 1 3 3l1 2c-7 5-17 13-17 13l-5-6s-3 2-2 3 3 4 3 5c1 1 2 2 5-1zm20-18c-1-1-1-2-1-2-2-2-1-3 0-3l2-2c2-1 5-3 5-2l2 2s0 1-3 4c-1 1-3 2-5 3z"/>
  <path d="M1616 2054c2 2 15 18 16 19 1 2 5 1 8-2 0 0-1 1 3-2 3-2 4-6 3-7-1-2-9-11-9-11l1-2s10 11 11 13c1 1 2 4-2 7-3 2-8 6-10 8s-6 4-9 1c-4-4-15-19-16-20l4-4zm25 24s3 1 0 4c-3 2-4 2-3 4s13-3 18-7c4-4 0-6-5-4-4 0-6 2-6 1h-1s9-5 13-4 6 4-2 11c-7 7-23 11-24 8-2-2 2-7 10-13zm3-68s-4-5-6-7c-2-3-5-1-7 1-2 1-11 8-13 10s-4 4-3 6c-2-1-4-1-7 2-3 2-12 9-13 10-2 1-4 4-3 5s8 10 8 10l-1 1c0 1 2 1 3 1 0 0 7-1 10-3 3-1 5-3 5-3s-4 2-8 3c-3 0-6 1-8-1-1-2-6-7-6-8-1-1 0-2 1-3 1 0 12-9 14-10 1-1 4-2 5-1 1 2 4 5 4 5l3-2s-3-4-4-5 0-4 2-5c2-2 11-9 12-10 1 0 2 0 3 1l5 6 4-3zm88-69s4-2 7 0 15 12 16 13 2 3 0 5c-2 3-9 11-9 11s5-10 4-12c-2-1-4-2-5-3s-6 5-8 7-4 5-4 5 7-14 4-16c-2-2-4-3-5-4 0 0-5 1-9 6s-19 23-22 26c-2 2-2 5 0 7 2 1 13 11 15 12 1 1 2 4-2 8-4 6-7 6-9 5-1-1-19-15-19-15l-4 5s14 10 17 13 8 6 14-2c0 0 1-1 4-5s6-9 0-14-12-9-13-10c-1 0 0-2 2-5 2-2 18-22 20-24 1-2 3 0 4 1 1 0 3 2 2 6-2 5-5 14-5 15 1 2 2 0 4-3 2-2 7-8 9-9 1-2 3-2 4-2 1 1 0 4-2 8-1 4-5 8-3 10l1 1 14-18c5-4 6-9 2-12-3-3-14-11-15-12-2-1-6-1-9 2zm-108-759c2-3 8-10 10-14 3-4 6-1 10 2s7 5 6 7c-2 3-5 7-11 14-6 8 8 16 17 22 8 6 11 4 12 1 2-2 8-10 11-13 2-4 6-3 10 0s6 6 3 9l-14 19 6 4s9-12 12-17c3-4 6-9 1-12-5-4-8-6-8-6-9-6-13-2-16 2l-7 9c-2 4-5 3-9 1-4-3-2-2-7-6-5-3-6-6-4-9 2-2 3-4 6-8s7-9 1-14l-10-7c-8-6-11-3-14 1-4 5-5 6-7 9s-6 4-11 1c-2-2-5-4-7-5s-2-4-1-6c2-3 7-9 9-11 2-3 4-8-7-16 0 0-4-3-7-6-4-2-9-3-12 1-3 5-8 12-10 14-2 3 1 7 6 10 0 0-5-4-2-8 2-3 9-13 11-14 1-2 3-3 9 2 6 4 8 7 5 12-4 4-7 9-10 12-2 3-1 6 5 10 3 3 8 6 11 8 7 5 10 5 13 2zm80 46s1-12 14 3c9 10 5 15 2 17-4 4-16-3-22-6s-9-6-12-4l25 28 2-2-15-18s21 14 27 8c7-5 3-16-5-25-9-9-14-9-16-7s0 6 0 6zm38 59s-3-6 2-8c2-1 6-5 10 1s4 8 0 11c-3 2-10 6-13 7-3 2-5 3-2 9 4 6 7 5 10 3 3-1 13-8 15-9 1 0 3 1 7 6 3 6 4 9 1 11-3 1-12 7-14 8-3 2-5 4-2 9 4 6 8 5 10 4 2-2 11-7 14-9s6 2 8 6c3 4 4 8 0 10-4 3-16 10-18 11s-9-5-25-23c-16-17-20-11-21-6s1 17 7 26c5 10 12 20 16 27 5 8 12 7 16 4 5-3 34-20 37-22 4-2 6 1 8 4s4 6 0 8-47 28-47 28l4 7s43-25 47-28c3-2 7-4-1-16-7-12-10-8-13-6s-36 21-38 22-7 0-13-9c-6-10-12-20-15-24-2-4-9-20-4-23 4-3 14 8 20 15s20 26 27 22c6-4 14-9 18-11s6-5-1-17c-8-12-11-11-14-9-4 3-13 8-15 9-2 2-3 2-4 1-1-2 0-3 2-4s14-8 16-9c3-2 3-5-2-14s-9-13-14-10-13 8-15 9-3 1-4-1 1-3 2-4c1 0 13-8 16-9 2-2 4-5-2-13-5-8-8-10-12-8-4 3-10 4-4 14z"/>
  <path d="M2118 1628c0-451-376-818-838-818s-838 367-838 818c0 333 206 620 500 747 11 44 75 230 336 230 274 0 345-206 354-235 287-130 486-414 486-742zm-838 669c-378 0-685-300-685-669s307-669 685-669 686 300 686 669-308 669-686 669z"/>
  <path d="M1822 2540l-1-1c-2-9-5-17-7-25-8-22-15-43-12-67 3-29 11-60 17-82 2-9 4-16 6-22 3-14-1-28-10-39-9-12-24-18-40-18-5 0-10 0-15 2-27 8-59 31-83 59-3-1-6-2-9 0-3 1-7 2-12 2h-14c-11 0-25 2-36 18l-1 1c-3 6-6 13-10 21-33 68-95 196-317 196-223 0-285-128-318-196-4-8-7-15-10-21l-1-1c-11-16-25-18-36-18h-14c-5 0-9-1-12-2-3-2-6-2-9 0-24-28-56-51-83-59-5-2-10-2-15-2-16 0-31 6-40 18-9 11-13 25-10 39 2 6 4 13 6 22 6 22 14 53 17 82 3 24-4 45-12 67-2 8-5 16-7 25l-1 1c-5 19-11 41 0 67 4 10 17 20 35 20 2 0 4 0 7-1-3 9-5 17-3 22 1 2 4 9 14 9h3c0 4 1 9 1 13 1 3 1 6 1 9s1 5 3 7c11 14 28 15 41 16 3 0 6 0 9 1 5 0 11-4 11-10 1 0 1 0 1-1l1 1c1 0 2 0 2 1 4 2 10 1 13-2 6-6 19-11 34-12-3 8-3 17 2 26 1 4 4 6 8 6 3 1 6 0 9-3 5-4 15-6 21-2 4 3 9 4 15 4 11 0 22-5 29-13 2-2 3-4 3-7v-20c0-3-1-5-3-7s-5-3-8-3c-24 0-36-6-41-51 25 25 54 46 86 66 67 41 154 62 251 62 96 0 183-21 250-62 32-20 61-41 87-66-6 45-18 51-42 51-3 0-5 1-8 3-2 2-3 4-3 7v20c0 3 1 5 3 7 8 8 18 13 29 13 6 0 11-1 15-4 6-4 16-2 21 2 3 3 6 4 10 3 3 0 6-2 7-6 5-9 6-18 2-26 15 1 28 6 34 12 3 3 9 4 13 2 1-1 1-1 2-1l1-1 1 1c0 6 6 10 12 10 2-1 5-1 8-1 13-1 30-2 42-16 1-2 2-4 2-7s0-6 1-9c0-4 1-9 1-13h3c10 0 13-7 14-9 2-5 0-13-3-22 3 1 5 1 7 1 18 0 31-10 35-20 11-26 5-48 0-67zM1427 964l-52-171 145-108-183-4-60-168-60 168-183 4 145 108-52 171 150-101"/>
  <path fill="#C7AA31" d="M1066 695l158-3 53-147 53 147 158 3-126 94 46 149-131-88-131 88 46-149"/>
  <path fill="#F2D450" d="M1200 787l77-25-118 159 118-79v-80l-192-60 115 85zm125-89l-48 64 118 159-41-134-77-25 192-60-144-4zm-48-132l-48 132 48 64V566z"/>
  <path d="M1069 2331c-5-4-10-8-13-11-5-7-6-15-6-21 5 8 13 11 19 11h1c7 0 14-3 18-8 3-4 7-12 4-25-5-16-19-26-36-26-6 0-13 1-19 4-18 9-27 32-27 53-4-2-7-3-10-4 0-10 0-21-1-28-1-2 0-6 1-9 1-7 3-16 0-28s-13-18-21-22c0-20-9-37-25-45-2-2-4-2-7-1 0-3-1-5-2-7-7-13-36-44-56-47-1-1-1-2-1-2-2-4-5-6-9-7h-7s-4-1-5-1-1-1-2-2c-5-5-12-9-19-11-6-10-15-16-26-18-11-3-21-1-30 5s-15 16-17 27c-1 3-1 5-1 8v1c-1-6-2-11-2-14-1-22 9-37 32-51 3-2 5-6 5-10-1-4-3-7-7-9-1-1-3-1-4-2 0-14-9-26-17-32-2-11-9-21-18-27s-20-8-31-5c-11 2-20 10-26 21 0 1-1 3-2 5-1-3-1-5-2-8 2-1 3-3 5-4 4-4 7-7 10-12 7-9 7-20 8-34v-11c1-14-8-25-14-32 6-18 6-41-8-59-1-2-3-3-6-4-1 0-2-1-2-1 1-3 1-7 1-11-3-16-21-58-39-69-1-1-3-2-5-2 2 0 4-1 6-1 4-1 7-4 8-8s-1-8-4-11c-1-1-2-1-3-2 5-18-1-37-15-48-2-12-9-22-19-30-9-6-21-9-33-7-11 2-21 8-28 17 8-18 12-24 14-26s3-2 3-2c2 0 3 1 5 1 3 1 7 1 11 1s8 0 12-2c6-2 11-7 16-12 4-4 8-9 13-12 4-2 7-7 5-12 0-2-1-5-3-7v-1c1 0 1-1 1-1 0-3 1-5 1-7 1-6 2-11 0-16 1-3 2-6 2-8 2-12-1-24-8-32-7-7-17-11-27-11-9 0-17 3-25 9 1-4 1-7 2-10 1-1 3-2 5-2 4-2 8-4 10-4 11-2 18-10 26-19 2-2 5-4 7-6 8-9 9-21 9-29 16-10 26-27 26-44 0-2-1-4-2-6 0 0 0-1-1-1 3-1 4-3 6-5 3-5 3-11 3-19 0-6 0-14 2-23 3 1 7 1 12 2 2 1 5 1 8-1s4-4 5-7v-3c16-7 26-22 25-39 6-8 9-19 8-29 0-4-2-8-3-11 1 0 3-1 4-1 2-1 4-3 5-5 20-2 37-17 42-37 11-7 18-18 21-30 2-10 1-21-4-30 7-1 13-6 17-10 4 1 8 1 12 1 11 0 22-4 29-12 2-1 3-2 3-4 2 0 3 0 5-1 12-2 40-19 46-34 1 0 1-1 1-1h7c8 0 16-2 23-7 7 1 15 0 21-3 5 2 11 1 14-3 2-3 2-6 2-8 11-15 12-35 0-50-2-2-3-4-5-5-1-8-4-15-9-21-3-4-7-7-11-10 8 2 15 3 19 5 12 4 15 8 25 23 4 7 10 16 19 27 1 3 4 4 7 5 3 0 6-1 8-3 4-3 7-7 9-11 4 0 9-2 13-4 10 2 20 0 28-5 18-11 24-33 13-50-1-2-2-4-4-5 1-7-1-14-5-19-6-9-15-15-25-17-1-2-2-3-2-4l-3-6c8-2 17-2 29 0 4 1 8-1 10-4 3-3 3-7 1-11-1-2-2-4-2-6h-1c14-13 18-33 9-49 2-10 0-20-5-29-6-8-15-14-25-16-11-2-22 0-31 6-2 2-4 3-5 5-8 0-15 3-21 7-7 4-12 11-15 18h-5c-3 1-5 3-7 5-1 1-1 2-1 4-2-3-3-6-5-9-7-9-17-15-29-16s-24 2-33 10c-2 2-4 4-6 7-9 1-17 4-23 10-6 5-10 10-13 16h-1c-2 0-4 1-6 1-6 2-9 8-8 13 1 2 1 3 1 5-3-2-6-4-10-5-11-3-23-1-33 4-2 2-5 3-7 5-7 0-15 2-22 6-8 4-15 12-19 20v1c-2 1-5 2-7 3s-5 2-7 2c-4 2-6 5-7 9-1 3 1 7 3 10 2 1 3 2 4 3-5 3-11 5-17 8-19 9-41 19-57 39-13 17-19 38-22 52-4 20 1 38 14 53 3 4 10 9 18 14 3 2 6 4 8 6-1 2-2 4-4 6-1 2-2 5-1 7-3 2-5 4-6 7l-1-1c-3-2-8-3-11-1-1 1-2 1-3 2-3-3-6-4-10-5-1-13-8-24-19-31-3-10-10-19-20-24-9-6-20-7-30-4-11 4-20 11-25 21-1 2-2 5-2 7-7 4-12 10-16 17-1 1-1 3-2 4v4l-6 3c-2 2-4 3-6 4-3 2-5 6-5 10s3 7 6 9c5 2 9 8 12 14s7 12 12 16c8 8 12 14 20 23 2 5 4 15 3 29-2-2-4-3-7-4-4-10-12-18-22-22-10-3-21-3-30 2-11 4-19 13-23 24-1 3-1 5-2 8-6 5-11 11-13 19-1 3-2 5-3 8v2l-1 1c-2 2-3 5-3 8s1 5 4 7c7 7 13 12 18 17-16 15-41 46-52 84-8 26-8 57-7 73 2 26 10 47 24 61 2 3 5 5 8 7h-6c-10-6-22-8-33-5-10 2-18 9-23 18-6 10-8 23-4 36 1 2 2 5 4 8-2 8-2 16 1 25 1 3 2 6 4 9-2 3-4 6-5 11s2 10 7 12c25 9 40 10 51 11s15 2 23 8c5 3 9 8 15 15l-1 1c-2 9-3 18-4 26-5 0-9 0-14 1-9-5-20-5-30-2-20 7-33 30-27 51 1 2 1 5 2 7-2 7-2 15 0 23 2 7 6 13 11 18v1c0 5 4 10 9 10 8 2 12 4 16 6 3 2 7 4 11 5 9 2 16 3 23 3 6 0 11 0 18 2 4 1 20 11 37 27v8c1 5 2 10 3 14-1 1-3 2-4 3-1-3-3-5-5-7-14-13-53-23-74-23-5 0-8 0-12 1-5 2-8 6-8 12 2 22 14 77 34 108 16 25 42 46 56 57 22 17 45 25 68 23 15-1 28-5 41-13 1 1 2 3 4 4 2 2 3 4 5 6 0 0-1 0-1 1h-1c-10-3-22-2-31 4-10-2-20 1-28 6-16 12-22 36-11 53 1 2 2 3 3 5 0 7 2 14 6 20 5 9 14 14 24 16 0 3 0 5 2 8 2 5 8 7 13 6 23-7 34-13 43-18 8-4 11-6 20-6 5 0 13 1 25 6-11 1-22 7-29 16-9 2-17 8-23 16-5 9-7 19-4 28 2 10 8 17 17 22 2 1 4 1 6 2 3 6 8 11 14 14 5 2 10 4 16 4 0 1 0 3 1 5 1 3 4 5 7 6h3c3 0 5-1 7-2 2-2 3-3 5-3 3 8 9 18 17 29 2 2 4 4 8 4 3 0 6 1 9 2 0 0 0 1 1 1h1c2 1 11 6 25 13 12 6 34 25 41 31 0 1 1 1 1 1 2 2 3 4 4 6 2 2 4 3 7 4 2 0 5 1 8 1 7 2 13 2 20 2 15 0 29-3 41-10 6-3 12-8 18-13 5-4 10-8 15-11l2 1c6 2 13 5 19 8-5 5-11 11-12 19-4 15 2 27 12 36-3 2-6 6-8 11-8 17-2 32 4 43 8 15 22 24 43 28 3 1 6 1 10 1 14 0 26-5 34-10 13-8 27-29 29-53 1-21-3-39-14-56-6-9-14-16-22-22zm-535-787c1 1 1 1 1 2l1 1c-1 0-1 0-1-1-1 0-1-1-1-2zm108-338c-2 1-4 2-7 3 0-2 1-3 1-4 1-3 2-4 2-4h2s2-1 3-1c0 2-1 4-1 6zm37 35c-5-2-10-3-15-3 1 0 2 0 3-1 7-1 11 0 17 3-2 0-3 1-5 1zm176-242c2-1 5-3 9-4l-5 5c-1 0-3-1-4-1zm-14 47c-5-1-10-1-15-1s-10 0-14 1c2-8 5-15 8-22 13 3 26 8 34 13 6 4 8 7 12 18-7-4-15-7-25-9zm-278 755v6c-2-2-3-5-4-7-3-9-4-22-4-33 6 6 8 9 9 17 0 3 0 9-1 17zm149 299l3 7c-10-5-17-12-21-22 7 7 13 11 18 15zm121 106c-3-2-7-4-11-6 4-1 7 0 11 6zm-40 35s1-1 3-1c-2 1-4 2-6 2 1 0 2-1 3-1zm-7-1236c-1 3-2 8-4 12 0 1 0 1-1 2 0-1-1-2-2-3 1-1 2-3 3-5 1-7 2-21 0-33 4 7 5 15 4 27zm272 1417c-3 5-7 8-13 9-1 1-3 1-4 1-6 0-11-2-14-4 4-2 6-4 8-8 5-7 6-17 3-24-1-2-2-4-3-5v-1c3-3 7-9 5-19-1-6-5-11-11-14 3 0 5 0 6 1 16 7 25 16 28 29 3 12 1 26-5 35zm-418-671l-6 9c-14 17-30 39-38 68 2-21 5-37 7-43 5-18 18-30 40-37l-3 3zm354-858c5 17 7 22 3 34-1 3-4 7-7 11-1-2-2-3-3-5 11-16 11-36 1-52 1-2 1-4 1-6 2 7 4 13 5 18z"/>
  <path d="M1789 1608c2-4 1-9-2-12-4-4-10-4-14-1-23 15-45 26-71 33 21-20 40-42 50-64 13-27 19-55 19-88 0-4-3-8-7-10s-9-1-12 3c-21 21-42 38-65 54 13-19 25-41 32-63 11-34 14-66 11-94-1-4-4-7-8-9-5-1-9 1-12 5-24 34-51 60-86 82 14-56 15-116 3-160-11-40-36-80-66-106-17-14-41-34-60-44-5-3-11-2-14 2-3 5-3 11 1 14 45 44 73 146 59 214-5 23-9 36-21 51-1 2-2 4-2 6l-3 3c-16 26-42 56-73 83-5-3-10-6-17-7-3-1-7-1-12-1-12 0-24 3-33 11-18 14-23 38-24 56s4 39 15 61l98 197c5 10 6 23 2 33-2 8-9 16-15 17-6 0-13-1-16-4-4-4-9-12-14-19-12-17-23-34-37-39-9-2-18-1-26 3l-4-62v-4l-16-236c0-3-1-5-3-7v-2l-14-243-4-67 9 3h2c4 0 8-3 10-7 2-5 0-10-4-13-6-3-10-6-14-10v-1c2-4 7-18 6-29 2 0 3 0 5-1 3-2 5-5 5-9 1-8-1-16-3-23-1-3-3-5-5-6-4-2-7-3-11-5 7-5 14-14 16-27 2-18-9-35-18-45 1-1 2-3 3-5 2-4 1-9-1-13-5-8-13-13-21-13-6 0-11 2-15 5-1-4-1-10-1-14v-10c0-1-1-2-1-3 4-5 7-12 8-18 2-10 0-21-5-27-4-5-10-7-15-7-6 0-11 2-15 7-7 7-8 19-6 27 1 8 4 14 8 18 0 1-1 2-1 3v10s0 10-1 14c-4-3-9-5-15-5-8 0-16 5-21 13-2 4-3 9-1 13 1 2 2 4 3 5-9 10-20 27-18 45 2 13 9 22 16 27-4 2-7 3-11 5-2 1-4 3-5 6-2 7-4 15-3 23 0 4 2 7 6 9 1 1 2 1 3 1 0 11 4 25 6 29v1c-3 4-7 7-12 10s-7 8-5 13c2 4 6 7 10 7h2l9-3-1 29v9c-1 1-1 2-1 3l-17 256v12c-1 1-1 3-1 4l-21 307c-7-4-16-4-25-2-14 5-25 22-37 39-5 7-10 15-14 19-2 2-8 4-13 4h-3c-6-1-13-9-15-17-4-10-3-23 2-33l98-197c11-22 16-43 15-61s-6-42-24-56c-9-8-21-11-33-11-4 0-8 0-12 1-7 1-12 4-17 7-31-27-57-57-73-83l-3-3c0-2-1-4-2-6-12-15-16-28-21-51-14-68 14-170 59-214 4-3 4-9 1-14-3-4-9-5-14-2-19 10-43 30-60 44-30 26-55 66-66 106-12 44-11 104 3 160-35-22-62-48-86-82-3-4-7-6-12-5-4 2-7 5-8 10-3 27 0 59 11 93 7 22 19 44 32 63-23-16-44-33-65-54-3-4-8-5-12-3s-7 6-7 10c0 33 6 61 19 88 10 22 29 44 50 64-26-7-48-18-71-33-4-3-10-3-13 1-4 3-5 8-3 12 24 47 52 82 87 110-21 4-42 7-61 7h-13c-5 0-9 2-11 6-2 5-1 9 2 12 6 5 11 10 16 14 23 20 41 36 64 46-17 4-33 7-50 8-5 0-9 3-10 8-1 4 0 9 4 11 5 3 9 6 13 9 26 18 44 30 65 37-12 5-24 7-40 11-5 1-8 4-9 8 0 5 2 9 6 11 32 19 61 28 93 30-9 7-19 14-32 21-4 3-6 7-5 12 1 4 5 7 9 8 14 2 32 3 51 3h29c-6 7-12 14-17 18-4 3-5 9-3 13 2 5 7 7 12 6 4-1 9-1 16-1 14 0 35 0 56-10 23-11 44-31 54-45h2c2 0 4 0 6-2 15-11 27-29 34-50v-4c9-6 17-15 24-27 6 5 15 8 23 6l-15 228c0 2 0 4 1 6l1 1c-2 2-4 5-4 8v14c-1 1-1 3-1 4l-2 30c0 1 0 3 1 4-1 1-1 2-1 4l-3 43c0 2 0 4 1 6-1 1-1 3-2 4l-2 21-18-3c-4-1-9 1-11 5-3 4-2 9 1 12 11 13 18 33 17 41-1 1-2 3-4 4-2 3-6 7-8 12-7 13-11 33-1 48 1 3 3 5 6 8-22 6-23 29-24 44 0 7-1 14-2 21-4 15-16 24-37 27-4 0-7 3-9 6v5h-6c-6 0-11-1-11-1-4-1-9 1-12 5-2 4-2 9 2 13 19 19 75 56 135 72 39 10 70 12 89 12 6 0 11 0 14-1 2 1 7 1 13 1 19 0 50-2 89-12 60-16 116-53 135-72 4-4 4-9 2-13-3-4-7-6-12-5 0 0-5 1-11 1h-5c1-2 0-3 0-5-2-3-5-6-9-6-21-3-33-12-36-27-2-7-2-14-3-21 0-15-1-38-24-44 3-3 5-5 7-8 9-15 5-35-1-48-3-5-7-9-9-12-1-1-3-3-3-4-1-8 5-28 17-41 2-3 3-8 0-12-2-4-7-6-11-5-7 1-13 2-20 4l-1-21c0-2-1-3-1-5 1-1 1-3 1-6l-3-43c0-2 0-3-1-4 1-2 1-3 1-4l-2-30c0-1-1-3-1-4v-14c0-2-1-5-3-6l2-3c1-2 1-4 1-6l-15-228c8 2 17-1 23-6 6 11 14 20 23 26v5c7 21 19 39 34 50 2 2 4 2 7 2h2c10 14 31 34 54 45 22 10 42 10 56 10 7 0 12 0 16 1 5 1 10-1 12-6 3-4 1-10-3-13-5-4-11-11-17-18h29c19 0 37-1 51-3 4-1 8-4 9-8 1-5-1-9-5-12-13-7-23-14-32-21 32-2 61-11 93-30 4-2 6-6 6-11-1-4-4-7-9-8-15-4-28-6-40-11 21-7 39-19 65-37 4-3 8-6 13-9 4-2 5-7 4-11-1-5-5-8-10-8-17-1-33-4-50-8 23-10 41-26 64-46 5-4 10-9 16-14 3-3 4-7 2-12-2-4-6-6-11-6h-13c-19 0-40-3-61-7 35-28 63-63 87-110zm-569 315h1v3c0-1-1-2-1-3zm115 3v-3h1c0 1-1 2-1 3z"/>
  <path fill="#FFF" d="M1105 2502s5 21 11 24c6 4 7 8 7 8s7 6 17 4c11-2 28-21 28-21l-1-10s11-11 9-22-13-31-13-36c1-6 2-24 24-29s29 0 35 5 6 19 6 19-16-6-26-3c-10 4-13 23-11 32 1 10 8 19 8 19s1 15 4 21c3 7 16 11 16 11s7 13 13 16c7 2 10 1 10 1s2 9 10 10c8 0 17 3 19 9s7 17 7 17-41 4-101-12-114-52-130-69c0 0 18 5 28-1 0 0 1 14 30 7z"/>
  <path fill="#FFF" d="M1448 2502s-5 21-11 24c-6 4-7 8-7 8s-7 6-17 4c-11-2-28-21-28-21l1-10s-11-11-9-22 13-31 13-36c-1-6-2-24-24-29s-29 0-35 5-6 19-6 19 16-6 26-3c10 4 13 23 11 32-1 10-8 19-8 19s-1 15-4 21c-3 7-16 11-16 11s-7 13-13 16c-7 2-10 1-10 1s-2 9-10 10c-8 0-17 3-19 9s-7 17-7 17 41 4 101-12 114-52 130-69c0 0-18 5-28-1 0 0-1 14-30 7z"/>
  <path fill="#C7AA31" d="M1196 2274h2c-18 23 4 45 5 68-15-2-23 4-21 10 3 10 11 22 37 22 27 0 43-20 36-31-6-11-25-8-24-19 0-11 17-12 25-13 10-2 16-7 21-15 6 8 12 13 21 15 8 1 25 2 26 13 0 11-18 8-25 19s9 31 36 31 34-13 37-22c2-6-5-12-21-10 1-23 23-45 5-68h3l23-3c12-2 24-4 36-7-12 15-21 38-19 50 1 6 8 10 13 19 10 19 9 48-22 48h-226c-31 0-31-29-22-48 5-9 12-13 13-19 2-12-6-35-19-50 12 3 24 5 36 7l24 3zm-120 212c30-4 42-18 46-35 7-27-6-59 31-59h248c37 0 24 32 31 59 4 17 17 31 46 35-10 13-23 11-37 7-1 15-3 33-12 30-12 18-26-6-36-13 1-21-1-1-9-25 8-18 15-36 14-40-3-18-18-33-47-33-30-1-36 20-29 41 17-7 17-9 25-5 9 4 13 35-1 43 0 10-4 25-15 27-5 13-17 17-23 17-6 10-25 7-31 23-6-16-25-13-31-23-6 0-18-4-23-17-11-2-15-17-15-27-14-8-10-39-1-43 8-4 8-2 25 5 7-21 1-42-29-41-29 0-44 15-47 33-1 4 7 22 14 40-8 24-10 4-9 25-9 7-24 31-36 13-9 3-11-15-12-30-14 4-27 6-37-7z"/>
  <path fill="#FFF" d="M1347 2346v-12c0-6 11-31 12-41 1-9-9-16-9-16-12 3-68 4-73 4s-60-1-73-4c0 0-10 7-8 16 1 10 11 35 11 41 1 7 0 12 0 12s-19-1-19 3c0 3 0 12 14 19 9 4 27 3 36-3 9-7 19-16 7-24-12-7-22-4-20-20 3-16 26-10 35-16s16-15 16-15h2s8 9 16 15c9 6 33 0 35 16s-8 13-20 20c-12 8-1 17 7 24 9 6 28 6 36 3 13-5 14-16 14-19 0-4-19-3-19-3z"/>
  <path fill="#C7AA31" d="M1108 1542c-5-4-3-12-1-17 4-8 11-13 20-15 12-3 26 0 36 8 14 11 19 31 20 48 1 20-5 39-14 56l-97 198c-7 12-8 27-3 40 3 11 12 23 24 24 8 1 19-1 25-7 13-12 30-49 47-55 11-3 21 2 27 10 10 13 10 34-12 41-7 2-14-2-16-7-1-4-3-12 4-20 1-1 3-3 5-3 2-1 4-2 6-1-2-1-4-2-6-1-1 0-3 0-4 1-5 2-9 8-10 12-12 30-32 54-68 51-21-2-36-20-43-38-6-19-4-39 5-56l97-198c8-14 13-30 12-46 0-12-3-30-16-36-3-1-10-3-14-2-3 1-5 2-6 4 0 2 1 2 2 1 2-1 3-2 3-3l1 2c-2 15-18 14-24 9zm-20 408c-8 12-29 35-53 46-29 13-55 7-71 11 12-10 25-28 33-39-29 2-70 3-100-1 23-14 36-25 54-42 8 5 16 8 25 11-10 6-17 12-24 18 15 0 33-3 53-9-2 10-5 19-9 30l34-22h4c3-1 5-1 7-2-12 15-21 30-26 43 19-8 42-24 64-46 2-1 4-1 6-2 1 1 2 2 3 4zm-138-25c-38 2-72-3-115-28 27-6 44-10 71-26-41-3-58-18-105-49 28-2 56-8 83-19-44-10-63-31-105-68 32 3 66-5 101-12-37-24-73-59-103-119 35 22 66 36 110 40-29-26-60-55-73-84-14-29-18-56-18-84 37 38 74 61 122 93-30-34-59-76-71-112-9-30-14-62-10-89 31 44 65 74 112 99-18-57-24-128-9-180 11-41 36-78 62-101 16-13 40-33 59-43-48 46-78 151-63 223 6 25 10 39 23 56 0 8-1 17-1 25 0 12 0 23 1 35-14-18-27-32-40-42 4 22 14 51 31 80-2-1-3-2-5-4-5-3-10-6-14-9-12-7-22-13-34-22l-10-7 2 12c2 16 5 30 9 42-14-12-27-21-39-27 8 21 24 47 47 73-16 0-31-2-46-6 11 15 22 30 34 45 1 0 1 1 2 2-21-11-40-18-56-21 10 15 26 32 47 47h-3c-18 1-35 2-51-2 8 15 21 27 33 39-21-6-40-9-56-9 16 14 41 30 71 42-4 1-8 2-11 2-16 3-31 5-46 8 11 10 24 17 37 25 1 1 1 1 2 1-24 1-46 4-61 10 15 8 36 14 60 17-1 0-1 1-2 1-12 8-25 16-31 20l-8 5 9 4c12 5 23 10 34 15h1c-19 2-35 5-48 9 14 7 34 13 56 16-10 8-19 15-30 22 13 6 25 11 37 14-12 4-23 8-31 13 16 4 38 6 63 5-1 1-1 2-2 3-7 8-14 14-22 20zm656 0c-8-6-15-12-22-20-1-1-1-2-2-3 25 1 47-1 63-6-8-4-19-8-31-12 12-3 24-8 37-14-11-7-20-14-30-22 23-3 42-9 56-16-13-4-29-7-48-9h1c11-5 22-10 34-15l9-4-8-5c-6-4-19-12-31-20-1 0-1-1-2-1 24-3 45-9 60-17-15-6-37-9-61-10 1 0 1-1 2-1 13-8 26-15 37-25-15-3-30-5-46-8-3 0-7-1-11-2 30-12 55-28 71-42-16 0-35 3-56 9 12-12 25-24 34-39-17 4-34 3-51 2h-4c21-15 37-32 47-47-16 3-35 10-56 21 1-1 1-2 2-3 12-14 23-29 34-44-15 4-30 6-46 6 23-26 39-52 47-73-12 6-25 15-39 27 4-12 7-26 9-42l2-12-10 7c-12 9-22 15-33 22l-15 9c-2 2-3 3-5 4 17-29 27-58 31-80-13 10-26 24-40 42 1-12 1-23 1-35 0-8-1-17-1-25 13-17 18-31 23-56 15-72-15-177-62-223 18 10 42 30 58 43 26 23 51 60 62 101 15 52 9 123-9 180 47-25 81-55 112-99 4 27-1 59-10 89-12 36-41 78-71 112 48-32 85-55 122-93 0 28-4 55-18 84-13 29-44 58-73 84 44-4 75-18 110-40-30 60-66 95-103 119 35 7 69 15 101 12-42 37-61 58-105 68 27 11 55 17 83 19-47 31-64 46-105 49 27 16 44 20 71 26-43 25-77 30-115 28zm-138 25c1-2 2-3 3-4 2 1 4 1 6 2 22 22 45 38 64 46-5-13-14-28-26-43 2 1 4 1 7 2h4l34 22c-4-11-7-20-9-30 20 6 38 9 53 9-6-6-14-12-24-18 9-3 17-6 25-11 18 17 31 28 54 42-30 4-71 3-100 1 8 12 21 29 33 39-16-4-42 2-71-11-24-11-45-34-53-46zm-364-432c-30-26-60-58-78-88 0 21-2 42 1 63 2 16 9 32 14 48-12-7-25-13-37-20-17-11-31-20-48-32 6 42 15 62 41 95-23 0-39 0-63-3 21 25 31 39 52 65-29 5-51 6-81 5 24 21 39 44 63 66-29 4-42 7-71 11 23 12 35 24 58 36-20 13-41 26-61 39 25 10 43 20 67 30-17 13-27 24-45 36 23 11 47 16 72 21-8 14-14 23-29 34 18 9 35 11 55 6 0 8-7 30-11 37l24-18h1v-2c1-2 1-5 1-7 1-3 1-5 2-7 2-5 3-9 5-13-14 2-28 2-40-1l-5-1c-1 0-3 1-4 1l6-6v-1c1-2 3-5 4-7 2-2 4-4 6-7 5-6 11-11 18-17h-12c-15-2-28-7-39-13-6-1-12-2-16-3 2-1 4-2 7-4h-1l5-4h1c2-2 4-4 6-5 3-2 5-3 8-5 8-4 18-8 29-10-13-6-24-14-32-23-17-2-33-5-44-10 15-6 37-10 61-10 8 0 15 0 22 1l-2-2c-13-10-22-21-27-33-11-5-20-11-27-18 15-6 35-7 55-2-2-5-4-10-5-14l-1-7h5c-18-13-32-29-39-44 15 0 33 6 49 17l-1-5 7-1h1c3 1 5 1 8 1s6 1 9 1l11 3c-4-5-8-11-11-17-4-2-8-4-12-7-19-13-33-30-38-47 17 1 38 8 57 21 4 2 7 5 9 7-4-8-8-15-10-23l-1-6h1c-15-16-24-34-27-49 16 3 35 12 51 28-1-5-2-9-2-14l-1-6 7 1c3 0 6 1 8 2 3 0 6 1 9 2l12 6c-1-2-3-5-4-8-4-3-8-8-12-12-15-18-23-37-25-54 10 3 20 8 29 16 1-5 3-9 5-13zm348 0c2 4 4 8 5 13 9-7 19-13 29-16-2 17-10 36-25 54-4 5-8 9-12 12-1 3-3 6-4 8l12-6c3-1 6-2 9-2 2-1 5-2 8-2l7-1-1 6c0 5-1 9-2 14 16-16 35-25 51-28-3 15-12 33-27 49h1l-1 6c-2 8-6 16-10 23 2-2 5-5 9-7 19-13 40-20 57-20-5 16-19 33-38 46-4 3-8 5-12 8-3 5-7 11-11 17 4-2 7-3 11-4 3 0 6-1 9-1h16l-1 5c17-11 34-16 49-17-7 15-20 31-39 44h5l-1 7c-1 4-3 9-5 14 20-5 40-4 55 2-7 7-16 13-27 18-5 12-14 24-27 33-1 1-1 2-2 2 7-1 14-1 22-1 24 0 46 4 61 10-11 5-26 8-44 10-8 9-19 17-32 23 11 2 21 6 29 10 3 2 5 3 8 5 2 1 4 3 7 5l5 4h-1c3 2 5 3 8 4-5 1-11 2-17 3-11 6-24 11-39 13h-9c-1 0-2 1-3 1 7 5 13 10 19 16 1 3 3 5 5 7 1 2 3 5 4 7v1l6 6c-1 0-3-1-4-1l-5 1c-12 3-26 3-40 1 2 4 4 8 5 13 1 2 1 5 2 7 0 3 1 5 1 7v2h1l24 18c-4-7-10-29-11-37 20 5 37 3 55-6-14-11-21-20-29-34 25-5 49-10 72-20-18-13-28-24-45-37 24-10 42-20 67-30-20-13-41-26-61-39 23-12 35-24 58-36-29-4-42-7-71-11 24-22 39-45 63-66-30 1-52 0-81-5 21-26 31-40 52-65-24 3-40 3-63 3 26-33 35-53 41-95-17 12-31 21-48 32-12 7-25 13-37 20 5-16 12-32 14-48 3-21 1-42 2-63-19 30-49 62-79 88zm-366 421c-9 5-17 8-25 9v-5c4-2 7-4 11-7 2-2 4-4 6-5l5-5 3 13zm43-335c-16-17-25-37-27-55 9 1 20 3 30 6v2c2 9 5 17 11 25 1 2 2 4 4 5 1 1 2 2 3 4-4-1-8-1-12-1h-3c-1 1-2 1-3 1h-1l-6 1 2 6c0 2 1 4 2 6zm-20 36l-1-1c-16-17-25-37-27-55 13 2 26 8 38 16 2 3 4 5 6 7 0 0-1-1 0 0l9 9c-2-1-4-2-7-2-1-1-2-1-3-1 0 0-1 0-2-1h-6l-1 5c0 8 1 16 3 24 1 2 1 4 2 5v1c-2-2-4-3-6-4 0-1-1-1-2-2-1 0-2-1-3-1zm-24 25c-13-12-22-27-26-41 12 0 24 2 36 8l2 2c2 3 4 5 6 7l-1 2c-4 9-5 19-3 30-1-1-2-2-3-2-1-1-3-2-4-2-1-1-2-2-3-2l-4-2zm-5 40c-17-14-28-31-33-47 9 0 19 2 29 5l1 1c1 2 3 3 5 5l-1 1c-3 9-4 20-2 32 0 1 0 2 1 3zm-19 33c-16-14-27-30-31-46 11 0 24 2 36 8 2 2 4 3 6 5s5 4 8 7c1 0 1 1 2 1 0 1 1 1 1 2v1s0 1 1 1c-3-2-5-3-8-5-1 0-2-1-3-1-1-1-3-1-4-1l-5-2-2 5c-2 8-2 16-1 25zm-19 28c-14-12-23-27-27-42 10 0 20 2 31 6 0 1 1 1 1 2l7 7c3 2 5 4 8 6l1 1c1 2 1 4 2 6-3-2-7-3-10-4-2 0-3-1-4-1-2 0-3 0-4-1h-6v5c-1 5 0 10 1 15zm-15 30c-17-11-30-25-37-40 12-2 25-1 38 3 1 2 3 4 5 6l7 7c1 1 3 2 4 3 1 2 2 4 3 5 0 2 1 4 2 6s3 4 4 5l2 3h-2c-8-1-15 0-22 1-1 0-2 1-3 1h-1zm-9 39c-17-6-30-16-39-27 11-5 26-7 41-6l1 2c3 6 7 12 12 17 1 1 2 1 3 2l3 3c-8 2-15 5-21 9zm10 41c-23 1-45-5-59-15 10-9 23-15 39-18l-1 1 4 4c5 5 12 8 19 11 2 1 3 1 5 2 1 0 3 1 4 1-5 5-8 10-11 14zm26 33c-20 8-40 9-56 6 5-11 14-20 25-29l-2 6 6 1c6 0 12 0 19-1h3c2 0 3-1 4-1h2v4c-1 5-1 9-1 14zm29 10c-1 0-1 1-2 2-14 15-31 24-47 27 0-10 4-20 9-30l9-3h2c1 1 1 3 1 4 0 2 1 4 1 5s1 3 1 4l2 7 6-4c6-3 11-7 17-12 0-1 1-1 1-2v2zm387 20l3-13 5 5c2 1 4 3 6 5 4 3 7 5 11 7v5c-8-1-16-4-25-9zm-43-335c1-2 2-4 2-6l2-6-6-1h-1c-1 0-2 0-3-1h-3c-4 0-8 0-12 1 1-2 2-3 3-4 2-1 3-3 4-5 6-8 9-16 11-25v-2c10-3 21-5 30-6-2 18-11 38-27 55zm20 36c-1 0-2 1-3 1-1 1-2 1-2 2-2 1-4 2-6 4v-1c1-1 1-3 2-5 2-8 3-16 3-24l-1-5h-6c-1 1-2 1-2 1-1 0-2 0-3 1-3 0-5 1-7 2l9-9c1-1 0 0 0 0 2-2 4-4 6-7 12-8 25-14 38-16-2 18-11 38-27 55l-1 1zm24 25l-4 2c-1 0-2 1-3 2-1 0-3 1-4 2-1 0-2 1-3 2 2-11 1-21-3-30l-1-2c2-2 4-4 6-7 1 0 1-1 2-2 12-6 24-8 36-8-4 14-13 29-26 41zm5 40c1-1 1-2 1-3 2-12 1-23-2-32l-1-1c2-2 4-3 5-5l1-1c10-3 20-5 29-5-5 16-16 33-33 47zm19 33c1-9 1-17-1-25l-2-5-5 2c-1 0-2 0-4 1-1 0-2 1-3 1-2 2-5 3-8 5 1 0 1-1 1-1v-1c0-1 1-1 1-2 1 0 1-1 2-1 3-3 6-5 8-7s4-3 6-5c12-6 25-8 36-8-4 16-15 32-31 46zm19 28c1-5 2-10 1-15v-5h-6c-1 1-2 1-4 1-1 0-2 1-4 1-3 1-7 2-10 4 1-2 1-4 2-6l1-1c3-2 5-4 8-6l7-7c0-1 1-1 1-2 11-4 21-6 31-6-4 15-13 30-27 42zm15 30h-1s-2-1-3-1c-7-1-14-2-22-1h-2l2-2v-1c1-1 3-3 4-5s2-4 2-6c1-1 2-3 3-5 1-1 3-2 4-3l7-7s4-4 5-6c13-4 26-5 38-3-7 15-19 29-37 40zm9 39c-6-4-13-7-21-9l3-3c1-1 2-1 3-2 5-5 9-11 12-17l1-2c16-1 30 1 41 6-9 11-22 21-39 27zm-10 41c-3-4-6-9-11-14 1 0 3-1 4-1 2-1 3-1 5-2 7-3 14-6 19-11l4-4-1-1c16 3 29 9 39 18-14 10-36 16-59 15zm-26 33c0-5 0-9-1-14v-4h2c1 0 2 1 4 1h3c7 1 13 1 19 1l6-1-2-6c11 9 20 18 25 29-16 3-36 2-56-6zm-29 10v-2c0 1 1 1 1 2 6 5 11 9 17 12l6 4 2-7c0-1 1-3 1-4s1-3 1-5c0-1 0-3 1-4h2l9 3c5 10 9 20 9 30-16-3-33-12-47-27-1-1-1-2-2-2zm-25-377c-6 5-22 6-24-9l1-2c0 1 1 2 3 3 1 1 2 1 2-1-1-2-3-3-6-4-4-1-11 1-14 2-13 6-16 25-16 36-1 16 5 32 12 46l97 198c9 17 11 37 5 56-7 18-22 36-43 38-36 4-56-21-68-51-1-4-5-10-10-12-1-1-3-1-4-1-2-1-4 0-6 1 2-1 4 0 6 1 2 0 4 2 5 3 7 8 5 16 4 20-2 5-9 9-16 7-22-7-22-28-12-41 6-8 16-13 27-10 17 6 34 43 47 55 6 6 17 8 25 7 12-1 21-13 24-24 5-13 4-28-3-40l-97-198c-9-17-15-36-14-56 1-17 6-37 20-48 10-8 24-11 36-8 9 2 16 7 20 15 2 5 4 13-1 17zm-270 571l39 71 61-132 61 132 39-71-16-241c0-1-1-1-1-1v1c-3 5-6 14-8 24-9 33-15 81-16 95-1 6-13 6-13 0v-177h-22v192c0 3-3 6-6 6h-36c-3 0-6-3-6-6v-192h-22v177c0 6-12 6-13 0-1-14-7-62-16-95-2-10-5-19-8-24v-1s-1 0-1 1l-16 241z"/>
  <path fill="#FFF" d="M1248 1121l-2 18-13 24s-8-22-4-31c0 0-1-7 19-11zm58 0l2 18 13 24s8-22 5-31c0 0 0-7-20-11zm-100 1111l-33-57 2-29 40 73-6 13m139 0l33-57-2-29-40 73 5 13m-5-1046c-21-12-29-28-33-42-2 8-4 15-8 22 11 11 24 17 41 20zm-61-1c11-11 21-28 24-46 1-7 1-13 1-19-8-2-17-3-25-3-9 0-17 1-25 2-1 7-1 14 0 20 4 23 13 35 25 46zm-29-40c-4 14-12 29-33 41 17-3 30-9 41-19-4-7-6-15-8-22z"/>
  <path fill="#C7AA31" d="M1297 1173c-3 4-5 9-11 16l-2 1-1 34c4 5 22 24 19 37-2 7-8 13-15 21-6 5-11 11-13 17 3-5 8-8 14-8 8 0 18 6 19 17 3 28-31 52-42 59s-14 16-11 39c0 3 1 7 1 10 2 19 4 32-2 44-5 8-10 17-14 23h14c2 0 3 1 3 3v222h52v-142c0-1 2-3 3-3h12c-3-7-8-20-1-32s12-23 13-26l-14-243-5-75-19-14z"/>
  <path fill="#FFF" d="M1249 1145c-4 14-13 29-33 41 17-3 30-9 41-19-4-7-6-15-8-22zm29-55c13 0 24-17 25-28 3-22-8-37-18-53-6-9-4-26-5-37h-5c0 11 1 28-4 37-11 16-22 31-19 53 2 11 12 28 26 28zm140 445c-10 0-15 12-17 19 8 0 19-3 27-5-6-2-11-10-10-14zm-281 0c1 4-4 12-10 14 8 2 19 5 27 5-2-7-7-19-17-19zm169-391c-2 8-4 15-8 22 11 11 24 17 41 20-21-12-29-28-33-42zm-3-24c-8-2-17-3-25-3-9 0-18 1-25 3-1 6-1 13 0 19 4 23 12 35 24 46 12-11 22-28 25-46 1-7 1-13 1-19zm-26-155c6-4 9-10 11-17 2-10-2-21-11-21-8 0-11 12-10 21 2 8 5 13 10 17z"/>
  <path fill="#FFF" d="M1278 1113c23 0 44 5 58 14 1-7 0-14-2-20-15-7-35-12-56-12-22 0-42 5-57 12-2 6-3 13-2 20 14-9 35-14 59-14zm-313 753l-2-2c-1 0-2 1-3 1 2 0 3 0 5 1zm19-64l9-3h4-3c-21 0-40 2-53 6 9 3 20 5 32 6l-3-4 6-3h1c2-1 5-2 7-2zm22-51c5 0 11 1 16 2-2-3-3-6-5-9-20-4-38-4-52 0 5 4 12 9 19 13l-1-4 6-1c3-1 6-1 9-1h8zm27-29c2 0 4 1 6 2-6-9-11-18-14-27-15-10-31-16-44-18 6 13 18 27 35 39 1 1 2 2 3 2 2 0 4 0 5 1 3 0 6 0 9 1zm10 147c-1-1-1-2-1-2-7 7-11 14-14 21 7 1 15 1 24-1-4-6-7-12-9-18zm59-296c-3-8-5-16-5-23l-1-6 6 1c0-1 0-1-1-1 0-1-1-3-1-4-1-1-1-2-1-4-9-7-17-12-25-15 2 14 10 31 23 47 2 1 3 3 5 5zm-77 230c4 7 9 14 17 20 1-5 3-9 5-14l5-9c-10-1-19 0-27 3zm98-146c-5-5-11-9-17-12-5 13-4 28 2 42l15-30zm472 208c-1 0-2-1-3-1l-2 2c2-1 3-1 5-1zm-88-211h8l-2 6c0 3-1 5-2 8 2-1 4-2 5-4 17-12 30-26 36-39-14 2-32 9-49 21-5 3-9 6-13 10 3-1 6-1 9-2h8zm-12-34c0-1 1-1 1-1 14-15 25-31 28-44-14 4-30 13-45 28l-5 5c-2 6-5 11-8 17 4-2 8-3 12-4 3 0 6-1 9-1h8zm3 169c9-11 13-25 12-37-9 1-17 5-25 10l13 27zm14 80c-2 6-5 12-9 18 9 2 17 2 24 1-2-7-7-14-14-21 0 0 0 1-1 2zm18-66c-8-3-17-4-27-3l5 9c2 5 4 9 5 14 8-6 13-13 17-20zm-82-116c5-14 6-29 1-42-6 3-12 7-17 12l16 30zm88 33c1 0 2-1 3-2 17-12 29-26 35-39-13 2-29 8-44 18-3 9-7 18-14 27 2-1 4-2 6-2 3-1 6-1 9-1 1-1 3-1 5-1zm-466 42c-7-5-16-9-25-10 0 12 3 26 12 37l13-27zm464-236c1-1 2-2 2-4 15-24 25-48 29-66-9 9-20 22-31 37v1c-2 12-5 22-9 33-1 2-1 3-2 4h2c3-2 6-4 9-5zm47 53c20-22 34-44 42-60-10 5-20 14-32 24-5 12-12 24-22 37h12v-1zm-128-6c2-2 3-4 5-5 13-16 21-33 23-47-8 3-16 8-25 15 0 2 0 3-1 4 0 1-1 3-1 4 0 0-1 0-1 1l6-1v6c-1 7-3 15-6 23zm228 190c-15-4-36-6-58-5-4 2-8 5-13 7 6 4 10 7 14 9 23-2 43-6 57-11zm-124-12c3 0 6 0 9 1l7 1-2 4c7-4 14-9 19-13-14-4-32-4-52 1-1 2-3 5-5 8 5-1 11-2 16-2h8zm22-108c7 1 13 2 19 2 19-13 36-27 46-39-15 4-34 13-55 25-3 3-6 8-10 12zm20 71c1 0 3 1 4 1 0 0 1 0 1-1 27-10 50-23 65-34-13 1-30 4-48 10-7 8-14 16-22 24zm-614 224h-5c-7 4-14 9-20 13 13-1 29-4 46-10 0-1 1-2 1-4-8 2-15 2-22 1zm450-320c-6 1-13 3-19 6l13 26c5-11 7-22 6-32zm-31-21c1 5 4 10 6 15l3 5c5-6 9-13 11-20-7-1-13-1-20 0zm61 314c-13 1-24-1-34-5 6 19 17 35 30 45 5-11 7-25 6-40h-2zm-310-352c-6-2-12-2-18-2 2 11 8 22 17 31 2-6 3-13 2-20 0-2 0-6-1-9zm-24 38c2 7 6 14 11 20l3-5c2-5 5-10 6-15-6-1-13-1-20 0zm269-38c-1 3-1 7-1 9-1 7 0 14 2 20 10-9 15-20 17-31-6 0-12 0-18 2zm69 113c-8 4-15 9-21 17l16 32c2-2 3-4 4-6 6-15 6-30 1-43zm101 266c-7 1-14 1-22-1 0 2 1 3 1 4 18 6 33 9 46 10-6-4-12-9-20-13h-5zm6-44c1 2 1 3 2 4 23 2 43 1 58-2-8-3-18-6-30-9-9 3-19 5-30 7zm-450-244l13-26c-6-3-13-5-19-6-1 10 1 21 6 32zm479 185c4 3 7 6 11 9 18-2 35-6 47-10-12-3-27-5-44-5-5 2-9 4-14 6zm-89 17c0 2 0 4-1 6 10-3 19-7 26-13-7-6-16-11-26-13 1 7 2 13 1 20zm-33-95c7-14 9-29 5-42-7 3-14 7-20 13l14 30 1-1zm13 139c-4 4-8 7-12 9h-1c-2 2-5 3-8 4-1 0-2 1-3 1 6 7 14 14 21 18 3-10 4-20 3-32zm4 51v2l1 6-7-1c-2 0-5-1-7-1 17 16 34 28 47 35-6-11-15-24-27-38-2-1-5-2-7-3zm-521-53c-11-2-21-4-30-7-12 3-22 6-30 9 15 3 35 4 58 2 1-1 2-2 2-4zm-27-179c1 0 3-1 5-1-9-8-16-16-23-24-18-6-35-9-48-10 15 11 38 24 65 34 0 1 1 1 1 1zm-7 50c-5-2-9-5-12-7-23-1-44 1-59 5 15 5 34 9 57 11 4-2 8-5 14-9zm145 146h-2c-1 15 1 29 7 40 12-10 23-26 29-45-9 4-21 6-34 5zm-116-331h12c-10-13-17-25-22-37-12-10-22-19-31-24 7 16 21 38 41 60v1zm103 41c4 1 8 2 12 4-3-6-6-11-8-17l-5-5c-15-15-31-24-45-28 4 13 14 29 28 44 1 0 1 0 1 1h9c2 0 5 1 8 1zm-56-95c3 1 6 3 9 5h2c-1-1-1-2-2-4-4-11-7-21-9-33v-1c-11-15-22-28-31-37 4 18 14 42 29 66 1 2 1 3 2 4zm-71 309c-5-2-9-4-14-6-17 0-32 2-44 5 12 4 29 8 47 10 4-3 8-6 11-9zm7-190c6 0 12-1 19-2-4-4-7-9-10-12-20-12-40-21-55-25 10 12 27 26 46 39zm115 260c-5-2-9-5-13-9-1 12 0 22 3 32 7-4 15-11 21-18-1 0-2-1-3-1-3-1-6-2-8-4zm1-148v1l14-30c-6-6-13-10-20-13-4 13-2 28 6 42zm-70-132c6 13 19 27 36 39 2 2 3 3 5 4-1-3-1-5-2-8l-2-6h16c3 1 6 1 9 2-4-4-8-7-13-10-17-12-35-19-49-21zm104 64c-6-8-13-13-21-17-5 13-5 28 2 43l3 6 16-32zm455 110h-4 4l9 3c2 0 5 1 8 2l6 3-3 4c13-1 24-3 32-6-13-4-32-6-52-6zm-508 156l1-6v-2c-2 1-4 2-7 3-12 14-21 27-27 38 13-7 30-19 48-35-3 0-5 1-8 1l-7 1zm-15-103c-1-7 0-13 1-20-10 2-19 7-26 13 7 6 16 10 26 13 0-2-1-4-1-6zm315-102l-16-236c-2 5-6 13-10 21-8 12 3 30 3 30 1 1 1 2 0 3s-2 2-3 2h-13v141c0 2-2 3-4 3h-58c-2 0-3-1-3-3v-222h-16c-1 0-2 0-3-1s-1-3 0-4l16-27c5-10 4-23 2-41-1-3-1-6-2-9-2-23-1-36 14-45 3-2 10-6 17-13v1c3-3 4-4 8-7 1-1 2-3 3-4 7-9 13-19 11-30-1-8-7-12-12-12s-9 3-11 8c-1 4-1 7 0 9s2 2 5 2c2 0 4 0 4-1 0-2 1-4 3-4s3 1 3 3c0 1 0 5-3 8-2 3-4 4-8 4-5 0-9-2-11-5-4-4-5-11-4-21 2-8 9-15 16-23 6-6 12-12 14-18 1-8-11-24-19-32-1 0-1-1-1-2l1-32v-1l-18-19h-1c-6 4-12 8-19 11l-3 40h1l-1 12-17 255-1 17-22 322c2 3 4 6 5 10 2 6 3 12 1 18v2c1 2 3 5 4 7 3 7 6 16 9 27 1 5 3 12 4 18v-103c0-3 3-6 6-6h35c3 0 6 3 6 6v192h23v-192c0-3 3-6 6-6h35c3 0 6 3 6 6v103c2-6 3-13 4-18 3-11 6-20 9-27 1-2 3-5 4-7v-2c-2-6-1-12 1-18 1-4 3-7 5-10l-5-80zm-94-735s-15 21-15 38c0 18 16 37 16 37s-9 1-12 3c0 0-25-7-27-28-3-22 25-47 25-47s-15-3-10-10c8-14 26-7 23 7zm35 0s15 21 15 38c0 18-16 37-16 37s9 1 12 3c0 0 25-7 27-28 3-22-25-47-25-47s15-3 10-10c-8-14-26-7-23 7zm-126 1222s49 8 103 8 112-8 112-8l2 28s-41 8-112 8-108-8-108-8l3-28zm109 491c-88 0-176-19-246-61-101-62-176-152-221-289-3-8-15-19-22-20-8-2-18-2-21 3s-3 12-2 17c3 21 8 37 24 56 15 17 40 41 19 70 33-22-1-59-17-77-11-14-20-42-18-55 3-11 15-8 23 7 27 50 38 98 72 149-12 3-29 10-32 31-12 0-14 3-25 16 6-14 6-28 1-42-2-7-15-29-30-30-9 0-19 10-26 43 9-27 17-37 27-33 14 5 23 14 23 36-1 21-11 51-25 64-21 9-36-2-39-10-9-24-4-43 1-62 9-31 24-60 20-95-5-41-18-84-23-105-6-29 22-51 51-43s68 38 90 72c15 23 22 48 23 68 8-25 3-51-23-82 21 10 41-7 58 17 29 53 80 223 338 223 257 0 308-170 337-223 17-24 37-7 58-17-26 31-31 57-23 82 1-20 8-45 23-68 22-34 61-64 90-72s57 14 51 43c-5 21-18 64-23 105-4 35 11 64 20 95 5 19 10 38 1 62-3 8-18 19-39 10-14-13-24-43-25-64 0-22 9-31 23-36 10-4 18 6 28 33-8-33-18-43-27-43-15 1-28 23-30 30-5 14-5 28 1 42-11-13-13-16-25-16-3-21-20-28-32-31 34-51 45-99 72-149 8-15 21-18 23-7 2 13-7 41-18 55-16 18-50 55-17 77-21-29 4-53 19-70 16-19 22-35 24-56 1-5 1-12-2-17s-13-5-21-3c-7 1-19 12-22 20-44 137-120 227-221 289-70 42-157 61-245 61zm347-118c-5 47-18 62-52 61v20c8 9 22 12 31 7 10-6 25-4 34 4 2-5 6-16-5-26-4-3-23-3-32-1 8-3 16-5 28-6 22-2 49 3 62 15-3-10 3-36 16-45-18 7-21-17-32-8-3 3-8 17-12 26 0-12 1-18 6-26-2-3-5-4-5-10-15 2-20-10-30-17l-9 6zm98 6c-15-2-20 4-40-7-2-2-5-5-8-5-1 0-3 1-3 4-2-3 2-6 4-6 3 0 6 4 9 2 5-1 8-9 9-11 1-6-13-3-20-11s-23-13-25-9c-1 2-2 5-5 6 9 0 19 1 20 12-2-3-4-5-10-7-7-3-15-2-22 4 2 5 9 5 5 12 14-2 8 21 29 15 2 8 5 16 11 9 2-1 1-7-2-14 7 8 13 23 23 24 5 1 9 0 17-1 11-1 19 3 23 9 8 12 1 32-12 36 18-16 10-31 6-36-5-5-13-5-17-3-12 4-22 25-17 43 1-2 5-3 8-2 1-12 6-20 13-24-8 11-11 20-9 36 16-2 32 1 43-13 1-16 8-35-8-45-3-3-12-7-15-14-3-5-5 1-7-4zm21-4c1-6 3-13 0-20-6-13-21-24-31-24-3-25-20-33-32-32-9 10-22 25-28 32 18-1 26 8 44 11 7 1 1 18-9 29 5 3 19 5 28 0 8-3 13-8 13-21 9 14-4 20-2 25 13 5 5 11 15 13 14 2 12 6 18 23 1-5 11 0 13-3 3-8-15-43-22-48-2 0 0 9-7 15zm-814-2c5 47 18 62 52 61v20c-8 9-22 12-31 7-10-6-25-4-34 4-2-5-6-16 5-26 4-3 23-3 32-1-7-3-16-5-28-6-21-2-49 3-61 15 2-10-3-36-17-45 18 7 21-17 32-8 3 3 8 17 12 26 0-12-1-18-6-26 2-3 5-4 5-10 15 2 20-10 30-17l9 6zm-98 6c15-2 20 4 40-7 2-2 5-5 8-5 1 0 3 1 3 4 2-3-2-6-4-6-3 0-6 4-9 2-5-1-8-9-9-11-1-6 13-3 20-11 8-8 23-13 25-9 1 2 2 5 5 6-9 0-19 1-20 12 2-3 4-5 10-7 7-3 16-2 22 4-2 5-9 5-5 12-14-2-8 21-29 15-1 8-5 16-11 9-2-1-1-7 2-14-7 8-13 23-23 24-5 1-9 0-16-1-12-1-20 3-24 9-8 12-1 32 12 36-18-16-10-31-5-36 4-5 12-5 16-3 12 4 22 25 17 43-1-2-5-3-8-2-1-12-6-20-13-24 8 11 11 20 9 36-16-2-32 1-43-13-1-16-7-35 8-45 4-3 12-7 15-14 3-5 5 1 7-4zm-21-4c-1-6-3-13 0-20 6-13 21-24 31-24 4-25 20-33 32-32 9 10 22 25 28 32-18-1-26 8-44 11-7 1-1 18 9 29-4 3-19 5-28 0-7-3-13-8-13-21-9 14 4 20 2 25-13 5-5 11-15 13-14 2-12 6-18 23-1-5-11 0-13-3-3-8 15-43 22-48 3 0 0 9 7 15z"/>
  <path d="M989 2539c3 0 4-1 6-1 1-1 2-1 2-2 1-1 1-2 0-3 0-1-1-2-2-4l2-2 16 16-3 3c-1-1-2-2-3-2-1-1-2-1-3-1-1-1-3-1-4 0h-5l-26 5-15 13c-1 0-1 1-1 1-1 1-1 1 0 2 0 1 0 2 1 3l3 3-3 3-21-23 3-3 3 3 2 2h2c1 0 1 0 2-1l14-12 10-30v-5s0-2-1-3c0 0-1-2-1-3l2-2 21 23-3 2-3-3s-2-1-3-1-1 0-2 1c0 0 0 1-1 2l-8 23 19-4zm15 78c-4-2-7-6-9-9s-3-7-4-11 0-8 1-12 3-8 6-12 7-7 11-10c3-2 7-4 11-4 4-1 8-1 12 0s8 3 12 6c4 2 7 6 9 9s3 7 4 11 0 8-1 12-3 8-6 12-7 7-11 10c-3 2-7 4-11 4-4 1-8 1-12 0s-8-3-12-6zm3-3c4 3 9 4 14 2s10-7 17-15c3-4 5-8 7-11 1-4 2-7 2-9 1-3 0-6-1-8s-3-4-5-5c-2-2-4-3-7-3-2 0-4 0-7 1-2 1-5 3-8 5-3 3-6 6-9 10-6 8-9 15-9 20-1 6 1 10 6 13zm77 48c-5-2-8-4-11-7-4-3-6-6-8-10-1-4-2-8-2-12 0-5 2-9 4-14 2-4 4-8 8-11 3-3 6-5 10-7 4-1 9-2 13-2s9 1 13 3c3 2 6 3 8 5 3 2 4 3 6 4l3-2 4 2-8 19-4-2c0-5-1-10-2-14-2-4-5-6-9-8-2-1-5-2-7-1-3 0-5 1-8 2-2 1-5 4-7 6-2 3-5 7-7 12-2 4-3 9-4 12 0 4 0 7 1 10 0 3 1 5 3 7s4 4 6 5c2 0 4 1 6 1 2 1 3 1 5 0l7-16c1-1 0-2-1-3s-3-3-7-4l2-4 27 12-1 3c-3-1-5-1-6-1s-1 1-2 2l-8 17h-11c-2-1-4-1-7-2-2 0-4-1-6-2zm102-21c1-2 3-3 3-4 1-2 1-3 1-3 0-1 0-2-1-3-1 0-3-1-5-2l1-3 22 5v3h-4s-2 1-3 1c-1 1-2 2-3 2-2 1-3 3-4 4l-19 18-4 20v1c0 1 1 1 1 2 1 0 2 1 3 1 1 1 2 1 4 1l-1 4-31-7 1-3h8s1 0 1-1c1 0 1-1 1-1l4-18-10-30c0-1-1-2-1-2 0-1-1-2-2-2 0-1-1-1-2-2-1 0-2-1-3-2l1-3 30 7-1 3h-7c-1 1-1 1-1 2s0 2 1 3l7 23 13-14zm36 39c-1 2-2 3-2 5-1 1-1 2 0 3 0 0 1 1 2 1 1 1 3 1 5 2l-1 3-22-1v-3c2-1 3-1 4-2 2 0 3-1 3-2l3-3c1-2 2-3 2-5l22-47 9 1 16 54c1 1 1 2 2 2 0 1 1 2 1 3 1 0 2 1 3 1s2 1 4 1v4l-33-2 1-4h5s2-1 3-1c1-1 1-1 1-2v-3l-4-13-21-1-3 9zm16-35l-11 22 18 1-7-23zm75 41v2c0 1 1 1 1 1 1 1 1 1 2 1h4v3l-29 3v-3c2-1 3-1 4-1s2-1 3-1l1-1v-2l-4-47c0-1-1-1-1-2 0 0-1 0-1-1h-8v-4l31-3v4c-3 0-6 1-7 2-1 0-1 1-1 3l2 24 18-21c3-3 4-5 3-7 0-1-2-2-6-2v-4l26-2v3c-2 1-4 1-5 2-1 0-2 1-4 2l-4 4-5 5-9 11 22 25 3 3c1 0 2 1 2 1 1 1 2 1 3 2h4l1 4-30 3v-4c3-1 5-1 5-2 1-1 0-3-2-5l-16-18-5 6 2 16zm74-17v5s1 2 1 3c1 0 2 1 3 1h5l1 3-22 6-1-3c2-1 3-2 4-3s1-2 2-3c0-1 1-2 1-4 0-1 1-3 1-5l5-51 8-3 34 46c0 1 1 2 2 2 0 1 1 1 2 2h8l1 3-32 9-1-3c2-1 4-2 5-2 1-1 2-2 3-2v-3s-1-1-1-2l-8-11-20 5-1 10zm4-39l-2 25 16-4-14-21zm86 14c0 1 1 2 3 2 1 0 3-1 6-3l2 4-28 14-2-3c2-1 3-2 4-3s2-1 3-2v-3l-22-42c-1 0-1-1-2-1 0-1-1-1-1-1-1 0-2 1-3 1s-3 1-4 2l-2-4 27-13c4-2 8-4 12-5h8s4 1 6 2c1 2 3 3 4 5s1 3 1 5c1 2 0 4 0 5l-3 6c-2 2-4 4-7 6 3-1 6-2 8-2 2-1 4-1 5 0 2 0 3 1 4 2 2 1 3 2 4 4l4 6c1 2 2 3 3 3 1 1 1 1 2 1 1 1 2 1 3 0 1 0 3-1 4-1l2 3c-1 1-2 1-3 2-1 0-2 1-3 1-3 2-6 3-8 4h-5s-3-1-4-2-2-2-3-4l-4-6c-1-2-2-4-3-5-2-1-3-2-4-2h-4l-6 3-5 2 11 19zm-7-25c2-1 4-3 5-4 2-1 3-3 3-4v-5c-1-1-1-3-2-5-2-4-5-6-7-7-3-1-7 0-12 3l-4 2 12 22 5-2zm71-8c1-2 3-3 3-4 1-1 2-1 2-2 1-1 1-1 1-2 0 0-1-1-1-2l-33-39-2 2c-1 1-2 2-3 4-1 1-1 3-1 5s0 4 1 6 1 5 2 8l-3 2-13-17 44-35 14 16-3 3c-2-2-5-3-7-4s-4-2-6-2c-1-1-3-1-5 0-2 0-3 1-5 2l-2 2 32 39c1 1 1 1 2 1 1 1 1 0 2 0s2 0 3-1 2-2 4-3l2 3-26 21-2-3zm51-59c1 2 2 3 3 4 0 1 1 2 2 2h3c1-1 2-2 4-3l2 2-14 17-3-3c1-1 2-2 2-4v-3s-1-3-1-4c-1-2-2-3-3-5l-25-45 6-6 54 19c1 0 2 1 3 1h2c1-1 2-1 3-2 1 0 2-1 4-2l2 2-21 24-2-2c1-2 2-3 2-4 1-1 1-2 1-3v-2c-1-1-2-1-3-2l-13-4-13 15 5 8zm-19-34h-1l13 22 11-13-23-9z"/>
  <path fill="#FFDF00" d="M1027 2328l-14 6c-10 6-18 14-20 21-4 17 10 28 18 31 2 1 5 2 7 2 5 0 9-2 11-4 1-2 3-5 2-11-1-5-6-9-11-9-3 0-7 4-9 5-4-3-4-8-3-10 0-5 4-6 10-9 2-2 8-4 12-4s9 1 12 2c19 9 29 20 34 37 3 15 2 32-6 44-5 7-13 11-21 13h-6c-10 0-24-3-30-10-2-3-3-10-3-13 1 0 8 2 9 2 4-1 7-3 9-6 3-5 4-7 2-12-2-4-8-7-15-7-4 0-12 2-16 13-5 13-3 20 2 29 6 12 18 20 35 23 2 0 5 1 8 1 11 0 22-5 28-9 9-5 22-24 24-44 1-19-3-35-12-50-5-8-13-14-20-20-5-4-11-8-14-13-11-14-10-32-7-39 2-6 7-10 12-10 3 0 5 0 6 2-3 5-3 10 0 14 2 4 6 7 10 7s8-2 11-5c2-2 4-7 1-15-3-11-13-19-25-19-5 0-10 1-14 3-18 9-25 35-20 55l3 9zm-413-947z"/>
  <path d="M1495 2423c-6-9-7-23-4-36 4-14 11-22 28-29 1-1 3-1 6-1-6 3-10 8-11 14-1 8 0 14 5 19 0 1 1 2 2 3-2 2-4 4-5 6-4 10-1 16 3 21 2 4 5 7 9 9-4 2-9 3-15 3-1 0-3 0-4-1-6-1-11-4-14-8zm335-312c-2 2-5 4-7 7 0-7-1-13-1-19 2 4 5 8 8 12zM1629 983c-6 1-13 4-19 7l11-11c2 1 5 2 8 4zm46 45c4-4 8-8 12-11 3 2 7 4 10 7-7 0-15 2-22 4zm247 961c-1 0-1 0-1 1-1-1-1-2-1-3 0 1 1 1 2 2zm83-523c-4-2-8-4-11-6 3 0 6 1 9 1 1 2 1 4 2 5zm64 219c-4 2-7 4-10 7v-2c3-2 6-3 10-5zm-61 81c0 2 0 4-1 7-2-4-5-8-8-12 4 2 7 4 9 5zm9-229v2c-1-1-2-2-4-3 2 0 3 1 4 1zm3 151c0 2 0 4-1 6-2-3-5-6-8-9l9 3zm38-253c-6 7-11 13-16 21 0-2-1-4-1-6 5-4 11-10 17-15zm-35 177v6c-4-3-7-6-11-9l11 3zm-35 231c-1 3-2 5-3 8-2-5-5-11-8-16 4 3 8 6 11 8zm-30 77c-1 1-1 3-2 4-1-3-3-6-4-9 2 2 4 3 6 5zm25-529c-7-4-15-7-23-10 7 0 13-1 19-1 1 3 2 7 4 11zm-31-74c-6-3-12-5-18-6 5-1 10-1 14-2 1 2 3 5 4 8zm-38-70c-4-1-7-2-11-2 3-1 5-2 8-2 1 1 2 3 3 4zm-168-178c3-1 5-3 7-4 1 1 2 2 4 3-4 0-7 1-11 1zm107 114c5-1 9-3 13-4 1 2 3 4 4 6-5-1-10-2-17-2zm-46-59h-10c5-2 10-4 14-6 2 2 5 4 7 7-4-1-7-1-11-1zm72 927c-1 2-2 3-3 5-1-4-1-8-3-13 2 3 5 6 6 8zm167-276c1-1 1-2 1-3 6-2 15-5 23-7-8 3-16 6-24 10zm-281 389l3 6-3 3v-9zm-60 52c0 1 0 1 1 2-1 0-1 1-2 1 1-1 1-2 1-3zm-70 46l3-14 3 11-6 3z"/>
  <path d="M2137 1726c15-16 22-68 24-79 0-5-3-9-7-11-5-2-10 0-13 4s-11 10-21 16c8-7 16-16 22-25 13-18 12-71 12-81 0-5-3-9-8-10-1-1-2-1-4-1 8-22 4-66 4-75-1-5-5-9-10-9-1-1-3 0-5 0 6-23-3-67-5-76-1-5-5-9-10-9s-10 3-11 8c-1 4-5 9-10 16 3-6 6-12 8-18 8-21-11-74-17-90-2-5-6-7-11-7-3 0-6 2-7 4v-2c3-22-25-73-31-83-3-4-7-6-12-5-1 1-2 1-3 2-3-24-25-62-30-70-2-4-7-6-12-5s-8 6-8 11v-3c-1-22-33-64-39-73-3-4-9-5-13-3-2 1-4 2-5 4-7-22-37-57-43-64-3-4-9-5-13-3-5 2-7 7-6 12v6c0-4-1-8-1-11-5-22-45-58-53-65-3-3-9-4-13-1s-6 8-4 13c1 2 1 6 1 11-1-7-3-13-5-19-8-21-52-51-61-57-4-3-10-2-13 1-4 3-5 9-3 13s4 11 5 21c-3-8-6-15-10-22-12-19-61-42-70-46-5-2-10-1-13 2-18-16-58-31-66-35-5-1-10 0-13 4s-3 10 1 13c5 6 10 23 16 42-8-14-19-26-30-36-18-14-72-19-82-20-5 0-10 3-11 8-2 4 0 9 4 12 7 4 17 20 28 36 2 3 4 6 6 10 8 11 16 25 26 36-12 4-25 10-35 15-4 2-8 4-11 6-18 8-35 16-43 16-5 0-10 4-11 9s2 9 7 12c4 1 35 15 60 20-1 1-1 2-2 3-1 4 1 9 5 12 4 2 36 22 61 28 0 4 2 8 6 10s31 16 55 21c-1 4 1 8 5 10s28 15 50 21c0 3 1 6 4 8 6 4 31 21 52 31-2 4 0 9 3 12 6 5 29 25 49 36 0 1-1 2-2 3-2 4-2 9 2 13 5 5 23 23 41 36-2 4-2 9 1 12 5 6 23 29 41 45-1 0-2 1-3 2-4 4-4 9-2 13 5 7 22 32 39 48 0 3 0 5 1 8 3 6 15 34 29 53-1 1-1 1-2 1-4 3-6 8-4 13 2 6 11 31 22 50-3 3-4 7-3 11 1 7 8 36 18 57-2 0-3 0-4 1-5 2-8 6-7 11 1 7 5 33 12 55-3 1-5 5-5 9 0 7 0 35 4 57-3 1-5 4-6 8-1 8-5 40-3 64-4 1-6 3-7 7-2 7-10 37-11 60h-2c-5-1-10 2-11 7-2 6-11 31-14 53-4 1-8 3-10 6-3 7-15 34-21 57-1-1-3-2-4-2-5-2-10 0-13 5-3 6-18 33-25 55-3 1-5 2-7 4-5 6-24 29-36 50 0 0 0-1-1-1-4-2-10-2-13 2-5 5-23 24-36 43-4-2-8-1-11 1-6 5-29 24-44 42l-3-3c-4-3-9-4-13-1-9 6-52 38-61 58-8 20-11 45-7 66 1 9 3 19 4 27-1 1-2 1-3 1-8 3-15 6-23 9-1-19-10-40-27-48-6-3-13-4-19-4-17 0-31 10-36 26-3 13 1 21 4 25 4 5 11 8 18 8h1c8 0 15-5 19-11 0 6-1 14-7 21-2 3-7 7-12 11-8 6-16 13-22 22-11 17-15 35-14 56 2 24 16 45 29 53 8 5 20 10 34 10 4 0 7 0 10-1 21-4 35-13 43-28 6-11 8-21 2-38-2-6-6-11-9-14 11-8 19-21 15-38-1-6-5-11-9-16l24-9c8 5 18 12 27 18 17 13 41 23 63 25h3c24 0 71-24 76-27 5-2 7-7 5-12 0-1 0-2-1-3 24-4 62-27 70-32 5-2 6-7 5-12-2-5-6-8-11-7-2 0-4 0-6-1h8c23-1 65-34 73-41 4-3 5-8 3-13-1-2-3-3-5-4 23-8 58-38 65-45 3-3 4-8 2-13-3-4-8-6-13-5-1 1-4 1-7 1-9 0-24-2-38-5-4 0-8-1-13-2-13-3-28-5-43-6 3-2 6-5 8-8 10 1 24 4 36 6 8 2 17 3 26 3 15 0 29-2 41-6 22-7 55-49 61-57 3-4 3-10-1-14l-2-2c20-13 45-49 50-57 2-4 2-10-2-13-3-4-9-5-13-2-1 1-3 1-5 2 2-1 5-3 7-4 20-11 44-58 49-67 2-4 1-10-3-13-2-1-4-2-7-2 18-16 36-58 40-67 1-5 0-10-4-13-4-2-10-2-14 1-6 5-24 10-43 15l-12 3c-12 3-27 7-40 12 1-3 2-5 3-8 9-2 21-4 31-6 22-3 45-13 62-27 18-14 32-65 35-75 1-4-1-9-5-12-5-2-10-1-14 2-4 5-17 11-31 17 12-7 24-16 33-26zm-642 697c-6-9-7-23-4-36 4-14 11-22 28-29 1-1 3-1 6-1-6 3-10 8-11 14-1 8 0 14 5 19 0 1 1 2 2 3-2 2-4 4-5 6-4 10-1 16 3 21 2 4 5 7 9 9-4 2-9 3-15 3-1 0-3 0-4-1-6-1-11-4-14-8zm335-312c-2 2-5 4-7 7 0-7-1-13-1-19 2 4 5 8 8 12zM1629 983c-6 1-13 4-19 7l11-11c2 1 5 2 8 4zm46 45c4-4 8-8 12-11 3 2 7 4 10 7-7 0-15 2-22 4zm247 961c-1 0-1 0-1 1-1-1-1-2-1-3 0 1 1 1 2 2zm83-523c-4-2-8-4-11-6 3 0 6 1 9 1 1 2 1 4 2 5zm-22-75c-7-4-15-7-23-10 7 0 13-1 19-1 1 3 2 7 4 11zm-31-74c-6-3-12-5-18-6 5-1 10-1 14-2 1 2 3 5 4 8zm-38-70c-4-1-7-2-11-2 3-1 5-2 8-2 1 1 2 3 3 4zm-168-178c3-1 5-3 7-4 1 1 2 2 4 3-4 0-7 1-11 1zm107 114c5-1 9-3 13-4 1 2 3 4 4 6-5-1-10-2-17-2zm-46-59h-10c5-2 10-4 14-6 2 2 5 4 7 7-4-1-7-1-11-1zm262 561c-4 2-7 4-10 7v-2c3-2 6-3 10-5zm-61 81c0 2 0 4-1 7-2-4-5-8-8-12 4 2 7 4 9 5zm9-229v2c-1-1-2-2-4-3 2 0 3 1 4 1zm3 151c0 2 0 4-1 6-2-3-5-6-8-9l9 3zm38-253c-6 7-11 13-16 21 0-2-1-4-1-6 5-4 11-10 17-15zm-76-146s-1 0-1-1c1 0 1-1 2-1-1 0-1 1-1 2zm41 323v6c-4-3-7-6-11-9l11 3zm-35 231c-1 3-2 5-3 8-2-5-5-11-8-16 4 3 8 6 11 8zm-30 77c-1 1-1 3-2 4-1-3-3-6-4-9 2 2 4 3 6 5zm-79 131c-1 2-2 3-3 5-1-4-1-8-3-13 2 3 5 6 6 8zm167-276c1-1 1-2 1-3 6-2 15-5 23-7-8 3-16 6-24 10zm-281 389l3 6-3 3v-9zm-60 52c0 1 0 1 1 2-1 0-1 1-2 1 1-1 1-2 1-3zm-70 46l3-14 3 11-6 3z"/>
  <path fill="#FFDF00" d="M2056 1837c19-3 40-12 56-25s31-69 31-69c-7 7-23 14-45 22-21 9-53 18-68 37 0 1-1 1-1 2l9-40c7-2 24-8 39-12 18-6 38-18 52-33s21-73 21-73c-6 9-22 17-41 29-20 11-51 24-63 46 0 1-1 2-2 3 2-13 4-27 5-41 6-3 23-12 37-18 18-8 36-23 47-40 12-16 10-75 10-75-5 9-18 20-36 34s-46 32-55 54c-1 1-1 2-1 3v-37c6-4 22-14 35-21 17-9 34-25 44-42s5-76 5-76c-4 10-17 22-34 37s-44 34-51 57c-1 2-1 3-2 5-1-13-2-25-4-38 1 3 1 4 1 4s20-15 36-26 30-29 39-47c8-19-5-76-5-76-3 10-14 23-29 40s-40 39-44 63c-1 7-2 13-1 20-3-20-7-39-12-58 6-6 18-16 29-24 15-12 28-31 35-50s-17-82-17-82c-2 10-7 28-21 46s-35 44-38 69v1c-4-16-4-16-9-30 5-7 17-31 26-41 12-14 20-36 23-56s-30-75-30-75c0 10-8 26-18 46-2 3-22 42-23 77-5-9-12-30-17-40 5-7 13-19 21-29 11-16 20-37 22-57 1-20-29-71-29-71 0 11-6 27-15 47-8 20-21 49-20 72-5-10-13-21-19-30 4-8 11-21 17-32 10-16 15-38 15-58-1-20-37-67-37-67 2 10-3 27-9 48-6 20-17 46-14 69-7-9-14-18-21-26 4-8 9-20 14-30 9-18 13-40 11-60s-41-64-41-64c2 10-2 27-6 49-5 19-13 46-9 68-8-7-15-15-23-22 3-9 7-24 12-36 6-17 7-40 3-60-4-19-49-59-49-59 4 10 2 27 0 49s-8 53 1 75c-8-8-17-15-26-23 0-6 3-26 6-41 4-19 2-41-5-60s-57-52-57-52c5 9 6 27 7 49s-1 55 13 75c1 2 3 4 4 5-11-8-22-15-33-22v-39c0-19-5-41-16-59-10-17-65-41-65-41 7 8 11 25 16 47 4 19 8 46 20 65-8-5-16-9-25-13 0-9-2-24-2-37-1-19-8-40-20-57-11-17-67-38-67-38 7 8 12 25 18 46 6 19 11 46 24 63-8-3-17-7-25-10-3-8-8-19-11-28-6-18-20-37-35-50-16-12-76-17-76-17 9 6 19 20 31 39 12 18 26 46 47 58-23 1-47 16-66 24-20 10-36 18-47 18 0 0 55 24 75 21 21-3 42-12 57-24 9-8 21-16 28-21 14 5 28 11 41 18-9-2-20-2-30-2-25 3-36 15-54 28-19 13-37 15-52 16 0 0 53 33 72 27 20-7 39-19 52-34 9-10 21-22 26-28 18 8 35 18 51 27-8-1-17-2-25-2-25 1-51 21-71 33-19 12-28 13-39 15 0 0 52 26 72 21 19-6 40-17 53-31 9-9 20-19 27-25 19 12 38 25 56 39-8-3-20-7-31-9-25-3-54 13-75 21-21 9-31 15-41 15 0 0 41 23 62 21 20-2 47-6 63-17l33-22c15 11 29 23 42 36-5-3-12-6-18-7-24-7-55 4-77 10-23 6-40 10-50 8 0 0 49 35 70 36 20 1 43-5 60-14 11-6 25-12 33-16 16 15 30 31 44 47-6-5-15-9-23-13-23-9-55-1-78 2s-40 5-51 2c0 0 45 39 65 43 21 3 44 1 62-6 13-5 29-11 37-13 13 15 25 31 36 48-6-5-14-11-22-15-22-11-55-5-78-3-23 1-41 2-51-2 0 0 42 43 62 48 20 4 44 3 62-2 13-4 29-9 38-11 11 17 21 34 30 52-6-6-13-13-21-18-21-13-54-11-77-13-23-1-41-1-50-6 0 0 36 46 56 53 19 7 42 9 61 6 14-3 31-6 39-7 9 18 18 36 25 54-5-6-12-12-19-18-20-14-53-15-76-17-23-3-40-5-49-11 0 0 33 50 52 58 18 8 41 11 61 9 13-2 29-3 38-4 8 20 14 41 20 61-3-6-8-12-13-17-17-18-49-24-71-31-22-6-39-12-47-19 0 0 23 55 40 66s39 19 59 20c13 1 29 2 38 3 4 17 8 35 11 52-3-5-6-11-10-15-16-19-48-28-69-36-22-8-38-14-46-22 0 0 20 56 36 68 16 13 38 22 57 24 12 2 27 4 36 6 2 16 4 32 5 49-2-5-5-10-8-15-13-20-44-32-64-43-21-10-36-18-43-27 0 0 13 58 28 72 14 14 35 26 53 30 12 3 26 7 35 10 0 7 1 14 1 22 0 10-1 19-1 29-2-5-4-10-7-15-11-22-42-36-61-48-20-11-35-21-41-29 0 0 9 58 23 73 13 15 33 28 51 34 11 3 25 8 33 11-1 18-3 36-6 53-1-5-2-11-4-16-8-23-36-41-54-55-17-15-31-26-36-35 0 0 1 59 12 76 11 16 28 32 46 40 11 5 24 12 32 16-4 19-8 38-14 57 0-7 0-14-2-21-5-23-30-45-45-62s-27-29-30-39c0 0-9 58 0 76 8 18 24 36 40 46 11 8 24 17 31 22-6 18-12 36-19 53v-16c-2-24-24-48-38-67-13-18-23-32-25-42 0 0-15 57-9 76s19 38 34 50c9 8 20 18 27 25-7 15-14 29-22 44 1-5 1-9 1-14 0-24-21-50-33-69-11-19-21-34-22-45 0 0-19 56-14 76 5 19 16 39 30 52 8 8 18 19 24 25-8 14-16 27-25 40 1-4 2-9 2-13 3-24-14-52-24-72-9-21-17-37-17-47 0 0-25 53-23 73 3 20 12 41 24 56 7 9 15 20 21 27-10 14-21 27-31 40l3-15c5-24-10-53-19-74-8-21-14-37-13-47 0 0-30 51-28 71 1 20 8 42 19 57 7 10 14 21 19 29-12 14-26 27-39 40 2-3 3-7 5-11 8-23-1-54-5-76s-7-39-4-49c0 0-39 45-42 65-2 20 1 42 9 60 5 11 10 24 14 32-13 11-25 21-38 31 2-3 4-7 6-11 10-22 3-54 1-76-3-23-5-40-1-50 0 0-42 43-46 63-4 19-2 42 4 60 4 11 9 24 11 32-13 10-26 19-40 27 3-4 6-8 8-12 13-21 10-53 10-75 0-23 0-40 5-50 0 0-47 38-53 57s-7 42-3 60c3 12 6 26 8 35-16 9-33 17-49 25 4-4 9-9 13-15 14-19 13-52 15-74 1-23 3-40 8-49 0 0-49 34-57 53-7 19-10 41-7 60 3 12 4 27 5 36-3 1-7 3-10 4l-39 15c5-20-2-46-20-55-5-2-9-3-14-3-12 0-22 8-25 19-3 8-1 13 1 15 3 3 7 5 11 5s8-3 10-7 3-9 0-14c1-2 3-2 6-2 5 0 10 3 12 10 3 7 4 25-7 39-3 5-9 9-14 13-7 6-15 12-20 20-10 15-13 31-12 50 2 20 15 39 24 44 6 4 17 9 28 9 3 0 6-1 8-1 17-3 29-11 35-23 5-9 7-16 2-29-4-11-12-13-16-13-7 0-13 3-15 7-2 5-1 7 2 12 2 3 5 5 9 6 1 0 8-2 9-2 0 3-1 10-3 13-6 7-20 10-30 10h-6c-9-2-16-6-21-13-8-12-9-29-6-44 5-17 15-28 34-37 3-1 8-2 12-2s10 2 12 4c6 3 10 4 10 9 1 2 1 7-3 10-2-1-6-5-9-5-5 0-10 4-11 9-1 6 0 9 2 11s6 4 11 4c2 0 5-1 7-2 8-3 22-14 18-31-2-7-10-15-20-21 13-5 27-10 42-16l-1-1c2-1 3-1 5-2 7 5 21 15 33 23 15 12 36 20 57 23 20 2 73-26 73-26-11 0-27-7-48-16s-50-26-74-23h-1c11-5 21-11 32-17 6 4 22 13 34 21 17 11 39 18 59 19 21 1 71-31 71-31-10 1-27-5-49-12-21-8-51-23-76-18-2 0-4 1-6 1 11-7 22-14 33-22 7 3 25 11 39 18 17 8 40 13 60 12 21-2 67-39 67-39-10 2-28-2-50-7s-54-16-77-9l-9 3c12-9 23-19 34-28 7 2 25 9 39 15 18 7 41 10 61 7 20-2 64-43 64-43-10 3-28 0-50-3-23-4-55-13-78-4-4 1-7 2-10 4 14-12 26-25 38-39 7 1 27 5 42 8 19 4 42 3 62-3 19-6 55-54 55-54-10 5-27 5-50 5-23 1-56-2-78 11-1 0-2 1-4 2 8-10 16-20 24-31 7 1 27 3 42 5 19 3 42 1 61-7 19-7 52-57 52-57-10 5-28 7-50 9-23 1-57 1-77 15-2 1-5 3-7 5 8-12 15-23 22-35h43c19 1 42-4 60-14s44-63 44-63c-9 7-26 10-49 14-22 5-55 8-74 24l-5 5c6-12 13-25 19-38 8-1 25-2 40-2 19-1 42-8 59-19 17-10 39-65 39-65-8 7-25 11-47 17s-55 12-72 29l-5 5c6-15 12-31 17-46 8-2 24-5 38-7z"/>
  <path fill="#CCDB2C" d="M867 1014c-17-6-29-10-41-8-2 2-4 4-6 8 15 2 30 8 39 14 16 10 14 19 30 54 11-6 5-24 5-29 12 3 20 2 24-10 3-7 1-17-6-22 17-9 11-17 9-30-15 17-33 30-54 23zm-305 319c-2 13-6 46-17 69-2-1-4-1-6-2 1-2 3-5 4-8 0-2 1-3 1-5 0-7-2-14-4-21 1-14 0-28-2-34-4-8-9-16-43-46 10-10 27 3 33 5 0-15 4-23 17-24 9-1 19 4 23 15 14-17 22-8 35-1-23 11-36 27-41 52zm98-123c-13 6-24 10-32 16 0 5-1 11-2 16 13-8 29-13 40-15 19-3 24 6 64 24 3-13-15-23-19-28 12-6 16-13 11-25-4-8-13-15-23-14 7-20-4-23-15-32 2 25-3 49-24 58zm-66-3c5 10 8 30 3 55 1 3 2 7 2 10 0 1 0 1 1 1 1 1 3 2 5 3l3 2c17-35 16-73 18-77 8-18 13-5 28-18 6-5 7-18 17-30-12-12-31 4-38 6-1-18-6-28-22-29-10-1-21 6-25 19-18-21-25-9-40 0 14 7 17 24 26 33 9 8 14 14 22 25zm-23 115c15-10 25-22 33-35-10 5-18 11-24 18-4 5-7 11-9 17zm39-10c-15 9-32 20-44 33-1 7-2 14-4 22 19-15 46-31 58-34 6-2 11-2 15-1 12-4 24-8 35-9l7-1c-4-2-8-4-10-6 13-8 18-16 11-28-5-8-15-13-26-10 6-22-6-23-19-30 2 11-9 19-11 29-3 13 1 28-12 35zm62 28c5 0 10 0 17 2 2-8-4-14-10-18l-4 7-3 9zm-123 464c-5-13-5-32-5-45 0-7-4-14-5-22-2-3-3-6-5-9-13 4-23 6-22 26-11-4-23 0-29 7-11 12-8 21 3 31-6 3-24 3-25 18 16 2 20 9 28 11 14 4 24 1 40 4 11 3 45 27 69 60-1-7-1-14-1-21-18-26-43-45-48-60zm-26-165c-7-13 1-28 2-42 2-14-4-27 4-42-18 4-32 1-36 28-11-7-24-4-33 3-13 12-12 23-1 37-8 3-28-1-31 17 49 17 56 5 77 21 9 7 20 20 31 35 1-4 3-8 5-11l3-3c0-1 1-2 2-3l1-1c-7-11-15-23-24-39zm29-32c-6 14-12 28-17 41 4 7 8 13 11 19 8-21 16-38 22-44 12-11 20 0 36-5 7-2 15-17 27-23-4-14-20-8-26-10 8-12 9-21-3-29-7-5-19-5-27 2-5-22-16-18-31-18 8 12 0 24 1 37 0 9 12 20 7 30zm-29 81c-3 10-4 21-5 32h1c2 1 4 3 6 5 1-1 2-1 3-1 0-2 1-5 2-7-1 0-1 0-1-1l-1-4 3-2h1c0-2 1-4 2-7-4-5-7-10-11-15zm57 201c-2-6-4-13-5-19v-4c4 4 8 9 12 14 1 5 2 9 3 12l-10-3zm-7-61c0-20 2-38 2-44-2-26-23-22-41-69 14-9 24 7 31 11 3-16 9-24 26-22 10 2 20 10 22 22 21-15 27-3 40 8-29 7-52 19-61 47-3 10-6 34-7 60-3-4-7-8-10-11-1-1-1-2-2-2zm290 372c-2-10-6-23-2-32 5-16 5-34 17-49-17-1-28-7-35 19-9-10-21-11-29-6-14 9-15 12-8 28-7 1-23-6-28 10 12 8 27 21 41 19 13-1 19 4 26 15 8 10 8 22 14 36 4 0 8 1 13 2-5-12-5-26-9-42zm-89-31c-9-27-15-55-15-66-1-28 14-46 37-60-15-6-23-16-36 4-5-11-16-15-25-14-14 3-17 12-15 28-6-2-19-14-28-3 28 38 45 29 53 52 2 5 5 19 10 34l1-1c5 11 8 18 18 26zm-60-51c-24-9-34-28-36-54-11 11-23 16-12 35-12 1-20 9-23 17-4 14 2 20 16 24-4 5-20 13-14 25 44-13 43-24 66-25 11 0 25 5 40 11-2-8-4-14-5-20-9-4-19-8-32-13zm134 109c-17-11-43-25-54-29s-9-10-16-18c-6-6-21-14-22-26-7 12-14 17-6 35-7 2-12 11-13 19-2 14 3 20 13 22-3 6-11 18-6 29 11-8 19-6 24-10 7-5 11-14 21-18 8-3 39-2 62 4-1-3-2-5-3-8zm-51-1221c-3 14-15 30-10 51 1-1 2-1 4-1 2-1 4-2 6-2h1c4-13 9-28 15-40 13-25 21-12 68-41-8-15-31-4-39-3 5-18 3-29-12-33-9-3-22 1-29 13-12-25-23-15-40-9 23 19 40 33 36 65zm226-69c-6 10-12 18-19 24-6 2-13 3-21 2h-2c12-11 23-22 26-33 7-21-1-27-11-71 14-3 21 17 24 22 8-12 16-16 28-9 7 4 12 14 9 25 21-5 22 6 28 20-24-4-49-2-62 20zm-41 31c-17-2-39-4-57-2-5 3-9 7-13 12 24-2 53 4 64 8 22 7 21 18 48 54 12-9 2-27 1-34 15 1 24-2 27-16 2-9-2-19-13-24 20-13 11-21 6-35-15 22-35 41-63 37zm-75 7c-9 12-14 26-29 36-3 0-6-1-9-2-1 0-2 0-2-1 12-14 18-28 20-44 2-11 1-23-14-78 16-4 25 21 31 27 8-16 17-23 32-14 9 5 16 17 13 31 25-9 27 6 36 22-30-3-58-2-78 23z"/>
  <path fill="#6CBE46" d="M531 1598c-1 4-2 9-3 14v2c1 8 2 17 2 26 1 1 1 2 2 3 2-8 5-15 9-23-3-17-7-32-11-46v-1 10c1 5 1 10 1 15zm-20-57c0 4 0 8 1 12 3-1 5-1 8-2h4c-1-5-1-9-1-13 7-5 12-8 17-12 6-6 7-19 11-36 0-2 1-4 0-6-1-4-3-8-5-11-2-5-4-9-5-12v-2c-1-2-1-4-1-7-1-2-1-5-1-8 0-11 3-21 8-31-1-2-2-4-3-5-5-3-8-2-14-5 2-3 8-10 8-16 0-31-26-51-21-72-17 15-42 47-53 83-6 22-7 48-6 69 1 22 7 41 21 55 7 7 25 13 32 19zm34 51v-1c0-1-1-2-1-3-3-3-4-8-5-13 0 2-1 3-2 4l6 22c0-2 1-6 2-9zm138 442c-3-3-7-6-10-9-3-1-5-3-7-4 1-11 3-28 3-32 0-11-3-38-21-50-11-7-29-11-38-11-5-20-14-32-35-35-6 3-11 12-17 16-1-5-3-16-8-20-12-12-58-24-75-19 2 24 14 75 32 103 13 21 35 40 53 54 19 15 40 23 62 22 13-1 27-5 41-16 1 1 2 1 3 2 3 2 6 5 9 8 4 4 8 8 12 14l1-2c1-1 1-2 2-3-2-4-4-10-4-15l-3-3zm100-885h10c8 0 15-8 18-13 12 5 27 5 37-5 1-4-1-7 0-12 3 1 9 5 13 4 11-2 35-17 39-28-19-17-32-32-61-38-15-4-33-1-47 4-14 4-27 13-35 29-3 5-14 39-16 41 0 1 0 1-1 1 1 1 1 1 2 1 3 1 6 3 9 5 3 1 5 2 7 4h7c1 0 2 0 3 1 6 1 11 3 15 6z"/>
  <path fill="#6CBE46" d="M648 1927c0 2 4-1 5 1 2 7 10 12 13 18 5 11 9 22 12 31-2 0-4-1-5-1v11c2 1 3 1 4 1 3 12 6 22 11 32 0-2 1-4 2-6 1-1 1-2 2-3s1-2 2-3l1-1c-3-8-5-16-6-25 7-8 13-13 17-19 6-8 5-21 6-40 1-12-9-23-15-29 7-16 8-38-5-55-5-1-9 0-15-2 2-3 7-12 6-18-3-16-20-54-34-62-15 21-38 46-45 86-3 19-2 41 1 61 4 5 7 11 9 19 0-3 30 7 30 4h4zm72 189l16 5c-4-9-8-18-12-26-7-4-15-9-25-20l21 41zm0 0zm-44-931c1-5 2-11 3-17-1 1-2 1-2 2-6 5-14 12-18 18-4 7-6 13-6 19 2-1 4-1 5-2 9-4 15-11 18-20zm40-63c-2 5-6 10-9 14 6-3 12-5 19-5 2-4 4-9 7-13 4-3 7-5 10-7 3-10 7-21 9-24 1-2 3-4 4-6 2-2 3-4 5-6 0-1 1-2 2-2-1-5-3-8-4-11 10-10 17-24 13-38-4-2-7-2-11-4 2-2 9-7 10-11 3-11 1-40-6-49-22 13-52 20-72 46-11 14-17 32-20 47-3 16 0 31 11 44 6 6 26 18 32 25zm-170 337c2 8 15 27 15 41-1 12-3 24-6 34h4c3-2 6-3 10-5 2-9 4-18 4-29 10-3 18-7 24-8 9-2 16-11 27-23 7-7 6-20 5-27 14-6 27-20 27-38-3-4-7-5-10-10 3-1 12-4 14-8 4-6-2-32 10-58-28 3-72 27-78 32-15 12-28 31-37 47-9 17-13 35-9 52z"/>
  <path fill="#FFF" d="M964 1075s-1 0-1 1l1-1zm-2 1c-7 5-16 6-24 4 0 0-1 1-2 1-11 9-27 8-38-1 4-6 3-14 2-21 4 1 8 1 11 0 5-2 9-7 12-14 1-1 1-3 1-4 0-2 1-3 1-4 0-5-2-11-5-15 12-8 10-15 8-26 10-1 21 3 28 11 4 6 6 13 6 20 3 2 5 4 7 6 11 13 8 32-5 42l-2 1zm5 2zM867 912c5 9 5 18 1 27 0 0 0 1 1 2 3 6 4 13 3 19-8-1-16 1-22 3 0-6 0-12-1-16-2-8-8-13-17-16-2 0-4 0-6-1-1 0-3 0-5 1-7 0-14 3-20 9-6-10-12-12-19-12 3-6 8-11 14-15 7-4 15-5 21-4 3-3 5-5 8-6 15-9 34-5 42 9zm-245 181c9 5 14 13 16 22 0 1 1 1 2 1 10 6 15 16 16 27-7 2-13 5-18 8-1-6-3-12-6-16-4-6-11-10-21-11-1 0-3 0-5 1-2 0-4 0-5 1-7 2-12 7-16 14-9-9-16-10-23-7 1-1 1-3 2-4 3-6 9-11 15-14l3-9c8-15 26-21 40-13zm169 94c-2 11-10 21-19 26-1 1-1 1-1 2-4 17-19 30-36 31-1-10-9-17-15-22 3-3 6-5 8-9 2-5 2-12-1-20-1-1-2-2-3-4-1-1-1-2-3-3-3-5-9-8-15-9 3-13-2-19-10-25 8-12 22-20 37-18 9 1 16 6 20 12 4-1 8-1 12-1 18 3 30 21 26 40zm-69 87c1 10-2 19-9 25 0 1 0 1 1 2 1 14-7 27-20 32-3-8-11-13-17-17 3-3 6-7 8-10 2-6 2-13-3-20v-1c-1-1-2-2-3-4l-3-3c-5-4-11-6-17-6 2-12-2-17-8-21 2-1 4-2 7-2 7-1 15 0 21 4 2-2 6-3 9-3 17-3 32 8 34 24zm-167-49c9 3 15 11 17 20h2c11 4 18 13 19 24-8-4-15-5-24 4-4-5-9-9-14-11-2 0-4 0-5-1h-5c-9 1-14 4-18 10-2 3-3 7-4 11-7-3-16-7-24-4 0-2 1-4 2-7 2-7 7-13 13-16 1-4 1-7 2-10 6-16 24-25 39-20zm52 295c16-1 27 13 24 30 0 4-1 7-3 10 4 5 2 8 0 21v1c-4-2-10-2-14-2 1-4 2-8 2-12 0-6-4-12-11-17-2-1-3-1-5-2-1-1-3-1-4-1-6-2-12-1-18 1-3-7-6-11-11-13 4-2 8-3 12-3h2c7-8 16-13 26-13zm-164 21c10-3 20 0 28 7 0-1 1-1 2-1 10-3 21 1 30 9-7 3-11 8-14 20-1-1-3-1-5-2-10-1-20 2-27 8-8 7-12 14-12 22 0 5 2 10 5 15-6 1-12 2-18 5-1-3-3-6-4-10-3-8-2-16 0-23-2-3-3-6-4-10-6-18 3-36 19-40zm25 179c-16 5-25 23-21 38 1 4 3 6 4 9-3 6-3 14-2 21 2 6 5 10 9 14 3-8 11-11 19-13-3-3-5-7-6-11-1-7 1-13 8-20 5-6 14-11 24-11h4c1-12 6-17 13-20-7-5-16-7-25-4-1 0-2 1-2 1-7-5-16-7-25-4zm149-65c9 6 14 17 15 27 0 0 1 1 2 1 12 9 17 25 13 38-9-7-17-11-31-3-3-7-8-12-15-16-1-1-3-1-4-2-2 0-4-1-6-1 0 0 1 0 0 0-10-2-17 0-22 5-3 3-6 8-7 13-6-6-13-12-23-10 1-7 3-13 7-19 4-7 11-12 19-14 1-3 2-7 5-10 10-16 32-20 47-9zm138 326c8 5 13 14 14 24 1 1-3-2 2 1 6 4 15 15 14 28-9-5-15-9-25 6-5-10-17-13-26-11-14 2-19 10-17 26-5-1-12-9-20-5-8-11-7-24-2-33 5-10 9-12 16-15 0-3 1-6 3-10 8-15 27-21 41-11zm-62 214c5-7 13-12 21-13l1-1c6-10 17-15 28-14-2 6-2 13 0 20 0 0-1 1-2 1-5 5-9 12-9 20-1 8 0 14 3 18 2 3 4 6 7 7-2 4-4 9-5 15-5 1-10 0-15-3-6-3-10-7-12-13-2 0-5-1-8-3-13-6-17-22-9-34zm125-109c9 2 17 9 21 17h2c6 2 12 5 16 9-7 1-12 5-17 16-1 0-2-1-3-1-9-4-19-4-26 1-8 5-12 8-14 14-1 4-1 7 1 12-10-1-16 1-20 6-4-7-6-14-4-22 1-8 4-14 10-18-1-3-1-7 0-10 2-17 17-28 34-24zm-200-10c7-5 16-6 23-4l1-1c8-5 17-6 24-3-8 7-14 13-8 27-1 0-3 1-4 1-8 4-14 11-16 19-3 9-2 15 2 20 2 3 5 5 9 7-3 2-7 5-9 9-9 1-17-4-22-12-3-5-5-12-4-18-2-2-4-4-5-6-8-13-4-30 9-39zm468-1242c5 7 6 17 3 25 0 1 1 1 1 2 8 12 5 29-7 38-4-6-9-10-20-8 0-7-2-13-6-17-1-2-2-3-3-4s-2-2-4-3c-7-4-13-5-19-3-4 2-7 4-10 8-3-6-7-13-14-16 2-7 7-13 13-17 6-5 13-6 19-6 2-2 5-4 7-6 14-9 32-6 40 7zm-10 185c-8 5-17 5-24 3-1 0-1 0-2 1-5 2-10 4-14 4-1-6-2-11-4-15 5-1 10-2 14-4 6-3 10-8 11-17 1-2 1-3 1-5v-5c-1-5-4-11-9-15 7-7 9-13 8-19 8 2 15 6 19 12 3 6 4 12 3 18l6 6c7 12 3 28-9 36zM972 854c6 9 8 20 5 30 0 1 1 1 1 2 9 12 9 29-1 42-4-5-11-8-22-6 0-8-4-15-8-21l-4-4s-3-2-4-3h-1c-9-5-16-5-23-2-4 2-8 6-11 11-5-7-10-16-18-20 2-6 6-12 11-16 6-5 14-8 22-8 2-3 4-6 7-8 14-13 35-11 46 3z"/>
  <path fill="#6CBE46" d="M1026 2325c-15-5-26-10-38-15 2-11 1-24 0-33-2-9 5-20 1-36-2-10-14-15-21-17 2-16-3-35-19-43-5 1-8 4-14 5 0-3 3-13 0-17-6-12-34-40-48-42-2 30-15 58-12 90 1 10 4 19 7 29 6 3 11 6 15 10 0 0 6-2 17-2 10-1 15 3 16 4-1-1-4-4-7-9-4-5-5-17-5-17s-5-4-8-9c-4-6-3-11-3-11s-4-6-6-11c-2-6-1-15-1-15s-5-5-7-16c-2-6-1-12-1-15 3 12 6 24 12 31 0 6 1 16 8 24 1 10 4 17 12 20 1 17 23 41 42 60 6 4 11 7 15 11v7c-8-12-30-16-33-23-3-8-9-16-23-24-9-5-21 0-29 3-9-12-29-23-47-17-7 3-10 8-8 15-3-3-11-13-16-14-10-3-26 0-40 9-8 4-9 5-19 5 3 7 8 16 15 25 5 1 9 2 13 4h2s10 5 26 14c16 8 43 33 43 33h1c2 2 4 5 6 7 3 1 5 1 8 2 18 3 37 2 54-7 11-6 24-21 37-27 14 6 32 14 47 19l9-4-1-3zm-70-11c-9 1-44 7-67 6-26-2-28-12-28-12h-7l-15-6s-3-1-8-3c-5-1-12-8-12-8l-11-3c-10-3-23-13-23-13v-1c10 6 22 10 34 10 3 5 11 11 22 12 7 5 15 7 23 4 31 28 90 1 100 9-3 1-6 3-8 5zm-26-56z"/>
  <path d="M648 1773s-12 43-6 62l5 18s-4 17-3 35c1 16 11 46 11 46l-10-3s-6-24-7-40 3-40 3-40-5-12-6-30c0-18 13-48 13-48zm-163 106s21 33 40 52c20 18 34 23 34 23s14 37 41 52c27 14 58 19 58 19s-34-2-59-13c-24-11-45-53-45-53s-27-17-41-33-28-47-28-47zm24-539s-13 49-13 72 10 40 10 40-8 14-4 35c3 22 18 40 18 40s-19-12-24-39c-5-26 2-35 2-35s-12-23-7-51c5-27 18-62 18-62zm150 0s-34 18-51 40c-14 17-16 39-16 39s-17 10-22 24c-5 15 0 39 0 39s-13-18-4-40 21-27 21-27-2-18 22-42c23-25 50-33 50-33zm102-368s-49 34-56 70c-7 35 16 71 16 71s-36-37-23-76 63-65 63-65zm-8 156s23-31 57-36c34-6 77 5 77 5s-42-19-79-12-55 43-55 43z"/>
</svg>
