<svg xmlns="http://www.w3.org/2000/svg" width="242.4" height="55.6">
  <g fill="#EF3B24" fill-rule="evenodd" clip-rule="evenodd">
    <path d="M24.8 27v12c4.2.3 4.2 2.6 9 3-1.8-7.5-.1-5.4 0-11.3-1.9-1.2-6.3-3.5-9-3.7zm8.2 2.3c-1 0-28.9-13.2-33-13.5v-2.3l17.1-6.9C20 5.5 31.7 0 34.5 0c2.5 0 29.6 12.7 33 13.5v2.3c-5.3.4-29.6 13.5-34.5 13.5zm-18.7-6.8v11.3l9 3.8v-12c-3.8-1-5.7-2.8-9-3.1zm-9-3.7L5.6 32c.7 5.7-.2 8.7 5 10.1V20.3c-2.9-.7-2.2-1.3-5.3-1.5zM45 25.5v12l9-3.8V22.5c-3.4.3-5.8 2.2-9 3zM35.3 30c0 5 .2 7.9-.8 12 3-.3 6.6-2.5 9-3.8V27c-2.5.2-6.4 2-8.2 3zm49.5 7.5v2.3h-2.3c.6-2.2 0-1.8 2.3-2.3zm12-.7v-3h3.8V39c-2.5 0-3.8.2-3.8-2.2zm-35.3 6.7h5.3V36c6.9 4.6.9 7.5 12.2 7.1 3.5-.1-.8.4 2.8.4 3.5 0-.5-.5 2.7-.9 2.2-.3 2.6 2.5 6-.1l1.8-2.7c1.4 5.2 7.3 3.3 8.2 3.3 1 0 2.6.4 4.6.4V27c0-2.8 2.6-3-4.5-3v6c-7.1-1.9-9 .8-9 9H90c0-11.4-2.5-10.5-12-8.3v4.5c3.5-.9 4.2-4.2 6.8-.8-4.9.4-6.7 1.9-6.8 5.3-1.8-1.2-4.8-4.9-6-6.8 1-2 1.7-2.9 3-4.5 1.5-1.9 2.4-2.1 3-4.5-9.2 0-5.7.4-11.3 6.8V24h-5.3v19.5zm144-3.7c.6-2.3 0-1.6 2.3-2.3-.9 3.2.3 1.1-2.3 2.3zm9 0c-2.9-1.5-2.3 1.4-2.3-8.3-5.7-3.8-5-2.2-11.3-.8v4.5c2.8-1.5 4.7-3.6 6.8-.8-11.3.9-7.5 9-3.8 9 4.2 0 .6-.5 3.4-.8.9-.1.5 0 1.3.1 5.7.9.3.3 4.6-.2 4.4-.4-1 .9 4.2.9 2.9 0 2.3-2.5 2.3-5.3l3 3.7c2 2 2.3 1.5 6 1.5-.3-3.8-1.5-3-4.5-7.5l2.1-2.4c1.2-1.2 1.2-1.2 2.4-2.1 0 15.4 2.9 10.9 9.6 11.6 5 .6 3.9.9 3.9-13.9-5.7 0-5.3-.3-5.2 5.3 0 5 .8 3.6-2.3 5.2-1.4-2.6-.8-7.5-.8-10.5l-3.5.1c-.1.2-.4.1-.5.1-10.8.5-4.4.4-10.2 4.3V24h-5.3v15.8zM135 43.5c4.4-1.2 2.7-5.8 6-10.5.1 3.7 2.1 6.8 3 10.5h3c1.1-4.7 5.6-12.5 6-17.3 2.7 3.1.7 2.3 3.8 2.3 3.6 0 2.4-4.5.8-4.5H150c-2.6 0-3.5 5-3.8 7.5h-1.5c-.1-2.6-.5-3.8-1.4-5.4-1.5-2.6-.9-2.1-4.6-2.1-1 2.2-2.4 5.7-3 8.3l-3-8.3h-6c.5 2 6.5 18.1 8.3 19.5z"/>
    <path d="M194.3 33.8c2 3.5 0 5.2 0 5.3-5.3-.1-4.2-4.1-2-5 1-.5.8-.3 2-.3zm.7-3.8c-13.5-3.2-11 13.5-3.8 13.5 3.1 0 1.2-.5 3.6-.4 1 0 2.6.4 4.6.4V24h-5.3c.8 2.6.9 2.5.9 6zm-79.5 6c0 3.9.3 1-.8 3h-3c0-.5-2-6.2 2-5.1 1.6.4 1.8.1 1.8 2.1zm-1.5 7.5c8.5 0 9.5-14.3-.8-14.3-9.7.1-9.6 14.3.8 14.3z"/>
    <path d="M171 31.5c0 4.6-.4 12 5.3 12 2.9 0 0-.8 3.1-.9 1 0 1.3.8 5.2.9V29.3c-3.2.7-.9.3-4.5 0 0 3.4 1.1 9.3-1.9 10.1-2.9.7-1.8-6.7-1.8-10.1-2.3.9-5.4-1.7-5.4 2.2zm-11.2 2.3c0 3.2 4.2 3.6 6 6-2.7-.2-3.6-.9-6-1.5.4 1.8.7 2.2.8 4.5 3 .2 9.8 3 9.8-4.5 0-2.8-3.4-3.6-5.3-5.3 3.2.3 2.5.9 5.3 1.5v-3.8c-7.3-3.4-10.6.7-10.6 3.1zM14.3 41.3c0 5.6-1.6 7.3 9 9.8V39l-9-3.8v6.1zM45 39v12c2.8-.6 6.7-2.5 9-3.8v-12c-1.5.7-2.5.9-4.2 1.8-2.1 1-2.5 1.5-4.8 2zM24.8 52.5c3.3.3 2.9.9 5.6 2 4.4 1.8 2.6 2.4 2.6-7.3 0-3.2 2.1-2.2-2.2-4.5-1.8-1-3.6-2-6.1-2.2v12zm10.5-9c0 3.8.5 8.7-.8 11.3 4.8-.1 5-1.9 9-2.3v-12c-3.9.3-4.6 2.2-8.2 3zm118.5-12v9.8c0 1.7.5 2.3 2.3 2.3h3V29.3c-2.3.9-5.3-1.7-5.3 2.2z"/>
  </g>
</svg>
