<svg xmlns="http://www.w3.org/2000/svg" width="127.2" height="35.5">
  <path fill="#FEFEFE" d="M.2 17V1.2c0-.8.1-1 1-1h125.4c.7 0 .9.2.9.9v33.6c0 .8-.1 1.1-1 1.1h-107c.1-.7.6-.5 1-.6C27.9 34 33.7 28.6 35 21.3 36.5 12.9 32.2 5.2 24.4 2c-8.2-3.3-17.7.3-21.7 8.1C1.7 12 1.1 14 .8 16c0 .4.1 1-.6 1z"/>
  <path fill="#252323" d="M.2 17c.5-1 .4-2.1.7-3.1C2.9 5.6 10.5 0 19.2.5c8.2.4 15.2 7 16.3 15.3 1.3 9.8-5.8 18.8-15.6 19.8-.2 0-.4 0-.5.2h-.5c-.6-.2-1.3-.2-1.9 0h-.7c-3.5-.2-6.6-1.4-9.3-3.6C3 29 .5 24.9.4 19.6c0-.1 0-.2-.1-.3v-.2c.2-.6.2-1.1 0-1.7-.1-.2-.1-.3-.1-.4z"/>
  <path fill="#FEFEFE" d="M.2 19.2c.5.8.4 1.7.6 2.6 1.7 7.3 7.4 12.6 14.9 13.7.2 0 .5 0 .6.2H1c-.7 0-.8-.1-.8-.8.1-5.2 0-10.4 0-15.7z"/>
  <path fill="#807F7F" d="M17 35.8c.6-.4 1.3-.4 1.9 0H17z"/>
  <path fill="#CECECE" d="M.2 17.3c.4.6.4 1.1 0 1.7v-1.7z"/>
  <path fill="#1E1B1E" d="M71 12.1c1.1-1.3 2-2.6 3.1-3.9.3-.4.7-.9 1.2-1.2.9-.7 2-.7 3.1-.3 1 .4 1.1 1.4 1.1 2.2 0 4.2.1 8.5 0 12.7 0 1.5-1.1 2.4-2.5 2.3-1.4-.1-2.2-1-2.2-2.5v-7.7c-.9 1.2-1.6 2.1-2.3 3-1.1 1.4-2 1.4-3-.1-.6-.9-1.3-1.7-1.9-2.6-.4.2-.3.6-.3.8v6.4c0 1.7-1 2.7-2.4 2.6-1.4-.1-2.3-1-2.3-2.7v-12c0-1.1-.1-2.3 1.2-2.7 1.4-.4 2.7-.2 3.7 1s1.9 2.4 2.9 3.7c.1.4.3.6.6 1zm36 2.1V9c0-1.6.8-2.5 2.2-2.5 1.6 0 2.4.8 2.4 2.4v12.6c0 1.2-.4 2-1.6 2.3-1.2.3-2.1 0-2.8-1-1.4-2.1-2.9-4.2-4.5-6.3v5c0 1.9-1.6 2.9-3.3 2.2-.8-.3-1.3-.9-1.3-1.8V8.3c0-1 .7-1.6 1.6-1.9 1-.2 1.9-.1 2.5.8 1.5 2.3 3 4.6 4.6 6.9.1.1.2.1.2.1zm-11.2-.9v3.8c-.2 5.5-3.7 7.3-8.2 6.8-3.9-.4-5.9-2.7-6-6.6-.1-2.8 0-5.7 0-8.5 0-1.4.9-2.2 2.2-2.3 1.5 0 2.4.7 2.4 2.2.1 2.7 0 5.4 0 8.2 0 1.7.6 2.3 2.1 2.5 1.8.2 2.7-.7 2.8-2.4V9.1c0-1.6.8-2.5 2.3-2.5 1.6 0 2.4.8 2.4 2.5v4.2zm24.4-1.8l2.2-3.8c.9-1.4 2.1-1.7 3.3-.9 1.3.8 1.5 1.9.7 3.3-1 1.6-1.9 3.2-3 4.8-.7 1-.9 2-.9 3.1.1 1.2 0 2.4 0 3.6 0 1.4-1 2.3-2.3 2.4-1.4 0-2.3-.9-2.4-2.3v-.2c.7-3.9-.8-7.2-3.1-10.1-.3-.4-.6-.9-.9-1.4-.7-1.2-.4-2.3.8-3.1 1.2-.7 2.4-.5 3.1.6.9 1.2 1.7 2.5 2.5 4zm-76 3.7V9c0-1.6.9-2.4 2.3-2.5 1.5 0 2.3.8 2.3 2.4 0 3.1.1 6.2 0 9.2 0 1 .3 1.3 1.2 1.2.4-.1.9 0 1.3 0 1.7 0 2.5.9 2.5 2.4s-.9 2.3-2.4 2.3h-4.7c-1.8 0-2.5-.7-2.5-2.5-.1-2.1 0-4.2 0-6.3zm15.8 0v6.3c0 1.5-.9 2.4-2.2 2.4-1.4.1-2.4-.9-2.4-2.4V8.7c0-1.6.9-2.4 2.4-2.3 1.4 0 2.2.9 2.2 2.4v6.4z"/>
  <path fill="#262326" d="M110.1 27.2c0 .5.1.9.4 1.4 0-.1.1-.2.1-.2.3-.5.1-1.6.7-1.6.8 0 .4 1.1.9 1.6.2-.4.4-.9.5-1.3.1-.2.2-.5.5-.3.3.1.2.4.1.6l-.3.9c-.2.5-.1 1.5-.7 1.5-.7.1-.5-1-1-1.4-.1.1-.2.3-.2.4-.1.4-.1 1.1-.6 1.1-.4 0-.7-.6-.9-1.1l-.3-1c-.1-.4-.3-.8.2-1 .5-.4.5.1.6.4z"/>
  <path fill="#2E2B2E" d="M79.1 26.7c1.1-.3.9 1 1.6 1.2 0 0 .1 0 .1-.1.2-.4-.3-1.2.4-1.1.6 0 .3.8.3 1.2 0 .6.4 1.5-.3 1.7-.7.2-.7-1-1.3-1.3-.6.1.6 1.6-.8 1.1-.2-.8-.7-1.8 0-2.7z"/>
  <path fill="#252225" d="M62.5 28.3c-.3.4.2 1.3-.4 1.3-.7 0-.4-.9-.4-1.4 0-.5-.3-1.4.2-1.5.8-.2.7.9 1.4 1.2l.1-.1c.2-.4-.3-1.2.4-1.1.6 0 .3.7.3 1.1 0 .6.4 1.6-.3 1.8-.6.2-.7-1-1.3-1.3z"/>
  <path fill="#343134" d="M67.3 26.7c1-.3.9 1 1.6 1.2 0 0 .1-.1.1-.2.1-.4-.2-1 .4-1 .7 0 .4.7.4 1 0 .7.3 1.4-.2 1.9-.3.3-.5-.3-.7-.5-.2-.2-.4-.5-.7-.9-.1.6-.1 1.1-.1 1.5-.6.5-.8-.1-.9-.4-.4-.9-.6-1.8.1-2.6z"/>
  <path fill="#302E30" d="M84.4 29.1c-.3 1.2-1.2.5-1.9.6-.6 0-.5-.6-.5-1v-.6c0-1.6.2-1.8 1.8-1.6.2 0 .5 0 .6.3 0 .4-.3.4-.6.4-.3.1-.7-.2-1 .2.2.5.6.2.9.3.6.1.5.4.2.7-.3.8.7.3.5.7z"/>
  <path fill="#232023" d="M122 28.3c-.3.5.2 1.3-.6 1.3-.5 0-.3-.8-.3-1.3 0-.6-.3-1.5.2-1.6.8-.2.7.9 1.3 1.2.1 0 .1 0 .1-.1.2-.4-.3-1.2.4-1.2s.3.8.3 1.2c0 .6.3 1.3-.2 1.8 0 .2-.1.1-1.2-1.3z"/>
  <path fill="#2A272A" d="M56.8 27.9c.3-.4-.1-1.3.5-1.2.7 0 .3.8.3 1.3 0 .6.3 1.4-.2 1.6-.6.2-.7-.8-1.1-1.1-.1 0-.1-.1-.2-.1 0 .1-.1.1-.1.2-.1.4.2 1.1-.3 1.1-.7 0-.4-.7-.4-1.1.1-.6-.4-1.6.3-1.8.6-.3.6.8 1.2 1.1z"/>
  <path fill="#2C292C" d="M91.9 29.5c-.2.1-.5.5-.5-.1-.1-.5 0-.9 0-1.7-.6.6-1.1 1.1-1.7.2v1.4c0 .2-.2.4-.4.4s-.3-.2-.3-.4v-1.1c.1-.5-.3-1.3.2-1.5.6-.3.8.6 1.3.9.6-.1.5-1.5 1.5-.7.1.8.1 1.7-.1 2.6z"/>
  <path fill="#292629" d="M98.4 28.2v.6c0 .3.2.8-.3.9-.4 0-.4-.4-.4-.7 0-.4-.3-.4-.6-.4s-.4.1-.4.4c0 .3.1.8-.4.7-.4 0-.4-.5-.4-.9v-1.4c0-.3-.1-.7.4-.7.4 0 .4.3.3.6 0 .4.1.6.5.6s.5-.2.5-.5 0-.7.5-.6c.4.1.2.5.2.7.2.1.1.4.1.7z"/>
  <path fill="#302E30" d="M75.3 29.1c.1.4-.1.7-.6.7h-1.5c-.4-.9-.1-1.8-.2-2.7 0-.3.1-.5.5-.5h1.4c.2 0 .4.1.4.3 0 .3-.2.4-.4.5-.4 0-.9-.4-1.2.3.3.1.5.1.8.1.6 0 .8.3.4.7-.5.6.5.3.4.6z"/>
  <path fill="#2D2B2D" d="M120.5 27.8c-.1.7.1 1.4-.7 1.8-.9.4-1.7-.1-1.8-1.1V28c.1-.5-.3-1.4.3-1.4.7 0 .3.9.4 1.4.1.4-.1.9.5.9.7 0 .5-.5.6-1v-.1c.1-.4-.3-1.3.4-1.2.6.1.2.9.3 1.2z"/>
  <path fill="#2C292C" d="M108.7 27.1c-.3.1-.5.1-.8.2-.2 0-.5 0-.6.3 0 .4.3.3.5.3.6 0 .9.2 1.1.7.1.4 0 .7-.3 1-.5.4-1.1.2-1.6.2-.1 0-.2-.2-.2-.4s.1-.3.3-.3h.2c.3-.1.9.2.9-.3s-.5-.3-.8-.4c-.6-.1-.7-.4-.7-.9s.3-.9.9-.9c.4 0 .8.1 1.2.1.1.1.1.3-.1.4z"/>
  <path fill="#272427" d="M116.4 29.5c-.1 0-.2.1-.4.2s-.3-.1-.4-.2c-.5-.7-1.1-.7-1.6 0-.1.1-.2.3-.4.2-.2-.1-.3-.3-.2-.5.3-.8.7-1.6 1.1-2.4.1-.2.5-.3.6-.1.5.9.9 1.7 1.3 2.8zm-23.7-.4c.3-.7.7-1.6 1.2-2.4.1-.2.5-.2.6.1.4.8.7 1.6 1 2.4.1.2 0 .3-.1.4-.2.2-.4.1-.5-.1-.5-.7-1-.7-1.6 0-.1.1-.2.3-.4.2-.2-.1-.3-.2-.2-.6zm-45.7.6c-.2-.1-.3-.2-.3-.4.1-.2.1-.4.2-.6.5-.7.4-2.1 1.3-2 .8.1.8 1.6 1.2 2.4.1.2.1.4-.1.5H49c-.6-.9-1.2-1-1.8 0 0 .1-.1.1-.2.1zm13.9 0c-.1-.1-.3-.1-.3-.2-.5-.8-1.1-.8-1.7 0-.1.1-.2.2-.4.2-.2-.1-.2-.3-.2-.5.3-.8.7-1.5 1-2.3.1-.3.5-.5.6-.1.4.8.8 1.7 1.1 2.6.2 0 0 .2-.1.3z"/>
  <path fill="#262326" d="M99.4 29.7c-.3-.1-.3-.3-.2-.6.3-.8.6-1.5 1-2.3.2-.5.6-.4.8.1.3.7.6 1.5.9 2.2.1.2.1.4-.1.5-.1.1-.3.1-.3 0-.6-.9-1.2-.9-1.8 0-.2.1-.3.1-.3.1z"/>
  <path fill="#252225" d="M52.2 29.7c-.4-.1-.4-.3-.3-.6.3-.7.6-1.5 1-2.2.3-.5.6-.5.8.1l.9 2.1c.1.2.1.4-.1.5-.1.1-.3.1-.4 0-.6-.8-1.1-.8-1.7 0 0 0-.1.1-.2.1z"/>
  <path fill="#272427" d="M103.2 27.4c.1.4.1.5.2.5.9-.1 1.4.3 1.2 1.2-.2.9-1.1.6-1.7.7-.2 0-.4-.1-.4-.3 0-.3.2-.4.5-.4.4 0 .8.1 1.1-.2-.2-.5-.6-.4-.9-.4-.5-.1-.8-.4-.8-.9s.2-.9.7-.9c.4 0 1.2-.5 1.2.5-.3.2-.7-.1-1.1.2zm-24.8.4c-.1.1-.2.2-.4.3-.2.1-.3 0-.4-.1-.2-.3-.4-.6-.8-.2-.3.6.5 1.6-.7 1.9-.4-.9-.3-2-.1-2.9.2-.7 1.2-.4 1.8-.3.6.2 1.1.6.6 1.3z"/>
  <path fill="#2A282A" d="M125.4 27.5c.2-.3.3-.5.4-.7.1-.2.3-.3.5-.2.3.2.2.4 0 .6-.4.6-.8 1.2-.7 2 0 .2-.1.5-.4.5-.3 0-.3-.3-.3-.6.1-.6-.2-1.1-.6-1.6-.1-.2-.5-.5-.1-.8.4-.3.5.1.7.4.2.1.3.2.5.4z"/>
  <path fill="#2A272A" d="M50.7 27.5c.1-.2.2-.3.3-.4.2-.3.3-.6.7-.4.3.2.1.5-.1.7-.4.5-.6 1.1-.6 1.8 0 .3-.1.5-.4.5-.3 0-.4-.3-.3-.5.1-.6-.2-1.1-.5-1.7-.1-.2-.7-.6-.1-.9.4-.2.5.2.7.5.1.1.1.2.3.4z"/>
  <path fill="#322F32" d="M86.1 26.5c.3 0 .5 0 .8.1.3 0 .5.4.2.5-1 .4-.6 1.2-.7 1.9 0 .3.1.8-.4.7-.4 0-.3-.5-.4-.8-.1-.6.4-1.5-.6-1.8-.1 0-.1-.2-.1-.3.4-.4.8-.2 1.2-.3z"/>
  <path fill="#211E21" d="M71.3 26.6c.4 0 .9-.1 1.1.2.3.5-.5.4-.6.7-.1.5-.1 1.1-.1 1.7 0 .3 0 .6-.4.6-.3 0-.3-.4-.4-.6-.1-.7.2-1.4-.6-2.1-.3-.5.8-.3 1-.5z"/>
  <path fill="#2D2A2D" d="M45.3 29.8c-.5.1-.7-.2-.7-.7v-1.9c0-.2 0-.5.3-.5s.4.2.4.5v1.3c0 .3-.1.6.3.6.3 0 .6 0 .5.4 0 .3-.4.2-.8.3z"/>
  <path fill="#F6F6F6" d="M78.4 27.8c-.1-1-1.3-1.7-2.1-1.2-.3.1-.2.4-.2.6 0 .8-.1 1.7.1 2.5-.7-1-.5-2.1-.2-3 .2-.7 1.4-.3 2.1-.2.3.1.6.3 1 .2v2.8c-.8-.4 0-1.3-.7-1.7z"/>
  <path fill="#323032" d="M106.1 28.1c-.2.5.3 1.5-.4 1.5s-.2-.9-.4-1.4v-.1c.2-.5-.3-1.4.3-1.4.8 0 .3 1 .5 1.4z"/>
  <path fill="#3D3A3D" d="M66.6 29.5c-.3.3-.7.4-.7-.2-.1-.7-.1-1.5 0-2.2.1-.7.4-.5.8-.2.4.9.5 1.7-.1 2.6z"/>
  <path fill="#F7F7F7" d="M66.6 29.5c0-.9 0-1.7.1-2.6.2-.1.4-.1.6-.2V29c0 .5.1.8.7.7-.6.8-.9-.2-1.4-.2z"/>
  <path fill="#F6F6F6" d="M75 27.3c.1-.2.5-.3.3-.5-.5-.5-1.2-.2-1.8-.2-.4 0-.4.4-.4.7 0 .8-.2 1.7.2 2.5-.6-.9-.2-2-.2-3 0-.5.5-.4.8-.4.6.1 1.2-.3 1.6.3.3.4 0 .6-.5.6z"/>
  <path fill="#3B383B" d="M77.7 27.8l.3.3c0 .1-.1.1-.1.2-.1.5.8 1 .1 1.3-.5.2-.6-.8-.9-1.2-.1-.1-.1-.2-.1-.3.2-.3.4-.5.7-.3z"/>
  <path fill="#F6F6F6" d="M75.3 29.1c-.5-.2-1.1.1-1.6-.2.1-.1.1-.2.1-.3.4-.3 1.2.2 1.2-.5s-.9-.1-1.2-.5c1.3-.3 1.7.4 1.5 1.5z"/>
  <path fill="#F2F2F2" d="M108.7 27.1v-.4c.5.1 1.4-.9 1.5.5-.3-.1-.2-.7-.6-.5-.4.2.1.6-.1.9-.3-.2-.3-.8-.8-.5z"/>
  <path fill="#EAE9EA" d="M77.7 27.8c-.2.1-.5.2-.7.3-.1-.1-.2-.2-.2-.3-.1-.3-.2-.7.3-.7s.7.2.6.7z"/>
  <path fill="#F7F7F7" d="M84.4 29.1c-.5-.1-1.1-.2-1.8-.3.5-.5.9-.3 1.3-.4.2.3.4.5.5.7z"/>
  <path fill="#3A383A" d="M91.9 29.5v-2.7c.2.9.3 1.8 0 2.7z"/>
  <path fill="#D4D4D4" d="M103.2 27.4c.4-.3.8-.1 1.2-.2-.3.4-.8.2-1.2.2z"/>
  <path fill="#FEFEFE" d="M28.6 5c7.1 5.2 8.5 16.4 2.6 23.5-4.5 5.5-10.5 7.6-17.4 5.8-7.2-1.8-11.5-6.7-12.5-14C.3 13.4 3 7.9 8.7 3.9c.3-.1.6-.2.8-.4.2-.1.3 0 .4.2 0 .2-.1.3-.2.4-.3.3-.7.5-1 .8-.3.3-.6.5-.9.8-.3.3-.6.6-1 .9-.2.3-.5.5-.7.8-.3.2-.5.5-.7.8-.1.2-.3.5-.5.7-.1.3-.3.5-.5.8-.1.2-.3.5-.4.8-.3.5-.4 1-.6 1.5-.2.5-.4 1-.5 1.6-.1.5-.3 1-.4 1.5-.1.6-.2 1.2-.2 1.9.1 1.1-.1 2.2.1 3.3.2 1 .4 1.9.7 2.9 1.4 4.3 4.1 7.3 8.1 9.3 1 .6 2.1.9 3.2 1.2.9.2 1.9.4 2.8.3h2c.5 0 1 0 1.5-.2.5-.1 1.1-.1 1.6-.3.5-.1 1-.2 1.4-.4.1-.1.3-.1.4-.2.2-.1.5-.2.7-.3.4-.1.8-.4 1.2-.6.4-.2.8-.4 1.1-.7.4-.3.8-.6 1.2-1 .6-.3.9-.9 1.4-1.4.4-.4.9-.8 1.2-1.4l.7-1c.3-.4.5-.9.7-1.4.2-.3.3-.7.5-1.1.7-1.9 1.1-3.7 1-5.7 0-1.2-.1-1.3-1.2-1-1.5.4-2.9.9-4.4 1.3-.5.2-1 .3-1.5.5-.3.1-.7.1-1 .3-.5.2-1 .3-1.5.5-.8.3-1.6.4-2.3.7-.5.2-1 .3-1.5.5-.6.1-1.1.3-1.7.5-.5.2-1 .3-1.5.5-.5.1-1 .1-1.5.1-.1 0-.2 0-.4-.1-.5-.2-.9-.5-1.1-.9-.2-.5-.3-.9-.3-1.4.1-.4.1-.8.2-1.2.2-.5.3-1 .5-1.5.2-.4.3-.8.5-1.3s.3-.9.5-1.4c.1-.3.2-.5.3-.8.2-.6.4-1.3.7-1.9.2-.5.3-1 .5-1.4.2-.6.4-1.3.7-1.9.2-.5.3-1 .5-1.4.4-1.2.9-2.5 1.3-3.7.2-.7.2-1.2-.2-1.7.2-.3.5-.2.8-.1 2.4.2 4.6.8 6.4 2.4 0 0-.1.1-.2.1-1.8-.3-1.8-.3-2.4 1.6l-2.1 6c-.2.7-.4 1.3-.7 2-.3.8-.5 1.5-.7 2.3-.2 1 0 1.2.9 1.1.8 0 1.6-.2 2.4-.3.7-.2 1.4-.2 2.1-.3 2.1-.3 4.3-.6 6.4-1 1.2-.2 1.3-.4 1-1.6-.7-2.6-2-4.9-3.8-6.8-.5-.5-1.2-.9-1.2-1.7 0-.2.1-.4.3-.3z"/>
  <path fill="#E4232A" d="M19.4 1.6c.7 0 1.1.2.7 1.1-.6 1.4-1.1 2.9-1.6 4.3-.9-.4-1.3-1.2-1.9-1.9-.9-1-1.7-2-2.5-3 0-.1.1-.2.2-.2 0-.1 0-.1.1-.1 1.7-.3 3.4-.6 5-.2z"/>
  <path fill="#EBE2E3" d="M14.3 1.9c0 .1-.1.2-.1.3-.3.4-.8.3-1.3.5-.6.2-1.2.5-1.8.8-.4.1-.8.5-1.3.3l-.3-.3c1.2-.9 2.5-1.3 3.9-1.7.4-.1.6.1.9.1z"/>
  <path fill="#FEFCFD" d="M19.4 1.6c-1.7 0-3.4.1-5 .1.9-.6 1.9-.5 2.9-.5.5.1 1 .1 1.4 0 .5 0 1-.1 1.5.2-.2.1-.5 0-.8.2z"/>
  <path fill="#F2E6E6" d="M26.3 3.9c.1 0 .2 0 .4-.1.8.2 1.4.6 1.9 1.2l-.3.3c-1 0-1.6-.6-2-1.4z"/>
  <path fill="#FDFDFD" d="M18.7 1.2c-.5.3-1 .3-1.4 0h1.4z"/>
  <path fill="#DFDEDF" d="M114.9 27.7c.3.3.5.5.3.8-.1.1-.3.1-.4 0-.4-.3-.1-.5.1-.8z"/>
  <path fill="#DAD9DA" d="M94.4 28.2c.1.3-.1.3-.3.3-.2 0-.4-.1-.3-.4.1-.2 0-.4.3-.4.3.1.2.4.3.5z"/>
  <path fill="#E4E3E4" d="M48.1 27.6c.2.3.5.5.3.9 0 .1-.3.1-.4.1-.5-.4.1-.6.1-1z"/>
  <path fill="#DCDCDC" d="M59.7 27.7c.3.2.4.5.2.8-.1.1-.4.1-.4 0-.2-.3 0-.5.2-.8z"/>
  <path fill="#E0DFE0" d="M100.4 27.6c.4.3.6.5.4.8-.1.2-.4.1-.5 0-.3-.2.1-.4.1-.8z"/>
  <path fill="#D3D2D3" d="M53.4 27.7c.1.3.4.6.1.9-.1.1-.4.1-.4 0-.2-.4-.1-.6.3-.9z"/>
  <path fill="#E42229" d="M26.3 3.9c.7.5 1.3 1 2 1.4 2.7 2.4 4.6 5.4 5.4 8.9.2.8.1 1.2-.8 1.3-2.3.3-4.6.7-7 1-1.5-1.6-3-3.3-4.3-5.1.9-2.6 1.8-5.3 2.7-7.9.2-.5.4-.7.8-.3.4.3.8.5 1.2.7z"/>
  <path fill="#BB2226" d="M23.8 33.3c-.5.2-.9.4-1.4.5-1-.4-1.5-1.3-2.1-2.1C16.1 27 12.1 22.3 8 17.5c-1.6-1.9-3.3-3.8-4.9-5.7.1-.5.3-1 .6-1.5.5-.3.7.1 1 .3l8.7 10.2c2.6 3 5.2 6.1 7.8 9.1l2 2.3c.3.3.6.6.6 1.1z"/>
  <path fill="#B62126" d="M3.2 11.8c1 .2 1.3 1.2 1.8 1.8 2.7 3 5.3 6.2 7.9 9.2 2.1 2.5 4.3 5 6.5 7.5 1 1.2 2 2.4 3 3.5-.5.2-1.1.4-1.7.3-1.7-1.5-3-3.3-4.4-5-3.2-3.6-6.3-7.3-9.4-11-1.4-1.6-2.7-3.3-4.2-4.7 0-.6.1-1.1.5-1.6z"/>
  <path fill="#AF2125" d="M19.2 34.3c-.7.1-1.4.2-2.2 0-1.6-1.4-2.8-3.2-4.2-4.7-3.2-3.6-6.3-7.3-9.4-11-.5-.6-1-1.2-1.4-1.8-.1-.7.1-1.3.2-1.9.8-.3 1.1.4 1.5.8 1.6 1.8 3.2 3.7 4.8 5.5 3.2 3.7 6.4 7.4 9.6 11.2.4.6 1.1 1.1 1.1 1.9z"/>
  <path fill="#AA2125" d="M2 16.8c1 .2 1.3 1.2 1.8 1.8 2.7 3 5.3 6.1 7.9 9.2 1.5 1.8 3.1 3.6 4.7 5.4.3.3.5.7.7 1.1-1 .1-2-.1-2.9-.5-1.6-2.4-3.6-4.4-5.5-6.6C6.9 25.1 5.1 23 3.3 21c-.3-.4-.6-.8-1.2-.5-.3-1.2-.2-2.5-.1-3.7z"/>
  <path fill="#B32126" d="M19.2 34.3l-9-10.5c-2.1-2.5-4.2-5.1-6.4-7.6-.4-.5-.8-1.2-1.6-1.3l.3-1.5c1 .2 1.4 1 2 1.6 3.3 3.8 6.6 7.7 9.9 11.6 1.9 2.2 3.8 4.5 5.7 6.7.2.2.3.5.5.8-.4.3-.9.2-1.4.2z"/>
  <path fill="#A52125" d="M2.1 20.5c.1-1.2.6-.6 1-.2 1.6 1.8 3.2 3.7 4.7 5.5 1.8 2 3.5 4.1 5.2 6.2.5.6 1.2 1 1.1 1.9-1.1-.2-2.1-.6-3.1-1.2-2.6-3.2-5.2-6.5-8.2-9.4-.4-.9-.7-1.8-.7-2.8z"/>
  <path fill="#E42229" d="M28.1 18.5c1.8-.6 3.6-1.1 5.4-1.8.5-.2.6 0 .6.5.1 2.5-.1 4.8-1.2 7.1-1.7-1.5-3.1-3.4-4.6-5.1-.2-.3-.3-.5-.2-.7z"/>
  <path fill="#CB2227" d="M18.7 21.3c.5-.3 1-.4 1.6-.5.5-.2.7.1 1 .4 2.3 2.5 4.4 5.2 6.7 7.8.4.4.6.9.3 1.5-.3.4-.7.7-1.2.9-2-2-3.7-4.2-5.5-6.4-1-1.1-2.2-2.2-2.9-3.7z"/>
  <path fill="#D42228" d="M31 27.7c-.2.6-.7 1-1.1 1.4-.6.2-.9-.3-1.2-.7-2.3-2.7-4.6-5.4-6.9-8 .8-.4 1.6-.6 2.4-.7 1.3.9 2 2.2 3.1 3.3 1.2 1.3 2.2 2.6 3.4 3.9.2.2.5.4.3.8z"/>
  <path fill="#C62227" d="M18.7 21.3c1.2.9 1.9 2.2 2.9 3.3 1.8 1.9 3.4 4 5.1 5.9.2.3.5.5.5.9-.3.4-.7.6-1.2.8-1-.5-1.5-1.4-2.1-2.2l-5.6-6.5c-.4-.5-.9-1-1-1.7.4-.3.9-.4 1.4-.5z"/>
  <path fill="#CF2228" d="M21.8 20.4c1.3.5 1.8 1.7 2.6 2.6 1.9 2 3.4 4.2 5.4 6.1-.6.4-.8 1.2-1.5 1.5 0-1.4-1.2-2.1-2-3-1.7-2.2-3.6-4.2-5.5-6.3-.2-.2-.4-.3-.6-.3.6-.4 1.1-.6 1.6-.6z"/>
  <path fill="#C52227" d="M14.9 17.1c0 .5-.2 1-.5 1.5-.8-.1-1.1-.8-1.6-1.3-2.4-2.8-4.9-5.5-7.2-8.4-.1-.3-.3-.5-.4-.8.2-.3.4-.7.8-.9.7-.1 1 .5 1.4.9 2.1 2.5 4.3 4.9 6.3 7.5.4.5 1.2.7 1.2 1.5z"/>
  <path fill="#A12225" d="M2.8 23.4c.5-.4.7.2.9.4 2.3 2.6 4.6 5.2 6.9 7.9.3.3.4.7.4 1.1-4-2-6.8-5.1-8.2-9.4z"/>
  <path fill="#D32228" d="M16.8 11.8c-.1.7-.4 1.3-.7 2-2.5-3-5.2-5.8-7.5-9 .3-.3.6-.6 1-.7.4-.3.7-.1 1 .2 2.1 2.3 4 4.7 6 6.9.2.2.3.4.2.6z"/>
  <path fill="#C22227" d="M17.2 21.8c2.8 3.6 6 6.8 8.7 10.4-.4.3-.7.6-1.2.6-2.7-3.2-5.5-6.4-8.2-9.6-.3-.4-.9-.7-.9-1.4h1.6z"/>
  <path fill="#DC2228" d="M11 3.3c.5-.4 1.1-.7 1.7-.9.7 0 .9.5 1.3.9 1.2 1.3 2.3 2.8 3.6 4.1.2.3.5.6.4 1-.1.7-.4 1.3-.7 2-1.2-.5-1.8-1.7-2.6-2.6-1.2-1.5-2.6-2.9-3.7-4.5z"/>
  <path fill="#CC2227" d="M6.7 6.5c.3-.4.6-.7 1-.9.6-.1.9.4 1.2.7 2.3 2.7 4.7 5.4 6.9 8.2-.1.5-.2 1-.5 1.4-.7 0-1.1-.5-1.4-1-2.4-2.9-4.8-5.7-7.2-8.4z"/>
  <path fill="#C92227" d="M6.7 6.5c1.4.5 2 1.9 2.9 2.9 2 2.1 3.7 4.5 5.8 6.5 0 .5-.2.9-.5 1.3-2.1-2-3.8-4.4-5.8-6.5-1-1.2-1.8-2.6-3.1-3.5.1-.3.4-.6.7-.7z"/>
  <path fill="#C22227" d="M5.2 8.1c1.5 1.2 2.6 2.9 3.9 4.3 1.8 2 3.6 4.1 5.4 6.1 0 .4 0 .8-.2 1.1-.7.2-1-.4-1.3-.8-2.6-3-5.1-6-7.8-8.9-.4-.3-.6-.6-.4-1.1 0-.3.2-.5.4-.7z"/>
  <path fill="#BE2327" d="M23.8 33.3c-2.3-2.7-4.6-5.5-6.9-8.2-2.2-2.6-4.4-5.1-6.6-7.7-2-2.3-3.9-4.6-5.9-6.9-.1-.1-.4-.1-.5-.2.1-.3.2-.5.4-.8 2.3 2.2 4.2 4.8 6.3 7.1 1.3 1.5 2.5 3.1 3.9 4.4.3.2.6.5.9.7.1.9.8 1.4 1.3 1.9 2.2 2.5 4.3 5 6.4 7.5.5.5 1.2 1 .9 1.9-.1.2-.2.3-.2.3z"/>
  <path fill="#D92228" d="M31 27.7c-1.8-2.1-3.6-4.2-5.5-6.3-.5-.5-.9-1.1-1.3-1.7.4-.3.9-.4 1.4-.4.9.1 1 .9 1.4 1.4 1.5 1.6 2.8 3.2 4.2 4.9.3.3.7.6.4 1.1 0 .4-.3.7-.6 1z"/>
  <path fill="#CF2228" d="M15.9 14.4c-1-.4-1.5-1.4-2.1-2.1-1.8-2-3.6-4.1-5.3-6.2-.3-.2-.6-.4-.8-.6.2-.3.5-.6.9-.7 1.6 1.2 2.6 3 4 4.4 1 1 1.9 2.1 2.8 3.2.3.4.7.8.7 1.3 0 .3 0 .5-.2.7z"/>
  <path fill="#D72228" d="M11 3.3c1.8 1.4 3 3.4 4.5 5 .6.6 1.2 1.4 1.8 2.1-.1.5-.2 1-.5 1.4l-6.3-7.2c-.3-.3-.5-.6-.9-.5.1-.1.2-.2.2-.3.4-.1.8-.3 1.2-.5z"/>
  <path fill="#BF2226" d="M14.5 21.1c-1.4-.2-1.8-1.5-2.5-2.4-2.5-2.7-4.8-5.5-7.2-8.3-.2-.3-.5-.5-.5-.9 0-.3.2-.5.5-.7.2 1.1 1.1 1.5 1.7 2.2 2.3 2.8 4.7 5.5 7.1 8.2.2.2.4.3.6.5l.3 1.4zM24 33.2c-.5-1.5-1.8-2.4-2.7-3.5-2-2.4-4.1-4.7-6.1-7.1-.3-.3-.5-.6.2-.7h.2l4.7 5.3c1.3 1.5 2.5 3 3.8 4.4.3.4.7.7.6 1.2-.2.1-.4.4-.7.4z"/>
  <path fill="#DD2229" d="M31.7 26.6c-.6-1.4-1.8-2.4-2.7-3.5l-3.3-3.9c.2-.2.6-.3.9-.3.5-.2.8.1 1.1.4 1.5 1.7 2.9 3.5 4.4 5.1.2.2.4.5.3.8-.1.6-.4 1-.7 1.4z"/>
  <path fill="#DF2229" d="M21.6 11.5c.8.1 1 .9 1.4 1.4 1 1.2 2.3 2.2 2.9 3.7-.7.3-1.4.3-2.2.4-.7-1.4-1.9-2.4-2.8-3.5.3-.7.5-1.3.7-2z"/>
  <path fill="#DA2329" d="M20.9 13.4c1.4.6 2 2 3 3 .1.1-.1.4-.1.5-.9.1-1.7.3-2.6.4-.9.1-1.4-.3-1.2-1.2.3-.8.6-1.7.9-2.7z"/>
  <path fill="#E0232A" d="M18 8.4c-1.8-1.9-3.3-4.1-5.3-5.9.5-.1 1-.2 1.4-.3 1.2.7 1.8 2 2.7 2.9.6.6 1.2 1.1 1.6 1.9 0 .5-.1 1-.4 1.4z"/>
  <path fill="#E02229" d="M32.4 25.3l-5.1-6c-.2-.2-.5-.3-.7-.3.5-.3 1-.4 1.5-.5l4.4 5c.2.2.4.5.4.8 0 .3-.2.7-.5 1z"/>
</svg>
