<svg xmlns="http://www.w3.org/2000/svg" width="451.9" height="247.2">
  <g fill-rule="evenodd" clip-rule="evenodd">
    <path fill="#E60013" d="M227 245.9h7c0-15.7.6-9.5 1.6-18.3.2-2.1-.6-6.6-.6-10.7l9 28h7c.8-9.6 7.2-20 8-30 4.4 7-.2 20.9 3.2 29.8 1.8 4.7-1.7 1.2 6.8 1.2l-1.1-25.9c-.4-4-.3-8.7-.8-13.2-.6-5.7-3.7-3.9-10.1-3.9-1.1 4.7-2.9 9.5-4.3 14.6-4.1 14.1-.9 10.8-5.7 13.3-1.4-6.2-5.6-23-8-28h-9c-1.2 13.8-3 28.4-3 43.1zm-227 0h7l2-29c3.8 2.8 6.9 23.5 9 28h6l8-28c.8-2.9.2-2 2-4 0 12.4 1 20.9 1 33h7l-.6-27.5c.3-4.3-1.4-8.7-1.4-15.5H30c-.3 4-2.9 11-4 15-1.4 5-2.8 9.8-4 15-3.1-2.2-1.6-1.5-2.6-6.4L13 202.9c-1.9 0-5.4-.2-7.1-.1-4.6.4-3.2.6-3.2 3.3.1 11.3-2.7 29.4-2.7 39.8zm305 0h7v-26c0-3.8.3-.4-1-3 3.7 1 3.8 3.6 5.7 7.3 15.7 32.1 9 17.7 19.3 22.7v-35c.2-9.2.9-9-7-9v25c0 2.8-.4 1.9-2 3-.9-3.8-5.1-11.5-7-15-7.9-15.2-6-13-15-13v43zm115.9-40v40h8c0-22.8-3.5-19 15-19v19l8 1v-44c-9.8 0-8-2.2-8 17h-15v-17c-5.6 0-8-.8-8 3zm-62.9 34h-6v-31c13.7 0 17 3.3 17 17 0 6.8-4.4 14-11 14zm-13-36v42c15 0 32.6 1.9 32.3-22.9-.1-7.1-1.9-11.3-5.5-14.9-7.8-7.8-19-6-26.8-4.2zm-178 19h-3v-14c6 0 11-1.1 11 7 0 4.8-3.4 7-8 7zm-11-19v42h8v-18c5.5.1 7.8 1.1 9.3 5.7.8 2.4 2.6 9.9 2.7 12.3h8c-.2-8.4-3.2-14.4-7-20 3-4.5 6-4 6-11 0-10.5-11.3-13-16-13-4.6 0-6.7 1.6-11 2zm241 9l6 16h-10c1.2-5.4 2.6-10.4 4-16zm-16 33h8c.9-3.8 2.7-8.3 3-12h12c.3 3.7 2.1 8.2 3 12h8c-1.7-7.2-3.5-14-5.6-21.4l-6.4-21.6h-10l-12 43zm-316-33c.7 1.5 3.8 13.8 4 16h-9l2.4-12.6c1.8-5.6-.7-2 2.6-3.4zm-17 33h8c.1-4 1.7-9.2 3-12h11c.9 4 2.6 7.4 3 12h8c-.1-4.3-1.4-7.7-2.6-11.4-1.3-4-1.8-6.9-3-11l-3-11c-.1-.2-.2-.5-.3-.7l-2.1-9c-13.9 0-9.5-3.2-15.8 19.2-1.6 5.8-6.1 18.7-6.2 23.9zm84-35c2.3 1.6 4.9 14.2 5 18h-9c.5-6.1 3.5-11.9 4-18zm-16 35h8c.4-4.6 2.1-8 3-12h11c1.8 3.8 2.2 8.2 4 12h8c-1.7-7.1-4.1-14.4-6.2-21.8l-4.9-18.4c-.5-1.3-.3 2.2-.9-2.8h-10l-12 43zm89-35c1.1 4.8 3.6 13.5 4 18h-9c.1-4 2.5-15.1 5-18zm-17 35h8c.1-3.6 1.1-12 5-12 11.6 0 7.9-.8 9.5 1.9l2.5 10.1c11 0 10.4 6.3 3.4-18.4l-6.4-24.6h-10c-1 2.2-2.3 7.3-3 10l-9 33zm-104-40v4h11v36h8v-36h10v-7H87c-2.3 0-3 .7-3 3zm204 41l8-1v-40c0-3.8-2.3-3-8-3v44z"/>
    <path fill="#FCFCFC" d="M152.3 186.5l52.5.2 22-174.9H174M333.9 143h4.1l37.9-.1V102l-6.9-.1h-35.1m1.5-37c4.2 22.8 36.7 17.8 34.6-3.9-.8-8.2-9.1-16.5-19.7-14.9-7.7 1.2-16.8 9-14.9 18.8z"/>
    <g fill="#7570B2">
      <path d="M174 11.8h52.8l-22 174.9-52.5-.1L174 11.8zm-5 20.1c-1.7-2.4-8-14-8-18v-4h-57c-1.4 6.1-2.3 15.3-3 22l-19 157h57l21-169c2.7 3.1 8 15.7 8 17 0 8.5-7.8 66-8.9 76.1l-9.1 75.9h57l22-180h-57c-.2 6.9-2.5 16.2-3 23zm50 157h19c1.3-15 12-71.6 12-83l5.6 20.4c1.9 7.7 3.5 14.9 5.2 21.8l7.6 31.4c.9 3.9.9 9.4 4.6 9.4h109v-20h-97c-.4-4.9-2.9-12.6-4.2-17.8-1.4-5.6-2.8-11.4-4.4-17.6l-18-72c-1.6-6.3-2.9-11.6-4.4-17.6l-3.2-13.8c-1.3-3.7 0-2.1-2.8-3.2l-7.4 39.6c-2.6 13.9-5.1 27.6-7.3 40.7-1.2 7.5-2.5 12.6-3.7 20.3-1.9 11.1-10.6 54.7-10.6 61.4z"/>
      <path d="M333.9 101.9h35l6.9.1v40.9h-41.9v-41zm-1.9 44h46v-46h-46v46z"/>
    </g>
    <path fill="#E72529" d="M335.4 64.9c-1.8-9.8 7.2-17.6 14.9-18.8 10.6-1.6 18.9 6.6 19.7 14.9 2.1 21.7-30.4 26.7-34.6 3.9zm-61.4-47c0 12.2 6.9 15.4 15.3 21.7l39.9 29.1c14 10.3 14.5 13.2 27.8 13.2 6.4 0 15-8.6 15-15 0-17.9-6.6-17.7-25.3-31.7-3.7-2.8-6.7-4.8-10.4-7.6L305.8 5.1C286.4-8.2 274 7.4 274 17.9z"/>
  </g>
</svg>
