<svg xmlns="http://www.w3.org/2000/svg" width="482.4" height="92.4" text-rendering="geometricPrecision" image-rendering="optimizeQuality" shape-rendering="geometricPrecision" viewBox="60.2 364.6 482.4 92.4">
  <path fill="#FEFFFE" d="M92.9 436.1c1 .2 1 .5 1.7 1l1 .5c1 .5.5.2 1 .7h.2v.2c1.4 1-.5-1.4.2.2 2.9-.2 5.8.5 8.2-.7 1.4-1 4.1-2.9 3.6-4.6.7-5 .2-13.4.2-19v-16.6c0-.5 0-.2.2-1 .7-2.2 10.1-.7 10.1-.7 1.2 1.9.5 32.4.7 37.9.2 1.7 1.9 2.6 3.4 3.4 2.4-.5 3.8 1 6.5.2v-.2c0 .2 0-.2-.7-.7-.5-.2-.5-.2-1.4-.2.5-.5 1.2-.2 0-1.2 1 .7 1.9.7 2.4 1.2l.2.2.7 1c.7-1 1.2-.5 2.9-1.2.2-1 0-.7.2-1.4 2.4-.2 2.6-.5 2.9-2.9.5-4.6-.2-31.4 0-34.6.2-2.6 1.7-1.9 3.6-2.2 0 0 .2-.5.2-.2v-.2l2.6.2c1.4 0 1.9 0 3.4.2l-.5-1.2c-1-2.2.2 1.7-.2-.5 2.2-1.7.5-.2 3.1 0l-1.2 1.4c1 4.3.5 22.6.5 29.8 0 3.4.5 7 .5 10.1.2 1.7 2.6 2.6 4.3 3.4 1.9.2 4.1.5 6 0 1.4-.2 2.6-1.4 3.8-1.4 2.2-4.8 2.9 1 2.9-10.6 0-9.4.7-32.2-.2-38.6l-1.2-1.2c-.5-.7-.7-.7-1-1.4-1.2-.7-2.2-1.4-3.6-1.4 0 0-.5-.7-1 2.2h.5c1 .2-.2 0-.2 0-.5.7-.7 1-2.4 1.4-1.4.5-49 .2-55 .2l-8.4.5c0 2.2.2 2.6-.5 4.6-.7 2.2-.2 31-.2 34.1 0-4.8.5-37.7-.7-38.6 0 1.7-.2 44.6.2 45.8.5 1.6.7-.1.5 2.1zm284.9-11.3c0-.2.5-.2-.2-.2-.5-.2-.7-.5-.7-2.4 0-2.6.5-4.3 0-7 1.9 0 1.2-.5 2.6-.5 2.2.2 2.4.2 4.1 0 3.1-.5 4.3.5 6.7 1-.5 2.4 1 9.1-1.4 10.1-.5.2-4.3 0-5.5 0-3.7 0-4.7.9-5.6-1zm8.8-22.1H378c-.5-1.9-.5-6.2 0-8.2h9.4c2.9 0 2.2 1.2 2.2 4.1-.1 3.9.6 4.1-3 4.1zm-33.1 1.9c-1.2.2-1.7.7-2.4 2.2-.7 1-1 2.4-.5 3.8.5 1.9 2.6 4.8 5 4.6 1-.2 3.1 0 4.3.5 1 .2.7.7 1.7 1.2.2 0 .2.2 1.2 0h.2v-.2c1 3.4.2 12.7.5 17.3 1.9 0 4.6.2 6.5 0 1.7-.2 3.4-.7 5.5-.2 2.6.2 21.6.5 24.2.2 3.6-.5 2.9.2 3.8 0 1.4-.5 1.4-1.7 1.7-2.9.5-1.2 1.2-1.9 1.4-2.2-.2-1.7-.5-3.4-.5-5.8v-5.3c1 .2.5 9.4.5 10.8 1.2-1.4.7-2.9.7-5.8v-6.5c-.5 0-1.2-.2-1.7-.5.5-1 .5.5.2-1 0-1.9-2.4-1.9-3.4-1.9 0-1.2.5-.2 0-2.2-1.7-.7-1.7-.2-3.1-.7-1.2 0-1.4-1-2.4-1.7l2.4-1c0-.2.2-.5.2-.7 2.2 1 3.4.7 5-1l2.2-1.9h.2l.5-.2c.2-.2.5.5.2-.7-1.2-6.2 3.4-16.6-7.4-19.2-1.4 1.7-1.7 1.2-2.9-.5-1.4.2-.7.2-1.2.5l-2.4.5c-1.2.2-1.9.2-3.1.2l-7.2-.5c-1.7 0-2.2.5-3.6.5-2.6 0-12.5.2-14.2-.2-.7-.5-1.7-1.2-3.6-.2v.2c-1.4 1.2-.5 0-.7 1-1 1.9 0 1.2-.2 3.1V400c1 .5 1.4-.2 1.4-.2l-1 5-1.4-1c-2.2 1.7-3.6.5-4.8.5-1.1.1-.1.6-1.8.3zm-124.3 22.1c0 .2.5 1 .7 1.2.2.5-.2 0 .5.5.5.5 0 .2.5.5.7 0 .7-.5 2.6 1.7.7 1 1.2 1.7 1.9 2.4l2.2 2.2c.5.5.7.7 1.2 1 5 2.9 7 2.2 12.7 2.2 1.4.2 2.6.5 2.9-1 1.9-.2 2.9 1 3.1-1.4.5.5.5.2 1.7.2l-.2-1.7h2.2c1-3.1 1-1.7 2.2-3.1 1-1 0-.2 1-1.2 2.6-2.4 2.2-1.2 3.4-4.6l1-1.4c.5-1 .5-1 .7-1.9-.7.2.2.5.2.5 1.9-.7 1.7-4.1 1.7-5.3 0-5.8.7-24.7 0-27.8l-2.4-.7c0-.2-.2-1.4-.2-1.4 0-2.2-.7 1.9.5-1.2v-.2h-.7c-1.4 0-1.9.7-3.8.7 2.2-.2 1.4-.7 1-2.2-3.1-1-.5-.2-2.2.5-1.2.5-1.4 0-1.9.7l-.7-.7-.2-.5s-.2-.2-.2-.5l-1.7.5c-.2.5-1-.7 0 1 .7 1.2.5.2.7.2l-1.2 1-1.2-1c-1.9 1.2-.2 1-2.4 1.4-1.7 1-1 5.3-1 7.7v9.4c0 4.1.7 15.4-1 17.8-1.4 4.6-7 2.2-7.9-1.4-.5-2.2-.2-24.7-.2-28.8 0-10.6-12.5-10.3-16.6-4.8-1.9 2.4-1.2 9.4-1.2 13v14.4c-.1 11.6 1.1 7.1 2.3 12.1z"/>
  <path fill="#FFCB05" d="M431 396.2c1.7-.7 10.8-1 12.2 0 .5.2.7-.5.7 2.2.2 10.6 1.2 9.1-6.5 9.1-2.2 0-4.8.2-6.5-.2-.3-2.2-.6-9.4.1-11.1zm-14.6 22.6c5.3 2.2 1.9 1.9 10.1 1.9 6 0 24.2.5 28.8-.7 2.4-.5 2.2-1.2 4.3-1.9-.2-1-.2-.5.2-1.2.5-.7 1.7-1 1.9-4.1l-.2-23.3c-1.9-8.4-16.1-6.5-24.7-6.5-7.2 0-22.1-2.2-23.3 7.4 0 1.4-.2 21.4.2 23.3.2.7.7 1.9 1.2 2.6 1.3 2 1.5 1.1 1.5 2.5z"/>
  <path fill="#FEFFFE" d="M349.7 433c.2-2.6-.2-4.1-1.7-5.5-.7-.7-2.4-2.2-4.1-2.2-3.6-.5-16.6.5-18.5-.7-.5-1.2-.5-6.5-.2-7.9 2.2-.5 4.6-.2 6.7-.2 2.9 0 3.6-.5 5.8-.7 0-1.4-.2-.5 1.4-1.9 2.4-2.2 3.8-6.2-.2-8.2-2.4-1-.5-2.4-4.8-1-.2-1-.2-.7-.7-1.2h-2.9l-.7 1.4s.5 1.2 0-.5l-.2-.5c-1.2 0-2.2.5-2.2.5-1 0-2.6-.5-1.7.5l-.5-1.4c-1-1.9-.7-4.6-.5-7V395l1.2-.5c1.4-.7-.5-.5 1.4-.5 1 1.4.7 2.2 2.4.5l13.2-.2v-1.2c-.2-1.4-1.7-2.4 0-3.8 0 0 0-.2.2-.2l.5-.2c-.5-4.3-2.2-2.9-6.7-2.9l-.7-2.2H319c1.2 1.4-.2.5 1.7 1s6.7 0 9.6 0c-2.6 0-2.2 0-2.9 1.2 1.4 0 7 .5 7.9-.5h-26.9c.7 1.2 0 .7 1.7 1 .2.2 24-.2 25.2.2-1.9.5-9.6 0-12-.2h-9.4c-1.2 0-5-.2-5.8.5-1 1.7 1.4 13.9-1 17.8-.2-.2-1-.5-1.7-.5l-1 .5c-1.9.7-1-1-4.3 2.2.7 1 .7.5 1 2.9.2 1.7-.2 1.9 1 2.2l.5.2c.5.2 1.7.2 2.4.7-1.2.2-1.2-.5-2.4-.2-1.2.5-.2-.2-1 .5.7.7-.7.7 3.4.5.2.7 0 .7 0 1l.2 1c2.4 0 2.9.5 2.9 3.1v17h21.4c-3.8 0-6.7.2-10.6.2h-8.2c-1.4 0-1.7 0-2.4.7 1.4 1.2 7.4.7 8.9.5 4.1-.5 21.6 1.4 26.6-.2.2-1.4-1.2-1.4.7-2.2l.5-.2.7-.2c3-1.5 1.3-.6 4-1.5zm144-44.7V401c-.2 1.2-.2.7-.7 1.2-1.7 0-3.1 0-4.8.2-2.6 0-2.4-.7-4.3-1 .7-.2.5-2.2.5-2.6-2.6 1.2 2.2-1.2-.7.5-1.2.7-.7.2-1.7.5 0 1.7.5 4.8-1.2 5-.2-.5-.2-.7-1.2-1-2.2-.5-.7 0-1.9.5l-.5.2c-1.9 1.2-1.2-.7-1.4 1.7 2.9 0 2.2-1 4.1-.2-.2 1-.2 1-1.2 1h-.7l-1 .2c.5.7-1 .7 1.7.7.7 0 .2-.5 1.4 0 .7 3.1-2.9 2.4-5.5 3.1-5.5 1.2-3.8 3.1-6 3.1-1.9 1.4-1.4 5.8-1.4 8.9 0 2.2-.5 9.6.5 10.6v-1.2l1 .7c.2 0 .5.2 1 .5 1 .7 0 .2 1.7.7h1c.2 0 1.2.2 1.2.2 1 .5-.5-.5.5.5.2 0 .2.2.2.2l1 .5.2-.2 3.8.2c.5-1.9 0-1.2.2-1.4.7-1 .5.2 1-1.4.2-1 0-3.4.2-4.3 0 1-.2 2.2 0 3.1l.2 2.4c.2.7-.2 0 .2.7 5.3-.5 2.4-4.3 2.4-4.6-.2-1 0-1.4.2-2.2l-.2-.2-1.7-1.2c0-.7 0-3.6.2-4.1.2-1 1-.5 1-2.2l-.5-3.4c3.1.7 0-.5 3.1-.7l8.9-.2c1.4-.2 1.2.2 2.2 1 1.4.7.5 0 .5 0 0 1.9 0 .7-.5 1.2l-.7.7c-1.7 2.6.7 2.2 1.2 2.4-.5 1 .5-.2-.5.2l-1.2.7c.7 1.9.5 8.2.5 10.8l.5.2h.7c1.7-.2 3.4-.2 5 0 1.9.2 3.6 1 6 .5 1.7-.5.7-.7 1.7-2.2.7-1.4.5.7.7-2.2.2-1.9 1-11.5-.5-12.7-1-.5-2.9-.7-3.6-.7.5-.2 1-.2 1.2-.5 1.2-.5 1 .2 1.4-1.2-1-1.4-1.2-1.2-3.1-1.2 0-1.2.2-1.7.5-2.2 0 0 .5-.2-.7-.5-1-.5-.5-.2-1.4-.2-.5 0-.7.2-1.4-.2-.7-.5-.2 0-.7-1l2.4-.5c.5 0 .7 0 1.4-.2.2 0 .5-.2.7-.2 1-.7.5-.5.5-.7v-1.7c1.4-1 2.4-1 2.2-2.6-.2-2.4-.5-.2-.2-3.1.2 1.2.2.7.7 1.4 1.2-1.2.7-3.1.7-6v-6c-.2 0 .7.5-.5.7.5-4.6-3.4-3.4-5.5-4.6-1.2-1-1.2-1.2-4.1-1.2-.5 0-3.4 0-3.6 1.4 0 1-.5 1-.7 1.7-1.2 1.7-.5 3.8-.2 5.5.7 5.8-.5 3.8-1.4 7.7-1-1-.2.7-.7-1.7v-10.5z"/>
  <path fill="#FFCB05" d="M201.8 396.2l.2.2c1.9 2.2.7-.2.5 2.9 0 3.4 1 7.9-1.4 8.4-.7.2-11 0-12-.5-.5-1.4-.2-4.1-.2-6 0-6.5-.5-5.8 6.7-5.8h5c1.5.6.8-.4 1.2.8zm-30-6c-.7 1.2-.2 11.5-.2 14.2v7.2c0 4.6 1.2 4.3 1.7 5.8 1.4 1 2.2 1.9 3.8 2.4-3.1-3.1-3.8-2.4-2.2-2.9 1.4-.5-.2-.5 1 .2l1.4-.5c.7-.5-.7-.2.7-.2 1.2-.2 2.2.2 2.9.2v1.2c3.1-1.4 11.5 0 14.4 0 2.2 0 2.6-.5 4.6-.5 3.6 0 6.2.5 9.6.2 1.9-.2.2-.2 1.7.2.7.2 1.7.5 2.4.5 3.1 0 1.2-1.7 2.2-1.9l-.2-.5h.5c.2.7 1.2-.2 1.4-.2 1-.7-1.4 0 .7-.2.5-.2.5-.2 1-.2-.5 1 0 1.2-1.2 1.4 0-.2 1-1.2 1.2-1.9.7-1.7.2-18 .2-20.9 0-1.4.2-2.9 0-4.1l-1-2.2c-.2 0-.5-.2-.5-.2 1.9 1.2 1 1.4 1.9 2.2 0 5 .2 4.1-.7 4.3l-.7 16.1c-1.2-1-.7-2.2-.7-5.5v-6c0-2.2.7-4.1-.5-5.8-1.4-1.7-2.2-1.2-1.4-2.2 0 .7.2 1 1.4.7 1.2-.2 1-.5 1.4-1.2-.5-1-.5-1-1.7-1.9-1.4.5-1-.5-1.4 1.4.2-.7 0-.2-.2-1 0-.2 0-1.4-.2-1.9l-1.4 1.2c-.5.2-4.3-.2-6.7-.2-4.6.2-10.1-.5-14.2 0-8.2 1-4.6-.5-8.4-.5-2.9 0-3.4 1.4-5.3.5-1-.5-1-1.7-2.4-1l-1 .5c-1.4.5-.2-.5-1.2.7-.7.5-.7 1-1 1.4-.5.9-.2 1.1-1.7 1.1z"/>
  <path fill="#233D9A" d="M506.2 454.8c-1.2 1-6 1-7.9 2.2h5c.7-.7.2-.7 3.1-1 1.7-.2 1.7-.2 2.9-.7 1.2-.5 4.6-1.4 5-1.7 1.7-.7 7.9-4.1 9.4-5.5l2.2-3.1c.2-.5.5-.5 1-1h-.2c0-.2-.2-.2-.2-.2-.5-.5-1 .2-.2-2.6l.2-2.4c1.4.5 0 .7 1.2.5.7 0 .5 0 .5-.5.2-.7.2-2.4.2-2.9 0-2.9 0-1.4.7-2.6.5-1 .2-.7.2-2.4-1.9-.7 0-2.2 0-4.3v-28.8c0-6.5-.2-3.1-.5-5-.2-1 .2-4.1.5-4.6-1-.7-1-.5-1.2-3.1 0-1.7-.2-2.2 1.7-2.6-.2-1.9-.7-1.4-1-2.4v-.2l-1.9-1.2c-.7-.5-.5 0-.7-.7-1.7-4.1-3.6-2.2-3.8-5.3-.2-1 0-.2-1.7-1l-1.4-1c-1.2-.7-2.4-1.2-3.8-1.7.5 1.7.2.5.7 1.9-2.2 1.7-.7-.5-1.9 4.6 1 .5 1.7.7 3.4.7-.7 1.2-.5 3.6-.5 5.5l1.4.7c0 4.1-.5 11.3 0 15.1.2 2.2 1 1 1.4 2.4v18.2c0 6.7-1.2 2.4-1.4 6.2-.2 4.6 0 10.1 0 14.6-1 .2-.5.2-1.4.7v8.9c0 1.4 0 1.9-.5 2.6-1.7 1.5-8.6 3.7-10.5 3.7z"/>
  <path fill="#1B449C" d="M500.2 381.8c-2.4 0-2.6 1-4.6 1.2v1.2c1.4-.2 4.8-3.1 10.1-1.4 7.9 2.2 6 8.2 6 17.3 0 3.8-1.2 6.5-4.6 7.4 0 .2.5 0-.5.7-.2 0-.5.2-.7.2-.7.2-1 .2-1.4.2l-.7.7c.5.5.2.7.5 1 1 0 .5-.2 1.4.2 1.2.2.7.5.7.5 2.2.5 4.6 2.6 4.6 4.6 1 .5.2-1 1 1.4v11.5c0 9.1-2.2 6.5-4.1 9.6 1.4.2 1.7 0 1.9.7 0 .5-.7 1-1.4 1.2.5 7-.7 3.6-1.2 6-.2 1 0 2.4-.2 3.4-.2 1.7-.5.2-1 2.2 1 .2 0-.2 1 .5-1-.2-.5-.2-1.4 0-1 .5-.7 0-1 1l3.1.2c-.2 1-.7 1-1.4 1.4 1.9 0 8.9-2.2 10.3-3.6.5-.7.5-1.2.5-2.6v-8.9c1-.5.5-.5 1.4-.7 0-4.6-.2-10.1 0-14.6.2-3.8 1.4.5 1.4-6.2v-18.2c-.5-1.4-1.2-.2-1.4-2.4-.5-3.8 0-11 0-15.1l-1.4-.7c0-1.9-.2-4.3.5-5.5-1.7 0-2.4-.2-3.4-.7 1.2-5-.2-2.9 1.9-4.6-.5-1.4-.2-.2-.7-1.9l-1.7-1.2c-1-.5.2 0-.7-.5-.7-.2-.2 0-.7-.2l-2.4-.7h-.5c-4.3-.2.7-1-6.2-1-.2 0-.7 0-1.2-.2l-1.2-.5h-1.9c.5.5-.2.2 1.2 1l3.4.7c2.4.7 3.1-.2 3.1 2.2.7 0 1.7-.2 2.4-.5 1.9-.2 1.2 0 1.4.7-1.9 1-2.4 1-4.6 1.2.2 1 .2 1 1.4 1 0 7.2.5 3.8 1.2 6l.2 4.3c1.2.2 1 .2 1.4 1.7-3.6-.9-6-2.1-9.8-1.2z"/>
  <path fill="#FEFFFE" d="M283.7 386.6c-3.1.2-.2 0-1.7 1-.7.5-1.7.5-2.9.5v3.1s-1.7 6.7-.5 10.8c.7 2.2.5 4.8.5 8.2 0 7.9-.7 15.1-.2 23l.2.2h.2l.7.7c.2 0 .2.2.2.2l.2.2 1.4-.7c.2 0 1.7-.2 1.7-.2 2.2 0 2.2 1.2 2.4 1.7 4.8 0 3.6.7 6.5-1.4 1.7-1.2 1.2-2.4 1.2-5.3v-30.2c0-5.5 1-10.1-2.2-13-1.2.2-.7 1.2-1 .5-2.2 0-4.8.5-5.5 0 1-.5 1-.5 1.9-.2 2.6.5.7.5 2.2.2 1-.2.2 0 1-.5-.7-1.4.5-.7-2.9-1.7-4.1-1-1.4.7-4.1.7-1.4 0-1.7.2-.5 1.7.5.5.7.8 1.2.5z"/>
  <path fill="#233D9A" d="M80.6 372.7c-.2 1.2-.7 1.4-1.7 2.2-.7.7-1.4 1.2-2.2 1.7-.2 2.4 1.9 1.9 0 3.6v-1.7c-2.4.2-3.1 2.2-1.2 2.6l-.5.7c-.5.7 1 .5-1 .7 0 2.6.2 4.6.5 7 0 2.2-.5 4.3-.5 7 0 12.5-.2 28.6 0 40.3 0 .7 0 1.2.2 1.7 0 .7-.2.5-.2 1.7 4.1 2.2 0 1.2 3.8 3.4-1.4 0-.7.2-1.2 1.4 1.4 0 1.2-.2 2.2-.2-.5.7-.5-1.2 0 .7s2.4 2.9 4.1 3.8l.2.2c.7.5.2 0 0 0l.2 1.2c0 1 .7.7 4.3 2.6l.2.2c2.4 1 3.1.7 4.8 1.2.7.5 1.7 1 1.9 1 1.4.5 2.9.5 3.8.7.7.2.2 0 .7.5h5.5c-1-.2-2.4-.7-3.1-.7-1.4-.2-2.4-.2-3.4-1-1.4-.2-2.6-.5-3.6-.7-1.9 0-6.5-1.9-7.7-2.9-.7-.7-1.2 0-1-3.6.2-1.4 1-2.9-1.2-3.4 0-1.4.2-9.1 0-10.3-.7-1.2-1-.2-1.4-1.9-.5-3.1.2-7.7 0-8.9 0-1.7 0-1.7-1.4-1.9v-22.1c2.4-.5 1.4-2.4 1.4-4.8-.2-8.9.7-6.2 1.4-8.4v-9.8c2.2-.7 1.4-2.9 1.4-6.2 1.2-.7 3.1-1.7 4.6-2.2 1.9-.7 4.1-.7 4.8-2.4-2.9.5-9.6 3.4-12 4.6l-2.4 1.4c-.5.8 0-.2-.3 1z"/>
  <path fill="#1B449C" d="M95.8 365.8c-.7 1.7-2.9 1.7-4.8 2.4-1.4.5-3.4 1.4-4.6 2.2 0 3.4.7 5.5-1.4 6.2v9.8c-.7 2.2-1.7-.5-1.4 8.4 0 2.4 1 4.3-1.4 4.8v22.1c1.4.2 1.4.2 1.4 1.9.2 1.2-.5 5.8 0 8.9.5 1.7.7.7 1.4 1.9.2 1.2 0 8.9 0 10.3 2.2.5 1.4 1.9 1.2 3.4-.2 3.6.2 2.9 1 3.6 1.2 1 5.8 2.9 7.7 2.9v-.2c-.2-2.2 0-.2.2-2.2-.5-.2-.7-.5-1.7-.5 0-.2.2-.2.2-.2l.2-.2c.7-1.2-1.4-.7.2-1v-4.8c-2.9 0-2.9-.7-2.6-3.8.2-2.4.7-2.2.7-2.4 0-.7.2.2 0-.5l-.7-1.2c-.2 0-.2-.2-.2-.2L95 439c1 .2 1.2 0 1.9-.2-.7-1.7 1.2.7-.2-.2v-.2h-.2c-1 0-1.4-.2-2.2-.7-1-.5-1-.5-1.4-1.4-2.9-1.4-1.7-8.4-1.7-11.8 0-2.6-.5-40.6.2-41.3 1-.5.5-.5 1.9-.5h63.1l2.6.5c1.2.7.5.2 1 .7 1.4 0 2.4.7 3.6 1.4v-.5c-1-.5-1.9-1-3.1-1.4-1.4-.5-1.7-.7-3.6-1l-.5.2c-10.8 0-21.8 0-32.6-.2-3.6 0-31.7-.7-32.4-.2l2.6.2c-.5-.7.2-1.2-2.6-1.2 0-3.6-1-5.3 2.6-5.3V371c1.9-.2 2.2.2 2.2-1.4-4.3-.2-3.8 0-3.6-1 .5-1.2 0-1 1.4-1 2.4-.2 0 0 1.4.5h1.7c2.4-1-2.6-1 1.9-1.9 1.4-.2 2.2 0 3.8-.5.7-.7.2 0 .7-.5.7-.5.5.2 1-.7H103c-1.5 1-5.3.5-7.2 1.3z"/>
  <path fill="#009BDE" d="M270.5 425.3l-1.4 1.9c-.5 2.4-2.2 3.1-3.4 4.8 2.6-.7-1.2.7 2.2.2 1.7-.2.5-.5 1.7-1l.2 1c-.5 1.4-1 0-.5 1.7 0 .2.2.7.2 1 .2 1.4.2 3.1.2 4.8 3.6 0 2.6-.2 3.4 2.9h2.9v2.4h2.9v2.9h5.8v2.9h2.6v-1h2.6c.5 1.9.2 1.2 1.4 1.4 2.4.5 1 .7 2.6 1.4 2.4 1 1.7-.7 1.9 1.4h2.9v-1.2c2.2 0 4.1.2 6.2 0 1.9 0 2.9-.2 5.3-.2.2-1 .2-.7.2-1.9 2.2 0 2.6.7 2.9-1h5.5c.2-1 .2-.7.2-1.9h5.5c0-3.6-.2-2.4 2.9-2.4v-2.9h2.9c0-4.6 1.2-1.9 2.6-3.4v.2h-8.6c-6.2 0-5.8-.7-5.8 2.4l-8.6 1c-.2 0 1.7.2-2.9.2-.2 1-.2.5-.5 1.4h-1.4l-.5.2c-1.4.5-.7.5-2.6.5-8.9 0-4.3.2-6.7-1.2-1-.5-.7-.2-1.9-.2l-.7-1.9c-3.6 0-1.9 1-3.6 1.2H288l-.2-2.2c.7-.5.5-.2 1.4-1.4-2.6 0-4.8 1-5.8-.5 0-.2-3.6-1.7-4.3-2.2-1.2-.7-2.4-1.9-2.6-3.6-.5-.5-.2-.2-.5-1.4l.2-8.6c-.2 3.4.2 1.2-.7 1.9-.7-2.6.2-30.2-.2-32.9l-1-1.9c-.5.7 0-.7-.5 1.2v3.6c-.2 1.7-.5 2.6-.5 4.8 0 6.2 1.4 19-1.4 24.2-.5 1.1.3 1.6-1.4 1.4z"/>
  <path fill="#0470B3" d="M165.8 387.8c1 6.5.2 29.3.2 38.6 0 11.5-.7 5.8-2.9 10.6 0 0 2.2.5 2.2-1.2 1.2 2.4-1.2-.5.2 2.2.2 0 2.6-2.4 2.9.2.2 2.2-1.4 1.7-1.7 1.7 0 15.1 1.2 1.7 1.2 13.4.7.2.2 0 .7.2 1.2.7.2.2 1 1v2.4h7c1-.7-1.2-.7 1.2-.7v-1.7c-1.2-.2-1-.2-1.9-.5v-2.4c-1.9-.2-.2-.2-2.2-.5 0-2.6.5-6.5-.2-8.4-1-3.1 0-3.6-.7-3.8v-.2c-3.4 0 0 .5-2.6 1.2h-.5c-2.2-.7-.5.2-1.2-1.2.2-.7-1 .2.7-.7 0-.2.2-.2.2-.2.5-.2 1.4.5 1-2.2l-.2-1h-.2s-2.2-1.4-.5-2.9c.5-.5.7-.2 1.2.2 2.2 1.7.7 5.3 4.8 5.5l-1.9-2.2c-.7-1-1.2-1.7-1.4-3.1-.2-2.2 1.2-5 3.4-5.5 1.7-.2 1.9-1.4 4.6-1.4.7-1-1.2-1.2 4.3-1 5.5 0 8.6-.5 11.5-.5-1.4-1.9-7.7-1.4-7.7-1.4l3.6-.2c1-.2.5 0 1-.5-3.6 0-8.2.2-11.8 0-1 0-4.1-.7-4.8-1-1.9-1-2.9-1.7-2.9-3.4-.5-1.4-1.7-1.2-1.7-5.8v-7.2c0-2.6-.5-13 .2-14.2.2-2.4.7-2.9 2.2-4.3 4.3-4.1 8.2-3.4 14.6-3.4 4.8 0 19.9.7 23.5 0l1.2-.2c-1-1-1-.2-2.9-.5-3.1-.7-7.2-.2-10.3-.2h-7.7c-4.1 0-10.1-.5-13.9.2 0-1 0-1.2.2-1.9l.5-1c0-.2.2-.2.2-.2.5-1.9-.5-2.9.5-5.5.2-1 .2-.2.2-1.4.5-1.7 0-1.4 1.4-2.2v-5h-3.4c0 3.6-.2 2.2-.7 3.6-.2 0-.2.2-.2.2-.2.7.2.5-.2 1.2-1 2.2 1.2-.7-.5.7-.5.5-1 .2-1.4.7 0 1 0 .7-.2 1.4-1.4 4.6.2 3.1-1 6.2-.5 1.7-.2 1 0 2.6l.2 1.2-1.9.7c1 1 .2.5 0 2.4-1-.2-2.6-1.4-3.6-1 .5.7.5 1.4.5 2.6l-1.9 1c-.5.2.2.5-1-.2l-.5.1z"/>
  <path fill="#0177C1" d="M402 383.3c2.9-.2 6.2 4.1 6.7 7 0 .7.7 11.3-.7 12.7.2 1.2 0 .5-.2.7-.5 1.9-3.4 4.3-5.3 4.3-.7.5.5 0-1.2.7 1 1 .5.2 1.7 1.2 0 0 0 .2.2.2 0-.2 0 0 .2.2 1.9 0 4.6 3.1 5 5.5l.5.7c.5 1.9.2 4.6.2 6.5 0 2.4.2 5.5-.2 7.7 0 .7-.7 2.4-1 2.9l-2.4 2.9s-1 .5-1.2.5l-2.6 1.7.2.2 2.9-.7c0 .5-.2 1.2-.2 1.2-.5 1.2-.2.2-.5 1.4-.2 2.4.5 1.4-.5 4.6-.2 1-.2 1.2-.2 2.6l-2.2.2c0 2.9-.2 1.9-.5 3.4-.7 2.4.5 1.2-1.7 2.4v2.9h5.8c1-3.8-1.2-6 3.4-6v-2.6h1.7v-2.9c1-.2.7.2.7-1.7 0-2.2.2-1.4-.7-1.9v-1.7c1.4-.2.2-.2 1.7-.7-.7-1.4-1.9-1.9-.7-3.8 2.9 1.9.5 1.7 2.6 2.9h.2c.2.2 0 .2.5.2.5.2-.7.5.5 0 .7-.2 0-1.4-.5-2.2s-1.7-1.4-.5-2.2l2.9 3.6h1.2l1.7.5c4.3 1.2 11.3.5 16.3.5 5.3 0 12.2-.7 17.3-.2l2.2-.2 2.4-1.2c-6.5 1.4-16.6.7-23.8.7-7 0-18.7 1.7-19.7-5l-.5-3.1c0-2.2.2-2.2 1.7-3.4 1.4-1.2 1.2-.5 2.4-2.2 1 0 20.6.2 21.4-.2 1-.5.5.2.7-1l-.5-.2c-.7-.2 0-.2-1.2-.2-1.7-.2-2.4.5-5.8-.5-1-.2-3.1 0-4.3-.2-2.9 0-9.4.2-12.2-2.4-.2 0-1.2.5-2.2.5l.2-2.4c-1-.2-.7-.2-1.7-.5l-.2-7.7c0-5.8-.2-17.3.2-22.6.2-.2.5-.2.7-.2 1.4-1 .2-.2 1-.7-.2-1.7.5-.2-.7-1.7-1.4-1 0-.5-1.7-.7-.7 1.2-.5 1.4-1.4 2.2-.2-1.7.2-2.4 1-3.4-.7-2.2 1 1.2-.2-.5-1-1.2-.7-1-.7-2.4 1.7-1 .2-3.1 0-4.6-.2-.5 0-1.4 0-2.2h-2.9v-2.4c-1.7 0-1.9-.2-1.9-1.7v-4.1h-7v2.6c2.2.5 1 1 1.7 2.4 1.2 1.9 1.2-.7 1.2 3.1l2.2.5c0 4.6.2 1.4.7 4.1v4.1c-.5 1.9-.5-.2-.7 1.7l-1.5.3z"/>
  <path fill="#0351A4" d="M107 438.2c-.7.7-.2.7-1.4.7.7 1 1.7 1 3.4 1l.2 12.7c.2 1.4.7.7.7 3.4l2.2 1h12.2v-5.3c-1.4-.7-2.6 1.7-2.9-5.5 0-2.6-.2-5.8.5-7.9-.2-.7.7-.2-.5-.7-1-1-.5 0-1.4-1.2-1.7-2.2-1.7-3.8-1.7-6.7.2-5.3.5-30-.2-31.9-.7-.2-5.5-.5-7.4 0-1.7 4.1 1.2 31.9-1 37.2-.5.8-1.7 2.8-2.7 3.2z"/>
  <path fill="#015EAC" d="M462.2 389.5c.2 5 0 10.8 0 16.1 0 5 1 10.6-2.6 12.5-.2 1-.2 1.2-2.4 2.2-3.4 1.9-8.6 1.2-12.5 1.4-.2 1-.2-.5.2.5l.2.2h-5.3c1 .7-.2.7 3.4.7 2.2 0 1.2 0 1.9 1.2 1.4-.2 10.6-.2 12 .2 1.2.7.7-.2 1 1.2.2.5 1.7 1.2 2.6 2.4 4.3 5-2.6 8.9-3.1 9.1l-2.4 1.2 2.6.2-.5 2.2c-1 2.2.5 1.2-1.4 1.4v8.6c-3.4.7.2 2.9-2.9 3.1v2.9h7.9v-2.4l1.9-1.2.5-7.9c.2-.2.5.2.5-2.9 1.2-.5 1.7-.2 2.4-2.6v-1.7c-.2-.7-.2-.5-.2-1.9l.5 1c.2 1 .2.7.7 1.4 1 1.4 1.7 1.7 3.1 1 0 0-.2-.5-.2-.2 0 0 .7 0-1.2-1.4-.7-.5-.2-.7-1.2-1.7 1.2 1 .2 1 1.9.7-.7-1.4-1.4-1.4-2.2-3.4-1-1-.5-8.4-.5-10.6 0-3.1-.5-7.4 1.4-8.9 1.2-3.4 4.6-3.8 8.2-4.8-1.9-1-8.2-1.7-9.4-7-.5-2.9-.7-13.7.7-15.6.5-2.4-.7-1.2.7-2.6l-.2-1.7c-1.7.5-1.4 1.2-2.6 1.9.2-2.4 1-.7 1-2.2-1.9-.2-2.9 1.9-3.4 3.4-.5 1.9-.2 3.8-.2 6.2 0 0 .5.2.2-1-.6-1.9-.1-.5-1.1-1.2z"/>
  <path fill="#0096DB" d="M265.2 382.6c1 0 2.6 1.2 4.1 1.4 0-.7 1.2-1.9 2.2-2.4.2-.2.7-.2 1.2-.2 2.4 0 1.4 1 1.9 1.4.7-1 .5-.2 1-1.7.2-.7 0-1.4 0-2.4h2.9v-2.9h2.2c1.9-.2-.2-1 3.6-1l1-2.6v-.2c5 0 0 1 4.3 1 .2-.5.5-1 .5-1.7 3.8 0 3.6-1.4 6.7-2.2h8.6c3.1 0 1.2 0 2.4.7 1 .5 1.2.2 2.4.2l.7 1.9c4.3 0 1.2 1.2 3.8 1.2 2.2 0 .5-.2 1.7-1 1-.5 1.2-.2 2.6-.2 0 1.4.2 1.9.2 3.8 2.2 0 3.4.5 5.8.5v2.4c1.2-.5 1.2-.2 2.9-.2 0 1.2 0 2.2.2 3.1 2.6 0 5.8-.5 8.4.2.7-.2 1.7-.5 2.9-.5v-2.9h-2.9v-2.9h-2.9v-2.9h-2.9v-2.9c-7 0-5.8 1-5.8-2.4h-5.5c0-1-.2-1-.2-1.9h-2.9v-1h-31.9v2.4c-2.4 0-3.6.5-5.8.5v2.4c-2.4 0-3.6.5-5.8.5v2.4c-1.2.2-1.4.5-2.9.5v2.9H267c0 3.1.2 2.9-2.9 2.9.1 2.6.6 2.1 1.1 3.8zm.5 49.4c-.5.2-.2.2-.5.5-.2.2-.7.5-1 .7-.7.7-.5.7-1.9 1.2-.2.2-.5.7-1.2 1-1.2 1-.7.5-1.4 1.7 1.4.2 1.2-.2 1.4-.2.5 0-.5.2 1.4.5 2.2.2 1.4-1 3.4-1.7l-.5 3.4c-.5-1.2-2.4-1.4-2.9-.7-.7 1-.5-.7-.7 1.9l2.4.2v1.9c3.1 0 2.9-.2 2.9 2.9h2.9v2.9c1.4 0 1.7.2 2.9.5v2.4c2.2 0 2.6-.7 2.9 1.2h2.9l.5 1.7c2.2 0 2.2-.5 2.4 1.2h2.9l.5 1.7 2.4.2h27.8c-.5-.5 0-.2-.5-.5-.5-.2 0-.2-1-.2v-.5c2.4 0 2.2-.7 2.4 1h3.1v-2.4c2.2 0 3.4-.5 5.8-.5v-2.4h5.8v-2.9h2.9v-2.9h2.9v-2.9h2.9c0-2.2.2-2.2 0-3.1-.7-1.2-4.8-.7-6.2-.5-1.4 1.4-2.6-1.2-2.6 3.4h-2.9v2.9c-3.1 0-2.9-1.2-2.9 2.4h-5.5c0 1.2 0 1-.2 1.9h-5.5c-.2 1.7-.7 1-2.9 1 0 1.2 0 1-.2 1.9-2.4 0-3.4.2-5.3.2-2.2.2-4.1 0-6.2 0v1.2h-2.9c-.2-2.2.5-.5-1.9-1.4-1.7-.7-.2-1-2.6-1.4-1.2-.2-1 .5-1.4-1.4h-2.6v1h-2.6v-2.9h-5.8V445H276v-2.4h-2.9c-.7-3.1.2-2.9-3.4-2.9 0-1.7 0-3.4-.2-4.8 0-.2-.2-.7-.2-1-.5-1.7 0-.2.5-1.7l-.2-1c-1.2.5 0 .7-1.7 1-3.4.5.4-.9-2.2-.2z"/>
  <path fill="#12A4DF" d="M269.5 385c1.9 3.6 2.6 0 2.6 8.9l-.2 26.9c-.2 1.7-1 2.9-1.4 4.6 1.7.2 1-.2 1.4-1.2 2.9-5.3 1.4-18 1.4-24.2 0-2.2.2-3.1.5-4.8v-3.6c.5-1.9 0-.5.5-1.2l1 1.9c.5 2.6-.5 30.2.2 32.9 1-.7.5 1.4.7-1.9l-.2 8.6c.2 1.2 0 1 .5 1.4-.2-13.4 0-28.6 0-42.2 0-3.8.5-4.6 2.6-6.2 3.8-3.4 9.6-2.9 13-.5 3.8 3.1 2.6 7.9 2.6 14.4 0 6.7.2 29.3 0 33.8-.5 4.8-6.2 6.5-11.3 6.5 1 1.4 3.1.5 5.8.5-1 1.2-.7 1-1.4 1.4l.2 2.2h1.2c1.7-.2 0-1.2 3.6-1.2l.7 1.9c1.2 0 1-.2 1.9.2 2.4 1.4-2.2 1.2 6.7 1.2 1.9 0 1.2 0 2.6-.5l.5-.2h1.4c.2-1 .2-.5.5-1.4 4.6 0 2.6-.2 2.9-.2l8.6-1c0-3.1-.5-2.4 5.8-2.4H342c2.9 0 .5 0 1.4-1-4.6.2-33.8.7-36.5 0-.7-4.6.7-19-.5-21.4-.7-.7-5.5-.2-7.2-3.6-1.9-1.4-3.1-7.4 3.4-9.8l1.7-1.2-.5-.2c-1.4 0-2.6.7-3.6 1.4-1.2.7-1.7 1.2-2.2 2.2-2.9 4.1-1 9.1 4.3 11 3.8 1.2 3.6-.2 3.6 4.6v12.2c-1.4-.7-.7-.7-1-1.2-.2-1 .5.2-.5-1 0 0 .2.5-.7.7-.5.2-.2-.2-.2.5.5 1.2.2 2.6 0 3.8.5-1-.2-1.2 1.4-2.6 1 1.4.5 3.4.7 5.8 1.2 0-.7-1 .7-.2 1.2.5 1 .7 1 2.2-.2 0-2.2.7-2.4 0 2.4 0 2.4-.5 2.4 2.2-.7.2-1 .5-2.2.2-2.4-.7 1.9-1-6-1-1-1.2-.7 1.4-.7-1.4-.5.2.2.2-1.2.2s-.5 0-1.4-.2c-.2-1-.2 0-.2-1.4 0-1.9 0 .5.2-1.2-.7 0 0 0-.2.2l-.5.5c-.5.7-.5.7-1.4.7-1.9 0-.2 0-1.4-.2.2-4.8-.2.5 2.4-3.8 0 0 0-.2.2-.2l.2-.5c1-1.2 0 1 .2-.7.2-.7.5-2.2.5-3.1v-42.5c-.2-3.6-.5-2.6-1.2-4.3-1-1.9 0-.7-1.2-1.4-1-.7-.5.2-1-1-.5-1.9 0 1.2 0-.7l.2-.7c.2 0-.5-.2 1-.2 1 0 .7 0 1.4.5l.5.5c.5.5-.7.2.2.5-.2-1.7-.5-1.2 0-2.6 1.2-.5 7.2-.5 8.6 0h.2s0 .2.2.2h.2c.7.2 1.2.2 1.9.2l-.5 1.2h9.1v-2.2c-5.3 0-3.8.5-5.8-.7-.2 0 1.7-.2-2.9-.2-.2-1-.2-.5-.5-1.4h-10.1l-.7 1.4c-1.2 0-3.1-.2-4.3 0-1.4 0-.7 0-1.2.2-2.2 1.4-1 .7-8.4.7-.5 4.3-1.2.5-1.4 3.6-.5 0-1-.2-1.2-.5H277c-.7-.2-.2-.7-.7-.2-.2.2.5-1 0 .2 0 0 0 .2-.2.2 2.6.2.7-.5 1.4 1.2-1 1.7-1 .5-1.9 2.2l-1 1.9-3.6-2.2c-.5-1.3 0-1-1.5-1z"/>
  <path fill="#015EAC" d="M138 433.7c-1.2 2.4-2.6 4.1-6 5-1-.2-2.6.2-3.8 0-1.4 0-2.4-.2-3.6-.2l-3.1-1c1.2.5.2 0 .5.7 1.9.2 1.2.5 2.9 1h.2l2.6.5c1.7 0 1.9 0 3.4-.2.5 0 1.9-.5 2.9 0 1.7.5.5 1.7.7 5.3l-.5 1c-.2.7-.2 1-.2 1.9h1v-2.2h1.2c0 1 .2 1.2-.2 2.2l-.2.5c-.5.7-.7-.5-.2.2v7.9c.7 0 .2-.2 1 .2.5.2.2.2.5.5H151l-.7-2.9c-.2 0-.5 0-1-.2 0 0-.2-.2-.5-.2-.7-.5-.2-.2-.7-.5 0-3.6.2-1.7.7-2.6 1.2-2.2-.2-1.9-.7-3.1-.2-.7 0-1-.2-1.7-.5-1.4-.5-.5-.5-3.1-1-.2-1.2-.2-2.2-.5 0-1.9-.2-4.1-.2-5.5v-2.2c-.2-.7.5-4.6.2-5.8-.7-1.9-.7 1.7-1.2-2.2-.2-2.2.7-2.6-.2-4.1-1.4-2.2-.7-8.6-.7-13v-6c0-6.2 0-2.4-.2-5-1.2 0-2.2.2-3.1-.5 1.7-.5 2.4 0 3.6-.2 1.9-.2 1.9 0 3.8.2-.5-1.4.2-.7-3.8-.7-1.9 0-3.4 0-5-.2 1.4 3.8.7 26.2.7 32.4-.1 2.4.1 2.4-1.1 4.3z"/>
  <path fill="#FEFFFE" d="M413.8 429.8l.5 3.1c1 .5 1 0 1.9 1.9l.7-.2c1-.2-.5-.5 1 0 0 1.4 0 1.2.2 1.9 1.2 0 1.9 0 2.6.2l.7-.7c3.4.5 8.2.7 11.5.5 1.9-.2 1.4-.7 3.1-.7 5.5-.5 10.3.2 15.6.2v-.5c0-.2 0-1 .7-1.2.5 0 2.6.2 3.8.2.5-.7.2 0 .7-1l.2-1.7c0-1 .2-.5-.2-.2 1 .7 0 1.4 1.4 2.2 1.4-.7 1.2.5 1.2-2.2 0 0 .2.2.5.2 1.2 0 0 0 1-.2-.5-2.6-.7-2.9-2.4-4.1-.2 0-.5-.2-.5-.2 0-.2-.2-.2-.2-.2v-.1l-1-.5s-1.7-.5-2.2-.5c-4.3-1-29 .7-34.6-.5-1.2-.2-2.9.5-3.8 1.2-.5.5-1.2 1.2-1.4 1.7-.6 1 .2.7-1 1.4z"/>
  <path fill="#293798" d="M74.4 444l.5.5c1.2 1.4 5.5 5 7.2 6 0 0 .5.2.7.2.2 0-.7.2.7 0l-.2-1.2c.2 0 .7.5 0 0l-.2-.2c-1.7-1-3.6-1.9-4.1-3.8-.5-1.9-.5 0 0-.7-1 0-.7.2-2.2.2.5-1.2-.2-1.4 1.2-1.4-3.8-2.2.2-1.2-3.8-3.4 0-1.2.2-1 .2-1.7-.2-.5-.2-1-.2-1.7-.2-11.8 0-27.8 0-40.3 0-2.6.5-4.8.5-7-.2-2.4-.5-4.3-.5-7 1.9-.2.5 0 1-.7l.5-.7c-1.9-.5-1.2-2.4 1.2-2.6v1.7c1.9-1.7-.2-1.2 0-3.6-1 1-8.6 8.4-8.2 11 .7 1.9-.7-.5.7.7l-2.2-.2v1.2c.2.2.2.7.2 1 0 .2.5 0-.5.2 0 2.2.2 4.8 0 6.7 0 1.7 0 .7-.5 1.7l-.2.7c-.5 1.2 0 2.2 0 2.9.5 3.1-.5 3.8-.5 5.5 0 4.6.7 6 .7 7.9v5.8c.5 1.9.5.2.5 2.6l.2 7.2c-.2.7-.2 1 .5 1.4.7.7 0-.2 1 .5.7-.2 0 0 0 .2 0 1.4 2.2 5 3.1 6.5 1.5 2.7 2.2 2 2.7 3.9z"/>
  <path fill="#FCFDFE" d="M468 386.9c-1.4 1.9-1.2 12.7-.7 15.6 1.2 5.3 7.4 6 9.4 7-3.6 1-7 1.4-8.2 4.8 2.2 0 .5-1.9 6-3.1 2.6-.7 6.2 0 5.5-3.1-1.2-.5-.7 0-1.4 0-2.6 0-1.2 0-1.7-.7l1-.2h.7c1 0 1 0 1.2-1-1.9-.7-1.2.2-4.1.2.2-2.4-.5-.5 1.4-1.7l.5-.2c1.2-.5-.2-1 1.9-.5 1 .2 1 .5 1.2 1 1.7-.2 1.2-3.4 1.2-5 1-.2.5.2 1.7-.5 2.9-1.7-1.9.7.7-.5 0 .5.2 2.4-.5 2.6 1.9.2 1.7 1 4.3 1 1.7-.2 3.1-.2 4.8-.2.5-.5.5 0 .7-1.2l-6.2.2c-2.4 0-2.2-.7-2.2-3.4v-9.8c0-.7-.5-1.7-1-2.4-.2-.5-.5-.5-.7-1-.7-.7-.2 0-.7-1-1.2 0-2.2-1-3.8-1.2-1.4-.5-3.4-.5-5-.2-2.9.6-5 2.1-6 4.5z"/>
  <path fill="#009BDE" d="M265.2 382.6c-1.9-.5-5-.7-6.5 1.2 2.2-.5 3.6-.7 6.2-.5 2.2.2 3.4 1.7 4.6 1.7 1.4 0 1-.2 1.9.7l3.6 2.2 1-1.9c1-1.7 1-.5 1.9-2.2-.7-1.7 1.2-1-1.4-1.2.2 0 .2-.2.2-.2.5-1.2-.2 0 0-.2.5-.5 0 0 .7.2h1.9c.2.2.7.5 1.2.5.2-3.1 1 .7 1.4-3.6 7.4 0 6.2.7 8.4-.7.5-.2-.2-.2 1.2-.2 1.2-.2 3.1 0 4.3 0l.7-1.4h10.1c.2 1 .2.5.5 1.4 4.6 0 2.6.2 2.9.2 1.9 1.2.5.7 5.8.7v2.2h-9.1l.2 1h33.8c-1-.5-2.9-.2-4.3-.5-2.6-.7-5.8-.2-8.4-.2-.2-1-.2-1.9-.2-3.1-1.7 0-1.7-.2-2.9.2v-2.4c-2.4 0-3.6-.5-5.8-.5 0-1.9-.2-2.4-.2-3.8-1.4 0-1.7-.2-2.6.2-1.2.7.5 1-1.7 1-2.6 0 .5-1.2-3.8-1.2l-.7-1.9c-1.2 0-1.4.2-2.4-.2-1.2-.7.7-.7-2.4-.7h-8.6c-3.1.7-2.9 2.2-6.7 2.2 0 .7-.2 1.2-.5 1.7-4.3 0 .7-1-4.3-1v.2l-1 2.6c-3.8 0-1.7.7-3.6 1h-2.2v2.9h-2.9c0 1 .2 1.7 0 2.4-.5 1.4-.2.7-1 1.7-.5-.5.5-1.4-1.9-1.4-.5 0-1 0-1.2.2-1 .5-2.2 1.7-2.2 2.4-1.4-.5-3-1.7-4-1.7z"/>
  <path fill="#0090D5" d="M350.6 435.4c.7.2.7 1.7.7 2.2-4.8 2.2-3.6 1-4.3 1.2-.2 1-.5-.2.5 1l.5.7c-.5.5-.2-.2-.5.7v1.7h-2.4v2.9h-2.9v2.9h-2.9v2.9h-2.9v2.9h-2.9v2.6h13.2l1-.2v-2.4h2.9v-2.9c3.1 0 3.1.2 2.9-3.1 0-3.4-.2-3.1 2.9-3.1v-2.9h2.6c0-4.1 1.9-2.9 13.2-2.9h1.7c7-.7 18.7.2 25-.7.5 0 1 0 1.4-.2l1.4.2 2.6-1.7c.2 0 1.2-.5 1.2-.5l2.4-2.9c.2-.5 1-2.2 1-2.9.5-2.2.2-5.3.2-7.7 0-1.9.2-4.6-.2-6.5l-.5-.7c.2 4.6 1 14.6-1 17.5-2.6 4.3-6 5-12.2 5-5 0-33.1.7-35.3-.2-1.2-2.2 0-17.8-.5-21.8h-3.8c-.2 1.4-.5 1 1 1.2v1.4c-2.4.5 0 0-1.9 3.4-.5 1-.2 1-.2 2.4l-1.2-.7h-.3s-.2 0-.2-.2h-.7c-1.7-.7 0-1.2-1.4-1 .7 0-.5-1 .2.2l1.4 2.6c2.2 5 .2 2.2 0 4.3 0 1 .5 1.7.5 2.4.2 1.4-.2 1-.2 3.1-1-.2-1.2-.2-1.9-.7v.5z"/>
  <path fill="#FEFFFE" d="M175.2 428.6l-1.2 4.1c0 1 .2.7.5 1.7.2.2 1.7.5 2.4.5-1 .2-1 .2-.5 1.4 2.9.5 1.4 0 3.4-.5 1.7-.2 0 0 1.2.2 1.2.5 1.2.5 2.4.5 7.4 0 10.6-.5 17.8.5l6.5-.2c3.1 0 1.4.5 2.2-1-.5-1 .2-1.2-3.4-1.2H182c4.3-.7 9.1.2 13 .5 4.8 0 9.8-.2 14.4-.2.2-.2-.2-.2 1 .7l.7.5c.5-.5 0 0 0 0-.2 0-.2.2-.2.2v.2l-.2 1c2.9 0 5-.5 6.7-1.7 0-1.4 0 0-.5-1.2l-.2-1s0-.2-.2-.5c-.2-1-.7-2.4.5-2.4v2.6c1.7-.5 1.2 1 2.4-3.6-.2-.2-.7-.2-.7-.2-1.2-.2-.5-.5-1.4-1.2-.7-.7-.5-.5-1.2-1-1.2-.7.5-1-5.3-1l-.2.2v.2l-10.3.7c-2.2-.2-.5-.7-3.1-.5H195l-3.4.2c-.5.2-9.1.5-10.1 0l-1.2-1c-2.7.6-3.7 1.8-5.1 2.5z"/>
  <path fill="#F9FDFD" d="M92.9 436.1c.2-2.2 0-.5-.5-2.2-.5-1.2-.2-44.2-.2-45.8 1.2 1 .7 33.8.7 38.6 0-3.1-.5-31.9.2-34.1.7-1.9.5-2.4.5-4.6l8.4-.5c6 0 53.5.2 55-.2 1.7-.5 1.9-.7 2.4-1.4 0 0 1.2.2.2 0h-.5c.5-2.9 1-2.2 1-2.2-.5-.5.2 0-1-.7l-2.6-.5H93.4c-1.4 0-1 0-1.9.5-.7.7-.2 38.6-.2 41.3-.1 3.4-1.3 10.3 1.6 11.8z"/>
  <path fill="#293798" d="M523.7 448.1c1-.5 1.7-.7 2.6-1.7 1-.7 1.7-1.7 2.4-2.4 1.2-1.4 4.3-3.6 4.3-5.8-.2-1.9 2.2-3.4 2.6-6.7-1-.7-.7-1.2-1.2-1.4l-.2.2c.5-.2.7-.2 1.2-.7l-1-2.4c1.4 1 1.4-.5 1.4-.5l.5-18.7c0-2.4-.5-3.4-.5-5.5 0-7.4 1.2-7.2-2.2-10.8-1.4-1.7 0-2.6-2.4-4.3-1.7-1.2-1-1.2-1-4.3.5-.5.2-.2.5-1v-.2l-.2-.2s0-.2-.2-.2c-1.2-1.9-.5-1.2-1.7-1.7v.2c.2 1 .7.5 1 2.4-1.9.5-1.7 1-1.7 2.6.2 2.6.2 2.4 1.2 3.1-.2.5-.7 3.6-.5 4.6.2 1.9.5-1.4.5 5v28.8c0 2.2-1.9 3.6 0 4.3 0 1.7.2 1.4-.2 2.4-.7 1.2-.7-.2-.7 2.6 0 .5 0 2.2-.2 2.9 0 .5.2.5-.5.5-1.2.2.2 0-1.2-.5l-.2 2.4c-.7 2.9-.2 2.2.2 2.6 0 0 .2 0 .2.2h.2c-.5.5-.7.5-1 1l-2 3.2z"/>
  <path fill="#0294D4" d="M346.8 382.6c-1.2-.7-.7-1-1.7-.7l-2.6.5s.2 0 .2.2l1.2.7c1 .7.5-.2 1 1 3.4 2.2 4.1 5.5 1.9 8.9l-.7 1c-.2 1.4.5.7-1.2 1.7-.5.2-.7.2-1.2.5 1.2 0 .7 0 1.4-.2l1.2-.7 1 1.4s.2 0 .2.2l1 .7c1.7 1.9 1.7 1.4.7 2.6-1 1-1 .2-1.4 1.7.7 2.2.7.7 3.1 1.7 0 1.4-.5 1.9-1 2.9-1 1.9-.2 4.1-.2 5-.2 1.9-.5.5-.7 2.4 0 .7 1 5.5-1.2 7.7l-1 .5c.7.2.7 0 2.2-.2.5 1 1.4 2.4.5 3.4-1.7 1-1.4-.2-1.9-.5-1.2-1 .7 0-1-.5-4.3-1.4 1.2-.5-6.5-.7-1.2.5-11 .5-13.4.7h15.6c1.7.2 1.4.7 1.7 1 1.7 0 3.4 1.4 4.1 2.2 1.4 1.4 1.9 2.9 1.7 5.5l-.5 1.7c-.5 1.2-.5 1-1.2 1.7-.5.2-.5.5-1 .7-.7.5-.2 0-.7.7l1.4.2c.5-.5.5-.7 1.2-1.4.7-.5.7-.7 1.7-1.2v-.5c.7.5 1 .5 1.9.7 0-2.2.5-1.7.2-3.1 0-.7-.5-1.4-.5-2.4.2-2.2 2.2.7 0-4.3l-1.4-2.6c-.7-1.2.5-.2-.2-.2 1.4-.2-.2.2 1.4 1h.7c0 .2.2.2.2.2h.2l1.2.7c0-1.4-.2-1.4.2-2.4 1.9-3.4-.5-2.9 1.9-3.4v-1.4c-1.4-.2-1.2.2-1-1.2h1.2l-1.2-1.2c-2.4.2-4.6-2.6-5-4.6-.5-1.4-.2-2.9.5-3.8.7-1.4 1.2-1.9 2.4-2.2 1.2-2.4 4.6-1.7 5.5-2.4 1.4-1.2 0-15.1.7-19.4 2.6-.5 37.9-.5 41.8 0l-2.4-.7h-17l-7-.2h-6.5c.5-1 .7-1.2.7-2.6l-1.2-.2c-.7-.2-.2 0-1-.2l-.7-.5c0-3.6.2-1.7 1-2.6.2-.7.2-1 .2-2.2H365c.5 1.2 0 .7.2 1.4.5 1.9.7.2 1.2 2.6v1.2c2.4.5 3.1-.2 2.9 1.7-.7 1.4.2.5-1.2 1-1.4.7-7.9.2-9.4-.2V379h-2.4v-2.9c-3.4 0-3.1.2-2.9-3.1 0-3.1 0-2.9-2.9-2.9v-2.9H348v5.3h2.9v2.9h1.4c1.2.2 1.2.5 1.4 1.2v1c.2.5 0 1 0 1.4 0 1.2.2 1.7.5 2.6h2.9c0 1.9-.2 1.7.5 3.1 1.2 1.7 1 5.3 1 7.7 0 9.8-.2 8.6-3.6 7.4l.2.2.7 1c.2.2 0-.5.5.7l1.7-.5c-2.4-.2 1.2.7-3.4.7v-1.2c-.2-.7-.7-.7-.2-.2.7-1.2 1.2-.2 3.1-1.4-1.2-1.4-1.4.2-2.6-.5-1-.5-1.2-3.6-1.2-4.8-3.6-.7-3.1-.2-3.1-1.4-.2-.7.5-3.8.5-4.6 1.4-.5.5-.5 1.9 0l-2.2-.5v-2.9h-1.7c-3.1-.5.2 0-1.4-1.4l-.7-.5h-.3z"/>
  <path fill="#F4FBFE" d="M355.7 415.2l1.2 1.2h2.6c.5 4.1-.7 19.7.5 21.8 2.2 1 30.2.2 35.3.2 6.2 0 9.6-.7 12.2-5 1.9-2.9 1.2-13 1-17.5-.5-2.4-3.1-5.5-5-5.5-1-.2-1.7-.2-2.4-.5-1.4-.7-.7-.2-1.4-1.2 1-.7 1.7-.7 2.9-.7 1.9 0 4.8-2.4 5.3-4.3l-.5.2h-.4l-2.2 1.9c-1.7 1.7-2.9 1.9-5 1 0 .2-.2.5-.2.7l-2.4 1c1 .7 1.2 1.7 2.4 1.7 1.4.5 1.4 0 3.1.7.5 1.9 0 1 0 2.2 1 0 3.4 0 3.4 1.9.2 1.4.2 0-.2 1 .5.2 1.2.5 1.7.5v6.5c0 2.9.5 4.3-.7 5.8 0-1.4.5-10.6-.5-10.8v5.3c0 2.4.2 4.1.5 5.8-.2.2-1 1-1.4 2.2-.2 1.2-.2 2.4-1.7 2.9-1 .2-.2-.5-3.8 0-2.6.2-21.6 0-24.2-.2-2.2-.5-3.8 0-5.5.2-1.9.2-4.6 0-6.5 0-.2-4.6.5-13.9-.5-17.3v.2h-.2c-1 .2-1 0-1.2 0-1-.5-.7-1-1.7-1.2-1.4-.7-3.6-.9-4.5-.7z"/>
  <path fill="#0062AF" d="M138 433.7c1.2-1.9 1-1.9 1-4.3 0-6.2.7-28.6-.7-32.4 1.7.2 3.1.2 5 .2 4.1 0 3.4-.7 3.8.7-1.9-.2-1.9-.5-3.8-.2-1.2.2-1.9-.2-3.6.2 1 .7 1.9.5 3.1.5.2 2.6.2-1.2.2 5v6c0 4.3-.7 10.8.7 13 1 1.4 0 1.9.2 4.1.5 3.8.5.2 1.2 2.2.2 1.2-.5 5-.2 5.8v2.2c0 1.4.2 3.6.2 5.5 1 .2 1.2.2 2.2.5 0 2.6 0 1.7.5 3.1.2.7 0 1 .2 1.7.5 1.2 1.9 1 .7 3.1-.5 1-.7-1-.7 2.6.5.2 0 0 .7.5.2 0 .5.2.5.2.5.2.7.2 1 .2l.7 2.9h7l-.5-5.5c-1.7-.5-2.9-.7-5-.7V446c0-5 0-3.4.7-3.8v-1.9c-2.2 0-1.4.5-2.2-.7 1.2-1.4.7-1.2 2.4-1-1.7-.7-4.1-1.7-4.3-3.4-1-.7-.5 0-1-1-.2-.5-.2-.5 0-1-.5-.7-.5 0-.7-1.4-.5-1.7.5-30 0-34.6-1.4-.7-7.4-.5-9.1-.2l-.2 36.7z"/>
  <path fill="#007FC7" d="M175.4 437.5c1 .5 1 .5 2.2 1 .7.2 1.4.5 1.9.5l.7.2c1.7 0 .5-.2 2.2-.2h2.2l12.5.5h16.3c-.5-.5.2-.5-1-.2l-.2.2h-1.4c-2.9-.7-2.6.7-6 .7v4.6c1.2.2 2.9.5 3.8.7 0 1.2 0 1.9.7 2.6.5.2.2 0 .7.2 0 1.9-.2 2.4-.2 4.1 0 1.4.2 1.9.2 3.8 1 0 1.2.2 1.9.2l1.7.5h13.2c0-2.4-.2-3.4-.2-5.5-2.6-.2-3.1-1.2-5-1.2 0-3.1-.2-5.5-.7-8.2-1.4-6.5-1.4-1.2-2.9-5.5 3.1-1.2 2.4-1.9 3.1-6.2l-.7-.2c1.7 5.8-3.8 8.4-8.9 8.4H194c-6.5 0-19.4 1.9-21.1-5.5-.7-3.8 1.9-4.8 2.6-6.2-2.2.5-3.6 3.4-3.4 5.5.2 1.4.7 2.2 1.4 3.1l1.9 2.1z"/>
  <path fill="#0093D9" d="M248.6 384.7v2.2c2.2-.2.5-.2 2.2 0l1-2.6c1.2.5.5 2.4.2 3.6 1.4-.5 1.2-.7 1.4-1.7.7-1.4.2-1.2 2.4-1.4.7 0 1.9-.7 2.9-1 1.4-1.9 4.6-1.7 6.5-1.2-.5-1.7-1-1.2-1-3.6 3.1 0 2.9.2 2.9-2.9h2.9v-2.9c1.4 0 1.7-.2 2.9-.5v-2.4c2.2 0 3.4-.5 5.8-.5v-2.4c2.2 0 3.4-.5 5.8-.5v-2.4h-20.2v2.9h-2.9v2.9h-2.9v2.9h-2.9v2.9h-2.9v2.9h-2.9c0 3.3 1.2 4-1.2 5.7z"/>
  <path fill="#0173BC" d="M415.9 419.5l.5-.7c-1.2-.5-2.2-1.9-2.9-3.1-1.2-2.6-.7-14.4-.7-17.8 0-3.1-.7-8.6 1.2-11 2.9-3.4 3.1-2.6 7.4-4.6.2-.5-.2-.5.7-.2.2-.5-.7-.7 1.4-.5 0-4.8.5-2.6-.5-6-.2 0-.2-.2-.2-.2-.5-2.4.5-.7-1-2.4-.7-1-.5-.5-.5-2.6-1-.2-1-.2-1.9-.2v-5.5h-14.2v4.1c0 1.4.2 1.7 1.9 1.7v2.4h2.9c0 .7-.2 1.7 0 2.2.2 1.4 1.7 3.6 0 4.6 0 1.4-.2 1.2.7 2.4 1.2 1.7-.5-1.7.2.5-.7 1-1.2 1.7-1 3.4 1-.7.7-1 1.4-2.2 1.7.2.2-.2 1.7.7 1.2 1.4.5 0 .7 1.7-.7.5.5-.2-1 .7-.2 0-.5 0-.7.2-.5 5.3-.2 16.8-.2 22.6l.2 7.7c1 .2.7.2 1.7.5l-.2 2.4c1.2-.3 2.2-.8 2.4-.8z"/>
  <path fill="#0090D5" d="M346.8 382.6h.2l.7.5c1.7 1.4-1.7 1 1.4 1.4h1.7v2.9l2.2.5c-1.4-.5-.5-.5-1.9 0 0 .7-.7 3.8-.5 4.6 0 1.2-.5.7 3.1 1.4 0 1.2.2 4.3 1.2 4.8 1.2.7 1.4-1 2.6.5-1.9 1.2-2.4.2-3.1 1.4-.5-.5 0-.5.2.2v1.2c4.6 0 1-1 3.4-.7l-1.7.5c-.5-1.2-.2-.5-.5-.7l-.7-1-.2-.2c3.4 1.2 3.6 2.4 3.6-7.4 0-2.4.2-6-1-7.7-.7-1.4-.5-1.2-.5-3.1h-2.9c-.2-1-.5-1.4-.5-2.6 0-.5.2-1 0-1.4v-1c-.2-.7-.2-1-1.4-1.2h-1.4v-2.9H348v-5.3l-.2-2.6h-14.2v2.4h2.9v2.9h2.9v2.9h2.9v2.9h2.9v2.9c1.9 0 1.7 0 2.4.5-.1 2.6-.1 1.4-.8 3.4z"/>
  <path fill="#333C90" d="M528.7 379.7c1.2.5.5-.2 1.7 1.7.2 0 .2.2.2.2l.2.2v.2c-.2.7 0 .5-.5 1 0 3.1-.7 3.1 1 4.3 2.4 1.7 1 2.6 2.4 4.3 3.4 3.6 2.2 3.4 2.2 10.8 0 2.2.5 3.1.5 5.5l-.5 18.7s0 1.4-1.4.5l1 2.4c-.5.5-.7.5-1.2.7l.2-.2c.5.2.2.7 1.2 1.4-.5 3.4-2.9 4.8-2.6 6.7 1.7-.5 1.7-1 2.9-2.9v-.2l1.2-1.9c.2-1 .2-.5.7-1.4l4.8-12.7v-16.6c-.7-.7-.7-1.2-1-2.2-1.9-7-4.1-12-7.9-17l-.2-.2-7.7-8.2h-.2l-.5-.2c-1.4-1-1.4-1.7-2.9-2.2.2 3.1 2.2 1.2 3.8 5.3.2.7 0 .2.7.7l1.9 1.3z"/>
  <path fill="#0351A4" d="M485.8 433.2c-1 2.2-1.2 2.2-2.2 3.6-.5 1.4-.5 1-1.7 1.4l-1.4.5c1.7 1.2-.5.5 1.9 1-.5 1.2-.5 4.6-.7 6-.5 3.4.7 4.6-1 5.3-1.9-.7 0-1.9-1.4-2.4-.5 1.4 0 5.5-.2 7 0 1.4.7 1-.7 1.4h9.8v-5.8l1.4-.7v-11c1.2 0 1.4.5 2.9.5 0-1 0-1.4.2-1.9l.7-1.7c-1.2-1.2.2-1-2.4-2.6l.2-7c.2-1.7-.5-2.2-.2-3.4.5-2.4 1.4.5.7-3.1l.5.2v.2-2.2h-5.8v7.2c.1 2.5.6 6.1-.6 7.5z"/>
  <path fill="#0183CD" d="M219.1 417.8c-1 1-.2.7-1.4 1.4-.7.5-1 .7-1.7 1-4.6 1.9-5.5 1.4-9.6 1.4-1.2 0-3.6-.2-4.6.7 1 .5 1.2.5 2.4 1-1.9.5-1.2-.2-1.2.7 1.7.5 5.5.2 7 0 1.2 0 2.6.5 5.5.7v-.2l.5-.2c.7-1 1-.5 1-1.7.2-2.2.2 0 0-1h.5c1.7.7-1.4-1.7.2.5l1.4 1.2c-1-.7-.5-.5-1.4 0-2.2 1-.7-.5-1.4 1.2.7 1.2 1.9 1.2 2.2 2.4.2.5 0 0 .5.7 0 .2.5.5.5.5.7 1 .5.7 1 1.9l.7.2c-.7 4.3 0 5-3.1 6.2 1.4 4.3 1.4-1 2.9 5.5.5 2.6.7 5 .7 8.2 1.9 0 2.4 1 5 1.2 0 2.2.2 3.1.2 5.5h8.6v-3.1h-2.9c0-2.4-.5-3.4-.5-5.8-1.7 0-2.2-.2-3.6-.2v-5.3c-.2-.2-1-.2-1.2-.5l-1.7-.5c0-.7 0-1 .2-1.4.2-1.4.5-.7.5-2.9-1.2-.5-.7.2-1.4-1v-.2c-.5-1.2 0-1-.5-2.2l-.7-1.4c-1.4-5-1.2.5-1.2-6.5 0-2.6-.2-2.4.7-4.3.7-1.2-1.7-1.2-1.9-1 1 .2.5 0 .5-1.4-2.4-1-1.4.5-1.2-1.7l-1.5.4z"/>
  <path fill="#0060AD" d="M127.4 381.6l-5.8.5h-18.2l-7.9.2h-1.4l-2.6-.2c.7-.5 28.8.2 32.4.2 10.8.2 21.8.2 32.6.2l-3.8-.2c.2-1.2.5-1.9.2-2.6l-.2-.7v-.5c-.5-1.4-.2-6.2-.2-7.9 2.2 0 3.4-.5 5-.7 0-2.2.2-2.9.2-5.3h-17.3v6.2c0 3.8-.7 1-.7 5.3l-1.9.5v4.8l-10.4.2z"/>
  <path fill="#0093D9" d="M259.7 437c-1 0 0-.2-.7 0-.2.2-.7.2-1 .5l.5 1.4c-1 1-1.4 1-2.9 1 0 0 0-.2-.2-.2l-2.4.2v5.3h2.9v2.9h2.9v2.9c3.1 0 2.9-.5 2.9 2.9h2.6v3.1h23l-2.4-.2-.5-1.7h-2.9c-.2-1.7-.2-1.2-2.4-1.2l-.5-1.7h-2.9c-.2-1.9-.7-1.2-2.9-1.2v-2.4c-1.2-.2-1.4-.5-2.9-.5v-2.9H267c0-3.1.2-2.9-2.9-2.9v-1.9l-2.4-.2c.2-2.6 0-1 .7-1.9.5-.7 2.4-.5 2.9.7l.5-3.4c-1.9.7-1.2 1.9-3.4 1.7-1.9-.2-1-.5-1.4-.5-.1 0 .1.5-1.3.2z"/>
  <path fill="#F7FCF9" d="M304.6 403l-.2-.5-1.7 1.2c-6.5 2.4-5.3 8.4-3.4 9.8 1.2.5 2.2 1.2 3.8 1.9 1.2.5 3.1.5 4.1 1.2 1.2 2.4-.2 17 .5 21.1 1.9.5 28.3.5 33.4.2 5.8-.2 5.8-2.4 8.2-3.4l.5-1.7c-2.6 1-1 0-3.8 1.2l-.7.2-.5.2c-1.9.7-.5.7-.7 2.2-5 1.7-22.6-.2-26.6.2-1.4.2-7.4.7-8.9-.5.7-.7 1-.7 2.4-.7h8.2c3.8 0 6.7-.2 10.6-.2h-21.4v-17c0-2.6-.5-3.1-2.9-3.1l-.2-1c0-.2.2-.2 0-1-4.1.2-2.6.2-3.4-.5.7-.7-.2 0 1-.5 1.2-.2 1.2.5 2.4.2-.7-.5-1.9-.5-2.4-.7l-.5-.2c-1.2-.2-.7-.5-1-2.2-.2-2.4-.2-1.9-1-2.9 3.4-3.1 2.4-1.4 4.3-2.2l1-.5c.7 0 1.4.2 1.7.5 2.4-3.8 0-16.1 1-17.8.7-.7 4.6-.5 5.8-.5h9.4c2.4.2 10.1.7 12 .2-1.2-.5-25 0-25.2-.2-1.7-.2-1 .2-1.7-1h26.9c-1 1-6.5.5-7.9.5.7-1.2.2-1.2 2.9-1.2-2.9 0-7.7.5-9.6 0-1.9-.5-.5.5-1.7-1h17.3l.7 2.2c4.6 0 6.2-1.4 6.7 2.9l-.5.2c-.2 0-.2.2-.2.2-1.7 1.4-.2 2.4 0 3.8v1.2l-13.2.2c-1.7 1.7-1.4 1-2.4-.5-1.9 0 0-.2-1.4.5l-1.2.5v1.4c1.4-.7 1.4-1 3.6-1h4.3c2.9 0 6.2-.5 9.1.2 1.9.2 2.6-1.2 4.3-1.7l.7-1c2.2-3.4 1.4-6.7-1.9-8.9-3.8-.7-1.2-1.4-8.6-1.4-5 0-27.1-.2-28.8.2l-.2 16.6c-.4 3.6.1 4.3-3 4.1z"/>
  <path fill="#0351A4" d="M479.3 381.8c-1.4.7-3.4.2-5.3.5h-.2l-4.1.7-1 1.2c-1.4 1.4-.2.2-.7 2.6 1-2.4 3.1-3.8 6-4.6 1.7-.2 3.6-.2 5 .2 1.7.2 2.6 1.2 3.8 1.2 1.2 0 .7-.2 1.7.7l1.7 3.4c.2.7-.7 8.2.2 12.2 1.7.2 4.1.5 5.5-.5l-.2-.2c-1.4-2.4-.7-1.7-.7-6.2 0-1.4-.2-2.9 0-4.1 0-2.2.7-1.4.2-3.1 1.4-.2 1.9 0 2.2-1.4l-1-3.1c-1.7 0-1.7.2-2.9.2v-10.8l-1.4-.7v-5.5H479l.2 8.2c1.4-.5 0 0 .5-1.2s-.2-.7 1-1.4c1.4.7.7-1 1 1.7l.2 5.5c.5 3.8.5 3.6-.2 4.1-1 .9-1.7.4-2.4.4z"/>
  <path fill="#333C90" d="M60.2 407v12c.2.5.2 0 .5.7.2.5.2.5.2 1 1 3.6 1 4.3 2.4 7.9l.2.2 5.3 9.1c1.4 1.9 3.8 5.3 5.5 6-.5-1.9-1.2-1.2-2.6-3.8-1-1.4-3.1-5-3.1-6.5 0-.2.7-.5 0-.2-1-.7-.2.2-1-.5-.7-.5-.7-.7-.5-1.4l-.2-7.2c0-2.4 0-.7-.5-2.6v-5.8c0-1.9-.7-3.4-.7-7.9 0-1.7 1-2.4.5-5.5 0-.7-.5-1.7 0-2.9l.2-.7c.5-1 .5 0 .5-1.7.2-1.9 0-4.6 0-6.7 1-.2.5 0 .5-.2s0-.7-.2-1v-1.2l2.2.2c-1.4-1.2 0 1.2-.7-.7-.5-2.6 7.2-10.1 8.2-11 .7-.5 1.4-1 2.2-1.7 1-.7 1.4-1 1.7-2.2-1.2.2-1.9 1-3.4 1.9l-1 1c-2.4 2.6-6.5 6.2-8.4 9.4l-1.7 2.6c-3.8 6.5-4.8 11.3-5.8 18.2l-.3 1.2z"/>
  <path fill="#F4FBFE" d="M283.7 386.6c-.5.2-.7 0-1.2-.5-1.2-1.4-1-1.7.5-1.7h.2c2.6 0 0-1.7 4.1-.7 3.4 1 2.2.2 2.9 1.7-.7.5 0 .2-1 .5-1.4.2.5.2-2.2-.2-1-.2-1-.2-1.9.2.7.5 3.4 0 5.5 0 .2.7-.2-.2 1-.5 3.1 2.9 2.2 7.4 2.2 13v30.2c0 2.9.5 4.1-1.2 5.3-2.9 2.2-1.7 1.4-6.5 1.4-.2-.5-.2-1.7-2.4-1.7 0 0-1.4.2-1.7.2l-1.4.7-.2-.2s0-.2-.2-.2l-.7-.7h-.2l-.2-.2c-.5-7.9.2-15.1.2-23 0-3.4.2-6-.5-8.2-1.2-4.1.5-10.8.5-10.8v-3.1c1.2 0 2.2 0 2.9-.5 1.2-1-1.6-.7 1.5-1zm-7.2 46.6c.2 1.7 1.4 2.9 2.6 3.6.7.5 4.3 1.9 4.3 2.2 5 0 10.8-1.7 11.3-6.5.2-4.6 0-27.1 0-33.8 0-6.5 1.2-11.3-2.6-14.4-3.4-2.4-9.1-2.9-13 .5-2.2 1.7-2.6 2.4-2.6 6.2 0 13.6-.3 28.8 0 42.2z"/>
  <path fill="#007FC7" d="M373.9 439.4c.5-.7.7-.5 1.9-.5 3.1.2 4.3 0 6.7.7v2.9h-1c0 2.2.2 4.1.2 4.6 0 1-.2 2.2 0 3.1-1.9 0-2.9 1-5 1 0 2.4-.2 3.4-.2 5.8h13.7l3.1-.7c0-2.2.5-1.9-.7-2.4 0-2.4-.2-1.7.7-2.9 1-1 .2-2.4.5-4.3.2-2.9 1.7 0 .7-5.3 0-.2 0-.5-.2-.7l-.2-1c1-.5 3.1-.2 4.1-.5 2.6-.2 3.4-.7 3.8-.2l-.2-.2-1.4-.2c-.5.2-1 .2-1.4.2-6.4.9-18.1-.1-25.1.6z"/>
  <path fill="#0060AD" d="M440.9 381.8c-1-.2-7.7.2-9.4.2-2.6.2-6.7.5-9.4 0-1-.2-.5-.2-.7.2 3.4-.2 30.2-.5 33.1.2 1.7.5 2.6.7 3.8 1.7 1.2 1 1.7 1.9 2.9 2.6-.2-1.2 0-1.2-.2-1.9-.5-1 .2 1-.5-.7-.2-.5-.2-.2-.5-1 .2-.5.5-1 1-1.2.2-.2 0 0 .5-.2l.5-.2c0-.7 0-1-.2-1.7l-.5-1.7c-.7-2.2.5-2.4-1.4-2.6v-7.9c-1 0-1 0-1.7-.2v-2.9h-12.5c0 4.1.5 7 .5 11l1.7.2c1.9.5.5.5 3.4.5v5l-10.4.6z"/>
  <path fill="#007AC3" d="M192 439.2c1.4 1.7-.5 2.6 1.7 3.1l-.7 5.5c1.9.5 1.4.2 1.4 2.4l2.9.5.2 5c0 .5 0-1.2.5 1.2h15.6l-1.7-.5c-.7 0-1-.2-1.9-.2 0-1.9-.2-2.4-.2-3.8 0-1.7.2-2.2.2-4.1-.5-.2-.2 0-.7-.2-.7-.7-.7-1.4-.7-2.6-1-.2-2.6-.5-3.8-.7v-4.6c3.4 0 3.1-1.4 6-.7h1.4l.2-.2c1.2-.2.5-.2 1 .2H197l-12.5-.5h-2.2c-1.7 0-.5.2-2.2.2 1.1.2 9.7 0 11.9 0z"/>
  <path fill="#008DD4" d="M238.6 382.3c1.7 0 1.2-.2 1.7 1 0 0 .2 0 .2.2.2.5.5-.5 2.4 1.7.5.5 1.4 1.7 1.9 2.2 1.9.7 1.2-.5 1.7-1.9.5-.2 1.4-.5 2.2-.7 2.4-1.7 1.2-2.4 1.2-5.8h2.9v-2.9h2.9v-2.9h2.9v-2.9h2.9v-2.9h2.9v-2.9h-14.2c0 2.4-.5 3.1-.5 5.5l-2.4.2c-.7.2.5.2-1.2.5h-1.4c0 1.2.2 1.2-.2 2.2l-.5 1.7c-.2 1.4-.2 2.6-.2 4.3-1.9 0-1.9.2-3.4.5-.2 3.4-1.1.5-1.8 2.9z"/>
  <path fill="#FACC0A" d="M171.8 390.2c1.4 0 1.2-.2 1.7-1 .2-.5.2-1 1-1.4 1-1.2-.2-.2 1.2-.7l1-.5c1.4-.7 1.4.5 2.4 1 1.9 1 2.4-.5 5.3-.5 3.8 0 .2 1.4 8.4.5 4.1-.5 9.6.2 14.2 0 2.4 0 6.2.5 6.7.2l1.4-1.2c.2.5.2 1.7.2 1.9.2.7.5.2.2 1 .5-1.9 0-1 1.4-1.4 1.2 1 1.2 1 1.7 1.9-.5.7-.2 1-1.4 1.2-1.2.2-1.4 0-1.4-.7-.7 1 0 .5 1.4 2.2 1.2 1.7.5 3.6.5 5.8v6c0 3.4-.5 4.6.7 5.5l.7-16.1c1-.2.7.7.7-4.3-1-.7 0-1-1.9-2.2-1-1.7-.7-.5-1-2.2-.5-.7-1.4-1.2-2.2-1.4-.5-.2-1-.2-1.4-.5l-1.2-.7c-3.6.7-18.7 0-23.5 0-6.5 0-10.3-.7-14.6 3.4-1.4 1.4-1.9 1.8-2.2 4.2z"/>
  <path fill="#F9FDFD" d="M467.5 433.7c.7 1.9 1.4 1.9 2.2 3.4 1.7 0 1.9.7 3.6 1.2 3.6 1 8.6 0 10.8-3.1 2.6-3.4 0-13.2 1.4-17.8 1.4-.2 2.4-.2 3.8-.2h2.2c2.6 0 2.2 1.2 2.2 3.6-.2 9.1-1.9 18.2 9.4 17.8 4.6-.2 8.2-2.6 8.2-7.4.2-3.8.5-12-.2-15.4 0-1.9-2.4-4.1-4.6-4.6-.2.5-.5 1-.5 2.2 1.9 0 2.2-.2 3.1 1.2-.5 1.4-.2.7-1.4 1.2-.2.2-.7.2-1.2.5.7 0 2.6.2 3.6.7 1.4 1.2.7 10.8.5 12.7-.2 2.9 0 .7-.7 2.2-1 1.4 0 1.7-1.7 2.2-2.4.5-4.1-.2-6-.5-1.7-.2-3.4-.2-5 0h-.7l-.5-.2c0-2.6.2-8.9-.5-10.8l1.2-.7c1-.5 0 .7.5-.2-.5-.2-2.9.2-1.2-2.4l.7-.7c.5-.5.5.7.5-1.2 0 0 1 .7-.5 0-1-.7-.7-1.2-2.2-1l-8.9.2c-3.1.2 0 1.4-3.1.7l.5 3.4c0 1.7-.7 1.2-1 2.2-.2.5-.2 3.4-.2 4.1l1.7 1.2.2.2c-.2.7-.5 1.2-.2 2.2 0 .2 2.9 4.1-2.4 4.6-.5-.7 0 0-.2-.7l-.2-2.4c-.2-1 0-2.2 0-3.1-.2 1 0 3.4-.2 4.3-.5 1.7-.2.5-1 1.4-.2.2.2-.5-.2 1.4l-3.8-.2-.2.2-1-.5s0-.2-.2-.2c-1-1 .5 0-.5-.5 0 0-1-.2-1.2-.2h-1c-1.7-.5-.7 0-1.7-.7-.5-.2-.7-.5-1-.5l-1-.7v.9z"/>
  <path fill="#0087D0" d="M223.2 421.7c-1 1.9-.7 1.7-.7 4.3 0 7-.2 1.4 1.2 6.5l.7 1.4c.5 1.2 0 1 .5 2.2v.2c.7 1.2.2.5 1.4 1 0 2.2-.2 1.4-.5 2.9-.2.5-.2.7-.2 1.4l1.7.5c.2.2 1 .2 1.2.5v5.3c1.4 0 1.9.2 3.6.2 0 2.4.5 3.4.5 5.8h2.9v3.1h7c-.5-.2.7-.2-1-.2v-2.9h-2.9l-.5-5.8h-2.4v-2.9h-2.9c0-7.7 0-3.8 1.4-6.2-1.2-1-1-1-1.9-.2l-.7.7c-.2-3.4-.5-2.6-1-2.9v-2.4c.5-.2 1.2.2 1.7-1.4.5-1.9-1.2-1-1.4-3.1v-.7c-.5-.2 0 0-.5-.5-.7-.5-.2 0-.5-.5-.2-.2-.7-1-.7-1.2-1.2-.7-.2.5-1.2-1-.2-.5-.5-1-.5-1.2-.5-1-.7-1.7-1-2.4l-.7-.5-.2-.5s-1 .2-1.2.2l-1.2.3z"/>
  <path fill="#0167B5" d="M422.9 438.7h5.8c1 0 7.2-.2 7.4 0 1.4.5.7-.2 1.2 1.2l-1 3.4c-.2.5-.2 1.4-.2 2.2-2.2.2.2 0-1.7.5v7.2c-.2 0-.2.2-.2.2v.5c-.2.5-1 .5-1.4.7h-1.2v2.4h13.9c0-1.9-.2-4.1.2-6 .5-2.6-.2-2.9-.2-5.5 4.3 0 1.4-.7 5.5-.7 0-4.6.2-4.6-1.2-5l-1.4-.2h-.2c1.2-.5 3.4-.7 5-.7-5-.5-12 .2-17.3.2-5 0-12 .7-16.3-.5l3.3.1z"/>
  <path fill="#094CA2" d="M485.8 433.2c1.2-1.4.7-5 .7-7.4v-7.2h5.8v1.9l-.5-.2c.7 3.6-.2.7-.7 3.1-.2 1.2.5 1.7.2 3.4l-.2 7c2.6 1.7 1.2 1.4 2.4 2.6l-.7 1.7c-.2.5-.2 1-.2 1.9-1.4 0-1.7-.5-2.9-.5v11l-1.4.7v5.8h8.6c.2-1.2.5-2.4.5-3.1 0-1.2-.7-1.2 0-2.6l.7-2.4v-3.4c1-.2 1.4-.2 2.2-.7 0-1.2.5-3.4-.2-4.6l-1-1.2c2.2 0 5.8.5 7-.2-4.6 2.2-10.8-1-12.5-4.3-1.4-3.1.5-12.5-.7-16.6l-6.7.2-.4 15.1z"/>
  <path fill="#0090D5" d="M243.1 439.2c-.2 1.2-.2 1-1.7 1v1.7c1 .2 1 .2 1.7.5l.2 2.6.2.2 1 3.4v1.9c4.6 0 .7.7 5 .7l.7 5.8h13.9v-3.1h-2.6c0-3.4.2-2.9-2.9-2.9v-2.9h-2.9v-2.9H253v-5.3l2.4-.2c.2 0 .2.2.2.2 1.4 0 1.9 0 2.9-1l-.5-1.4c-1.9 2.7-10.6 2.2-14.9 1.7z"/>
  <path fill="#094CA2" d="M482.9 383.8c.5 1 0 .2.7 1 .2.5.5.5.7 1 .5.7 1 1.7 1 2.4 1 .5.5-.5.7 1.2v11.3c1.9.2 4.8.2 6.7 0 1-7.4-1.4-13.9 2.9-16.3V383c1.9-.2 2.2-1.2 4.6-1.2-.2 0-.7 1.2-.2-.7v-4.6c-.7-.5-1.2-.2-2.2-.7V371c1.7-.5 1.4.2 2.4-1l-3.6-1.2c0-2.6.2-1.7 2.9-1.7-.7-1.4-1.7-1.2-2.9-1.7.2-.7-.7-.2 1-.7v-.2h-9.4v5.5l1.4.7v10.8c1.2 0 1.2-.2 2.9-.2l1 3.1c-.2 1.4-.7 1.2-2.2 1.4.5 1.7-.2 1-.2 3.1-.2 1.2 0 2.6 0 4.1 0 4.6-.7 3.8.7 6.2l.2.2c-1.4 1-3.8.7-5.5.5-1-4.1 0-11.5-.2-12.2l-1.7-3.4c-1-.8-.5-.5-1.7-.5z"/>
  <path fill="#0089D1" d="M242.4 457h7.9l-.7-5.8c-4.3 0-.5-.7-5-.7v-1.9l-1-3.4-.2-.2-.2-2.6-1.7-.5v-1.7c1.4 0 1.4.2 1.7-1-2.9-1.9-4.3-1.2-10.8-8.2-1-1-.2-.7-1.4-1.4.2 2.2 1.9 1.2 1.4 3.1-.5 1.7-1.2 1.2-1.7 1.4v2.4c.5.2.7-.5 1 2.9l.7-.7c1-.7.7-.7 1.9.2-1.4 2.4-1.4-1.4-1.4 6.2h2.9v2.9h2.4l.5 5.8h2.9v2.9c1.5 0 .3 0 .8.3z"/>
  <path fill="#0097DC" d="M342 406.1c-.2 1 1.2 2.4.7 4.6-.5 1.7-1 2.6-2.2 3.6l1 .7c1.7-1-.2-.7 1.9-1.2 0 4.6-.5 1.7-1.4 4.1-.5 1.7.5.7-.7 1.4-.5.5 0 .2-.7.5 0 4.1 1.7 3.4-3.8 3.4v.2c1 0 3.1.2 3.4.2 7.7.2 2.2-.7 6.5.7 1.7.5-.2-.5 1 .5.5.2.2 1.4 1.9.5 1-1 0-2.4-.5-3.4-1.4.2-1.4.5-2.2.2l1-.5c2.2-2.2 1.2-7 1.2-7.7.2-1.9.5-.5.7-2.4 0-1-.7-3.1.2-5 .5-1 1-1.4 1-2.9-2.4-1-2.4.5-3.1-1.7.5-1.4.5-.7 1.4-1.7 1-1.2 1-.7-.7-2.6l-1-.7c0-.2-.2-.2-.2-.2l-1-1.4-1.2.7s0 .5.2.7l-.2.2s-1 .5-.2 1.9c1.4 2.6.5 1.7 1.2 3.1H345c0-1 0-2.2-.5-2.9-.5-1-.7-1-2.4-1-.5.7-.5.2-.5 1.2 0 0 0 .5.2.5-1.7.2-.7-.2-1.4 1.2.7 1.7.2-.2 1.2 1.2-.2 1 0 .7-1 1.2 1.2 2.3.9.1 1.4 2.8z"/>
  <path fill="#005AA9" d="M461 457h11.5l.7-8.6c1.9-.2.7 0 1.2-1.9.2-1.9 0-1 1.7-1.7 0-4.6.7-.7 1-3.6 0-1.2-1.4-1-2.2-.7 1.4-1.7 1.9.2 4.1-1.4-2.2.2-3.6.2-5.8-.2-1.2-.2-2.9-.7-3.6-1.7-1.7.2-.7.2-1.9-.7 1 1 .5 1.2 1.2 1.7 1.9 1.4 1.2 1.4 1.2 1.4 0-.2.2.2.2.2-1.4.7-2.2.5-3.1-1-.5-.7-.5-.5-.7-1.4l-.5-1c0 1.4 0 1.2.2 1.9v1.7c-.7 2.4-1.2 2.2-2.4 2.6 0 3.1-.2 2.6-.5 2.9l-.5 7.9-1.9 1.2v2.4z"/>
  <path fill="#008AD3" d="M348 367.2h2.6v2.9c2.9 0 2.9-.2 2.9 2.9-.2 3.4-.5 3.1 2.9 3.1v2.9h2.4v2.2c1.4.5 7.9 1 9.4.2 1.4-.5.5.5 1.2-1 .2-1.9-.5-1.2-2.9-1.7v-1.2c-.5-2.4-.7-.7-1.2-2.6-.2-.7.2-.2-.2-1.4l-.2-2.9h-2.4c0-2.4-.5-3.6-.5-6h-14.2l.2 2.6zm-1.2 89.8h10.8c.7-.2.7-.5 1.9-.5v-2.6h2.9v-5.8l5.3-.2c0-4.6-1-.5-1-5.5 1.4 0 1.9-.2 3.8-.2v-2.4c.5-.2 1.7-.2 1.7-.2-11.3 0-13.2-1.2-13.2 2.9h-2.6v2.9c-3.1 0-2.9-.2-2.9 3.1.2 3.4.2 3.1-2.9 3.1v2.9h-2.9v2.4l-.9.1z"/>
  <path fill="#0093D9" d="M346.3 437.8c-1.2 0-1.4.5-2.9.7-1 1 1.4 1-1.4 1h-8.9v-.2c1.4-.2 5.5-.7 6.2.5.2 1 0 1 0 3.1h-2.9v2.9h-2.9v2.9h-2.9v2.9H325v2.4c-2.4 0-3.6.5-5.8.5v2.4h-3.1c-.2-1.7 0-1-2.4-1v.5c1 0 .5 0 1 .2s0 0 .5.5h18.5v-2.6h2.9v-2.9h2.9v-2.9h2.9v-2.9h2.9v-2.9h2.4v-1.7c.2-1 0-.2.5-.7l-.5-.7c-1-1.2-.7 0-.5-1 .7-.2-.5 1 4.3-1.2 0-.5 0-1.9-.7-2.2-1 .5-1 .7-1.7 1.2-.7.7-.7 1-1.2 1.4l-1.6-.2z"/>
  <path fill="#F1F9FB" d="M175.2 428.6c1.4-.7 2.4-1.9 4.8-2.2l1.2 1c1 .5 9.6.2 10.1 0l3.4-.2h2.2c2.6-.2 1 .2 3.1.5l10.3-.7v-.2l.2-.2c5.8 0 4.1.2 5.3 1 .7.5.5.2 1.2 1 1 .7.2 1 1.4 1.2 0 0 .5 0 .7.2-1.2 4.6-.7 3.1-2.4 3.6V431c-1.2 0-.7 1.4-.5 2.4.2.2.2.5.2.5l.2 1c.5 1.2.5-.2.5 1.2-1.7 1.2-3.8 1.7-6.7 1.7l.2-1v-.2s0-.2.2-.2c0 0 .5-.5 0 0l-.7-.5c-1.2-1-.7-1-1-.7-4.6 0-9.6.2-14.4.2-3.8-.2-8.6-1.2-13-.5h24.5c3.6 0 2.9.2 3.4 1.2-.7 1.4 1 1-2.2 1l-6.5.2c-7.2-1-10.3-.5-17.8-.5-1.2 0-1.2 0-2.4-.5-1.2-.2.5-.5-1.2-.2-1.9.5-.5 1-3.4.5-.5-1.2-.5-1.2.5-1.4-.7 0-2.2-.2-2.4-.5-.2-1-.5-.7-.5-1.7l1.5-4.4zm.2-1.9c-.7 1.4-3.4 2.4-2.6 6.2 1.7 7.4 14.6 5.5 21.1 5.5h17.5c5 0 10.6-2.6 8.9-8.4-.5-1.2-.2-1-1-1.9 0 0-.5-.2-.5-.5-.5-.7-.2-.2-.5-.7-1.4-.5-2.2-1-3.8-1.4-2.4-.7-31.4-.2-34.6-.2-2.5 0-2.8 1.2-4.5 1.4z"/>
  <path fill="#0992D2" d="M248.9 389.8l3.4-.7c-.5 4.8.2 2.6.2 7.2v23.3c-.2.7-1 .7-1.2 1.4-.7 1.7 1 1.2-1.2 1.9-.2 0-1 1.4-2.4-.7l-.7-1.2c-1.9-3.4-.2-2.9.2-2.9h.2c0-.2.2-.2.2-.2 1 0-.7-.7.5 0 1 1 .2 2.6.5 3.4.2-1 .5-1.7.5-3.1-.2-1.9-1-1-1.4-2.4l1-20.9c.5-1.4 0-1 1.4-1.2 0 3.6-1 20.4 0 22.6.2-.5.5-21.8 0-23.8s-1-.1-1.2-2.7zm-.3-5.1c-.7.2-1.7.5-2.2.7-.5 1.4.2 2.6-1.7 1.9 1.2 8.9-.2 30.7 1 33.8.5 1.2 1.7 2.4 3.1 2.9 1.4.2 1.9-1 3.8-1.9 1.7-2.4 1-13.7 1-17.8V395c0-2.4-.7-6.7 1-7.7l1.2-2.4v-.2c-2.2.2-1.7 0-2.4 1.4-.2 1 0 1.2-1.4 1.7.2-1.2 1-3.1-.2-3.6l-1 2.6c-1.7-.2 0-.2-2.2 0v-2.1z"/>
  <path fill="#02A7E9" d="M295.9 399.8v22.3l.5 3.1c3.8 0 2.6.5 2.9-1h2.9c0 2.2.2 3.1.2 4.6 1.2-.7.7.2.7-1.7.2-.7 0-2.2 0-2.9h1.2c.7 1.2 0-.5 0 1v2.2h.2c0-1 0-1.2.5-2.2 1-2.4-.2.2.2-2.2l.5-1.2.2-.2v-.2c0-4.8.2-3.4-3.6-4.6-5.3-1.9-7.2-7-4.3-11 .5-1 1-1.4 2.2-2.2 1-.7 2.2-1.4 3.6-1.4l2.4-.5c0-2.2-.2-1.9 0-3.4-2.4-.7-1-1.7-.5-2.2-1.7-.5-1.2-.5-1.2-2.4l-.2 1.9h-1.2V393c-1.4.7-1 .2-1 2.6-.7-.2-3.8 0-5.8 0l-.4 4.2z"/>
  <path fill="#0065B3" d="M440.9 381.8l10.3-.5v-5c-2.9 0-1.4 0-3.4-.5l-1.7-.2c0-4.1-.5-7-.5-11h-11.5c0 2.2.5 3.1.5 5 .5.2.7.5 1.4.5 0 5.5.5 1.4 1 4.3v1.4c.7 0 .7 0 1.2.2l1.4.7c0 3.1-.7 1.2-.7 4.6 1.5.1 1.5-.2 2 .5z"/>
  <path fill="#005AA9" d="M127.4 381.6l10.3-.2v-4.8l1.9-.5c0-4.3.7-1.4.7-5.3v-6.2h-10.1v5.5c-2.2.2-.7.5-1.4 2.6l-1.2 3.1c-.4 2-.2 3.4-.2 5.8z"/>
  <path fill="#0093D9" d="M336.5 381.8c1.4.2 3.4 0 4.3.5h1.7l2.6-.5c1-.2.5 0 1.7.7.7-1.9.7-.7.7-3.6-.7-.5-.5-.5-2.4-.5v-2.9h-2.9v-2.9h-2.9v-2.9h-2.9V367h-2.9v-2.4h-17.3v1h2.9c0 1 .2 1 .2 1.9h5.5c0 3.4-1.2 2.4 5.8 2.4v2.9h2.9v2.9h2.9v2.9h2.9v2.9c-1.1-.1-2.1.1-2.8.3z"/>
  <path fill="#0085CF" d="M220.6 383.3c-.2 1.9-2.4 2.4 1.2 3.8 2.9 1.4 2.2 0 3.1 5.5 1-1.2.5-2.6 1.4-3.6 0-.7 0-1.2.5-1.7l.7-1.4c-.5-1-1-1.4-.7-2.4 1.2-2.9.2.7.2-4.6h2.9V376c-1.7-.2-1.2-.2-1.2-2.4 1.4-.2 1.7-.5 3.6-.5 0-2.6.2-1.9.5-2.9.5-1.4.2-1 .2-2.9h2.6v-2.9H227c0 2.4-.2 3.4-.2 5.5-2.2.2-3.1 1.2-5 1.2 0 1.7.2 5.3 0 6.7-.2 1.2 0 .2-.5 1.4-1 1.7-.5.2 0 2.9l-.7 1.2z"/>
  <path fill="#F7CA11" d="M217.9 387.4s.2.2.5.2l1 2.2c.2 1.2 0 2.6 0 4.1 0 2.9.5 19.2-.2 20.9-.2.7-1.2 1.7-1.2 1.9 1.2-.2.7-.5 1.2-1.4-.5 0-.5 0-1 .2-2.2.2.2-.5-.7.2-.2 0-1.2 1-1.4.2h-.5l.2.5c-1 .2 1 1.9-2.2 1.9-.7 0-1.7-.2-2.4-.5-1.4-.5.2-.5-1.7-.2-3.4.2-6-.2-9.6-.2-1.9 0-2.4.5-4.6.5-2.9 0-11.3-1.4-14.4 0v-1.2c-.7 0-1.7-.5-2.9-.2-1.4 0 0-.2-.7.2l-1.4.5c-1.2-.7.5-.7-1-.2-1.7.5-1-.2 2.2 2.9 3.6 1.7 17.8 1 22.8 1 7.2 0 13.2 1.2 18-3.1l1.9-1.4c-.2-1.4.5-1.7.7-3.8v-13c0-6.2 1-12-3.6-14.2.3 1.5.1.3 1 2z"/>
  <path fill="#006CB7" d="M163.7 384.7v.5c.2.7.5.7 1 1.4l1.2 1.2.5.2c1.2.7.5.5 1 .2l1.9-1c0-1.2 0-1.9-.5-2.6 1-.5 2.6.7 3.6 1 .2-1.9 1-1.4 0-2.4l1.9-.7-.2-1.2c-.2-1.7-.5-1 0-2.6 1.2-3.1-.5-1.7 1-6.2.2-.7.2-.5.2-1.4.5-.5 1-.2 1.4-.7 1.7-1.4-.5 1.4.5-.7.5-.7 0-.5.2-1.2 0 0 0-.2.2-.2.5-1.4.7 0 .7-3.6h-7.9v2.4c-1.2.2-.7.2-1.4.7v7.9c-.7.5-1.4.7-2.6.7 0 2.4.7 2.4-1 2.4 0 1.4 0 1.4.2 2.6.5 1.7.2-.2.5 1.4-1 .5-1.2.2-2.4.2v1.7z"/>
  <path fill="#0168B5" d="M163.2 437c-1.2 0-2.4 1.2-3.8 1.4-1.9.5-4.1.2-6 0 1.7 1.9 3.4 1.2 6.2 1.4-.5 1.9-.7 6.2-.2 8.2l.5 2.6c1.4.2.7.2 2.2.5v5.8h7.7v-2.4c-.7-.7.2-.2-1-1-.5-.2 0 0-.7-.2 0-11.8-1.2 1.7-1.2-13.4.2 0 1.9.5 1.7-1.7-.2-2.6-2.6-.2-2.9-.2-1.4-2.6 1 .2-.2-2.2-.1 1.7-2.3 1.2-2.3 1.2z"/>
  <path fill="#007EC5" d="M210.5 381.8c1.9.2 1.9-.5 2.9.5 1 0 1.7.2 2.4.7.7.2 1.2.7 2.2 1-.7-2.2 0-.7-1.7-1.2-2.4-.5-1.9-2.2-1.9-3.8 1.2-.5.7-.2 1-1.4.5-2.2-1-1.7 1.2-1.9v-2.9h1.7V367h2.9v-2.4h-11c0 2.6.2 6-.2 8.4-.5.7 0-.5-.5.7-.2 1.9 1.2 2.4-4.8 2.6l-.2 4.6c1.7.5 4.5 0 6 .9z"/>
  <path fill="#016AB6" d="M423.6 381.6c-2.2-.2-1.2 0-1.4.5 2.6.5 6.7.2 9.4 0 1.7 0 8.4-.5 9.4-.2-.5-.7-.5-.5-1.9-.5 0-3.4.7-1.4.7-4.6l-1.4-.7c-.5-.2-.5-.2-1.2-.2v-1.4c-.5-2.9-1 1.2-1-4.3-.7 0-1-.2-1.4-.5 0-1.9-.5-2.9-.5-5h-7.4v1.9c-.5 2.2-1 0-1 3.1 2.9 0 2.2 1 2.4 1.7.5 2.4 0 1 1.4 2.4 0 3.6-.2 1.7-.7 3.6v4.6l-5.4-.4z"/>
  <path fill="#144D9A" d="M108.7 433.4c.5 1.7-2.2 3.6-3.6 4.6-2.4 1.2-5.3.5-8.2.7 1.2 1 3.4.7 5 .7-1.4-1.7-.2 1.2-3.8 1.2v4.1c.7.2 1 .2 2.2.2v6.2l.5 1.4v.7l-2.2.2c-.5.2-1 0-1.4 0-.2 1.4-.2-1.2 1.2 1.7 1 .7 1.9.7 3.4 1 .7 0 2.2.5 3.1.7h1.2c-1.4-1.9-.7-2.9-.7-5.5-1-.5-1.2-.2-2.2-.7 0-1.9-.2-3.8 0-5.5.5-2.9 0-1.7-.7-4.6 1.4-1 2.2-1.7 4.6-2.4 1-.5 2.2-2.4 2.6-3.4 2.2-5.3-.7-33.1 1-37.2 1.9-.5 6.7-.2 7.4 0 .7 1.9.5 26.6.2 31.9 0 2.9 0 4.6 1.7 6.7 1 1.2.5.2 1.4 1.2l3.1 1-.7-.7h-.2c0-.2 0-.2-.2-.2-1.4-.7-3.1-1.7-3.4-3.4-.5-.5-.5-.2-.7-1-.7-2.2 1-35-.5-36.2-1.2-.7-7.4-.5-9.1 0v35.3c-.3 2.5 0 .6-1 1.3z"/>
  <path fill="#0087D0" d="M227.5 385.9l.5-.5c4.8-3.4 6-2.6 12.2-2.2-.5-1.2 0-1-1.7-1l-1.4-1-1.7-.5v-5h2.9c0-2.2.2-3.4.2-5.8h2.6V367h2.9v-2.6h-8.4v2.9H233c0 1.9.2 1.4-.2 2.9-.2 1-.5.2-.5 2.9-1.9 0-2.2.2-3.6.5 0 2.2-.5 2.2 1.2 2.4v2.9H227c0 5.3 1 1.7-.2 4.6-.2 1 .2 1.5.7 2.4z"/>
  <path fill="#1049A0" d="M505.9 438.7c-1.2.7-4.8.2-7 .2l1 1.2c.7 1.2.2 3.4.2 4.6-.7.5-1.2.5-2.2.7v3.4l-.7 2.4c-.7 1.4 0 1.4 0 2.6 0 .7-.2 1.9-.5 3.1h1.4c1.9-1.2 6.7-1.2 7.9-2.2.7-.5 1.2-.5 1.4-1.4l-3.1-.2c.2-1 0-.5 1-1 1-.2.5-.2 1.4 0-1-.7 0-.2-1-.5.5-1.9.7-.5 1-2.2.2-1 0-2.4.2-3.4.5-2.4 1.7 1 1.2-6 .7-.2 1.4-.7 1.4-1.2-.2-.7-.5-.5-1.9-.7l-1.7.6z"/>
  <path fill="#0062AF" d="M445.4 457h7.7v-2.9c3.1-.2-.5-2.4 2.9-3.1v-8.6c1.9-.2.5.7 1.4-1.4l.5-2.2-2.6-.2-2.2.2c-1.7 0-3.8.2-5 .7h.2l1.4.2c1.4.5 1.2.5 1.2 5-4.1 0-1.2.7-5.5.7 0 2.6.7 2.9.2 5.5-.4 2-.2 4.1-.2 6.1z"/>
  <path fill="#007AC3" d="M390.2 457h8.9v-2.9c2.2-1.2 1 0 1.7-2.4.2-1.4.5-.5.5-3.4l2.2-.2c0-1.4 0-1.7.2-2.6 1-3.1.2-2.2.5-4.6.2-1.2 0-.2.5-1.4 0 0 .2-.7.2-1.2l-2.9.7c-.5-.5-1.2 0-3.8.2-1 .2-3.1 0-4.1.5l.2 1c.2.2.2.5.2.7 1 5.3-.5 2.4-.7 5.3-.2 1.9.5 3.4-.5 4.3-1 1.2-.7.5-.7 2.9 1.2.5.7.2.7 2.4l-3.1.7z"/>
  <path fill="#007EC5" d="M388.6 382.1h8.4c-1-1-.7-.7-2.4-.7 0-1.7.5-3.1.5-4.1-.5-2.4-1.2-.2-1.2-3.6 0-3.1-.2-5.5-.2-9.1h-11.3v2.4h1.2v2.9l1.7.5v5.3c4.5-.1 2.1-.3 3.3 6.4z"/>
  <path fill="#0168B5" d="M157 382.3c1.9.2 2.2.5 3.6 1 1.2.5 2.2 1 3.1 1.4V383c1.2 0 1.4.2 2.4-.2-.2-1.7 0 .2-.5-1.4-.2-1.2-.2-1.2-.2-2.6 1.7 0 1 0 1-2.4 1.2 0 1.9-.2 2.6-.7v-7.9c.7-.5.2-.5 1.4-.7v-2.4H161v2.9h1v2.6c-3.1.2.5 2.4-2.9 3.1l.7 8.6c-1.9-.1-1.9-.3-2.8.4z"/>
  <path fill="#ECF5F9" d="M353.5 404.6c1.7.2.7-.2 2.2-.2 1.2 0 2.6 1.2 4.8-.5l1.4 1 1-5s-.5.7-1.4.2v-11.8c.2-1.9-.7-1.2.2-3.1.2-1-.7.2.7-1v-.2c1.9-1 2.9-.2 3.6.2 1.7.5 11.5.2 14.2.2 1.4 0 1.9-.5 3.6-.5l7.2.5c1.2 0 1.9 0 3.1-.2l2.4-.5c.5-.2-.2-.2 1.2-.5 1.2 1.7 1.4 2.2 2.9.5 10.8 2.6 6.2 13 7.4 19.2 1.4-1.4.7-12 .7-12.7-.5-2.9-3.8-7.2-6.7-7l-.5-.5c-3.8-.5-39.1-.5-41.8 0-.7 4.3.7 18.2-.7 19.4-.9.9-4.3.1-5.5 2.5z"/>
  <path fill="#005CAB" d="M461.3 386.9c.2.5.7 2.2 1 2.6 1 .7.5-.7 1.2 1.4.2 1.2-.2 1-.2 1 0-2.4-.2-4.3.2-6.2.5-1.4 1.4-3.6 3.4-3.4 0 1.4-.7-.2-1 2.2 1.2-.7 1-1.4 2.6-1.9l.2 1.7 1-1.2-.5-.7c1.7-1 1 .2 1.9-1.2H469c0-3.1-.7-2.4-1.4-2.6v-2.4c1-.2.5 0 .7-1v-4.8h-2.6V368l-1.7-.5v-2.9h-5.8v2.9c.7.2.7.2 1.7.2v7.9c1.9.2.7.5 1.4 2.6l.5 1.7c.2.7.2 1 .2 1.7l-.5.2c-.5.2-.2 0-.5.2-.5.2-.7.7-1 1.2.2.7.2.5.5 1 .7 1.7 0-.2.5.7.3.8 0 .8.3 2z"/>
  <path fill="#0085CF" d="M366 457h10.6c0-2.4.2-3.4.2-5.8 2.2 0 3.1-1 5-1-.2-1 0-2.2 0-3.1 0-.5-.2-2.4-.2-4.6h1v-2.9c-2.4-.7-3.6-.5-6.7-.7-.5 1-.5 1.9-.5 3.4-.7 0-.7.2-1.7.2 0 2.4-.5 3.1-.5 5.5H371c0 4.3-.7 1-.7 5.8h-2.4v2.4c-1.2.3-1.2 0-1.9.8z"/>
  <path fill="#0153A5" d="M115 382.1h6.7V379h-1.2v-2.9c1.9-.2 1.2-.5 1.4-2.6 0-1.4.2-2.4.5-3.4h2.2v-5.5h-8.9c0 3.4.5 5.8.5 8.9h-1.4l-.5 2.9h-2.2c0 8.3.5 3 2.9 5.7z"/>
  <path fill="#007AC3" d="M397 382.1h2.2l2.4.7.5.5 1.4-.2c.2-1.9.2.2.7-1.7v-4.1c-.5-2.6-.7.5-.7-4.1l-2.2-.5c0-3.8 0-1.2-1.2-3.1-.7-1.4.5-1.9-1.7-2.4v-2.6h-4.8c0 3.6.2 6 .2 9.1 0 3.4.7 1.2 1.2 3.6 0 1-.5 2.4-.5 4.1 1.7 0 1.5-.3 2.5.7z"/>
  <path fill="#006EB8" d="M176.6 457h7.2c-1-.5-1.2-.5-2.6-.7l.7-4.8-1.4-.7c0-3.6.5-3.4-.5-5.8 0-.7 0-.2-.2-1-.7-3.6-1.4-3.4-.2-5-.5 0-1.2-.2-1.9-.5-1.2-.5-1.2-.5-2.2-1-4.1-.2-2.6-3.8-4.8-5.5-.5-.5-.7-.7-1.2-.2-1.7 1.4.5 2.9.5 2.9h.2l.2 1c.5 2.6-.5 1.9-1 2.2 0 0-.2 0-.2.2-1.7 1-.5 0-.7.7.7 1.4-1 .5 1.2 1.2h.5c2.6-.7-.7-1.2 2.6-1.2v.2c.7.2-.2.7.7 3.8.7 1.9.2 5.8.2 8.4 1.9.2.2.2 2.2.5v2.4c1 .2.7.2 1.9.5v1.7c-2.4-.1-.2-.1-1.2.7z"/>
  <path fill="#F1F9FB" d="M414.2 433c1 6.7 12.7 5 19.7 5 7.2 0 17.3.7 23.8-.7.5-.2 7.4-4.1 3.1-9.1-1-1.2-2.4-1.9-2.6-2.4-1.7-.2-2.4-.7-4.3-.7H449l-28.8.5c5.5 1.2 30.2-.5 34.6.5.5 0 2.2.5 2.2.5l1 .5v.2s.2 0 .2.2c0 0 .2.2.5.2 1.7 1.2 1.9 1.4 2.4 4.1-1 .2.2.2-1 .2-.2 0-.5-.2-.5-.2 0 2.6.2 1.4-1.2 2.2-1.4-.7-.5-1.4-1.4-2.2.5-.2.2-.7.2.2l-.2 1.7c-.5 1-.2.2-.7 1-1.2 0-3.4-.2-3.8-.2-.7.2-.7 1-.7 1.2v.5c-5.3 0-10.1-.7-15.6-.2-1.7 0-1.2.5-3.1.7-3.4.2-8.2 0-11.5-.5l-.7.7c-.7-.2-1.4-.2-2.6-.2-.2-.7-.2-.5-.2-1.9-1.4-.5 0-.2-1 0l-.7.2c-1.2-2-1.2-1.6-2.2-2z"/>
  <path fill="#0072BB" d="M183.8 457h7.4c-1-.7-.7-1.4-.7-3.1-1.4 0-.7-.2-2.2-.2v-2.9h1v-2.2c-1-.2-1-.2-1.7-.5v-2.9c-1.4 0-.7-.2-2.2-.2 0-6.2-1.2-5.3 4.6-5.3-.2.7-.2 1.4-.2 2.4h.7c0-1 0-1.2-.5-1.9l1.7-1h.2c-2.2 0-10.8.2-11.8 0l-.7-.2c-1.2 1.7-.5 1.4.2 5 .2.7.2.2.2 1 1 2.4.5 2.2.5 5.8l1.4.7-.7 4.8c1.6.2 1.9.2 2.8.7zm227.3 0h6.7c1-.5.7-.5 1.9-.7 0-2.4 0-1.4.5-2.6l1.2-4.1c.5-1.7-.2-.7 1.4-1.7v-4.6c.2-.7.2-.5.2-.7l.2-.7c.7-2.2-.2-1.2 1-1.7l-.5-.7-.2-.2c-.7-.5.2.7-.7-.5l-3.4-.2-1.7-.5c1 1.4.7.5 1 2.2-1.2.5-.7-.2-.7 1.9-1.7 0-1 .2-2.2.2 0 2.2-.7 4.6-1.4 5.8-.7 1.4-.7 3.8-.7 5.8h-2.6v3z"/>
  <path fill="#007AC3" d="M199 381.6h1.2c3.1 0 7.2-.5 10.3.2-1.4-1-4.3-.5-6.2-1l.2-4.6c6-.2 4.6-.7 4.8-2.6.5-1.2 0 0 .5-.7.5-2.4.2-5.8.2-8.4h-7.2v2.9l-1.7.5v5c-1 0-1 0-1.9.2v5.8c-1 .5-.5-.7-.7 1.2 0 .8.2 1 .5 1.5z"/>
  <path fill="#0072BB" d="M192.5 381.6l-1.9-.2v-2.2h-.7v2.2h-4.3v-5c1.4 0 .7-.2 2.2-.2l.5-2.9c.5-1.9.2-3.1.2-5.5 1.7 0 1.7 0 2.9-.2v-2.9h-9.6v5c-1.4.7-1 .5-1.4 2.2 0 1.2 0 .5-.2 1.4-1 2.6 0 3.6-.5 5.5 0 0-.2 0-.2.2l-.5 1c-.2.7-.2 1-.2 1.9 3.6-.8 9.6-.3 13.7-.3z"/>
  <path fill="#0085CF" d="M375.1 381.8l7 .2v-5.5c-.2 0-.5-.2-.7-.2l-1.2-1s.2-1-1.4-.7c-1.2.5.2.2-1.7 1 0-2.2-.2-3.1-.2-5.5s-.5-3.1-.5-5.5H368v5.5c1.7 0 1.4 0 2.9.2v2.6c1 0 1 0 1.7.2 0 3.8.5 1.9 1.2 4.1l.5 1.9c.2.2.2-.2.5.5v1.4l-3.6.5c.8.1 3.4-.4 3.9.3z"/>
  <path fill="#0074BE" d="M404.9 457h6.2v-3.1h2.6c0-1.9 0-4.3.7-5.8.7-1.2 1.4-3.6 1.4-5.8 1.2 0 .5-.2 2.2-.2 0-2.2-.5-1.4.7-1.9-.2-1.7 0-.7-1-2.2h-1.2l-2.9-3.6c-1.2.7 0 1.4.5 2.2s1.2 1.9.5 2.2c-1.2.5 0 .2-.5 0-.5 0-.2 0-.5-.2h-.2c-2.2-1.2.2-1-2.6-2.9-1.2 1.9 0 2.4.7 3.8-1.4.5-.2.5-1.7.7v1.7c1 .5.7-.2.7 1.9 0 1.9.2 1.4-.7 1.7v2.9h-1.7v2.6c-4.4 0-2.3 2.1-3.2 6z"/>
  <path fill="#0059A9" d="M469.7 383l4.1-.7h.2c1.9-.2 3.8.2 5.3-.5-1.4 0-1.7-.5-3.8-.5-.7.2-.7.2-1.4.2.7-.5 1.2-.5 2.2-.7V379c-1.7-.7.5.5-1.4-2.9-1.4-2.9 1-2.6-1.4-2.9v-8.6h-9.4v2.9l1.7.5v2.4h2.6v4.8c-.2 1 .2.7-.7 1v2.4c.7.2 1.4-.5 1.4 2.6h2.2c-1 1.4-.2.2-1.9 1.2l.3.6z"/>
  <path fill="#0094D9" d="M247.7 422.2c1.4 2.2 2.2.7 2.4.7 2.2-.7.5-.2 1.2-1.9.2-.7 1-.7 1.2-1.4v-23.3c0-4.6-.7-2.4-.2-7.2l-3.4.7c.2 2.6.7.7 1.2 2.6.5 1.9.2 23.3 0 23.8-1-2.2 0-19 0-22.6-1.4.2-1-.2-1.4 1.2l-1 20.9c.5 1.4 1.2.5 1.4 2.4 0 1.4-.2 2.2-.5 3.1-.2-.7.5-2.4-.5-3.4-1.2-.7.5 0-.5 0 0 0-.2 0-.2.2h-.2c-.5 0-2.2-.5-.2 2.9l.7 1.3z"/>
  <path fill="#0087D0" d="M357.6 457h8.4c.7-.7.7-.5 1.9-.7v-2.4h2.4c0-4.8.7-1.4.7-5.8h2.2c0-2.4.5-3.1.5-5.5 1 0 1-.2 1.7-.2 0-1.4 0-2.4.5-3.4-1.2 0-1.4-.2-1.9.5h-1.7s-1.2 0-1.7.2v2.4c-1.9 0-2.4.2-3.8.2 0 5 1 1 1 5.5l-5.3.2v5.8h-2.9v2.6c-1.3.1-1.3.3-2 .6z"/>
  <path fill="#069EE0" d="M341.8 395.8l-12 .7h-2.2c-2.2.2-2.2.2-2.2 2.9 0 3.6-.7 3.8 10.1 3.4 3.8.2 4.1 1.9 6.5 3.4-.5-2.6-.2-.5-1.4-2.6 1-.5.7-.2 1-1.2-1-1.4-.5.5-1.2-1.2.7-1.4-.2-1 1.4-1.2-.2 0-.2-.5-.2-.5 0-1 0-.5.5-1.2 1.7 0 1.9 0 2.4 1 .5.7.5 1.9.5 2.9h1.2c-.7-1.4.2-.5-1.2-3.1-.7-1.4.2-1.9.2-1.9l.2-.2c-.2-.2-.2-.7-.2-.7-.7.2-.2.2-1.4.2.5-.2.7-.2 1.2-.5 1.7-1 1-.2 1.2-1.7-1.8.3-2.5 1.7-4.4 1.5z"/>
  <path fill="#ECF5F9" d="M258.7 383.8c-1 .2-2.2 1-2.9 1v.2l-1.2 2.4c2.2-.5.5-.2 2.4-1.4l1.2 1 1.2-1c-.2 0 0 1-.7-.2-1-1.7-.2-.5 0-1l1.7-.5c0 .2.2.5.2.5l.2.5.7.7c.5-.7.7-.2 1.9-.7 1.7-.7-1-1.4 2.2-.5.5 1.4 1.2 1.9-1 2.2 1.9 0 2.4-.7 3.8-.7h.7v.2c-1.2 3.1-.5-1-.5 1.2 0 0 .2 1.2.2 1.4l2.2.5c.7 3.1 0 22.1 0 27.8 0 1.2.2 4.6-1.7 5.3 0 0-1-.2-.2-.5-.2 1-.2 1-.7 1.9l-1 1.4c-1.2 3.4-.7 2.2-3.4 4.6-1 1 0 .2-1 1.2-1.2 1.4-1.2 0-2.2 3.1H259l.2 1.7c-1.2 0-1.2.2-1.7-.2-.2 2.4-1.2 1.2-3.1 1.4-.2 1.4-1.4 1.2-2.9 1-5.8 0-7.7.7-12.7-2.2-.5-.2-.7-.5-1.2-1l-2.2-2.2c-.7-.7-1.2-1.4-1.9-2.4-1.9-2.2-1.9-1.7-2.6-1.7v.7c1.2.7.5.5 1.4 1.4 6.5 7 7.9 6.2 10.8 8.2 4.3.5 13 1 14.9-1.7.2-.2.7-.2 1-.5.7-.2-.2 0 .7 0 .7-1.2.2-.7 1.4-1.7.7-.2 1-.7 1.2-1 .5-1.2 0-.2 1-1.2 0-.2.7-.7 1-1 3.4-2.9 2.9-3.6 4.8-5l1.4-1.9c.5-1.7 1.2-2.9 1.4-4.6l.2-26.9c0-8.9-.7-5.3-2.6-8.9-1.2 0-2.4-1.4-4.6-1.7-2.6 0-4 .3-6.2.8z"/>
  <path fill="#0082C9" d="M382.1 382.1h6.5c-1.2-6.7 1.2-6.5-3.4-6.5v-5.3l-1.7-.5V367h-1.2v-2.4h-6c0 2.4.5 3.1.5 5.5s.2 3.4.2 5.5c1.9-.7.5-.5 1.7-1 1.7-.2 1.4.7 1.4.7l1.2 1c.2 0 .5.2.7.2v5.6z"/>
  <path fill="#0074BE" d="M191.3 457h6.7c-.5-2.4-.5-.7-.5-1.2l-.2-5-2.9-.5c0-2.2.5-1.9-1.4-2.4l.7-5.5c-2.2-.5-.2-1.4-1.7-3.1h-.2l-1.7 1c.5.7.5 1 .5 1.9h-.7c0-1 0-1.7.2-2.4-5.8 0-4.6-1-4.6 5.3 1.4 0 .7.2 2.2.2v2.9l1.7.5v2.2h-1v2.9c1.4 0 .7.2 2.2.2 0 1.5-.3 2.2.7 3z"/>
  <path fill="#019CDF" d="M340.6 414.2c-1.2 1-1 1-2.6 1.4h-.2c-.2.2.2.7-1.9 1.2-3.1.5-7.4-.2-9.8.2l-.2 5.3c.2 2.2 0 1.2 1 1.9 2.4-.2 12.2-.2 13.4-.7-.2 0-2.4-.2-3.4-.2v-.2c5.5 0 3.8.7 3.8-3.4.7-.2.2 0 .7-.5 1.2-.7.2.2.7-1.4 1-2.4 1.4.5 1.4-4.1-2.2.5-.2.2-1.9 1.2l-1-.7z"/>
  <path fill="#0082C9" d="M217.9 384l.7 1 1-1.2c.7-.7.2-.2 1-.5l.7-1c-.5-2.6-1-1.2 0-2.9.5-1.2.2-.2.5-1.4.2-1.4 0-5 0-6.7 1.9 0 2.9-1 5-1.2 0-2.2.2-3.1.2-5.5h-6v2.4h-2.9v5.8h-1.7v2.9c-2.2.2-.7-.2-1.2 1.9-.2 1.2.2 1-1 1.4 0 1.7-.5 3.4 1.9 3.8 1.8.5 1.1-1 1.8 1.2z"/>
  <path fill="#016AB6" d="M425.8 457h5.8v-2.4h1.2c.5-.2 1.2-.2 1.4-.7v-.5s0-.2.2-.2V446c1.9-.5-.5-.2 1.7-.5 0-.7 0-1.7.2-2.2l1-3.4c-.5-1.4.2-.7-1.2-1.2-.2-.2-6.5 0-7.4 0 .2.5-.5 0 1 .7v8.2c-.7.7-.5.2-1.2 1-.5 1 0 .2-.2 1.2-.5 1.7.5.7-.7 1.4-.5.5-1 .2-1.7.2 0 .2-.2 1.2 0 1.2 0 .7 0 .5.2.7.7 1.2.7.7.7 2.9-.6.5-.3.5-1 .8z"/>
  <path fill="#019EE4" d="M295.9 431.8c0 1-.2 2.4-.5 3.1-.2 1.7.7-.5-.2.7l-.2.5c-.2 0-.2.2-.2.2-2.6 4.3-2.2-1-2.4 3.8 1.2.2-.5.2 1.4.2 1 0 1 0 1.4-.7l.5-.5c.2-.2-.5-.2.2-.2-.2 1.7-.2-.7-.2 1.2 0 1.4 0 .5.2 1.4 1 .2 0 .2 1.4.2s.7 0 1.2-.2c0 2.9-.2.2.7 1.4 7.9 0 3.6.2 6 1 1.2.2 1.4 0 2.2-.2 0-2.6 0-2.2-2.4-2.2.2.7 2.2 0 2.4 0 0-1.4.2-1.7-1-2.2-1.4-.7.5.2-.7.2-.2-2.4.2-4.3-.7-5.8-1.7 1.4-1 1.7-1.4 2.6.2-1.2.5-2.6 0-3.8-1 0-3.4-1.4-7.4.2l-.3-.9z"/>
  <path fill="#006EB8" d="M417.8 457h7.9c.7-.2.5-.2 1-.7 0-2.2 0-1.7-.7-2.9-.2-.2-.2 0-.2-.7-.2 0 0-1 0-1.2.7 0 1.2.2 1.7-.2 1.2-.7.2.2.7-1.4.2-1-.2-.2.2-1.2.7-.7.5-.2 1.2-1v-8.2c-1.4-.7-.7-.2-1-.7h-5.8c1 1.2 0 0 .7.5l.2.2.5.7c-1.2.5-.2-.5-1 1.7l-.2.7c0 .2 0 0-.2.7v4.6c-1.7 1-1 0-1.4 1.7l-1.2 4.1c-.5 1.2-.5.2-.5 2.6-1.1.2-.9.2-1.9.7z"/>
  <path fill="#0155A6" d="M479 439c-2.2 1.7-2.6-.2-4.1 1.4.7-.2 2.2-.5 2.2.7-.2 2.9-1-1-1 3.6-1.7.7-1.4-.2-1.7 1.7-.5 1.9.7 1.7-1.2 1.9l-.7 8.6h5.8c1.4-.5.7 0 .7-1.4.2-1.4-.2-5.5.2-7 1.4.5-.5 1.7 1.4 2.4 1.7-.7.5-1.9 1-5.3.2-1.4.2-4.8.7-6-2.4-.5-.2.2-1.9-1l1.4-.5c1.2-.5 1.2 0 1.7-1.4-1 .7-1.2 1-2.4 1.4l-2.1.9z"/>
  <path fill="#019EE4" d="M295.9 389.3l.2-1.2 3.4 1.7c2.6.7.7-2.4 2.4.5 0-2.4 1-1 2.9-1 0 0-.2 0-.2.2 0 1-.7 0-.2 1.2l.7-.7c1.2-1.4-.5-1.2-.7-2.9-.2-.5-.2-.5-.2-1.2l1.4 1c.7.5 0 .2.7.5v11c-.2 1.4 0 1.2 0 3.4l-2.4.5.5.2.2.5c.7-.7-.2-.2.7-.5.2-.2 1-.2 1.2-.5.2-5-.7-15.4.5-19.7l-.2-1 .5-1.2c-.7 0-1.2 0-1.9-.2h-.4c-.2 0-.2-.2-.2-.2h-.2c-1.4-.5-7.4-.5-8.6 0-.5 1.4-.2 1 0 2.6-1-.2.2 0-.2-.5l-.5-.5c-.7-.5-.5-.5-1.4-.5-1.4 0-.7.2-1 .2l-.2.7c0 1.9-.5-1.2 0 .7.5 1.2 0 .2 1 1 1.2.7.2-.5 1.2 1.4.5 1.8.8.9 1 4.5z"/>
  <path fill="#0155A6" d="M479.3 381.8c.7 0 1.4.5 2.4-.5.7-.5.7-.2.2-4.1l-.2-5.5c-.2-2.6.5-1-1-1.7-1.2.7-.5.2-1 1.4s1 .7-.5 1.2l-.2-8.2h-5.8v8.6c2.4.2 0 0 1.4 2.9 1.9 3.4-.2 2.2 1.4 2.9v1.9c-1 .2-1.4.2-2.2.7.7 0 .7 0 1.4-.2 2.4.2 2.6.6 4.1.6z"/>
  <path fill="#0059A9" d="M129.1 457h7.7c-.2-.2 0-.2-.5-.5-.7-.5-.2-.2-1-.2v-7.9c-.5-.7-.2.5.2-.2l.2-.5c.5-1 .2-1.2.2-2.2h-1.2v2.2h-1c0-1 0-1.2.2-1.9l.5-1c-.2-3.6 1-4.8-.7-5.3-1-.5-2.4 0-2.9 0-1.4.2-1.7.2-3.4.2.7.2-.7.7.7.2l-1.2.5c0 3.4 0 4.8 1.4 7.4 1.4 3.4-1 3.1 1.4 3.6 0 1.2.2 2.6.2 3.8-.2 1.2-1 1.4-1 1.4l.2.4z"/>
  <path fill="#0155A6" d="M124.3 457h4.8l.2-.2s.7-.2 1-1.4c0-1.2-.2-2.6-.2-3.8-2.4-.5 0-.2-1.4-3.6-1.4-2.6-1.4-4.1-1.4-7.4l1.2-.5c-1.4.5 0 0-.7-.2l-2.6-.5h-.2c-1.7-.5-1-.7-2.9-1-.7 2.2-.5 5.3-.5 7.9.2 7.2 1.4 4.8 2.9 5.5v5.2z"/>
  <path fill="#008AD3" d="M238.6 382.3c.7-2.4 1.7.5 1.7-2.9 1.4-.2 1.4-.5 3.4-.5 0-1.7 0-2.9.2-4.3l.5-1.7c.5-1 .2-1 .2-2.2h1.4c1.7-.2.5-.2 1.2-.5l2.4-.2c0-2.4.5-3.1.5-5.5h-6v2.6h-2.9v2.9h-2.6c0 2.4-.2 3.6-.2 5.8h-2.9v5c1 .2 1 .2 1.7.5l1.4 1z"/>
  <path fill="#0074BE" d="M192.5 381.6h7.7-1.2c-3.8.2-6.2.7-6.5-1.2-.5-2.6 1-.2 1.2-3.6 0-1.2-.2-2.2 0-3.4.2-1.2.5-.5.5-2.6 1-.2 1.2-.2 1.9-.5.5-.2.2 0 .5-.2.2 0 0 1.2.5 0h.2l-.2-5.5h-5.8v2.9c-1.2.2-1.2.2-2.9.2 0 2.4.2 3.6-.2 5.5l-.5 2.9c-1.4 0-.7.2-2.2.2v5h4.3v-2.2h.7v2.2l2 .3z"/>
  <path fill="#006EB8" d="M423.6 381.6l5.3.2v-4.6c.5-1.9.7 0 .7-3.6-1.4-1.4-1 0-1.4-2.4-.2-.7.5-1.7-2.4-1.7 0-3.1.5-1 1-3.1v-1.9h-7.2v5.5c1 0 1 0 1.9.2 0 2.2-.2 1.7.5 2.6 1.4 1.7.5 0 1 2.4 0 0 0 .2.2.2.9 3.6.4 1.4.4 6.2z"/>
  <path fill="#0065B3" d="M156.5 382.6l.5-.2c1-.7 1-.5 2.9-.5l-.7-8.6c3.4-.7-.2-2.9 2.9-3.1v-2.6h-1v-2.9h-3.4c0 2.4-.2 3.1-.2 5.3-1.7.2-2.9.7-5 .7 0 1.7-.2 6.5.2 7.9v.5l.2.7c.2.7 0 1.4-.2 2.6l3.8.2z"/>
  <path fill="#187BB8" d="M177.1 419.8c-1.7-.5-2.4-1.4-3.8-2.4 0 1.7 1 2.4 2.9 3.4.7.2 3.8 1 4.8 1 3.6.2 8.2 0 11.8 0-.5.5 0 .2-1 .5l-3.6.2s6.2-.5 7.7 1.4c-2.9 0-6 .5-11.5.5-5.5-.2-3.6 0-4.3 1 3.1 0 32.2-.5 34.6.2 1.7.5 2.4 1 3.8 1.4-.2-1.2-1.4-1.2-2.2-2.4.7-1.7-.7-.2 1.4-1.2 1-.5.5-.7 1.4 0l-1.4-1.2c-1.7-2.2 1.4.2-.2-.5h-.5c.2 1 .2-1.2 0 1 0 1.2-.2.7-1 1.7l-.5.2v.2c-2.9-.2-4.3-.7-5.5-.7-1.4.2-5.3.5-7 0 0-1-.7-.2 1.2-.7-1.2-.5-1.4-.5-2.4-1 1-1 3.4-.7 4.6-.7 4.1 0 5 .5 9.6-1.4.7-.2 1-.5 1.7-1 1.2-.7.5-.5 1.4-1.4 1.2-.5 1.2 0 .7-1.7l-1.9 1.4c-4.8 4.3-10.8 3.1-18 3.1-5 0-19.2.7-22.8-.9z"/>
  <path fill="#0155A6" d="M121.7 382.1l5.8-.5c0-2.4-.2-3.8.2-5.8l1.2-3.1c.7-2.2-.7-2.4 1.4-2.6v-5.5h-5.8v5.5h-2.2c-.2 1-.5 1.9-.5 3.4-.2 2.2.5 2.4-1.4 2.6v2.9h1.2v3.1z"/>
  <path fill="#0065B3" d="M157.9 457h4.1v-5.8c-1.4-.2-.7-.2-2.2-.5l-.5-2.6c-.5-1.9-.2-6.2.2-8.2-2.9-.2-4.6.5-6.2-1.4-1.7-.2-1.2-.5-2.4 1 .7 1.2 0 .7 2.2.7v1.9c-.7.5-.7-1.2-.7 3.8v4.8c2.2 0 3.4.2 5 .7l.5 5.6z"/>
  <path fill="#1F73B1" d="M416.4 418.8l-.5.7c2.9 2.6 9.4 2.4 12.2 2.4 1.2.2 3.4 0 4.3.2 3.4 1 4.1.2 5.8.5 1.2 0 .5 0 1.2.2l.5.2c-.2 1.2.2.5-.7 1-.7.5-20.4.2-21.4.2-1.2 1.7-1 1-2.4 2.2-1.4 1.2-1.7 1.2-1.7 3.4 1.2-.7.5-.5 1.2-1.4.2-.5 1-1.2 1.4-1.7 1-.7 2.6-1.4 3.8-1.2l28.9-.5h4.8c1.9 0 2.6.5 4.3.7-.2-1.4.2-.5-1-1.2-1.4-.5-10.6-.5-12-.2-.7-1.2.2-1.2-1.9-1.2-3.6 0-2.4 0-3.4-.7h5.3l-.2-.2c-.5-1-.5.5-.2-.5 3.8-.2 9.1.5 12.5-1.4 2.2-1 2.2-1.2 2.4-2.2-2.2.7-1.9 1.4-4.3 1.9-4.6 1.2-22.8.7-28.8.7-8.2 0-4.8.3-10.1-1.9z"/>
  <path fill="#1282C2" d="M224.4 421.4l-1-1c-.5-.7 0 .5-.5-1-.5-1.7.5-.2-.5-1.4-.2-.2-.2-.2-.5-.7-1.2-1.7.7 0-.5-.5-1-.5-.2.2-1-.5 1.7-1.9 1-10.3 1-14.2s.2-8.6-.2-12.5v-2.2c.5 0-.7-.7 1 .2 1.4.7-.5-.2 1 1.2.7.7 0-1.4.7 1.4.2.7.2 1.4.2 2.4l.7 23.5c.1 2.5-.2 3.7-.4 5.3zm-7.4-36.2c4.6 2.2 3.6 7.9 3.6 14.2v13c-.2 2.2-1 2.4-.7 3.8.5 1.7.5 1.2-.7 1.7l1.4-.2c-.2 2.2-1.2.7 1.2 1.7 0 1.4.5 1.7-.5 1.4.2-.2 2.6-.2 1.9 1l1.2-.2c.2 0 1.2-.2 1.2-.2l.2.5.7.5c-.7-5.3-.5-10.8-.5-16.3 0-5.3-.2-11.3.2-16.8-1 1-.5 2.4-1.4 3.6-1-5.5-.2-4.1-3.1-5.5-3.6-1.4-1.4-1.9-1.2-3.8-.7.2-.2-.2-1 .5l-1 1.2-.7-1c-1-.2-1.4-.7-2.2-1-.7-.5-1.4-.7-2.4-.7l-1.2.2 1.2.7c.5.2 1 .2 1.4.5.9 0 1.9.5 2.4 1.2z"/>
  <path fill="#0087D0" d="M365 373.4h2.6c0 1.2 0 1.4-.2 2.2-.7 1-1-1-1 2.6l.7.5c.7.2.2 0 1 .2l1.2.2c0 1.4-.2 1.7-.7 2.6h6.5c-.5-.7-3.1-.2-4.1-.2l3.6-.5v-1.4c-.2-.7-.2-.2-.5-.5l-.5-1.9c-.7-2.2-1.2-.2-1.2-4.1-.7-.2-.7-.2-1.7-.2v-2.6c-1.4-.2-1.2-.2-2.9-.2v-5.5h-6c0 2.4.5 3.6.5 6h2.4l.3 2.8z"/>
  <path fill="#16469D" d="M94.8 454.6c1 .2 2.2.5 3.6.7-1.4-2.9-1.4-.2-1.2-1.7.5 0 1 .2 1.4 0l2.2-.2v-.7l-.5-1.4V445c-1.2 0-1.4 0-2.2-.2v-4.1c3.6 0 2.4-2.9 3.8-1.2-1.7 0-3.8.2-5-.7-.7.2-1 .5-1.9.2l-3.8-1.7s0 .2.2.2l.7 1.2c.2.7 0-.2 0 .5 0 .2-.5 0-.7 2.4-.2 3.1-.2 3.8 2.6 3.8v4.8c-1.7.2.5-.2-.2 1l-.2.2s-.2 0-.2.2c1 0 1.2.2 1.7.5-.2 1.9-.5 0-.2 2.2v.3z"/>
  <path fill="#0177C1" d="M199 381.6c-.2-.5-.5-.7-.5-1.4.2-1.9-.2-.7.7-1.2v-5.8c1-.2 1-.2 1.9-.2v-5c1-.2 1-.2 1.7-.5v-2.9H197l.2 5.5h-.2c-.5 1.2-.2 0-.5 0-.2.2 0 0-.5.2-.7.2-1 .2-1.9.5 0 2.2-.2 1.4-.5 2.6-.2 1.2 0 2.2 0 3.4-.2 3.4-1.7 1-1.2 3.6.3 1.9 2.7 1.4 6.6 1.2z"/>
  <path fill="#F7FCF9" d="M495.6 384.2c0 1 .2.2-.2 1 0 .2-.7.7-.7 1-.7.7-.7 1-1 2.2v10.8c.5 2.4-.2.7.7 1.7 1-3.8 2.2-1.9 1.4-7.7-.2-1.7-1-3.8.2-5.5.2-.7.7-.7.7-1.7.2-1.4 3.1-1.4 3.6-1.4 2.9 0 2.9.2 4.1 1.2 2.2 1.2 6 0 5.5 4.6 1.2-.2.2-.7.5-.7v6c0 2.9.5 4.8-.7 6-.5-.7-.5-.2-.7-1.4-.2 2.9 0 .7.2 3.1.2 1.7-.7 1.7-2.2 2.6v1.7c3.4-1 4.6-3.6 4.6-7.4 0-9.1 1.9-15.1-6-17.3-5.2-1.9-8.6 1-10 1.2z"/>
  <path fill="#064FA3" d="M109.2 382.1h5.8c-2.4-2.6-2.9 2.6-2.9-5.8h2.2l.5-2.9h1.4c0-3.1-.5-5.5-.5-8.9h-5.8c0 .7 0 1.4-.2 2.2-.5 1.9-.2-.7-.5 1.9-.2 1 0 3.4 0 4.6 0 3.1-1 6.2 0 8.9z"/>
  <path fill="#094CA2" d="M106.1 457h6l-2.2-1c0-2.6-.5-1.9-.7-3.4l-.2-12.7c-1.7 0-2.6 0-3.4-1 1.2 0 .7 0 1.4-.7-2.4.7-3.1 1.4-4.6 2.4.7 2.9 1.2 1.7.7 4.6-.2 1.7 0 3.6 0 5.5 1 .5 1.2.2 2.2.7.1 2.7-.7 3.6.8 5.6z"/>
  <path fill="#016AB6" d="M432.2 397.2c-.2 1.7-.2 4.1-.2 6 0 3.1-.2 3.4 7.7 2.9l2.9-.2v-8.6h-10.4z"/>
  <path fill="#16469D" d="M94.1 382.3h1.4c.7-1 .7-.5 2.4-1.2v-4.6c1-.2 1-.5 2.2-.5v-5.8l-2.9-1.4c1.2-.2 1 0 1.9-.2 2.4-.2.7.5 2.4-1 1.2-.7 1.4-.7 2.4-2.2-1.7-.2-.2 0-1 .2-1.7.5-2.4.2-3.8.5-4.6 1 .5 1-1.9 1.9h-1.7c-1.4-.5 1-.7-1.4-.5-1.4 0-1-.2-1.4 1-.2 1-.7.7 3.6 1 0 1.7-.2 1.2-2.2 1.4v4.8c-3.6 0-2.6 1.7-2.6 5.3 2.8.1 2.1.6 2.6 1.3z"/>
  <path fill="#0288CD" d="M224.4 421.4c.2-1.7.5-2.9.5-5l-.7-23.5c0-1 0-1.7-.2-2.4-.7-2.9 0-.7-.7-1.4-1.4-1.4.5-.5-1-1.2-1.7-1-.5-.2-1-.2v2.2c.5 3.8.2 8.6.2 12.5s.7 12.2-1 14.2c.7.7 0 0 1 .5 1.2.5-.7-1.2.5.5.2.5.2.5.5.7 1 1.2 0-.2.5 1.4.5 1.4 0 .2.5 1l.9.7z"/>
  <path fill="#094CA2" d="M103.4 382.1h5.8c-1-2.6 0-5.8 0-8.9 0-1.2-.2-3.6 0-4.6.2-2.6 0 0 .5-1.9.2-.7.2-1.4.2-2.2h-3.8c0 1 0 .5.2 1.2-.2 0-1.2.2-1.4.5-.7.2 0 0-.7.5-.5.2.2-.2-.5.5.7.7-.5.2 1.7.5.2 0 1-.2 1.4.5-.2 1.2.2.7-1 1l-.7.2c-1.7.5-1.7 1.9-1.7 3.6v9.1z"/>
  <path fill="#007AC3" d="M201.1 397.2l-10.3.5v6.5c.2 1.2.5 1.4 1.4 1.7l1.7.2c.5 0 1-.2 1.7 0 1.2 0 1.7 0 2.9-.2l2.4-.5.2-8.2z"/>
  <path fill="#839762" d="M416.4 418.8c0-1.4-.2-.5-1.4-2.4-.5-.7-1-1.9-1.2-2.6-.5-1.9-.2-21.8-.2-23.3 1.2-9.6 16.1-7.4 23.3-7.4 8.6 0 22.8-1.9 24.7 6.5l.2 23.3c-.2 3.1-1.4 3.4-1.9 4.1-.5.7-.5.2-.2 1.2 3.6-1.9 2.6-7.4 2.6-12.5 0-5.3.2-11 0-16.1-.2-.5-.7-2.2-1-2.6-1.2-.7-1.7-1.7-2.9-2.6-1.2-1-2.2-1.2-3.8-1.7-2.9-.7-29.8-.5-33.1-.2-4.3 1.9-4.6 1.2-7.4 4.6-1.9 2.4-1.2 7.9-1.2 11 0 3.4-.5 15.1.7 17.8.6 1 1.6 2.4 2.8 2.9z"/>
  <path fill="#0D4AA0" d="M103 365.8c.7-.2-.7-.5 1-.2-1 1.4-1.2 1.4-2.4 2.2-1.7 1.4 0 .7-2.4 1-1 .2-.7 0-1.9.2l2.9 1.4v5.8c-1.2 0-1.2.2-2.2.5v4.6c-1.7.7-1.7.2-2.4 1.2l7.9-.2V373c0-1.7 0-3.1 1.7-3.6l.7-.2c1.2-.2.7.2 1-1-.5-.7-1.2-.5-1.4-.5-2.2-.2-1 .2-1.7-.5.7-.7 0-.2.5-.5.7-.5 0-.2.7-.5.2-.2 1.2-.5 1.4-.5-.2-.7-.2-.2-.2-1.2h-1.4c-.5 1-.2.2-1 .7-.6.6-.1-.2-.8.6z"/>
  <path fill="#01A3E7" d="M295.9 422.2v9.6l.2 1.2c4.1-1.7 6.5-.2 7.4-.2 0-.7-.2-.2.2-.5 1-.2.7-.7.7-.7 1 1.2.2 0 .5 1 .2.5-.5.5 1 1.2v-12.2.2l-.2.2-.5 1.2c-.5 2.4.7-.2-.2 2.2-.5 1-.5 1.2-.5 2.2h-.2v-2.2c0-1.4.7.2 0-1h-1.2c0 .7.2 2.2 0 2.9 0 1.9.5 1-.7 1.7 0-1.4-.2-2.4-.2-4.6h-2.9c-.2 1.4 1 1-2.9 1l-.5-3.2z"/>
  <path fill="#13489E" d="M499.9 381.1c-.5 1.9 0 .7.2.7 3.8-1 6.2.2 9.8 1-.5-1.4-.2-1.4-1.4-1.7l-.2-4.3c-.7-2.2-1.2 1.2-1.2-6-1.2 0-1.2 0-1.4-1 2.2-.2 2.6-.2 4.6-1.2-.2-.7.5-1-1.4-.7-.7.2-1.7.5-2.4.5 0-2.4-.7-1.4-3.1-2.2l-3.4-.7c-1.4-.7-.7-.5-1.2-1h-1.2v.2l1.7 1.2c1.9 1 3.8.2 6.2 1.7-3.1 1.7-7.9-2.4-7.9 1.2l3.8.7c1.9.2 1.9 1.4 1.9 3.6v3.1h2.2v4.3l-5.6.6z"/>
  <path fill="#E6F2F7" d="M123.4 437.5c.2 0 .2 0 .2.2h.2l.7.7c1.2 0 2.2.2 3.6.2 1.2.2 2.9-.2 3.8 0 1.2-1.7 0-.5 1.2-1.2 1.4-.7 4.1-1.4 4.3-5.8.5-5 0-23 0-29.8l.2-5s.2 0 .2-.2c0-1.2 9.1-.7 9.6 0 .7.7.5 32.9.5 36.5-.2.5-.2.5 0 1 .5 1 0 .2 1 1 0-3.1-.5-6.7-.5-10.1 0-7.2.5-25.4-.5-29.8l1.2-1.4c-2.6-.2-1-1.7-3.1 0 .5 2.2-.7-1.7.2.5l.5 1.2c-1.4-.2-1.9-.2-3.4-.2l-2.6-.2v.2c0-.2-.2.2-.2.2-1.9.2-3.4-.5-3.6 2.2-.2 3.1.5 30 0 34.6-.2 2.4-.5 2.6-2.9 2.9-.2.7 0 .5-.2 1.4-1.7.7-2.2.2-2.9 1.2l-.7-1-.2-.2c-.5-.5-1.4-.5-2.4-1.2 1.2 1 .5.7 0 1.2 1 0 1 0 1.4.2.7.5.7 1 .7.7v.2c-2.5.8-3.9-.7-6.3-.2z"/>
  <path fill="#82BFDF" d="M227.5 385.9l-.7 1.4c-.5.5-.5 1-.5 1.7-.5 5.5-.2 11.5-.2 16.8 0 5.5-.2 11 .5 16.3.2.7.5 1.4 1 2.4 0 .2.2.7.5 1.2 1 1.4 0 .2 1.2 1-1.2-5-2.4-.5-2.4-12.2v-14.4c0-3.6-.7-10.6 1.2-13 4.1-5.5 16.6-5.8 16.6 4.8 0 4.1-.2 26.6.2 28.8 1 3.6 6.5 6 7.9 1.4-1.9 1-2.4 2.2-3.8 1.9-1.4-.5-2.6-1.7-3.1-2.9-1.2-3.1.2-25-1-33.8-.5-.5-1.4-1.7-1.9-2.2-1.9-2.2-2.2-1.2-2.4-1.7 0-.2-.2-.2-.2-.2-6.2-.5-7.4-1.2-12.2 2.2l-.7.5z"/>
  <path fill="#01A3E7" d="M295.9 389.3v10.6l.5-4.1c1.9 0 5-.2 5.8 0 0-2.4-.5-1.9 1-2.6v2.6h1.2l.2-1.9c0 1.9-.5 1.9 1.2 2.4-.5.5-1.9 1.4.5 2.2v-11c-.7-.2 0 0-.7-.5l-1.4-1c0 .7 0 .7.2 1.2.2 1.7 1.9 1.4.7 2.9l-.7.7c-.5-1.2.2-.2.2-1.2 0-.2.2-.2.2-.2-1.9 0-2.9-1.4-2.9 1-1.7-2.9.2.2-2.4-.5l-3.4-1.7-.2 1.1z"/>
  <path fill="#0486C9" d="M378.5 401.8c1.7.5 6.5.2 8.4.2 2.4 0 1.9-.2 1.9-2.4 0-1.7 0-2.9-.2-4.3-1.9-.5-8.2-.2-10.1 0v6.5z"/>
  <path fill="#ABB5D4" d="M515.3 368.9c1.4.5 2.6 1 3.8 1.7l1.4 1c1.7.7 1.4 0 1.7 1 1.4.5 1.4 1.2 2.9 2.2l.5.2h.2l7.7 8.2.2.2c3.8 5 6 10.1 7.9 17 .2 1 .2 1.4 1 2.2v-5.3h-.2l-2.9-6.2c-.5-1.4-1.2-1.4-1.4-3.1-.2-3.6-1-1.9-2.6-3.8-1-1-3.8-4.8-4.6-7-.7-2.2-.5.2-2.9-1.4-1.2-1-1.4-1.4-2.4-2.2-1.2-1-1.9-1.2-3.1-2.2-1.9-2.2-2.2-1-4.3-2.9-1-1-.2-.5-1.4-1-1.2-.2-.5 0-1.7-.5-.2 0-.2-.2-.7-.2-1.2-.5.2 0-1-.2-.5 0-.7-.2-1.7-.5-.7-.2-1.2-.5-1.9-.7-.7-.5-1.4-.5-2.4-.7h-6.7l1.2.5c.5.2 1 .2 1.2.2 7 0 1.9.7 6.2 1h.5l2.4.7c.5.2 0 0 .7.2 1 .5-.2 0 .7.5l1.7 1.1z"/>
  <path fill="#0D4AA0" d="M499.9 381.1l5.5-.5v-4.3h-2.2v-3.1c0-2.2 0-3.4-1.9-3.6l-3.8-.7c0-3.6 4.8.5 7.9-1.2-2.4-1.4-4.3-.7-6.2-1.7l-1.7-1.2c-1.7.5-.7 0-1 .7 1.2.5 2.2.2 2.9 1.7-2.6 0-2.9-1-2.9 1.7l3.6 1.2c-1 1.2-.7.5-2.4 1v4.8c1 .5 1.4.2 2.2.7v4.5z"/>
  <path fill="#AEBAD6" d="M99.4 457c-.5-.5 0-.2-.7-.5-1-.2-2.4-.2-3.8-.7-.2 0-1.2-.5-1.9-1-1.7-.5-2.4-.2-4.8-1.2l-.2-.2c-3.6-1.9-4.3-1.7-4.3-2.6-1.4.2-.5 0-.7 0-.2 0-.7-.2-.7-.2-1.7-1-6-4.6-7.2-6l-.5-.5c-1.7-.7-4.1-4.1-5.5-6l-5.3-9.1-.2-.2c-1.4-3.6-1.4-4.3-2.4-7.9 0-.5 0-.5-.2-1-.2-.7-.2-.2-.5-.7 0 3.4 1 5.3 1.7 7.7.5 1.4.7 1.9 1.2 3.6.7 2.2.7 1.4 1.7 2.9.7 1.2.7 1.9 1.7 3.1l1 1.7c.2.5.5.5.7.7 1.2 1.4-.5 1.4 1.2 2.6 1.2.5 1.4-.2 1.7 1.4 0 1.2-.5.7 1.2 1.9h.2c1.7 1.4 1 .2 3.4 2.4l.7.7c1 1.2.2 1 1.9 2.2 1.9 1.7 1.9-.2 3.6 1.4.7 1 .2.7.7 1.9 2.4 0 1-.5 3.4.2.7.5 2.9 1 3.4 1.4 1 1.4-.2-.2.2 1.9 2.9 0 1.4-1 4.3-.5 1.8.6 2.6.6 5 .6z"/>
  <path fill="#0183CD" d="M379.2 423.8c1.7.5 7 .7 8.4 0 .7-.5 1 0 1-3.1 0-1.4 0-2.4-.2-3.6-.2 0-.2-.2-.5 0l-7.9-.2c-1.7.2-.7-.5-1.2 1l.4 5.9z"/>
  <path fill="#AEBAD6" d="M533 438.2c0 2.2-3.1 4.3-4.3 5.8-.7.7-1.4 1.7-2.4 2.4-1 1-1.7 1.2-2.6 1.7-1.4 1.4-7.7 4.8-9.4 5.5-.5.2-3.8 1.2-5 1.7-1.2.5-1.2.5-2.9.7-2.9.2-2.4.2-3.1 1 6.5 0 7.9-1.7 9.1-1.2 1.2.7.5 1.2 2.9 1.2-.2-2.2-1-.7-1.4-2.2 3.1-1.7 2.6-.5 4.8-1.7h.2l.2-.2.7-.2c1-.5.7-.2 1.7-1.4 1.4-1.4 1-1 2.6-.7 0-1.7.5-1.9 1.4-2.6.2-.2.7-.5 1.2-.7 2.6-1.4 1.2-2.6 3.1-2.6s.5 1.4 2.6.2c-.5-.7-1.4-1.2-1.2-2.2s1.2-.2 2.6-.2c-.2-1.4-1-1.2.2-2.6l5.8-10.8c.7-1.4 0-.5 1.4-1.4-.7-1.4 0-2.4.5-3.8s.7-2.4.7-4.6l-4.8 12.7c-.5 1-.5.5-.7 1.4l-1.2 1.9v.2c-1 1.8-1 2.3-2.7 2.7z"/>
  <path fill="#99A9CB" d="M60.2 407l.2-1.2c1-7 1.9-11.8 5.8-18.2l1.7-2.6c1.9-3.1 6-6.7 8.4-9.4l1-1c1.4-1 2.2-1.7 3.4-1.9.2-1.2-.2-.2.7-1l2.4-1.4c2.4-1.2 9.1-4.1 12-4.6 1.9-.7 5.8-.2 7.2-1.2h-6c-1.2.2-2.2.5-3.6.7l-7.9 2.9c-2.2 1-6 3.8-8.2 5.3-1.7 1.2-1 .5-1.7.7-1.7.2-.2 0-1.7 2.2l-.5.7c-1.2 1-1.9 1.4-2.9 2.6-1 1-1.4 1.9-2.2 3.1-.5.7-.7 1-1 1.4l-1.9 2.4c-.2.5 0 .2-.2 1l-1.2 1.9c-3.8 10-3.8 7.6-3.8 17.6z"/>
  <path fill="#8CACCD" d="M469.7 437c.7 1 2.4 1.4 3.6 1.7 2.2.5 3.6.5 5.8.2l2.2-.7c1.2-.5 1.4-.7 2.4-1.4 1-1.4 1.2-1.4 2.2-3.6l.2-15.1 6.7-.2c1.2 4.1-.7 13.4.7 16.6 1.7 3.4 7.9 6.5 12.5 4.3l1.9-.5c1.9-3.1 4.1-.5 4.1-9.6v-11.5c-.7-2.4 0-1-1-1.4.7 3.4.5 11.5.2 15.4 0 4.8-3.6 7.2-8.2 7.4-11.3.5-9.6-8.6-9.4-17.8 0-2.4.5-3.6-2.2-3.6h-2.2c-1.4 0-2.4 0-3.8.2-1.4 4.6 1.2 14.4-1.4 17.8-2.2 3.1-7.2 4.1-10.8 3.1-1.6-.5-1.8-1.3-3.5-1.3z"/>
  <path fill="#A8C0D7" d="M108.7 433.4c1-.7.7 1.2 1-1.2V397c1.7-.5 7.9-.7 9.1 0 1.4 1.2-.2 34.1.5 36.2.2.7.2.5.7 1-.2-5.5.5-36-.7-37.9 0 0-9.4-1.4-10.1.7-.2.7-.2.5-.2 1v16.6c0 5.4.4 13.8-.3 18.8z"/>
  <path fill="#7BAACD" d="M132 438.7c3.4-1 4.8-2.6 6-5l.2-36.7c1.7-.2 7.7-.5 9.1.2.5 4.6-.5 32.9 0 34.6.2 1.4.2.7.7 1.4 0-3.6.2-35.8-.5-36.5-.5-.7-9.6-1.2-9.6 0 0 .2-.2.2-.2.2l-.2 5c0 6.7.5 24.7 0 29.8-.2 4.3-2.9 5-4.3 5.8-1.2.7 0-.5-1.2 1.2z"/>
  <path fill="#ABDDEE" d="M343.4 438.5c1.4-.2 1.7-.7 2.9-.7.5-.7 0-.2.7-.7.5-.2.5-.5 1-.7.7-.7.7-.5 1.2-1.7-2.4 1-2.4 3.1-8.2 3.4-5 .2-31.4.2-33.4-.2-.7-4.1.7-18.7-.5-21.1-1-.7-2.9-.7-4.1-1.2-1.7-.7-2.6-1.4-3.8-1.9 1.7 3.4 6.5 2.9 7.2 3.6 1.2 2.4-.2 16.8.5 21.4 2.7.5 32 0 36.5-.2z"/>
  <path fill="#DFF3F8" d="M324.7 396.5c-.2 2.4-.5 5 .5 7l.5 1.4c-1-1 .7-.5 1.7-.5 0 0 1-.5 2.2-.5l.2.5c.5 1.7 0 .5 0 .5l.7-1.4h2.9c.5.5.5.2.7 1.2 4.3-1.4 2.4 0 4.8 1 4.1 1.9 2.6 6 .2 8.2-1.7 1.4-1.4.5-1.4 1.9h.2c.7-1 0-.2 1-1l1-.5c2.6-2.2 3.4-6.7-.5-9.6-.7-.2-1.4-.7-1.9-1l-1.9-1c-10.8.5-10.1.2-10.1-3.4 0-2.6 0-2.6 2.2-2.9h2.2l12-.7c-2.9-.7-6.2-.2-9.1-.2h-4.3c-2.3 0-2.3.3-3.8 1z"/>
  <path fill="#6EBDDF" d="M304.6 403c3.1.2 2.6-.5 2.6-3.4l.2-16.6c1.7-.5 23.8-.2 28.8-.2 7.4 0 4.8.7 8.6 1.4-.5-1.2 0-.2-1-1l-1.2-.7c0-.2-.2-.2-.2-.2H307c-1.2 4.3-.2 14.6-.5 19.7-.2.2-1 .2-1.2.5-1 .2 0-.3-.7.5z"/>
  <path fill="#B5B247" d="M431.5 406.6c-.2-2.2-.2-7.9.2-9.8 1.4-.2 3.6-.2 5.5-.2 3.6 0 5.8-.5 6 1.2v4.3c0 1.4.7 4.3-.7 4.8-1.4.4-9.8-.1-11-.3zm-.5-10.4c-.7 1.7-.5 8.9 0 11 1.7.5 4.3.2 6.5.2 7.7 0 6.7 1.4 6.5-9.1 0-2.6-.2-1.9-.7-2.2-1.5-.8-10.6-.6-12.3.1z"/>
  <path fill="#F1F9FB" d="M377.5 424.6c0-1.4.2-2.9.2-4.6 0-.5-.2-1.9-.2-2.2.2-1.7 0-1 .7-1.4h-.2c.7-.7-.5-.2 1.4-.7 0 0 8.9-.5 9.6.7.7 1.4.7 6.7.2 8.4-1.9 1-9.4.5-11.5 0 1 1.9 1.9 1 5.5 1 1.2 0 5 .2 5.5 0 2.4-1 1-7.7 1.4-10.1-2.4-.5-3.6-1.4-6.7-1-1.7.2-1.9.2-4.1 0-1.4 0-.7.5-2.6.5.5 2.6 0 4.3 0 7 .1 1.9.3 2.1.8 2.4z"/>
  <path fill="#75C8E8" d="M343.9 425.3c-.2-.2 0-.7-1.7-1h-15.6c-1-.7-.7.2-1-1.9l.2-5.3c2.4-.5 6.7.2 9.8-.2 2.2-.5 1.7-1 1.9-1.2-2.2.2-2.9.7-5.8.7-2.2 0-4.6-.2-6.7.2-.2 1.4-.2 6.7.2 7.9 2.2 1.3 15.1.3 18.7.8z"/>
  <path fill="#337794" d="M442.6 397.2v8.6l-2.9.2c-7.9.5-7.7.2-7.7-2.9 0-1.9 0-4.3.2-6h10.4zm-11.1 9.4c1.2.2 9.6.7 11 .2 1.4-.5.7-3.4.7-4.8v-4.3c-.2-1.7-2.4-1.2-6-1.2-1.9 0-4.1 0-5.5.2-.4 1.9-.4 7.7-.2 9.9z"/>
  <path fill="#679980" d="M190.1 397.2c1.9-.5 3.6-.5 5.5-.5h4.6c1.4.2.7.2 1 .5l.2.2v8.6c-1.2.7-9.8.7-10.8 0-1-1.1-.3-7.1-.5-8.8zm-.3 9.4c.5 1.2 9.8.5 11.5.5 1-1.7 1-8.4.2-10.3-.5-.7-7.9-.5-9.1-.5-3.4 0-2.2.5-2.4 1-.2.2-.2-1-.5.7l.3 8.6z"/>
  <path fill="#708EBA" d="M485.3 388.1v9.8c0 2.6-.2 3.4 2.2 3.4l6.2-.2v-12.7c.2-1.2.2-1.4 1-2.2 0-.2.7-.7.7-1 .5-.7.2 0 .2-1-4.3 2.4-1.9 8.9-2.9 16.3-1.9.2-4.8.2-6.7 0v-11.3c-.2-1.6.2-.6-.7-1.1z"/>
  <path fill="#DFC229" d="M202.1 396.5l.2 8.9c-.2 2.2-.7 1.7-1 1.7-1.7 0-11 .7-11.5-.5-1-.7-.5-2.6-.5-5 0-3.8-.5-5 1.4-5.5l11 .2c-.5-1.2.2-.2-1.2-.7h-5c-7.2 0-6.7-.7-6.7 5.8 0 1.9-.2 4.6.2 6 1 .5 11.3.7 12 .5 2.4-.5 1.4-5 1.4-8.4.4-3.3 1.6-.9-.3-3z"/>
  <path fill="#82BFDF" d="M378.5 395.3c1.9-.2 8.2-.5 10.1 0 .2 1.4.2 2.6.2 4.3 0 2.2.5 2.4-1.9 2.4-1.9 0-6.7.2-8.4-.2v-6.5zm8.1 7.4c3.6 0 2.9-.2 2.9-4.1 0-2.9.7-4.1-2.2-4.1H378c-.5 1.9-.5 6.2 0 8.2h8.6z"/>
  <path fill="#3990C4" d="M387.8 417.1c.2-.2.2 0 .5 0 .2 1.2.2 2.2.2 3.6 0 3.1-.2 2.6-1 3.1-1.4.7-6.7.5-8.4 0l-.5-6c.5-1.4-.5-.7 1.2-1l8 .3zm-9.8-.7h.2c0 1.9-.5 6.7.2 7.9 1.7.5 8.9.5 10.3 0 .5-1.4.5-6.2 0-7.4-1.6-1.2-8.3-.7-10.7-.5z"/>
  <path fill="#1F7FA8" d="M201.1 397.2l-.2 8.2-2.4.5c-1.2.2-1.7.2-2.9.2-.7-.2-1.2 0-1.7 0l-1.7-.2c-1-.2-1.2-.5-1.4-1.7v-6.5l10.3-.5zm0 0c-.2-.2.5-.2-1-.5h-4.6c-1.9 0-3.6 0-5.5.5.2 1.7-.5 7.7.5 8.9 1 .7 9.6.7 10.8 0v-8.6l-.2-.3z"/>
  <path fill="#A4D3E7" d="M378.2 416.4c-.7.5-.5-.2-.7 1.4 0 .2.2 1.7.2 2.2 0 1.7-.2 3.1-.2 4.6.7 0 .2 0 .2.2 2.2.5 9.6 1 11.5 0 .5-1.7.5-7-.2-8.4-.7-1.2-9.6-.7-9.6-.7-1.9.5-.7 0-1.4.7 2.4-.2 9.1-.7 10.8.5.5 1.2.5 6 0 7.4-1.4.5-8.6.5-10.3 0-.7-1.2-.3-6-.3-7.9z"/>
  <path fill="#6EBDDF" d="M337.9 415.7c1.7-.5 1.4-.5 2.6-1.4 1.2-1 1.7-1.9 2.2-3.6.5-2.2-1-3.6-.7-4.6-2.4-1.4-2.6-3.1-6.5-3.4l1.9 1c.5.2 1.2.7 1.9 1 3.8 2.9 3.1 7.4.5 9.6l-1 .5c-.9.6-.2-.1-.9.9z"/>
  <path fill="#B5B247" d="M189.8 406.6l-.2-8.6c.2-1.7.2-.5.5-.7.2-.5-1-1 2.4-1 1.2 0 8.6-.2 9.1.5.7 1.9.7 8.6-.2 10.3.2 0 .7.5 1-1.7l-.2-8.9-.2-.2-11-.2c-1.9.5-1.4 1.7-1.4 5.5-.2 2.3-.7 4.2.2 5z"/>
  <path fill="#82BFDF" d="M262.3 434.4c1.4-.5 1.2-.5 1.9-1.2.2-.2.7-.5 1-.7.2-.2 0-.2.5-.5 1.2-1.7 2.9-2.4 3.4-4.8-1.9 1.4-1.4 2.2-4.8 5-.2.2-1 .7-1 1-1 1-.5 0-1 1.2z"/>
  <path fill="#B3D2E5" d="M403.4 410.4c-.2-.2-.2-.5-.2-.2-.2 0-.2-.2-.2-.2-1.2-1-.7-.2-1.7-1.2 1.7-.7.5-.2 1.2-.7-1.2 0-1.9 0-2.9.7.7 1 0 .5 1.4 1.2.8.2 1.5.2 2.4.4z"/>
  <path fill="#A8C0D7" d="M504.2 410.4c-.2-.2 0-.5-.5-1l.7-.7-2.4.5c.5 1 0 .5.7 1 .8.4 1.1.2 1.5.2z"/>
  <path fill="#8CACCD" d="M96.5 438.2c-.5-.5 0-.2-1-.7l-1-.5c-.7-.5-.7-.7-1.7-1 .5 1 .5 1 1.4 1.4.8.6 1.3.8 2.3.8z"/>
  <path fill="#C6CFE1" d="M61 433.2l1 .7 1-1-1.2-.7m451.3-66.9h1v-.7h-1m15.1 82.8c-.2 0-1 0 0 .2.2.2.7.2.5-.2-.7-.8-.2-.3-.5 0z"/>
</svg>
