<svg xmlns="http://www.w3.org/2000/svg" width="643.1" height="643.1">
  <g fill-rule="evenodd" clip-rule="evenodd">
    <path fill="#6BB92D" d="M411.8 547.5c8.2-3.3 12.7 9.1 4.9 12.3-4.1 1.7-7.6-.8-8.8-3.6-.8-1.9-.6-4 .3-5.7 1-1.8 1.8-2.2 3.6-3zm-183.8.1c8-3.5 12.9 9.1 4.7 12.2-7.7 3-13.5-8.4-4.7-12.2zm68.8-12.3c1.1-1.7 6.7-5.3 6.7 3.7v13.8c0 1.1-.6 6.2 1 5.5.9-.4.6-1.7.6-3.1v-3.3c0-4.4-.8-24.5 1-27 4.2-5.7 16.7-4.9 21.5-1.6 3.8 2.6 3 5.1 3.1 10.8 4-1.4 13.3-2.9 13.5 4 .4 13.6-2.5 22.1 3.8 19.9.8-2.4.3-16.8.3-20.7-.4-1.1 0-.2-.7-.8-.9-.9.2 1-.9-.8.9-1.7 2.8-3.3 5.4-2 1.9 1.1 1.5 4.2 1.5 6.9v15.9c0 9.5 1.5 15.7-11.4 20.4-21.9 8.1-39.3-12.3-51.4-.6-3.6 3.5-2.9 7.7.4 11.1 11.1 11.3 37.3 9.2 47.6-1.8 1.2-1.3 2.6-2.8 3.7-4.4 2.3-3.1 1-1.4 3.8-3.9 3.1-2.7 5.9-5.4 11.2-4.6 5.3.8 7 3.7 6.6 9.5-1.7-.8-1.8-2.8-3.7-3.7-5.9-2.8-7.9 7.8-9.9 11.1-3 5.1-10.3 9.7-18.5 10.9-17.3 2.6-50 0-50.5-20-.1-5.4.9-7.8 3.9-10.8 19.1-19.4 44.4 3.6 56.6-.3 3.4-1.1 6.4-4 6.5-8.1-6.4 0-14 .9-15.4-5-1.1-4.3 1.1-17-.7-19.7h-1.2c-.8 1.5-.3 16-.4 19.1 0 3.9-.4 4.8-4.2 5.4-2.4.4-6.3.6-9 .3v-2.5l1.9-.8-.2-31.3c-2.4-1.9-8.3-2.3-9.4.5-.4 1.2-.2 21.3-.2 24.2 0 4.3 1 8.5-2.6 9.5-1.8.5-10 .1-12.4.1-3.9 0-7.6.2-10-2.1-3.3-3.2-1.5-16.7-1.9-22.5-.4 0-1.2-.1-1.5-.1l-.7-.2c-.1 0-.3 0-.3-.1-.1-.1-.2-.1-.3-.1 1.5-4.9 13.7-4.1 14.4.8 1.4 10.1-3.6 23.9 3.9 21 .9-2.3.4-16.8.4-20.6-.4-1.5-1.3-.1-1.9-1.9zm-234.5-89c.8-.7 21.1-11.2 22.9-11.7l2.2 4.5-9.8 5.2 4.7 8.9 9.9-4.9 2.2 4.6-22.9 11.5-2.1-4.3c1.3-1.5 6.6-3.2 8.8-4.9l-4.5-9-9.2 4.5-2.2-4.4zm510.3 14.5c-2.6 2.4-6.6 1.9-9-.1-2.8-2.2-2.6-4.3-2.3-8.3-4.2 1.6-9 2.7-13.7 2.3.2-.8 1.6-4.1 2.4-4.8 3-3 12.5 1.5 15-6.2l-9.4-4.8c.5-1.6 1.4-3.4 2.5-4.6l22.7 11.5c-1 3.4-6.1 13-8.2 15zM80.5 425.1l-23.3 10.2 1.7 4.1c0 .1.1.2.2.3 0 .1.1.2.2.3l23.3-10.2c-.4-1.8-1.1-3.5-2.1-4.7zm487-12.2c.1-1.5 1.1-4 1.8-5.1 4.5 3.3 16.6 15.7 20.3 18-.2 1.9-1.1 4-1.9 5.6l-27.6.2 2.2-5.1 6.1-.1c.8-2.9 2.1-5.2 3-8 .8-2.6-.6-2.2-3.9-5.5zm-497.1-16c.8 1.2 1.2 2.8 1.6 4.3l-18.6 6.3 20.4-1.1 1.2 4.5c-2.1 2-5.9 3.9-8.5 5.5-2.9 1.9-5.5 3.5-8.2 5.4l18.5-5.7 1.2 4.2c-1.2.9-22.5 7.9-24.5 8l-2.1-7.2c2.8-2.6 12.7-7.6 14.5-9.9l-17.5.8-2.2-7.4 24.2-7.7zm518.7 8.4l-1 5c6.8.9 9.6-3.7 10.4-9.6.9-6.6-4.6-11.7-10.3-8.1-4.7 3-5.5 10.8-9.3 10.5-3.1-.3-5.1-8.2 2.4-10 .1 0 .2-.1.3-.1.1 0 .2-.1.3-.1.1 0 .2-.1.3-.1.1 0 .2-.1.3-.1l.8-4.5c-7.1-.6-9.9 2.6-11.4 8.7-1.6 6.4 1.3 11.7 7.6 11.6 5.8-.1 7.3-6 10-9.9 1.8-2.7 4.9-2.8 4.6 1.8-.2 3.4-1.5 4.3-5 4.9zm-545.5-7.9l25.2-5.2-.9-4.9-9.6 1.8c-.7-3.5-1.3-7.7-3.1-10-2-2.5-5.8-3.7-9.8-1.8-7.3 3.1-3.3 13-1.8 20.1zM581 359.3c1.3.2 21.8 12.6 23.8 14.2l-1.1 5.3-27 5.6 1.1-5.5 6-1.1 1.7-10.5c-1.8-.7-3.5-2.1-5.2-2.6l.7-5.4zm-545.8-7.8c2-1 14.1-2.1 17.2-2.3 6.7-.3 9.3 2.9 9.9 9.2.7 6.8-1.7 10.1-7.8 11.1-5.1.9-11.7 1.7-17 2.2l-.6-5.1c4.3-.7 8.6-1.1 13-1.6 4.8-.6 8.7-.7 7.9-6.5-.8-6.1-8.4-3.8-16.3-2.7-1 .1-2.1.3-3.2.5-1.5.2-1.9.2-2.7-.3l-.4-4.5zm573.9-13.9c.3 12.5-.8 21.5-14.4 20.7-5.3-.3-9.6-2.5-11.2-6.2-1.7-4-.4-11.6-.1-16.2l25.7 1.7zm-549.3.3l.1 4.7-25.8.5-.1-5.3c2-.7 6.3-3.8 8.3-5 1.8-1.1 6.7-3.8 7.9-5.6l-16.4.2v-4.8l25.7-.3-.1 5.2-16.1 10.6 16.5-.2zM608.7 299l.3 5-10.2.5.4 10.1 10.1-.2.1 5-25.8.9v-5.2l11-.4-.4-10.1-11.2.2-.1-5.1 25.8-.7zm-548-5.4c.1 1.6.1 4.2-.7 5.2-3.2 3.7-6.6-3.9-6.5 12.5 1.6.5 4.2 1.5 5.5 2.7l-.5 5.2L33.7 307l.5-5.6 26.5-7.8zm521.5-2.3l5.1-2.9c.1-1.2-.7-8.6-1.5-10.3l-5.8-1.5-.6-5.2 26.9 6.4.6 5.4c-1.8 1.5-22.4 13.2-24.1 13.7l-.6-5.6zM63.6 275c-1.1 1.8-15.6 5.2-17.7 7.5l15.7 3.1-.9 4.7-25.1-4.9c-.2-3 .2-4.8 2.2-5.7 4.4-1.9 13.6-4.4 17-6.5l-16.4-3.3.9-4.7 25.3 4.8-1 5zm536-28c.6 1.5 1 3.3.9 4.9l-20.1 4.8c-.1 2.7 2 9.4 2.6 12.6l-4.2.8-3.9-17.6 24.7-5.5zm-20-27.1c-19.2 4.7-11.2 28.6 4.6 24.7 18.7-4.7 11.8-28.7-4.6-24.7zM50.7 223l24.2 8.5c0 1.7-.7 3-1.2 4.5l-18-6.1L72 240.8l-1.5 4.8-20.1-1.4 18.1 6.4L67 255l-24.2-8.5c.3-1.7 1.7-5.7 2.4-7.2l17.6 1.1c-2.5-2.4-12.5-7.8-14.6-10.1l2.5-7.3zm8.3-19.4l-2.3 5 19 19.6c.1-.1.2-.3.2-.2l2.1-4.3-4.1-4.4L78 210l6.4.3 2.3-5.1-27.7-1.6zm519.6-12.5l1.8 4.6c-2.8 1.9-7.4 2.7-9.7 4.9 9 4.7 15.2 1.1 16.8 10.9l-12.9-4.3-9.7 15.4-1.5-2.2c-.3-.7-.8-1.7-1-2.3-1-2.9 4.9-7.5 7.2-12.6-6.8-4-6.8-.4-12.5.9-.9-1.1-1.8-3-2.1-4.6l23.6-10.7zm-488.7 6.6c-.3 1.8-1.4 2.8-2 4.4-2-.4-9.2-5-11.3-6.2-3.6-2-7.7-4.8-11.3-6.4l2.6-4.4c2.6.8 6 3.6 8.8 4.7 1.1-1.8 4.3-6.9 4.9-8.8l-8.6-4.9 2.5-4.6 22.2 12.6c-.4 1.9-1.5 3.6-2.6 4.6-2.8-1.1-6.3-3.8-9.4-5.2-1 .7-4.5 6.9-5.2 8.5 1.3 1.3 7.2 4.2 9.4 5.7zM543.6 181l9.5 16.7 3.6-1.9c-1-3.6-6.4-9.9-6.7-12.7l5.6-3.2c1.8 1.6 4.8 8.4 6.5 10.8 1.3-.2 2.5-.9 3.6-1.9-.8-3.2-5.3-8.2-6.1-11.4 1.6-.7 3.1-2.2 4.9-2.4l6.8 11.6 3.7-1.9c-.6-2.2-7.7-13.9-9.3-16.5-1.8.6-21.4 12-22.1 12.8zM114 161c-5.8-1.1-23.4-6.4-27.1-6.5l-2.8 4.2c.7 1.8 2.5 4.1 3.6 5.8l9.4 14.6c.9 1.5 1.1 2 2.2 2.8l2.8-4.1c-.5-1.8-2.4-3.7-3.2-5.3.4-1.1 5-7.3 6-8.3l6.1 1.4c1-1.6 2.4-2.7 3-4.6zm424.5-1.9c-1.3 2.2-2.8 3.8-.8 7 .9 1.5 3.7 4.4 6.3 2.3 3.4-2.7-4.5-10-1.5-16.2.9-1.9 3-3.9 6.3-3.8 7.4.3 13.6 13.8 6.5 17l-2.8-3.6c.6-2.4 2.1-2.9.2-5.9-.9-1.5-2.4-3.2-4.9-2.5-2.2 3.2 1.9 8.2 2.4 12 .6 4.9-3.1 8.7-7.8 8.7-7.8-.2-14.8-14-6.9-18.7 1.2 1.2 2.2 2.5 3 3.7zm-427-9c3.8.9 4.6 1.6 7.3-1.2 1.9-2 2.7-6-.2-6.7-3.4-.8-8.2 6.4-13.9 5.7-5.9-.7-7.3-7.8-3.7-12.4 2.3-3 8.5-8.3 13-3.3-.8 1.5-1.7 2.4-2.9 3.7-3.4-.4-3.6-1.2-5.9 1.3-1.2 1.4-2.4 3.3-1 5.1 2.8 1.3 7.8-3.6 10.6-4.9 7.3-3.2 16.5 5.9 5.9 15.7-5.3 4.9-8.8 2.2-11.9 1.2.5-1.8 1.5-3 2.7-4.2zm1.5-27.8c1.1 2.5 10.6 10.4 13.5 13.5 1.7 1.8 3 3.5 4.9 4.6 1.4-.8 2.4-2 3.4-3.4-.9-1.7-15.4-15.5-18-17.8-1.6.6-2.6 2.3-3.8 3.1zm425 8.7c-1.3 2-9.2 9.1-11.4 11.2-1.8 1.7-3.8 4-7.5 3.8-2.9-.2-5.8-2.5-7-3.9-5-5.7-4.7-9.7.4-14.8.9-.9 1.9-1.8 2.9-2.8 1-1 1.7-1.6 2.7-2.6 1.4-1.3 4.3-4.4 5.9-5.3 1.4.8 2.5 2 3.3 3.4-3.4 6.1-18.1 12.1-11.7 19 5.7 6.1 13.4-8.3 19-11.4 1.6 1 2.5 2.2 3.4 3.4zm-51.8-14.2c1 1.3 2.2 2.2 3.6 3 1-.5 0 .2 1-.7.3-.3.7-.8 1-1.1l4.9-6c5.3 2.3 2.7 8.6 2.3 16 1.8 1.1 2.9 2.6 4.6 3.5 1.2-4.3 1.7-9.6.8-13.9 3.6 1.4 6.3 1.9 8.9-.7 2-2 3.6-5.3 1.6-8.6-1.5-2.6-9.5-8.9-12.2-11-1.2.6-16 18.3-16.5 19.5zM135.4 124l-3 3.3c3.7 7.3 18.6.7 18.2-8.1-.2-4.3-4-8-8.9-7.2-3.5.6-9.7 5.4-12 3.2-1.4-2.3.8-4.1 2.1-5 2.7-2 3.4-.8 5.9 0 1.2-1.7 2.2-2 3.4-3.3-6.5-10.1-24.8 8.7-12.4 13.8 5.8 2.3 11.7-4.4 15.1-3.3 2 .7 2.8 3.7-.6 6.7-3.2 2.8-4.9 1-7.8-.1zm360.8-31.7c-2.6 4.2-6 8.7-8.9 12.9-3.7 5.2-7.7 7.5-14.5 2.5-5.6-4.1-6.5-7.7-2.3-14.4 1.6-2.5 7.6-11.5 9.2-12.8l3.8 2.9c-.6 1.8-5.6 8.4-6.9 10.3-.6.9-3 4.1-3.3 5.3-1.1 4.2 4.9 8.9 8.5 4.8 2.5-2.9 8.9-13.1 10.6-14.5l3.8 3zm-336.7 22.4c-1.4-.6-18.5-15.7-19.9-17.5l4-2.8c1.1.5 2.1 1.7 3.4 2.7 2.1 1.8 8 7.9 9.9 8.6L151 89.1c1.6-.9 3.1-2.3 4.8-3.2 2.2 1 9.8 8.7 13.9 11.4L163.1 81c.9-1.1 2.6-2.4 4.2-2.9l9.4 24.4c-1.3 1.1-2.8 2.5-4.6 3-3.2-2.2-12.6-11.3-14.9-12.2.5 2.2 2.3 6.4 3.3 9 .9 2.4 3 7.4 3.2 9.6l-4.2 2.8zm19.8-43.6c.8-.4 1.4-.8 2.5-1l15.9 13c1.1.9 4.5 3.4 5.1 4.4-1.2 1.1-2.8 2.1-4.6 2.6l-4.9-3.8-8.8 4.9.7 6.3-4.4 2.2c-.7-1.6-3.7-23.8-3.8-26.9l2.3-1.7zm287.8 15.5c-1.4-1.2-7.7-4.8-9.5-5.2-1 1.1-1.7 2.3-1.9 3.6l4.8 2.7c-1.3 5.4-7.1 2.5-8.9 1.2-5.9-4.4-.6-16.3 6.4-15.9 4.5.3 6.5 3 6.5 7.4 2.1.7 7.4 4 4.8-4.1-2.3-7.2-17.3-13.5-23.8-.2-7.7 15.6 12.1 22 16.7 19.1.9-.3 4.6-7.3 4.9-8.6zm-87.3-21.5c2.2-3.7 5.4-7.7 8.1-11.2 2.6-3.4 5.4-7.3 7.9-10.9l5.5 1.4 3.2 27.7c-6.4-1.3-5.6-1.4-6-7.6l-10.1-2.7-3.4 5-4-1c-1-.5-.4-.2-1.2-.7zm-175.5-6.9c1.4-1.2 7.7-3.2 9.8-4 11.5-4.3 14.3 8 9.9 12.3-2.3 2.2-6.1 3.2-9.2 4.6l3.2 9c-1.4.9-3.2 1.6-4.8 1.7l-8.9-23.6zm212.3-8.7c1.1.5 4.2 1.4 4.6 2.3 0 .1.1.2.1.3 0 .1.1.2.1.3.8 2.2 2.5 16.4 3.7 18.2L431 55l4.4 1.9c-.7 2.6-8.2 22.2-9.3 23.8l-4.7-1.8-3.6-19c-2 3.4-4.3 12.7-6.3 15.2l-4.4-1.5 9.5-24.1zm-95.2 10.3c-4.6 5.9-7.2 11.2-7.5 19.1-.1 4.8-4.4 5.1-4.7 13-.2 5.8.2 2.8-2.1 7-3.5 6.7-2.4 9.3-3.7 14.2l-17.6.2c.1.2.2.2.2.3l15.7 10.4c.1 4.9.9 3.7-8.2 4.8-3.9.5-7.5 1-11.4 1.7-20.1 3.2-42.2 10.8-59.3 19.5-22.1 11.3-36.5 22.3-53.2 38.3-2.4 2.3-4.3 4.5-6.7 6.7-16.3 15.6-33.8 42.1-42.7 62.3-13.5 30.4-16.8 53.1-18.9 86.1-3.9 2.3-11.3 10.2-14.7 13.7-2.2 2.3-11.4 13-12.5 15.8 7.7 5 30.4 17.8 39.4 22.8 3.1 1.7 37.6 22.2 39.8 22.7 21.7-20.6 47.7-26.5 86.1-18.5 19.9 4.2 42.8 13.9 60.6 22.8l18.3 10.1-158.9.2-.1 32.9-51.8-.1c.7 1.6 17.1 20.4 19.8 23.5 1.7 2.1 5.4 5.9 6.4 8.1-2.4 2.8-25.8 31.1-26 31.9l67.3.1c2.3 0 2.9-.5 4.1 1.1 1.8-3.7 1.2.8 1-8.3-.2-6.5-1.8-24-1.3-27.9h286.6c.6 3.2-.1 14.1-.1 18.1-.1 4.7-1 13.7-.4 17.7 1-.6 0-.8 2.2-.8h70.2c-.5-2.1-24.7-29.6-25.9-32.4.7-1.1 2.4-3 3.2-3.9 1.2-1.4 2.3-2.5 3.4-3.9l19.6-23.5-52 .1v-32.8H324.9c1.8-3 34.3-17.8 37-19 26.6-11.7 62.4-22.4 92-15.3 16.9 4.1 26.4 11.3 35.8 19.8 2.3-.7 54.3-31.1 59.2-33.9l19.8-11.6c-1.3-5-18.2-22.2-24-27.3-2.2-1.9-1.6-2-1.7-5.7-1.3-47.1-20.7-95.6-47.5-129.4-15.9-20.1-41.3-41.6-63.4-54.2-27-15.4-53-24.7-89.2-28.8l-.2-3.7 15.5-10.4c.1 0 .2-.2.2-.2L339 113c-.9-7.4-.2-7.5-3.5-13.6-.8-1.4-1.8-11.9-2.5-14.9-3.6-14.5-8.4-20.8-9.8-25.6 8.1 0 20.1 2.5 19.6-13.6-.2-5.5-2.1-9.1-5.7-11-2.6-1.4-12.5-1.7-15.7-1.1l-.3 24.7c0 1.9-.3.6.3 1.9zm-73.9-16.6l1 4.1-13.2 3.6 1.5 5.2c3.9-.3 9-2.9 12.5-2.9l.8 4-12.3 3.2 1.9 6.8 13.9-3.5 1 4.1-18.6 4.9c-1-1.5-6.5-22.2-6.8-24.8l18.3-4.7zm62.6-9.7h5.1l.3 25.8h-5.1l-.3-25.8zm-27.3 2.1c4.1-.4 12.9-1.4 16.2.2 7.8 3.7 8.5 19.8.7 23.6-2.3 1.2-12.5 2.3-15.3 1.7l-1.6-25.5zm-19.4 29.8l-4.3.7c-.9-1.4-1.1-4.6-1.4-6.3-1-6-2.6-12.8-3.3-18.8 1.3-.8 4.3-1.2 5.1-.8.8.4 11.1 13.2 13.1 14.3L269.9 38l4.6-.7 4.3 25.4c-3.4.4-4.4 1.7-6.5-.7-2.4-2.8-10.1-11.7-11.6-12.7l2.7 16.1zm97.9-29.5L356.8 61c1.4.7 3.1.9 4.8 1 1.1-2 .6-4.9 1.6-7.2.4-.9 3.8-3.2 4.9-3.5l4.9 12.9 6.6 1.1-7.3-17.2 8.1-6c.7-.5.9-.6 1.4-1l1.3-1.3c-7.3-1.5-5.5-1.8-10.5 1.9-2.7 2-5.5 4.3-8.1 6.2l1.7-10.8c-1.1-.8-3.3-1.1-4.9-1.2zm-11.7-1.2c1.6-.3 3.4.1 5.2.4l-3.1 25.4c-1.9.1-3.5-.1-5.1-.7l3-25.1zm280.2 301.7c3-45.2-7-94-22.3-131.2-7.6-18.6-16.5-35.3-26.5-50.8-11.7-18.2-20-27.6-33.7-43.2-3-3.5-6.8-6.8-9.7-9.8-21.3-21.9-51-42-78.5-56.1-35.1-18.2-77-29.3-122.2-32-24.4-1.5-48.9.8-71.9 4.9-21.2 3.7-40.4 10.1-59.4 17.4-19.1 7.4-35.1 16.8-50.8 26.4-8 4.9-15.4 10.6-22.6 16.1-7.6 5.7-13.9 11.7-20.7 17.6-1.8 1.5-3.2 3.3-4.9 4.8-23.3 21.4-46.9 55-61 83.4-17.9 36-29.4 76-32 122.1-2.7 48.5 6.7 91.2 22.3 131.7C55 487 93.7 536.5 136.8 568.2c71.4 52.5 151.7 71.5 241.9 56.4 20.9-3.5 40.6-10.3 59.4-17.4 18.5-7.1 35.7-17 50.9-26.4 23-14.3 44-33.4 62.4-53.1 11.6-12.4 24-29.9 33.1-44.2 5-7.9 9.2-16 13.7-24.6 8.2-15.8 16.3-36.8 21.4-55.9 5.7-22.3 8.6-42.3 10.2-66.6z"/>
    <path fill="#0D0502" d="M629.8 336.4c-1.6 24.3-4.6 44.3-10.5 66.5-5.1 19.1-13.2 40.1-21.4 55.9-4.4 8.5-8.7 16.7-13.7 24.6-9.1 14.3-21.5 31.8-33.1 44.2-18.3 19.8-39.4 38.9-62.4 53.1-15.2 9.4-32.4 19.4-50.9 26.4-18.8 7.2-38.5 14-59.4 17.4-90.2 15-170.5-3.9-241.9-56.4C93.7 536.5 55 487 35.9 437.6c-15.6-40.4-25-83.1-22.3-131.7 2.5-46 14.1-86.1 32-122.1 14.1-28.5 37.7-62.1 61-83.4 1.7-1.5 3.2-3.3 4.9-4.8 6.8-5.8 13.1-11.8 20.7-17.6 7.2-5.4 14.6-11.2 22.6-16.1 15.7-9.6 31.8-19.1 50.8-26.4 19-7.3 38.2-13.7 59.4-17.4 23.1-4 47.5-6.3 71.9-4.9 45.2 2.8 87.1 13.9 122.3 32 27.5 14.1 57.3 34.2 78.5 56.1 2.9 3 6.7 6.4 9.7 9.8 13.7 15.6 22 25 33.7 43.2 10 15.5 18.8 32.2 26.5 50.8 15.2 37.3 25.3 86.1 22.2 131.3zm13.3-25.6c0-17-2.4-35.8-5.8-52.4-2.1-10.4-4.9-20.7-7.7-30.9-2.4-8.6-5.5-16.9-8.9-25.2-3.2-7.8-6.6-15.8-10.5-23.3l-17.6-31.2-24.7-33.5c-13.2-16.4-33.5-36-49.7-47.5-1.1-.8-1.4-1.3-2.7-2.2l-8.5-6.1c-1.2-.9-1.3-1.1-2.6-1.9l-14.7-9.7c-6-3.9-12.4-7.4-18.8-10.5l-13-6.5c-2.2-1.1-4.3-1.9-6.4-3-7.3-3.6-28.9-11.4-35.6-13.2C388.7 5.8 361.1 0 332.4 0c-29.5 0-45.4.1-74.2 5.9-17 3.4-34 8.3-49.9 14.4l-30.9 13.5c-1.3.6-1.9 1.1-3.1 1.8-.7.4-1 .4-1.7.8l-4.8 2.5c-1.1.5-2.1 1.2-3.1 1.8l-24.4 15c-5.9 3.9-11.7 8.1-17.1 12.6l-11 8.9c-6.8 6-20.4 18.1-25.3 24.3l-11.5 12.9c-4 4.3-7.5 9.2-11 13.8-7 9.4-14.1 19.2-19.8 29.4L38.4 169c-.2.4-.6 1.1-.9 1.6-.9 1.5-.9 1.7-1.6 3.2-3 6.3-7.4 13.8-9.8 20.3l-7 17.4c-4.3 10.7-8.8 27.3-11.2 38.4C2.7 273.7 0 296.5 0 321.4c0 30.2 4 59.3 12.1 88 3.6 12.9 8.3 25 13.2 37.3l11.2 23.8c6.4 11.9 13.1 23.7 21.1 34.7 2.9 4 5.4 7.7 8.4 11.5.8.9 1.3 1.8 2.1 2.8L75 528c6 7.4 12.6 14.3 19.3 21 6.7 6.7 13.5 13.2 20.8 19.1l22.8 17.5 2.9 2c8.8 6.3 18.3 12.3 28.1 17.1 1.2.6 2 1 3.2 1.7 1.3.8 2.2 1 3.5 1.8 2.3 1.3 4.5 2.3 6.7 3.4 1.1.6 2.1.9 3.4 1.5 15.1 7.2 31.1 13.3 47.5 18 13.6 3.8 27.4 6.8 41.5 8.9 3.2.5 5.9.6 9.1 1.1 9.9 1.3 20.9 2.1 32.2 2.3h13.1c10.4-.2 20.7-.9 29.9-2.2 24.8-3.4 48.5-7.7 71.9-16.7 2.4-.9 4.9-1.6 7.1-2.6 4.6-2 9.3-3.8 14-6 1.3-.6 2.1-.8 3.4-1.5 1.2-.6 2-1.1 3.3-1.6 6.8-2.9 13.1-6.7 19.6-10.1l9.3-5.4c9.1-5.7 18-11.4 26.5-17.8l16.5-13.2c4.4-3.4 11.6-10.2 15.7-14.4l16.7-17.5c1-1.1 1.3-1.7 2.4-2.8 9.1-9.3 25.7-33.6 33.1-45.8 1.3-2.1 2.2-4.2 3.4-6.3l15-29.8c2.4-5.8 5-11.7 7.1-17.7 7.1-20.6 12.8-41.4 15.9-63 .9-6.1 1.4-12.1 2.1-17.8.5-4 .8-8 .9-12.2v-28.2z"/>
    <path fill="#0D0502" d="M469.4 513.5l.8-18.7 8.8.5c-.1 1.5-3.5 7.4-4.4 9.1-1.6 2.9-3.2 7-5.2 9.1zm-303.8-18.7c1.5-.1 7.3-.5 8.6.4l.6 18c-1.2-3-7.7-13.8-9.2-18.4zm-2.5-29l.2-28.7 317.9-.1c.1.7.6 43.6-.1 53.4l-317 .1-1-24.7zm343 31.7c.5-1.5 14.2-17.4 17.1-20.7 1.7-2 4.6-4.9 5.7-7.1-4.5 0-38.5-.4-43.5.2l-.1 23.4c-.5 1.9-.1.1-1.4 1.9l-11.4 21.1c-1.4 2.6-3.7 5.8-3.7 9.1h60c-.2-.8-19.5-24.6-22.7-27.9zM116 469.9c1.1 1.4 1.8 2.4 2.8 3.6l14.4 16.9c1.2 1.3 4.7 5.3 5.5 6.7-1.7 3.2-21.9 26.1-22.8 28.4H176c-.4-2-6.4-13.7-7.9-16.4-1.4-2.7-2.7-5.4-4.1-8.2l-3.1-5.9c-1.2-1.3-1.2-.3-1.5-1.1-.8-2.4-.5-20.2-.5-24.2l-42.9.2zm222.9-49.7c1.9-2.5 13.7-10.6 17.4-13.1 19-12.9 39.8-22.7 62.9-28.7 24-6.2 54.8-6.6 76 7.9 4.1 2.8 12.9 10.7 14.5 15.9-1.4 1.3-18.7 11.1-20 11.4-6.7-7.7-21.7-15.1-32-17.9-33.5-9.4-71.4 3.2-101.9 16.5l-16.9 8zM133 402.3c.9-2.8 4.7-7.1 6.5-9 20.5-21.9 57.5-21.5 84.5-14.8 23.9 6 43.6 16 63 28.9 3.2 2.2 6 4.1 9.1 6.4 2.6 2 6.1 4.4 8.2 6.6-2.7-1.1-5.7-2.7-8.4-4-32.6-15.7-75-30.7-111.1-20.6-9.2 2.6-17.9 6.8-25.4 12.4-1.7 1.3-5.6 4.9-6.8 5.5L133 402.3zm199 19.8c5.9-4.3 10.7-8.6 18-13.9 18.1-12.9 43.4-26.2 66-31.7 18.6-4.5 38.3-7 57.8-2.2 14.9 3.7 26.3 10.4 35.2 21.8 1.3 1.7 2.1 3.3 3.3 4.8l28.5-16.5c-1.9-5.6-13.9-17.1-19.2-21.1-27-20.6-66.5-20.9-97.6-10.6-34.4 11.4-61.5 30.7-83.4 57.7-2 2.3-7.7 9.3-8.6 11.7zm-230.1-37.7l28.5 16.6c9.4-14.5 20.6-22.1 38.1-26.6 33.6-8.6 75.2 4.6 103.9 21.1 14 8 17.5 11 29.3 19.5 3.2 2.4 5.5 4.7 8.9 7.1-2.1-4.7-13.8-18.3-17.6-22.4-6.6-7.1-13-12.5-21.2-19.1-6.6-5.3-16.1-11.5-24.4-15.8-9.5-4.9-17.5-8.5-28.5-12.1-30.8-10.2-71-10.1-97.7 10.5-3.8 2.9-7.9 6.4-10.6 9.7-2.4 2.9-7.2 7.8-8.7 11.5zm223.6-31c-.8 3.1-2.7 1.4-3.7 3.3v76.1c-.3-.5-.2 0-.3-.9-.1-.4-.1-.7-.1-1.1v-2.5c.1-10.8.3-68.6-.1-72.4-2-1.1-3.4-1.3-3-4.5.3-2.4 2-3.5 4.8-3 1.9.4 3 2.5 2.4 5zM79.8 371.7c2.6 1.6 18 10.8 20 11.2.9-2.6 6.5-9.2 8.4-11.2 9.7-10.5 20.6-18.3 35.4-23.2 22.9-7.5 45-6.4 68.5-.6 33.5 8.3 62.6 28.2 84.9 52.2l9.2 10.5c.1.1.2.1.3.2-.9-3.3-6.5-11.9-8.3-14.8-3.2-5-6.2-9-9.4-13.4-1.7-2.2-3.3-4.1-5.1-6.3-1.6-1.9-3.7-4.4-5.3-6-4.1-3.9-7.4-7.6-11.8-11.4-14.9-13-34.1-25.9-58.7-32.9-27-7.7-53.3-6.3-77.6 4.1-12 5.1-18.7 9.9-28.3 17.6-3.7 3-8.8 7.7-11.7 11-2.7 3.2-8.7 9.6-10.5 13zM335.7 412c19.4-25.1 52.5-53 93.9-63.7 32.5-8.4 67.8-7.3 94.6 13.8 7.7 6.1 12.6 11.8 18.8 20.7 2-.3 16.9-9.4 19.8-11.1-7.7-12.2-25-27.2-37.4-34.8-15.3-9.3-35.2-15.6-56.8-15.6-33 .1-62.1 14.1-82.1 29.3-11.5 8.7-19.1 16.4-28.7 27.4-4.1 4.7-8.2 10.4-11.9 16.1-2.6 4.2-8.7 13.2-10.2 17.9zm-48.3-125.1c1.6.1 5.7 2.3 8.2 2.9 13.4 3.3 17.2-6.3 25.4-7 7.1-.5 12 3.1 17.3 5.4 9 3.8 13.4-.2 18.1-1.4l1 14.1-71.1.1 1.1-14.1zm6.5-1.7c17.3 7.5 17.1-15 42.3-2.3 8.3 4.2 8.3 3.3 14.3 1.7l-13.4-158.3c-5.4-.4-21.8-.1-28.4-.1-2.7 0-1.8.9-2.5 8-.3 3.3-.6 6.8-.9 10.3l-10.1 120.4c-.2 4.7-1.8 16.4-1.3 20.3zm-57.9 48c.1-6.3 4.7-18 7.1-22.9 6.5-13.3 15.2-24.4 27.3-32.9 4.4-3.1 13.2-9.1 19.5-10.7l-1.2 15.7c-2.2 0-2.6-1.4-4.8-1.8-.1 4.4-.7 8.7-1 13.2-.4 5.2-1.2 7.4-1.1 8.1.2 1.4.3 1.3.2 3.1 4.3 0 3.7.8 5.9 3.1l12.7 13.3-19.4 46.3c-1.3-.9-3.6-3.7-5-5.1l-15.9-13.8c-6.4-4.9-11-8-18-12.1-2.2-1.2-4.5-2.1-6.3-3.5zm126.4-31.8c-1.7-1.6-1.4-5.8-1.7-9.9-.3-3.8-.7-7.4-.8-11.1-1.7 0-2.3 1.3-4.2 1.8l-1.3-15.3c4.8.6 16.1 8.1 19.5 10.6 12 8.6 20.4 19.3 27.1 32.7 2.3 4.7 6.7 16.8 7 22.6-8.5 3.8-17.8 10.4-24.5 15.4-3 2.3-13.7 11.1-16.2 14-1.6 1.8-3 3.1-4.9 4.8-1.2-1.1-13-30.6-14.9-35.1-4.7-11-6.1-9.3.6-15.7l9.2-9.6c1.6-1.7 1.6-1.6 4.4-1.8-.1-2.2-.5-2.3.7-3.4zm-66.3-110.1l.1.6c-.3 4.8-.8 9.6-1.2 14.4-.3 3-.4 12.4-1.4 14.2l-.2 5.9-2.1 23.4v2.6l-.7 8-.2 1.8c-4 1.7-7.3 2.8-11.3 4.9-17.1 9.1-30 23.2-39 40.4-1.6 3.2-3.5 7.4-4.7 11.1-2.4 7.5-1.9 8-3.1 12.7l-14.3-5.9c-5.2-1.9-10.4-3.3-15.6-4.6-11.6-2.9-24.5-3.9-37.3-3-11.7.8-23.3 3.8-33.1 7.7-5.2 2-5.8 2.7-8.9 4.1-6.3 2.8-16.3 9.6-17.4 10.1-.6-13.8 2.3-32.6 5.4-45.3l4.3-14.8c.6-1.5 1-3.1 1.6-4.5 6.1-16.8 15.7-35.5 25.9-49.8 12.5-17.4 15.2-19.5 29-33.7 5.7-5.9 13.7-12.4 20.3-17.5 28.4-22 70-40.2 109.2-42.1l-.2 1.9-5.1 57.4zm58.4 71.4c-1.1-.9-.8-1-.9-2.7 0-.9-.1-1.6-.1-2.5-.2-1.8-.4-3.5-.5-5.3l.1-1.6-2.1-22.8-.3-5.8c-.7-1.5-2.7-28-3-32l-.5-7.1-4.2-49 .3-2.1c52.4 4.2 101.5 29.9 136.2 66.1 15.5 16.2 29.5 34.5 41.6 59.8 10.3 21.7 19.2 54.3 17.7 83.3l-13-7.9c-15.4-8-28.4-12.6-46.7-14.4-12.4-1.2-26.1-.2-37.7 2.5-8 1.8-15.6 4.2-23.1 7.4-2 .9-5.2 2.5-7 3-1.1-4.9-1.4-8.1-3.1-12.8-6.2-17.7-18.5-34.5-33.4-45.1-6.6-4.9-11.8-7.6-20.3-11zm-9.3-145.4c-1 1.1-2.6 2-4.1 3-2.3 1.5-2 1.5-5.5 1.4h-27.7c-4.4 0-6.2-2.4-9.1-4.4h46.4zm-36.8-4c-1-.6-.6 1-.7-1.6-.1-2.8 2-10.7 4.4-12.7 1.5 1.3 12.4 12.3 13.3 14.3h-17zm26.1-.1c.7-3.4-.3-6.7-1.6-9.6-1.6-3.5-2.9-4.5-4.9-6.9-1.2-1.4-10.2-11.7-11.9-12.1-2.1 2.5-3.4 6-2.9 10.2.2 2.2 1.3 2.9 2.5 4.1l9.9 10.4c2.8 3.1 2.6 4.4 8.9 3.9zm-4.1-18c-1.1-.7-4.5-4.5-5.7-5.8-1.8-2-3.6-3.8-5.5-5.9-3.6-3.9.3-15.4 2.6-17.1 3.1 3.8 8.5 22.2 8.6 28.8zm-4.3-57.1c2.4-.9 7-.3 8.7.9 1.9 1.5 2.3 4.4 2.3 7.4-.1 8.2-2.9 9.3-11.2 8.4l.2-16.7zm-4.7 21.7c-4.6 5.9-7.2 11.2-7.5 19.1-.1 4.8-4.4 5.1-4.7 13-.2 5.8.2 2.8-2.1 7-3.5 6.7-2.4 9.3-3.7 14.2l-17.6.2c.1.2.2.2.2.3l15.7 10.4c.1 4.9.9 3.7-8.2 4.8-3.9.5-7.5 1-11.4 1.7-20.1 3.2-42.2 10.8-59.3 19.5-22.1 11.3-36.5 22.3-53.2 38.3-2.4 2.3-4.3 4.5-6.7 6.7-16.3 15.6-33.8 42.1-42.7 62.3-13.5 30.4-16.8 53.1-18.9 86.1-3.9 2.3-11.3 10.2-14.7 13.7-2.2 2.3-11.4 13-12.5 15.8 7.7 5 30.4 17.8 39.4 22.8 3.1 1.7 37.6 22.2 39.8 22.7 21.7-20.6 47.7-26.5 86.1-18.5 19.9 4.2 42.8 13.9 60.6 22.8l18.3 10.1-158.9.2-.1 32.9-51.8-.1c.7 1.6 17.1 20.4 19.8 23.5 1.7 2.1 5.4 5.9 6.4 8.1-2.4 2.8-25.8 31.1-26 31.9l67.3.1c2.3 0 2.9-.5 4.1 1.1 1.8-3.7 1.2.8 1-8.3-.2-6.5-1.8-24-1.3-27.9h286.6c.6 3.2-.1 14.1-.1 18.1-.1 4.7-1 13.7-.4 17.7 1-.6 0-.8 2.2-.8h70.2c-.5-2.1-24.7-29.6-25.9-32.4.7-1.1 2.4-3 3.2-3.9 1.2-1.4 2.3-2.5 3.4-3.9l19.6-23.5-52 .1v-32.8H324.9c1.8-3 34.3-17.8 37-19 26.6-11.7 62.4-22.4 92-15.3 16.9 4.1 26.4 11.3 35.8 19.8 2.3-.7 54.3-31.1 59.2-33.9l19.8-11.6c-1.3-5-18.2-22.2-24-27.3-2.2-1.9-1.6-2-1.7-5.7-1.3-47.1-20.7-95.6-47.5-129.4-15.9-20.1-41.3-41.6-63.4-54.2-27-15.4-53-24.7-89.2-28.8l-.2-3.7 15.5-10.4c.1 0 .2-.2.2-.2L339 113c-.9-7.4-.2-7.5-3.5-13.6-.8-1.4-1.8-11.9-2.5-14.9-3.6-14.5-8.4-20.8-9.8-25.6 8.1 0 20.1 2.5 19.6-13.6-.2-5.5-2.1-9.1-5.7-11-2.6-1.4-12.5-1.7-15.7-1.1l-.3 24.7c0 1.9-.3.6.3 1.9z"/>
    <path fill="#E77400" d="M232.1 449.7h9.8c1.2 2.2 10.9 27.7 11.1 29.8h-9.3l-1.7-4.9-10.2.1c-.9 1.4-1 3.1-1.7 4.8l-9.3-.1 11.3-29.7zm120 20.1c.4 4.1 9.3 5.4 9.6-2 .3-5.2-.6-13.4.2-18.2h8.9c.6 3.5.2 13.2.2 17.3-.1 5.9-2.3 9.5-6 11.5-3.6 1.9-11.1 1.9-15.1.7-3.7-1.2-7.2-5-7.2-9.8-.8-.8-.6-.9-.6-2.3l.2-17.4c1.7-.6 7.7-.6 9.4 0 .9 6-.6 14 .4 20.2zm-45.4-20c4.6-.3 10.5-.2 15.1-.1 13.8.3 11.1 13.5 6.7 16.7-3.6 2.6-7.9 1.6-12.6 2.1v11l-9.2-.1v-29.6zm-44.9-.1l12-.1 4.8 17.7 4.7-17.7 11.9.1-.1 29.7-7.4-.1-.1-20.7-.8 1.5c-.9 2.5-3.5 15.2-5 19.3l-6.7-.1c-1.9-5.3-3.9-18-5.9-21.5l-.1 21.6-7.5-.1.2-29.6zm128 19.4c1.9 10.3 14.9 2.4 6.9-.9-5.9-2.5-12.3-1.9-14.2-7.8-2.3-7.2 4.4-10.9 10.8-11.1 3.4-.1 7.1.3 9.6 1.7 1.8 1 4.4 4 3.8 7.2l-8.1.3c-1.2-1.8-1.2-3.3-3.7-3.7-2.6-.4-4.2.4-4.1 2.8 1.3 1.8 4.6 2 7.2 2.7 2.8.7 4.8 1.4 6.9 2.9 4.2 3 4 9.4.4 13.3-6.2 6.6-25.2 4.4-24-6.9l8.5-.5zm63.1-16.7c-.2-.8-.9-.5-1.4-1.3-.7-.9-.5.1-.4-1.6 2.1-.9 10.5-.4 13.4-.2v1.9l-2.1.7c-.1-.1-.2.1-.3.2l.1 25.6c2.3.9 2.4-.9 2.3 2-1 .6-10 .7-12.1.4l-1.3-.4c-.1-2.4-.2-1 1.4-2.3 1.3-1.2-.1.8.5-.5l-.1-24.5zm-16.2-.9c-2.3-.9-1.5 1-1.9-1.6.7-.6-.1-.2 1-.5l2.4-.2c1.9 0 8.9-.6 10.1.7-.2 2.5-.1.8-2.3 1.6l.1 26c2.2.9 2.4-1 2.1 2.3-2.8.3-11.4.8-13.3-.3-.2-3.2-.3-1.1 1.9-2l-.1-26zm-253-1.8h9l.1 10.8c1.9-1 7.2-8.6 9.8-10.8h11.7c-.6 2.1-8.7 8.7-10.2 11.2 1.2 3.2 8.8 13.7 11 18.6h-11.2l-6.1-12.1c-1 .5-3.7 3.2-4.4 4.2-1.3 1.8-.4 5.5-.6 7.9l-9.1-.1v-29.7zm-19.5 40.8l317-.1c.7-9.8.1-52.8.1-53.4l-317.9.1-.2 28.7 1 24.7z"/>
    <path fill="#7E7E7D" d="M318.2 135.2l6.5-.1v134.7l-6.5.2V135.2zm-24.3 150c17.3 7.5 17.1-15 42.3-2.3 8.3 4.2 8.3 3.3 14.3 1.7l-13.4-158.3c-5.4-.4-21.8-.1-28.4-.1-2.7 0-1.8.9-2.5 8-.3 3.3-.6 6.8-.9 10.3l-10.1 120.4c-.2 4.7-1.8 16.4-1.3 20.3z"/>
    <path fill="#FCEF00" d="M107.5 335.9l.3-8.8c2.5-.2 9.2 1 11 2-.8 1-10.7 6.6-11.3 6.8zm.7-11.3c1.9 1.1 7 1.5 9.5 1.9 7.8 1.3 5.9 0 16.9-4.1 2.4-.9 6.2-1.7 8.2-2.7-1-.7-30.2-6.6-33.3-6.7l-1.3 11.6zm4.1-27.3c3.5.3 29.1 7.5 35 9 5.1 1.3 32.6 7.9 34.6 9.4-7 .2-12.8-.2-20 .5-6 .5-11.6 2.8-17.6 1.6-11.1-2.3-22.7-4.6-34.2-6.8-.7-2.5 1.7-10.8 2.2-13.7zm4-13.8l115.4 38.9-.5 3.5c-3.3.1-25.1-6.3-29.7-7.4l-73.6-19.3c-4.4-1.2-10.6-3.1-14.9-3.8.2-2.4 2.2-10.1 3.3-11.9zm4.5-12.9l112.8 45.9-1 3.9-115.5-39c.1-2.1 2.8-9.3 3.7-10.8zm5.6-13.5c2.8.6 85.7 42.2 95.6 46.9 4.1 2 10.1 5.5 13.9 6.8-.2 1.4-.8 2.9-1.6 3.8l-112.7-46 4.8-11.5zm1.2-1.8l27.2 13.4c9.1 4.5 18.2 9.2 27.2 13.4 13 6 27.7 13.8 40.9 20.1 3.6 1.7 10.4 5.6 13.8 6.7l1.7-3-78.8-45.8c-4.2-2.4-8.7-5.2-13.2-7.6-3.8-2.1-9.5-6.1-13.5-7.7-.8 1.1-4.9 8.8-5.3 10.5zm6.5-12.4c2.2 2 73 42.3 78.8 45.8l19.9 11.5c1.7 1 5.1 3.2 6.8 3.8l2-3.6c-.8-.8-98.4-67.1-101-68.3-1.6 2.5-5.2 7.6-6.5 10.8zm7.9-12.6l75.4 51c3.5 2.3 23.5 16.3 25.4 16.9l1.7-2.4c-1.5-1.9-76.3-60.3-83.5-66-2-1.6-3.8-3-5.9-4.7-1.5-1.2-4.6-4-6.3-4.7-1.3 1.6-6 7.9-6.8 9.9zm8.5-11.4c1.7 1.7 4 3.2 5.9 4.7 2.1 1.7 3.9 3.1 5.9 4.7l59.4 46.8c3.9 3.1 8 6.2 11.8 9.3 2 1.6 3.8 3.1 5.9 4.7 1.8 1.4 4.4 3.7 6.3 4.8l1.5-1.4c.7-.9.6-.8 1-2l-8.3-7.4c-1-.9-1.7-1.7-2.7-2.6-3.8-3.4-7.4-7-11.3-10.3-3.9-3.4-7.4-6.9-11.3-10.3l-22.2-20.5c-1-1-1.8-1.6-2.8-2.5-5.6-4.9-13.2-12.7-19.7-18.1-2.5-2.2-9.5-9-11.3-10.1-1.2.6-7.8 8.3-8.1 10.2zm9.7-12.2c.7 1.2 1.6 1.7 2.7 2.7 5.6 4.8 13.5 12.7 19.5 17.9l13.9 12.9c8.3 7.4 51.5 48 53.5 48.6l2.6-3.1c-2.3-3-7.5-8.1-10.6-10.8l-71.7-73.5c-1.2-1.3-2.4-1.8-1.9-3.5 1.8-.4 3.2 2 5.7 4.6l58.6 59.8c2.6 2.7 20 20.9 21.4 21.7l2.4-2.4-39.4-46.1c-5.8-7.1-13.9-15.9-19.7-23l-19.8-23c-2 .8-7.3 6.6-8.9 8.3-2.4 2.5-6.6 6-8.3 8.9zm18.8-18.8l79 91.9 2.6-2.3-9.3-12.2c-8.2-10.5-63-82.1-65-83.7-1.6.7-6.8 5.2-7.3 6.3zm9.1-7.7l37 47.9c2.3 2.9 35.6 46.7 37.4 47.7 1.1-.7 2.2-1.7 2.8-2.5-.9-1.8-2.8-4.3-4-6.1l-46.8-69.1c-4.6-6.7-12.9-19.6-17.1-25.1-1.9 1-8.5 5.9-9.3 7.2zm10.8-8.6c.7 1.8 6.7 10.3 8.3 12.6l59.6 88c1.5-.6 2.1-1.3 3.2-2.1-1.6-3.5-42.1-71.7-46-78.3-2.5-4.2-5.1-8.6-7.7-13-1.4-2.3-2.5-4.3-3.9-6.7-.9-1.6-2.9-5.4-4-6.5-3.4 1.5-6.6 4.5-9.5 6zm11.3-7.3c1.4 3.7 5.6 9.6 7.6 13.2 6.7 12.1 15.9 26.8 23.1 39.1 5.2 8.9 10.3 17.5 15.4 26.1 2.7 4.6 5.1 8.6 7.7 13 2.4 4 5.6 8.9 7.6 13l3.6-2.1c-2-5.1-24-48-27.1-54.1l-20.4-40.6c-2.2-4.5-4.8-9.2-6.9-13.8-1.8.6-9.2 5.1-10.6 6.2zm12.5-7.2c.6 2.4 45.1 89.9 50.9 101.5 1.1 2.2 2.7 5.1 3.5 7.1l3.2-1.5L233 152.1c-1.9.5-8.5 3.8-10.3 5zm12.3-6.3c.3 2.4 10 24.5 11.7 28.5 7.9 18.3 15.8 38.4 23.7 56.1 2.1 4.7 10.4 25.9 12 27.8l3.7-1.5-39.4-115.4c-3.9.8-8.1 3.5-11.7 4.5zm55.5 109.7l-2.5.3c-1.1-4.5-3.4-10.1-4.9-14.6-3.4-10-34.1-98.1-34.4-100.8 3.1-1.1 8.5-3.3 11.7-3.6l30.3 111.5c0-1 .3-.6.5-.8v-2.6c-.1-4.6-5.4-22-6.9-27.7l-18.5-67.8c-.8-3-3.3-10.8-3.5-13.5l11.4-2.7c1 7.1 3.3 15.5 4.8 22.6 1.4 6.7 13.5 64.5 14.7 65.7l.2-5.9c-1.3-6.5-17.5-79.2-17.7-82.9l9.7-1.8c1.7-.3 2.6.1 2.7 0 .1-.1.2.1.3.1 1 3.9 1.3 10 1.9 14.3.7 4.6 1.2 9.2 1.8 13.9.5 3.9 2.7 26.2 4 27.8l-.1-.6c.5-14.3-.4-14.6-2.1-28.6-.7-5.4-3.4-23.9-3.5-27.6l10.5-1.2.2-1.9c-39.2 1.9-80.8 20.1-109.2 42.1-6.6 5.1-14.6 11.6-20.3 17.5-13.7 14.1-16.4 16.3-29 33.7-10.2 14.2-19.8 33-25.9 49.8-.5 1.5-.9 3-1.6 4.5l-4.3 14.8c-3.2 12.7-6.1 31.5-5.4 45.3 1.2-.4 11.1-7.3 17.4-10.1 3.1-1.4 3.8-2.1 8.9-4.1 9.8-3.8 21.4-6.9 33.1-7.7 12.8-.9 25.7.1 37.3 3 5.2 1.3 10.4 2.7 15.6 4.6l14.3 5.9c1.3-4.7.8-5.3 3.1-12.7 1.2-3.7 3.1-8 4.7-11.1 8.9-17.2 21.8-31.3 39-40.4 4-2.1 7.4-3.2 11.3-4.9l.4-1.8zm233 68.6l13.1-2.3.3 10.2c-2.2-.8-4.7-2.7-6.8-3.9-1.8-1-5.6-2.5-6.6-4zm-23.5-9.4c.5 1.2 1.9 1.1 4.2 1.9l13 4.9c3.9 1.8 4.5.9 9 .1 2.9-.5 7.7-.9 10.1-2 .4-3.6-.6-8.3-.9-11.9l-35.4 7zm-39.2-3.5c.5-.4-.3 0 .8-.5l70.8-18.6 2.7 13.9-37.7 7.4c-.7.2-.6.2-.9.4-1.2.5.3.2-1.1.4-.5.1-3.3-.6-4.2-.8-14.8-2.9-17-1.6-30.4-2.2zm-48.3 10.2l-.8-3.7L528.9 283c.7 2.6 3.1 9.9 3 12.1l-119.4 31.3zm-1.2-5.7l-1.4-3.7 114.4-47c1 2.4 3.6 8.5 3.7 11.1l-116.7 39.6zm-2-5.8l-1.7-3.6c3.2-2.2 9.9-5 13.6-6.8l83.4-41.1c2.6-1.3 11.9-6.3 14-6.6l5.1 11.3-114.4 46.8zm-5.5-10.8c2.3-.6 23.5-13.2 27.3-15.3l73.5-42.5c2.9-1.7 5.8-4.2 6.6-2.4.6 1.2-1.3 1.7-2.6 2.4-25.4 14-51.2 30.1-76.8 44.4l-20.1 11.6c-2 1.1-4.4 2.7-6.5 3.7l1.8 3.4 110.5-54.7c-1-3.4-11.1-20.7-13.3-23.2-1.7.5-22.3 14.9-25.6 17.1-4.4 3-74 50.6-76.5 51.6l1.7 3.9zm-2.7-5.6c1.9-.9 4.5-3 6.6-4.4 10.6-7.3 93.9-63.3 95-64.7-.9-1.9-5.2-7.8-6.8-9.4-1.4.4-21.7 16.6-24.4 18.8-8.1 6.7-16 12.5-24.1 19L405.3 291c-1.9 1.5-4.1 3-5.9 4.7.2 1.6.7 2.1 1.7 2.8zm-5.3-7.6c.3 1.3 1.1 2.2 2.1 3.2 2.3-.9 66.8-52.4 72.5-56.8 1.1-.9 22.9-17.6 24-19.2-.9-1.7-6.8-8.9-8.2-10-1.3.6-32.3 29.3-33.8 30.7L412.9 275c-3.3 3.6-13.4 11.9-17.1 15.9zm-1.6-1.7c1.3-.6 29.2-26.8 34-31 13-11.3 27-25.6 39.6-36.4 1.9-1.6 3.6-3.4 5.5-5 1.7-1.4 10.5-9.4 11.1-10.5-.6-1.1-6.3-7.1-7.3-7.9-1.2.8-1.7 1.6-3.1 2.8L412.9 264c-1.6 1.7-4 3.8-5.6 5.4l-10.5 11c-1.6 1.7-4.1 3.6-5.4 5.6l2.8 3.2zm-4.1-4.9l85.4-87.3c-.5-1.2-6.6-7.1-8.1-7.9-1.5.9-8.5 9.6-10.2 11.5-6 6.7-14 16.9-19.9 23.2-5.8 6.2-13.8 16.3-19.9 23.2l-25 29.1c-1.1 1.4-4.1 4.5-4.8 5.9l2.5 2.3zm-4.1-4.1l39.9-46.3c6.9-7.9 13.1-15.6 19.9-23.2 3.6-4 6.6-7.8 10-11.6l9.7-11.6c-.8-1.2-5.9-5.5-7.1-6.2-1.4.6-4 4.5-5.1 6-1.6 2.1-3.1 4-4.6 6-3.1 4.1-6.3 8-9.4 12.2L402 253.6c-3.2 4.1-6.2 7.9-9.4 12.1-1.8 2.4-8.3 10.5-9.2 12.2l2.6 2.3zm-4-4c3.4-4 6.2-8.1 9.4-12.1l27.8-36c6.3-8.2 12.2-16 18.6-24.1l18.5-24.2c-1.1-1.3-7.6-6.4-9.5-7-.8 1.7-3 4.7-4.2 6.4-5.3 7.8-62.7 92-64 94.6 1.2 1.1 1.9 1.9 3.4 2.4zm-4.9-3.7c2.5-4.1 5.8-8.7 8.7-12.8l42.8-63c2.2-3.2 16.3-23.6 16.9-25.3l-9.3-6-15.6 26.1c-10 17.4-21.5 35.7-31.1 52.7-2 3.6-14.9 24.2-15.2 26.4 1 .8 1.7 1.4 2.8 1.9zm-4.9-3.5l31.1-52.4c8-13 15.4-26.7 23.3-39.4 1.5-2.5 6.9-11 7.6-13.4-3.3-1.2-7.2-4.8-10.9-5.7-1.6 4.1-4.7 9.7-6.8 13.9-4.3 8.2-47.1 93-47.6 95.3l3.3 1.7zm-5.3-3.2c2.5-4 11.2-21.9 13.9-27.3l27.2-54.1c2.2-4.3 12.8-24.6 13.5-27.3-1.9-1.8-7.6-4.5-10.3-5.2l-47.4 112.5c1.1.7 1.7 1.1 3.1 1.4zm-4.9-2.6c2.7-5.1 21-49.6 23.7-56 1.4-3.4 23.2-54.3 23.5-56.3-1.6-1-8.1-3.9-10.4-4.2L358 261.9c1.3.5 2.6 1.2 4 1.3zm-18.9-129.4l8.4.8c.5 3.6-1.7 19.2-2.1 24-.7 7.4-2.3 16.9-2.1 24.2l.5 7.1c1.4-2.3 2.7-22.9 3.2-27.4.5-5.3 1.8-24.1 3-27.6 4-.1 9 1.5 13 1.9-.9 6.9-2.8 14.7-4.1 21.6l-12 63.5.3 5.8c.8-.9.7-1.1 1-2.6l8.1-42.4c2.2-11.5 6.3-35.1 8.7-45.3 5.1.7 10 2.6 14.8 3.7-.7 4-14 48.5-15.7 54.3-2.6 9.3-5.2 18-7.9 27.1-2 6.9-7 21.7-7 28l-.1 1.6L385.6 142c2.6 0 8.8 2.8 11.4 3.6l-40.8 114.9-1.8.5c-.1 0-.2.1-.4.1l.5 1.6c8.4 3.4 13.7 6 20.4 10.8 14.9 10.7 27.2 27.4 33.4 45.1 1.6 4.6 2 7.9 3.1 12.8 1.8-.5 4.9-2.1 7-3 7.5-3.2 15-5.5 23.1-7.4 11.6-2.6 25.2-3.7 37.7-2.5 18.3 1.8 31.3 6.4 46.7 14.4l13 7.9c1.6-29-7.3-61.6-17.7-83.3-12.1-25.3-26.1-43.6-41.6-59.8-34.7-36.2-83.8-61.8-136.2-66.1l-.3 2.2z"/>
    <path fill="#FFF" d="M101.9 384.4l28.5 16.6c9.4-14.5 20.6-22.1 38.1-26.6 33.6-8.6 75.2 4.6 103.9 21.1 14 8 17.5 11 29.3 19.5 3.2 2.4 5.5 4.7 8.9 7.1-2.1-4.7-13.8-18.3-17.6-22.4-6.6-7.1-13-12.5-21.2-19.1-6.6-5.3-16.1-11.5-24.4-15.8-9.5-4.9-17.5-8.5-28.5-12.1-30.8-10.2-71-10.1-97.7 10.5-3.8 2.9-7.9 6.4-10.6 9.7-2.4 2.9-7.2 7.8-8.7 11.5zM332 422.1c5.9-4.3 10.7-8.6 18-13.9 18.1-12.9 43.4-26.2 66-31.7 18.6-4.5 38.3-7 57.8-2.2 14.9 3.7 26.3 10.4 35.2 21.8 1.3 1.7 2.1 3.3 3.3 4.8l28.5-16.5c-1.9-5.6-13.9-17.1-19.2-21.1-27-20.6-66.5-20.9-97.6-10.6-34.4 11.4-61.5 30.7-83.4 57.7-2 2.3-7.7 9.3-8.6 11.7z"/>
    <path fill="#FFF" d="M335.7 412c19.4-25.1 52.5-53 93.9-63.7 32.5-8.4 67.8-7.3 94.6 13.8 7.7 6.1 12.6 11.8 18.8 20.7 2-.3 16.9-9.4 19.8-11.1-7.7-12.2-25-27.2-37.4-34.8-15.3-9.3-35.2-15.6-56.8-15.6-33 .1-62.1 14.1-82.1 29.3-11.5 8.7-19.1 16.4-28.7 27.4-4.1 4.7-8.2 10.4-11.9 16.1-2.6 4.2-8.7 13.2-10.2 17.9zM79.8 371.7c2.6 1.6 18 10.8 20 11.2.9-2.6 6.5-9.2 8.4-11.2 9.7-10.5 20.6-18.3 35.4-23.2 22.9-7.5 45-6.4 68.5-.6 33.5 8.3 62.6 28.2 84.9 52.2l9.2 10.5c.1.1.2.1.3.2-.9-3.3-6.5-11.9-8.3-14.8-3.2-5-6.2-9-9.4-13.4-1.7-2.2-3.3-4.1-5.1-6.3-1.6-1.9-3.7-4.4-5.3-6-4.1-3.9-7.4-7.6-11.8-11.4-14.9-13-34.1-25.9-58.7-32.9-27-7.7-53.3-6.3-77.6 4.1-12 5.1-18.7 9.9-28.3 17.6-3.7 3-8.8 7.7-11.7 11-2.7 3.2-8.7 9.6-10.5 13z"/>
    <path fill="#6BB92D" d="M236 333.2c1.8 1.4 4.2 2.3 6.2 3.5 7 4.1 11.6 7.2 18 12.1l15.9 13.8c1.4 1.4 3.8 4.2 5 5.1l19.4-46.3-12.7-13.3c-2.2-2.3-1.6-3.2-5.9-3.1.1-1.7 0-1.7-.2-3.1-.1-.7.7-3 1.1-8.1.3-4.5.9-8.8 1-13.2 2.2.4 2.6 1.8 4.8 1.8l1.2-15.7c-6.3 1.6-15.1 7.6-19.5 10.7-12.1 8.5-20.8 19.6-27.3 32.9-2.3 4.9-7 16.6-7 22.9zm119.6-51c1.9-.5 2.5-1.8 4.2-1.8.2 3.8.5 7.4.8 11.1.3 4.1.1 8.3 1.7 9.9-1.2 1.1-.9 1.2-.7 3.3-2.8.2-2.8.1-4.4 1.8l-9.2 9.6c-6.7 6.4-5.3 4.7-.6 15.7 1.9 4.5 13.7 33.9 14.9 35.1 1.9-1.7 3.3-2.9 4.9-4.8 2.5-2.8 13.1-11.7 16.2-14 6.6-5 16-11.5 24.5-15.4-.3-5.8-4.7-17.9-7-22.6-6.6-13.5-15-24.1-27.1-32.7-3.4-2.4-14.7-9.9-19.5-10.6l1.3 15.4z"/>
    <path fill="#0D0502" d="M296.8 535.3c.5 1.8 1.4.3 1.6 2 0 3.8.5 18.3-.4 20.6-7.5 2.9-2.5-11-3.9-21-.7-4.9-12.9-5.7-14.4-.8.1.1.3 0 .3.1.1.1.2.1.3.1l.7.2c.3 0 1.1.1 1.5.1.4 5.8-1.3 19.3 1.9 22.5 2.4 2.3 6.1 2.1 10 2.1 2.5 0 10.7.3 12.4-.1 3.6-1 2.6-5.2 2.6-9.5 0-2.9-.2-23 .2-24.2 1.1-2.8 7-2.5 9.4-.5l.2 31.3-1.9.8v2.5c2.7.3 6.5.1 9-.3 3.9-.6 4.2-1.6 4.2-5.4 0-3.1-.5-17.6.4-19.1h1.2c1.8 2.7-.4 15.4.7 19.7 1.5 5.9 9 5 15.4 5-.1 4.2-3.1 7.1-6.5 8.1-12.3 3.9-37.6-19.1-56.6.3-3 3-4 5.4-3.9 10.8.5 20 33.1 22.6 50.5 20 8.2-1.2 15.5-5.8 18.5-10.9 2-3.3 3.9-13.9 9.9-11.1 1.9.9 2 2.9 3.7 3.7.4-5.7-1.3-8.6-6.6-9.5-5.2-.8-8 1.9-11.2 4.6-2.8 2.5-1.5.8-3.8 3.9-1.2 1.6-2.5 3.1-3.7 4.4-10.2 11-36.5 13.1-47.6 1.8-3.3-3.4-4-7.6-.4-11.1 12.1-11.7 29.5 8.7 51.4.6 12.9-4.8 11.4-10.9 11.4-20.4v-15.9c0-2.6.5-5.8-1.5-6.9-2.5-1.4-4.5.3-5.4 2 1.1 1.8 0-.1.9.8.7.7.4-.3.7.8 0 3.9.5 18.3-.3 20.7-6.4 2.2-3.5-6.3-3.8-19.9-.2-6.9-9.5-5.4-13.5-4-.2-5.7.7-8.2-3.1-10.8-4.8-3.3-17.3-4-21.5 1.6-1.9 2.5-1 22.6-1 27v3.3c0 1.3.3 2.6-.6 3.1-1.6.7-1-4.4-1-5.5v-13.8c.3-9.1-5.3-5.4-6.4-3.8z"/>
    <path fill="#FFF" d="M338.9 420.2l16.9-7.9c30.4-13.4 68.4-25.9 101.9-16.5 10.3 2.9 25.3 10.2 32 17.9 1.2-.3 18.5-10.1 20-11.4-1.7-5.2-10.4-13.1-14.5-15.9-21.3-14.6-52-14.1-76-7.9-23 5.9-43.8 15.8-62.9 28.7-3.8 2.4-15.6 10.5-17.4 13zM133 402.3l19.5 11.4c1.2-.6 5.2-4.2 6.8-5.5 7.4-5.6 16.2-9.9 25.4-12.4 36.1-10.1 78.5 5 111.1 20.6 2.7 1.3 5.7 3 8.4 4-2.1-2.2-5.6-4.7-8.2-6.6-3-2.2-5.8-4.2-9.1-6.4-19.4-13-39.1-22.9-63-28.9-27-6.8-64-7.2-84.5 14.8-1.6 1.9-5.5 6.2-6.4 9z"/>
    <path fill="#E77400" d="M506.1 497.5c.5-1.5 14.2-17.4 17.1-20.7 1.7-2 4.6-4.9 5.7-7.1-4.5 0-38.5-.4-43.5.2l-.1 23.4c-.5 1.9-.1.1-1.4 1.9l-11.4 21.1c-1.4 2.6-3.7 5.8-3.7 9.1h60c-.2-.8-19.5-24.6-22.7-27.9zM116 469.9c1.1 1.4 1.8 2.4 2.8 3.6l14.4 16.9c1.2 1.3 4.7 5.3 5.5 6.7-1.7 3.2-21.9 26.1-22.8 28.4H176c-.4-2-6.4-13.7-7.9-16.4-1.4-2.7-2.7-5.4-4.1-8.2l-3.1-5.9c-1.2-1.3-1.2-.3-1.5-1.1-.8-2.4-.5-20.2-.5-24.2l-42.9.2zm287.8-165.8c2.3-.6 23.5-13.2 27.3-15.3l73.5-42.5c2.9-1.7 5.8-4.2 6.6-2.4.6 1.2-1.3 1.7-2.6 2.4-25.4 14-51.2 30.1-76.8 44.4l-20.1 11.6c-2 1.1-4.4 2.7-6.5 3.7l1.8 3.4 110.5-54.7c-1-3.4-11.1-20.7-13.3-23.2-1.7.5-22.3 14.9-25.6 17.1-4.4 3-74 50.6-76.5 51.6l1.7 3.9zm-243.6-97.4c.7 1.2 1.6 1.7 2.7 2.7 5.6 4.8 13.5 12.7 19.5 17.9l13.9 12.9c8.3 7.4 51.5 48 53.5 48.6l2.6-3.1c-2.3-3-7.5-8.1-10.6-10.8l-71.7-73.5c-1.2-1.3-2.4-1.8-1.9-3.5 1.8-.4 3.2 2 5.7 4.6l58.6 59.8c2.6 2.7 20 20.9 21.4 21.7l2.4-2.4-39.4-46.1c-5.8-7.1-13.9-15.9-19.7-23l-19.8-23c-2 .8-7.3 6.6-8.9 8.3-2.4 2.5-6.6 6-8.3 8.9zM351 227.8l2.1 22.8c0-6.3 5-21.1 7-28 2.6-9.1 5.3-17.9 7.9-27.1 1.7-5.9 14.9-50.4 15.7-54.3-4.8-1-9.6-2.9-14.8-3.7-2.4 10.2-6.6 33.8-8.7 45.3l-8.1 42.4c-.4 1.5-.2 1.7-1.1 2.6zm44.8 63.1c.3 1.3 1.1 2.2 2.1 3.2 2.3-.9 66.8-52.4 72.5-56.8 1.1-.9 22.9-17.6 24-19.2-.9-1.7-6.8-8.9-8.2-10-1.3.6-32.3 29.3-33.8 30.7L412.9 275c-3.3 3.6-13.4 11.9-17.1 15.9zm-261.7-48c2.2 2 73 42.3 78.8 45.8l19.9 11.5c1.7 1 5.1 3.2 6.8 3.8l2-3.6c-.8-.8-98.4-67.1-101-68.3-1.6 2.5-5.2 7.6-6.5 10.8zm16.4-24c1.7 1.7 4 3.2 5.9 4.7 2.1 1.7 3.9 3.1 5.9 4.7l59.4 46.8c3.9 3.1 8 6.2 11.8 9.3 2 1.6 3.8 3.1 5.9 4.7 1.8 1.4 4.4 3.7 6.3 4.8l1.5-1.4c.7-.9.6-.8 1-2l-8.3-7.4c-1-.9-1.7-1.7-2.7-2.6-3.8-3.4-7.4-7-11.3-10.3-3.9-3.4-7.4-6.9-11.3-10.3l-22.2-20.5c-1-1-1.8-1.6-2.8-2.5-5.6-4.9-13.2-12.7-19.7-18.1-2.5-2.2-9.5-9-11.3-10.1-1.2.6-7.8 8.3-8.1 10.2zM353 252.2c.1 1.8.4 3.5.5 5.3.1.9.1 1.6.1 2.5.1 1.7-.3 1.9.9 2.7l-.5-1.6c.1 0 .3-.1.4-.1l1.8-.5L397 145.6c-2.7-.8-8.8-3.6-11.4-3.6L353 252.2zM235 150.8c.3 2.4 10 24.5 11.7 28.5 7.9 18.3 15.8 38.4 23.7 56.1 2.1 4.7 10.4 25.9 12 27.8l3.7-1.5-39.4-115.4c-3.9.8-8.1 3.5-11.7 4.5zm55.5 109.7l.7-8c-.2.2-.5-.3-.5.8l-30.3-111.5c-3.2.3-8.6 2.6-11.7 3.6.3 2.7 31 90.8 34.4 100.8 1.5 4.5 3.8 10.1 4.9 14.6l2.5-.3zm233.2 7.6l-5.1-11.3c-2.1.3-11.4 5.4-14 6.6l-83.4 41.1c-3.7 1.8-10.4 4.6-13.6 6.8l1.7 3.6 114.4-46.8zm-402.1.5l112.7 46c.8-.9 1.4-2.4 1.6-3.8-3.8-1.3-9.8-4.8-13.9-6.8-9.9-4.7-92.8-46.2-95.6-46.9l-4.8 11.5zm281.7-52c8-13 15.4-26.7 23.3-39.4 1.5-2.5 6.9-11 7.6-13.4-3.3-1.2-7.2-4.8-10.9-5.7-1.6 4.1-4.7 9.7-6.8 13.9-4.3 8.2-47.1 93-47.6 95.3l3.3 1.8 31.1-52.5zm-193.1-52.3c1.4 3.7 5.6 9.6 7.6 13.2 6.7 12.1 15.9 26.8 23.1 39.1 5.2 8.9 10.3 17.5 15.4 26.1 2.7 4.6 5.1 8.6 7.7 13 2.4 4 5.6 8.9 7.6 13l3.6-2.1c-2-5.1-24-48-27.1-54.1l-20.4-40.6c-2.2-4.5-4.8-9.2-6.9-13.8-1.8.6-9.2 5.1-10.6 6.2zm321.6 130.8c.2-2.3-2.3-9.6-3-12.1l-117.2 39.7.8 3.7 119.4-31.3zm-415.5-11.6c-1.1 1.8-3.2 9.5-3.3 11.9 4.3.7 10.5 2.6 14.9 3.8l73.6 19.3c4.6 1.2 26.4 7.5 29.7 7.4l.5-3.5-115.4-38.9zm265.7-7.3c3.4-4 6.2-8.1 9.4-12.1l27.8-36c6.3-8.2 12.2-16 18.6-24.1l18.5-24.2c-1.1-1.3-7.6-6.4-9.5-7-.8 1.7-3 4.7-4.2 6.4-5.3 7.8-62.7 92-64 94.6 1.2 1.1 1.9 1.9 3.4 2.4zm-193.9-96l37 47.9c2.3 2.9 35.6 46.7 37.4 47.7 1.1-.7 2.2-1.7 2.8-2.5-.9-1.8-2.8-4.3-4-6.1l-46.8-69.1c-4.6-6.7-12.9-19.6-17.1-25.1-1.9 1-8.5 5.9-9.3 7.2zm173.9 83c2.7-5.1 21-49.6 23.7-56 1.4-3.4 23.2-54.3 23.5-56.3-1.6-1-8.1-3.9-10.4-4.2L358 261.9c1.3.5 2.6 1.2 4 1.3zm166 17.9c0-2.5-2.7-8.7-3.7-11.1l-114.4 46.9 1.4 3.7L528 281.1zm-126.9 17.4c1.9-.9 4.5-3 6.6-4.4 10.6-7.3 93.9-63.3 95-64.7-.9-1.9-5.2-7.8-6.8-9.4-1.4.4-21.7 16.6-24.4 18.8-8.1 6.7-16 12.5-24.1 19L405.3 291c-1.9 1.5-4.1 3-5.9 4.7.2 1.6.7 2.1 1.7 2.8zM142 230.3l75.4 51c3.5 2.3 23.5 16.3 25.4 16.9l1.7-2.4c-1.5-1.9-76.3-60.3-83.5-66-2-1.6-3.8-3-5.9-4.7-1.5-1.2-4.6-4-6.3-4.7-1.3 1.6-6 7.9-6.8 9.9zm252.2 58.9c1.3-.6 29.2-26.8 34-31 13-11.3 27-25.6 39.6-36.4 1.9-1.6 3.6-3.4 5.5-5 1.7-1.4 10.5-9.4 11.1-10.5-.6-1.1-6.3-7.1-7.3-7.9-1.2.8-1.7 1.6-3.1 2.8L412.9 264c-1.6 1.7-4 3.8-5.6 5.4l-10.5 11c-1.6 1.7-4.1 3.6-5.4 5.6l2.8 3.2z"/>
    <path fill="#585755" d="M287.4 286.9l-1.1 14 71.1-.1-1-14.1c-4.7 1.2-9.1 5.2-18.1 1.4-5.2-2.2-10.2-5.9-17.3-5.4-8.2.6-12 10.3-25.4 7-2.6-.5-6.6-2.7-8.2-2.8z"/>
    <path fill="#E77400" d="M198.9 171.6c.7 1.8 6.7 10.3 8.3 12.6l59.6 88c1.5-.6 2.1-1.3 3.2-2.1-1.6-3.5-42.1-71.7-46-78.3-2.5-4.2-5.1-8.6-7.7-13-1.4-2.3-2.5-4.3-3.9-6.7-.9-1.6-2.9-5.4-4-6.5-3.4 1.5-6.6 4.5-9.5 6zm-78.1 99c-.9 1.6-3.6 8.7-3.7 10.8l115.5 39 1-3.9-112.8-45.9zm6.8-15.3l27.2 13.4c9.1 4.5 18.2 9.2 27.2 13.4 13 6 27.7 13.8 40.9 20.1 3.6 1.7 10.4 5.6 13.8 6.7l1.7-3-78.8-45.8c-4.2-2.4-8.7-5.2-13.2-7.6-3.8-2.1-9.5-6.1-13.5-7.7-.8 1.1-4.9 8.8-5.3 10.5zm249.5 17.2c2.5-4.1 5.8-8.7 8.7-12.8l42.8-63c2.2-3.2 16.3-23.6 16.9-25.3l-9.3-6-15.6 26.1c-10 17.4-21.5 35.7-31.1 52.7-2 3.6-14.9 24.2-15.2 26.4 1 .8 1.7 1.4 2.8 1.9zm-85.9-22.7l2.1-23.4c-1.2-1.2-13.2-59-14.7-65.7-1.5-7.1-3.8-15.5-4.8-22.6l-11.4 2.7c.1 2.7 2.6 10.5 3.5 13.5l18.5 67.8c1.4 5.7 6.8 23.1 6.8 27.7zm75.7 16c2.5-4 11.2-21.9 13.9-27.3l27.2-54.1c2.2-4.3 12.8-24.6 13.5-27.3-1.9-1.8-7.6-4.5-10.3-5.2l-47.4 112.5c1.1.7 1.7 1.1 3.1 1.4zM475.5 197c-.5-1.2-6.6-7.1-8.1-7.9-1.5.9-8.5 9.6-10.2 11.5-6 6.7-14 16.9-19.9 23.2-5.8 6.2-13.8 16.3-19.9 23.2l-25 29.1c-1.1 1.4-4.1 4.5-4.8 5.9l2.5 2.3 85.4-87.3zm-252.8-39.9c.6 2.4 45.1 89.9 50.9 101.5 1.1 2.2 2.7 5.1 3.5 7.1l3.2-1.5L233 152.1c-1.9.5-8.5 3.8-10.3 5z"/>
    <path fill="#0D0502" d="M318.3 270l6.5-.2V135.1l-6.6.1"/>
    <path fill="#E77400" d="M425.9 233.9c6.9-7.9 13.1-15.6 19.9-23.2 3.6-4 6.6-7.8 10-11.6l9.7-11.6c-.8-1.2-5.9-5.5-7.1-6.2-1.4.6-4 4.5-5.1 6-1.6 2.1-3.1 4-4.6 6-3.1 4.1-6.3 8-9.4 12.2L402 253.6c-3.2 4.1-6.2 7.9-9.4 12.1-1.8 2.4-8.3 10.5-9.2 12.2l2.6 2.2 39.9-46.2zm-246.9-46l79 91.9 2.6-2.3-9.3-12.2c-8.2-10.5-63-82.1-65-83.7-1.6.7-6.8 5.2-7.3 6.3z"/>
    <path fill="#0D0502" d="M261.7 479.4l7.5.1.1-21.6c2 3.6 4 16.3 5.9 21.5l6.7.1c1.5-4.2 4.1-16.8 5-19.3l.8-1.5.1 20.7 7.4.1.1-29.7-11.9-.1-4.7 17.7-4.8-17.7-12 .1-.2 29.6z"/>
    <path fill="#E77400" d="M347.8 190c.2 4 2.2 30.6 3 32l12-63.5c1.3-6.9 3.2-14.7 4.1-21.6-3.9-.4-9-2-13-1.9-1.2 3.5-2.5 22.3-3 27.6-.4 4.5-1.8 25.1-3.1 27.4zm-54.2 30.5c1-1.8 1.2-11.3 1.4-14.2.4-4.8 1-9.6 1.2-14.4-1.3-1.5-3.5-23.9-4-27.8-.6-4.8-1.1-9.3-1.8-13.9-.6-4.4-.9-10.4-1.9-14.3-.1 0-.3-.2-.3-.1-.1.1-1-.3-2.7 0l-9.7 1.8c.3 3.7 16.5 76.4 17.8 82.9zm167.2 95.7c13.3.7 15.6-.7 30.4 2.1.9.2 3.7.9 4.2.8 1.4-.2-.1.1 1.1-.4.4-.2.3-.2.9-.4l37.7-7.4-2.7-13.9-70.8 18.6c-1.1.6-.2.1-.8.6zm-348.5-18.9c-.5 2.9-2.9 11.1-2.2 13.6 11.5 2.2 23.1 4.5 34.2 6.8 6 1.3 11.6-1.1 17.6-1.6 7.1-.6 13-.2 20-.5-2-1.4-29.5-8.1-34.6-9.4-5.9-1.4-31.5-8.6-35-8.9z"/>
    <path fill="#0D0502" d="M183.6 479.4l9.1.1c.2-2.4-.6-6.1.6-7.9.7-1 3.4-3.7 4.4-4.2l6.1 12.1H215c-2.2-4.8-9.9-15.3-11-18.6 1.5-2.5 9.6-9.1 10.2-11.2h-11.7c-2.5 2.2-7.8 9.8-9.8 10.8l-.1-10.8h-9v29.7zm168.5-9.6c-.4-.4-.7.1-.8-2.4v-17.6h-8.8l.2 19.5c.1 4.8 3.5 8.6 7.2 9.8 4 1.3 11.5 1.3 15.1-.7 3.7-2 5.8-5.6 6-11.5.1-4.1.5-13.8-.2-17.3h-8.9c-.8 4.8.1 12.9-.2 18.2-.4 7.4-9.3 6.1-9.6 2zm37.7-.7l-8.5.5c-1.2 11.3 17.9 13.5 24 6.9 3.6-3.9 3.8-10.3-.4-13.3-2-1.5-4-2.1-6.9-2.9-2.5-.7-5.9-.9-7.2-2.7-.1-2.5 1.6-3.2 4.1-2.8 2.5.4 2.5 1.8 3.7 3.7l8.1-.3c.6-3.2-2-6.2-3.8-7.2-2.5-1.4-6.2-1.8-9.6-1.7-6.4.2-13.1 3.9-10.8 11.1 1.9 5.9 8.2 5.4 14.2 7.8 8 3.3-5.1 11.2-6.9.9zm-155.9-1c0-2.3 2.1-7.6 2.8-10.2.4.4.3.2.6.8l2.7 9.4h-6.1zm-13 11.3l9.3.1c.7-1.7.8-3.5 1.7-4.8l10.2-.1 1.7 4.9h9.3c-.3-2-9.9-27.6-11.1-29.8h-9.8l-11.3 29.7zm99.3-17.4c-.5.4 0 .3-.9.5-1.1.3-2.5.1-3.6-.1l.1-6.6c1.4-.4 4.3-.7 5.1.7 2.7-.3 3 5.2-.7 5.5zm-13.5 17.4l9.2.1v-11c4.7-.5 9.1.5 12.6-2.1 4.3-3.2 7.1-16.4-6.7-16.7-4.6-.1-10.5-.2-15.1.1v29.6zM48.3 230.2c2.1 2.4 12.1 7.7 14.6 10.1l-17.6-1.1c-.7 1.5-2.1 5.5-2.4 7.2L67 255l1.6-4.4-18.1-6.4 20.1 1.4 1.5-4.8-16.3-10.9 18 6.1c.6-1.5 1.2-2.8 1.2-4.5L50.7 223l-2.4 7.2zM163.1 81l6.7 16.3c-4.2-2.7-11.7-10.4-13.9-11.4-1.7.9-3.2 2.3-4.8 3.2l5.9 16.7c-1.9-.8-7.8-6.9-9.9-8.6-1.3-1.1-2.2-2.2-3.4-2.7l-4 2.8c1.4 1.8 18.5 16.9 19.9 17.5l4.2-2.8c-.1-2.2-2.3-7.2-3.2-9.6-1-2.6-2.8-6.8-3.3-9 2.3.9 11.6 9.9 14.9 12.2 1.8-.5 3.4-1.9 4.6-3l-9.4-24.4c-1.8.4-3.4 1.7-4.3 2.8zM46.2 404.6l2.2 7.4 17.6-.9c-1.8 2.4-11.7 7.3-14.5 9.9l2.1 7.2c1.9-.1 23.3-7.1 24.5-8l-1.2-4.2-18.5 5.7c2.7-1.9 5.3-3.5 8.2-5.4 2.6-1.7 6.4-3.6 8.5-5.5l-1.2-4.5-20.4 1.1 18.6-6.3c-.4-1.5-.8-3.2-1.6-4.3l-24.3 7.8zm453.6-296c.8-1.4 2.7-3.5 3.8-4.8 1.7.7 3.4 2.7 4.8 3.8 1.3 1 3.5 2.7 1.5 5.2-1.9 2.4-4 1-5.9-.5-1-.8-3.7-2.7-4.2-3.7zm-13.6 8.2c1 1.3 2.2 2.2 3.6 3 1-.5 0 .2 1-.7.3-.3.7-.8 1-1.1l4.9-6c5.3 2.3 2.7 8.6 2.3 16 1.8 1.1 2.9 2.6 4.6 3.5 1.2-4.3 1.7-9.6.8-13.9 3.6 1.4 6.3 1.9 8.9-.7 2-2 3.6-5.3 1.6-8.6-1.5-2.6-9.5-8.9-12.2-11-1.2.6-16 18.3-16.5 19.5zm88.4 332c-.8 1.7-1.7 3.4-2.6 5.2-1 1.7-1.6 3.8-4.6 2.7-4.6-1.7.3-8 1.4-10.8 1.7.3 4.5 1.9 5.8 2.9zm-18.9-9.8l9.4 4.8c-2.6 7.7-12.1 3.2-15 6.2-.7.7-2.1 4-2.4 4.8 4.7.4 9.5-.7 13.7-2.3-.3 3.9-.5 6.1 2.3 8.3 2.4 1.9 6.4 2.4 9 .1 2.1-2 7.2-11.6 8.2-14.9l-22.7-11.5c-1.1 1-2 2.9-2.5 4.5zM407.3 73.7l4.4 1.5c2-2.5 4.3-11.8 6.3-15.2l3.6 19 4.7 1.8c1.1-1.6 8.6-21.2 9.3-23.8l-4.4-1.9-5.9 15.6c-1.2-1.8-2.9-16-3.7-18.2 0-.1-.1-.2-.1-.3 0-.1-.1-.2-.1-.3-.5-1-3.6-1.9-4.6-2.3l-9.5 24.1zm-369 196.2l16.4 3.3c-3.4 2.2-12.6 4.7-17 6.5-2 .8-2.4 2.7-2.2 5.7l25.1 4.9.9-4.7-15.7-3.1c2.2-2.3 16.7-5.7 17.7-7.5l1-4.9-25.3-4.8-.9 4.6zm-4.4 57.5l16.4-.2c-1.1 1.8-6.1 4.4-7.9 5.6-2 1.3-6.3 4.4-8.3 5l.1 5.3 25.8-.5-.1-4.7-16.4.2 16.1-10.6.1-5.2-25.7.3-.1 4.8zm236-289.3l2.7 16.5c-2-1.1-12.2-13.9-13.1-14.3-.8-.4-3.7.1-5.1.8.6 6 2.2 12.8 3.3 18.8.3 1.7.5 4.9 1.4 6.3l4.3-.7-2.7-16.1c1.5 1 9.2 9.9 11.6 12.7 2.1 2.4 3.1 1.1 6.5.7l-4.3-25.4-4.6.7zm197.2 48.5c-1.4-1.2-7.7-4.8-9.5-5.2-1 1.1-1.7 2.3-1.9 3.6l4.8 2.7c-1.3 5.4-7.1 2.5-8.9 1.2-5.9-4.4-.6-16.3 6.4-15.9 4.5.3 6.5 3 6.5 7.4 2.1.7 7.4 4 4.8-4.1-2.3-7.2-17.3-13.5-23.8-.2-7.7 15.6 12.1 22 16.7 19.1.9-.3 4.6-7.3 4.9-8.6zm137.2 256.3c-.1 7.7-1.3 10.8-9.5 10-8.2-.8-8.2-3.3-7.5-11.3 2-.5 10 .5 13.1.6.6 0 1.6 0 2.2.1.7.1.5.1 1 .3l.7.3zm4.8-5.3l-25.7-1.7c-.3 4.7-1.5 12.2.1 16.2 1.5 3.7 5.9 5.9 11.2 6.2 13.5.8 14.6-8.2 14.4-20.7zM288.4 39.5c8.1-.6 10.9-.4 11.4 8.1.2 3.2-.1 6.4-2.1 7.7-1.5 1-6.2 1.4-8.3 1.2l-1-17zm-5.6-3.9l1.6 25.4c2.8.6 12.9-.5 15.3-1.7 7.8-3.8 7.1-19.9-.7-23.6-3.3-1.5-12.1-.6-16.2-.1zm307.6 198.3c-1.2 3.1-6 6.1-10.7 5.8-9.8-.5-8.5-15.6 4.5-15.1 4.2.2 8 4.9 6.2 9.3zm-10.8-14c-19.2 4.7-11.2 28.6 4.6 24.7 18.7-4.7 11.8-28.7-4.6-24.7zM356.8 61c1.4.7 3.1.9 4.8 1 1.1-2 .6-4.9 1.6-7.2.4-.9 3.8-3.2 4.9-3.5l4.9 12.9 6.6 1.1-7.3-17.2 8.1-6c.7-.5.9-.6 1.4-1l1.3-1.3c-7.3-1.5-5.5-1.8-10.5 1.9-2.7 2-5.5 4.3-8.1 6.2l1.7-10.8c-1.3-.7-3.4-1-5-1.1l-4.4 25z"/>
    <path fill="#E77400" d="M500 319.7c.5 1.2 1.9 1.1 4.2 1.9l13 4.9c3.9 1.8 4.5.9 9 .1 2.9-.5 7.7-.9 10.1-2 .4-3.6-.6-8.3-.9-11.9l-35.4 7z"/>
    <path fill="#0D0502" d="M555.2 201.8c.3 1.6 1.2 3.4 2.1 4.6 5.7-1.3 5.7-4.9 12.5-.9-2.4 5.1-8.2 9.8-7.2 12.6.2.6.7 1.6 1 2.3l1.5 2.2 9.7-15.4 12.9 4.3c-1.6-9.8-7.8-6.1-16.8-10.9 2.3-2.1 6.9-3 9.7-4.9l-1.8-4.6-23.6 10.7zM73.1 176.1l8.6 4.9c-.6 1.9-3.8 6.9-4.9 8.8-2.9-1.1-6.2-3.9-8.8-4.7l-2.6 4.4c3.6 1.6 7.7 4.4 11.3 6.4 2.1 1.2 9.3 5.8 11.3 6.2.7-1.7 1.8-2.6 2-4.4-2.3-1.5-8.1-4.4-9.3-5.7.7-1.5 4.1-7.7 5.2-8.5 3.1 1.4 6.5 4.1 9.4 5.2 1.1-1 2.2-2.7 2.6-4.6l-22.2-12.6-2.6 4.6zM229.1 48c.3 2.7 5.8 23.4 6.8 24.8l18.6-4.9-1-4.1-13.9 3.5-1.9-6.8 12.3-3.2-.8-4c-3.6 0-8.6 2.5-12.5 2.9l-1.5-5.2 13.2-3.6-1-4.1-18.3 4.7zm314.5 133l9.5 16.7 3.6-1.9c-1-3.6-6.4-9.9-6.7-12.7l5.6-3.2c1.8 1.6 4.8 8.4 6.5 10.8 1.3-.2 2.5-.9 3.6-1.9-.8-3.2-5.3-8.2-6.1-11.4 1.6-.7 3.1-2.2 4.9-2.4l6.8 11.6 3.7-1.9c-.6-2.2-7.7-13.9-9.3-16.5-1.8.6-21.4 12-22.1 12.8zm-408.2-57l-3 3.3c3.7 7.3 18.6.7 18.2-8.1-.2-4.3-4-8-8.9-7.2-3.5.6-9.7 5.4-12 3.2-1.4-2.3.8-4.1 2.1-5 2.7-2 3.4-.8 5.9 0 1.2-1.7 2.2-2 3.4-3.3-6.5-10.1-24.8 8.7-12.4 13.8 5.8 2.3 11.7-4.4 15.1-3.3 2 .7 2.8 3.7-.6 6.7-3.2 2.8-4.9 1-7.8-.1zm403.1 35.1c-.8-1.2-1.7-2.5-3.1-3.6-7.9 4.8-.9 18.6 6.9 18.7 4.7.1 8.4-3.8 7.8-8.7-.5-3.8-4.6-8.9-2.4-12 2.5-.7 4 1 4.9 2.5 1.9 3 .4 3.5-.2 5.9l2.8 3.6c7.2-3.2.9-16.7-6.5-17-3.3-.1-5.4 1.8-6.3 3.8-3 6.2 4.9 13.4 1.5 16.2-2.5 2-5.3-.9-6.3-2.3-2-3.3-.4-4.9.9-7.1zm50.6 246.2l-1 5c6.8.9 9.6-3.7 10.4-9.6.9-6.6-4.6-11.7-10.3-8.1-4.7 3-5.5 10.8-9.3 10.5-3.1-.3-5.1-8.2 2.4-10 .1 0 .2-.1.3-.1.1 0 .2-.1.3-.1.1 0 .2-.1.3-.1.1 0 .2-.1.3-.1l.8-4.5c-7.1-.6-9.9 2.6-11.4 8.7-1.6 6.4 1.3 11.7 7.6 11.6 5.8-.1 7.3-6 10-9.9 1.8-2.7 4.9-2.8 4.6 1.8-.2 3.4-1.5 4.3-5 4.9zm-526.8 41l2.1 4.4 9.2-4.5 4.5 9c-2.2 1.7-7.4 3.4-8.8 4.9l2.1 4.3 22.9-11.5-2.2-4.6-9.9 4.9-4.7-8.9 9.8-5.2-2.2-4.5c-1.8.5-22 10.9-22.8 11.7zm49.2-296.2c-1.2 1.2-2.2 2.3-2.7 4.3 3.2 1 6.7 3.7 11.9-1.2 10.6-9.8 1.3-18.9-5.9-15.7-2.8 1.2-7.9 6.2-10.6 4.9-1.4-1.8-.2-3.8 1-5.1 2.3-2.5 2.6-1.7 5.9-1.3 1.1-1.3 2.1-2.2 2.9-3.7-4.5-5-10.7.3-13 3.3-3.6 4.6-2.2 11.7 3.7 12.4 5.7.7 10.6-6.5 13.9-5.7 2.9.7 2.1 4.7.2 6.7-2.7 2.7-3.5 2-7.3 1.1zM583 299.7l.1 5.1 11.2-.2.4 10.1-11 .5v5.1l25.7-.8-.1-5.1-10.1.2-.4-10.1 10.2-.5-.3-5M451.1 449.5c-.1 1.7-.3.7.4 1.6.6.7 1.3.4 1.4 1.3v24.4c-.5 1.3.9-.7-.5.5-1.5 1.4-1.5-.1-1.4 2.3l1.3.4c2.2.3 11.1.3 12.1-.4.1-3 0-1.2-2.3-2L462 452c.1-.1.3-.3.3-.2l2.1-.7v-1.9c-2.9-.1-11.2-.6-13.3.3zm-16.4.4c.4 2.7-.4.7 1.9 1.6l.1 26c-2.2 1-2.1-1.2-1.9 2 1.9 1.1 10.5.6 13.3.3.3-3.4 0-1.4-2.1-2.3l-.1-26c2.2-.8 2 .9 2.3-1.6-1.2-1.2-8.2-.6-10.1-.7l-2.4.2c-1 .3-.3-.1-1 .5zM90.8 160.3l9.3 2.4c-.4 1.5-2.6 4.1-3.7 5.5-1.7-.8-4.9-7.2-5.6-7.9zm-6.6-1.7c.7 1.8 2.5 4.1 3.6 5.8l9.4 14.6c.9 1.5 1.1 2 2.2 2.8l2.8-4.1c-.5-1.8-2.4-3.7-3.2-5.3.4-1.1 5-7.3 6-8.3l6.1 1.4c.9-1.6 2.3-2.7 2.9-4.7-5.8-1.1-23.4-6.4-27.1-6.5l-2.7 4.3zm99.7-72.3c-.6-.9-1.6-6-1.7-9.4.9.5 6.9 5.4 7.2 6.5l-5.5 2.9zm-7.1-13.5c.2 3.1 3.1 25.4 3.8 26.9l4.4-2.2-.7-6.3 8.8-4.9 4.9 3.8c1.8-.5 3.5-1.6 4.6-2.6-.6-1-3.9-3.5-5.1-4.4l-15.9-13c-1 .2-1.6.6-2.5 1l-2.3 1.7zM591.6 286l-1-6.7 7 1.3c.5.1.9.2 1.3.3l1.2.7-8.5 4.4zm-11.7-9.4l5.8 1.5c.8 1.7 1.6 9.1 1.5 10.3l-5.1 2.9.6 5.5c1.6-.5 22.3-12.2 24.1-13.7l-.6-5.4-26.9-6.4.6 5.3zM396.6 50.1c1.2 1.9 1.1 6.8 1.2 9.5l-6.6-1.9 5.4-7.6zm-16.8 15c.8.5.2.2 1.2.6l4 1 3.4-5 10.1 2.7c.4 6.2-.5 6.4 6 7.6l-3.2-27.7-5.5-1.4c-2.4 3.6-5.3 7.5-7.9 10.9-2.7 3.6-5.9 7.6-8.1 11.3zM538 131c-.9-1.2-1.8-2.4-3.5-3.4-5.6 3.1-13.3 17.5-19 11.4-6.3-6.9 8.3-12.9 11.7-19-.8-1.3-1.9-2.6-3.3-3.4-1.6.8-4.5 3.9-5.9 5.3-1 .9-1.8 1.6-2.7 2.6-1 1-2 1.9-2.9 2.8-5 5.1-5.3 9.1-.4 14.8 1.2 1.4 4.1 3.7 7 3.9 3.6.2 5.6-2.1 7.5-3.8 2.3-2.1 10.2-9.2 11.5-11.2zM49.7 302.2l-.4 6.7c-1 0-7.6-3.2-9.1-3.9l9.5-2.8zm-15.4-.7l-.5 5.6 24.8 12.2.5-5.2c-1.4-1.2-3.9-2.2-5.5-2.7-.1-16.4 3.4-8.8 6.5-12.5.7-1 .7-3.6.7-5.2l-26.5 7.8zm554.2 75.1c.2-2.1.4-5 1.4-6.6l8.1 4.6-2.1.8c-.9.2-1.6.3-2.5.4-1.6.4-3.1.6-4.9.8zm-8.3-12c1.7.5 3.4 1.9 5.2 2.6l-1.7 10.5-6 1.1-1.1 5.5 27-5.6 1.1-5.3c-2-1.6-22.5-14-23.8-14.2l-.7 5.4zM63.5 208.9l9.8.6-2.8 6.2-7-6.8zm-6.8-.3l19 19.6c.1-.1.2-.3.2-.2l2.1-4.3-4.1-4.4L78 210l6.4.3 2.3-5.1-27.7-1.6-2.3 5zm518.5 211.7c1.6.2 3 2.1 4.2 3 .6.5 3.1 2.6 3.3 3.3l-9.8-.2 2.3-6.1zm-7.7-7.4c3.3 3.3 4.8 2.9 3.9 5.4-1 2.8-2.2 5.2-3 8l-6.1.1-2.2 5.1 27.6-.2c.8-1.6 1.8-3.7 1.9-5.6-3.7-2.3-15.8-14.8-20.3-18-.7 1.2-1.8 3.7-1.8 5.2zM496.2 92.3l-3.8-3c-1.7 1.3-8.1 11.6-10.6 14.5-3.5 4.1-9.5-.5-8.5-4.8.3-1.2 2.7-4.4 3.3-5.3 1.3-1.9 6.3-8.5 6.9-10.3l-3.8-2.9c-1.6 1.4-7.6 10.4-9.2 12.8-4.2 6.7-3.3 10.3 2.3 14.4 6.8 5 10.7 2.6 14.5-2.5 2.9-4.1 6.2-8.6 8.9-12.9zm-461 259.2l.4 4.4c.9.5 1.3.4 2.7.3 1.1-.1 2.2-.3 3.2-.5 7.9-1.1 15.5-3.4 16.3 2.7.8 5.8-3.2 5.9-7.9 6.5-4.4.6-8.7.9-13 1.6l.6 5.1c5.3-.5 11.9-1.3 17-2.2 6.1-1 8.4-4.3 7.8-11.1-.6-6.3-3.2-9.5-9.9-9.2-3 .3-15.2 1.3-17.2 2.4z"/>
    <path fill="#FCEF00" d="M334.5 113.2c.7-3.4-.3-6.7-1.6-9.6-1.6-3.5-2.9-4.5-4.9-6.9-1.2-1.4-10.2-11.7-11.9-12.1-2.1 2.5-3.4 6-2.9 10.2.2 2.2 1.3 2.9 2.5 4.1l9.9 10.4c2.8 3.1 2.6 4.4 8.9 3.9z"/>
    <path fill="#E77400" d="M108.2 324.6c1.9 1.1 7 1.5 9.5 1.9 7.8 1.3 5.9 0 16.9-4.1 2.4-.9 6.2-1.7 8.2-2.7-1-.7-30.2-6.6-33.3-6.7l-1.3 11.6z"/>
    <path fill="#0D0502" d="M46.8 391.4c-.7-3.6-2.5-8.9 1.8-9.6 4-.6 5.2 4.7 5.1 8.3l-6.9 1.3zm-3.2 6l25.2-5.2-.9-4.9-9.6 1.8c-.7-3.5-1.3-7.7-3.1-10-2-2.5-5.8-3.7-9.8-1.8-7.3 3.1-3.3 13-1.8 20.1zM210.7 60.2c2.9-1.8 8.9-3.7 9.7.5.8 4-4.2 5.2-7.2 6.2-.6-1-2.3-5.2-2.5-6.7zm-6.4-2l8.9 23.7c1.6-.1 3.4-.8 4.8-1.7l-3.2-9c3.2-1.4 7-2.4 9.2-4.6 4.4-4.3 1.6-16.6-9.9-12.3-2.1.7-8.4 2.7-9.8 3.9z"/>
    <path fill="#E77400" d="M296.1 191.3L301 134l-10.5 1.2c.1 3.7 2.8 22.2 3.5 27.6 1.8 13.8 2.7 14.2 2.1 28.5z"/>
    <path fill="#6BB92D" d="M590.4 233.9c1.8-4.4-2-9.1-6.3-9.3-13-.5-14.3 14.6-4.5 15.1 4.8.3 9.6-2.7 10.8-5.8z"/>
    <path fill="#E77400" d="M347.3 182.8c-.2-7.3 1.4-16.8 2.1-24.2.4-4.8 2.7-20.4 2.1-24l-8.4-.8 4.2 49z"/>
    <path fill="#0D0502" d="M574.9 252.5l3.9 17.6 4.2-.8c-.5-3.2-2.7-9.8-2.6-12.6l20.1-4.8c.1-1.6-.2-3.4-.9-4.9l-24.7 5.5z"/>
    <path fill="#7E7E7D" d="M345.2 117.3h-46.4c2.9 2 4.8 4.4 9.1 4.4h27.7c3.5 0 3.3.1 5.5-1.4 1.5-1 3.1-2 4.1-3z"/>
    <path fill="#6BB92D" d="M325.9 54.8c8.3.9 11.1-.2 11.2-8.4 0-2.9-.3-5.9-2.3-7.4-1.7-1.3-6.3-1.8-8.7-.9l-.2 16.7zm278.4 288.1l-.7-.3c-.6-.2-.4-.2-1-.3-.6-.1-1.6-.1-2.2-.1-3.1-.2-11.1-1.1-13.1-.6-.6 8.1-.6 10.6 7.5 11.3 8.3.8 9.4-2.3 9.5-10z"/>
    <path fill="#FCEF00" d="M330.4 95.2c-.1-6.6-5.5-25.1-8.6-28.8-2.3 1.8-6.2 13.2-2.6 17.1 1.9 2.1 3.7 3.9 5.5 5.9 1.2 1.4 4.6 5.1 5.7 5.8z"/>
    <path fill="#6BB92D" d="M289.4 56.4c2.1.3 6.9-.2 8.3-1.2 2-1.3 2.3-4.5 2.1-7.7-.5-8.5-3.3-8.7-11.4-8.1l1 17z"/>
    <path fill="#FCEF00" d="M308.4 113.3h16.9c-.9-2.1-11.8-13.1-13.3-14.3-2.3 2-4.5 9.9-4.4 12.7.1 2.6-.2 1 .8 1.6z"/>
    <path fill="#0D0502" d="M411.8 547.5c-1.8.7-2.6 1.1-3.6 3-.9 1.6-1.1 3.8-.3 5.7 1.2 2.8 4.7 5.3 8.8 3.6 7.8-3.2 3.3-15.6-4.9-12.3zm-183.8.1c-8.8 3.8-3 15.2 4.7 12.2 8.2-3 3.3-15.7-4.7-12.2zM113 122.3c1.1 2.5 10.6 10.4 13.5 13.5 1.7 1.8 3 3.5 4.9 4.6 1.4-.8 2.4-2 3.4-3.4-.9-1.7-15.4-15.5-18-17.8-1.6.6-2.6 2.3-3.8 3.1zm233.6-62.5c1.6.6 3.3.8 5.1.7l3.1-25.4c-1.8-.3-3.6-.7-5.2-.4l-3 25.1zm-36.2-.5h5.1l-.3-25.8h-5.1M57.3 435.3l1.7 4.1c0 .1.1.2.2.3 0 .1.1.2.2.3l23.3-10.2c-.4-1.7-1.1-3.4-2.1-4.6l-23.3 10.1z"/>
    <path fill="#E77400" d="M469.4 513.5c2-2.1 3.6-6.2 5.2-9.1.9-1.7 4.4-7.6 4.4-9.1l-8.8-.5-.8 18.7zm-303.8-18.7c1.5 4.7 8 15.4 9.1 18.4l-.6-18c-1.2-1-7-.5-8.5-.4z"/>
    <path fill="#4AB138" d="M321.2 355.9c.4 3.8.2 61.6.1 72.4 0 .7-.1 1.8 0 2.5 0 .4 0 .7.1 1.1.2.9 0 .4.3.9v-76.1c.9-1.9 2.9-.2 3.7-3.3.6-2.5-.4-4.7-2.5-5-2.7-.4-4.5.7-4.8 3-.3 3.3 1.2 3.4 3.1 4.5z"/>
    <path fill="#E77400" d="M523.5 329.1c1 1.5 4.8 3 6.6 4 2.1 1.2 4.5 3.1 6.8 3.9l-.3-10.2-13.1 2.3z"/>
    <path fill="#6BB92D" d="M574.6 448.8c-1.3-1.1-4.1-2.6-5.9-3-1 2.8-6 9.1-1.4 10.8 3 1.1 3.7-1 4.6-2.7 1-1.7 1.9-3.4 2.7-5.1zm-74.8-340.2c.6.9 3.2 2.9 4.2 3.7 1.9 1.5 3.9 2.9 5.9.5 2-2.6-.2-4.2-1.5-5.2-1.4-1.1-3.1-3.1-4.8-3.8-1.1 1.3-3.1 3.4-3.8 4.8zM210.7 60.2c.2 1.5 1.8 5.6 2.5 6.7 3-1 8-2.2 7.2-6.2-.8-4.2-6.8-2.3-9.7-.5zM46.8 391.4l6.9-1.3c.1-3.6-1.2-8.9-5.1-8.3-4.4.7-2.5 6-1.8 9.6z"/>
    <path fill="#E77400" d="M107.5 335.9c.5-.2 10.5-5.8 11.4-6.8-1.9-1-8.5-2.2-11-2l-.4 8.8zM320.2 462c3.8-.2 3.4-5.7.8-5.6l-4.7-.5v6.1h3.9zm-86.3 6.1h6l-2.7-9.4c-.4-.6-.2-.4-.6-.8-.5 2.7-2.7 7.9-2.7 10.2z"/>
    <path fill="#6BB92D" d="M588.5 376.6c1.8-.2 3.3-.5 5-.8.8-.1 1.6-.2 2.5-.4l2.1-.8-8.1-4.6c-1.1 1.7-1.3 4.6-1.5 6.6zM573 426.4l9.8.2c-.3-.6-2.7-2.8-3.3-3.3-1.2-1-2.6-2.8-4.2-3l-2.3 6.1zM183.9 86.3l5.5-2.9c-.3-1-6.3-6-7.2-6.5.1 3.5 1.1 8.5 1.7 9.4zm-93.1 74c.7.7 3.9 7 5.6 7.9 1.1-1.4 3.3-4 3.7-5.5l-9.3-2.4zM391.2 57.7l6.6 1.9c-.1-2.7 0-7.7-1.2-9.5l-5.4 7.6zm208.9 223.9l-1.2-.7c-.4-.2-.8-.2-1.3-.3l-7-1.3 1 6.7 8.5-4.4zM40.2 305c1.5.7 8.1 3.9 9.1 3.9l.4-6.7-9.5 2.8zm30.3-89.3l2.8-6.2-9.8-.6"/>
    <path fill="#8F4A24" d="M342.7 469.4l-.2-19.5h8.8v17.6c.1 2.5.4 2 .8 2.4-.9-6.2.5-14.2-.4-20.1-1.7-.7-7.6-.6-9.4 0l-.2 17.4c0 1.2-.2 1.4.6 2.2zm-22.5-7.4l-3.9.1V456l4.7.5c-.8-1.3-3.7-1-5.1-.7l-.1 6.6c1.1.3 2.5.5 3.6.1.7-.3.3-.1.8-.5z"/>
  </g>
</svg>
