<svg xmlns="http://www.w3.org/2000/svg" width="299.6" height="129">
  <g fill-rule="evenodd" clip-rule="evenodd">
    <path fill="#EF7F15" d="M30.6 43c1.7-7.2 8.9-27.1 9-32 13.2 3.1 8.9 22.4-2.5 28.5L30.6 43zM28.5 0C20.6.6 14 2.7 12 6.4c-1.6 3-.7 3.1-.4 6.6h8l-12 32.6c4.4 0 6.6 1 10.5.5 6.3-.7 5.8.3 11.5.4.9-2.2-1.2-1.5 2-.9 2.9-.1 3.3-.4 5.1-.5 1.2 0 2.8.1 5 .1 2.7-.1 4.2-.5 8.9-.6C58.4 41 65.1 37.9 67.7 29c3.3-11.3-2.4-18.4-8.9-23.3C54.5 2.6 46.7.6 38.7 0H28.5z"/>
    <path fill="#EC6622" d="M76.6 62c.7-7.9 11-20.4 18-22 0 7.3-2.8 11.5-6.3 15.8-5.4 6.5 5.2 6.2-11.7 6.2zm-26-17.3c-4.7.1-6.2.6-8.9.6-2.2.1-3.8-.1-5-.1-1.8 0-2.2.3-5.1.5.1 7.4 7.3 20.4 13 24.4h58c2.5-1.7 3.1-1.7 4-5-4-4.2-5.2-3-13-3 3.1-2.7 13.1-3.9 15.6-13.4 3-11.3-4.3-16.2-11.9-17.4C82.7 28.8 66.1 45.9 60.6 54c-4.1-2.2-7.8-5.3-10-9.3z"/>
    <path fill="#E94B29" d="M102.6 70h-58c2 2.7 4.9 3.3 8 5 0 11.1 2.2 17.6 14.1 21.9 11.4 4.1 19.6-.2 28.9-3.9 14.2-5.7 16-20.4 9.6-18.6-3.5 1-12.8 10.6-26.6 10.6-1.8-2.7-2.9-3.3-3-8 13.9 0 21.1 1.8 27-7z"/>
    <path fill="#EC6622" d="M29.6 46.6c-5.8-.1-5.3-1.1-11.5-.4-3.9.4-6-.5-10.5-.5-.7 9.9-9.6 18.5-3 28.3 6.8 0 14.2-2.7 17.8-8.2 1.5-2.2 6.6-16.1 7.2-19.2zm82 30.1h10c2.4-2.8 4.1-6.4 8.2-6.5 4.9-.1 3.8 5 3.8 9.9l11-.1V54h-11v6c-7.6 0-10.8.3-15.2 3.8-4.1 3.3-6.4 6.1-6.8 12.9zm73 3.6h23l-2.2-2.1c-1.2-1.3-.9-.8-1.8-2.2 2.6-4.9 2.6-3.9 6.4-7.6.2-.2 3.3-3.8 3.3-3.8.2-.4.8-1.7.8-1.9.7-4.7-4-9.5-10.3-3.4-3.2 3.1-5.6 6.4-9.2 8.8V56h-10v24.3z"/>
    <path fill="#E94B29" d="M144.6 80.1l-11 .1c-.9 3.2-3 6.6-7.9 5.9-4.4-.7-4.1-4.4-4.1-9.4h-10c0 10.8 1.3 16.8 9.8 19.5 6.4 2.1 7.2.3 12.2-1.3 5.2-1.7.7-1 5 1 3.3 1.5 2.4 1.1 7 1.1 1.2-5.1 1.8-3.6-.3-8.7-2.1-4.9-.7-1.5-.7-8.2zm85 6l-11 .1c4.9 19.3 23.8 9.1 25 8.8 8.3 5.6 3.7 5.6 12 0-.5-2.3-.8-2.3-1-5-3.3-2.4-5-6.1-5-11.8h-10c0 5.1-1.3 5.5-3 8.7-3.9.1-4.3.3-7-.8zm-22-5.8h-23V96c2.2 1.5 2 2.3 4.3 2.8 8.2 1.7 5.7-10.9 5.7-15.8 2.2 1.5 6.7 5.2 8.8 7.2 3.9 3.9 3.9 5.8 11.2 5.8 1.4-2.2 2.3-2.9 3-6-2.3-3.4-6.5-8.1-10-9.7z"/>
    <path fill="#EF7F15" d="M220.6 72.3c3.1 1.6 7.5.9 12 1.1 2.9-2.8 2.7-4.1 7-4.5v9.3h10c0-19.6 2.2-19.4-10-19.3-10.1.1-14.3 5-19 13.4z"/>
    <path fill="#AB901F" d="M101.6 16v6c-8.3-.2-5.8-5.5 0-6zm1-7c-16.4 0-15.2 21.5-1.9 19.1 7.8-1.4 1.3 1.6 8.9-.1l-2-27h-5c-.9 3.8-1.8 4.2 0 8z"/>
    <path fill="#EC6622" d="M148.6 89.5l32-.1c-2.7-2.3-3.9-5-4-10.1h-11V84c-3.3 2.2-1.4 2.6-6 3-3.1-4.6-2.5-6-1-11.9l-11-.1c-.4 5.2-2 10.2 1 14.5z"/>
    <path fill="#AB901F" d="M76.6 20c0-2.8 2.3-3.9 4-5 0 4.3.5 4.9-1 8-2.2-.6-3-.2-3-3zm-6-1c0 13.5 8.6 9.7 11.4 9.5 5.3-.4.7 1.1 4.8.9 4.8-.2 2-4.8.9-7.4-1.6-3.8-1-7.8-1-13-11.4-2.7-16.1 5-16.1 10z"/>
    <path fill="#E94B29" d="M254.6 90c5.5 6.3 15.4 14.1 24 7 .8-.7 2.2-2.1 2.8-3.1 1.7-2.9 1.2-1.6 1.2-6.1h-9c-3.5 2.4-4.7 2.6-8.2-.5-4.8-4.3-2.4-4-9.8-2.3-.5 2.3-.8 2.3-1 5z"/>
    <path fill="#EF7F15" d="M255.6 70.7c1.3 0 4 .2 5 .1 1.3-.1 1.7-.1 3-.5 2.6-.8 1-.1 2.7-1.4-.3-2.1-1-2.8 2.8-2.6 1.5.1 4.3 1.6 6.1 2.1 5.9 1.4 6.3-1.6 6.3-7.5-5.2-2.7-12.4-7-20.1-2.1-2.5 1.5-1.5.7-3.3 2.7-2.3 2.8-2.5 4.5-2.5 9.2z"/>
    <path fill="#AB901F" d="M131.6 23h-3c0-6.2-1.6-7.5 4-8 0 3.3 0 5.7-1 8zm-1 7c9 0 12-22 1-22-11.3 0-13.4 22-1 22z"/>
    <path fill="#EC6622" d="M255.6 70.7c1.8 1.9 1.3 2.8 3.3 4.9 1.2 1.2 3.6 2.6 5.3 3.7 3.6 2.4 8.2 4.4 9.4 8.3h9c.1-.1.2-.6.2-.5 0 .1.9-7-5.3-11.1-4.4-2.9-8.7-4-11.1-7.1-1.7 1.3-.2.6-2.7 1.4-1.3.4-1.6.4-3 .5-1.1.1-3.8-.1-5.1-.1z"/>
    <path fill="#E94B29" d="M180.6 89.3l-32 .1c1.6 3.9.1 2.5 3.5 5.1 1.9 1.4 3.1 2.1 5.6 2.4 8.1 1.2 7.7-2.5 13.9-3 1.4 5.1 4.6 4 9 3 .9-3.8 2-3.1 0-7.6z"/>
    <path fill="#EF7F15" d="M165.6 79.3h11c.3-8.7 9.8-19.3-5-19.3-2.2 4.2-2.5 3.9-3.8 9.2-.8 3.2-2.1 6.9-2.2 10.1zm123-4.3h11V61.6c-.3-2.2-1.2-3.1-4.8-2.7-6.9.9-6.2 8.4-6.2 16.1zm-141 0l11 .1c1.5-6.9 3.8-6.3 2-14.1-4.8-1.1-6.9-2.2-9.6 2.4-1.4 2.6-3.1 8.3-3.4 11.6z"/>
    <path fill="#EC6622" d="M288.6 89.4h11V75h-11"/>
    <path fill="#907829" d="M113.6 124c-.4-4.4 1.3-2.9-3-2 .1-5.6.5-7.5 6-8-1.2 14.2-3.6 10 9 10-1.9-8.1 3.3-6.1 0-12-3.5 2.3-1.6.2-3.6 6.4-.1.2-.2.5-.3.7-.9 2.6-.1-1.2-1.1 2.9-2.8-2.1-1.7.1-1.4-3.5.9-10.9 3.4-4.8-4.3-6.8-4.7-1.2.2.5-4.3-2.8-.8 2.9-2.2 3.9-2.9 10.4-.7 6.8 1.5 5.7 5.9 4.7zm79 0h3c.4-4.8.8-6.9 4-9 0 5-.9 4.5-1 9h3c1.1-4.6.7-7.8 5-9-.5 6.5-2.3 5.3 0 10 3.4-2.5 1 .8 2.3-3.7 3.7-12.4-4.3-8.8-4.6-8.8l-10.7-.5c0 5.8-1 7-1 12z"/>
    <path fill="#EC6622" d="M218.6 86.2l11-.1c-2.4-5.3.1-9.6 3-12.6-4.5-.2-8.9.4-12-1.1-2.6 4.2-2 7.2-2 13.8z"/>
    <path fill="#907829" d="M234.6 124c1.7.4 1.9.4 2.9.6l2.1.4c-2.3 3.1.6 1.6-4 2-.8-1.3-.5-1.1-1-3zm3.6 5c2-.7 3.7-1.9 4.1-2.4 1.4-1.9 3.3-11.4 3.4-14.6-10.5 0-11.8 1.8-11 12h-3c.1 2.8.9 4.3 2.1 5h4.4zm-.6-7c0-5.1 0-6.9 4-8-.1 5.1-.9 5.9-4 8z"/>
    <path fill="#AB901F" d="M112.6 13c0 18.7-.7 18.2 7 13 0-10.8 1.6-17-3-17-2.3 0-4 1.7-4 4z"/>
    <path fill="#EF7F15" d="M184.6 56h10c0-3.8 1-9.6-1.4-11.7-3.2-2.9-6.4.3-8.6 1.7v10z"/>
    <path fill="#907829" d="M33.6 122c-1.6-3.4.1-6.1 3-8 1.6 3.4-.1 6.1-3 8zm-3-7c-2.8 12.1 0 9 9 9 .1-2.8 1-7.6 1.7-10.5 1-4.3 2.6-6.1-2.7-6.5v5c-6.9 0-3.8.2-8 3zm239 7c0-5.2-.3-5.8 4-7-.4 4.4-.4 6-4 7zm-4 2s11 3.5 11-8c0-4-3.3-4.3-6-3 .5-2.4.9-3 1-6h-4c0 6.9-2 10.6-2 17zm-108-10c0 15.3-10.9 2.9 0 0zm1-2c-8 .2-9.5 5.6-8 12 4.7 1.1 3.8 0 10 0-1.4-5.9 2-9.1 2-17-4.2.4-4 .6-4 5z"/>
    <path fill="#EC6622" d="M287.6 48c0 4.3 2.2 5 6 7 3.2-1.5 5.2-3.5 6-5.4V46c-.9-1.8-3.2-3-7-3h-2c-1.4 2.1-3 2.6-3 5z"/>
    <path fill="#EF7F15" d="M133.6 54h11c0-7.1-.2-6.8-3-11-9.6 0-8 1.5-8 11z"/>
    <path fill="#907829" d="M246.6 124h3c.5-5.9 1.5-8.1 5-9-.5 6-4.1 6.6 1 10 1-2.1 2-8.7 2-12-2.7-1.3-1.1-.9-5-1v-5c-4.9.4-3.2.8-3.9 6.1-.5 4.6-1.8 6.8-2.1 10.9zm-161-2c0-5.6-.8-6.7 4-8-.1 5.1-.9 5.9-4 8zm-4-2c0 1.7 1.3 3.7 2 5 3.9-.3 3.9-1 9-1-1.3-5.5.5-6.2 1-12-5.8 0-12 .8-12 8zm87 1h-3c.1-3-.4-2 .7-4.3.3-.6 1-1.4 1.3-1.7 1.1-1 0-.4 1.9-1.1 1.7 3.6.3 2.6-.9 7.1zm-6-3c0 3.6-.5 5.9 3 6.6 9 1.6 7.1-3.9 7.2-5.3.3-2.5.8-3.9.8-7.2-2.5-.1-11-.9-11 5.9zm115 3c0 2.3.3 1.2 1 4 7.6-.6-3-1.3 9-1 0-5.8 1-7 1-12-7.7 2-.7 5.4-7 10-1.6-3.4.6-5.3 1-10h-4c0 5.1-1 4.6-1 9zm-103 3c8.4-.7.5-7 8-9-.2 1.2-3 13.2 1.7 8.9 2.7-2.5.3-.1.9-3.6 1.7-10.4 1.8-7.4-9.6-8.3 1.3 5.5-.5 6.2-1 12zm-80 0h3c1.9-8.2 1.2-8 5-9-.5 6.6-3.8 6.8 1 10 .8-1.7 3.8-13 0-13h-8c0 5.7-.9 7.6-1 12zm-49-2c0-5.1 0-6.9 4-8 0 5.9-.4 5.5-4 8zm-3 2c5.1 1.2 2.8 0 9 0 0-6.5 1.9-6.2 2-12-9.5 0-11 .1-11 12zm172-7l2.8-3.2c-.9 4.5.7 1.6-2.8 3.2zm-4 3c0 4.1 7 8.3 9 1-5.4.5-3.4 2.6-6-1 14.8-1.2 6.1-13.8-.6-5.6-.7.8-2.4 4.4-2.4 5.6zm-82 4c7.5-2-.7-6.9 7-9 0 8.8-4.9 8.4 2 9 1.5-13 3.8-11.7-9-12 2.4 5.1-1.7 7.8 0 12z"/>
    <path fill="#E94B29" d="M299.6 89.4h-11c0 4.8-.8 10.4 4.6 9.3 4.1-.9 6.1-4.8 6.4-9.3z"/>
    <path fill="#907829" d="M13.6 117c1.8-2.6.5-2.1 4-3-1.4 3.8-.2 1.5-4 3zm-4 3c0 2.3.3 1.2 1 4h2c0 2.8 5.1.5 6-3-5.4.5-3.4 2.6-6-1 5-.4 7-1.7 8-6-1.6-1.1-4.8-4.2-8.8.2-.9 1.1-2.2 4.2-2.2 5.8zm222 4c0-15.7 5.2-10.8-9-12 1.9 8.3-1.8 7.8 0 12 4.6-1.2 2.2-.2 3.4-4.6 1.2-4.2-.5-3.3 3.6-4.4-.1 6.9-4.7 8.4 2 9zm-177-9c0 3.7 2.7 2.2 4 7-2.3-.5-2.3-.8-5-1 .6 7.2 8 3.8 8 0 0-3.5-1.8-1.4-3-6 1.8-.8-.4 0 1.3.1 1.9.1-.1 1.1 2.1-.1 5.7-3-7.4-4.9-7.4 0zm19 0c0 3.7 2.7 2.2 4 7-2.3-.5-2.3-.8-5-1 .6 6.7 8 4.7 8-1 0-3.5-1.7-1.9-4-5 5.4-2.2-.5 1 3.3.3 1.8-.3 1.5-1.4 1.7-3.3-1.4 0-3.5-.2-4.8.2-1.1.3-3.2 1.2-3.2 2.8zm-71 9c0 2.8 5.1.5 6-3-2.7.2-2.7.5-5 1 0-10.3 3-7.6 5.3-6.4.1.1.4.3.7.4v-4c-11.3 0-9.7 9.3-9.2 10.2 1.2 2.2-.1.9 2.2 1.8zm28-9v-3h-9c2 4.2-.6 7.2-1 12h3c.3-1.2 1.6-6.1 2.1-7 2.5-4.4.7-.3 4.9-2zm260 9c3.1-.8 2.8.2 5-9 4.4.4 3.9 2.2 4-3h-9c1.8 3.7 0 7 0 12zm-32 0h4c0-5 1-6.2 1-12-5.5.1-3.1-.6-3.5 3.5-.3 3.5-1.2 5.5-1.5 8.5z"/>
    <path fill="#AB901F" d="M112.6 1c0 3.5-.6 6 3 6 2.2 0 2.2-.8 4-2-1-4.4-2.7-5.7-7-4z"/>
    <path fill="#907829" d="M61.6 127c4.4-.4 4.6-1.7 5-6-3.8.4-1.5-.8-3.5 1.5-1.4 1.6-1.3 2-1.5 4.5zm77 0c3.4-.9 4.7-2 5-6-4.4.4-4.6 1.7-5 6zm123-16h3v-3c-2.3.6-2.9.2-3 3z"/>
  </g>
</svg>
