<svg xmlns="http://www.w3.org/2000/svg" width="51.3" height="34.8">
  <path fill="#1F346D" fill-rule="evenodd" d="M29.7 19c-4.7-5.5.1-11 9.1-5 1.8 1.2 4.2 3.6 4.9 6.1 1.1 3.9-2.2 5.1-5.5 4.3 2.1-.4 3.8-.1 3.8-2.5 0-3.3-5.4-8.4-10.2-8.4-5.1 0-1.8 5.3-2.1 5.5zM19.1.1H6.4C.4 0 .1 1.2.1 6.9c0 3.1-.4 24.4.3 25.5.4-.6 1.7-7.6 2.1-9.3l.5-2.4c.3-.5 0-.3.5-.6H10c2.1 0 4.6-.3 4.9 2 .2 1.6-.5 4.3-1.1 5.5-1.2 2.3-3.5 1.8-4.4 2.4l2.4 4.6c2.8.1 2 .9 3.7-7.2.5-2.2 1-5.4 1.7-7.4h6.6c2 0 4.4-.2 5 1.6.4 1.2.3 8.3-5.5 8 .4 1.4 1.8 3.5 2.5 4.9l2.6.1c.2-1.7 2.4-13.7 2.9-14.5l4.3-.1-2.5 14.6h12.1c5.1 0 6-.9 6-6-3.1-.5-4.3 0-7-1.1 3-.3 4 .1 7-.7V13c-2.6-2.6-4.6-5-8.2-7.2C37 2 24-2 20.7 5.8c-1.7 4.1 1.8 8.7 3.4 11-1.4-.9-4.2-5-5-7-1.5-3.6-1.4-6.4 0-9.7zm4.1 10.3c0 2.2 2.1 6.1 3.3 7-.4-1.2-4.5-7.5 1.9-9.2 3.9-1 8.7 1.3 11.2 2.8 2.7 1.7 5.7 4.3 7.1 7.3 3.3 7.2-4.4 7.4-5.2 7.8l2.6.1c12.6.4 4.6-18.6-11.5-21.3-4.9-.8-9.4.7-9.4 5.5z" clip-rule="evenodd"/>
  <path fill="#0098D6" fill-rule="evenodd" d="M51.3 13.1V6.3C50 5.6 48.2 3.1 43.8.9l-.9-.6-.1-.1-.1-.1H19.2c-1.5 3.4-1.5 6.1-.1 9.7.8 2 3.6 6.1 5 7-1.6-2.3-5.1-6.9-3.4-11C24-2 37 2 43 5.8c3.6 2.2 5.6 4.6 8.3 7.3z" clip-rule="evenodd"/>
  <path fill="#0098D6" fill-rule="evenodd" d="M23.2 10.4c0 2.2 2.1 6.1 3.3 7-.4-1.2-4.5-7.5 1.9-9.2 3.9-1 8.7 1.3 11.2 2.8 2.7 1.7 5.7 4.3 7.1 7.3 3.3 7.2-4.4 7.4-5.2 7.8l2.6.1c12.6.4 4.6-18.6-11.5-21.3-4.9-.8-9.4.7-9.4 5.5z" clip-rule="evenodd"/>
  <path fill="#0098D6" fill-rule="evenodd" d="M29.7 19c.2-.2-3.1-5.5 2.1-5.5 4.7 0 10.1 5.1 10.2 8.4 0 2.5-1.7 2.1-3.8 2.5 3.3.7 6.6-.4 5.5-4.3-.7-2.5-3.1-4.9-4.9-6.1-9-5.9-13.7-.5-9.1 5z" clip-rule="evenodd"/>
  <path fill="#1F346D" fill-rule="evenodd" d="M51.3 6.3C51.4-.8 49.1 0 42.6.1l.1.1.1.1.9.6c4.5 2.2 6.2 4.6 7.6 5.4zM5.1 27.8l.9-.5c1.7-.9 5.3.9 4.6-3.8L6 23.3l-.9 4.5zm14.1.3c1.1-1.8 2.5-.9 4.6-1.3.6-.7 1.4-2.1.7-3.3-1.1-.4-3-.2-4.4-.2l-.9 4.8zM3.7 34.7h3.5l-2.4-5c-.5 1-.9 3.7-1.1 5zm14 0l3.5.1-2.4-5.1" clip-rule="evenodd"/>
  <path fill="#0098D6" fill-rule="evenodd" d="M51.3 28.7v-1.8c-3 .8-4.1.4-7 .7 2.7 1.1 3.9.7 7 1.1z" clip-rule="evenodd"/>
</svg>
