<svg xmlns="http://www.w3.org/2000/svg" width="423.7" height="435.1">
  <path fill="#2E3192" d="M218.6 233.4c-1.5-3.7-3.9-6.4-6.8-7.1-2.9.7-5.3 3.4-6.8 7.1-1.4-3.5-3.7-6.1-6.4-7v23.4H225v-23.4c-2.6.9-4.9 3.5-6.4 7zM319.5 133c1.5 1.7 3.4 2.3 5.7 1.9 2.3-.5 5-2.1 8-4.7 3.2-2.7 5.2-5.2 6-7.5.8-2.3.5-4.2-1-6-1.5-1.7-3.4-2.3-5.8-1.8-2.3.5-5.1 2.2-8.3 4.9-3.1 2.7-5 5.1-5.8 7.3-.6 2.2-.3 4.2 1.2 5.9zm-62.9-58.4c1.1-.6 1.9-2 2.4-4.1.5-1.8.5-3.3-.1-4.3-.5-1.1-1.6-1.8-3.3-2.3l-.2-.1c-.7-.2-1.2-.2-1.6 0-.4.2-.6.7-.8 1.4l-2.5 9.2 1.5.4c2 .5 3.6.5 4.6-.2zm94.2 232.7l-8-5-.8 1.3c-1.1 1.7-1.5 3.2-1.2 4.4.3 1.2 1.4 2.4 3.2 3.5 1.6 1 3 1.4 4.2 1.2 1.2-.2 2.2-1 3.1-2.5l.1-.2c.4-.6.5-1.1.4-1.5-.1-.4-.4-.8-1-1.2z"/>
  <path fill="#2E3192" d="M372.9 108.2c-17.8-27.3-35.3-44.7-48.3-40.5 0-13.7-22-25-53.5-33.4-19.8-5.3-52.3-8.4-59.2-20.8C205 26 172.5 29 152.7 34.3 121.1 42.6 99.2 54 99.2 67.7c-13-4.2-30.6 13.2-48.3 40.5-11.1 17.2-24.2 47.2-38.1 49.9 9.7 10.4 2.6 42.3 1.5 62.7-1.7 32.6 2.3 57 15.3 61.2-8 11.1 3.1 33.1 23.6 58.5C66 356.4 90.5 378 88.8 392.1c12.9-6 41 10.6 60.1 17.9 30.4 11.7 54.9 15.4 62.9 4.4 8 11.1 32.5 7.3 62.9-4.4 19.1-7.3 47.3-24 60.1-17.9-1.8-14.1 22.8-35.8 35.6-51.7 20.5-25.3 31.6-47.4 23.6-58.5 13-4.2 17-28.6 15.3-61.2-1.1-20.4-8.2-52.4 1.5-62.7-13.8-2.6-26.8-32.7-37.9-49.8zm-5.4 58.4l.9-.3 1.8 6.2 1.8 6.2-.9.3c-.5-1.6-1-2.5-1.4-2.7-.4-.2-1.1.2-2.1 1.1l-7.6 7.3 8.7 2.3c2 .5 3.3.6 3.8.2.5-.4.5-1.6.1-3.5l.9-.3 1.2 4.1 1.2 4.1-.9.3c-.3-.7-.6-1.2-1-1.5-.4-.3-1.3-.7-2.5-1l-12.3-3.4-7.3 2.1c-1.1.3-1.7.7-2 1.3-.2.5-.2 1.5.1 3l-.9.3-1.9-6.5-1.9-6.5.9-.3c.5 1.4 1 2.3 1.5 2.6.5.3 1.3.4 2.4 0l6.2-1.8 10-9.9c.8-.8 1.3-1.4 1.5-1.9-.1-.2-.1-.9-.3-1.8zm-15.8-27c3.5 1.1 6.2 3.4 8.1 6.9.8 1.4 1.3 3.4 1.5 5.8.1 1 .3 1.7.7 2 .3.3.9.4 1.7.3l.3-.1.5.9-8 4.3-.4-.8c1.7-2 2.8-4 3.3-6.1.5-2.1.4-3.9-.5-5.5-1.1-2.1-2.9-3.2-5.4-3.3-2.4-.1-5.5.9-9.2 2.8-3.6 1.9-6 3.9-7.2 5.9-1.2 2.1-1.3 4.2-.1 6.3.4.8.9 1.5 1.4 2.1.4.4.8.6 1.3.7.5.1 1 0 1.5-.3l3.6-1.9c1-.5 1.5-1.1 1.7-1.7.1-.6-.2-1.7-.9-3.1l.8-.5 3.1 5.9 3.1 5.8-.8.5c-.8-1.1-1.5-1.8-2-2-.5-.2-1.3 0-2.2.4l-5 2.6c-2.7-1.8-5-4.5-6.9-8.1-1.9-3.6-2.4-7.2-1.4-10.7 1-3.5 3.2-6.2 6.7-8 3.7-1.8 7.2-2.2 10.7-1.1zM329.8 111c3.6.2 6.8 1.8 9.4 4.9 2.6 3 3.8 6.4 3.5 10-.3 3.6-2 6.8-5.1 9.5-3 2.6-6.3 3.8-9.8 3.5-3.6-.3-6.7-1.9-9.3-5-2.6-3-3.8-6.3-3.6-9.9.2-3.6 1.8-6.7 4.8-9.3 3.1-2.7 6.5-3.9 10.1-3.7zm-36.7-3.1c1.2.9 2.1 1.3 2.7 1.3.6 0 1.2-.5 1.9-1.4l3.9-5 2.2-13.9c.2-1.1.2-1.9.1-2.4s-.5-1.1-1.2-1.6l.6-.8 5.1 4 5.1 4-.6.8c-1.3-1-2.3-1.4-2.7-1.3-.5.1-.8.8-1 2.1l-1.8 10.4 8.3-3.3c1.9-.8 3-1.5 3.1-2.1.2-.6-.5-1.6-2-2.8l.6-.8 3.4 2.6 3.4 2.6-.6.8c-.6-.4-1.2-.6-1.7-.6-.6 0-1.4.2-2.6.6l-12 4.5-4.7 6c-.7.9-1 1.6-.9 2.2.1.6.8 1.4 1.9 2.4l-.6.8-5.3-4.2-5.3-4.2.7-.7zM267.9 93c.6-.2 1.1-.8 1.5-1.8l7.4-16.7c.5-1 .6-1.8.3-2.4-.3-.5-1.1-1.1-2.4-1.8l.4-.9 6.1 2.7 6.2 2.7-.4.9c-1.4-.5-2.4-.7-2.9-.6-.6.2-1.1.8-1.6 1.8l-7.4 16.7c-.5 1-.6 1.8-.3 2.4.3.5 1.1 1.1 2.4 1.8l-.4.9-6.1-2.7-6.2-2.7.4-.9c1.4.6 2.4.8 3 .6zm-29.8-9.1c1.4.3 2.3.3 2.8 0 .5-.2.9-.9 1.2-2l4.7-17.6c.3-1.1.3-1.9 0-2.4s-1.1-.9-2.5-1.4l.2-.9 6.3 1.7 5.8 1.6c3.4.9 5.9 2.2 7.3 3.8 1.5 1.6 1.9 3.4 1.4 5.6-.6 2.3-2 3.8-4.2 4.5-1 .3-2.1.4-3.4.4l3.7 10c.5 1.4.9 2.3 1.3 2.8.3.5.7.8 1.2.9l-.2.9-1.2-.3-6.5-1.8-4.6-13.7-1.2-.3-2.1 7.9c-.3 1.1-.3 1.9 0 2.4s1.1.9 2.5 1.4l-.2.9-6.3-1.7-6.3-1.7.3-1zm-27-2.2c1.4 0 2.3-.2 2.8-.5s.7-1.1.8-2.2l1.3-18.2c.1-1.1-.1-1.9-.5-2.3-.4-.4-1.3-.7-2.7-.9l.1-1 9.6.7 12.6.9-.3 3.9-.3 3.9-.9-.1c-.1-2.3-.8-4-1.9-5.1-1.2-1.1-3.1-1.7-5.7-1.9l-1.6-.1c-.7-.1-1.3.1-1.6.3-.3.3-.5.8-.6 1.5l-.6 8.8h.7c1.8.1 3.1-.2 4-1 .9-.8 1.6-2.3 2-4.3l1 .1-.5 6.5-.5 6.5-1-.1c-.1-2.2-.6-3.7-1.4-4.7-.8-1-2.1-1.5-3.8-1.6h-.7l-.6 9.2c-.1.8.1 1.4.4 1.7.3.4.9.6 1.7.7l.9.1c2.7.2 4.9-.2 6.5-1.1 1.6-.9 3.1-2.6 4.2-4.9l1.1.1-1 3.9-1.1 3.9-12.9-.9-9.6-.7.1-1.1zm55.3 206.9c-.1 15.2-25.7 24-54.6 24-28.9 0-54.5-8.8-54.6-24-.2-28.1 29-41.1 21.4-49.8.9 3.1 0 8.1-4.9 8.1-2.8 0-5-2.7-5-6.1 0-6.6 8.4-9.9 10.8-16-.3 3.8 6.8 8.5 7.1 14.9.2 4.5-2.3 11.2-5.8 16.5-6.3 9.4-19.1 27.8-11.9 37 4.4 5.7 15.8 8.2 25 8.7 9 .5 16.2 7.1 18 9.7 1.8-2.7 9-9.2 18-9.7 9.2-.5 20.6-3.1 25-8.7 7.2-9.3-5.7-27.6-11.9-37-3.5-5.3-6-12-5.8-16.5.3-6.4 7.4-11.1 7.1-14.9 2.4 6 10.8 9.4 10.8 16 0 3.3-2.3 6.1-5 6.1-4.9 0-5.8-5-4.9-8.1-7.7 8.7 21.5 21.6 21.2 49.8zm-32.5-39.8c1.2 0 3 1.7 3 3.7 0 3.3-3 5.5-6.1 5.5-3.1 0-5.6-1.8-5.6-4v-1.7h-26.6v1.7c0 2.2-2.5 4-5.6 4-3.1 0-6.1-2.2-6.1-5.5 0-2 1.7-3.7 3-3.7.9 0 2 .8 2.5 1.8v-29.5h39.1v29.5c.4-1 1.5-1.8 2.4-1.8zm4.2 3.6c.6.8 3.1 3.9 3.7 4.8.8 1.1 1.1 1.9 1 3.4-.1 1.7-.8 3.3-2.1 4.8-2.1 2.3-5.3 4.2-9.1 5.9 1.6-2.6 2.5-5.1 2.5-7.8 0-2.3-.9-3.5-2.2-4.4 3.5-.8 6.8-2.9 6.2-6.7zm5.2 7c2.4 3.5 4.7 7.2 6.9 11.5.2 2.2-.6 4.3-2.4 6.2-5.6 5.9-19.8 8.4-29.8 13.2 2.5-4.3 5.4-8.1 8-11.4 1.4-1.8 2.6-3.4 3.8-5 4.9-2 9.1-4.2 11.7-7 2-2.3 2.5-4.9 1.8-7.5zm7.9 13.2c1.2 2.5 2.5 5.2 3.7 8.2 2.3 8.7-2.1 14.7-9.8 16.9-10.3 2.8-25.8 1.3-33.2 13.1-7.4-11.9-22.9-10.3-33.2-13.1-7.7-2.1-12.2-8.1-9.8-16.9 1.2-3 2.5-5.7 3.7-8.2-.3 2.2.1 4.3 1.7 5.9 6 6.4 23.5 8.3 32.9 14.6.2.3.3.6.5 1 2 4.2 3.1 7.6 4.3 12.4 1.2-4.8 2.3-8.2 4.3-12.4.2-.3.3-.6.5-1 9.4-6.3 27-8.3 32.9-14.6 1.3-1.6 1.7-3.7 1.5-5.9zm-69-5.7c2.5 2.8 6.8 5 11.7 7 1.1 1.6 2.4 3.3 3.8 5 2.6 3.4 5.5 7.1 8 11.4-10-4.8-24.3-7.3-29.8-13.2-1.8-1.9-2.5-4-2.4-6.2 2.2-4.3 4.5-8 6.9-11.5-.8 2.6-.2 5.2 1.8 7.5zm8.5-3c0-3.3 2.2-4.3 4.5-5.3 2.8-1.2 4-2.5 4-5.6h25.4c0 3.2 1.1 4.4 4 5.6 2.3 1 4.4 2 4.5 5.3 0 4.5-3.3 8.8-7.4 13.9-3.1 3.9-6.7 8.4-9.4 13.8-2.1 4.2-3.1 7.5-4.3 12.6-1.3-5.1-2.3-8.4-4.3-12.6-2.7-5.5-6.2-9.9-9.4-13.8-4.2-5.2-7.6-9.4-7.6-13.9zm1.1-4.7c-1.3.9-2.2 2.2-2.2 4.4 0 2.6 1 5.1 2.5 7.8-3.8-1.7-7-3.6-9.1-5.9-1.3-1.5-2-3.1-2.1-4.8-.1-1.5.1-2.3 1-3.4.6-.8 3-4 3.7-4.8-.6 3.7 2.7 5.8 6.2 6.7zm39.1-42.1l.5 3h-39.1l.5-3c-4.3-6.1-6.9-11.5-7-14.7 2.5-1.2 8.3 2.5 14.5 8.9 2.8-4.1 6.8-7.4 11.5-9.3 4.7 1.9 8.7 5.2 11.5 9.3 6.2-6.4 12-10 14.5-8.9 0 3.2-2.6 8.6-6.9 14.7zm-25.2-84.2l6.2-7.6 6.2 7.6 6.3-5.5-4.9 12.3h-15l-4.9-12.3 6.1 5.5zm3.2-17.6c-.1 3.5 1 6.4 2 9.1l-5.4 6.6-1.9-1.7c-.4-3.1.5-7.4 5.3-14zm-4.5 25.5h15l9.7 63.7c-2 1.4-3.9 3.2-5.7 4.9-2.9-3.9-6.9-7-11.5-8.9-4.6 1.9-8.6 5-11.5 8.9-1.8-1.8-3.7-3.5-5.7-4.9l9.7-63.7zm7.9-47.7c1 16.5 9.2 25.5 7.6 36.4l-1.8 1.6-.6-.7c.4-4.3-.9-8.4-2.3-13-1.3-4.2-2.8-8.9-3.2-14.7-.1-2.2-.1-4.5-.1-6.7-.4.8-.8 1.5-1.2 2.3.4-1.8.9-3.5 1.6-5.2zm-1.5 7.7c.3 12.5 5.7 20.1 5.6 28.1l-4.6-5.6v.1c-.7-2-1.4-4.1-1.6-6.4-.1-1.7 0-3.3.1-5-1 1.1-2 2.2-2.9 3.4-.6.8-1.1 1.6-1.5 2.3 0-3.9 1.2-9.2 4.9-16.9zm-28.6-38.4c2.2-2.9 5.4-4.6 9.3-5.1 1.6-.2 3.6 0 6 .7 1 .3 1.7.3 2.1.1.4-.2.7-.7.9-1.5l.1-.3 1-.1 1.1 9-.9.1c-1.2-2.3-2.8-4-4.5-5.3-1.8-1.2-3.5-1.7-5.3-1.5-2.4.3-4.1 1.6-5 3.8-.9 2.3-1.2 5.5-.7 9.6.5 4 1.5 7 3 8.9 1.5 1.9 3.4 2.7 5.9 2.4.9-.1 1.7-.3 2.4-.6.5-.2.9-.5 1.1-.9.2-.4.3-1 .2-1.6l-.5-4c-.1-1.1-.5-1.8-1-2.2-.5-.3-1.6-.4-3.2-.3l-.1-1 6.6-.8 6.6-.8.1 1c-1.3.3-2.2.7-2.6 1.1-.4.4-.5 1.2-.4 2.2l.7 5.6c-2.7 1.9-6 3-10 3.5-4.1.5-7.6-.3-10.5-2.5-2.9-2.2-4.6-5.2-5.1-9.2-.4-3.9.5-7.4 2.7-10.3zm-25.6 3.8l12-3.9 1.2 3.7 1.2 3.7-.9.3c-1-2.1-2.2-3.5-3.7-4-1.5-.6-3.5-.4-6 .4l-1.6.5c-.7.2-1.1.5-1.3.9-.2.4-.2.9.1 1.6l2.7 8.4.6-.2c1.7-.5 2.8-1.4 3.3-2.5s.6-2.7.2-4.7l1-.3 2 6.2 2 6.2-1 .3c-.9-2-1.9-3.2-3-3.9-1.1-.6-2.5-.6-4.1-.1l-.6.2 2.9 8.8c.2.7.6 1.2 1 1.5.4.2 1 .2 1.8 0l.9-.3c2.6-.8 4.4-2 5.6-3.5 1.2-1.5 1.9-3.5 2.1-6.1l1-.3.5 4 .5 4-12.3 4-9.2 3-.3-.9c1.3-.5 2.1-1 2.4-1.5.3-.5.3-1.3-.1-2.4l-5.6-17.4c-.4-1.1-.8-1.7-1.3-2-.5-.2-1.5-.2-2.8.2l-.3-.9 9.1-3zm-35.3 17.2l3.5-2 19.9 7.9L139 79c-.7-1.3-1.4-2.1-2.1-2.3-.7-.2-1.7.1-3.1.7l-.5-.8 3.8-2.1 3.7-2.1.5.8c-1.1.7-1.6 1.3-1.8 1.9-.1.6.2 1.6.9 2.9l10.7 19.2-.5.3-.5.3L125 88l7.5 13.5c.7 1.3 1.4 2.1 2.1 2.3.7.2 1.7-.1 3.1-.7l.5.8-3.9 2.2-3.9 2.2-.5-.8c1.2-.8 1.9-1.5 2-2.1.1-.6-.2-1.6-.9-2.9L122.5 87c-1.4-.5-2.3-.9-2.9-1-.6-.1-1-.1-1.4.1l-.5-.8 3.6-1.9zm-28.6 26c.2-2 1.2-4 3.1-5.7 1-.9 2.4-1.8 4.2-2.5.7-.3 1.2-.6 1.4-.9.2-.3.2-.8-.1-1.3l-.1-.3.8-.8 5.7 6.1-.8.7c-1.9-1.2-3.8-1.8-5.7-1.8-1.9 0-3.4.5-4.6 1.7-.9.9-1.5 1.8-1.6 2.9-.1 1 .2 2 1 2.8.7.8 1.7 1.2 2.8 1.2 1.1 0 2.8-.4 5-1.2 3-1.1 5.4-1.5 7.3-1.4 1.9.1 3.4.9 4.7 2.3 1.8 1.9 2.5 4 2.3 6.2-.2 2.3-1.4 4.4-3.6 6.4-1.2 1.1-2.8 2.1-4.8 3-.6.3-1 .5-1.1.8-.1.3-.1.7.2 1.2l.1.3-.9.8-6.5-7 .8-.8c2 1.5 4.1 2.4 6.2 2.5 2.1.1 3.9-.5 5.3-1.8 1.1-1 1.6-2.1 1.8-3.3.1-1.2-.3-2.3-1.2-3.3-.7-.8-1.7-1.2-2.8-1.2-1.1 0-2.9.4-5.2 1.3-2.8 1-5.1 1.4-6.9 1.2-1.8-.2-3.3-1-4.6-2.4-1.7-1.8-2.4-3.7-2.2-5.7zm-16.9 17.5l.3-.4 24 5.7c1.2.3 2.1.4 2.7.2.6-.1 1.1-.5 1.6-1.2l.8.6-3.7 5.1-3.7 5.1-.8-.6c1-1.4 1.4-2.4 1.3-2.9-.1-.5-.8-.9-2-1.2l-3.9-.9-5.1 7 1.2 1.8c1.1 1.7 1.9 2.6 2.6 2.7.7.1 1.6-.6 2.7-2.1l.8.6-2.4 3.3-2.4 3.4-.8-.6c.5-.7.7-1.4.6-2-.1-.6-.4-1.4-1.1-2.4l-13-20.8.3-.4zm-15.4 28l4.9-10.5 3.5 1.6 3.5 1.6-.5 1.1c-2.3-.7-4.1-.8-5.5-.2-1.4.6-2.5 1.9-3.5 4l-.1.1 19 8.9c1 .5 1.8.6 2.3.3.5-.3 1.2-1.1 1.9-2.5l.9.4-2.9 6.3-2.9 6.3-.9-.4c.6-1.5.8-2.5.7-3.1-.1-.6-.7-1.1-1.7-1.6l-19-8.9-.1.2c-1 2.1-1.2 3.8-.8 5.3.5 1.4 1.7 2.8 3.7 4l-.5 1.1-3.5-1.7-3.5-1.7 5-10.6zm-8.5 23.4l1.9-6.5.9.3c-.3 1.5-.4 2.5-.1 3 .2.5.9 1 2 1.3l17.6 5c1.1.3 1.9.3 2.4 0s1-1.2 1.5-2.6l.9.3-1.9 6.5-1.9 6.5-.9-.3c.3-1.5.4-2.5.1-3-.2-.5-.9-1-2-1.3l-17.6-5c-1.1-.3-1.9-.3-2.4 0s-1 1.2-1.5 2.6l-.9-.3 1.9-6.5zm-5.2 22.6c.2-1.4.7-2.9 1.7-4.6.4-.7.6-1.2.5-1.6-.1-.4-.4-.7-.9-1l-.3-.2.2-1.1 8.3 1.2-.1 1.1c-2.2.3-4.1 1-5.6 2.2-1.5 1.2-2.3 2.6-2.5 4.2-.2 1.3 0 2.3.6 3.2.6.9 1.4 1.4 2.5 1.5 1.1.2 2-.1 2.9-.8.9-.7 1.9-2.1 3.1-4.1 1.6-2.7 3.2-4.6 4.8-5.7 1.5-1.1 3.2-1.5 5.1-1.2 2.5.4 4.4 1.5 5.7 3.4 1.2 1.9 1.7 4.3 1.3 7.3-.2 1.6-.9 3.4-1.9 5.3-.3.6-.4 1-.3 1.3.1.3.4.6.9.8l.3.1-.2 1.2-9.5-1.3.2-1.1c2.5-.1 4.6-.7 6.3-2 1.7-1.2 2.7-2.8 3-4.7.2-1.4 0-2.7-.7-3.7s-1.7-1.6-3-1.8c-1.1-.2-2 .1-2.9.9-.9.7-2 2.1-3.3 4.3-1.5 2.5-3.1 4.3-4.6 5.2-1.5 1-3.2 1.3-5.1 1.1-2.3-.3-4.1-1.3-5.2-3.1-1.3-1.6-1.6-3.7-1.3-6.3zm.7 41.9h-1l-.1-6.5-.1-6.1c-.1-3.5.5-6.2 1.6-8.1 1.1-1.9 2.8-2.8 5-2.8 2.4 0 4.2.9 5.5 2.8.6.9 1 1.9 1.3 3.1l8.6-6.3c1.2-.9 2-1.5 2.3-2 .4-.4.6-.9.6-1.4h1v1.2l.1 6.8-11.9 8.2v1.2l8.2-.1c1.1 0 1.9-.2 2.3-.7.4-.4.6-1.3.6-2.8h1l.1 6.5.1 6.5h-1c-.1-1.4-.4-2.3-.7-2.7-.4-.4-1.1-.6-2.3-.6l-18.3.3c-1.1 0-1.9.2-2.3.7-.3.4-.6 1.4-.6 2.8zm7 28.6c-.3.5-.3 1.4-.1 2.8l-.9.2-2.2-9.4-2.8-12.3 3.8-.9 3.8-.9.2.9c-2.2.8-3.6 1.9-4.3 3.4-.7 1.4-.7 3.4-.1 6l.4 1.6c.2.7.4 1.2.8 1.4.4.2.9.3 1.6.1l8.6-2-.2-.7c-.4-1.7-1.1-2.9-2.2-3.5-1.1-.6-2.6-.8-4.7-.6l-.2-1 6.3-1.5 6.3-1.5.2 1c-2 .7-3.4 1.6-4.1 2.7-.7 1-.8 2.4-.4 4.1l.2.7 9-2.1c.8-.2 1.3-.5 1.5-.9.3-.4.3-1 .1-1.8l-.2-.9c-.6-2.6-1.6-4.6-3-5.9-1.4-1.3-3.3-2.2-5.9-2.6l-.2-1 4.1-.1 4.1-.1 2.9 12.6 2.2 9.4-.9.2c-.4-1.4-.8-2.2-1.3-2.5-.5-.3-1.2-.4-2.4-.1l-17.8 4.1c-1.3.2-1.9.6-2.2 1.1zm13.4 33.4l-.9.4-2.6-5.9-2.6-5.9.9-.4c.7 1.5 1.3 2.4 1.8 2.5.5.2 1.2-.2 2-1.1l10.8-11.2-13.7.7c-2 .1-3.2.4-3.6.9-.4.5-.2 1.7.5 3.3l-.9.4-1.7-3.8-1.7-3.8.9-.4c.4.8.9 1.3 1.4 1.5.5.2 1.4.3 2.6.3l24.6-1 .2.5.2.5-16.9 18.3c-.9.9-1.4 1.7-1.6 2.2-.1.5 0 1.2.3 2zm12 16.5l-.8.6-3.9-5.5-3.9-5.5.8-.6c.9 1.2 1.7 1.8 2.2 2 .6.2 1.3-.1 2.3-.7l15-10.5c.9-.6 1.4-1.3 1.5-1.9 0-.6-.3-1.5-1.1-2.8l.8-.6 3.9 5.5 3.9 5.5-.8.6c-.9-1.2-1.7-1.8-2.2-2-.6-.2-1.3.1-2.2.7l-15 10.5c-.9.7-1.4 1.3-1.5 1.9-.2.6.2 1.5 1 2.8zm20.5 24.8l-2.8-3-2.8-3 2.8-21.2-8.6 8c-1.1 1-1.7 1.9-1.7 2.6 0 .7.5 1.6 1.5 2.9l-.7.7-2.9-3.1-2.9-3.1.7-.7c.9.9 1.7 1.3 2.3 1.2.6 0 1.5-.6 2.6-1.6l16.1-15 .4.4.4.4-3.6 26.9 11.3-10.6c1.1-1 1.7-1.9 1.7-2.6 0-.7-.5-1.6-1.5-2.9l.7-.7 3 3.3 3 3.3-.7.7c-1-1-1.9-1.4-2.5-1.4-.7 0-1.5.5-2.6 1.6L100.8 341c-.2 1.5-.3 2.5-.2 3.1 0 .6.2 1 .5 1.4l-.8.6zm34.5 4.3l-7.8 10.7c-.7.9-1 1.7-.9 2.2.1.5.6 1.2 1.6 2l-.6.8-5.2-3.7-5.2-3.7.6-.8c1.2.8 2.1 1.1 2.6 1.1.6 0 1.2-.5 1.9-1.5l7.9-10.9c1.5-2.1 2.3-3.9 2.2-5.4 0-1.5-.8-2.9-2.3-4-1.9-1.4-3.7-1.8-5.4-1.4-1.7.5-3.4 1.9-5.2 4.4l-6.8 9.3c-.9 1.2-1.3 2.1-1.2 2.8.1.7.8 1.5 2 2.5l-.6.8-3.5-2.5-3.4-2.5.6-.8c1.1.7 1.9.9 2.5.8.6-.2 1.3-.9 2.2-2.1l7-9.6c2-2.8 4.2-4.4 6.5-4.7 2.3-.4 4.9.5 7.7 2.5 2.6 1.9 4.2 4.1 4.6 6.5.7 2.2 0 4.7-1.8 7.2zm21.5 24.2c-3.6 0-6.5-2.9-6.5-6.5s2.9-6.5 6.5-6.5 6.5 2.9 6.5 6.5-2.9 6.5-6.5 6.5zm96.6 17.6c-.3-4.1-4.4-6.6-6.5-4-8 10.2-18.2 19.3-39.8 19.6-21.6.2-36-9.3-36.3-24.2-.2-9.9 10.5-14.3 19.5-14.6 14.7-.4 31.3 9.2 43.2 9 5.1-.1 10.6-1.4 10.6-5.8V366c-1.2 2.1-2.5 3.4-6.9 3.3-4.4-.1-8.5-3.8-8.5-9.3v-13.8c0-1-1.5-2.2-2.5-2.4v-2.1h9.5c2.4 0 4.4 2 4.4 4.4v15.5c0 .9.7 1.6 1.6 1.6h.9c.9 0 1.6-.7 1.6-1.6V348c0-.8-.2-1.6-.8-2.1l-2.7-2.1v-2.1h6c1 0 1.8.8 1.8 1.8v24.1c0 12.4-6.7 19.5-19.2 19.3-11.5-.2-32-9.4-43.6-8.8-5.9.3-11.3 1.5-11.3 5.4 0 6.8 17.7 15.4 29.8 15.5 26.2.2 35.3-15.2 42.5-16 3.8-.3 8.7 3.6 6.7 9.2zm-63.6-42.5v12c0 .9.7 1.6 1.6 1.6h.9c.9 0 1.6-.7 1.6-1.6V348c0-.8-.2-1.6-.8-2.1l-2.7-2.1v-2.1h6c1 0 1.8.8 1.8 1.8v20.2c0 1.7-1.4 3.1-3.1 3.1h-12.4c-2.4 0-4.4-2-4.4-4.4v-16.2c0-1-1.6-2.1-2.5-2.4v-2.1h9.5c2.4 0 4.4 2 4.4 4.4l.1 3.6zm22-15.5h-2c-.9 0-1.6.7-1.6 1.6v26.7c0 2.4-2 4.4-4.4 4.4h-5v-2.1c.8-.1 2.5-1.4 2.5-2.4V337c0-5.1 8.2-6.4 10.7-6.4h1.4c1.7 0 12.6.5 12.6 7.6v26.9c0 1-.8 1.8-1.8 1.8h-14.3v-2.1l2.7-2.1c.6-.4.8-1.3.8-2.1v-24.8c0-.8-.7-1.6-1.6-1.6zm56.1 40.4c-3.6 0-6.5-2.9-6.5-6.5s2.9-6.5 6.5-6.5 6.5 2.9 6.5 6.5c-.1 3.6-3 6.5-6.5 6.5zm-55.6-50.1c-64.9.9-102.4-26.3-113.2-70.8 4.3 7.1 11 10.1 16.8 11.9 5.7 1.8 10.7 1.8 11.9 6 1.2-5.2-9.9-7.6-18.7-14.1-14.7-11-14.4-23.2-12.1-40.2.3 3.2 1.2 6.1 2.8 8.9 5.1 9.1 9.4 9.3 14.3 11.6 5.7 2.7 15.1 11.6 16.4 15.8 1.2-5.2-7.3-12.9-16.1-19.5-18.8-14.1-16.4-29.5-8.5-48.6-.7 8.9 2 18.3 13.5 28 4.7 4 10.7 6.2 15.2 10.3 1.9 1.7 2.4 4.5 3.6 6.7.4-6.4-3-8.4-9.6-13.3-7-5.2-14-13.5-16.9-21.2-2.7-7-2.4-15.6 0-22.9 4.9-9.4 10.8-18.2 17.2-25.6-7.9 15.7-9.2 29.1 2.3 45 8.9 12.4 18.6 11.3 21.9 23.3.3-7.2-5.4-11.2-12.1-18-6.6-6.6-20.8-22.2-10.8-43.4 10.8-23 37.6-33.5 60.3-39.1-21.9 13.9-39.2 31.5-40.2 45-2 28.5 36.1 38 27.9 64.2-2.8 6-10.7 8.6-10.7 16.2 0 3.8 2.6 7.8 6.8 7.8.4 0 .8 0 1.1-.1-1 1.3-2.1 2.7-3.4 4.2-6.9 8.3-16.1 19.6-16 35.9.1 7.3 5.3 13.1 13.6 17.4 13 6.7 28.3 8.2 42.7 8.2 14.4 0 29.7-1.6 42.7-8.2 8.4-4.3 13.6-10.2 13.6-17.4.1-16.3-9.1-27.5-16-35.9-1.2-1.5-2.4-2.9-3.4-4.2.4 0 .7.1 1.1.1 4.1 0 6.8-4 6.8-7.8 0-7.5-8-10.2-10.7-16.2-8.2-26.2 29.8-35.7 27.9-64.2-.9-13.5-18.3-31.1-40.2-45 22.7 5.6 49.5 16.1 60.3 39.1 10 21.2-4.2 36.8-10.8 43.4-6.8 6.8-12.4 10.8-12.1 18 3.3-12 13-10.9 21.9-23.3 11.5-16 10.1-29.3 2.3-45 6.4 7.4 12.3 16.2 17.2 25.6 2.4 7.3 2.6 15.8 0 22.9-2.9 7.8-10 16-16.9 21.2-6.6 4.9-10 6.9-9.6 13.3 1.2-2.2 1.7-5 3.6-6.7 4.5-4.1 10.6-6.3 15.2-10.3 11.5-9.8 14.2-19.2 13.5-28 7.9 19.2 10.3 34.5-8.5 48.6-8.7 6.6-17.3 14.3-16.1 19.5 1.3-4.3 10.7-13.2 16.4-15.8 4.9-2.3 9.1-2.5 14.3-11.6 1.6-2.9 2.4-5.7 2.8-8.9 2.4 17 2.6 29.2-12.1 40.2-8.7 6.6-19.8 8.9-18.7 14.1 1.3-4.3 6.2-4.3 11.9-6 5.8-1.8 12.5-4.8 16.8-11.9-10.8 44.5-48.3 71.6-113.2 70.8zm96.2 34l-.4.3-21-12.8c-1.1-.6-1.9-1-2.5-1.1-.6-.1-1.2.1-1.9.6l-.6-.8 5.1-3.7 5.1-3.7.6.8c-1.3 1-2.1 1.8-2.1 2.3-.1.5.4 1.1 1.5 1.8l3.4 2.1 7-5.1-.6-2.1c-.5-2-1-3.1-1.6-3.4-.6-.3-1.7.1-3.2 1.2l-.6-.8 3.3-2.4 3.4-2.4.6.8c-.7.6-1.1 1.1-1.2 1.7-.1.5 0 1.4.3 2.7l6 23.8-.6.2zm23.8-21.1l-7.9 8.5-2.9-2.6-2.9-2.6.8-.9c1.9 1.4 3.6 2 5.1 1.9 1.5-.1 3-1 4.6-2.7l.1-.1-15.3-14.3c-.8-.8-1.5-1.1-2.1-1-.6.1-1.5.7-2.6 1.8l-.7-.7 4.7-5.1 4.7-5.1.7.7c-1 1.2-1.5 2.1-1.6 2.7 0 .6.3 1.3 1.2 2.1l15.3 14.3.1-.1c1.6-1.7 2.4-3.3 2.4-4.8s-.7-3.1-2.3-5l.8-.9 2.8 2.7 2.8 2.7-7.8 8.5zm23.4-31l-3.2 5.1c-1.9 3-3.8 5-5.7 5.9-2 .9-3.9.8-5.7-.3-2-1.3-3-3-3-5.4 0-1 .2-2.1.6-3.3l-10.7.6c-1.5.1-2.5.2-3 .4s-1 .4-1.2.9l-.8-.5.6-1 3.6-5.8 14.5-.3.6-1-6.9-4.3c-1-.6-1.7-.8-2.3-.7-.5.2-1.2.8-2 2l-.8-.5 3.4-5.5 3.5-5.5.8.5c-.7 1.2-1 2.1-.9 2.7.1.6.6 1.1 1.6 1.7l15.5 9.7c1 .6 1.7.8 2.3.7.5-.2 1.2-.8 2-2l.8.5-3.6 5.4zm12.4-24.9l-.2.5-24.6.7c-1.3.1-2.2.2-2.7.5s-.9.8-1.3 1.6l-.9-.3 2.3-5.9 2.3-5.9.9.3c-.6 1.6-.7 2.6-.5 3.1.2.5 1 .7 2.2.6l4-.1 3.1-8-1.7-1.5c-1.5-1.4-2.5-2-3.2-1.9-.7.1-1.3 1-2 2.7l-.9-.3 1.5-3.9 1.5-3.9.9.3c-.3.8-.3 1.5-.1 2 .2.5.8 1.2 1.7 2.1l17.9 16.7-.2.6zm9.4-41.7l-.8 6.5-1-.1c.1-1.4 0-2.3-.3-2.8s-1-.8-2.2-.9l-8.8-1.1 6.3 8.2c1.5 2 2.6 2.9 3.3 2.9.6 0 1.1-1.1 1.4-3.1l1 .1-.7 5.5-.7 5.5-1-.1c.1-1.3 0-2.5-.4-3.5-.3-1.1-.9-2.1-1.8-3.3l-5.1-6.6-13.5 8.4c-1.3.8-2.2 1.5-2.6 1.9-.4.5-.7 1-.8 1.7l-1-.1.8-6.5.8-6.6 1 .1c-.1 1.6-.1 2.5.1 2.9.2.3.8.2 1.6-.3l10.1-6-1-1.3-7.2-.9c-1.1-.1-1.9 0-2.3.4-.4.4-.8 1.3-1 2.6l-1-.1.8-6.5.8-6.5 1 .1c-.1 1.4 0 2.3.4 2.8.3.5 1 .8 2.2.9l18.1 2.2c1.1.1 1.9 0 2.3-.4.4-.4.8-1.3 1-2.6l1 .1-.8 6.5zm-21-16.5c-1.1.6-1.9 1.1-2.2 1.6-.3.5-.5 1.1-.5 2l-1 .1-.5-6.3-.6-6.3 1-.1c.2 1.7.5 2.7.9 3 .4.3 1.2.2 2.3-.4l3.6-1.8-.7-8.6-2.1-.6c-1.9-.6-3.2-.7-3.7-.3-.6.4-.8 1.5-.6 3.3l-1 .1-.4-4.1-.4-4.1 1-.1c.1.9.4 1.5.8 1.9.4.4 1.2.8 2.4 1.1l23.4 7.1v1L356 223.3z"/>
  <path fill="#2E3192" d="M211.1 295.9v-21.5c-3.2-.4-5.7-3.1-5.7-6.4 0-3.6 2.9-6.5 6.5-6.5s6.5 2.9 6.5 6.5c0 3.3-2.5 6.1-5.7 6.4v21.5c2.1-7.2 7-13.5 11.6-19.2 3.9-4.8 7.1-8.9 7.1-12.8 0-2.2-1.7-2.9-3.4-3.7-2.3-1-4.6-2-5-5.5h-22c-.3 3.4-2.7 4.5-5 5.5-1.7.8-3.4 1.5-3.4 3.7 0 3.9 3.2 7.9 7.1 12.8 4.4 5.7 9.3 12 11.4 19.2zm149.4-81.5l8.8-4.6-9.5-2.8"/>
  <path fill="#2E3192" d="M383.2 99c-20.3-30.1-36.2-47-51.4-41.3.7-16.2-20.3-26.1-55.2-36.1C255 15.4 219.4 10.4 211.8 0c-7.5 10.4-43.1 15.4-64.7 21.6-34.9 10-55.9 19.9-55.2 36.1C76.7 52 60.8 68.9 40.5 99 27.9 117.6 12.2 150 0 153.9c7.6 10.4 1.3 45.8.5 68.2-1.2 36.3 1.6 59.3 17.3 63.6-10.1 12.7 1.1 33 23.4 61.6C55 365 80.9 390 80.9 402.8c12.2-4 43.9 12.9 65.1 20.6 34.1 12.4 56.9 16.8 65.9 3.2 9 13.5 31.7 9.1 65.9-3.2 21.1-7.7 52.9-24.6 65.1-20.6 0-12.8 25.9-37.8 39.7-55.5 22.3-28.6 33.5-48.9 23.4-61.6 15.7-4.4 18.5-27.4 17.3-63.6-.8-22.5-7.1-57.9.5-68.2-12.3-3.9-28-36.3-40.6-54.9zm31.4 121.7c1.7 33.4-2.3 58.4-15.7 62.8 8.2 11.3-3.2 34-24.2 60-13.2 16.3-38.4 38.5-36.6 53-13.2-6.2-42.1 10.9-61.7 18.4-31.2 12-56.3 15.8-64.6 4.5-8.2 11.3-33.3 7.5-64.6-4.5-19.6-7.5-48.5-24.6-61.7-18.4 1.8-14.5-23.4-36.7-36.6-53-21-26-32.5-48.7-24.2-60-13.3-4.3-17.4-29.4-15.7-62.8 1.1-21 8.4-53.7-1.6-64.4 14.3-2.8 27.7-33.5 39.1-51.2C64.7 77 82.7 59.2 96.1 63.5c0-14 22.6-25.6 54.9-34.3 20.3-5.4 53.7-8.6 60.7-21.4 7 12.8 40.5 15.9 60.7 21.4 32.3 8.7 54.9 20.3 54.9 34.3 13.3-4.3 31.4 13.5 49.6 41.6 11.4 17.6 24.8 48.4 39.1 51.2-9.8 10.7-2.5 43.5-1.4 64.4z"/>
  <path fill="#2E3192" d="M360.6 276.4l-7.2-6.7-2.7 6.9m-269.4-143l5.3 8.4 4.3-6m119.7 53.8c0 1.7.5 3.1 1.2 3.8.7-.7 1.2-2.2 1.2-3.8 0-1.4-.4-2.7-.9-3.5v-11c.6-.8.9-2 .9-3.5 0-1.4-.4-2.7-.9-3.5v-11c.6-.8.9-2 .9-3.5 0-1.7-.5-3.1-1.2-3.8-.7.7-1.2 2.2-1.2 3.8 0 1.4.4 2.7.9 3.5v11c-.6.8-.9 2-.9 3.5s.4 2.7.9 3.5v11c-.5.8-.9 2.1-.9 3.5zm.6-35.9c0-1.1.3-2 .7-2.6.4.6.7 1.5.7 2.6s-.3 2-.7 2.6c-.5-.6-.7-1.5-.7-2.6zm0 18c0-1.1.3-2 .7-2.6.4.6.7 1.5.7 2.6s-.3 2-.7 2.6c-.5-.6-.7-1.6-.7-2.6zm.6 15.4c.4.6.7 1.5.7 2.6s-.3 2-.7 2.6c-.4-.6-.7-1.5-.7-2.6.1-1.1.3-2 .7-2.6zm84.7 157.9l8.5 5.2-2.5-9.6M59 231.4c0-2.1-.5-3.5-1.4-4.3-.9-.8-2.5-1.2-4.6-1.2-1.9 0-3.3.5-4.2 1.3-.9.8-1.3 2.1-1.3 3.8v.2c0 .7.2 1.2.5 1.5.3.3.8.4 1.5.4l9.5-.2v-1.5z"/>
  <path fill="#FFF200" d="M267.4 361.7c-3.6 0-6.5 2.9-6.5 6.5s2.9 6.5 6.5 6.5 6.5-2.9 6.5-6.5c-.1-3.6-3-6.5-6.5-6.5zm-111.1 0c-3.6 0-6.5 2.9-6.5 6.5s2.9 6.5 6.5 6.5 6.5-2.9 6.5-6.5-2.9-6.5-6.5-6.5z"/>
  <path fill="#FFF200" d="M377 105.2c-18.2-28.1-36.3-45.9-49.6-41.6 0-14-22.6-25.6-54.9-34.3-20.3-5.4-53.7-8.6-60.7-21.4-7 12.8-40.5 15.9-60.7 21.4-32.3 8.7-54.8 20.3-54.9 34.3-13.3-4.3-31.4 13.5-49.6 41.6-11.4 17.6-24.8 48.4-39.1 51.2 10 10.6 2.7 43.4 1.6 64.4-1.7 33.4 2.3 58.4 15.7 62.8-8.2 11.3 3.2 34 24.2 60 13.2 16.3 38.4 38.5 36.6 53 13.2-6.2 42.1 10.9 61.7 18.4 31.2 12 56.3 15.8 64.6 4.5 8.2 11.3 33.3 7.5 64.6-4.5 19.6-7.5 48.5-24.6 61.7-18.4-1.8-14.5 23.4-36.7 36.6-53 21-26 32.5-48.7 24.2-60 13.3-4.3 17.4-29.4 15.7-62.8-1.1-21-8.4-53.7 1.6-64.4-14.5-2.8-27.8-33.6-39.3-51.2zm32.5 115.6c1.7 32.6-2.3 57-15.3 61.2 8 11.1-3.1 33.1-23.6 58.5-12.9 15.9-37.4 37.5-35.6 51.7-12.9-6-41 10.6-60.1 17.9-30.4 11.7-54.9 15.4-62.9 4.4-8 11.1-32.5 7.3-62.9-4.4-19.1-7.3-47.3-24-60.1-17.9 1.8-14.1-22.8-35.8-35.6-51.7C32.6 315.1 21.5 293 29.5 282c-13-4.2-17-28.6-15.3-61.2 1.1-20.4 8.2-52.4-1.5-62.7 14-2.7 27-32.7 38.1-49.9 17.8-27.3 35.3-44.7 48.3-40.5 0-13.7 22-25 53.5-33.5 19.8-5.3 52.3-8.4 59.2-20.8 6.9 12.5 39.4 15.5 59.2 20.8 31.5 8.4 53.5 19.8 53.5 33.4 13-4.2 30.6 13.2 48.3 40.5C384 125.3 397 155.4 411 158c-9.7 10.4-2.6 42.4-1.5 62.8z"/>
  <path fill="#FFF200" d="M324.3 226.2c-5.1 9.1-9.4 9.3-14.3 11.6-5.7 2.7-15.1 11.6-16.4 15.8-1.2-5.2 7.3-12.9 16.1-19.5 18.8-14.1 16.4-29.5 8.5-48.6.7 8.9-2 18.3-13.5 28-4.7 4-10.7 6.2-15.2 10.3-1.9 1.7-2.4 4.5-3.6 6.7-.4-6.4 3-8.4 9.6-13.3 7-5.2 14-13.5 16.9-21.2 2.7-7 2.4-15.6 0-22.9-4.9-9.4-10.8-18.2-17.2-25.6 7.9 15.7 9.2 29.1-2.3 45-8.9 12.4-18.6 11.3-21.9 23.3-.3-7.2 5.4-11.2 12.1-18 6.6-6.6 20.8-22.2 10.8-43.4-10.8-23-37.6-33.5-60.3-39.1 21.9 13.9 39.2 31.5 40.2 45 2 28.5-36.1 38-27.9 64.2 2.8 6 10.7 8.6 10.7 16.2 0 3.8-2.6 7.8-6.8 7.8-.4 0-.8 0-1.1-.1 1 1.3 2.1 2.7 3.4 4.2 6.9 8.3 16.1 19.6 16 35.9-.1 7.3-5.3 13.1-13.6 17.4-13 6.7-28.3 8.2-42.7 8.2-14.4 0-29.7-1.6-42.7-8.2-8.4-4.3-13.6-10.2-13.6-17.4-.1-16.3 9.1-27.5 16-35.9 1.2-1.5 2.4-2.9 3.4-4.2-.4 0-.7.1-1.1.1-4.1 0-6.8-4-6.8-7.8 0-7.5 8-10.2 10.7-16.2 8.2-26.2-29.8-35.7-27.9-64.2.9-13.5 18.3-31.1 40.2-45-22.7 5.6-49.5 16.1-60.3 39.1-10 21.2 4.2 36.8 10.8 43.4 6.8 6.8 12.4 10.8 12.1 18-3.3-12-13-10.9-21.9-23.3-11.5-16-10.1-29.3-2.3-45-6.4 7.4-12.3 16.2-17.2 25.6-2.4 7.3-2.6 15.8 0 22.9 2.9 7.8 10 16 16.9 21.2 6.6 4.9 10 6.9 9.6 13.3-1.2-2.2-1.7-5-3.6-6.7-4.5-4.1-10.6-6.3-15.2-10.3-11.5-9.8-14.2-19.2-13.5-28-7.9 19.2-10.3 34.5 8.5 48.6 8.7 6.6 17.3 14.3 16.1 19.5-1.3-4.3-10.7-13.2-16.4-15.8-4.9-2.3-9.1-2.5-14.3-11.6-1.6-2.9-2.4-5.7-2.8-8.9-2.4 17-2.6 29.2 12.1 40.2 8.7 6.6 19.8 8.9 18.7 14.1-1.3-4.3-6.2-4.3-11.9-6-5.8-1.8-12.5-4.8-16.8-11.9 10.8 44.5 48.4 71.7 113.2 70.8 64.9.9 102.4-26.3 113.2-70.8-4.3 7.1-11 10.1-16.8 11.9-5.7 1.8-10.7 1.8-11.9 6-1.2-5.2 9.9-7.6 18.7-14.1 14.7-11 14.4-23.2 12.1-40.2-.4 3.2-1.2 6.1-2.8 8.9z"/>
  <path fill="#4CB748" d="M245 238.8c-.9 3.1 0 8.1 4.9 8.1 2.8 0 5-2.7 5-6.1 0-6.6-8.4-9.9-10.8-16 .3 3.8-6.8 8.5-7.1 14.9-.2 4.5 2.3 11.2 5.8 16.5 6.3 9.4 19.1 27.8 11.9 37-4.4 5.7-15.8 8.2-25 8.7-9 .5-16.2 7.1-18 9.7-1.8-2.7-9-9.2-18-9.7-9.2-.5-20.6-3.1-25-8.7-7.2-9.3 5.7-27.6 11.9-37 3.5-5.3 6-12 5.8-16.5-.3-6.4-7.4-11.1-7.1-14.9-2.4 6-10.8 9.4-10.8 16 0 3.3 2.3 6.1 5 6.1 4.9 0 5.8-5 4.9-8.1 7.6 8.7-21.6 21.6-21.4 49.8.1 15.2 25.7 24 54.6 24 28.9 0 54.5-8.8 54.6-24 .5-28.2-28.7-41.1-21.2-49.8z"/>
  <path fill="#F58220" d="M205.8 117.7c.5-.7 1-1.5 1.5-2.3.9-1.2 1.9-2.3 2.9-3.4-.1 1.7-.2 3.3-.1 5 .2 2.3.9 4.5 1.6 6.4v-.1l4.6 5.6c0-8-5.3-15.6-5.6-28.1-3.6 7.7-4.8 13-4.9 16.9z"/>
  <path fill="#F58220" d="M203.6 129.4l1.9 1.7 5.4-6.6c-1-2.7-2.1-5.7-2-9.1-4.8 6.5-5.7 10.8-5.3 14zm7.2-31.3c.4-.8.8-1.5 1.2-2.3 0 2.2-.1 4.5.1 6.7.4 5.8 1.8 10.5 3.2 14.7 1.4 4.6 2.7 8.7 2.3 13l.6.7 1.8-1.6c1.6-10.9-6.6-19.9-7.6-36.4-.8 1.9-1.3 3.6-1.6 5.2z"/>
  <path fill="#FFF" d="M212.5 153.9c0-1.1-.3-2-.7-2.6-.4.6-.7 1.5-.7 2.6s.3 2 .7 2.6c.4-.6.7-1.5.7-2.6zm10.9 57.4c-2.8-4.1-6.8-7.4-11.5-9.3-4.7 1.9-8.7 5.2-11.5 9.3-6.2-6.4-12-10.1-14.5-8.9.1 3.2 2.7 8.7 7 14.7l-.5 3h39.1l-.5-3c4.3-6.1 6.9-11.5 7-14.7-2.6-1.2-8.4 2.5-14.6 8.9zm-10.9-39.4c0-1.1-.3-2-.7-2.6-.4.6-.7 1.5-.7 2.6s.3 2 .7 2.6c.4-.6.7-1.6.7-2.6zM99.4 117.4c1.8.2 4.1-.2 6.9-1.2 2.3-.8 4.1-1.3 5.2-1.3 1.1 0 2.1.4 2.8 1.2.9 1 1.3 2.1 1.2 3.3-.1 1.2-.7 2.3-1.8 3.3-1.4 1.3-3.2 1.9-5.3 1.8-2.1-.1-4.1-.9-6.2-2.5l-.8.8 6.5 7 .9-.8-.1-.3c-.2-.5-.3-.9-.2-1.2.1-.3.5-.6 1.1-.8 2-.9 3.6-1.9 4.8-3 2.2-2 3.3-4.2 3.6-6.4.2-2.3-.5-4.4-2.3-6.2-1.3-1.4-2.9-2.1-4.7-2.3-1.9-.1-4.3.3-7.3 1.4-2.2.8-3.9 1.2-5 1.2s-2-.4-2.8-1.2c-.8-.8-1.1-1.8-1-2.8.1-1 .6-2 1.6-2.9 1.2-1.1 2.8-1.7 4.6-1.7 1.9 0 3.8.6 5.7 1.8l.8-.7-5.7-6.1-.8.8.1.3c.2.6.3 1 .1 1.3-.2.3-.6.6-1.4.9-1.8.7-3.2 1.6-4.2 2.5-1.9 1.8-3 3.7-3.1 5.7-.2 2.1.5 3.9 2.1 5.6 1.4 1.5 2.9 2.3 4.7 2.5zM184.7 82c2.9 2.2 6.4 3 10.5 2.5 4-.5 7.3-1.7 10-3.5l-.7-5.6c-.1-1 0-1.8.4-2.2.4-.4 1.2-.8 2.6-1.1l-.1-1-6.6.8-6.6.8.1 1c1.6-.1 2.7 0 3.2.3s.9 1 1 2.2l.5 4c.1.6 0 1.1-.2 1.6-.2.4-.6.7-1.1.9-.7.3-1.6.5-2.4.6-2.4.3-4.4-.5-5.9-2.4s-2.5-4.8-3-8.9c-.5-4.2-.3-7.4.7-9.6 1-2.3 2.6-3.5 5-3.8 1.7-.2 3.5.3 5.3 1.5 1.8 1.2 3.3 3 4.5 5.3l.9-.1-1.1-9-1 .1-.1.3c-.2.8-.5 1.3-.9 1.5-.4.2-1.1.2-2.1-.1-2.4-.7-4.4-.9-6-.7-4 .5-7.1 2.2-9.3 5.1-2.2 2.9-3.1 6.4-2.6 10.4.4 3.9 2.1 6.9 5 9.1zm34.6 57.7l5-12.3-6.3 5.5-6.2-7.6-6.1 7.6-6.3-5.5 5 12.3m7.4 52.7c.4-.6.7-1.5.7-2.6s-.3-2-.7-2.6c-.4.6-.7 1.5-.7 2.6.1 1.1.3 2 .7 2.6zm21.8-108.2l1.1-3.9 1-3.9-1.1-.1c-1.2 2.4-2.6 4-4.2 4.9-1.6.9-3.8 1.3-6.5 1.1l-.9-.1c-.8-.1-1.3-.3-1.7-.7-.3-.4-.5-1-.4-1.7l.6-9.2h.7c1.7.1 3 .7 3.8 1.6.8 1 1.2 2.5 1.4 4.7l1 .1.5-6.5.5-6.5-1-.1c-.4 2-1.1 3.5-2 4.3-.9.8-2.3 1.2-4 1h-.7l.6-8.8c.1-.7.2-1.2.6-1.5.3-.3.8-.4 1.6-.3l1.6.1c2.6.2 4.5.8 5.7 1.9 1.2 1.1 1.8 2.8 1.9 5.1l.9.1.3-3.9.3-3.9-12.6-.9-9.6-.7-.1 1c1.4.2 2.3.5 2.7.9.4.4.6 1.2.5 2.3L214.7 79c-.1 1.1-.3 1.9-.8 2.2-.4.3-1.4.5-2.8.5l-.1 1 9.6.7 13 .8z"/>
  <path fill="#FFF" d="M200.3 209.5c2.9-3.9 6.9-7 11.5-8.9 4.6 1.9 8.6 5 11.5 8.9 1.8-1.8 3.7-3.5 5.7-4.9l-9.7-63.7h-15l-9.7 63.7c2 1.4 4 3.1 5.7 4.9zm10.3-37.6c0-1.4.4-2.7.9-3.5v-11c-.6-.8-.9-2-.9-3.5 0-1.7.5-3.1 1.2-3.8.7.7 1.2 2.2 1.2 3.8 0 1.4-.4 2.7-.9 3.5v11c.6.8.9 2 .9 3.5 0 1.4-.4 2.7-.9 3.5v11c.6.8.9 2 .9 3.5 0 1.7-.5 3.1-1.2 3.8-.7-.7-1.2-2.2-1.2-3.8 0-1.4.4-2.7.9-3.5v-11c-.5-.8-.9-2.1-.9-3.5zm123.5 151.7l-.8.9c1.5 1.8 2.3 3.5 2.3 5s-.8 3.1-2.4 4.8l-.1.1-15.4-14.4c-.8-.8-1.2-1.4-1.2-2.1.1-.6.6-1.5 1.6-2.7l-.7-.7-4.7 5.1-4.7 5.1.7.7c1.1-1.1 2-1.7 2.6-1.8.6-.1 1.3.2 2.1 1l15.3 14.3-.1.1c-1.6 1.7-3.1 2.6-4.6 2.7-1.5.1-3.2-.5-5.1-1.9l-.8.9 2.9 2.6 2.9 2.6 7.9-8.5 7.9-8.5-2.8-2.7-2.8-2.6zM192.3 221.2v29.5c-.5-1.1-1.6-1.8-2.5-1.8-1.2 0-3 1.7-3 3.7 0 3.3 3 5.5 6.1 5.5 3.1 0 5.6-1.8 5.6-4v-1.7h26.6v1.7c0 2.2 2.5 4 5.6 4 3.1 0 6.1-2.2 6.1-5.5 0-2-1.7-3.7-3-3.7-.9 0-2 .8-2.5 1.8v-29.5h-39zm32.7 28.6h-26.4v-23.4c2.7.9 5 3.4 6.4 7 1.5-3.7 3.9-6.4 6.8-7.1 2.9.7 5.3 3.4 6.8 7.1 1.4-3.5 3.7-6.1 6.4-7v23.4zm78.1-132.9l.6-.8c-1.1-1-1.8-1.8-1.9-2.4-.1-.6.2-1.3.9-2.2l4.7-6 12-4.5c1.2-.4 2-.6 2.6-.6.5 0 1.1.2 1.7.6l.6-.8-3.4-2.6-3.4-2.6-.6.8c1.5 1.3 2.1 2.2 2 2.8-.2.6-1.2 1.3-3.1 2.1l-8.3 3.3 1.8-10.4c.2-1.3.6-2 1-2.1.5-.1 1.4.3 2.7 1.3l.6-.8-5.1-4-5.1-4-.6.8c.7.6 1.1 1.1 1.2 1.6.1.5.1 1.3-.1 2.4l-2.2 13.9-3.9 5c-.7.9-1.4 1.4-1.9 1.4-.6 0-1.5-.4-2.7-1.3l-.6.8 5.3 4.2 5.2 4.1zm11.8 7c-.2 3.6 1 6.9 3.6 9.9s5.7 4.7 9.3 5c3.6.3 6.9-.9 9.8-3.5 3.1-2.7 4.8-5.8 5.1-9.5.3-3.6-.9-7-3.5-10s-5.8-4.6-9.4-4.9c-3.6-.2-7 1-10.1 3.7-2.9 2.7-4.5 5.8-4.8 9.3zm9.3-4.1c3.2-2.7 5.9-4.4 8.3-4.9 2.4-.5 4.3.1 5.8 1.8s1.8 3.7 1 6c-.9 2.3-2.9 4.8-6 7.5s-5.7 4.2-8 4.7-4.2-.1-5.7-1.9c-1.5-1.7-1.8-3.7-1-5.9.7-2.2 2.6-4.6 5.6-7.3zm10.1 29.1c-1 3.5-.5 7.1 1.4 10.7 1.9 3.6 4.2 6.3 6.9 8.1l5-2.6c.9-.5 1.7-.6 2.2-.4.5.2 1.2.9 2 2l.8-.5-3.1-5.8-3.1-5.9-.8.5c.7 1.5 1 2.5.9 3.1-.1.6-.6 1.2-1.7 1.7l-3.6 1.9c-.5.3-1.1.4-1.5.3-.5-.1-.9-.3-1.3-.7-.5-.6-1-1.3-1.4-2.1-1.1-2.2-1.1-4.3.1-6.3 1.2-2.1 3.6-4 7.2-5.9 3.7-2 6.8-2.9 9.2-2.8 2.4.1 4.2 1.2 5.4 3.3.8 1.5 1 3.4.5 5.5s-1.6 4.1-3.3 6.1l.4.8 8-4.3-.5-.9-.3.1c-.8.1-1.4 0-1.7-.3-.3-.3-.6-1-.7-2-.2-2.5-.7-4.4-1.5-5.8-1.9-3.6-4.6-5.9-8.1-6.9s-7.1-.6-10.7 1.3c-3.5 1.6-5.7 4.3-6.7 7.8zm31.8 21.7l-10 9.9-6.2 1.8c-1.1.3-1.9.3-2.4 0s-1-1.2-1.5-2.6l-.9.3 1.9 6.5 1.9 6.5.9-.3c-.3-1.5-.4-2.5-.1-3 .2-.5.9-1 2-1.3l7.3-2.1 12.3 3.4c1.2.4 2 .7 2.5 1 .4.3.8.8 1 1.5l.9-.3-1.2-4.1-1.2-4.1-.9.3c.4 1.9.4 3-.1 3.5-.5.4-1.7.4-3.8-.2l-8.7-2.3 7.6-7.3c1-.9 1.7-1.3 2.1-1.1.4.2.9 1.1 1.4 2.7l.9-.3-1.8-6.2-1.8-6.2-.9.3c.2.8.2 1.5 0 2 0 .3-.4.9-1.2 1.7zM229.9 273.9c-1.1 1.6-2.4 3.3-3.8 5-2.6 3.4-5.5 7.1-8 11.4 10-4.8 24.3-7.3 29.8-13.2 1.8-1.9 2.5-4 2.4-6.2-2.2-4.3-4.5-8-6.9-11.5.7 2.6.2 5.2-1.8 7.4-2.6 2.9-6.9 5.1-11.7 7.1z"/>
  <path fill="#FFF" d="M181.9 257.2c-.8 1.1-1.1 1.9-1 3.4.1 1.7.8 3.3 2.1 4.8 2.1 2.3 5.3 4.2 9.1 5.9-1.6-2.6-2.5-5.1-2.5-7.8 0-2.3.9-3.5 2.2-4.4-3.6-.8-6.9-3-6.2-6.8-.6.9-3.1 4.1-3.7 4.9zm49.9 2c1.3.9 2.2 2.2 2.2 4.4 0 2.6-1 5.1-2.5 7.8 3.8-1.7 7-3.6 9.1-5.9 1.3-1.5 2-3.1 2.1-4.8.1-1.5-.1-2.3-1-3.4-.6-.8-3-4-3.7-4.8.7 3.7-2.6 5.8-6.2 6.7z"/>
  <path fill="#FFF" d="M173.4 270.9c-.2 2.2.6 4.3 2.4 6.2 5.6 5.9 19.8 8.4 29.8 13.2-2.5-4.3-5.4-8.1-8-11.4-1.4-1.8-2.6-3.4-3.8-5-4.9-2-9.1-4.2-11.7-7-2-2.3-2.5-4.8-1.8-7.4-2.4 3.4-4.7 7.1-6.9 11.4zm204.4-60.1l-23.4-7.1c-1.2-.4-2-.8-2.4-1.1-.4-.4-.7-1-.8-1.9l-1 .1.4 4.1.4 4.1 1-.1c-.1-1.8.1-3 .6-3.3.6-.4 1.8-.3 3.7.3l2.1.6.7 8.6-3.6 1.8c-1.1.6-1.9.7-2.3.4-.4-.3-.7-1.3-.9-3l-1 .1.6 6.3.5 6.3 1-.1c0-.9.1-1.5.5-2 .3-.5 1.1-1 2.2-1.6l21.8-11.4v-.5l-.1-.6zm-8.5-1l-8.8 4.5-.6-7.4 9.4 2.9z"/>
  <path fill="#FFF" d="M211.8 304.2c1.3-5.1 2.3-8.4 4.3-12.6 2.7-5.5 6.2-9.9 9.4-13.8 4.1-5.1 7.5-9.3 7.4-13.9 0-3.3-2.2-4.3-4.5-5.3-2.8-1.2-4-2.5-4-5.6H199c0 3.2-1.1 4.4-4 5.6-2.3 1-4.4 2-4.5 5.3 0 4.5 3.3 8.8 7.4 13.9 3.1 3.9 6.7 8.4 9.4 13.8 2.3 4.2 3.3 7.5 4.5 12.6zm-19.4-40.3c0-2.2 1.7-2.9 3.4-3.7 2.3-1 4.6-2 5-5.5h22c.3 3.4 2.7 4.5 5 5.5 1.7.8 3.4 1.5 3.4 3.7 0 3.9-3.2 7.9-7.1 12.8-4.6 5.7-9.5 12-11.6 19.2v-21.5c3.2-.4 5.7-3.1 5.7-6.4 0-3.6-2.9-6.5-6.5-6.5s-6.5 2.9-6.5 6.5c0 3.3 2.5 6.1 5.7 6.4v21.5c-2.1-7.2-7-13.5-11.6-19.2-3.7-4.9-6.9-8.9-6.9-12.8zm-7.5 77.9h-9.5v2.1c.9.2 2.5 1.4 2.5 2.4v16.2c0 2.4 2 4.4 4.4 4.4h12.4c1.7 0 3.1-1.4 3.1-3.1v-20.2c0-1-.8-1.8-1.8-1.8h-6v2.1l2.7 2.1c.6.4.8 1.3.8 2.1v13.7c0 .9-.7 1.6-1.6 1.6h-.9c-.9 0-1.6-.7-1.6-1.6v-15.5c-.1-2.5-2.1-4.5-4.5-4.5zm27.2 21l-2.7 2.1v2.1h14.3c1 0 1.8-.8 1.8-1.8v-26.9c0-7.1-10.9-7.6-12.6-7.6h-1.4c-2.4 0-10.7 1.3-10.7 6.4v25.4c0 1-1.7 2.3-2.5 2.4v2.1h5c2.4 0 4.4-2 4.4-4.4v-26.7c0-.9.7-1.6 1.6-1.6h2c.9 0 1.6.7 1.6 1.6v24.8c0 .8-.2 1.6-.8 2.1zm-79.9-26.2c-2.8-2-5.3-2.8-7.7-2.5-2.3.4-4.5 1.9-6.5 4.7l-7 9.6c-.9 1.2-1.6 1.9-2.2 2.1-.6.2-1.4-.1-2.5-.8l-.6.8 3.4 2.5 3.5 2.5.6-.8c-1.2-1-1.9-1.9-2-2.5-.1-.7.3-1.6 1.2-2.8l6.8-9.3c1.8-2.4 3.5-3.9 5.2-4.4 1.7-.5 3.5 0 5.4 1.4 1.5 1.1 2.3 2.4 2.3 4 0 1.5-.7 3.3-2.2 5.4l-7.9 10.9c-.7.9-1.3 1.4-1.9 1.5-.6.1-1.4-.3-2.6-1.1l-.6.8 5.2 3.7 5.2 3.7.6-.8c-1-.8-1.5-1.5-1.6-2-.1-.5.2-1.3.9-2.2l7.8-10.7c1.8-2.5 2.5-5 2.1-7.3-.7-2.4-2.2-4.5-4.9-6.4zM176.5 83l-.5-4-1 .3c-.2 2.6-.9 4.7-2.1 6.1-1.2 1.5-3.1 2.6-5.6 3.5l-.9.3c-.7.2-1.3.2-1.8 0s-.8-.7-1-1.5l-2.9-8.8.6-.2c1.7-.5 3-.5 4.1.1 1.1.6 2.1 1.9 3 3.9l1-.3-2-6.2-2-6.2-1 .3c.4 2.1.3 3.6-.2 4.7s-1.7 1.9-3.3 2.5l-.6.2-2.7-8.4c-.2-.7-.2-1.2-.1-1.6.2-.4.6-.7 1.3-.9l1.6-.5c2.5-.8 4.5-.9 6-.4 1.5.6 2.7 1.9 3.7 4l.9-.3-1.2-3.7-1.2-3.7-12 3.9-9.2 3 .3.9c1.4-.4 2.3-.4 2.8-.2s1 .9 1.3 2l5.6 17.4c.4 1.1.4 1.9.1 2.4-.3.5-1.1 1-2.4 1.5l.3.9 9.2-3 12.3-4-.4-4zm-36.9-7.7c.1-.6.7-1.3 1.8-1.9l-.5-.8-3.7 2.1-3.8 2.1.5.8c1.4-.7 2.5-.9 3.1-.7.7.2 1.4.9 2.1 2.3l5.7 10.3-19.9-7.9-3.5 2-3.5 2 .5.8c.4-.2.9-.2 1.4-.1.6.1 1.5.4 2.9 1l8.5 15.3c.7 1.3 1 2.3.9 2.9-.1.6-.8 1.3-2 2.1l.5.8 3.9-2.2 3.9-2.2-.5-.8c-1.4.7-2.5.9-3.1.7-.7-.2-1.4-.9-2.1-2.3L125 88l25.3 10 .5-.3.5-.3-10.7-19.2c-.8-1.3-1.1-2.3-1-2.9z"/>
  <path fill="#FFF" d="M246.4 383.1c-7.2.8-16.3 16.2-42.5 16-12-.1-29.8-8.7-29.8-15.5 0-3.9 5.4-5.1 11.3-5.4 11.7-.6 32.1 8.7 43.6 8.8 12.5.2 19.2-7 19.2-19.3v-24.1c0-1-.8-1.8-1.8-1.8h-6v2.1l2.7 2.1c.6.4.8 1.3.8 2.1v13.7c0 .9-.7 1.6-1.6 1.6h-.9c-.9 0-1.6-.7-1.6-1.6v-15.5c0-2.4-2-4.4-4.4-4.4h-9.5v2.1c1 .1 2.5 1.4 2.5 2.4V360c0 5.5 4.1 9.2 8.5 9.3 4.4.1 5.6-1.2 6.9-3.3v6.1c0 4.4-5.5 5.8-10.6 5.8-12 .2-28.5-9.4-43.2-9-9 .3-19.7 4.7-19.5 14.6.3 14.9 14.7 24.5 36.3 24.2 21.6-.2 31.8-9.4 39.8-19.6 2.1-2.6 6.2-.1 6.5 4 1.8-5.5-3.1-9.4-6.7-9zm55.8-51.4c.1-.6.5-1.1 1.2-1.7l-.6-.8-3.4 2.4-3.3 2.4.6.8c1.5-1.1 2.6-1.5 3.2-1.2.6.3 1.1 1.4 1.6 3.4l.6 2.1-7 5.1-3.4-2.1c-1.1-.6-1.6-1.2-1.5-1.8.1-.5.8-1.3 2.1-2.3l-.6-.8-5.1 3.7-5.1 3.7.6.8c.7-.5 1.4-.7 1.9-.6.6.1 1.4.4 2.5 1.1l21 12.8.4-.3.4-.3-6-23.8c-.1-1.1-.2-2-.1-2.6zm2.8 18.7l-8.5-5.2 6-4.3 2.5 9.5zm50.8-48c-.5.2-1.3-.1-2.3-.7L338 292c-1-.6-1.5-1.2-1.6-1.7-.1-.6.2-1.5.9-2.7l-.8-.5-3.5 5.5-3.4 5.5.8.5c.8-1.1 1.5-1.8 2-2 .5-.2 1.3.1 2.3.7l6.9 4.3-.6 1-14.5.3-3.6 5.8-.6 1 .8.5c.3-.4.7-.7 1.2-.9.5-.2 1.5-.3 3-.4l10.7-.6c-.4 1.2-.6 2.3-.6 3.3 0 2.3 1 4.1 3 5.4 1.9 1.2 3.8 1.3 5.7.3 1.9-.9 3.9-2.9 5.7-5.9l3.2-5.1 3.4-5.5-.8-.5c-.6 1.2-1.3 1.9-1.8 2.1zm-4.4 7.7l-.1.2c-.9 1.4-1.9 2.3-3.1 2.5-1.2.2-2.6-.2-4.2-1.2-1.8-1.2-2.9-2.3-3.2-3.5-.3-1.2.1-2.7 1.2-4.4l.8-1.3 8 5c.6.4 1 .8 1.1 1.2 0 .3-.1.9-.5 1.5zM262.8 89.9c-.3-.5-.7-1.4-1.3-2.8l-3.7-10c1.3 0 2.4-.1 3.4-.4 2.2-.7 3.6-2.2 4.2-4.5.6-2.1.1-4-1.4-5.6-1.5-1.6-3.9-2.8-7.3-3.8l-5.8-1.6-6.3-1.7-.2.9c1.3.5 2.2.9 2.5 1.4.3.5.3 1.3 0 2.4l-4.7 17.6c-.3 1.1-.7 1.8-1.2 2-.5.3-1.5.2-2.8 0l-.2.9 6.3 1.7 6.3 1.7.2-.9c-1.3-.5-2.2-.9-2.5-1.4-.3-.5-.3-1.3 0-2.4l2.1-7.9 1.2.3 4.6 13.7 6.5 1.8 1.2.3.2-.9c-.6-.1-1-.4-1.3-.8zm-6.2-15.3c-1.1.7-2.6.7-4.6.2l-1.5-.4 2.5-9.2c.2-.7.5-1.2.8-1.4.4-.2.9-.2 1.6 0l.2.1c1.6.4 2.7 1.2 3.3 2.3.5 1.1.6 2.5.1 4.3-.5 2.1-1.3 3.5-2.4 4.1zm18.3 21.5c-.3-.5-.2-1.3.3-2.4l7.4-16.7c.5-1 1-1.6 1.6-1.8.6-.2 1.6 0 2.9.6l.4-.9-6.2-2.7-6.1-2.7-.4.9c1.3.7 2.1 1.3 2.4 1.8.3.5.2 1.3-.3 2.4l-7.4 16.7c-.5 1-1 1.6-1.5 1.8-.6.2-1.6 0-3-.6l-.4.9 6.2 2.7 6.1 2.7.4-.9c-1.4-.6-2.2-1.2-2.4-1.8zm-23.7 176.5c.3 2.2-.1 4.3-1.7 5.9-6 6.4-23.5 8.3-32.9 14.6-.2.3-.3.6-.5 1-2 4.2-3.1 7.6-4.3 12.4-1.2-4.8-2.3-8.2-4.3-12.4-.2-.3-.3-.6-.5-1-9.4-6.3-27-8.3-32.9-14.6-1.5-1.6-1.9-3.7-1.7-5.9-1.2 2.5-2.5 5.2-3.7 8.2-2.3 8.7 2.1 14.7 9.8 16.9 10.3 2.8 25.8 1.3 33.2 13.1 7.4-11.9 22.9-10.3 33.2-13.1 7.7-2.1 12.2-8.1 9.8-16.9-1.1-3-2.3-5.7-3.5-8.2zm124.6-36.7c-.4.4-1.2.5-2.3.4l-18.1-2.2c-1.1-.1-1.9-.4-2.2-.9-.3-.5-.4-1.4-.4-2.8l-1-.1-.8 6.5-.8 6.5 1 .1c.3-1.4.6-2.3 1-2.6.4-.4 1.2-.5 2.3-.4l7.2.9 1 1.3-10.1 6c-.9.5-1.4.6-1.6.3-.2-.3-.3-1.3-.1-2.9l-1-.1-.8 6.6-.8 6.5 1 .1c.1-.7.4-1.2.8-1.7s1.3-1.1 2.6-1.9l13.5-8.4 5.1 6.6c.8 1.1 1.4 2.2 1.8 3.3.3 1 .5 2.2.4 3.5l1 .1.7-5.5.7-5.5-1-.1c-.3 2.1-.8 3.1-1.4 3.1-.6 0-1.7-.9-3.3-2.9l-6.3-8.2 8.8 1.1c1.1.1 1.9.4 2.2.9.3.5.4 1.4.3 2.8l1 .1.8-6.5.8-6.5-1-.1c-.3 1.3-.6 2.2-1 2.6zM53.1 210.4c1.9.3 3.6-.1 5.1-1.1 1.5-1 3-2.7 4.6-5.2 1.3-2.1 2.4-3.5 3.3-4.3.9-.7 1.8-1 2.9-.9 1.3.2 2.3.8 3 1.8.7 1 .9 2.2.7 3.7-.3 1.9-1.3 3.5-3 4.7-1.7 1.2-3.8 1.9-6.3 2l-.2 1.1 9.5 1.3.2-1.2-.3-.1c-.5-.2-.8-.5-.9-.8-.1-.3 0-.7.3-1.3 1-2 1.7-3.7 1.9-5.3.4-2.9 0-5.3-1.3-7.3-1.3-1.9-3.1-3.1-5.7-3.4-1.9-.3-3.6.1-5.1 1.2-1.5 1.1-3.1 3-4.8 5.7-1.2 2-2.3 3.4-3.1 4.1-.9.7-1.8 1-2.9.8-1.1-.2-2-.7-2.5-1.5-.6-.9-.8-1.9-.6-3.2.2-1.7 1.1-3.1 2.5-4.2 1.5-1.2 3.3-1.9 5.6-2.2l.1-1.1-8.3-1.2-.2 1.1.3.2c.5.3.8.6.9 1 .1.4-.1.9-.5 1.6-.9 1.7-1.5 3.2-1.7 4.6-.4 2.6 0 4.7 1.2 6.4 1.2 1.6 3 2.7 5.3 3zm-.7-28c.5-.3 1.3-.4 2.4 0l17.6 5c1.1.3 1.8.7 2 1.3.2.5.2 1.5-.1 3l.9.3 1.9-6.5L79 179l-.9-.3c-.5 1.4-1 2.3-1.5 2.6-.5.3-1.3.4-2.4 0l-17.6-5c-1.1-.3-1.7-.7-2-1.3-.2-.5-.2-1.5.1-3l-.9-.3-1.9 6.5-1.9 6.5 1 .3c.5-1.4.9-2.2 1.4-2.6zM100.8 341l12.8-11.9c1.1-1 2-1.6 2.6-1.6.6 0 1.5.5 2.5 1.4l.7-.7-3-3.3-3-3.3-.7.7c1 1.2 1.5 2.2 1.5 2.9 0 .7-.6 1.5-1.7 2.6l-11.3 10.6 3.6-26.9-.4-.4-.4-.4-16.1 15c-1.1 1-2 1.6-2.6 1.6-.6.1-1.4-.4-2.3-1.2l-.7.7 2.9 3.1 2.9 3.1.7-.7c-1-1.2-1.5-2.2-1.5-2.9 0-.7.6-1.5 1.7-2.6l8.6-8-2.8 21.2 2.8 3 2.8 3 .7-.7c-.3-.3-.4-.8-.5-1.4-.1-.4 0-1.5.2-2.9zM62.5 168.8l.5-1.1c-2-1.3-3.2-2.6-3.7-4-.4-1.4-.2-3.2.8-5.3l.1-.2 19 8.9c1 .5 1.6 1 1.7 1.6.1.6-.1 1.6-.7 3.1l.9.4 2.9-6.3 2.9-6.3-.9-.4c-.8 1.4-1.4 2.2-1.9 2.5-.5.3-1.3.2-2.3-.3l-19-8.9.1-.1c1-2.1 2.1-3.4 3.5-4 1.4-.6 3.2-.5 5.5.2l.5-1.1-3.5-1.6-3.5-1.6-4.9 10.5-4.9 10.5 3.5 1.7 3.4 1.8zm27.1-18.3c.1.6-.2 1.2-.6 2l.8.6 2.4-3.4 2.4-3.3-.8-.6c-1.1 1.5-2 2.2-2.7 2.1-.7-.1-1.5-1-2.6-2.7l-1.2-1.8 5.1-7 3.9.9c1.2.3 1.9.7 2 1.2.1.5-.3 1.5-1.3 2.9l.8.6 3.7-5.1 3.7-5.1-.8-.6c-.5.7-1.1 1.1-1.6 1.2-.6.1-1.4 0-2.7-.2l-24-5.7-.3.4-.3.4 13 20.8c.7 1 1.1 1.9 1.1 2.4zm-8.3-16.9l9.6 2.4-4.3 6-5.3-8.4zm-12.2 167L86 282.3l-.2-.5-.2-.5-24.6 1c-1.3.1-2.1 0-2.6-.3-.5-.2-1-.7-1.4-1.5l-.9.4 1.7 3.8 1.7 3.8.9-.4c-.7-1.7-.9-2.8-.5-3.3s1.6-.9 3.6-.9l13.7-.7-10.8 11.2c-.9.9-1.6 1.3-2 1.1-.5-.2-1.1-1-1.8-2.5l-.9.4 2.6 5.9 2.6 5.9.9-.4c-.3-.8-.4-1.5-.2-2 .2-.6.7-1.3 1.5-2.2zm11 16l15-10.5c.9-.7 1.7-.9 2.2-.7.6.2 1.3.8 2.2 2l.8-.6-3.9-5.5-3.9-5.5-.8.6c.8 1.3 1.1 2.2 1.1 2.8 0 .6-.5 1.2-1.5 1.9l-15 10.5c-.9.7-1.7.9-2.3.7-.6-.2-1.3-.8-2.2-2l-.8.6 3.9 5.5 3.9 5.5.8-.6c-.8-1.3-1.1-2.2-1.1-2.8.2-.6.7-1.2 1.6-1.9zM68.6 239c1.1 0 1.9.2 2.3.6.4.4.6 1.3.7 2.7h1l-.1-6.5-.1-6.5h-1c-.1 1.4-.3 2.3-.6 2.8-.4.4-1.1.7-2.3.7l-8.2.1v-1.2l11.9-8.2-.1-6.8v-1.2h-1c0 .5-.2 1-.6 1.4-.4.4-1.1 1.1-2.3 2l-8.6 6.3c-.3-1.2-.8-2.2-1.3-3.1-1.3-1.9-3.1-2.9-5.5-2.8-2.2 0-3.9 1-5 2.8-1.1 1.9-1.6 4.6-1.6 8.1l.1 6.1.1 6.5h1c.1-1.4.3-2.3.6-2.8.4-.4 1.1-.7 2.3-.7l18.3-.3zM48 232.7c-.3-.3-.5-.8-.5-1.5v-.2c0-1.7.4-3 1.3-3.8.9-.8 2.3-1.2 4.2-1.3 2.2 0 3.7.4 4.6 1.2.9.8 1.4 2.3 1.4 4.3v1.5l-9.5.2c-.7 0-1.2-.1-1.5-.4zm300.2 29.6c-.2-.5-.2-1.2.1-2l-.9-.3-1.5 3.9-1.5 3.9.9.3c.7-1.7 1.4-2.6 2-2.7.7-.1 1.7.6 3.2 1.9l1.7 1.5-3.1 8-4 .1c-1.3.1-2-.2-2.2-.6-.2-.5 0-1.5.5-3.1l-.9-.3-2.3 5.9-2.3 5.9.9.3c.4-.8.8-1.3 1.3-1.6.5-.3 1.4-.4 2.7-.5l24.6-.7.2-.5.2-.5-17.9-16.7c-.9-1-1.5-1.7-1.7-2.2zm12.4 14.1l-9.9.2 2.7-6.9 7.2 6.7zM74.3 266.2c1.1-.3 1.9-.2 2.4.1.5.3.9 1.2 1.3 2.5l.9-.2-2.2-9.4-2.9-12.6-4.1.1-4.1.1.2 1c2.6.4 4.6 1.3 5.9 2.6 1.4 1.3 2.4 3.3 3 5.9l.2.9c.2.8.1 1.4-.1 1.8-.3.4-.8.7-1.5.9l-9 2.1-.2-.7c-.4-1.7-.2-3.1.4-4.1.7-1 2.1-1.9 4.1-2.7l-.2-1-6.3 1.5-6.3 1.5.2 1c2.1-.2 3.6 0 4.7.6s1.8 1.8 2.2 3.5l.2.7-8.6 2c-.7.2-1.2.1-1.6-.1-.4-.2-.6-.7-.8-1.4l-.4-1.6c-.6-2.5-.5-4.5.1-6 .7-1.4 2.1-2.5 4.3-3.4l-.2-.9-3.8.9-3.8.9 2.8 12.3 2.2 9.4.9-.2c-.2-1.4-.2-2.3.1-2.8.3-.5 1-.9 2.1-1.1l17.9-4.1z"/>
</svg>
