<svg xmlns="http://www.w3.org/2000/svg" fill-rule="evenodd" shape-rendering="geometricPrecision" text-rendering="geometricPrecision" image-rendering="optimizeQuality" clip-rule="evenodd" viewBox="0 0 3508 2480">
  <path fill="#3E4095" d="M2563 1490c65-18 77-114 72-265-4-93-30-241 2-284-51-16-117-151-169-229-85-125-151-196-214-172 3-68-85-109-230-151-90-25-239-46-270-89-31 43-180 64-270 89-145 42-233 83-230 151-63-24-129 47-214 172-52 78-118 213-169 229 32 43 6 191 2 284-5 151 7 247 72 266-42 53 5 137 98 256 58 74 166 178 165 232 51-17 183 54 272 85 142 52 237 70 274 14 37 56 132 38 274-14 89-31 221-102 272-85-1-54 107-158 165-232 93-119 140-203 98-257zm-49-15c54-18 70-120 63-255-4-86-34-219 7-262-58-11-113-136-159-208-74-114-147-186-201-168-1-57-92-105-223-140-83-22-218-35-247-87-29 52-164 65-247 87-131 35-223 83-223 140-54-18-127 54-201 168-46 72-101 197-159 208 41 43 11 176 7 262-7 135 9 237 63 255-33 46 13 138 99 243 53 67 156 157 148 216 54-26 171 44 251 74 127 49 229 65 262 19 33 46 135 30 262-19 80-30 197-100 251-74-8-59 95-149 148-216 86-105 132-197 99-243zm-872 249c10 0 18 8 18 18v65c0 3 3 6 7 6h4c3 0 6-3 6-6v-57c0-4 0-7-3-9l-11-9v-8h25c4 0 8 3 8 7v85c0 7-6 12-13 12h-52c-10 0-19-8-19-18v-68c0-4-6-9-10-10v-8h40zm210 0c10 0 18 8 18 18v65c0 3 3 6 7 6h4c4 0 7-3 7-6v-57c0-4-1-7-3-9l-12-9v-8h25c4 0 8 3 8 7v101c0 51-28 81-80 80-48 0-133-39-182-36-25 1-47 6-47 22 0 28 74 64 124 64 109 1 147-63 177-66 15-2 35 14 27 38-1-17-18-28-27-17-33 43-76 81-166 82s-150-39-151-101c-1-41 44-60 81-61 62-2 131 38 181 38 21-1 44-6 44-25v-25c-5 9-11 14-29 14-18-1-35-16-35-39v-58c0-4-6-9-11-10v-8h40zm-134 104h-21v-8c4-1 11-6 11-10v-106c0-21 34-27 44-27h6c7 0 53 2 53 32v112c0 4-4 7-8 7h-59v-8l11-9c3-2 3-5 3-8v-104c0-4-3-7-6-7h-9c-3 0-6 3-6 7v111c0 10-9 18-19 18zm-195-21c15 0 27 12 27 27s-12 27-27 27-27-12-27-27 12-27 27-27zm462 0c15 0 27 12 27 27s-12 27-27 27-27-12-27-27 12-27 27-27zm-366-570c-1 15 29 35 30 61 1 19-10 47-24 69-26 39-80 116-50 154 18 24 66 35 104 37s68 29 75 40c7-11 37-38 75-40s86-13 104-37c30-38-24-115-50-154-14-22-25-50-24-69 1-26 31-46 30-61 10 25 45 39 45 66 0 14-10 25-21 25-21 0-24-21-21-33-31 36 90 90 90 207-1 63-108 100-228 100s-227-37-228-100c0-117 121-171 90-207 3 12 0 33-21 33-11 0-21-11-21-25 0-27 35-41 45-66zm277-1c-34-109 124-149 116-268-4-56-76-129-167-187 95 23 206 67 251 162 42 89-17 154-45 181-28 29-51 45-50 75 14-50 54-45 91-97 48-66 43-122 10-187 27 31 51 67 71 106 10 31 11 66 0 95-12 33-41 67-70 89-28 20-42 29-40 55 5-9 7-20 15-27 19-18 44-27 63-43 48-41 59-80 56-117 33 80 43 144-35 203-37 27-72 59-67 81 5-18 44-55 68-66 20-10 38-11 60-49 6-12 10-24 11-37 10 71 11 122-50 168-37 27-83 37-78 59 5-18 26-18 50-26 24-7 52-20 70-49-45 185-202 298-472 295-270 3-427-110-472-295 18 29 46 42 70 49 24 8 45 8 50 26 5-22-41-32-78-59-61-46-60-97-50-168 1 13 5 25 11 37 22 38 40 39 60 49 24 11 63 48 68 66 5-22-30-54-67-81-78-59-68-123-35-203-3 37 8 76 56 117 19 16 44 25 63 43 8 7 10 18 15 27 2-26-12-35-40-55-29-22-58-56-70-89-11-29-10-64 0-95 20-39 44-75 71-106-33 65-38 121 10 187 37 52 77 47 91 97 1-30-22-46-50-75-28-27-87-92-45-181 45-95 156-139 251-162-91 58-163 131-167 187-8 119 150 159 116 268-12 25-45 36-45 67 0 16 11 32 28 32h5c-4 6-9 11-14 18-29 34-67 81-67 149 1 30 22 55 57 73 54 28 118 34 178 34s124-6 178-34c35-18 56-43 57-73 0-68-38-115-67-149-5-7-10-12-14-18h5c17 0 28-16 28-32 0-31-33-43-45-67zm-176-397c-2-13 2-31 22-59 0 14 4 27 8 38l-22 28-8-7zm9-49c0-16 5-38 21-70 1 52 23 83 23 117l-19-24v1c-3-9-6-17-7-27-1-7 0-14 0-21-4 5-8 9-12 14-2 4-4 7-6 10zm21-82c1-6 3-13 6-20 4 69 38 106 32 151l-8 7-2-3c1-18-4-35-10-54-5-18-11-38-13-62-1-9 0-19 0-28-2 3-4 6-5 9zm-27 178h62l41 266c-9 6-17 13-24 20-12-16-29-29-48-37-19 8-36 21-48 37-7-7-15-14-24-20l41-266zm57 623c10-18 22-33 33-47 6-8 11-14 16-21 20-9 38-18 49-29 8-10 10-20 7-31 10 14 20 30 29 48 1 9-2 17-10 25-23 25-82 35-124 55zm-26 86c-31-50-95-43-138-55-33-9-51-34-41-70 5-13 10-24 15-34-1 9 1 18 7 24 25 27 98 35 137 61 1 2 2 3 2 4 9 18 13 32 18 52 5-20 9-34 18-52 0-1 1-2 2-4 39-26 112-34 137-61 6-6 8-15 7-24 5 10 10 21 15 34 10 36-8 61-41 70-43 12-107 5-138 55zm109-244c3 4 13 17 16 20 3 5 4 8 4 14-1 8-4 14-9 21-9 9-22 17-38 24 6-11 10-21 10-32 0-9-3-15-9-18 15-4 29-13 26-29zm-218 0c-3 16 11 25 26 29-6 3-9 9-9 18 0 11 4 21 10 32-16-7-29-15-38-24-5-7-8-13-9-21 0-6 1-9 4-14 3-3 13-16 16-20zm83 158c-42-20-101-30-124-55-8-8-11-16-10-25 9-18 19-34 29-48-3 11-1 21 7 31 11 11 29 20 49 29 5 7 10 13 16 21 10 14 23 29 33 47zm26 58c-5-21-9-35-18-52-11-23-26-42-39-58-17-21-31-39-31-58 0-14 9-18 19-22 11-5 16-10 16-23h106c0 13 5 18 16 23 10 4 19 8 19 22 0 19-14 37-31 58-13 16-28 35-39 58-9 17-13 31-18 52zm3-124v89c9-29 29-56 48-80 17-20 30-36 30-53 0-20-33-11-35-38h-92c-2 27-35 18-35 38 0 17 13 33 30 53 19 24 39 51 48 80v-89c-14-2-24-13-24-27 0-15 12-27 27-27s27 12 27 27c0 14-10 25-24 27zm-84-222h162v123c3-4 6-8 11-8 4 0 12 7 12 16 0 14-12 23-25 23s-24-8-24-17v-7h-110v7c0 9-11 17-24 17s-25-9-25-23c0-9 8-16 12-16 5 0 8 4 11 8v-123zm136 22v98h-110v-98c11 4 21 15 27 29 6-15 16-26 28-29 12 3 22 14 28 29 6-14 16-25 27-29zm-164-100c11-5 35 10 61 37 12-17 28-31 48-39 20 8 36 22 48 39 26-27 50-42 61-37-1 13-12 36-29 61l1 13h-162l1-13c-17-25-28-48-29-61zm140-261h-62l-21-52 26 23 26-31 26 31 26-23-21 52zm-31 219c-4-5-4-16 0-21 4 5 4 16 0 21zm0-74c-4-6-4-17 0-22 4 5 4 16 0 22zm0-75c-4-6-4-16 0-22 4 6 4 16 0 22zm-1 78c-3-3-4-8-4-14s1-11 4-15v-46c-3-3-4-8-4-14 0-7 2-13 5-16 3 3 5 9 5 16 0 6-1 11-4 14v46c3 4 4 9 4 15s-1 11-4 14v46c3 3 4 8 4 15 0 6-2 13-5 16-3-3-5-10-5-16 0-7 1-12 4-15v-46zm-390 681c17-23 36-26 59-9 21 15 27 36 11 57l-33 45c-2 4-4 7-3 9 0 3 2 5 7 9l-3 3-43-31 3-3c5 3 8 4 11 4 2 0 5-2 7-6l33-46c7-8 10-16 10-22 0-7-4-12-10-17-8-6-15-7-22-5-8 2-15 8-22 18l-28 39c-4 5-6 8-5 11 0 3 3 7 8 11l-2 3-29-21 2-3c5 3 8 4 11 3 2-1 5-4 9-9l29-40zm-23-45c4-5 7-8 7-11s-2-7-6-12l2-3 26 27-3 3c-4-4-8-6-11-6-2 0-6 2-11 7l-53 49c-1 7-1 11-1 13 0 3 1 4 2 6l-3 3-23-25 12-89c-12 12-24 23-36 34-4 4-7 8-7 10 0 3 2 7 6 12l-3 3-24-26 3-3c4 4 7 6 9 5 3 0 7-2 11-6l67-63 3 3-15 113c16-15 32-30 48-44zm-72-91l-63 44c-4 3-6 5-6 8 0 2 1 6 5 11l-4 3-32-46 4-3c3 5 7 8 9 9 2 0 5-1 9-3l63-44c4-3 6-5 6-8 0-2-2-6-5-12l3-2 33 46-4 2c-4-4-7-7-9-8s-6 0-9 3zm-109-23c-3 4-5 7-6 9s-1 5 1 9l-4 1-22-49 4-2c3 7 5 10 7 11s5-1 9-5l45-46-57 2c-9 1-14 2-15 4-2 3-1 7 2 14l-4 2-14-32 4-1c2 3 3 5 6 6 2 1 5 1 11 1l102-4 2 4-71 76zm41-133l-4 1c-2-6-4-9-5-11-2-1-6-1-10 0l-74 17c-5 1-8 3-9 5s-1 6 0 11l-4 1-21-90 31-7 1 3c-9 4-15 8-18 14-4 10-1 22 1 32 1 6 4 7 10 6l36-8-1-3c-1-7-4-12-9-15-4-2-11-3-19-2l-1-4 52-13 1 5c-8 3-14 6-17 11-3 4-3 10-2 17l1 3 38-9c6-1 8-5 7-11l-1-4c-5-21-15-32-37-35l-1-5 34-1 21 92zm-43-124l-76 2c-5 0-8 1-10 3-1 1-2 5-2 11h-4l-1-27v-25c-1-19 3-45 27-46 16 0 25 11 29 25l35-26c5-4 9-7 10-8 2-2 3-4 3-6h4v33l-50 34 1 5 33-1c5 0 8-1 10-2 1-2 2-6 3-12h4l1 54h-4c-1-5-2-9-4-11-1-2-4-3-9-3zm-40-25c0-8 0-18-6-24-4-4-10-5-19-5-15 0-23 5-23 21 0 6 2 9 9 9l39-1zm-12-159c-10 1-17 4-23 9-7 5-10 11-11 17-1 10 3 19 13 20 4 1 8 0 12-3s8-9 13-17c7-11 14-19 20-24 6-4 13-6 21-5 11 2 19 6 24 14s7 18 5 31c-1 6-3 14-8 22-1 2-1 4-1 5 0 2 3 3 5 4l-1 5-39-5v-5c11 0 20-3 27-8s11-12 12-20c2-11-4-21-16-23-4 0-8 1-12 4-3 3-8 9-13 18-7 10-13 18-19 22-7 4-14 5-22 4-9-1-16-5-21-13-5-7-7-16-5-26 1-6 3-12 7-19 2-3 2-5 2-7s-3-4-5-5l1-4 34 4v5zm68-30l-73-21c-5-2-8-2-10 0-2 1-4 5-6 11l-4-1 15-54 4 1c-1 6-1 10 0 12s3 4 8 6l73 21c5 1 8 1 10-1 2-1 4-5 6-10l4 1-16 54-3-2c1-6 1-10 0-12s-4-4-8-5zm28-85l-79-37c-3 7-6 15-4 23 2 6 7 11 16 16l-2 5-29-14 40-88 30 14-2 4c-10-3-17-3-23-1-7 3-12 11-15 17l79 37c5 2 8 3 10 2s5-5 8-11l4 2-25 52-3-1c2-7 3-11 3-13-1-3-3-5-8-7zm39-79l-54-87 3-4 99 24c6 1 9 2 12 1 2 0 4-2 7-5l3 3-31 42-3-2c4-6 5-10 5-12s-3-4-8-5l-16-4-21 29 5 8c4 7 8 10 10 11 3 0 7-3 11-9l4 2-21 28-3-2c2-3 3-6 3-8 0-3-2-6-5-10zm-30-61l22 35 18-25-40-10zm107-120c-8-5-16-8-24-8s-14 2-19 7c-7 7-10 16-2 24 3 3 6 5 11 5s12-2 21-5c12-5 22-7 30-6 8 0 15 4 20 9 7 8 10 17 9 26-1 10-6 19-15 27-4 5-11 9-20 12-2 1-4 3-4 4-1 2 0 4 1 6l-4 3-27-29 4-3c8 6 17 10 25 10 9 1 16-2 22-7 9-8 11-19 3-28-3-3-7-5-12-5s-12 2-22 6c-11 4-21 5-28 5-8-1-14-4-20-10-6-7-9-15-9-24 1-8 6-16 14-24 4-4 9-7 17-10 3-1 5-2 6-4s0-5-1-7l3-3 24 26-3 3zm106-13c3 5 6 8 9 9s7 0 13-3l2 3-32 18-2-3c5-3 7-6 8-9 0-2-1-6-4-12l-35-64c-6-2-10-3-12-4-3 0-5 0-6 1l-2-4 29-16 83 33c-8-15-15-29-23-43-3-6-6-9-9-10-3 0-7 1-13 4l-2-4 31-17 2 3c-4 3-7 6-7 8-1 3 1 7 4 12l44 81-4 2-105-42c10 19 21 38 31 57zm96-32l-1-3c5-3 9-5 10-7s1-5 0-10l-24-72c-1-5-3-7-5-8-3-1-7-1-12 1l-1-4 88-29 10 31-4 1c-4-9-9-14-15-17-10-3-22 1-32 4-6 2-7 5-5 10l11 35h3c7-3 12-6 14-11 2-4 2-11 1-19l4-2 17 52-4 1c-4-8-8-14-13-16-5-3-10-3-17 0h-3l12 37c2 6 6 8 12 6l3-1c21-7 31-18 32-40l5-1 4 33-90 29zm166-39c-17 2-32-2-44-11s-19-21-21-38 1-31 11-43c9-12 22-19 39-21 6-1 15 0 24 2 5 2 8 2 9 1 3-1 4-5 4-8h5l4 37-4 1c-5-10-11-17-18-22-8-5-15-7-22-6-27 3-26 35-24 56 3 20 10 50 37 46 3 0 7-1 10-2 5-2 6-6 6-10l-2-17c-1-5-2-8-5-9-2-1-6-2-13-1l-1-4 55-7 1 4c-6 1-9 3-11 5-2 1-2 5-1 9l2 23c-12 9-27 13-41 15zm66-8v-4c6 0 10-1 12-2s3-5 3-9l5-76c1-5 0-8-2-10-1-2-5-3-11-4v-4l93 7-2 32h-4c-1-10-3-17-8-21-8-8-21-8-31-9-6 0-8 2-9 8l-2 37h3c7 0 13-1 16-5 4-3 7-9 9-17h4l-4 54h-4c-1-9-2-16-6-20-3-4-8-6-16-7h-2l-3 38c-1 7 2 10 9 10l3 1c22 1 35-6 45-25h4l-8 33-94-7zm129-3l20-74c1-4 1-8 0-10-2-2-5-3-11-5l1-4 51 13c18 5 42 16 36 39-4 16-17 21-31 21l15 41c2 6 4 10 5 12s3 3 5 4l-1 4-32-9-19-57-5-1-9 33c-1 4-1 7 0 9 2 2 5 4 11 6l-1 4-53-14 1-4c6 1 10 1 12 0s4-4 5-8zm35-31c8 2 18 5 26 0 4-2 7-8 10-17 3-14 1-23-14-27-6-2-9-1-11 5l-11 39zm79 70l31-70c2-4 2-7 1-10-1-2-4-4-10-7l2-4 51 23-1 4c-6-3-10-3-13-3-2 1-4 4-6 8l-31 69c-2 5-3 8-1 10 1 2 4 5 10 8l-2 3-51-22 1-4c6 2 10 3 13 2 2 0 4-3 6-7zm134 48l10-58c1-5 1-8 0-10s-2-5-5-7l3-3 42 33-2 3c-6-4-10-6-12-5-2 0-3 3-4 9l-8 43 35-14c8-3 13-6 13-8 1-3-2-7-8-12l2-3 28 22-2 3c-3-2-5-3-7-3s-6 1-11 3l-50 19-19 25c-3 3-5 7-4 9s3 6 8 10l-3 3-44-35 3-3c5 4 9 5 11 5s5-2 8-5l16-21zm71 129c-11-12-16-26-15-41 0-15 7-28 20-39 12-11 26-16 42-15 15 1 28 8 39 20 11 13 16 27 14 42-1 15-8 28-21 39-12 11-26 16-41 15s-27-8-38-21zm4-3c16 19 42 0 57-12 14-13 38-37 21-56-17-20-44 0-59 13-14 12-36 35-19 55zm67 111c-8-16-10-30-6-45s14-26 28-33c15-8 30-10 45-6 14 4 26 14 34 29 3 6 5 14 6 24 0 4 1 7 3 9s5 1 8 1l2 4-33 17-2-3c7-8 11-17 13-26 3-8 2-16-1-22-13-24-43-12-61-2-19 9-43 27-31 51 2 3 4 6 6 8 3 4 8 4 12 2l15-8c4-2 6-5 7-7 0-3-1-7-4-13l4-2 25 49-3 2c-3-5-6-8-8-9-3 0-6 0-9 2l-21 11c-13-8-22-20-29-33zm85 87l42-41c3-4 5-6 6-9v-8l4-1 14 52-3 1c-3-7-5-10-6-11-2-1-5 0-9 4l-32 31 36 9c9 3 14 3 16 1s2-6 0-14l4-1 10 34-4 1c-1-3-2-5-4-6-2-2-5-3-10-5l-52-14-30 9c-5 1-8 3-9 6-1 2-1 6 1 12l-4 1-16-54 4-1c2 6 4 10 6 11s6 1 10 0l26-7zm-7 96l97 30 1 5-91 47c-5 3-8 5-9 7-2 2-2 4-2 8h-4l-5-52h4c1 7 2 11 4 12 2 2 5 1 9-1l15-8-3-36-9-2c-8-3-13-3-15-2-3 2-3 7-3 14l-4 1-3-35h4c1 3 2 6 4 8 1 1 5 3 10 4zm62 26l-39-12 2 31 37-19zm-58 101l75 9c5 1 8 0 10-1 2-2 3-6 4-11h4l-6 54-4-1c0-5 0-9-2-11-1-2-4-4-9-4l-37-5 27 34c6 8 11 13 13 12 3 0 5-4 6-13l4 1-6 46-4-1c1-11-2-19-8-28l-22-28-56 35c-5 4-9 7-11 8-2 2-3 5-3 7h-4l6-55 4 1c0 6 0 10 1 12 1 1 3 1 7-1l42-25-4-6-30-3c-5-1-8 0-10 1-2 2-3 5-4 11h-4l6-54h4c0 6 0 10 2 12 1 2 4 3 9 4zm-23 126l75 70-2 4-102 3c-6 0-9 1-11 2s-4 3-6 6l-3-1 18-49 4 1c-2 7-3 11-2 13s4 3 9 3l17-1 13-33-7-6c-6-6-11-9-13-8-3 0-6 4-9 11l-4-1 13-33 4 2c-2 3-2 6-1 8 1 3 3 5 7 9zm45 51l-30-28-11 28 41-1v1zm-94 64l64 41c4 2 8 3 10 3 2-1 5-4 8-9l4 2-15 23-13 22c-8 12-16 21-24 24-8 4-16 4-24-1-14-9-15-22-10-36l-45 2c-6 1-10 1-12 2s-4 2-5 4l-4-3 18-28 60-1 3-5-29-18c-4-2-7-3-9-2-3 0-6 3-9 8l-3-2 28-46 4 2c-3 5-4 9-4 11 1 2 3 5 7 7zm19 43c-4 7-10 16-8 24 1 5 6 10 14 15 12 7 22 8 30-5 3-6 4-9-2-13l-34-21zm-104 74l64 60c5-6 10-13 11-21 0-6-4-13-10-20l4-4 23 22-66 71-24-22 4-4c8 6 15 9 21 8 8 0 14-6 19-11l-64-60c-3-3-6-5-8-4-3 0-7 3-11 7l-3-3 39-42 3 3c-4 5-6 9-7 11 0 3 2 6 5 9zm-63 60l25 99-4 3-88-54c-4-2-8-4-10-4s-5 0-8 2l-2-3 42-31 2 3c-5 5-8 8-8 10-1 2 1 5 6 8l14 8 29-21-2-9c-2-8-5-12-7-14-3-1-7 1-13 5l-3-3 28-20 3 3c-3 2-5 5-5 7-1 2-1 6 1 11zm10 67l-10-40-25 18 35 22zm391-279c56-18 73-122 66-262-5-87-35-223 6-268-59-11-115-140-163-213-76-117-151-191-206-173 0-59-94-107-229-143-84-23-224-36-253-89-29 53-169 66-253 89-135 36-229 84-229 143-55-18-130 56-206 173-48 73-104 202-163 213 41 45 11 181 6 268-7 140 10 244 66 262-35 47 13 142 101 250 55 68 159 161 152 221 55-26 175 45 257 76 130 50 235 66 269 19 34 47 139 31 269-19 82-31 202-102 257-76-7-60 97-153 152-221 88-108 136-203 101-250z"/>
  <path fill="#FFF212" d="M1523 1807c15 0 27 12 27 27s-12 27-27 27-27-12-27-27 12-27 27-27zm1010-326c56-18 73-122 66-262-5-87-35-223 6-268-59-11-115-140-163-213-76-117-151-191-206-173 0-59-94-107-229-143-84-23-224-36-253-89-29 53-169 66-253 89-135 36-229 84-229 143-55-18-130 56-206 173-48 73-104 202-163 213 41 45 11 181 6 268-7 140 10 244 66 262-35 47 13 142 101 250 55 68 159 161 152 221 55-26 175 45 257 76 130 50 235 66 269 19 34 47 139 31 269-19 82-31 202-102 257-76-7-60 97-153 152-221 88-108 136-203 101-250zm-637-245c-34-109 124-149 116-268-4-56-76-129-167-187 95 23 206 67 251 162 42 89-17 154-45 181-28 29-51 45-50 75 14-50 54-45 91-97 48-66 43-122 10-187 27 31 51 67 71 106 10 31 11 66 0 95-12 33-41 67-70 89-28 20-42 29-40 55 5-9 7-20 15-27 19-18 44-27 63-43 48-41 59-80 56-117 33 80 43 144-35 203-37 27-72 59-67 81 5-18 44-55 68-66 20-10 38-11 60-49 6-12 10-24 11-37 10 71 11 122-50 168-37 27-83 37-78 59 5-18 26-18 50-26 24-7 52-20 70-49-45 185-202 298-472 295-270 3-427-110-472-295 18 29 46 42 70 49 24 8 45 8 50 26 5-22-41-32-78-59-61-46-60-97-50-168 1 13 5 25 11 37 22 38 40 39 60 49 24 11 63 48 68 66 5-22-30-54-67-81-78-59-68-123-35-203-3 37 8 76 56 117 19 16 44 25 63 43 8 7 10 18 15 27 2-26-12-35-40-55-29-22-58-56-70-89-11-29-10-64 0-95 20-39 44-75 71-106-33 65-38 121 10 187 37 52 77 47 91 97 1-30-22-46-50-75-28-27-87-92-45-181 45-95 156-139 251-162-91 58-163 131-167 187-8 119 150 159 116 268-12 25-45 36-45 67 0 16 11 32 28 32h5c-4 6-9 11-14 18-29 34-67 81-67 149 1 30 22 55 57 73 54 28 118 34 178 34s124-6 178-34c35-18 56-43 57-73 0-68-38-115-67-149-5-7-10-12-14-18h5c17 0 28-16 28-32 0-31-33-43-45-67zm618 239c54-18 70-120 63-255-4-86-34-219 7-262-58-11-113-136-159-208-74-114-147-186-201-168-1-57-92-105-223-140-83-22-218-35-247-87-29 52-164 65-247 87-131 35-223 83-223 140-54-18-127 54-201 168-46 72-101 197-159 208 41 43 11 176 7 262-7 135 9 237 63 255-33 46 13 138 99 243 53 67 156 157 148 216 54-26 171 44 251 74 127 49 229 65 262 19 33 46 135 30 262-19 80-30 197-100 251-74-8-59 95-149 148-216 86-105 132-197 99-243zm-529 332c15 0 27 12 27 27s-12 27-27 27-27-12-27-27 12-27 27-27z"/>
  <path fill="#54B952" d="M1619 1237c-1 15 29 35 30 61 1 19-10 47-24 69-26 39-80 116-50 154 18 24 66 35 104 37s68 29 75 40c7-11 37-38 75-40s86-13 104-37c30-38-24-115-50-154-14-22-25-50-24-69 1-26 31-46 30-61 10 25 45 39 45 66 0 14-10 25-21 25-21 0-24-21-21-33-31 36 90 90 90 207-1 63-108 100-228 100s-227-37-228-100c0-117 121-171 90-207 3 12 0 33-21 33-11 0-21-11-21-25 0-27 35-41 45-66z"/>
  <path fill="#F58634" d="M1720 839c-2-13 2-31 22-59 0 14 4 27 8 38l-22 28-8-7zm9-49c0-16 5-38 21-70 1 52 23 83 23 117l-19-24v1c-3-9-6-17-7-27-1-7 0-14 0-21-4 5-8 9-12 14-2 4-4 7-6 10zm21-82c1-6 3-13 6-20 4 69 38 106 32 151l-8 7-2-3c1-18-4-35-10-54-5-18-11-38-13-62-1-9 0-19 0-28-2 3-4 6-5 9z"/>
  <path fill="#FEFEFE" d="M1390 1692c10-2 21 2 32 10s18 17 19 27c2 10-1 20-8 30l-33 45c-2 4-4 7-3 9 0 3 2 5 7 9l-3 3-21-16-22-15 3-3c5 3 8 4 11 4 2 0 5-2 7-6l33-46c7-8 10-16 10-22 0-7-4-12-10-17-8-6-15-7-22-5-8 2-15 8-22 18l-28 39c-4 5-6 8-5 11 0 3 3 7 8 11l-2 3-15-10-14-11 2-3c5 3 8 4 11 3 2-1 5-4 9-9l29-40 27-19zm252 32c10 0 18 8 18 18v65c0 3 3 6 7 6h4c3 0 6-3 6-6v-57c0-4 0-7-3-9l-11-9v-8h25c4 0 8 3 8 7v85c0 7-6 12-13 12h-52c-10 0-19-8-19-18v-68c0-4-6-9-10-10v-8h40zm210 0c10 0 18 8 18 18v65c0 3 3 6 7 6h4c4 0 7-3 7-6v-57c0-4-1-7-3-9l-12-9v-8h25c4 0 8 3 8 7v101c0 51-28 81-80 80-48 0-133-39-182-36-25 1-47 6-47 22 0 28 74 64 124 64 109 1 147-63 177-66 15-2 35 14 27 38-1-17-18-28-27-17-33 43-76 81-166 82s-150-39-151-101c-1-41 44-60 81-61 62-2 131 38 181 38 21-1 44-6 44-25v-25c-5 9-11 14-29 14-18-1-35-16-35-39v-58c0-4-6-9-11-10v-8h40zm-134 104h-21v-8c4-1 11-6 11-10v-106c0-21 34-27 44-27h6c7 0 53 2 53 32v112c0 4-4 7-8 7h-59v-8l11-9c3-2 3-5 3-8v-104c0-4-3-7-6-7h-9c-3 0-6 3-6 7v111c0 10-9 18-19 18zm5-942h62l41 266c-9 6-17 13-24 20-12-16-29-29-48-37-19 8-36 21-48 37-7-7-15-14-24-20l41-266zm57 623c10-18 22-33 33-47 6-8 11-14 16-21 20-9 38-18 49-29 8-10 10-20 7-31 10 14 20 30 29 48 1 9-2 17-10 25-23 25-82 35-124 55zm-26 86c-31-50-95-43-138-55-33-9-51-34-41-70 5-13 10-24 15-34-1 9 1 18 7 24 25 27 98 35 137 61 1 2 2 3 2 4 9 18 13 32 18 52 5-20 9-34 18-52 0-1 1-2 2-4 39-26 112-34 137-61 6-6 8-15 7-24 5 10 10 21 15 34 10 36-8 61-41 70-43 12-107 5-138 55zm109-244c3 4 13 17 16 20 3 5 4 8 4 14-1 8-4 14-9 21-9 9-22 17-38 24 6-11 10-21 10-32 0-9-3-15-9-18 15-4 29-13 26-29zm-218 0c-3 16 11 25 26 29-6 3-9 9-9 18 0 11 4 21 10 32-16-7-29-15-38-24-5-7-8-13-9-21 0-6 1-9 4-14 3-3 13-16 16-20zm83 158c-42-20-101-30-124-55-8-8-11-16-10-25 9-18 19-34 29-48-3 11-1 21 7 31 11 11 29 20 49 29 5 7 10 13 16 21 10 14 23 29 33 47zm26 58c-5-21-9-35-18-52-11-23-26-42-39-58-17-21-31-39-31-58 0-14 9-18 19-22 11-5 16-10 16-23h106c0 13 5 18 16 23 10 4 19 8 19 22 0 19-14 37-31 58-13 16-28 35-39 58-9 17-13 31-18 52zm3-124v89c9-29 29-56 48-80 17-20 30-36 30-53 0-9-7-12-14-15-10-4-20-9-21-23h-92c-1 14-11 19-21 23-7 3-14 6-14 15 0 17 13 33 30 53 19 24 39 51 48 80v-89c-14-2-24-13-24-27 0-15 12-27 27-27s27 12 27 27c0 14-10 25-24 27zm-84-222h162v123c3-4 7-8 11-8 5 0 12 7 12 16 0 14-12 23-25 23s-24-8-24-17v-7h-110v7c0 9-11 17-24 17s-25-9-25-23c0-9 7-16 12-16 4 0 8 4 11 8v-123zm136 22v98h-110v-98c11 4 21 15 27 29 6-15 16-26 28-29 12 3 22 14 28 29 6-14 16-25 27-29zm-164-100c11-5 35 10 61 37 12-17 28-31 48-39 20 8 36 22 48 39 26-27 50-42 61-37-1 13-12 36-29 61l1 13h-162l1-13c-17-25-28-48-29-61zm140-261h-62l-21-52 26 23 26-31 26 31 26-23-21 52zm-31 219c-2-2-3-6-3-10 0-5 1-9 3-11 2 2 3 6 3 11 0 4-1 8-3 10zm0-74c-2-3-3-7-3-11 0-5 1-9 3-11 2 2 3 6 3 11 0 4-1 8-3 11zm0-75c-2-3-3-7-3-11s1-8 3-11c2 3 3 7 3 11s-1 8-3 11zm-1 78c-3-3-4-8-4-14s1-11 4-15v-46c-3-3-4-8-4-14 0-7 2-13 5-16 3 3 5 9 5 16 0 6-1 11-4 14v46c3 4 4 9 4 15s-1 11-4 14v46c3 3 4 9 4 15 0 7-2 13-5 16-3-3-5-9-5-16 0-6 1-12 4-15v-46zm-413 636c4-5 7-8 7-11s-2-7-6-12l2-3 13 14 13 13-3 3c-4-4-8-6-11-6-2 0-6 2-11 7l-53 49c-1 7-1 11-1 13 0 3 1 4 2 6l-3 3-11-13-12-12 12-89-36 34c-4 4-7 8-7 10 0 3 2 7 6 12l-3 3-12-13-12-13 3-3c4 4 7 6 9 5 3 0 7-2 11-6l67-63 2 2 1 1-15 113 48-44zm-72-91l-63 44c-4 3-6 5-6 8 0 2 1 6 5 11l-4 3-16-23-16-23 4-3c3 5 7 8 9 9 2 0 5-1 9-3l63-44c4-3 6-5 6-8 0-2-2-6-5-12l3-2 16 23 17 23-4 2c-4-4-7-7-9-8s-6 0-9 3zm-109-23c-3 4-5 7-6 9s-1 5 1 9l-4 1-11-24-11-25 4-2c3 7 5 10 7 11s5-1 9-5l45-46-57 2c-9 1-14 2-15 4-2 3-1 7 2 14l-4 2-7-16-7-16 4-1c2 3 3 5 6 6 2 1 5 1 11 1l102-4 1 2 1 2-71 76zm41-133l-4 1c-2-6-4-9-5-11-2-1-6-1-10 0l-74 17c-5 1-8 3-9 5s-1 6 0 11l-4 1-9-39-12-51 16-4 15-3 1 3c-9 4-15 8-18 14s-3 15 0 25l1 7c1 3 2 5 3 6 2 1 4 1 7 0l36-8-1-3c-1-7-4-12-9-15-4-2-11-3-19-2l-1-4 26-6 26-7 1 5c-8 3-14 6-17 11-3 4-3 10-2 17l1 3 38-9c3-1 5-2 6-4s1-4 1-7l-1-4c-3-11-7-19-12-24-6-6-14-10-25-11l-1-5h17l17-1 12 53 9 39zm-43-124l-76 2c-5 0-8 1-10 3-1 1-2 5-2 11h-4l-1-27v-25c0-15 2-26 6-34 5-8 12-11 21-12 10 0 18 4 23 12 2 4 4 8 6 13l35-26c5-4 9-7 10-8 2-2 3-4 3-6h4v33l-50 34 1 5 33-1c5 0 8-1 10-2 1-2 2-6 3-12h4v27l1 27h-4c-1-5-2-9-4-11-1-2-4-3-9-3zm-40-25v-6c0-9-2-15-6-18-4-4-10-5-19-5-8 0-14 2-18 5-3 3-5 9-5 16v1c0 3 1 5 2 6s4 2 7 2l39-1zm-12-159c-10 1-17 4-23 9-7 5-10 11-11 17s0 10 2 14c3 3 6 6 11 6 4 1 8 0 12-3s8-9 13-17c7-11 14-19 20-24 6-4 13-6 21-5 11 2 19 6 24 14s7 18 5 31c-1 6-3 14-8 22-1 2-1 4-1 5 0 2 1 3 3 4h2l-1 5-39-5v-5c11 0 20-3 27-8s11-12 12-20c1-6 0-11-3-15s-7-7-13-8c-4 0-8 1-12 4-3 3-8 9-13 18-7 10-13 18-19 22-7 4-14 5-22 4-9-1-16-5-21-13-5-7-7-16-5-26 1-6 3-12 7-19 2-3 2-5 2-7 0-1-1-3-4-4l-1-1 1-4 34 4v5zm68-30l-73-21c-5-2-8-2-10 0-2 1-4 5-6 11l-4-1 8-27 7-27 4 1c-1 6-1 10 0 12s3 4 8 6l73 21c5 1 8 1 10-1 2-1 4-5 6-10l4 1-8 27-8 27-3-2c1-6 1-10 0-12s-4-4-8-5zm28-85l-79-37v1c-4 8-5 16-4 22 2 6 7 11 16 16l-2 5-15-7-14-7 20-44 20-44 15 7 15 7-2 4c-10-3-17-3-23-1-6 3-11 8-15 17l79 37c5 2 8 3 10 2s5-5 8-11l4 2-12 26-13 26-3-1c2-7 3-11 3-13-1-3-3-5-8-7zm39-79l-54-87 1-2 2-2 99 24c6 1 9 2 12 1 2 0 4-2 7-5l3 3-16 21-15 21-3-2c4-6 5-10 5-12s-3-4-8-5l-16-4-21 29 5 8c4 7 8 10 10 11 3 0 7-3 11-9l4 2-10 14-11 14-3-2c2-3 3-6 3-8 0-3-2-6-5-10zm-30-61l22 35 18-25-40-10zm107-120c-8-5-16-8-24-8s-14 2-19 7c-4 4-6 8-7 12 0 4 1 8 5 12 3 3 6 5 11 5s12-2 21-5c12-5 22-7 30-6 8 0 15 4 20 9 7 8 10 17 9 26-1 10-6 19-15 27-4 5-11 9-20 12-2 1-4 3-4 4-1 1-1 3 0 5l1 1-4 3-27-29 4-3c8 6 17 10 25 10 9 1 16-2 22-7 5-5 7-9 8-14 0-5-2-10-5-14-3-3-7-5-12-5s-12 2-22 6c-11 4-21 5-28 5-8-1-14-4-20-10-6-7-9-15-9-24 1-8 6-16 14-24 4-4 9-7 17-10 3-1 5-2 6-4 0-1 0-3-1-5v-2l3-3 24 26-3 3zm106-13c3 5 6 8 9 9s7 0 13-3l2 3-16 9-16 9-2-3c5-3 7-6 8-9 0-2-1-6-4-12l-35-64c-6-2-10-3-12-4-3 0-5 0-6 1l-2-4 15-8 14-8 83 33-23-43c-3-6-6-9-9-10-3 0-7 1-13 4l-2-4 16-9 15-8 2 3c-4 3-7 6-7 8-1 3 1 7 4 12l44 81-2 1-2 1-105-42 31 57zm96-32l-1-3c5-3 9-5 10-7s1-5 0-10l-24-72c-1-5-3-7-5-8-3-1-7-1-12 1l-1-4 38-13 50-16 5 15 5 16-4 1c-4-9-9-14-15-17-7-2-15-2-25 2l-7 2c-3 1-4 2-5 4-1 1-1 3 0 6l11 35h3c7-3 12-6 14-11 2-4 2-11 1-19l4-2 8 26 9 26-4 1c-4-8-8-14-13-16-5-3-10-3-17 0h-3l12 37c1 3 2 5 4 6s5 1 8 0l3-1c11-3 19-8 24-14 5-7 7-15 8-26l5-1 2 16 2 17-52 17-38 12zm166-39c-17 2-32-2-44-11s-19-21-21-38 1-31 11-43c9-12 22-19 39-21 6-1 15 0 24 2 5 2 8 2 9 1 2-1 3-3 4-6v-2h5l4 37-4 1c-5-10-11-17-18-22-8-5-15-7-22-6-10 1-17 6-21 16-4 9-5 22-3 40 2 16 6 29 12 37 7 7 15 11 25 9 3 0 7-1 10-2 2-1 4-2 5-4s1-4 1-6l-2-17c-1-5-2-8-5-9-2-1-6-2-13-1l-1-4 28-4 27-3 1 4c-6 1-9 3-11 5-2 1-2 5-1 9l2 23c-11 8-25 13-41 15zm66-8v-4c6 0 10-1 12-2s3-5 3-9l5-76c1-5 0-8-2-10-1-2-5-3-11-4v-4l40 3 53 4-1 16-1 16h-4c-1-10-3-17-8-21-5-5-13-8-24-8l-7-1c-3 0-5 0-6 2-2 1-2 3-3 6l-2 37h3c7 0 13-1 16-5 4-3 7-9 9-17h4l-2 27-2 27h-4c-1-9-2-16-6-20-3-4-8-6-16-7h-2l-3 38c0 4 0 6 2 8 1 1 3 2 7 2l3 1c11 0 21-1 27-5 7-4 13-11 18-20h4l-4 16-4 17-54-4-40-3zm129-3l20-74c1-4 1-8 0-10-2-2-5-3-11-5l1-4 27 7 24 6c14 4 24 9 31 16 6 7 8 14 5 23-2 10-8 16-17 19-5 1-9 2-14 2l15 41c2 6 4 10 5 12s3 3 5 4l-1 4-5-1-27-8-19-57-5-1-9 33c-1 4-1 7 0 9 2 2 5 4 11 6l-1 4-26-7-27-7 1-4c6 1 10 1 12 0s4-4 5-8zm35-31l7 1c8 2 14 2 19-1 4-2 7-8 10-17 2-7 2-13-1-18-2-4-6-7-13-9h-1c-3-1-5-1-7 0-1 1-2 2-3 5l-11 39zm79 70l31-70c2-4 2-7 1-10-1-2-4-4-10-7l2-4 26 12 25 11-1 4c-6-3-10-3-13-3-2 1-4 4-6 8l-31 69c-2 5-3 8-1 10 1 2 4 5 10 8l-2 3-26-11-25-11 1-4c6 2 10 3 13 2 2 0 4-3 6-7zm134 48l10-58c1-5 1-8 0-10s-2-5-5-7l3-3 21 16 21 17-2 3c-6-4-10-6-12-5-2 0-3 3-4 9l-8 43 35-14c8-3 13-6 13-8 1-3-2-7-8-12l2-3 14 11 14 11-2 3c-3-2-5-3-7-3s-6 1-11 3l-50 19-19 25c-3 3-5 7-4 9s3 6 8 10l-3 3-22-17-22-18 3-3c5 4 9 5 11 5s5-2 8-5l16-21zm71 129c-11-12-16-26-15-41 0-15 7-28 20-39 12-11 26-16 42-15 15 1 28 8 39 20 11 13 16 27 14 42-1 15-8 28-21 39-12 11-26 16-41 15s-27-8-38-21zm4-3c6 7 14 9 23 7 10-2 21-8 34-19 13-12 21-22 25-31 3-10 2-18-4-25s-14-10-24-8c-10 3-21 9-35 21-12 11-20 21-24 30-3 9-2 18 5 25zm67 111c-8-16-10-30-6-45s14-26 28-33c15-8 30-10 45-6 14 4 26 14 34 29 3 6 5 14 6 24 0 4 1 7 3 9 1 1 3 1 7 1h1l2 4-33 17-2-3c7-8 11-17 13-26 3-8 2-16-1-22-5-9-13-14-23-14s-23 3-38 12c-15 8-25 16-30 24-5 9-5 18-1 27 2 3 4 6 6 8s3 3 6 3c2 1 4 0 6-1l15-8c4-2 6-5 7-7 0-3-1-7-4-13l4-2 13 24 12 25-3 2c-3-5-6-8-8-9-3 0-6 0-9 2l-21 11c-11-7-21-19-29-33zm85 87l42-41c3-4 5-6 6-9v-8l4-1 7 26 7 26-3 1c-3-7-5-10-6-11-2-1-5 0-9 4l-32 31 36 9c9 3 14 3 16 1s2-6 0-14l4-1 5 17 5 17-4 1c-1-3-2-5-4-6-2-2-5-3-10-5l-52-14-30 9c-5 1-8 3-9 6-1 2-1 6 1 12l-4 1-8-27-8-27 4-1c2 6 4 10 6 11s6 1 10 0l26-7zm-7 96l97 30 1 2v3l-91 47c-5 3-8 5-9 7-2 2-2 4-2 8h-4l-3-26-2-26h4c1 7 2 11 4 12 2 2 5 1 9-1l15-8-3-36-9-2c-8-3-13-3-15-2-3 2-3 7-3 14l-4 1-1-18-2-17h4c1 3 2 6 4 8 1 1 5 3 10 4zm62 26l-39-12 2 31 37-19zm-58 101l75 9c5 1 8 0 10-1 2-2 3-6 4-11h4l-3 27-3 27-4-1c0-5 0-9-2-11-1-2-4-4-9-4l-37-5 27 34c6 8 11 13 13 12 3 0 5-4 6-13l4 1-3 23-3 23-4-1c1-5 0-10-1-14-1-5-4-9-7-14l-22-28-56 35c-5 4-9 7-11 8-2 2-3 5-3 7h-4l3-27 3-28 4 1c0 6 0 10 1 12 1 1 3 1 7-1l42-25-4-6-30-3c-5-1-8 0-10 1-2 2-3 5-4 11h-4l3-27 3-27h4c0 6 0 10 2 12 1 2 4 3 9 4zm-23 126l75 70-1 2-1 2-102 3c-6 0-9 1-11 2s-4 3-6 6l-3-1 9-25 9-24 4 1c-2 7-3 11-2 13s4 3 9 3l17-1 13-33-7-6c-6-6-11-9-13-8-3 0-6 4-9 11l-4-1 7-16 6-17 4 2c-2 3-2 6-1 8 1 3 3 5 7 9zm45 51l-30-28-11 28 41-1v1zm-94 64l64 41c4 2 8 3 10 3 2-1 5-4 8-9l4 2-15 23-13 22c-8 12-16 21-24 24-8 4-16 4-24-1s-12-13-12-22c0-5 0-9 2-14l-45 2c-6 1-10 1-12 2s-4 2-5 4l-4-3 3-4 15-24 60-1 3-5-29-18c-4-2-7-3-9-2-3 0-6 3-9 8l-3-2 14-23 14-23 4 2c-3 5-4 9-4 11 1 2 3 5 7 7zm19 43l-3 6c-5 7-6 13-5 18s6 10 14 15c6 4 12 6 17 5s9-4 13-10v-1c2-3 3-5 2-7 0-1-2-3-4-5l-34-21zm-104 74l64 60 1-1c6-7 9-14 10-20 0-6-4-13-10-20l4-4 11 11 12 11-33 36-33 35-12-11-12-11 4-4c8 6 15 9 21 8 6 0 12-4 19-11l-64-60c-3-3-6-5-8-4-3 0-7 3-11 7l-3-3 19-21 20-21 3 3c-4 5-6 9-7 11 0 3 2 6 5 9zm-63 60l25 99-2 1-2 2-88-54c-4-2-8-4-10-4s-5 0-8 2l-2-3 21-15 21-16 2 3c-5 5-8 8-8 10-1 2 1 5 6 8l14 8 29-21-2-9c-2-8-5-12-7-14-3-1-7 1-13 5l-3-3 14-10 14-10 3 3c-3 2-5 5-5 7-1 2-1 6 1 11zm10 67l-10-40-25 18 35 22z"/>
</svg>
