<svg xmlns="http://www.w3.org/2000/svg" width="284.2" height="137.3">
  <path fill="#FFF" fill-rule="evenodd" d="M166.9 129c.4-1.6 3.3-7.2 4.4-9.5 1.2-2.7.7-2.8 2.8-2.7.4 1.9.6 4.2.9 6.1l.6 4.4c.2 1.2.2 1.2-.2 1.7-1.2-.1-1 .3-1.4-3.5h-4.2c-.2.9-.6 1.4-.9 2.2-.6 1.3-.3 1.3-2 1.3zm-142.1-3.2c-1.6 5.5-8.3 4.2-6.4-2.5 1.6-5.7 8.2-3.9 6.4 2.5zm19.8-5.7l-1 8c-.4 1.2.1.5-.7.9-.6-.3-.3.1-.6-.9l-.1-.4c-1.1 2-4.6 2.4-4.2-1.3l.9-5.6c.3-1 .2-.7 1.3-.7 0 1.8-2.5 9.2.8 7.6 1.7-.8 2.1-3.8 2.4-5.8.2-1.4-.1-1.7 1.2-1.8zm98.7 2.5c.9-3.7 4.8-2.9 5.6-1.8.8 1.1 0 4.7-.3 7.1l-.3 1.1c-1.4-.1-.6.1-1.1-1-3.9 4-6.8-2.9-2.8-4 1.2-.4 5.2 0 3.5-2.3-.5-.7-1.8-.6-2.4-.2-1.4.8 0 1.3-2.2 1.1zm-17.1 3.3c.8 1.4.6 3 3.4 1.8 1.3-3.6-4.2-1.8-3.3-5.9.3-1.3 1.5-2 3.1-1.8.7.1 1.3.4 1.6.8 0 0 .5.7.5.8.4 1.3 0 .9-.2 1.2-2.1 0-.1-1.1-1.9-1.6-1.1-.3-2.3.3-1.9 1.4.4 1.3 3.3 1.2 3.6 3.5.5 3.6-4.3 4.1-5.6 1.7-.7-1.4-.6-1.8.7-1.9zm-3.6 3.1c-.8-.1-1 .7-.4-2l.9-5.3c.2-1.6-.1-1.6 1.4-1.6l-1.2 8c-.4 1.5.2.5-.7.9zm-14.8-6.4c.4-1.1.9-2 2-2.4 1.3-.5 3.1-.1 3.7.6.7 1 .3 2.8.1 4.1-.3 1.5-.2 2.7-.4 4.1-1.3 0-.9-.3-1.7-.9-1 1.8-4.7 1.6-4.4-1.8.2-2.9 3.1-2.3 5.5-2.8v-1.8c-.7-.4-1.7-.8-2.7-.2-1.3.7.1 1.5-2.1 1.1zm-15.7 0c1.1-4 4.9-2.7 5.6-1.7.9 1.2-.1 4.2-.3 7l-.2 1.1c-1 0-.5 0-.8-.2l-.6-.5-.1-.1c-3.4 3.8-6.6-3.2-2.3-4.2.8-.2 2.2-.1 2.8-.3 1.9-.7-.1-3.5-2.1-2.1-1.3.8.3 1.2-2 1zm-30.7 0c1.1-4 4.9-2.7 5.6-1.7 1 1.3 0 3.9-.2 5.8l-.1 1.6c-.1.8 0 .3-.2.6-1.4 0-.8.3-1.1-.9-1.2.6-2.8 2.2-4.3.2-1.2-1.7-.1-3.8 1.4-4.3 1.2-.4 5 0 3.5-2.2-.5-.7-1.8-.7-2.4-.3-1.6.8.2 1.4-2.2 1.2zM26.2 129c1.3-.1 1-.4 1.2-1.8.3-1.9.6-5.1 2.1-5.8 2.7-1.3 1.5 2.7 1 5.3l-.1 2.1s0 .1.1.2c1.3-.1 1-.8 1.3-2.2.1-.9.3-1.7.5-2.6.3-1.3 1.5-3.9 3-2.6 1.1 1.1-1.3 6.2-.4 7.5 1.3-.1 1-.4 1.2-1.8l.8-5c.1-3-2.8-2.8-4.1-.7-.6-.8-.7-1.6-2.1-1.5-1.1.1-1.7.8-2 1.4l-.1-.7c-.3-.7.3-.2-.5-.6-.7.3-.5-.5-.9 2.1l-.8 4.5c-.2 1-.3 1.1-.1 1.9l-.1.3zm176.4-7.5c1.3-1.9 4.6-2.6 4.3 1.2l-.9 5.3c-.3 1.4 0 1-1.5 1 .3-2.2 1.3-5.7.9-7.6-2-.5-3 .9-3.5 2.7-1.3 5.1 0 4.9-1.9 5-.3-.8.3-3.4.5-4.4.2-1.1.4-3.8 1-4.5h.7c.5.7-.2.8.4 1.3zm-11.9-.1c2.8-3.2 4.1-.2 4.2 0 1.2-1.2 1.6-1.7 3.7-1.2.9 1.7.4 2.8 0 4.8-.1.7-.3 1.5-.4 2.2-.2 1.5.1 1.7-1.2 1.7-.7-1.3 1.5-6.6.5-7.6-1.8-1.1-2.7 1.2-3 2.7-1 4.9-.2 4.8-1.8 4.8l-.2-.6c-.1-1.4 1.5-6.2.7-7-1.7-.9-2.7 1.3-3.1 2.7l-.7 4.1c-.4 1 .3.7-1.1.7-.2-.3-.1 0-.2-.6v-.6l1.1-6.2c.2-1.4 0-1.5 1.3-1.5.4.8.2.8.2 1.6zm-5.9 6.3c-1 1.8-4.6 2.6-4.2-1.5.1-1.2.4-2.4.6-3.5.1-.5.2-1.4.3-1.9.3-1 .1-.8 1.3-.8.1 2.4-1.3 5.4-.8 7.7 3.9.7 3.5-4.5 4.3-7.6h1.2l-1.3 8.1c-.2.6 0 1.1-.9.7-.6-.3-.2 0-.5-.8v-.4zm-69.6-1.8c-.4.5-.2-.1-.2.8-.2 3.7 7.4 3 5.7-1.2-.8-1.9-3.4-1.8-3.6-3.2-.1-1 .7-1.5 1.8-1.3 1 .2.9.7 1.3 1.6 1.1 0 1.3.1 1-1.1-.8-2.5-4.2-2.2-5-.4-1.9 3.8 4.6 3.5 3.1 6.2-.6.7-1.8.9-2.6.1-1.2-1 .4-1.5-1.5-1.5zm-46.6 0c2-.1.4.5 1.5 1.6.7.7 1.8.4 2.7.2 1.2-3.6-3.9-2-3.4-5.8.4-3.1 5.5-2.6 5.3.2 0 .5 0 .3-.1.6-2.2.1-.2-.8-1.9-1.5-.9-.4-1.9.1-2 .8-.3 1.5 2.5 1.8 3.4 3.2 2.2 3.7-4.3 5.6-5.4 2.3 0-.1-.1-.6-.1-.8-.1-.6-.5.2 0-.8zM53.8 129c-.3-.4-.5 0-.1-2.1l1.2-6.7 1.1-.1c-.1 1.3-.5 3.2-.7 4.6-.8 4.9-.3 4.1-1.5 4.3zm154.3 0c0-.1-.1-.2-.1-.2l.1-2c.1-.7.3-1.5.4-2.3.2-1.4.5-3.3.8-4.4h1.1c0 1.2-.5 3.4-.7 4.6-.7 3.8-.2 4.2-1.6 4.3zm-75.1-7.4c-.1 1.3.1 2.6.2 3.9.1 1.3 0 3.2.7 3.5 1.3 0 1 0 1.5-1.3l2.1-5.5c.1 1.2.1 2.6.2 3.8.1 1.8-.2 2.8.6 3 1.3-.1 1.1-.6 1.6-1.9.6-1.6 2.6-6 2.7-7-1.3 0-1.1-.1-1.6 1.2-.3.7-.5 1.2-.7 1.9-.5 1.2-1 2.4-1.4 3.7l-.4-6.8h-1.3c-1 2.1-1.7 4.6-2.6 6.9l-.3-5.1-.3-1.6c-.2-.2.1-.1-.5-.3-.3-.1-.4 0-.7 0-.1.9-.2 1 .2 1.6zm-84.8-.2c1.1-1.8 4.5-2.4 4.3 1l-.8 5.3c-.2 1.4 0 1.1-1 1.3-1.4-.3 1.5-6.4.2-7.6-1.8-1.1-2.9 1.3-3.3 2.7-1.1 4.6 0 4.7-1.8 4.8-.2-.4-.1 0-.2-.6l1.1-6.8c.2-1.4.1-1.6 1.4-1.4-.1.7-.3.8.1 1.3zm111 .8c.2.5.4 1 .7 1.5l.4.8.8.9c.1-.3.1-.5.4-.9 0 0 .1-.1.1-.2l.4-.5.9.6c-.2.9-.8 1.6-1.1 2.3.4.8.6.8 1 1.7l-1 .8-.9-1.4c-1.1.4-1.5 1.4-3.2 1.3-1.4-.1-2.1-.9-2.6-1.9-1.2-3.1 1-4.4 2.3-5.7-.3-1.3-.8-2.2-.1-3.7 1.2-2.7 5.3-1.5 4.2 1.8-.4 1.5-1.3 1.9-2.3 2.6zm-99.8-2.4l.4-2.7c-1.6.6-1.5 1-1.7 3-.7 0-1-.2-1.2.5-.2.8.2.6.9.6-.2 2.3-1.3 5.4-.8 7.5.8.3 1.2.5 2.2.2.2-1.9.1-.7-1.2-1.4l1.1-6.2c.9-.3 1.1.2 1.3-.7.2-1-.7-.4-.8-.9 0 .1-.1.1-.2.1zm150.3-1.4c0-.8-.1-1.4.6-1.7h.7c0 1.5 0 1.8-1.3 1.7zm23.1 10.6c-1.3 0-.7.6-1.7-2l-2.8-8.1-1.6 9.5c-.4.9.3.6-1.2.6l-.1-.4c-.1-1.1 1.3-8.1 1.5-9.6.3-1.9-.2-2.3 1.7-2.3l3.6 9.7s.1.1.1.2c.2-1.9.5-3.6.9-5.4.8-4.5.2-4.5 2-4.5.1 1.5-.7 4.6-.9 6.2l-1 5.5c-.3.6 0 .3-.5.6zm-55.8 0l1.7-10.1c.3-1.8-.1-2.2 1.5-2.2l-1.8 11.5c-.4 1.2.1.7-1.4.8zm-89.2 0c1.5 0 1.2.4 1.5-.8l1.8-11.5h-1.6l-4.9 10.7-1.4-10.7h-1.5c-.5 1.9-.8 4.1-1.1 6.1-.2 1-.4 2-.5 3.1-.2.9-.7 2.3-.1 3.1 1.4-.1.7.3 1.1-.7l1.4-9c.5 2.2.9 8.7 1.6 9.7 1.6 0 1.3-.5 1.9-1.8.7-1.5 2.8-6.2 3.5-6.9l-1.7 8.7zm1.7-8.7c.2-.3-.2-1.1-.1-.4 0 .1-.1.7.1.4zm127.7-3.6h1.2c.1 3.2-3.7 11.9 1.4 11.1 3.1-.5 3.1-8 3.9-11.1h1.2c-.1 1.9-.8 5.4-1.2 7.4-.5 2.5-1.4 4.7-3.9 5-3.1.3-4.4-1.8-4-4.8.3-2 .9-5.8 1.4-7.6zm-92.2 1.7h-1.2c.2-1.6-.1-1.8 1.4-1.7l-.2 1.7zm-23.3 2.7l.7-4.4-1.2.1c-.2.8-2.3 11.2-1.8 12.2 1.7-.1.6.3 1.8-4.8.4-1.7 1.4-3.6 3.3-2.8.7.5.1 2.7-.1 3.7-.2 1.3-.5 2.6-.7 3.9h1.3c.3-2.6 3.5-12.7-3.3-7.9zm-46.3-2.7c-.3-.6-.3-.4.1-1.7h1.1c0 2.3-.4 1.7-1.2 1.7zM239.8 129h-.9c.3-3.2 1.3-3.6 0-6.6-.5-1.2-2.1-4.5-2.2-5.6h1.2l2.6 5.9c.7-1.3 1.4-2.3 2.1-3.5.4-.6.7-1.2 1.1-1.8.7-.9.7-.7 2-.7-.8 1.6-2.4 4-3.4 5.6-2.8 4.3-1.2 5.8-2.5 6.7zm-225.9-7.3l4.5-4.9c-2.5-.2-2.4.8-4 2.3-1.6 1.4-1.9 2.6-3.2 3.2l.8-5.5h-1.2L8.6 129H10c.5-3.9.6-4 2.7-6.1.9 1 2 4.2 2.6 5.3.6 1 .5.8 1.9.7l-3.3-7.2zM7 108.5c-.7-3 2.3-2.8 4.7-2.8h55.4c21 0 42.2.3 63.1 0s42.2 0 63.1 0h55.4c2.3 0 5.6-.6 6.2 1.7.7 3-2.4 2.9-4.7 2.8h-55.4c-21 0-42.2-.3-63.1 0-10.4.2-21 0-31.4 0H13.2c-2.4 0-5.7.6-6.2-1.7zm248-10.7c-1.9-.2-5.9.2-5.9-5V82.5c0-8.6 3.4-7.4 13.7-8l10.1-.6c3.8-.3 6.2 1 6.2 4.7v12.5c0 3.4-2 5.2-5.3 5.4-3.5.3-7 .4-10.6.6-2.4.1-5.4 2.3-7.4 3.3-2.4 1.2-5.1 2.9-7.3 3.8.7-.9 6-6.1 6.5-6.4zm-49.1-24.1h6v28.5l-6 .1V73.7zm-35.2 22.9h4.9v-23h6v24c-.1 1.3 0 .3-.4.6.1.5.2.3-.3.2.1.4.2.3-.3.2.1.4.2.3-.3.4-.2.5-2 1.9-2.6 2.5-1.3 1.1-2.7.7-4.9.7-2.3 0-3.4.4-4.7-.9-.8-.8-2.4-1.7-2.7-2.6-.5-.1-.4 0-.3-.4-.4.1-.4.2-.3-.2-.4-.2-.3.6-.4-.6V73.6l6-.1.3 23.1zm-58.3 1.9c-.8.4-2.6 2-3.3 2.7-1.7 1.6-2.1 1.1-5.1 1.1-3.1 0-3.1.4-5-1-1.2-.9-2.1-2.1-3.4-2.8-.3-5.3 0-11.2 0-16.6 0-4.7-.6-3.7 2.2-6 3-2.5 1.1-2.2 6.2-2.2 4 0 4 0 6.2 2 2.9 2.6 2.3 1 2.3 6.2-.1 5.3.1 11.2-.1 16.6zM8.6 73.7h5.9v23h5v-23h5.9l.1 24.8c-1.1.6-2.4 1.7-3.4 2.7-1.8 1.6-2.1 1.1-5.1 1.1-3 0-3.2.4-5-1-.5-.4-3.1-2.5-3.3-3-.3-.7-.2-22.3-.1-24.6zm137.2 28.6H140V73.8l6.9-.1 3.9 14.7c.7-.8.9-2.3 1.2-3.6l3-11.1h6.8v28.5l-5.7.1V87.4l-4.3 14.9h-2c-.6-2.4-1.3-5-2-7.5l-2.1-7.5.1 15zm-18.8-.1h-1.9l-4-14.7c-.3 5.4-.2 9.3-.2 14.7l-5.8.1V73.7h6.9l4 15c.7-1.4 2.5-9.1 3.2-11.5 1.2-4.3-.6-3.5 7.8-3.5v28.6h-5.7v-15c-.4 1.6-3.8 14.1-4.3 14.9zm63.3.1h-6V73.8c9.2 0 6.3-1.7 9.8 7.9 1 2.7 1.8 5.4 2.8 8.1l.1-16h5.9v28.5l-7.1.1-5.4-16-.1 15.9zm-156.1 0h-6V73.7h7c.3.8 4.8 14.7 5.6 15.6V73.8l5.9-.1.1 28.6h-7.1c-1.6-5.1-3.7-11.2-5.6-16l.1 16zm179.5-28.5l16.8-.1c.3 7.6.5 5.5-5.5 5.6v22.9h-5.9V79.3c-6.2 0-5.7 1.5-5.4-5.5zM82.3 96.7h5v-3.3h6v3.1c0 2.3 0 1.7-2.4 3.8-.6.5-1.1 1-1.7 1.4-1.2.9-3.9.5-5.8.5-3.4 0-3.6-.7-6.4-3.3-.9-.8-.8-.9-.8-2.3 0-3.1-.2-18.3.1-19.1.6-.8 2.5-2.1 3.3-2.9 1.6-1.5 2.4-1 5.2-1 3.3 0 3.1-.4 5.1 1.2.9.7 2.6 2.2 3.3 2.9v4.8l-6 .1v-3.3h-4.9v17.4zm148.7-23c.2 1.5 1.6 4.9 2.1 6.6 4.6 13.8 3.6 7.7 3.8 22l5.9-.1c.2-13.8-.8-8.6 3.9-22.1.6-1.7 1.8-4.7 2-6.4h-5.4c-1 3.4-2.2 8-3.5 11.2l-3.4-11.2H231zM60.2 102.2l-5.9.1v-8.4c0-5.4-5.1-15.2-5.9-20.1h5.4L57.2 85l3.5-11.2h5.4c-.3 1.7-1.5 4.7-2 6.4-4.7 13.8-3.7 7.5-3.9 22zm52-50.6c1.4-1.5 3.3-4.9 4.2-7.5l7.5 2c-.7 3.1-4.6 9.8-6.3 10.9l-5.4-5.4zM78.9 41.3V25l5.3.1c-.2 1.2-.2 18.1.1 19.1l4 .1V25.9c.2-1.1-.2-.4.5-.7h4.8l.4 1.2v15.1c0 2.9.4 4.3-.8 4.9l-.3.2-.3.2-.2.3-.4.3c-2 1-.8 1.7-3.9 1.8h-3.4c-1.5-.1-1.4.1-2.3-.7-.6-.5-1.1-1-1.7-1.5l-.3-.2-.3-.2c-1.2-.6-1-.4-1-2.2-.2-1.2-.2-2.2-.2-3.1zm-8.7 34.4c.9.1 12.9-6.1 15.3-7.3 4.3-2.2 9.4 1.4 19.8-2.5 3.6-1.4 7.3-3.9 9.4-5.9-.5-1-4.4-4.5-5.4-5.5-2.6 1.5-2.6 2.5-7.2 4.3-4.7 1.8-10.1 2-15.1.6-2.4-.7-2.4.2-4 1.3-2.3 1.6-4.6 3.3-6.7 4.8-.2-4.5 2.4-10 1.1-11.4-.5-.5-.9-.9-1.5-1.4-1-1.1-1.6-1.8-2.5-3-4.5-6.2-4.4-11.2-4.1-17.9l-7.3-2c-1.2 2.6-.7 9.5-.1 12.4 1.1 4.9 4 10.3 6.8 14 1.2 1.6.9 3.5 1 6 .1 4.6.3 9.1.5 13.5zm54.6-46.2c.3 1.6 1.7 12.2-.5 12.4h-.2l-6.7-1.7c0-1.2.3-2.9.2-4.4 0-1.4-.3-3.1-.3-4.3l7.5-2zm-23.4 14.9l2-.1h1.8c.5-.5.3-1.8.3-2.8h4.2l1 .3v3.9c-.6.5-.9.8-1.6 1.2-.5.5-1.1 1-1.8 1.5l-.1.2c-.4.1-.3 0-.4.3-1.5.1-6.1.5-7.1-.3l-.2-.2c-.7-.5-3.2-2.5-3.5-3.2V28.6l.9-.7.3-.2.3-.2c.5-.7 1.6-1.6 2.3-2.2l.2-.2c1.2-.4 2.8-.1 4.2-.2 2 0 2.2-.3 3.4.7l.3.2c1 .7 2.1 1.7 3.1 2.4v3.9c-.4.3.1.2-.8.3h-4.3l.1-2.6h-4.2l-.4 14.6zM62.9 25.9c.8-3.3 4.4-9.3 6.2-10.8.8.4 5 4.4 5.4 5.3-.4.7-.8 1.1-1.2 1.7-1 1.6-2.4 4-2.9 5.9l-7.5-2.1zm49-5.9c1.4-1.2 4.2-4.6 5.4-5.3 1.8 2 5.5 7.2 6.3 10.8-1 .7-5.7 1.8-7.2 2.1-.5-.6-1.5-3-2.1-4.1-.8-1.3-1.9-2.5-2.4-3.5zM72 12c.4.9 4.6 4.9 5.5 5.5 1.2-.8 2-1.6 3.4-2.5.9-.5 3.4-1.6 3.9-2l-2-7.2c-4 .7-8.3 4.4-10.8 6.2zm31.4-6.4l-2 7.4c3.1 1 5.5 2.7 7.6 4.2l5.3-5.4c-1-1.6-7.9-5.6-10.9-6.2zM86.8 4.5c4-.6 6.6-.9 10.7-.4 2.6.3 2.2-.1 0 7.7-1.2.1-3-.3-4.4-.3-1.5 0-3 .3-4.3.4l-2-7.4zM0 137.3h284.2V0H0v137.3z" clip-rule="evenodd"/>
  <path fill="#0086BE" fill-rule="evenodd" d="M194.9 110.2h55.4c2.3 0 5.5.2 4.7-2.8-.6-2.3-3.9-1.7-6.2-1.7h-55.4c-21 0-42.2-.3-63.1 0-21 .3-42.1 0-63.1 0H11.8c-2.4 0-5.4-.2-4.7 2.8.5 2.3 3.8 1.7 6.2 1.7h87.1c10.4 0 21.1.2 31.4 0 20.9-.3 42.1 0 63.1 0zM70.2 75.7c.9.1 12.9-6.1 15.3-7.3 4.3-2.2 9.4 1.4 19.8-2.5 3.6-1.4 7.3-3.9 9.4-5.9-.5-1-4.4-4.5-5.4-5.5-2.6 1.5-2.6 2.5-7.2 4.3-4.7 1.8-10.1 2-15.1.6-2.4-.7-2.4.2-4 1.3-2.3 1.6-4.6 3.3-6.7 4.8-.2-4.5 2.4-10 1.1-11.4-.5-.5-.9-.9-1.5-1.4-1-1.1-1.6-1.8-2.5-3-4.5-6.2-4.4-11.2-4.1-17.9l-7.3-2c-1.2 2.6-.7 9.5-.1 12.4 1.1 4.9 4 10.3 6.8 14 1.2 1.6.9 3.5 1 6 .1 4.6.3 9.1.5 13.5zm182 15.3c-.4-1.5.4-2.8 1.5-1.7.7.7.2 2.2-1.5 1.7zm18.3-3.7c.5-.6 1.5-3.4 1.8-4.3.3-.7.6-1.8 1-2.1 1-.6.9.9.9 1.7v6.2c0 1.7-1.1 1.6-1.3.2-.1-.8 0-2.6 0-3.5l-.8 1.4c-.7 1.8-.8 3-2 3.3-.9-1.1-1.2-3.4-2.2-4.3 0 3.6.4 4.4-1.3 4.5l-.2-3.2c-.6 1.8-1.3 3.8-3.7 3.4-3.6-.6-3.3-8.3.1-9.1 2.2-.6 3.1 1.4 3.7 3 .2-1.6-.4-2.8.8-3.4.8.3.6.5 1 1.4.5 1.1 1.7 4.2 2.2 4.8zm-11.1.7c-.9.5-1.2 1.7-2.8 1.2-1.8-.6-1.8-4.9 0-5.8 2-.9 1.7.9 3.2.8 1.5-3-5.9-4.5-5.9 2.2 0 7.4 8.4 3.7 5.5 1.6zm-4.4 9.8c-.4.3-5.7 5.5-6.4 6.6 2.2-.9 4.9-2.6 7.3-3.8 2-1.1 5-3.2 7.4-3.3l10.6-.6c3.3-.2 5.3-2 5.3-5.4V78.7c0-3.8-2.4-5-6.2-4.7l-10.1.6c-10.3.6-13.7-.6-13.7 8v10.3c-.1 5.2 3.8 4.8 5.8 4.9zM145.8 87.2l2.1 7.5c.7 2.5 1.5 5.1 2 7.5h2l4.3-14.9v14.9l5.7-.1V73.6h-6.8l-3 11.1c-.4 1.3-.5 2.8-1.2 3.6L147 73.6l-6.9.1v28.5h5.8l-.1-15zm-18.8 15c.5-.8 4-13.3 4.4-15v15h5.7V73.6c-8.4 0-6.5-.8-7.8 3.5-.7 2.5-2.5 10.2-3.2 11.5l-4-15h-6.9v28.6l5.8-.1c0-5.4-.1-9.3.2-14.7l4 14.7 1.8.1zm63.5-15.9l5.4 16 7.1-.1V73.7h-5.9l-.1 16c-1-2.6-1.8-5.4-2.8-8.1-3.5-9.7-.6-8-9.8-7.9v28.5h6l.1-15.9zm-156.3 0c1.9 4.8 4 10.9 5.6 16h7.1l-.1-28.6-5.9.1v15.5c-.7-.9-5.3-14.8-5.6-15.6h-7v28.6h6l-.1-16zm72.1 10.4l-4.6-.1c-.4-.3-.2.4-.3-.9l.1-16.4c1.1-.4 3.9-.3 5.1-.1.1.3.5 14.8.2 16.7-.3 1-.1.5-.5.8zm6.1 1.8c.3-5.3 0-11.2 0-16.6 0-5.1.5-3.5-2.3-6.2-2.2-2-2.1-2-6.2-2-5.1 0-3.2-.3-6.2 2.2-2.8 2.3-2.2 1.3-2.2 6 0 5.3-.3 11.3 0 16.6 1.3.7 2.2 1.9 3.4 2.8 1.9 1.5 2 1 5 1s3.4.5 5.1-1.1c.8-.8 2.6-2.3 3.4-2.7zM8.6 73.7c-.1 2.3-.2 23.9.1 24.6.2.4 2.8 2.5 3.3 3 1.8 1.5 2 1 5 1s3.4.5 5.1-1.1c1-.9 2.3-2.1 3.4-2.7l-.1-24.8h-5.9v23h-5v-23H8.6zM165 98.2c.4-.1.3-.2.3.2.5-.1.3-.2.3.4.3.9 1.9 1.8 2.7 2.6 1.3 1.3 2.4.9 4.7.9 2.1 0 3.6.4 4.9-.7.6-.5 2.4-2 2.6-2.5 0-.5-.2-.5.3-.4-.1-.4-.2-.4.3-.2-.1-.4-.2-.3.3-.2l.1-24.3h-5.6v20.2c0 .8.2 2-.2 2.6-.5.3-4.5.6-4.9 0-.6-.8-.3-20-.2-22.7h-5.5l-.1 24.1zM82.4 79.3h4.9v3.3l6-.1v-4.8c-.6-.7-2.4-2.2-3.3-2.9-2-1.6-1.8-1.2-5.1-1.2-2.8 0-3.6-.5-5.2 1-.8.8-2.8 2.2-3.3 2.9-.3.7-.1 16-.1 19.1 0 1.4 0 1.5.8 2.3 2.8 2.5 3 3.3 6.4 3.3 1.9 0 4.6.3 5.8-.5.6-.4 1.1-.9 1.7-1.4 2.4-2.1 2.4-1.5 2.4-3.8v-3.1h-6v3.3h-5V79.3zm-22.2 22.9c.2-14.5-.8-8.1 3.9-22.1.6-1.7 1.8-4.7 2-6.4h-5.4l-3.5 11.2-3.4-11.2h-5.4c.8 4.9 5.9 14.8 5.9 20.1v8.4h5.9zm179.7-17.3l-3.4-11.2h-5.4c.2 1.5 1.6 4.9 2.1 6.6 4.6 13.8 3.6 7.7 3.8 22l5.9-.1c.2-13.8-.8-8.6 3.9-22.1.6-1.7 1.8-4.7 2-6.4h-5.4c-1.1 3.4-2.2 8-3.5 11.2zm-26.2-11.1c-.3 6.9-.8 5.5 5.5 5.5v22.9h5.9V79.3c5.9-.2 5.8 1.9 5.5-5.6l-16.9.1zm-7.8 28.5l6-.1-.1-28.5h-5.9" clip-rule="evenodd"/>
  <path fill="#F26522" fill-rule="evenodd" d="M97 27.6l-.3.2-.9.7v16.6c.3.7 2.8 2.7 3.5 3.2l.2.2-.2-.2c-.1-1-.2-.4-.3-1.6-.1-.7-.2-.9-.3-1.6.8-.3 1.1-.7 2.2-.8v.1c.8-2 .5-12.1.4-14.9-1-.2-3.1-.8-3.8-1.2.2-.4.2-.2.4-.8-.4-.3.5-.5-.5-.1l-.4.2zm14.9-7.6c.5 1 1.6 2.2 2.3 3.5.7 1.1 1.6 3.4 2.1 4.1 1.5-.3 6.2-1.4 7.2-2.1-.8-3.5-4.5-8.7-6.3-10.8-1.1.7-3.8 4.1-5.3 5.3z" clip-rule="evenodd"/>
  <path fill="#F494BE" fill-rule="evenodd" d="M72 12c.4.9 4.6 4.9 5.5 5.5 1.2-.8 2-1.6 3.4-2.5.9-.5 3.4-1.6 3.9-2l-2-7.2c-4 .7-8.3 4.4-10.8 6.2z" clip-rule="evenodd"/>
  <path fill="#0086BE" fill-rule="evenodd" d="M86.8 4.5l2 7.5c1.4-.1 2.9-.4 4.3-.4 1.5 0 3.2.3 4.4.3 2.2-7.8 2.6-7.4 0-7.7-4.1-.5-6.7-.2-10.7.3z" clip-rule="evenodd"/>
  <path fill="#813D97" fill-rule="evenodd" d="M62.9 25.9l7.5 2.1c.4-1.8 1.8-4.3 2.9-5.9.4-.6.8-1 1.2-1.7-.5-.9-4.6-4.9-5.4-5.3-1.8 1.6-5.4 7.5-6.2 10.8z" clip-rule="evenodd"/>
  <path fill="#F7EC00" fill-rule="evenodd" d="M117.4 31.5c0 1.2.3 2.9.3 4.3 0 1.5-.3 3.2-.2 4.4l6.7 1.7h.2c2.2-.2.8-10.8.5-12.4l-7.5 2z" clip-rule="evenodd"/>
  <path fill="#ED1C24" fill-rule="evenodd" d="M101.4 13c3.1 1 5.5 2.7 7.6 4.2l5.3-5.4c-1-1.7-7.9-5.6-10.9-6.2l-2 7.4z" clip-rule="evenodd"/>
  <path fill="#36B24A" fill-rule="evenodd" d="M112.2 51.6l5.4 5.4c1.7-1.1 5.5-7.8 6.3-10.9l-7.5-2c-.9 2.6-2.8 6-4.2 7.5z" clip-rule="evenodd"/>
  <path fill="#FFF" fill-rule="evenodd" d="M101.6 96.7h4.7V79.4l-4.7.1m161.1 3.7c2.8-1.5 3.4 4.4 1.3 5.6-2.7 1.6-3.3-4.5-1.3-5.6zm7.8 4.1c-.5-.6-1.7-3.7-2.1-4.8-.4-1-.2-1.1-1-1.4-1.2.6-.6 1.8-.8 3.4-.6-1.6-1.4-3.6-3.7-3-3.4.9-3.7 8.5-.1 9.1 2.4.4 3.1-1.6 3.7-3.4l.2 3.2c1.7 0 1.2-.9 1.3-4.5 1 .9 1.3 3.3 2.2 4.3 1.2-.3 1.3-1.5 2-3.3l.8-1.4c0 .9-.1 2.7 0 3.5.2 1.3 1.3 1.5 1.3-.2v-6.2c0-.8.1-2.3-.9-1.7-.5.3-.8 1.4-1 2.1-.4.9-1.5 3.7-1.9 4.3z" clip-rule="evenodd"/>
  <path fill="#000002" fill-rule="evenodd" d="M89.5 120.3c-.2.3-.1-.3-.1-.4-.2-.7.3.1.1.4zm-1.7 8.7c1.5 0 1.2.4 1.5-.8l1.8-11.5h-1.6l-4.9 10.7-1.4-10.7h-1.5c-.5 1.9-.8 4.1-1.1 6.1-.2 1-.4 2-.5 3.1-.2.9-.7 2.3-.1 3.1 1.4-.1.7.3 1.1-.7l1.4-9c.5 2.2.9 8.7 1.6 9.7 1.6 0 1.3-.5 1.9-1.8.7-1.5 2.8-6.2 3.5-6.9l-1.7 8.7zm72.2-2.3c-3 3.3-6-1.2-2.1-3.6.1.1.1.1.3.5l1.8 3.1zm-1.4-5.7c-1.5-6 4.8-2.1 0 0zm.6 1.2c1-.8 1.9-1.1 2.3-2.5 1.1-3.3-3-4.5-4.2-1.8-.7 1.5-.2 2.4.1 3.7-1.3 1.3-3.5 2.6-2.3 5.7.4 1 1.2 1.8 2.6 1.9 1.7.1 2.1-.9 3.2-1.3l.9 1.4 1-.8c-.3-.8-.6-.9-1-1.7.3-.8.9-1.4 1.1-2.3l-.9-.6-.4.5s-.1.1-.1.2c-.2.4-.2.6-.4.9l-.8-.9c-.1-.1-.3-.6-.4-.8-.2-.6-.4-1.1-.7-1.6zm73.6 6.8c.5-.3.2 0 .5-.6l1-5.5c.3-1.6 1-4.7.9-6.2-1.7 0-1.2-.1-2 4.5l-.9 5.4c0-.1-.1-.1-.1-.2l-3.6-9.7c-1.8 0-1.3.4-1.7 2.3-.2 1.5-1.7 8.5-1.5 9.6l.1.4c1.5 0 .8.3 1.2-.6l1.6-9.5 2.8 8.1c1 2.5.4 1.9 1.7 2zm-42.1-7.6c.1-.7.2-.8-.1-1.3-1.2 0-1 .1-1.3 1.5l-1.1 6.2v.6c.1.6 0 .3.2.6 1.4-.1.7.3 1.1-.7l.7-4.1c.3-1.5 1.3-3.7 3.1-2.7.9.8-.8 5.6-.7 7l.2.6c1.6-.1.7.1 1.8-4.8.3-1.5 1.3-3.8 3-2.7 1 1-1.2 6.2-.5 7.6 1.3-.1 1-.3 1.2-1.7.1-.7.2-1.5.4-2.2.4-2 .8-3.1 0-4.8-2.2-.6-2.5 0-3.7 1.2-.3-.5-1.5-3.6-4.3-.3zm-172.3-4.6c-2.5-.2-2.4.8-4 2.3-1.6 1.4-1.9 2.6-3.2 3.2l.8-5.5h-1.2L8.6 129H10c.5-3.9.6-4 2.7-6.1.9 1 2 4.2 2.6 5.3.6 1 .5.8 1.9.7l-3.3-7.3 4.5-4.8zm7.8 12.2c1.3-.1 1-.4 1.2-1.8.3-1.9.6-5.1 2.1-5.8 2.7-1.3 1.5 2.7 1 5.3l-.1 2.1s0 .1.1.2c1.3-.1 1-.8 1.3-2.2.1-.9.3-1.7.5-2.6.3-1.3 1.5-3.9 3-2.6 1.1 1.1-1.3 6.2-.4 7.5 1.3-.1 1-.4 1.2-1.8l.8-5c.1-3-2.8-2.8-4.1-.7-.6-.8-.7-1.6-2.1-1.5-1.1.1-1.7.8-2 1.4l-.1-.7c-.3-.7.3-.2-.5-.6-.7.3-.5-.5-.9 2.1l-.8 4.5c-.2 1-.3 1.1-.1 1.9l-.1.3zm108-7.1l-.3-1.6-1-.1.1 1.5c-.1 1.3.1 2.6.2 3.9.1 1.3 0 3.2.7 3.5 1.3 0 1 0 1.5-1.3l2.1-5.5c.1 1.2.1 2.6.2 3.8.1 1.8-.2 2.8.6 3 1.3-.1 1.1-.6 1.6-1.9.6-1.6 2.6-6 2.7-7-1.3 0-1.1-.1-1.6 1.2-.3.7-.5 1.2-.7 1.9-.5 1.2-1 2.4-1.4 3.7l-.4-6.8h-1.3c-1 2.1-1.7 4.6-2.6 6.9l-.4-5.2zm39-3.6l.7 5.8h-3.3l2.6-5.8zm-6.3 10.7c1.7 0 1.4 0 2-1.3.4-.8.7-1.3.9-2.2h4.2c.3 3.9.2 3.5 1.4 3.5.4-.5.4-.5.2-1.7l-.6-4.4c-.3-1.9-.5-4.2-.9-6.1-2.1-.1-1.6 0-2.8 2.7-1 2.3-3.9 7.9-4.4 9.5zm50.3-12.3c-.5 1.8-1.1 5.6-1.4 7.7-.4 2.9.9 5.1 4 4.8 2.5-.2 3.4-2.4 3.9-5 .4-2 1.1-5.5 1.2-7.4h-1.2c-.8 3-.8 10.6-3.9 11.1-5.1.8-1.3-7.8-1.4-11.1l-1.2-.1z" clip-rule="evenodd"/>
  <path fill="#5F449B" fill-rule="evenodd" d="M84.2 26.8v5.6c-.1 1.5-.3 2.3-.4 3.6-1.6-.7-1.2 0-3.1 0l-.4-.7c-.2 1.1.2.4-1.1.9 0-1-.3-2.2.1-3h-.4v8c1.5.5 0 0 .6.3 1.1.6.8.2 2.5.3h.1c.6 0 .3.2.7-.5.4.4.2.3.7.7.7-1.1.2-1 .7-1.2l-.1 3h.2c-.2-1-.3-17.9-.1-19.1v2.1z" clip-rule="evenodd"/>
  <path fill="#0A8AB2" fill-rule="evenodd" d="M165 98.2c-.1.4-.2.3.3.2-.1.4-.1.3.3.4 0-.5.2-.5-.3-.4.1-.3.2-.3-.3-.2V73.9h5.5c0 2.7-.4 21.8.2 22.7.4.6 4.4.4 4.9 0 .4-.6.2-1.8.2-2.6V73.8h5.6l-.1 24.3c-.4-.1-.4-.2-.3.2-.4-.1-.4-.2-.3.2-.5-.1-.3-.2-.3.4.5-.1.4 0 .3-.4.4.1.4.2.3-.2.5.1.4.2.3-.2.4-.3.3.7.4-.6v-24h-6v23h-4.9l-.1-23-6 .1v23.9c0 1.3-.1.5.3.7z" clip-rule="evenodd"/>
  <path fill="#000002" fill-rule="evenodd" d="M102.4 116.7l-1.2.1c-.2.8-2.3 11.2-1.8 12.2 1.7-.1.6.3 1.8-4.8.4-1.7 1.4-3.6 3.3-2.8.7.5.1 2.7-.1 3.7-.2 1.3-.5 2.6-.7 3.9h1.3c.3-2.6 3.5-12.7-3.3-7.8l.7-4.5zm6.2 11.1c-1-3.2 1.1-2.7 3.7-3.2-.3 2.3-1.2 3.9-3.7 3.2zm-.8-5.2c2.2.5.8-.3 2.1-1.1 1-.6 1.9-.2 2.7.2v1.8c-2.4.6-5.2-.1-5.5 2.8-.3 3.3 3.3 3.6 4.4 1.8.7.6.3.9 1.7.9.2-1.4.1-2.6.4-4.1.2-1.3.6-3.1-.1-4.1-.6-.8-2.4-1.1-3.7-.6-1.1.3-1.6 1.3-2 2.4zm40 2c-.1.9-.4 2-.8 2.6-1.8 2.4-4.7-.8-2.3-2.1.6-.3 2.2-.4 3.1-.5zm-4.5-2c2.3.2.8-.3 2.2-1.2.7-.4 2-.4 2.4.2 1.7 2.3-2.3 1.9-3.5 2.3-3.9 1.2-1.1 8.1 2.8 4 .5 1.1-.3.8 1.1 1l.3-1.1c.3-2.4 1.1-6 .3-7.1-.8-1-4.7-1.8-5.6 1.9zm-81.2 5.1c-.9-3 1.2-2.8 3.7-3.2-.3 2.4-1.2 4.1-3.7 3.2zm-.7-5.1c2.4.2.7-.4 2.2-1.3.7-.4 2-.4 2.4.3 1.5 2.3-2.3 1.9-3.5 2.2-1.5.5-2.7 2.6-1.4 4.3 1.4 2 3.1.4 4.3-.2.3 1.2-.2.9 1.1.9.2-.3 0 .2.2-.6l.1-1.6c.2-1.9 1.2-4.5.2-5.8-.8-.9-4.6-2.2-5.6 1.8zm31.4 5.1c-.9-3.1 1.2-2.7 3.7-3.2-.2 2.4-1.2 4.1-3.7 3.2zm-.7-5.1c2.4.2.7-.2 2.1-1.2 2-1.4 4 1.4 2.1 2.1-.6.2-2 .1-2.8.3-4.3 1.1-1.1 8 2.3 4.2.1 0 .1.1.1.1l.6.5c.3.2-.2.2.8.2l.2-1.1c.2-2.8 1.2-5.8.3-7-.9-.8-4.7-2.1-5.7 1.9zm147.7 6.4c1.3-.8-.3-2.4 2.5-6.7 1-1.6 2.6-3.9 3.4-5.6-1.3 0-1.3-.2-2 .7-.4.6-.7 1.1-1.1 1.8-.7 1.1-1.4 2.2-2.1 3.5l-2.6-5.9h-1.2c.1 1.1 1.7 4.4 2.2 5.6 1.3 3 .3 3.4 0 6.6h.9zm-218.7-7.6c3.6-1.9 2.9 5.4 1 6.4-3.5 1.8-3.4-5-1-6.4zm3.7 4.4c1.8-6.3-4.8-8.1-6.4-2.5-1.9 6.7 4.9 8 6.4 2.5z" clip-rule="evenodd"/>
  <path fill="#F494BE" fill-rule="evenodd" d="M93.6 28.5V31l-.1 3.4.1 1.6v2.5l-.5 3.2-3.4.3c-1.7.2.5-.4-1.4.3v1.8l2.7 2.6c.5.4 0 .1.8.4l.4-.3.2-.3.3-.2.3-.2c1.3-.6.8-2 .8-4.9V27.6c0-.4.1-1.1 0-1.5l-.2-1.1v3.5z" clip-rule="evenodd"/>
  <path fill="#000002" fill-rule="evenodd" d="M184.9 128.1c.3.8-.1.5.5.8.9.4.7-.1.9-.7l1.3-8.1h-1.2c-.8 3.1-.5 8.4-4.3 7.6-.5-2.3.9-5.3.8-7.7-1.2 0-1-.3-1.3.8-.1.4-.2 1.4-.3 1.9-.2 1.2-.5 2.4-.6 3.5-.4 4.1 3.2 3.3 4.2 1.5v.4zm17.7-6.6c-.5-.5.2-.6-.2-1.4h-.7c-.5.7-.8 3.4-1 4.5-.2 1-.8 3.6-.5 4.4 1.9-.1.6.2 1.9-5 .5-1.8 1.5-3.2 3.5-2.7.4 1.9-.7 5.4-.9 7.6 1.5 0 1.2.4 1.5-1l.8-5.4c.2-3.6-3.2-3-4.4-1zm-87.4 4.4c-.4.5-.2-.1-.2.8-.2 3.7 7.4 3 5.7-1.2-.8-1.9-3.4-1.8-3.6-3.2-.1-1 .7-1.5 1.8-1.3 1 .2.9.7 1.3 1.6 1.1 0 1.3.1 1-1.1-.8-2.5-4.2-2.2-5-.4-1.9 3.8 4.6 3.5 3.1 6.2-.6.7-1.8.9-2.6.1-1.2-1 .4-1.5-1.5-1.5zm11 0c-1.3.1-1.4.5-.7 1.8 1.3 2.5 6.1 1.9 5.6-1.7-.3-2.2-3.2-2.1-3.6-3.5-.4-1.1.8-1.7 1.9-1.4 1.9.5-.2 1.6 1.9 1.6.2-.2.5.2.2-1.2 0-.1-.4-.7-.5-.8-.3-.4-.9-.7-1.6-.8-1.6-.2-2.8.5-3.1 1.8-.9 4.1 4.6 2.4 3.3 5.9-2.8 1.2-2.6-.3-3.4-1.7zm-57.6 0c-.5 1-.2.2-.2.8 0 .1.1.7.1.8 1.1 3.3 7.6 1.4 5.4-2.3-.8-1.4-3.7-1.7-3.4-3.2.2-.7 1.2-1.2 2-.8 1.7.8-.3 1.6 1.9 1.5.1-.2.1-.1.1-.6.2-2.7-4.9-3.3-5.3-.2-.5 3.8 4.6 2.1 3.4 5.8-.9.2-2 .5-2.7-.2-.8-1.1.8-1.6-1.3-1.6zm-20.4-4.5c-.3-.5-.1-.6-.1-1.2-1.3-.2-1.1.1-1.4 1.4l-1.1 6.8c.1.6 0 .2.2.6 1.7-.1.6-.2 1.8-4.8.4-1.5 1.5-3.8 3.3-2.7 1.3 1.1-1.6 7.3-.2 7.6 1-.1.8.1 1-1.3l.8-5.3c.1-3.5-3.2-2.9-4.3-1.1zm-3.6-1.3c-1.3.1-1 .4-1.2 1.8-.3 2-.6 5-2.4 5.8-3.3 1.5-.8-5.8-.8-7.6-1.1 0-1-.3-1.3.7l-.9 5.6c-.4 3.7 3.1 3.3 4.2 1.3l.1.4c.4 1.1 0 .7.6.9.8-.4.3.4.7-.9l1-8z" clip-rule="evenodd"/>
  <path fill="#FFF" fill-rule="evenodd" d="M259.4 88c-.9.5-1.2 1.7-2.8 1.2-1.8-.6-1.8-4.9 0-5.8 2-.9 1.7.9 3.2.8 1.5-3-5.9-4.5-5.9 2.2 0 7.4 8.4 3.7 5.5 1.6zM21.1 121.4c-2.5 1.4-2.6 8.2 1 6.4 1.9-1 2.6-8.3-1-6.4z" clip-rule="evenodd"/>
  <path fill="#F09920" fill-rule="evenodd" d="M99.6 25.3c-.8.6-1.8 1.5-2.3 2.2l-.3.1-.3.2.3-.2.3-.2c1.1-.4.2-.1.5.1l-.4.8c.7.4 2.8 1 3.8 1.2.1 2.8.4 12.9-.4 14.9l.6-.1V29.7l1.4-.3c-.3-.8-.1-.4 0-.7 0 0 0-.1.1-.2l.1-.4c.2-1.3-.2-2.2.3-3-1.1-.2-2.3-.3-3.5-.2l-.2.4z" clip-rule="evenodd"/>
  <path fill="#335BA9" fill-rule="evenodd" d="M79.2 33.3c-.3.7-.1 2-.1 3 1.2-.5.9.2 1.1-.9l.4.7c2 0 1.5-.7 3.1 0 .1-1.3.3-2.2.4-3.6-.2-.4-.3-.4-.4-1l-1.6.2c-.8 0-2.1-.2-2.7-.7 0 1.1.1 1.2-.2 2.3z" clip-rule="evenodd"/>
  <path fill="#335BA9" fill-rule="evenodd" d="M78.9 33.3h.4c.3-1.1.2-1.2.2-2.3.6.5 1.9.7 2.7.7l1.6-.2c.1.5.2.5.4 1v-5.6c-.4.4-.4 1-.6 1.4l-.1-.1c-.9-.6.4-.3-.4-.2-.4.1.3 0-.2.1s-.5-.2-.8-.2c0 0-.3 0-.3.1-3.1.8-.2-.4-2.6.4L79 25h5.2v-.1l-5.3-.1v8.5z" clip-rule="evenodd"/>
  <path fill="#5F449B" fill-rule="evenodd" d="M83.9 44.3l.2-.2.1-3c-.5.2 0 .1-.7 1.2-.6-.5-.3-.3-.7-.7-.4.6-.1.5-.7.5H82c-1.6-.2-1.3.3-2.5-.3-.6-.4.9.2-.6-.3v2.9c0 1.8-.2 1.6 1 2.2l.3.2.3.2-.3-.2-.3-.2v-.5s.1-.1.2-.1l1.2.7v-.1l2.6-2.3z" clip-rule="evenodd"/>
  <path fill="#000002" fill-rule="evenodd" d="M59.8 117.1c-1.6.6-1.5 1-1.7 3-.7 0-1-.2-1.2.5-.2.8.2.6.9.6-.2 2.3-1.3 5.4-.8 7.5.8.3 1.2.5 2.2.2.2-1.9.1-.7-1.2-1.4l1.1-6.2c.9-.3 1.1.2 1.3-.7.2-1-.7-.4-.8-.9 0-.1-.1 0-.2-.1l.4-2.5z" clip-rule="evenodd"/>
  <path fill="#F1606E" fill-rule="evenodd" d="M88.3 42.3c1.9-.7-.3-.1 1.4-.3l3.5-.4.5-3.2c-1.7 0-3.6.2-4.6 0v.3c-.2 1-.1.3-.2.6 0-.4.1-1.4 0-1.7-.1-1.1.3-.9-.5-.9l-.1 5.6z" clip-rule="evenodd"/>
  <path fill="#0086BE" fill-rule="evenodd" d="M262.7 83.2c-2 1.1-1.4 7.2 1.3 5.6 2.1-1.3 1.5-7.1-1.3-5.6z" clip-rule="evenodd"/>
  <path fill="#ED1C24" fill-rule="evenodd" d="M88.3 25.7l.3 2.9h3.5l.4-1c.4.5.3.1.4.9l.7-.1V25h-4.8c-.7.3-.3-.5-.5.7z" clip-rule="evenodd"/>
  <path fill="#FED103" fill-rule="evenodd" d="M99.6 25.3l.2-.2c1.1-.2 2.4 0 3.5.2l2.4.1-.1 3.6c0 .6-.4-.1.1.8l-.1 2.6h4.3c-.5-.4-1.5-.4-2.4-.5 0-2.2.3-3.7.2-6.2l-.3-.2c-1.3-1-1.4-.7-3.4-.7-1.3 0-2.9-.2-4.2.2l-.2.3z" clip-rule="evenodd"/>
  <path fill="#F7EC00" fill-rule="evenodd" d="M107.6 25.9c.1 2.4-.2 3.9-.2 6.2.9.1 1.9 0 2.4.5.9-.1.4 0 .8-.3v-3.9c-.9-.8-2-1.9-3-2.5l-.3-.2.3.2z" clip-rule="evenodd"/>
  <path fill="#0086BE" fill-rule="evenodd" d="M84.2 26.8v-1.7L79 25l.2 3.3c2.4-.9-.5.3 2.6-.4.1 0 .3-.1.3-.1.3 0 .3.2.8.2.5-.1-.2-.1.2-.1.7-.1-.6-.4.4.2l.1.1c.2-.5.2-1.1.6-1.4z" clip-rule="evenodd"/>
  <path fill="#000002" fill-rule="evenodd" d="M177 129c1.5 0 1.1.4 1.4-.8l1.8-11.5c-1.6 0-1.2.4-1.5 2.2L177 129z" clip-rule="evenodd"/>
  <path fill="#F1606E" fill-rule="evenodd" d="M88.3 36.7c.8 0 .4-.1.5.9v1.7c.2-.4 0 .4.2-.6v-.3c1 .2 2.9 0 4.6 0v-2.5l-4.1-.6c-1.1.1-.4-.2-.9.7 0-1 .1-1.3-.3-1.9v2.6z" clip-rule="evenodd"/>
  <path fill="#ED1C26" d="M88.7 28.5l-.2-1.9-.1-.1v3.9c.6.2.5-.5.5 1l.2-.3.1-.2s.4-.9 1-2.4h-1.5z"/>
  <path fill="#ED1C26" d="M92.9 28.5c-.1-.9 0-.5-.3-.9h-.1l-.4.9H90L89 31c1.5 0 3.8-.2 4.6 0v-2.5h-.7z"/>
  <path fill="#62BB46" fill-rule="evenodd" d="M105.2 44.3c-.3.9 0 3 0 4.5.8-.2.7-.2 1.5.1.1-.3.1-.2.4-.3l.1-.2-.1.2c-.5-.1-.3.7-.3-.3.9-.5.3-1.9.2-2.9-.1-1.1 0-2.3 0-3.4 1.9 0 .3.1 1-.6h-2.5c0 1.1.2 2.4-.3 2.9z" clip-rule="evenodd"/>
  <path fill="#ED1C26" d="M89.1 31l-.1.1-.2.3v2.4h2.9c2.3-.2 1.7-.2 1.9.5l.1-3.4c-.8-.2-3.1.1-4.6.1z"/>
  <path fill="#BD5EA4" fill-rule="evenodd" d="M86.1 44.6c2.1.4 1.4.6 1.5 3.2l.3 1.2c3.2-.1 2-.8 3.9-1.8l.4-.3.2-.3.3-.2.3-.2-.3.2-.3.2-.2.3-.4.3c-.9-.2-.3 0-.8-.4l-2.7-2.6-4-.1 1.8.5z" clip-rule="evenodd"/>
  <path fill="#9CA93A" fill-rule="evenodd" d="M99.5 48.5c1 .8 5.7.4 7.1.3-.8-.3-.7-.3-1.5-.1l-1.8.2v-4.7l-2 .1-.6.1v-.1l-.1 2.7c.2 1.1 1.1 2.6-1.1 1.5z" clip-rule="evenodd"/>
  <path fill="#75C1DE" fill-rule="evenodd" d="M101.6 96.7l-.1-17.2h4.8l-.1 17.3c.5-.3.2.2.4-.7.3-2-.1-16.5-.2-16.7-1.2-.2-4-.3-5.1.1l-.1 16.4c.2 1.2.1.4.4.8z" clip-rule="evenodd"/>
  <path fill="#FFF" fill-rule="evenodd" d="M160 126.7l-1.7-3.2c-.2-.3-.2-.3-.3-.5-4 2.4-1 7 2 3.7z" clip-rule="evenodd"/>
  <path fill="#FED103" fill-rule="evenodd" d="M101.4 29.8h4.2c-.5-.9-.2-.2-.1-.8l.1-3.6-2.4-.1c-.5.8 0 1.7-.3 3l-.1.4s0 .1-.1.2c-.1.3-.3-.1 0 .7l-1.3.2z" clip-rule="evenodd"/>
  <path fill="#A34A9C" fill-rule="evenodd" d="M84.4 48.9l1.7-.3v-4.1l-1.8-.5h-.2l-.2.2c-.5 1-.3 2.9-.3 4.2.6.6-.7.4.8.5z" clip-rule="evenodd"/>
  <path fill="#000002" fill-rule="evenodd" d="M53.8 129c1.2-.1.7.6 1.6-4.3.2-1.3.7-3.2.7-4.6l-1.1.1-1.2 6.7c-.6 2.1-.4 1.7 0 2.1zm154.3 0c1.4-.1 1-.5 1.6-4.3.2-1.3.7-3.5.7-4.6h-1.1c-.4 1.1-.6 3-.8 4.4-.1.7-.3 1.5-.4 2.3l-.1 2c0-.1 0 .1.1.2zm-85.5 0c.8-.4.2.6.7-.9l1.2-8c-1.5 0-1.2 0-1.4 1.6l-.9 5.3c-.5 2.7-.3 1.9.4 2z" clip-rule="evenodd"/>
  <path fill="#ED1C26" fill-rule="evenodd" d="M88.3 34.1c.4.6.3.9.3 1.9.5-.9-.2-.5.9-.7l4.1.6-.1-1.6c-.1-.7.4-.7-1.9-.5-.9.1-2 0-2.9 0v-2.4c0-1.5.2-.7-.5-1l.1 3.7z" clip-rule="evenodd"/>
  <path fill="#FFF" fill-rule="evenodd" d="M147.8 124.6c-.9.1-2.5.2-3.2.6-2.4 1.2.5 4.5 2.3 2.1.5-.7.7-1.8.9-2.7zm-39.2 3.2c2.5.7 3.4-.9 3.7-3.2-2.6.5-4.7 0-3.7 3.2z" clip-rule="evenodd"/>
  <path fill="#58B947" fill-rule="evenodd" d="M109 46.8c.7-.4 1-.7 1.6-1.2v-3.9l-1-.3-1.1.6v3.9c0 .5.2.2-.2.6.6.7-.1.1.7.3z" clip-rule="evenodd"/>
  <path fill="#62BB46" fill-rule="evenodd" d="M107.1 48.6l.1-.2c.7-.5 1.3-1 1.8-1.5-.8-.3-.2.4-.6-.4.4-.3.2 0 .2-.6V42l1.1-.6H108c-.7.7.9.5-1 .6 0 1.1-.1 2.3 0 3.4.1 1 .7 2.3-.2 2.9 0 1-.1.1.3.3z" clip-rule="evenodd"/>
  <path fill="#FFF" fill-rule="evenodd" d="M62.1 127.7c2.5.9 3.4-.8 3.7-3.2-2.5.5-4.6.2-3.7 3.2zm30.7 0c2.5.9 3.4-.8 3.7-3.2-2.5.5-4.6.2-3.7 3.2zm77.8-3.5h3.3l-.7-5.9" clip-rule="evenodd"/>
  <path fill="#813D97" fill-rule="evenodd" d="M79.9 46.4l.3.2.3.2c.6.5 1.1 1 1.7 1.5 1 .8.8.6 2.3.7-1.5-.1-.3.1-.8-.5 0-1.3-.2-3.2.3-4.2l-2.7 2.1v.1l-1.3-.8c-.1.1-.1.1-.2.1l.1.6z" clip-rule="evenodd"/>
  <path fill="#9CA93A" fill-rule="evenodd" d="M105.2 48.8c0-1.5-.3-3.6 0-4.5h-1.8V49l1.8-.2z" clip-rule="evenodd"/>
  <path fill="#F09920" fill-rule="evenodd" d="M99.3 48.3l.2.2c2.1 1 1.2-.5 1.2-1.5l.1-2.7c-1.1.1-1.4.5-2.2.8.2.7.3.9.3 1.6.2 1.3.3.6.4 1.6z" clip-rule="evenodd"/>
  <path fill="#BD5EA4" fill-rule="evenodd" d="M84.4 48.9h3.4l-.3-1.2c-.1-2.6.6-2.9-1.5-3.2v4.1l-1.6.3z" clip-rule="evenodd"/>
  <path fill="#FFF" fill-rule="evenodd" d="M252.2 91c1.7.5 2.2-1 1.5-1.7-1.1-1.1-1.9.2-1.5 1.7z" clip-rule="evenodd"/>
  <path fill="#000002" fill-rule="evenodd" d="M125.2 116.8c-1.5-.2-1.3.1-1.4 1.7h1.2l.2-1.7zm-69.8 1.6c.8 0 1.2.5 1.1-1.7h-1.1c-.3 1.3-.2 1.1 0 1.7zm154.3 0c1.3 0 1.4-.2 1.3-1.7h-.7c-.7.3-.7.9-.6 1.7z" clip-rule="evenodd"/>
  <path fill="#737474" fill-rule="evenodd" d="M133 121.6l-.1-1.5 1 .1.3 1.6-.3-1.6c-.2-.2.1-.1-.5-.3-.3-.1-.4 0-.7 0 0 1-.1 1.1.3 1.7z" clip-rule="evenodd"/>
</svg>
