<svg xmlns="http://www.w3.org/2000/svg" width="1122.52" height="793.7" fill-rule="evenodd" viewBox="0 0 11693 8268" xmlns:xlink="http://www.w3.org/1999/xlink" shape-rendering="geometricPrecision" text-rendering="geometricPrecision" image-rendering="optimizeQuality" clip-rule="evenodd">
  <defs>
    <style>
<![CDATA[
    .fil0 {fill:#FEFEFE}
    .fil9 {fill:#F08519}
    .fil1 {fill:#A00E21}
    .fil8 {fill:#C42026}
    .fil10 {fill:#FEFEFE;fill-rule:nonzero}
    .fil2 {fill:#A00E21;fill-rule:nonzero}
    .fil3 {fill:#F29400;fill-rule:nonzero}
    .fil7 {fill:url(#id0)}
    .fil5 {fill:url(#id1)}
    .fil4 {fill:url(#id2)}
    .fil6 {fill:url(#id3)}
   ]]>
    </style>
    <linearGradient id="id0" x1="6188.72" x2="6188.72" y1="4735.02" y2="5845.44" gradientUnits="userSpaceOnUse">
      <stop offset="0" stop-color="#C42026"/>
      <stop offset="1" stop-color="#F5232A"/>
    </linearGradient>
    <linearGradient id="id1" x1="8049.44" x2="8049.44" y1="4735.02" y2="5845.44" gradientUnits="userSpaceOnUse" xlink:href="#id0"/>
    <linearGradient id="id2" x1="8049.45" x2="8049.45" y1="3801.65" y2="4473.93" gradientUnits="userSpaceOnUse" xlink:href="#id0"/>
    <linearGradient id="id3" x1="6188.72" x2="6188.72" y1="3813.65" y2="4485.93" gradientUnits="userSpaceOnUse" xlink:href="#id0"/>
  </defs>
  <g id="Layer_x0020_1">
    <g id="_414456792">
      <path d="M5778 2015c29-5 59-8 89-8h482c110 0 216 35 304 99 179-99 378-146 584-146 319 0 607 114 833 340s341 514 341 832c0 47-4 93-8 139-3 29-8 58-16 86 172 74 315 203 406 367 146-67 290-135 433-207 105-53 250-126 332-210 194-200 512-209 717-22 204 186 223 506 43 716-77 90-159 177-248 257-35 55-81 103-135 141-293 209-596 404-915 571 28 95 42 194 42 292l12 573c3 140-48 270-147 371-98 100-226 154-367 154H5679c-105 0-204-29-289-88-71 38-146 68-224 89-13 272-238 490-514 490h-482c-275 0-501-218-514-491h-220c-55 0-109-8-160-25-64 27-133 42-203 42h-482c-99 0-195-29-278-82-82 53-178 82-277 82h-521c-284 0-515-231-515-515v-749c-231-53-400-260-400-502v-506c0-283 231-514 514-514h83L638 2224c-66-161-48-337 49-482 97-144 253-227 427-227h605c57 0 114 9 169 27 54-18 111-27 169-27h531c114-65 241-98 373-98 198 0 382 75 525 212 110 105 184 236 215 382 19-6 39-11 58-16 18-268 242-480 514-480h482c276 0 502 218 514 492h419c30 0 60 3 90 8z" class="fil0"/>
      <path d="M1888 1621c53-22 110-33 169-33h551c107-64 227-97 353-97 180 0 345 67 475 191 120 116 192 265 205 428 61-25 125-43 191-56v-25c0-243 198-441 441-441h482c243 0 441 198 441 441v52c4 0 7-1 10-1h482c30 0 60 4 90 10 29-6 59-10 89-10h482c113 0 218 44 297 116 176-109 377-163 591-163 299 0 569 107 781 319s320 481 320 780c0 45-4 88-9 132-4 48-16 94-35 136 207 68 376 222 465 420 168-77 336-154 500-238 112-56 265-134 352-224 166-171 438-179 614-19s192 434 38 614c-78 90-160 178-249 257-31 51-73 95-121 130-307 218-626 422-962 594 38 105 57 217 58 330l12 572c2 121-41 232-126 318-85 87-194 133-315 133H5679c-107 0-204-35-283-102-94 55-196 95-302 119v32c0 243-199 441-442 441h-482c-243 0-441-198-441-441v-49h-293c-57 0-112-11-164-32-61 31-129 48-199 48h-482c-105 0-202-37-278-98-75 61-172 98-277 98h-521c-244 0-442-198-442-441v-812c-224-20-400-210-400-439v-506c0-243 198-441 441-441h193L706 2197c-57-139-41-289 42-414 83-124 217-195 366-195h605c58 0 116 11 169 33z" class="fil1"/>
      <path d="M9868 4093c-18 37-46 71-82 97-346 246-712 476-1097 658 73 123 116 267 116 418l12 574c2 72-23 134-73 186-51 51-113 77-184 77H5679c-72 0-134-26-184-77-28-28-48-60-60-94-150 128-327 201-525 212v192c0 142-116 257-258 257h-482c-141 0-257-115-257-257v-233h-477c-67 0-128-26-174-67-47 51-114 83-189 83h-482c-142 0-258-115-258-257h-40c0 142-115 257-257 257h-521c-142 0-258-115-258-257v-994h-143c-141 0-257-115-257-257v-506c0-141 116-257 257-257h466L876 2127c-33-82-25-168 25-241 49-74 125-114 213-114h605c64 0 123 23 169 62 45-39 104-62 169-62h582c8 0 16 0 24 1 86-64 187-98 298-98 132 0 252 48 347 140 97 93 151 214 151 349 0 72-14 140-42 203 17 27 30 58 35 91 151-158 347-233 564-238v-191c0-141 115-257 257-257h482c142 0 257 116 257 257v239c27 4 53 13 77 25 35-18 75-29 117-29h482c32 0 62 6 90 16 28-10 58-16 89-16h482c121 0 223 84 250 197 178-163 395-244 638-244 251 0 474 88 651 265 178 178 266 400 266 650 0 38-4 77-8 115-12 132-123 233-256 233h-47l14 17c17 21 31 43 41 67 48-13 99-20 151-20 308 0 561 234 591 533 235-108 473-214 703-331 131-66 296-153 400-260 97-100 256-105 358-11 103 94 113 252 22 358-79 93-162 180-255 260z" class="fil0"/>
      <path d="M2639 2029l-765 1857-760-1857h605l160 549 178-549z" class="fil2"/>
      <path id="1" d="M3199 2503v1283h-482V2503h482zm-238-571c65 0 121 23 169 69s72 100 72 163c0 66-23 122-68 164-45 43-103 65-173 65s-128-22-174-65c-45-42-67-98-67-164 0-63 23-117 71-163s104-69 170-69z" class="fil2"/>
      <path id="2" d="M4184 2491v514c-34-18-64-28-91-28-87 0-130 67-130 200v609h-482v-701c0-185 50-333 152-443 101-110 236-165 404-165 38 0 87 4 147 14z" class="fil2"/>
      <path id="3" d="M4755 2029v493h216v508h-216c0 102 16 172 48 211 32 38 90 58 176 58v505h-56c-109 0-211-25-307-76-97-50-174-119-232-205-74-110-111-257-111-439V2029h482z" class="fil2"/>
      <path id="4" d="M5206 2522h482v724c0 74 30 111 90 111 59 0 89-37 89-111v-724h482v715c0 166-55 307-166 421-110 115-245 173-406 173-182 0-329-67-441-200-86-104-130-248-130-433v-676z" class="fil2"/>
      <path id="5" d="M7890 3222h-729c-10-37-15-70-15-101 0-42 7-84 22-125h244c-17-97-71-145-161-145-60 0-108 25-146 77-38 51-57 117-57 196 0 84 18 151 55 203 36 51 84 77 143 77 48 0 95-24 139-72l274 329c-128 101-270 151-426 151-190 0-351-64-480-192-130-128-194-286-194-475 0-188 65-347 196-476 131-130 292-195 482-195 186 0 343 64 469 190 127 127 190 283 190 468 0 19-2 49-6 90z" class="fil2"/>
      <path d="M2036 4611v1251h-521V4611h-401v-506h1320v506zm1258-44v514c-34-18-64-28-91-28-87 0-130 67-130 201v608h-482v-701c0-185 50-333 152-443 101-110 236-165 404-165 38 0 87 4 147 14zm623-4v1282h-481V4563h481zm-238-571c66 0 122 23 170 69 47 45 71 100 71 162 0 67-22 122-67 165-46 43-103 64-174 64-70 0-128-21-173-64s-68-98-68-165c0-62 24-117 72-162 48-46 104-69 169-69zm973 2344h-482V5266c0-196 52-357 155-480 59-71 135-128 226-170s185-63 281-63c191 0 353 65 484 193 131 129 197 286 197 473 0 182-65 339-196 471-130 132-284 198-463 198-28 0-71-3-128-8v-530c39 30 79 46 118 46 50 0 93-19 129-56 35-36 53-80 53-130 0-51-18-94-55-130-38-35-81-53-133-53-124 0-186 86-186 257v1052z" class="fil3"/>
      <circle cx="8049" cy="4138" r="336" class="fil4"/>
      <path d="M7539 5845h1021l-12-576c0-295-223-534-499-534-275 0-498 239-498 534l-12 576z" class="fil5"/>
      <circle cx="6189" cy="4150" r="336" class="fil6"/>
      <path d="M5679 5845h1020l-12-576c0-295-223-534-498-534s-498 239-498 534l-12 576z" class="fil7"/>
      <circle cx="7124" cy="4222" r="336" class="fil8"/>
      <path d="M6613 5845h1021l-12-576c0-295-223-534-498-534s-499 239-499 534l-12 576z" class="fil8"/>
      <path d="M9637 3980c-191 100-291 171-460 234-1619 598-3175 533-4666-197 315 267 937 539 1281 688 1215 524 2350 339 3845-725z" class="fil8"/>
      <path d="M9928 3665c-214 220-595 371-1328 715 793-232 1015-351 1328-715zm-5701 102c305 464 637 639 1291 853-553-247-924-409-1291-853z" class="fil1"/>
      <path d="M10098 2905c-76 125-115 188-115 188 31 12 46 18 46 18-28 27-42 41-42 41-524-75-775-151-895-174 106 279 160 418 160 418h-105c-202-299-303-449-303-449-269-84-404-126-404-126-132-37-155-64-101-108 111-87 292-79 543 25 398-223 596-335 596-335 121 21 181 32 181 32-332 241-498 362-498 362 252 75 471 144 659 206 104-75 157-112 157-112 81 9 121 14 121 14z" class="fil9"/>
      <path d="M10112 2913l-106 172 28 11 22 9-16 16-42 42-6 6-7-2c-391-56-630-112-776-147-37-9-68-16-93-21l150 392 8 21h-135l-4-7-301-445-398-124c-69-20-110-37-128-56-23-26-14-50 21-79 59-46 135-67 230-62 91 4 198 31 322 82l590-331 10-2 181 32 36 6-30 21-473 344c115 34 222 67 324 99 107 34 207 65 298 96l151-107 10-3 122 14 24 2-12 21zm-142 172l103-168-92-10-152 108-7 4-7-2c-94-31-196-64-305-98-110-34-227-70-353-107l-30-9 25-18 469-342-140-24-591 332-6 4-7-3c-124-51-231-79-320-83-86-4-156 15-209 56-18 15-25 26-17 34 13 15 50 30 113 48l405 125 8 6 298 443h75l-153-397-10-26 27 5c32 6 71 15 122 27 145 35 381 90 766 146l19-20-23-9-17-6 9-16z" class="fil10"/>
      <path d="M7737 5396c3533-1323 3781-1716 2291-2257 1752 373 1516 1045-2291 2257z" class="fil9"/>
      <path d="M7731 5381c1765-660 2709-1088 3024-1417 305-318-2-545-733-810l9-30c892 190 1275 459 947 839-317 368-1330 840-3237 1447l-10-29zm3046-1396c-280 292-1044 659-2422 1192 1501-508 2322-912 2600-1234 277-321-9-560-713-738 606 243 833 469 535 780z" class="fil10"/>
    </g>
  </g>
</svg>
