<?xml version="1.0" encoding="UTF-8"?>
<!DOCTYPE svg PUBLIC "-//W3C//DTD SVG 1.1//EN" "http://www.w3.org/Graphics/SVG/1.1/DTD/svg11.dtd">
<!-- Creator: CorelDRAW X7 -->
<svg xmlns="http://www.w3.org/2000/svg" xml:space="preserve" width="11.6929in" height="8.26772in" version="1.1" style="shape-rendering:geometricPrecision; text-rendering:geometricPrecision; image-rendering:optimizeQuality; fill-rule:evenodd; clip-rule:evenodd"
viewBox="0 0 11693 8268"
 xmlns:xlink="http://www.w3.org/1999/xlink">
 <defs>
  <style type="text/css">
   <![CDATA[
    .fil0 {fill:#FEFEFE}
    .fil9 {fill:#F08519}
    .fil1 {fill:#A00E21}
    .fil8 {fill:#C42026}
    .fil10 {fill:#FEFEFE;fill-rule:nonzero}
    .fil2 {fill:#A00E21;fill-rule:nonzero}
    .fil3 {fill:#F29400;fill-rule:nonzero}
    .fil7 {fill:url(#id0)}
    .fil5 {fill:url(#id1)}
    .fil4 {fill:url(#id2)}
    .fil6 {fill:url(#id3)}
   ]]>
  </style>
  <linearGradient id="id0" gradientUnits="userSpaceOnUse" x1="6188.72" y1="4735.02" x2="6188.72" y2="5845.44">
   <stop offset="0" style="stop-opacity:1; stop-color:#C42026"/>
   <stop offset="1" style="stop-opacity:1; stop-color:#F5232A"/>
  </linearGradient>
  <linearGradient id="id1" gradientUnits="userSpaceOnUse" xlink:href="#id0" x1="8049.44" y1="4735.02" x2="8049.44" y2="5845.44">
  </linearGradient>
  <linearGradient id="id2" gradientUnits="userSpaceOnUse" xlink:href="#id0" x1="8049.45" y1="3801.65" x2="8049.45" y2="4473.93">
  </linearGradient>
  <linearGradient id="id3" gradientUnits="userSpaceOnUse" xlink:href="#id0" x1="6188.72" y1="3813.65" x2="6188.72" y2="4485.93">
  </linearGradient>
 </defs>
 <g id="Layer_x0020_1">
  <metadata id="CorelCorpID_0Corel-Layer"/>
  <g id="_414456792">
   <g>
    <g>
     <path class="fil0" d="M5778 2015c29,-5 59,-8 89,-8l482 0c110,0 216,35 304,99 179,-99 378,-146 584,-146 319,0 607,114 833,340 226,226 341,514 341,832 0,47 -4,93 -8,139 -3,29 -8,58 -16,86 172,74 315,203 406,367 146,-67 290,-135 433,-207 105,-53 250,-126 332,-210 194,-200 512,-209 717,-22 204,186 223,506 43,716 -77,90 -159,177 -248,257 -35,55 -81,103 -135,141 -293,209 -596,404 -915,571 28,95 42,194 42,292l12 573c3,140 -48,270 -147,371 -98,100 -226,154 -367,154l-2881 0c-105,0 -204,-29 -289,-88 -71,38 -146,68 -224,89 -13,272 -238,490 -514,490l-482 0c-275,0 -501,-218 -514,-491l-220 0c-55,0 -109,-8 -160,-25 -64,27 -133,42 -203,42l-482 0c-99,0 -195,-29 -278,-82 -82,53 -178,82 -277,82l-521 0c-284,0 -515,-231 -515,-515l0 -749c-231,-53 -400,-260 -400,-502l0 -506c0,-283 231,-514 514,-514l83 0 -559 -1367c-66,-161 -48,-337 49,-482 97,-144 253,-227 427,-227l605 0c57,0 114,9 169,27 54,-18 111,-27 169,-27l531 0c114,-65 241,-98 373,-98 198,0 382,75 525,212 110,105 184,236 215,382 19,-6 39,-11 58,-16 18,-268 242,-480 514,-480l482 0c276,0 502,218 514,492l419 0c30,0 60,3 90,8z"/>
    </g>
    <path class="fil1" d="M1888 1621c53,-22 110,-33 169,-33l551 0c107,-64 227,-97 353,-97 180,0 345,67 475,191 120,116 192,265 205,428 61,-25 125,-43 191,-56l0 -25c0,-243 198,-441 441,-441l482 0c243,0 441,198 441,441l0 52c4,0 7,-1 10,-1l482 0c30,0 60,4 90,10 29,-6 59,-10 89,-10l482 0c113,0 218,44 297,116 176,-109 377,-163 591,-163 299,0 569,107 781,319 212,212 320,481 320,780 0,45 -4,88 -9,132 -4,48 -16,94 -35,136 207,68 376,222 465,420 168,-77 336,-154 500,-238 112,-56 265,-134 352,-224 166,-171 438,-179 614,-19 176,160 192,434 38,614 -78,90 -160,178 -249,257 -31,51 -73,95 -121,130 -307,218 -626,422 -962,594 38,105 57,217 58,330l12 572c2,121 -41,232 -126,318 -85,87 -194,133 -315,133l-2881 0c-107,0 -204,-35 -283,-102 -94,55 -196,95 -302,119l0 32c0,243 -199,441 -442,441l-482 0c-243,0 -441,-198 -441,-441l0 -49 -293 0c-57,0 -112,-11 -164,-32 -61,31 -129,48 -199,48l-482 0c-105,0 -202,-37 -278,-98 -75,61 -172,98 -277,98l-521 0c-244,0 -442,-198 -442,-441l0 -812c-224,-20 -400,-210 -400,-439l0 -506c0,-243 198,-441 441,-441l193 0 -601 -1467c-57,-139 -41,-289 42,-414 83,-124 217,-195 366,-195l605 0c58,0 116,11 169,33z"/>
    <path class="fil0" d="M9868 4093c-18,37 -46,71 -82,97 -346,246 -712,476 -1097,658 73,123 116,267 116,418l12 574c2,72 -23,134 -73,186 -51,51 -113,77 -184,77l-2881 0c-72,0 -134,-26 -184,-77 -28,-28 -48,-60 -60,-94 -150,128 -327,201 -525,212l0 192c0,142 -116,257 -258,257l-482 0c-141,0 -257,-115 -257,-257l0 -233 -477 0c-67,0 -128,-26 -174,-67 -47,51 -114,83 -189,83l-482 0c-142,0 -258,-115 -258,-257 0,0 -40,0 -40,0 0,142 -115,257 -257,257l-521 0c-142,0 -258,-115 -258,-257l0 -994 -143 0c-141,0 -257,-115 -257,-257l0 -506c0,-141 116,-257 257,-257l466 0 -704 -1721c-33,-82 -25,-168 25,-241 49,-74 125,-114 213,-114l605 0c64,0 123,23 169,62 45,-39 104,-62 169,-62l582 0c8,0 16,0 24,1 86,-64 187,-98 298,-98 132,0 252,48 347,140 97,93 151,214 151,349 0,72 -14,140 -42,203 17,27 30,58 35,91 151,-158 347,-233 564,-238l0 -191c0,-141 115,-257 257,-257l482 0c142,0 257,116 257,257l0 239c27,4 53,13 77,25 35,-18 75,-29 117,-29l482 0c32,0 62,6 90,16 28,-10 58,-16 89,-16l482 0c121,0 223,84 250,197 178,-163 395,-244 638,-244 251,0 474,88 651,265 178,178 266,400 266,650 0,38 -4,77 -8,115 -12,132 -123,233 -256,233l-47 0 14 17c17,21 31,43 41,67 48,-13 99,-20 151,-20 308,0 561,234 591,533 235,-108 473,-214 703,-331 131,-66 296,-153 400,-260 97,-100 256,-105 358,-11 103,94 113,252 22,358 -79,93 -162,180 -255,260z"/>
    <g>
     <polygon class="fil2" points="2639,2029 1874,3886 1114,2029 1719,2029 1879,2578 2057,2029 "/>
     <path id="1" class="fil2" d="M3199 2503l0 1283 -482 0 0 -1283 482 0zm-238 -571c65,0 121,23 169,69 48,46 72,100 72,163 0,66 -23,122 -68,164 -45,43 -103,65 -173,65 -70,0 -128,-22 -174,-65 -45,-42 -67,-98 -67,-164 0,-63 23,-117 71,-163 48,-46 104,-69 170,-69z"/>
     <path id="2" class="fil2" d="M4184 2491l0 514c-34,-18 -64,-28 -91,-28 -87,0 -130,67 -130,200l0 609 -482 0 0 -701c0,-185 50,-333 152,-443 101,-110 236,-165 404,-165 38,0 87,4 147,14z"/>
     <path id="3" class="fil2" d="M4755 2029l0 493 216 0 0 508 -216 0c0,102 16,172 48,211 32,38 90,58 176,58l0 505c-25,0 -44,0 -56,0 -109,0 -211,-25 -307,-76 -97,-50 -174,-119 -232,-205 -74,-110 -111,-257 -111,-439l0 -1055 482 0z"/>
     <path id="4" class="fil2" d="M5206 2522l482 0 0 724c0,74 30,111 90,111 59,0 89,-37 89,-111l0 -724 482 0 0 715c0,166 -55,307 -166,421 -110,115 -245,173 -406,173 -182,0 -329,-67 -441,-200 -86,-104 -130,-248 -130,-433l0 -676z"/>
     <path id="5" class="fil2" d="M7890 3222l-729 0c-10,-37 -15,-70 -15,-101 0,-42 7,-84 22,-125l244 0c-17,-97 -71,-145 -161,-145 -60,0 -108,25 -146,77 -38,51 -57,117 -57,196 0,84 18,151 55,203 36,51 84,77 143,77 48,0 95,-24 139,-72l274 329c-128,101 -270,151 -426,151 -190,0 -351,-64 -480,-192 -130,-128 -194,-286 -194,-475 0,-188 65,-347 196,-476 131,-130 292,-195 482,-195 186,0 343,64 469,190 127,127 190,283 190,468 0,19 -2,49 -6,90z"/>
     <polygon class="fil3" points="2036,4611 2036,5862 1515,5862 1515,4611 1114,4611 1114,4105 2434,4105 2434,4611 "/>
     <path class="fil3" d="M3294 4567l0 514c-34,-18 -64,-28 -91,-28 -87,0 -130,67 -130,201l0 608 -482 0 0 -701c0,-185 50,-333 152,-443 101,-110 236,-165 404,-165 38,0 87,4 147,14z"/>
     <path class="fil3" d="M3917 4563l0 1282 -481 0 0 -1282 481 0zm-238 -571c66,0 122,23 170,69 47,45 71,100 71,162 0,67 -22,122 -67,165 -46,43 -103,64 -174,64 -70,0 -128,-21 -173,-64 -45,-43 -68,-98 -68,-165 0,-62 24,-117 72,-162 48,-46 104,-69 169,-69z"/>
     <path class="fil3" d="M4652 6336l-482 0 0 -1070c0,-196 52,-357 155,-480 59,-71 135,-128 226,-170 91,-42 185,-63 281,-63 191,0 353,65 484,193 131,129 197,286 197,473 0,182 -65,339 -196,471 -130,132 -284,198 -463,198 -28,0 -71,-3 -128,-8l0 -530c39,30 79,46 118,46 50,0 93,-19 129,-56 35,-36 53,-80 53,-130 0,-51 -18,-94 -55,-130 -38,-35 -81,-53 -133,-53 -124,0 -186,86 -186,257l0 1052z"/>
     <g>
      <g>
       <circle class="fil4" cx="8049" cy="4138" r="336"/>
       <path class="fil5" d="M7539 5845l1021 0 -12 -576c0,-295 -223,-534 -499,-534 -275,0 -498,239 -498,534l-12 576z"/>
      </g>
      <g>
       <circle class="fil6" cx="6189" cy="4150" r="336"/>
       <path class="fil7" d="M5679 5845l1020 0 -12 -576c0,-295 -223,-534 -498,-534 -275,0 -498,239 -498,534l-12 576z"/>
      </g>
      <circle class="fil8" cx="7124" cy="4222" r="336"/>
      <path class="fil8" d="M6613 5845l1021 0 -12 -576c0,-295 -223,-534 -498,-534 -275,0 -499,239 -499,534l-12 576z"/>
      <path class="fil8" d="M9637 3980c-191,100 -291,171 -460,234 -1619,598 -3175,533 -4666,-197 315,267 937,539 1281,688 1215,524 2350,339 3845,-725z"/>
      <path class="fil1" d="M9928 3665c-214,220 -595,371 -1328,715 793,-232 1015,-351 1328,-715z"/>
      <path class="fil1" d="M4227 3767c305,464 637,639 1291,853 -553,-247 -924,-409 -1291,-853z"/>
     </g>
    </g>
   </g>
   <path class="fil9" d="M10098 2905c-76,125 -115,188 -115,188 31,12 46,18 46,18 -28,27 -42,41 -42,41 -524,-75 -775,-151 -895,-174 106,279 160,418 160,418 -70,0 -105,0 -105,0 -202,-299 -303,-449 -303,-449 -269,-84 -404,-126 -404,-126 -132,-37 -155,-64 -101,-108 111,-87 292,-79 543,25 398,-223 596,-335 596,-335 121,21 181,32 181,32 -332,241 -498,362 -498,362 252,75 471,144 659,206 104,-75 157,-112 157,-112 81,9 121,14 121,14z"/>
   <path class="fil10" d="M10112 2913l-106 172 28 11 22 9 -16 16 -42 42 -6 6 -7 -2c-391,-56 -630,-112 -776,-147 -37,-9 -68,-16 -93,-21l150 392 8 21 -22 0 -105 0 -8 0 -4 -7 -301 -445 -398 -124 0 0c-69,-20 -110,-37 -128,-56 -23,-26 -14,-50 21,-79l0 0c59,-46 135,-67 230,-62 91,4 198,31 322,82l590 -331 10 -2 181 32 36 6 -30 21 -473 344c115,34 222,67 324,99 107,34 207,65 298,96l151 -107 10 -3 122 14 24 2 -12 21zm-142 172l103 -168 -92 -10 -152 108 -7 4 -7 -2c-94,-31 -196,-64 -305,-98 -110,-34 -227,-70 -353,-107l-30 -9 25 -18 469 -342 -140 -24 -591 332 -6 4 -7 -3c-124,-51 -231,-79 -320,-83 -86,-4 -156,15 -209,56l0 0c-18,15 -25,26 -17,34 13,15 50,30 113,48l0 0 405 125 8 6 298 443 75 0 -153 -397 -10 -26 27 5c32,6 71,15 122,27 145,35 381,90 766,146l19 -20 -23 -9 -17 -6 9 -16z"/>
   <path class="fil9" d="M7737 5396c3533,-1323 3781,-1716 2291,-2257 1752,373 1516,1045 -2291,2257z"/>
   <path class="fil10" d="M7731 5381c1765,-660 2709,-1088 3024,-1417 305,-318 -2,-545 -733,-810l9 -30c892,190 1275,459 947,839 -317,368 -1330,840 -3237,1447l-10 -29zm3046 -1396c-280,292 -1044,659 -2422,1192 1501,-508 2322,-912 2600,-1234 277,-321 -9,-560 -713,-738 606,243 833,469 535,780z"/>
  </g>
 </g>
</svg>
