<svg xmlns="http://www.w3.org/2000/svg" fill-rule="evenodd" shape-rendering="geometricPrecision" text-rendering="geometricPrecision" image-rendering="optimizeQuality" clip-rule="evenodd" viewBox="0 0 1062 916">
  <path fill="#3A383B" d="M186 514l58-13v-25l-58-13c-30-7-68 0-68 19v13c0 19 38 26 68 19z"/>
  <path fill="#3A383B" d="M958 755l99 15-89-96c-1-3-3-8-10-18-12-20-5-36 0-45l-15 17 18-27c-34-21-73-39-118-54 13-4 23-17 23-32v-22l58 13c30 7 68 0 68-19v-13c0-19-38-26-68-19l-58 12v-12c0-7-1-12-4-17 25 9 58 12 58 12s-2-14-7-30c28 5 65-1 65-1s-15-30-34-48c5-1 10-2 16-5 26-10 51-54 51-54s-55-12-81-2c-3 2-6 3-9 5-2-24-18-55-18-55s-30 20-45 41c-10-14-21-24-21-24s-16 20-25 40c-4-5-9-10-13-15 4-13 6-29 6-48 1-58-81-131-151-131-3 0-6 1-10 1-12-46-63-81-123-81-6 0-13 0-21 1-66 4-119 54-130 119-70-43-116 7-116 64 0 33 19 62 48 81-6 5-15 13-22 21-10-23-32-46-32-46s-10 11-19 25c-16-20-47-38-47-38s-14 30-15 54c-4-2-10-5-15-7-27-8-81 7-81 7s29 43 56 51l11 3c-19 18-33 50-33 50s39 4 66-1c-4 16-4 29-4 29s6-1 16-3v62c0 19 15 34 34 34-43 15-81 32-113 52l25 39-25-29c6 9 12 25 0 45-19 31-6 17-6 17L9 770l99-15-24 161 64-73c1 0 2-2 4-3v-1l1-1 3-4c1 0 2-1 3-2l1-2 1-1 10-11c1-1 2-3 3-4l6-7 6-6 1-1c1-1 2-2 3-4l3-3c1-1 1-2 2-2l9-10c1-2 2-3 4-5l7-9c2-1 3-2 4-4l5-5 1-1 3-4 7-7 4-5c1-1 1-2 2-3l1-1c2-1 3-3 4-4 70-21 151-33 237-36h99c84 2 164 15 233 35 10 11 77 87 96 108-5-6-9-12-13-18l84 94-24-161zM258 392v-2c1 0 3-1 4-2 1 1 1 2 1 2-2 1-3 1-5 2zm43 28h-2c1-4 1-8 0-12 5-2 10-5 15-9 0 5 2 10 4 15-6 1-11 3-17 6zm29-64c-1-13-7-28-12-39 13 6 26 10 41 13-7 5-19 15-29 26zm49 64h-9c4-3 7-8 9-13v13zm-12-90c4 1 8 1 11 1 1 9 2 18 2 28-4-12-9-23-13-29zm355 90h-22l18-7-20 7h-14c-1-14-2-28-2-42 0-17 1-34 2-50 7 8 14 15 21 20-3 9-5 18-4 25 3 17 13 31 24 37l-3 10zm58-11c-5-4-10-7-15-9 3-4 5-10 6-17 4 5 8 8 12 10-3 5-4 10-3 16zm44-25s-1 0-2-1c1-1 2-2 3-4l1 1c-1 1-1 3-2 4zm153 468l-4-4 4 4z"/>
  <path fill="#F2E2A2" d="M960 330c-26 11-54 7-62-9-8-15 6-36 32-47 26-10 81 2 81 2s-25 44-51 54z"/>
  <path fill="#FEFEFE" d="M960 330l-3-7c-9 3-18 5-26 5-7 0-13-1-17-3-2-1-4-2-6-4-1-1-2-2-3-4-1-1-1-3-1-5s0-4 2-7c1-4 5-8 9-12 5-4 11-8 18-11 3-1 7-2 12-3 5 0 10-1 15-1 12 0 24 2 34 3 1 0 2 1 3 1 3 0 0 1-9 13-5 6-10 12-15 17-6 5-11 9-16 11l3 7 3 8c8-3 15-8 22-15 9-9 18-19 24-28s9-15 9-15l6-10-11-3s-7-1-17-2c-10-2-23-3-36-3-6 0-12 0-17 1-6 0-11 2-16 4-12 4-21 11-28 19-4 3-7 8-9 12-2 5-3 9-3 14s1 9 3 13 5 7 7 9c5 4 10 6 16 8 5 2 11 3 18 3 10 0 21-3 32-7l-3-8z"/>
  <path fill="#F2E2A2" d="M920 293c-7 24-28 40-47 36s-29-27-22-51c7-25 52-54 52-54s24 44 17 69z"/>
  <path fill="#FEFEFE" d="M920 293l-8-3c-3 10-8 18-14 23-3 3-7 5-10 6-3 2-6 2-9 2h-5c-5-1-9-4-12-9-3-4-5-11-5-19 0-4 1-8 2-13 1-4 5-10 10-16 7-8 17-17 25-23 2-2 4-3 6-5 1-1 1 1 5 12 2 5 4 11 5 17 2 6 3 12 3 17 0 4-1 6-1 8l8 3 8 2c1-4 1-8 1-13 0-7-1-14-3-21-2-11-6-21-9-29-4-7-6-12-6-12l-5-8-8 5s-11 7-24 18c-6 6-13 12-18 19-6 6-11 13-13 21-2 7-3 13-3 18 0 11 3 21 8 28 5 8 13 14 23 16 2 1 5 1 8 1 5 0 11-1 16-3 7-3 14-9 20-16 6-6 10-15 13-24l-8-2z"/>
  <path fill="#D6A964" d="M897 380c-26-12-39-34-30-49 10-15 38-17 63-6 25 12 48 57 48 57s-56 10-81-2z"/>
  <path fill="#FEFEFE" d="M897 380l3-8c-9-4-16-9-20-15-3-3-4-6-6-8-1-3-1-5-1-7s0-4 2-6c1-3 4-5 8-7 4-1 9-2 15-2 9 0 19 2 28 6 5 2 11 7 16 12 8 8 15 19 20 27 1 1 2 3 2 4 2 2-9 1-29 1-7 0-13 0-19-1-7-1-12-2-16-4l-3 8-4 8c6 2 13 4 20 5s15 1 22 1c23 0 44-3 44-3l11-2-5-10s-6-12-15-25c-4-7-10-14-16-21-6-6-13-12-21-15-11-6-24-8-35-8-8 0-15 1-22 4-6 2-12 7-16 13-3 5-4 10-4 15s1 9 3 13c3 7 7 13 13 18 6 6 13 11 21 15l4-8z"/>
  <path fill="#F2E2A2" d="M877 302c2 25-13 47-32 48-20 1-37-18-39-43s31-66 31-66 38 36 40 61z"/>
  <path fill="#FEFEFE" d="M877 302l-9 1c1 1 1 3 1 4 0 10-3 19-8 25-2 3-5 5-8 7-2 1-5 2-9 2h-1c-3 0-6 0-9-2-5-2-10-7-13-12-3-6-6-13-6-21v-2c0-4 1-10 4-17 4-10 10-20 15-28 1-2 3-3 4-5s3 3 12 15c5 6 9 12 13 18 3 6 5 12 5 16l9-1h8c0-8-4-16-8-24-6-11-15-22-22-30s-12-13-12-13l-7-6-6 7s-8 10-16 23c-4 7-8 14-11 22-3 7-5 15-5 23v3c1 14 6 26 14 36 4 4 9 8 14 11s11 4 17 4h2c6 0 12-2 17-5 7-4 13-11 17-19s6-17 6-27v-5h-8z"/>
  <path fill="#D6A964" d="M843 392c-20-18-26-42-12-54 13-12 41-8 62 9 20 18 27 67 27 67s-56-5-77-22z"/>
  <path fill="#FEFEFE" d="M843 392l6-7c-6-5-10-10-13-15-3-6-4-11-4-15 0-2 0-4 1-6s2-3 3-5c2-1 4-2 7-3 2-1 5-2 8-2 6 0 12 2 18 4s13 6 18 11c4 3 8 9 11 15 5 10 9 21 11 30 0 2 0 4 1 5 0 3-5 0-20-3-8-2-17-4-24-7-7-2-14-6-17-9l-6 7-5 6c6 5 14 9 23 12 13 5 28 8 39 10s19 2 19 2l11 1-2-10c0-1-1-13-6-28-2-8-5-16-9-24-4-7-9-14-15-20-7-6-15-10-23-14-8-3-16-4-24-4-4 0-9 0-14 2-4 1-8 3-12 7-3 3-6 6-8 11-1 4-2 8-2 12 0 8 2 15 6 23 4 7 10 14 17 20l5-6z"/>
  <path fill="#F2E2A2" d="M829 312c4 24-9 46-28 49-19 2-38-16-42-41s25-67 25-67 41 34 45 59z"/>
  <path fill="#FEFEFE" d="M829 312l-8 1v8c0 9-2 16-6 22-2 3-4 5-7 6-2 2-5 3-8 3-1 0-1 1-2 1-3 0-7-1-10-3-5-2-9-6-13-11-4-6-7-13-8-20v-4c0-5 1-11 3-18 4-9 9-19 13-27 2-4 4-7 6-9 0-1 1-2 1-3h1l-7-5-5 6c1 1 11 10 21 21 5 5 10 11 14 17 3 6 6 12 7 16l8-1 8-2c-1-8-5-15-10-23-7-11-16-21-24-28-8-8-14-12-14-13l-7-5-5 7s-7 10-13 23c-4 6-7 14-9 21-3 8-5 15-5 23 0 2 0 4 1 6 2 14 8 25 16 34 4 4 9 8 14 10 5 3 11 4 17 4h4c6-1 11-2 15-5 7-5 12-11 16-18 3-8 5-16 5-25 0-4 0-7-1-11l-8 2z"/>
  <path fill="#D6A964" d="M791 403c-16-21-15-46 1-55s42 0 58 21 10 70 10 70-53-15-69-36z"/>
  <path fill="#FEFEFE" d="M791 403l7-5c-7-9-10-19-10-26 0-4 1-8 2-10 1-3 3-5 6-7 3-1 6-2 10-2 6 0 13 1 19 5 7 4 13 9 18 16 2 2 4 5 5 9 2 5 3 11 4 18s1 13 1 19v13c-1 2-1 3-1 4v1l8 1 3-8c-2-1-15-5-30-11-7-3-14-6-21-10-6-4-12-9-14-12l-7 5-7 5c5 6 12 12 20 16 12 7 25 13 36 17 10 4 18 6 18 6l10 3 1-10s1-9 1-20c0-8-1-18-3-28 0-5-2-10-3-15-2-5-4-9-7-13-7-9-15-16-24-21-8-4-17-7-27-7-6 0-13 1-18 5-6 3-10 7-13 13-3 5-4 11-4 18 0 12 5 24 13 36l7-5z"/>
  <path fill="#F2E2A2" d="M771 329c4 24-8 46-27 49-20 2-39-16-43-41s25-67 25-67 42 34 45 59z"/>
  <path fill="#FEFEFE" d="M771 329l-8 1c1 3 1 5 1 8 0 9-3 16-7 22-2 3-4 5-6 7-3 1-5 2-8 2-1 1-2 1-3 1-3 0-6-1-9-3-5-2-10-6-14-11-3-6-6-13-7-20 0-1-1-3-1-4 0-5 2-11 4-17 3-10 8-20 13-28 2-4 4-7 5-9 1-1 1-2 2-2v-1l-7-5-5 6v1c1 0 11 9 21 20 5 5 10 11 14 17s7 12 7 16l8-1 9-2c-2-8-5-15-10-23-7-10-17-21-24-28-8-8-14-12-14-13l-7-5-6 7s-6 10-13 23c-3 6-6 14-9 21-2 8-4 15-4 23v6c2 14 8 25 16 34 4 4 9 8 14 10 6 3 11 4 17 4h5c5-1 10-2 15-5 6-5 12-11 15-18 4-8 6-16 6-25 0-4-1-7-1-11l-9 2z"/>
  <path fill="#3A383B" d="M733 420c-15-21-15-46 1-55 17-9 43 0 59 21 15 21 10 70 10 70s-54-15-70-36z"/>
  <path fill="#FEFEFE" d="M733 420l7-5c-7-9-10-19-10-26 0-4 1-8 3-10 1-3 3-5 6-7 2-1 6-2 10-2 6 0 12 2 19 5 6 4 13 9 18 16 2 2 3 5 4 9 2 5 4 12 4 18 1 7 1 13 1 19v18l8 1 2-8c-1-1-14-5-29-11-7-3-15-6-21-10-7-4-12-9-15-12l-7 5-6 5c5 6 12 12 20 16 11 7 25 13 35 17 11 4 19 6 19 6l9 3 1-10s1-9 1-20c0-8 0-18-2-28-1-5-2-10-4-15s-4-9-7-13c-6-9-14-16-23-21-9-4-18-7-27-7-7 0-13 1-19 5-5 3-10 7-12 13-3 5-5 11-5 18 0 12 5 24 14 36l6-5z"/>
  <path fill="#3A383B" d="M349 518l369-141-347 148c-8 3-18 0-22-7z"/>
  <path fill="#F2E2A2" d="M152 281c27 9 43 29 36 45-6 16-34 22-61 13-27-8-56-51-56-51s54-15 81-7z"/>
  <path fill="#FEFEFE" d="M152 281l-3 8c11 4 19 9 25 14 2 3 4 6 6 8 1 3 2 5 2 7s-1 3-1 5c-1 1-2 3-4 4-2 2-5 4-10 6-4 1-9 2-15 2-7 0-14-1-22-4-5-1-12-5-18-10-9-7-17-17-24-24-1-1-2-2-2-4-2-2-3 1 8-1 11-3 25-5 37-5 7 0 14 1 18 2l3-8 2-8c-7-2-15-3-23-3-14 0-30 3-42 5l-20 5-11 4 6 9s8 11 19 23c6 6 12 13 19 18 7 6 15 11 23 13 9 3 18 5 27 5 10 0 19-2 27-6 3-1 7-4 10-7 3-2 6-6 7-10 2-3 2-7 2-11 0-5-1-10-3-14-4-7-9-13-16-18s-15-10-25-13l-2 8z"/>
  <path fill="#D6A964" d="M150 333c24-13 53-12 63 3 10 14-2 37-27 50-25 12-81 6-81 6s20-46 45-59z"/>
  <path fill="#FEFEFE" d="M150 333l4 7c10-5 21-8 30-8 5 0 10 1 14 3 3 1 6 3 8 6 1 2 2 4 2 6 0 3-1 5-2 8s-4 8-8 12-10 8-16 11c-5 3-12 4-20 6-8 1-16 1-24 1s-14 0-20-1h-3c-2 0 4-2 11-14 4-6 8-12 13-18 5-5 10-9 15-12l-4-7-4-8c-8 4-14 10-20 17-9 10-16 21-21 30-4 10-7 16-7 16l-5 11 11 1c1 0 15 2 34 2 8 0 18-1 27-2s17-3 25-7c10-5 19-12 25-20 3-4 5-8 7-12 2-5 3-9 3-14s-2-11-6-16c-3-5-9-9-15-12-6-2-13-4-20-4-12 0-26 4-38 10l4 8z"/>
  <path fill="#F2E2A2" d="M237 285c8 24 0 48-19 53s-41-11-49-35 12-69 12-69 47 27 56 51z"/>
  <path fill="#FEFEFE" d="M237 285l-8 3c2 5 2 11 2 16 0 7-1 13-4 17s-6 7-11 9h-5c-6 0-13-2-19-8-6-5-12-12-15-22-1-2-2-6-2-10 0-6 1-12 2-18 2-9 5-18 8-24v-2c1-2 5 2 17 12 6 5 12 10 17 15 5 6 8 11 10 15l8-3 8-3c-3-7-8-14-14-21-9-9-21-18-29-24-9-7-16-11-16-11l-8-4-4 8s-4 8-8 20c-2 6-4 12-5 19s-2 14-2 21c0 5 0 11 2 16 4 12 11 22 20 29s19 12 30 12c3 0 6 0 9-1 9-3 16-8 21-16 5-7 7-17 7-26 0-7-1-14-3-22l-8 3z"/>
  <path fill="#D6A964" d="M188 352c19-19 46-25 61-14 14 12 11 36-8 55s-75 27-75 27 3-49 22-68z"/>
  <path fill="#FEFEFE" d="M188 352l6 6c5-5 12-10 18-12 6-3 13-5 18-5 6 0 10 2 14 4 2 2 3 3 4 5 1 3 1 5 1 8 0 4-1 9-3 14s-6 10-11 15c-3 3-10 7-17 10-11 5-24 9-35 11-2 1-5 2-7 2s0-3 3-16c1-7 3-14 6-21 2-6 5-11 9-15l-6-6-6-6c-6 6-10 14-13 22-5 12-8 24-9 35-2 10-2 17-2 17v10l10-1s14-3 31-7c8-3 17-6 26-9 8-4 16-8 22-14s11-13 14-20 5-14 5-21c0-5-1-10-3-14-2-5-5-9-9-12-7-5-15-8-24-8-8 0-16 2-25 6-8 4-16 9-23 16l6 6z"/>
  <path fill="#F2E2A2" d="M284 310c0 25-15 45-35 46-19 0-35-20-36-45 0-25 35-64 35-64s36 38 36 63z"/>
  <path fill="#FEFEFE" d="M284 310h-8v1c0 10-4 20-9 26-2 3-5 6-8 8-3 1-6 2-10 2-3 0-7-1-10-2-4-3-9-7-12-13s-5-13-5-21v-1c0-4 1-10 4-17 5-10 12-20 17-28 2-2 3-4 5-5 1-2 3 3 12 15 4 6 8 12 11 19 3 6 4 12 5 16h16c0-9-3-17-6-24-6-12-14-23-20-31-7-8-12-14-12-14l-7-7-6 7s-9 10-18 23c-4 7-9 15-12 22-4 8-6 16-6 24v1c0 14 5 27 12 37 4 5 9 9 14 12 6 2 12 4 18 4 7 0 13-2 18-5 8-4 14-11 19-19 4-9 6-19 6-29v-1h-8z"/>
  <path fill="#3A383B" d="M229 375c17-20 44-28 60-17 15 10 14 34-4 54-17 20-72 33-72 33s-1-50 16-70z"/>
  <path fill="#FEFEFE" d="M229 375l6 6c6-6 12-11 19-15 6-3 13-4 18-4s9 1 12 3c2 1 4 3 5 6 1 2 2 5 2 8 0 8-4 19-12 28-3 4-9 8-16 11-11 6-24 11-34 14-5 1-9 2-13 3-1 1-2 1-3 1h-1l1 9 9-1v-3c0-5 0-17 2-29 1-6 2-13 4-18 2-6 5-10 7-13l-6-6-6-5c-5 5-8 12-10 18-4 10-6 21-7 31s-1 18-1 22v14l10-2s14-3 31-9c8-3 17-6 25-11 8-4 15-9 21-15 10-12 16-26 16-39 0-5-1-11-4-16-2-5-6-9-11-12-6-4-13-6-21-6s-17 2-26 6c-8 5-16 11-23 19l6 5z"/>
  <path fill="#F2E2A2" d="M330 334c-6 25-26 42-45 38-19-3-30-26-24-50 5-25 49-56 49-56s26 44 20 68z"/>
  <path fill="#FEFEFE" d="M330 334l-8-2c-3 10-7 18-13 24-3 3-7 5-10 6-3 2-6 3-9 3-1 0-3-1-4-1-3 0-5-1-7-3-3-2-6-6-8-10s-4-10-4-16c0-4 1-7 2-11s4-10 8-16c7-9 17-18 24-25 4-3 8-6 10-7l3-3h1l-5-7-7 4c0 1 5 10 10 21 2 6 5 12 7 18 1 6 2 12 2 17v6l8 2 8 2c1-3 1-6 1-10 0-7-1-15-3-22-4-11-8-21-12-29s-7-13-7-13l-4-8-8 5s-11 8-23 20c-6 5-13 12-18 19s-10 14-12 22c-1 5-1 10-1 15 0 11 3 21 8 30 3 4 6 7 10 10s9 5 14 6h7c5 0 11-1 16-3 8-4 15-9 20-16 6-8 10-16 12-26l-8-2z"/>
  <path fill="#3A383B" d="M284 399c17-20 44-28 59-18 16 10 14 35-3 55s-72 32-72 32-2-49 16-69z"/>
  <path fill="#FEFEFE" d="M284 399l6 5c5-6 12-11 18-14 7-3 13-5 19-5 5 0 9 1 12 3 2 2 4 4 5 6s2 5 2 9c0 8-4 18-12 27-4 4-9 8-16 12-11 5-24 10-34 13-5 2-10 3-13 4h-4c0 1 0 1-1 1l2 8h8v-3c0-6 0-18 3-30 0-6 2-12 4-18 2-5 4-10 7-13l-6-5-7-6c-4 6-8 12-10 19-4 10-5 21-6 30-1 10-2 18-2 23v3l1 10 10-2s14-3 30-9c8-3 17-6 25-10 8-5 16-9 21-16 11-12 16-25 16-38 0-6-1-11-3-16-3-5-6-10-11-13-6-4-14-6-21-6-9 0-18 3-26 7-9 4-17 10-24 18l7 6z"/>
  <path fill="#F2E2A2" d="M384 358c-5 24-26 41-45 38-19-4-30-26-24-51 6-24 50-56 50-56s25 44 19 69z"/>
  <path fill="#FEFEFE" d="M384 358l-8-2c-2 9-7 18-13 23-3 3-6 5-9 7-4 1-7 2-10 2h-3c-3-1-5-2-8-3-3-3-6-6-8-11-2-4-3-10-3-16 0-3 0-7 1-11s4-10 9-16c7-9 16-18 24-24 4-3 7-6 10-8 1-1 2-2 3-2v-1l-4-7-8 4v1c1 0 6 9 11 21 2 5 4 11 6 18 2 6 3 12 3 17 0 2 0 4-1 6l8 2 9 2c0-4 1-7 1-10 0-8-2-15-4-23-3-11-8-21-11-29-4-8-7-13-7-13l-5-8-7 5c-1 1-12 9-24 20-6 6-12 12-17 19-6 7-10 14-12 22v1-1c-1 5-2 10-2 15 0 11 3 22 9 30 2 4 6 8 10 10 4 3 9 5 14 6 2 1 4 1 6 1 6 0 11-2 17-4 7-3 14-9 20-16 5-7 9-16 12-25l-9-2z"/>
  <path fill="#3A383B" d="M742 512c-4 7-13 11-21 8L369 399l373 113z"/>
  <path fill="#EFAD76" d="M839 513H210c-15 0-27-12-27-27v-74c0-15 12-28 27-28h629c15 0 27 13 27 28v74c0 15-12 27-27 27z"/>
  <path fill="#3A383B" d="M839 513v-8H210c-5 0-10-2-13-6-4-3-6-8-6-13v-74c0-5 2-10 6-14 3-3 8-5 13-5h629c5 0 10 2 13 5 4 4 6 9 6 14v74c0 5-2 10-6 13-3 4-8 6-13 6v17c10 0 19-5 25-11 7-7 11-16 11-25v-74c0-10-4-19-11-26-6-6-15-10-25-10H210c-9 0-19 4-25 10-7 7-11 16-11 26v74c0 9 4 18 11 25 6 6 16 11 25 11h629v-9z"/>
  <path fill="#D09869" d="M124 419c-30-7-69 0-69 19v13c0 19 39 25 69 19l57-13v-26l-57-12z"/>
  <path fill="#3A383B" d="M124 419l1-9c-8-1-16-2-24-2-13 0-25 2-35 6-5 2-10 5-13 9-2 2-4 4-5 7-1 2-1 5-1 8v13c0 2 0 5 1 8 2 4 5 8 9 11 6 4 12 6 20 8 7 2 15 3 24 3 8 0 16-1 24-3l65-14v-39l-65-15-1 9-2 8 51 11v12l-51 12c-7 1-14 2-21 2-11 0-22-2-29-5-3-1-6-3-7-5-1 0-1-1-1-2v-16c0-1 1-2 3-4 3-2 8-4 14-5 5-2 12-3 20-3 7 0 14 1 21 3l2-8z"/>
  <path fill="#D09869" d="M924 419c30-7 68 0 68 19v13c0 19-38 25-68 19l-58-13v-26l58-12z"/>
  <path fill="#3A383B" d="M924 419l2 8c6-2 14-3 21-3 11 0 21 2 28 5 4 2 6 4 7 5l2 2v16c-1 1-2 3-4 4-3 2-7 4-13 6-6 1-13 2-20 2s-15-1-21-2l-51-12v-12l51-11-2-8-2-9-64 15v39l64 14c8 2 17 3 25 3 13 0 25-2 35-6 5-3 9-5 13-9 2-2 3-5 4-7 1-3 2-6 2-8v-13c0-3-1-6-2-8-2-5-5-8-9-11-5-4-12-7-19-9-8-1-16-2-24-2s-17 1-25 2l2 9zm-664 94l8-71c0-5 8-5 8 0l7 71h-23zm45 0l7-71c1-5 8-5 9 0l7 71h-23zm44 0l8-71c0-5 8-5 8 0l7 71h-23zm343-125l7 71c0 5 8 5 9 0l7-71h-23zm44 0l7 71c1 5 8 5 9 0l7-71h-23zm45 0l7 71c0 5 8 5 8 0l8-71h-23z"/>
  <path fill="#F2DCC2" d="M805 218c1-58-81-131-151-131-3 0-7 1-10 1-13-47-63-81-123-81-7 0-14 0-21 1-66 4-119 54-130 119-70-43-116 7-116 64s56 103 124 104c1 15 2 31 2 46 0 87-18 164-46 208v10c0 9 7 16 16 16h362c9 0 17-7 17-16v-10c-28-44-47-121-47-208 0-17 1-33 2-49 42 55 120 37 121-74z"/>
  <path fill="#3A383B" d="M805 218h9v-1c0-17-6-33-15-49-14-23-36-45-62-62-26-16-55-27-83-27h-4c-2 0-22-41-45-56S553-2 521-2c-7 0-14 1-21 1-35 2-67 17-91 39-22 20-38 47-45 76-1 4-27-11-44-11-11 0-22 2-31 7-14 7-25 19-32 33-7 15-11 31-11 48 0 16 4 31 10 44 11 20 28 37 49 49 19 11 41 18 65 19 3 0 2 23 2 38 0 43-5 83-13 118s-19 64-32 85l-2 2v13c0 7 3 13 8 17 4 5 10 7 17 7h362c7 0 13-2 18-7 4-4 7-10 7-17v-13l-1-2c-14-21-25-50-33-85s-12-75-12-118v-29c1-7 4 4 15 10 10 5 21 8 32 8 10 0 20-2 29-7 13-7 25-20 33-37 8-18 13-41 14-68h-17c0 34-9 58-20 74-5 7-12 13-18 16-7 4-14 6-21 6-8 0-16-3-24-7s-16-11-23-20l-13-18-2 22c-2 16-2 33-2 50 0 44 4 86 13 122 8 36 20 67 34 90l8-4h-9v10c0 2-1 4-2 5-2 2-3 3-6 3H350c-2 0-4-1-6-3-1-1-2-3-2-5v-10h-8l7 4c15-23 26-54 35-90 8-36 13-78 13-122 0-16-1-31-2-47l-1-7-8-1c-32 0-61-11-82-28-11-9-19-19-25-31-5-11-8-23-8-36 0-19 5-38 15-51 5-6 12-11 18-15 7-4 15-6 24-6 13 0 28 5 46 15l11 7 2-12c4-31 20-58 41-78 22-20 50-33 81-35 7-1 14-1 20-1 29 0 55 8 75 22 20 13 34 32 40 53l2 7 7-1h9c16 0 33 4 50 11 24 11 48 29 65 49 9 10 16 21 21 31s7 21 7 30v1h8z"/>
  <path fill="#3A383B" d="M491 194s-7 14 22 46c30 33 95 0 95 0h-12c-26 0-52-8-73-23l-32-23z"/>
  <path fill="#8D383B" d="M208 518L8 734l100-15-24 161 235-266-91-105"/>
  <path fill="#3A383B" d="M208 518l-7-6L2 728c-1 2-2 4-2 6 0 1 0 2 1 4 2 3 5 5 9 4l88-13-22 150c-1 3 1 7 4 8 4 2 8 1 10-2l235-265c3-3 3-8 1-11l-91-105c-3-3-7-4-10-3l-21 9c-1 1-2 1-3 2l7 6 3 8 15-7 82 95L96 853l20-133c1-3 0-5-2-7s-5-3-7-3l-76 12 183-198-6-6 3 8-3-8z"/>
  <path fill="#8D383B" d="M858 519l199 215-100-15 24 161-235-265 91-105"/>
  <path fill="#3A383B" d="M858 519l-6 5 183 198-76-11c-3-1-6 0-7 2-2 2-3 5-3 7l20 133-212-239 82-94 16 6 3-7-6 5 6-5 3-8-21-9c-3-1-7-1-9 2l-91 105c-3 3-3 8 0 11l235 266c3 3 7 3 10 2 3-2 5-5 5-9l-23-150 89 14c3 0 7-2 8-5 1-1 1-2 1-2v-3c0-2-1-3-2-4L864 513c-1-1-2-2-3-2l-3 8z"/>
  <path fill="#A43E43" d="M582 468h-99c-153 4-288 41-379 97l95 147c80-29 178-48 284-51h99c106 3 203 22 284 51l95-147c-91-56-227-93-379-97z"/>
  <path fill="#3A383B" d="M582 468v-9h-99c-154 5-291 42-384 98-2 2-3 4-4 6 0 2 0 4 2 6l95 148c2 3 6 5 10 3 79-29 176-48 281-51v-8 8h99v-8 8c105 3 201 22 281 51 4 2 8 0 10-3l95-148c2-2 2-4 1-6 0-2-1-4-3-6-94-56-230-93-384-98v17c147 5 278 39 367 91 3 2-87 135-87 135s-173-46-280-50h-99c-104 4-200 22-281 50-1 1-68-105-87-135-3-4 181-91 368-91v-8 8h99v-8 8-8z"/>
  <path fill="#3A383B" d="M98 568s25 21 6 52-6 17-6 17l31-33-31-36zm866 0s-25 21-6 52 6 17 6 17l-31-33 31-36z"/>
  <path fill="#FEFEFE" d="M184 618l9-16c2-3 5-4 8-2l16 8c3 2 4 6 2 8l-9 16c-1 3-5 4-8 2l-15-8c-3-2-4-5-3-8zm659-11l16-7c3-2 7 0 8 3l7 16c2 3 0 7-3 8l-16 7c-3 2-7 0-8-3l-7-16c-2-3 0-7 3-8zm-516-55l-11 74-25-38-6 46-43-62 10-2 26 37 6-45 26 38 7-46m29 12c-4 6-5 12-4 19s5 13 11 17c5 4 12 5 19 4s12-5 16-10c4-6 6-13 5-20s-5-12-11-16c-5-4-12-6-19-5-7 2-12 5-17 11zm1 43c-8-5-12-13-14-22-2-10 0-19 6-26 6-8 13-13 23-15 9-1 18 1 26 6 7 6 12 13 14 23 1 9-1 18-6 26-6 8-13 13-23 14-9 2-18 0-26-6zm80-27c5-1 8-3 11-6 3-4 5-8 4-13 0-5-2-9-6-12s-8-4-13-3h-7l4 35 7-1zm18 23l-14-14-10 1 1 16-9 1-8-69 17-2c7-1 14 1 20 6 6 4 9 10 10 18 1 7-1 14-6 20-1 2-3 3-5 5l16 17-12 1zm57-4l-40 3-5-70h9l4 60 31-2m15-1h6c3 0 7-1 10-2 3-2 5-3 8-6 2-2 4-5 5-8s2-6 2-10c0-3-1-6-2-10-2-3-3-5-6-7-2-3-5-4-8-6-3-1-6-2-10-2l-6 1 1 50zm-10 10l-1-70h16c5 0 9 1 14 2 4 2 8 4 11 8 3 3 6 6 7 11 2 4 3 8 3 13 1 5 0 9-2 14-2 4-4 8-7 11-4 3-7 6-11 8l-14 3h-16zm67-61l-1 33 24 1-1 9-23-1-1 19-10-1 3-69 40 1v10m19 8c-5 5-8 10-9 17s1 14 6 19c4 6 10 9 17 9 7 1 13-1 19-5 5-5 8-11 9-18s-1-13-6-18c-4-6-10-9-17-10-7 0-13 2-19 6zm-11 42c-6-7-8-16-7-26 1-9 5-17 12-23 8-6 16-9 26-8 9 1 17 5 23 13 6 7 9 16 8 25-1 10-5 18-12 24-8 6-16 9-26 8s-17-6-24-13zm89-32c-6 4-10 9-11 16s0 13 4 19 10 10 16 11c7 1 14 0 20-4s9-10 10-16c2-7 0-14-4-20s-9-9-16-10c-7-2-13 0-19 4zm-15 40c-5-8-7-16-5-26 2-9 7-17 15-22s16-7 26-5c9 1 17 6 22 14s7 17 5 26c-1 10-6 17-14 23-8 5-17 7-26 5-10-2-17-7-23-15zm73 16l6 2c3 1 6 1 9 0 4 0 7-1 10-3 3-1 5-3 7-6s4-6 5-9 1-6 0-10c0-3-1-6-3-9-1-3-3-5-6-7s-6-4-9-5l-6-2-13 49zm-12 7l18-67 16 4c4 1 8 3 12 6s6 6 9 10c2 4 3 8 4 13 0 5 0 9-1 14-1 4-3 8-6 12s-7 7-11 9-8 3-12 4c-5 1-9 0-14-1l-15-4z"/>
</svg>
