<svg xmlns="http://www.w3.org/2000/svg" width="365.9" height="187.4">
  <g fill-rule="evenodd" clip-rule="evenodd">
    <path fill="#C22026" d="M12.2 40.5c.3.3-.1 0 .5.4l9.8 5.4c3.2 1.9 11.1 7.6 13.8 10.2l6.2 5.9c.9.9 1.1 1.4 1.9 2.2 1.4 1.5 2.6 2.8 3.8 4.4 1.2 1.6 2.2 2.8 3.4 4.5 3.4 4.9 6.2 10.3 8.4 16 7.6 19.1 6.1 41.7-.9 60.5l-8.7 20.1c-.8 1.6-3 5-3.4 6.4 1.8-1.2 8.1-9.7 9.4-11.5 7.6-10.5 17.7-28.2 22.5-40.2l5-13.1c2.5-7.1 4.8-15.3 6.2-22.6 2.8-14.2 3.8-24.8 3.8-39.5l-.7-12C93 34 92 30.1 92 26.3c-.4.4-.4.3-.6 1-.1.5-.1 1.3-.1 1.8.1 8.7.2 15.4-1.5 24.1-1 5.2-3.9 17.4-8.6 20.9 0-3.6 0-5.2-1.2-7.7-2.3-4.7-8.2-5.8-11.5-.9-1.8 2.6-2.3 5.7-1.5 8.9-.2-.2-.4-.4-.6-.7-2.3-2.8-4.4-5.7-6.9-8.3-.6-.6-.8-.9-1.5-1.4l-.7-.6c-.4-.4-.4-.4-.9-.7-8.9-8.2-16.6-12.2-27.4-17-3.2-1.4-5-1.9-8.1-2.9-1.7-.5-7-2.2-8.7-2.3zM91.7 26c-.1 0 0 0 0 0z"/>
    <path fill="#27282A" d="M198.5 65.8c6.7-1.2 12 3.9 13.1 9.6 1.3 7.2-3.4 13.1-9 14.2-15 2.9-19.1-21-4.1-23.8zm-1.2-6.5c-8.7 1.7-15.8 10.5-14.2 21.5 1.3 8.9 9.7 17.4 20.5 15.3 8.7-1.7 15.7-10.7 14.1-21.5-1.3-8.8-9.6-17.4-20.4-15.3zM336.7 96h5.7V73.4c1.5-.3.2-.1.7.3l.2.4c.5 0 .3-.1.2.4l.4.4c2.1 2 11 13.4 13.4 15.9 1.5 1.6 3.6 3.7 4.6 5.5l2.7.1v-37h-6.1V82l-15.4-17.8c-.7-.9-1.1-1.9-2.2-2.4-.6 0-.5.2-.4-.4-.5.1-.4.2-.3-.4-.5.1-.3.1-.2-.4l-.2-.4c-.5 0-.4.1-.3-.4l-.2-.4-.3-.3-2.3.2V96zm-24.5-23.3c.7.6 0-.2.6.6l3.8 9.3h-8.4l4-9.9zM296.1 96h6.6l2.7-6.9h14.2c.3 1.1.9 2.4 1.4 3.6 1.7 4.2.5 3.3 8 3.3-.7-3-12-28.3-14.4-34.8-.1-.3-.4-1-.4-1.1-.1-.1-.1-1.5-2.3-1-1 .2-1.7 2.8-2.3 4.2-2.3 5.4-12.9 30.1-13.5 32.7zm-69.3-36.6c0 4.3-.2 22.2.1 25 .8 6.7 5.9 12 13.2 11.9 7.3-.1 12.3-5.4 13-12.2.7-7 .1-17.4.1-24.8l-6.1.1v19c0 14.8-10.3 12.7-13.1 7.7-1.4-2.6-1.2-4.8-1.2-8V59.3l-6 .1zm65.5 30.8l-3.9-4.4c-2.2 1.1-5.9 6-13.1 3.2-8.2-3.2-10.8-16.9-.6-22.3 4.7-2.5 10.6-.3 13 2.4.7-.5 3.9-3.8 4.2-4.7-11.2-11.1-30.2-3.6-29.9 13.7.2 15.4 17.7 25.4 30.3 12.1zm-130.1 5.9h6.1V84c0-6.4-.4-5.4 2.7-9.7l9.9-14.8h-7.5c-.6 1.4-4.5 7-5.9 9-1.1 1.5-1 2.2-2.2 3l-8.1-12h-7.5c.4 1.1 1.7 2.9 2.4 3.8l7.4 10.9c3 4.4 2.8 2.9 2.8 9.4-.2 4.1-.2 8.3-.1 12.5z"/>
    <path fill="#FFF" d="M342.5 95.9c-.1 0 .1.1-.7.2h-.6c-1 0-3.7.1-4.5-.2l-.3-2.2c.1-6.8-.4-32.5.2-34.8l2.5.1c.5-.2.4-.3.3.3l.2.4.3.4c.5 0 .3-.1.2.4l.2.4c.5-.1.4-.2.3.4.5-.1.3-.2.4.4 1.1.5 1.4 1.6 2.2 2.4L358.6 82V59.4h6.1v37l-2.7-.1c-1-1.9-3.1-3.9-4.6-5.5-2.4-2.6-11.3-13.9-13.4-15.9-.6 0-.5.1-.4-.4l-.2-.4-.2-.4c-.3.4-.2 0-.4.7 0 .1-.1.6-.1.6v1.3c.1 3.2.5 18.4-.2 19.6zm-7-37v38h8.2V76.3c1 .6 1.5 1.5 2.3 2.5l13.8 16.3c2.4 2.7 1 2.5 5.1 2.5.7 0 .9-.2.9-.9V59.2c0-1.6-2.9-.9-7.3-.9-1.5 0-1 3-.9 4.4v16.8c-1-.8-3.6-4.3-4.5-5.3-.9-1-1.4-1.7-2.4-2.7-.6-.6-.6-.8-1.1-1.4-.5-.6-.7-.8-1.2-1.4l-8.1-9.6c-1.1-1.3.1-1.2-3.9-1.2-.7 0-.9.3-.9 1z"/>
    <path fill="#C22026" d="M123 25.6v153.2h1.3V25.6c0-.9-.1-.6-.6-.9-.6.4-.7 0-.7.9z"/>
    <path fill="#FFF" d="M226.8 59.4h6v18.8c0 3.2-.2 5.4 1.2 8 2.8 5.1 13.1 7.2 13.1-7.7v-19l6.1-.1c0 7.4.6 17.8-.1 24.8-.7 6.9-5.7 12.1-13 12.2-7.3.1-12.4-5.2-13.2-11.9-.3-2.8-.1-20.7-.1-25.1zm-.9 24.2c0 7.6 6.3 13.9 13.9 13.9 7.9 0 14.2-6.1 14.2-13.9V58.3h-7.9v23.1c0 9.7-12.3 10.2-12.3 0V58.3h-7.9v25.3zm66.4 6.6c-12.6 13.3-30.1 3.3-30.4-12-.3-17.3 18.7-24.8 29.9-13.7-.4.9-3.5 4.2-4.2 4.7-2.3-2.7-8.3-4.9-13-2.4-10.2 5.4-7.5 19.2.6 22.3 7.3 2.8 10.9-2.1 13.1-3.2l4 4.3zm-31.2-14.9c0 5-.4 6.9 2 11.6 1.1 2.1 1.9 3.5 3.6 5.3 5.2 5.4 13.8 7 21.1 2.9 1.8-1 4.8-3.3 5.9-4.9l-2.6-3.1c-.8-1-2-2.3-3.1-2.9-1.5 2.2-5.5 4.7-8.5 4.7-2.8 0-5.5-1.4-7.4-3.4-3.6-3.7-4.1-9.7-1.1-14.3 1.2-1.9 2.7-2.9 4.7-3.9 3-1.5 6.9-.9 9.6 1.2 1 .7 1.6 1.4 2.4 2 1.4-.9 1.6-1.8 2.8-2.9.9-1 2.2-1.7 2.6-3.1-3.6-5.3-12.6-8.1-19.9-5.3-3.4 1.3-5.8 3.2-8 5.9-1.8 2.2-4.1 6.5-4.1 10.2zm-98.9 20.8c-.1-4.1 0-8.3 0-12.5 0-6.6.2-5-2.8-9.4L152 63.3c-.7-.9-2-2.7-2.4-3.8h7.5l8.1 12c1.2-.8 1.1-1.5 2.2-3 1.4-2 5.3-7.5 5.9-9h7.5l-9.9 14.8c-3.1 4.3-2.7 3.3-2.7 9.7v12.1h-6zm-1.2-17v17.7h8.2v-18l3.2-5c1.2-1.6 2.3-3.4 3.4-5.1 1.1-1.6 6.5-8.6 6.7-10.4h-7.3c-1.7 0-1.9-.2-2.8.7-1.5 1.7-6 10.3-7.7 10.7-.5-1.9-6.9-9.8-7.3-11.4h-9.8c.3 1.3 2.4 4.1 3.2 5.3.6.9 1 1.5 1.7 2.4.7 1 1 1.7 1.8 2.7 1.3 1.7 2.2 3.4 3.4 5.1.3.4.5.6.8 1.1 1.2 1.5 2.5 3.2 2.5 4.2z"/>
    <path fill="#F26122" d="M36.3 187.4c1.5-.4 5.1-3.2 6.4-4.4 6.4-5.6 7.3-6.6 13.1-12.8 6.3-6.8 13.5-18.1 17.7-26.6 3-6.1 6.4-15 8.4-21.4.4-1.4 1.4-4.5 1.5-6.1-.4.5-.3.3-.6 1l-1.6 4.1c-2.4 6-3.8 9.4-6.8 15.4l-3.7 7.4c-4.7 9.1-9.8 16.5-15.9 24.6l-12.4 13.5c-.9.7-1.2 1.1-2 1.8l-4.1 3.5z"/>
    <path fill="#FFF" d="M296.1 96c.6-2.7 11.3-27.3 13.4-32.8.6-1.4 1.3-4 2.3-4.2 2.2-.5 2.3.9 2.3 1 .1.1.3.9.4 1.1 2.4 6.5 13.8 31.8 14.4 34.8-7.4 0-6.2.9-8-3.3-.5-1.2-1.1-2.4-1.4-3.6h-14.2l-2.7 6.9h-6.5v.1zm-1.5.9h8.9c.1-1.5 2.1-4.9 2.5-6.6h12.7c1.1 2.1 1.8 4.5 2.8 6.6h8.9l-4-9.6c-.7-1.7-1.3-3.3-2-4.9L314.3 58h-3.8c-.5 2.1-12 28.6-13.9 33.9-.5 1.3-1.9 3.6-2 5z"/>
    <path fill="#F26122" d="M57.8 39.3c-1.6.1-3.4 1.5-5.1 1.9.4 1.6 2.9 1.9 4.1 2.8.8.6.7 1.5.9 2.6.1 1.1.1 2.3.1 3.4 2.1-.2 2.5-2.4 4.1-3.2 1.5-.8 4.2.7 6.3.7-4.7-8.9-.1-5.6.3-10.4-3 .2-4.9 1.1-6.1.1-1.4-1.1-1.8-3.1-3.7-3.6 0 2.2-.9 3.6-.9 5.7z"/>
    <path fill="#FFF" d="M197.3 59.3c10.7-2.1 19.1 6.5 20.4 15.3 1.6 10.8-5.4 19.8-14.1 21.5-10.8 2.1-19.2-6.4-20.5-15.3-1.5-10.9 5.5-19.7 14.2-21.5zm-15.4 17.6c0 6.3 1.6 11 5.5 14.8 12.1 12 31.6 4.3 31.6-15.1 0-7.1-4.8-13.9-11-16.9-3.3-1.6-7.9-2.2-11.6-1.3-8.3 2.1-14.5 10.1-14.5 18.5z"/>
    <path fill="#F26122" d="M.2 37.4c.3.3 1.2-.5.4-.2-.1 0-1-.4-.4.2zM48 70.3c-1.2-.3-.7-.2-1.5-1.1L26.1 52 1.3 37.8c-.6-.4-.2-.1-.5-.4 1.6.1 5.8 2 7.4 2.7l6.9 3.2c2.3 1.3 4.3 2.3 6.5 3.6l4.6 3c.6.4.8.4 1.4.9l8.6 6.6c2.7 2.7 4.5 3.5 7.5 7.4 2 2.5 2.1 2.2 4.3 5.5z"/>
    <path fill="#FFF" d="M200.6 89c-5.2 0-10.4-4.8-10.4-10.1 0-4 .1-5.9 3.3-9.4 5.2-5.6 17.3-3.1 17.3 9-.1 5.5-5.4 10.5-10.2 10.5zm-2.1-23.2c-15.1 2.8-10.9 26.7 4 23.8 5.6-1.1 10.3-7 9-14.2-.9-5.6-6.2-10.8-13-9.6z"/>
    <path fill="#C22026" d="M314.3 108c6.9 0 7.2 6.7 4.4 9.8-3.1 3.4-8.7 1.3-9-3.8-.2-2.7 1.8-6 4.6-6zm-6 5.7c0 8.8 13.3 9.9 13.3-.3 0-9.2-13.3-8.8-13.3.3zm-139.7 28.1c-8.2 0-6.8-11.4-.3-11.4 4.2 0 7.3 5.7 3.9 9.6-1 1.1-1.6 1.8-3.6 1.8zm-6.9-5.7c0 2.2.5 3.4 1.5 4.8 1.8 2.4 4.2 2.2 6.4 2.2 6 0 8.4-13.1-1-13.9-3.4-.2-6.9 2.6-6.9 6.9zm80.1 5.7c-4 0-5.7-2-5.7-6.3 0-5.4 9.9-8 10.6.4.2 2.5-1.7 5.9-4.9 5.9zm-7-6.3c0 2.5.1 3.7 1.5 5.4 1.9 2.4 4 2.2 6.4 2.2 2.4 0 5.4-3.3 5.4-6.6 0-9.7-13.3-9-13.3-1zM168.9 108c8.7 0 7.1 11.4.6 11.4-5 0-6.7-6.5-4.1-9.4.9-.9 2.1-2 3.5-2zm-6 5c0 7.5 7.2 9.5 11.2 5.8 3.7-3.4 3-12.1-5.2-12.1-3 0-6 3.2-6 6.3zm87.7 30.1h1.3v-10.8l4 5.2c.8 1.1 3.7 4.6 3.9 5.6h.9v-13.6h-1.3v10.8l-4.2-5.6c-1-1.3-3.1-5.1-4.7-5.5v13.9z"/>
    <path fill="#F26122" d="M40.1 28.5h-3.8c3.6 5.4 1.7 1.8 1.3 6.6.9-.2 2.8-1.2 3.5-1.1 1 .1 1.5 1.4 3.2 1.7V32c.9-.5 2.2-1.1 2.5-2.2-2.1-1-3.2.8-4.4-4.4-.9.5-1.8 2.1-2.3 3.1zm36.1-1.9c-.9.1-2.7.9-3.5 1.3.9 1.2 1.8.9 2.7 1.8.7.7.8 2.1.8 3.9l2.8-2.2c1.8 0 2.3.5 3.8.6-.6-1.1-1-2.3-1.6-3.5.7-1 1.3-2.1 1.9-3.2-1.8 0-2.4.2-3.8.3-.7-1-1.5-2.2-2.5-2.8-.1 1.3-.6 2.3-.6 3.8z"/>
    <path fill="#C22026" d="M246.8 120.3h1.3v-10.4l3 3.9c.5.6.6.9 1 1.5.7 1 3.3 5 4.5 5.3v-13.9c-1.8.1-1.3.6-1.3 4.4v6c-.9-.6-5.2-6.7-6.2-8.1-1.4-1.8-1.1-2.1-2.4-2.4v13.7zM287 113h-3.5v-5h2.5c4.7 0 4.1 5 1 5zm-4.7 7.3h1.3c0-6.7-.6-6 2.2-6 .9 0 1.1.7 1.5 1.3l2.6 3.7c.7 1 .6 1 2.2 1-.6-1.2-1.2-1.9-2-3s-1.4-1.9-2.1-3c4.1-1.1 3.8-7.6-1.6-7.6h-4.1v13.6zm-86.1 12.4c1.1 1.4 6.9 10 8.5 10.4v-13.6h-1.3v10.4c-1.3-1-5.8-7.9-7.4-9.8l-.6-.6c-.7-.4-.1-.3-.6-.1v13.3h.9l.5-10zm-13.4 3.1c-.8.7.7.2-1.2.6-.5.1-2.4.2-3.2-.6l.3-5c.5-.4-.2-.2.9-.4h1.3c.7 0 1.5-.1 1.8.3 1.1.5 2 1.1 2 2.5s-.8 2.2-1.9 2.6zm-5.3 7.3h1.3v-6c4.1 0 2.5-.3 6.4 5 .7.9.7 1 2.1 1.1-.6-2.1-3.6-4.3-3.8-6.3 4-1.1 2.9-7.3-.9-7.3h-5.1v13.5zm25.6-35.5v12.7h1.3v-6.6h7.6v6.6h1.3v-13.6c-1.7.1-1.3.2-1.3 5.7h-7.6v-5.7c-.9.1-1.3 0-1.3.9zm32.6 0v12.7h8.5V119H237v-5.4c4 0 4.9.5 5.7-.6-.8-1.1-1.6-.6-5.7-.6V108h7v-1.3c-4.7 0-8.3-.7-8.3.9zM213.3 132c.2 2.4 2 4.5 2.2 6.6h-5.1c.1-.8 1.7-5.8 2.9-6.6zm-6.1 11.1c2.9-.1 1.1-3.2 3.2-3.2 6.9 0 5.5-.4 6.4 1.8.5 1.1.4 1.3 1.8 1.4-.1-1.2-.9-2.6-1.3-3.5l-4.1-10.4c-1.3.3-.7.1-1.1 1.1-.3.7-.4 1.1-.7 1.9-.8 2.2-4 9.4-4.2 10.9zm14-29.4c0 7.9 10.7 8.9 12 3.8-2-1-1.8 1.9-5.1 1.9-7 0-7.5-11.4 0-11.4 2.7 0 2.9 1.2 4.4 2.2l.6-.7c-2.2-4.9-11.9-3.5-11.9 4.2zm-37.7 6.9c2.9 0 4.9-1.7 5.1-4.4.2-2.8 0-6.6 0-9.5-2 .2-1.3 2-1.3 7.3 0 1.7.2 2.4-.5 3.6-1.5 2.7-6.8 2.9-6.8-3v-4.4c0-2.2.6-3.3-1.3-3.5.1 5.9-1.5 13.9 4.8 13.9zm88-.3h8.2V119h-7v-5.4h5.4v-1.3h-5.4V108h7c-.2-2-1-1.3-8.2-1.3v13.6zm62.1-11.1c.2 1.8 2.1 5 2.2 6.6h-5.1c.3-1.1 2.1-6 2.9-6.6zm-6 11.1c1 0 1.7.4 2.5-3.2h6.3c.4.8.4 1.1.8 2 .5 1.1.3 1.1 1.7 1.1-.2-2.3-4.9-11.4-5.1-13.6-1.7.1-.7-.2-2 2.7l-4.2 11zm12.6-7.3c0 2.5.1 3.7 2 5.6 3.6 3.8 10.7 1.2 9.4-1.5-1.1.3-5 4.6-8.6.4-2.4-2.7-2.4-9.6 4.5-9.6 2.2 0 2.4 1.8 4.1 2.2 1.3-2.7-5.9-5.6-9.5-1.5-.9 1.2-1.9 2.4-1.9 4.4zm-187.7 17.4v11.7c0 .9.1.6.6.9 1.5-.4.9-1 .9-6.3h5.4v-1.3H154v-4.7h6.6v-1.3c-4.5.1-8.1-.6-8.1 1z"/>
    <path fill="#F26122" d="M88.2 57c.2-.3.1.2.4-.8 1.1-3 2.4-17.7 2.4-20.4 0-5 .1-6.8-.3-11.7-.3-3.2 0-3.5-.9-4.1 0 2.4.6 5.6.3 9.5-.2 2.9-.1 6.4-.3 9.5-.2 2.8-.5 6.3-.6 9.2-.2 2.4-1 6.5-1 8.8z"/>
    <path fill="#C22026" d="M297.2 108h4.4v11.4c0 .9.1.6.6.9.7-.2.9-.1.9-.9V108h4.4v-1.3h-10.4v1.3zM156 115.2v5.1h1.6c0-6.6-.5-4.7 2-9.4.7-1.3 2-2.8 2.1-4.2-1.8 0-1.6.8-2.8 2.9l-2.3 3.7-2.9-5.6c-.5-1-.4-1-1.8-1 .1 2.2 4.1 6.2 4.1 8.5z"/>
    <path fill="#F26122" d="M40.7 10.1c-1.1.3-1.7.5-2.5.9 1.4 2.1 2.5.2 2.5 4.4l2.2-1.6c1.6 0 1.4.3 2.8.3-.7-3.1-1.9-.9.3-5.1-2.9 0-2.2.5-3.1-.1-1.2-.8-.5-1.4-1.9-1.8 0 1.6-.3 1.4-.3 3z"/>
    <path fill="#C22026" d="M190.5 108h4.7v12.3h1.3V108h4.7c-.1-.9 0-1.3-.9-1.3h-8.9c-.9 0-.9.4-.9 1.3zm162.7 0h4.7v12.3h1.3V108h4.7c-.1-.9 0-1.3-.9-1.3h-8.9c-.8 0-.9.4-.9 1.3zm-134.9 22.8h4.5v12.3h1.2v-12.3h4.8v-1.3h-10.5m40.6-21.5c5.2 0 4.8-.4 4.8 2.2v10.2c.9-.1 1.3 0 1.3-.9V108h4.4v-1.3H259v1.3z"/>
    <path fill="#F26122" d="M69.2 9.5c.6.8 1.2 1 2.2 1.3v2.5c2-.2 1.1-1.3 2.5-1.3 1.1 0 1.2.2 2.2.3-.1-1.6-.9-1.2-.8-2.5.1-.8.8-1.3 1.1-2.3-1.7 0-1.9.3-2.6 0-.2 0-1.2-1.1-1.8-1.5-1.4 3.1 1.2 1.4-2.8 3.5z"/>
    <path fill="#FFF" d="M312.1 75.3l3.2 6.3h-5.7c.5-1 2.3-5 2.5-6.3zm-4 7.3h8.4l-3.8-9.3c-.6-.8.1 0-.6-.6l-4 9.9z"/>
    <path fill="#929294" d="M336.7 96c.8.4 3.5.3 4.5.2h.6c.8-.1.6-.2.7-.2.7-1.2.3-16.4.3-19.6v-1.3s0-.5.1-.6c.2-.7.1-.3.4-.7l.2.4.2.4c-.1.5-.2.4.4.4l-.4-.4c.1-.5.2-.4-.2-.4l-.2-.4c-.6-.4.8-.6-.7-.3v22.6l-5.9-.1V59.3l2.3-.2.3.3.2.4c-.1.5-.2.4.3.4l.2.4c-.1.6-.3.5.2.4-.1.5-.2.4.3.4-.1.5-.2.4.4.4-.1-.5.1-.4-.4-.4.1-.5.2-.4-.3-.4l-.2-.4c.1-.5.3-.4-.2-.4l-.3-.4-.2-.4c.1-.6.2-.5-.3-.3l-2.5-.1c-.5 2.2-.1 27.9-.2 34.8l.4 2.2z"/>
    <path fill="#F26122" d="M54.3 2.8c1.2 1.6 1.9 0 1.9 3.2 1.4-.7 1.2-1.1 2.3-1.1.3 0 .9.1 1.5.1-1.5-2.8-.2-1.9 0-3.8-2.7.6-1.2.2-3.5-1.3 0 2.7-.5 2.1-2.2 2.9z"/>
    <path fill="#C22026" d="M231 129.5h.9v13.6h-.9z"/>
    <path fill="#E8A3A7" d="M196.2 132.7l-.4 10.2h-.9v-13.3c-.6.4-.3.2-.4 1.2-.1 2.4-.2 11.2.3 12.4h.9c1-1.9.4-7.9.5-10.5z"/>
    <path fill="#D15054" d="M178.4 135.8c.7.8 2.7.7 3.2.6 1.9-.4.4.1 1.2-.6h-4.4c.6-1.4.3-3.3.3-5l4-.1c-.3-.4-1.1-.3-1.8-.3h-1.3c-1.1.1-.5 0-.9.4l-.3 5z"/>
  </g>
</svg>
