<svg xmlns="http://www.w3.org/2000/svg" width="480.1" height="512">
  <g fill="#242424" fill-rule="evenodd" clip-rule="evenodd">
    <path d="M0 512h480c0-28.8.9-55.6-4.4-79.6-3.4-15.5-8.1-33.9-19.7-43.3-30.9-24.8-63.8-32.2-103.7-43.3L320 336c0 20.4 4.4 26.5-4.1 49.9-5.4 15-20.4 39.6-31.2 52.8-2.3 2.9-3.9 5-6.4 7.6-8.2 8.2-8.2 10.5-21.1 20.9-5 4.1-11.5 8.8-17.2 11.8-35.3-18.7-78.1-78.4-81-115-.8-10.3 1-19.2 1-28l-64.8 19.2c-30 8.3-48.9 16.7-71.2 33.8-5.7 4.4-5.7 5.5-9 12C2.5 425.9.3 453.8 0 482.8V512zm327-325c.1-.2.3-.8.4-.6.1.4 8.1-25.1 16.6-24.4 13 1.2 8 33.4-4 45-9.6 9.4-8.1 14.8-18.4 30.6-1.4 2.1-1.7 2.9-3 5-8.8 13.2-18.1 24.5-30.3 34.7-10.8 9.2-32 26.5-48.3 26.5-6.8 0-18.4-5.3-23.4-8.3L197 282c-19.3-15-40.3-42.4-49.4-64.6-2.2-5.3-3.3-6.4-7.1-9.9-19.2-17.6-12.9-59 1.8-41.8 6.2 7.3 6.2 13.1 10.3 20.7.1.1.2.4.4.6l-6-33c-5.1-30.4-5-35.8 11.4-60.6C161.9 88.1 172 75.6 178 74c3.9 2.8 9.2 19.8 34.3 34.7 30.9 18.3 63.5 20.6 99.7 20.3 8-.1 9.6.2 14.2 3.8 12.2 9.9 7.7 17.2 3.4 38.8-1 5-2.6 10.3-2.6 15.4zM124 98l1.1 37.9c.5 6.3 1.9 10.5 1.9 18.1-24.7 0-14.8 46.7-1.7 61.7 8.1 9.3 3.9 2.8 3.7 18.3-.3 24.3-11.5 51.9-32.8 66.2L80 309c12.4 2.9 25.6 11 49 11 21.7 0 32.9-1.4 50.4-13.6 3.9-2.7 7-6 10.6-8.4 19 12.7 39.9 28.3 65.4 19.4 19.8-6.9 23.3-13.5 34.6-19.4 2.2 1.5 2.8 2.4 4.9 4.1 24.5 20 51.8 21.5 82.1 13.9l23-8c-16.9-3.9-31.4-18.9-39-34-5.4-10.7-9.8-26.7-10-39-.2-15.9-4.7-9.2 3.6-19.4 10.7-13.2 18.7-40.6 9.8-56-2.5-4.4-5.8-5.6-12.4-5.6 3.7-7.8 4-43.9 4-56 0-60.3-55-98-109-98h-14c-29.8 0-59.8 13.2-75.8 27.2-2.8 2.4-4.2 3.2-7 6C134.2 49.3 124 73.7 124 98z"/>
    <path d="M229 377c0 4.9-21 50.3-21 56 0 4.5 22.6 26.1 32 31 7.3-4.9 13-9.5 19.3-15.7 3.6-3.6 5.2-5.6 8.5-9.5 7.4-8.9 2.2-13.1-7.4-37L250 376c7.7-4.1 17.8-16.1 22-24-2.9-5.4-11.4-16-18-16-31.7 0-28.3-3.1-39.8 8.2-4.5 4.4-8 5.8-4.4 11.8 2.6 4.4 5.3 7.6 8.9 11.2 1.3 1.3 10.3 9.4 10.3 9.8zm-76-190v1l1.2-.8M327 187h-1l.8 1.2"/>
  </g>
</svg>
