<svg xmlns="http://www.w3.org/2000/svg" width="480.1" height="512">
  <g fill="#242424" fill-rule="evenodd" clip-rule="evenodd">
    <path d="M0 454v28c0 15.4 14.6 30 30 30h420c15.4 0 30-14.6 30-30 0-35.2 2.5-51.8-15.6-82.4-4.8-8.2-6.7-9.8-16.8-17.2-12.8-9.3-31.7-17-47-22-9.1-3-17.5-5.9-26.6-8.4l-54-16c0 24.8 5.9 31.3-9.7 62.3-7 14.1-19.5 33.4-29.6 45.4-10.2 12-27.2 28.1-40.7 35.3-5.6-3-9.9-6.4-14.9-10.1-3.1-2.3-3.6-3-6.4-5.6-14.5-13.6-16.3-14.7-29.9-33.1C175.1 411.6 159 384 159 359l1-23c-8.5 2-17.9 5.3-26.1 7.9-8.9 2.8-18.4 5.5-27.1 7.9-9.4 2.6-17.7 5.4-26.7 8.3-9 3-17 6.3-25.3 9.7-13.9 5.7-20.6 11.2-31.4 19.6-5.2 4-4.6 4.7-7.8 10.2C6.4 415.1 0 429.8 0 454zm327-267c2.5-3.5 8.7-27.7 18-25 12.3 3.6 6.4 34.7-5.5 45.5-8.5 7.8-13.2 26.3-22.6 42.4-15 25.8-29 46.8-61.5 52.5-23.7 4.2-45-.3-63.9-15-18.4-14.3-35.5-48.8-44.1-69.9-5.6-13.7-13.2-10-18-32-4.2-19.1 6.3-39.7 20.2-6.2l3.4 7.6c-.4-16.6-16.2-59.1-5.4-78.4 8.4-15.1 19.1-28 36.4-32.6 9.5-2.6 9.3 1 14.8 6.3 29.2 28.2 64.6 38.5 105 44 2.8.4 7.2.5 11 1 4.6.6 16.1 1.7 21.3 1.7-.5 16.1-9.1 51.9-9.1 58.1zM234.4 0c-20.1.9-40.1 5.3-55.5 13-32.5 16.3-50.9 41.3-54.8 79.2-2.8 27 2.9 46.4 2.9 61.9-24.1 0-15.5 44.5-2.2 61.2 3.3 4.1 5.2 3.9 7.6 9.4 12.8 28.7 29.8 58.4 54.5 77.5 18.5 14.2 33.3 18 58 18 21.7 0 43.1-12.6 56.8-25.2 5.9-5.5 10.2-11.1 15.5-17.5 1.6-1.9 1.9-2.5 3.4-4.6l6.8-10.2c1.1-1.8 2.1-3.1 3.2-4.8l16.8-33.2c3.3-7.5 20.6-16 20.6-51.4 0-10.9-4.2-19-16-19 3.6-7.5 4-42.1 4-54 0-45.1-25.4-74.6-64.7-91.3-12.2-5.2-27.1-8-42.4-8.7h-14.5z"/>
    <path d="M229 377c0 4.9-21 50.3-21 56 0 4.5 22.3 25.9 32 31 8.6-4.6 21.2-17.5 27.7-25.3 3.6-4.3 5.1-6 2.6-12L250 376c7.7-4.1 17.8-16.1 22-24-2.9-5.4-11.4-16-18-16-31.7 0-28.3-3.1-39.8 8.2-4.5 4.4-8 5.8-4.4 11.8 2.6 4.4 5.3 7.6 8.9 11.2 1.3 1.3 10.3 9.4 10.3 9.8zm-76-190v1l1.2-.8M327 187h-1l.8 1.2"/>
  </g>
</svg>
