<svg xmlns="http://www.w3.org/2000/svg" width="122.9" height="122.9">
  <path fill="#FFFEFD" fill-rule="evenodd" d="M83.8 86.4c.5.6.5 2.5 0 3.2-.4-.6-.4-2.6 0-3.2zm-1.2 0c.2.3.1 0 .2.5.1.6.1 2.1-.2 2.7-.7-.5-.7-2.8 0-3.2zm-5.3 0v1.7c0 1.9-.1 1.2-.3 1.5-.2-.3-.3.3-.3-1.7v-1c.3-.6 0-.3.6-.5zm-18.5 0c.5.7.3 2.6 0 3.2-.3-.6-.5-2.6 0-3.2zm-11.5 0c.2.2.1 0 .2.5v2.2h1.7c.4.1.4.1.5.2-.7.5-1.5.3-2.8.3.1-1.5-.1-2.5.4-3.2zm30.9 3.2v-3.1c1.8 0 2.3-.2 3.3.7.2 2.7-.7 2.4-3.3 2.4zm-28.4-2.4c-.5 3.7 3.5 2.5 4 1.6.1-1.3 0-2.1-1.1-2.3-1.6-.3-2.3-.1-2.9.7zm-3.4-.4l.2 2c-1.1 1.2-3.9 1.2-4.1-.5-.3-2.3 2.5-2.2 3.9-1.5zm29 2.7l-2.6.1v-3.2h2.7c.9 1.3 1.1 1.7-.1 3.1zM66 87.8c.3-.2.2-.3.9-.3 1.3 0 .8.1.9.5l-.8.3c-1.6 0-.7-.2-1-.5zm-33.6 0c.2-.1.3-.3 1-.3 1.4.1.6.1.8.5-1.9 1-1.8-.1-1.8-.2zm59.5 1.8c-.4-.5-.3-.5-.3-1.5 0-.6 0-1.1.1-1.7 1.3.3 1.2 1.3 2.6 2.1l.5-2.1v3.2c-1.5-.3-1.5-1.4-2.6-2.1l-.1 1.5c0 .4-.1.4-.2.6zm-3.3-1.2c1-.5 1.1 0 .7-1.1-.3.2-.2 0-.4.4-.5.7-.1-.1-.3.7zm-.3-.1c-.2.9-.3 1.1-1.2 1.3.3-.9 1.2-2.8 2.2-3.2.7.7 1.6 2.2 1.9 3.2-1.1-.2-.5.1-1.2-.8-1.2-.2-.9.1-1.7-.5zm-19.4 1.3c-.4-.8-.2-2.2-.2-3.1.9.1 2 1.4 2.5 2 .1-1-.1-1.5.3-2.1.3.4.2-.5.3 1.7 0 .8.1.7 0 1.5-1.3-.4-1.3-1.3-2.5-2.1-.2 1.1.2 1.3-.4 2.1zm-30 0c-.2-.4-.1.4-.2-.6v-2.7c1.3.3 1.5 1.4 2.6 2.2v-1.6c.1-.5.1-.2.2-.5.5.7.3 2.2.3 3.1-1.1-.2-1.3-.9-2.6-2.2l-.1 1.7c-.2 1 0 .2-.2.6zm26.9-.6v-2.1c1 0 1.5.1 2.3-.3-.8-.4-1.7-.2-2.8-.2v3.1h1.4c1 0 .8 0 1.3-.3-.7-.3-1.3-.2-2.2-.2zm-4.4.6c-.1-.2-.2-.1-.2-.5v-2.6c1.6 0 2.6-.3 3.5.5l.1 1.1c-.7.5-2.1 1.2-2.6.2l.3-.1c.9-.2.9.1 1.7-.3.4-1.4-1.2-1.2-2.3-.9v1.3l-.1.7c-.2.5-.1.3-.4.6zm-6.6-2.1l-.1 1.1c.6.4 1.6.9 2.6.3-.4-1.1-.5-.1-1.6-.7l.1-.1.8-.2h1.2v1.7c-1.6.1-3.3.3-3.6-1.2-.2-1 .1-1.6.8-1.8.7-.2 2-.2 2.5.1-.9.6-1.7-.3-2.7.8zM32.1 89v-2.2l2.2-.2c-.6-.4-1.9-.3-2.8-.2v3c.5 0 1.1.1 1.6.1 1.2 0 .9-.1 1.2-.3l-.9-.2h-1.3zm-4-2.4c.5-.3.5-.2 1.4-.2 1.1 0 1.1-.1 1.7.2-.6.4-.7.2-1.3.4-.3 1.2.2 1.7-.4 2.5-.3-.7-.2-1.5-.2-2.4l-.5-.2c-.1 0-.1 0-.2-.1-.1 0-.1 0-.2-.1l-.3-.1zM85 88.2c.6-1.1.5-.3 1.6-1.7-1.1 0-2 .9-2.4 1.6.7.7 1.1 1.3 2.3 1.5l-.8-.8c-.3-.3-.4-.4-.7-.6zM36.3 88l1.7 1.6c-1.3-.2-1.8-.9-2.5-1.5 0 1 .1.9-.3 1.5-.4-.6-.5-2.6 0-3.1.3.5.2.6.3 1.5 1.8-1.2 1-1.6 2.5-1.4-.5.2-1.1.9-1.7 1.4zm26.2-36.4c3.5 6.2 3.3 16.3 2.9 24.2-.1 1.8.7 7.8-1.9 6.9-1.7-.6-1.1-6.1-1.1-8 0-2.9.2-5.9.2-8.9 0-7.7-2-11.3-2-11.6 0-.4.4-.9.7-1.3.5-.6.6-.9 1.2-1.3zm-5 30.7c.5-2.5.1-10.7 0-13.6-.4-10.4.5-13.7 6.8-20.5C73.7 38 88.6 38 88.5 49.7c0 8.1-8.2 10.8-16.3 10.8-1.7 0-4.6-.3-5.2.6-.7.9.1 2 .9 2.2 1.1.3 6.3 0 7.5-.1C95.8 61.4 94 43.5 85.7 39.3c-10.8-5.5-23.6 4.6-29 13.9-3.3 5.7-2.1 17.4-2 24.3.1 2.5-.5 6.7 2.8 4.8zm2.2-34.5c-.3.5-.4.6-.7 1.1L57.7 50c-1.9-3.4-7.2-6.9-11-8.1-2.6-.8-5.3-1.3-8.3-1.3h-4.8c-2.6 0-6-4.1 6.9-2.8 5.5.6 10.1 2 14.3 5.1 1.6 1.2 4 3.3 4.9 4.9zM34.6 35.9c-1.8-3.7 2.5-2.7 5.4-2.6 7.2.2 15.4 3.3 19.9 8 .7-.3 2.7-2.2 3.7-2.9 4.3-3 9.5-4.6 15.1-5.1l6.1-.2c1.8.4 2.2 2.9-1.3 2.9-20.3.1-21.1 10.8-24.4 8.6-1-.7-2.3-2.3-3.5-3.2-4.1-3-9.4-4.9-14.9-5.3-1.7 0-4.3.1-6.1-.2zm72.7 30.6c2.4-18.2-7.8-37-23.3-45.4-29.9-16.1-64.7 3-68.5 35.2-1.6 13.8 2.8 25.2 10.7 35.1 3 3.8 7.8 7.7 12.6 10.4 5.2 2.9 10.6 4.7 17.4 5.6 14.5 1.8 27.5-4.1 35.1-10.7 9.4-8.2 14.3-17.3 16-30.2z" clip-rule="evenodd"/>
  <path fill="#464D57" fill-rule="evenodd" d="M61.2 111.4h.7c.7 1 .2 3.9.8 4.6.3.4 2.5 1.6 2-2.3-.1-1.1-.3-1.8.1-2.5h1c0 2.7 1.3 6.2-2.2 6.3-3.6-.1-2.5-6-2.4-6.1zm-1.1 5.9l.5-5.9-1.8-.1-1.5 3.7c-.6-4.2-.4-4-2.4-4.1-.2 1-.2 2-.3 3.1-.1.9-.4 2.2.1 2.9 1.5-.2.4-.2 1.2-3.7.5 1 .4 2.6.7 3.2.2.7 0 .4.6.7 1.1-.1.9-.4 1.3-1.6l.9-2.2c0 2.1-.5 3.1 0 4h.7zm-9.2-2l2.8.6c-.4 1.3-.4 1-2 .6-.8-.2-1.6-.2-2.3-.5 0-.8.7-5.1 1.1-5.7 2.2.1.5 1.4.4 5zm17.8-4.6c1.9-.1 4-1 4.7.7.8 2.1-1.1 2.6-2.8 2.8 0 1.1.5 1.6 0 2.3-1.2 0-.8.3-1.1-.8-.1-.4-.2-1.3-.2-1.7-.2-1.1-.4-2.3-.6-3.3zm-20.4 5c.3-1.5 1.5-4.9 1.2-5.9l-1-.1-1.4 5.7 1.2.3zm26.7-5.3c.7-.1 1.3-.3 2-.5.6-.2 1.1-.5 1.2-1.1 0-.1 0-.1.1-.2.2 1.1.8 2 1.2 3 .9 2.1.6 2.1 1.5 2.4.6-.5.4.1.4-.8 0-.5-.9-1.9-1.2-3 3.2 1.9 3.2 2.9 4.7 1.9l-2.4-5.3-1 .4c.6 1 1 2.4 1.5 3.5-1-.3-3.4-2.5-4.1-2.4l-5.3 1.7 1.6 5.7 3.6-1c.8-.4.5.1.5-.8-.8-.5-2.2.4-3.3.5l-.4-1.5 2.7-.9c-.1-1-.2-1.1-3-.1l-.3-1.5zm-34.9.5c1.9.9.4-.2 1.3 1.7 1 .4 1 .5 1.9 0-.2-1.2-.9-1.3-1.7-2-2.9-2.9 4-4.6 3.5-.1l-.9-.6s-.9-2-1.8-1c-.8.8 1.6 1.7 2 2.6 1.4 3.1-4.8 3.8-4.3-.6zm-1.2 1.6c.3-.6.7-5.2.8-6.3l-1.1-.6-4.7 4.3c1.1.8 1.2.5 1.9-.4l2 1c.4 1.6-.4 1.6 1.1 2zm44.3-6.2c2.2-.9 3.9-3 5.8.3 1.7 3-1.6 4.6-3 4.9l-2.8-5.2zm4.9-2.9c.4 1 2.6 3.9 3.1 5.1l1-.5c-.2-.7-2.6-4.5-3.2-5.1l-.9.5zm-55-.4c.3-.2 0-.7 1.5.4.6.4 1 .6 1.6 1.1.3.2 1.3.7.8 1.2-.6.6-.4-.1-1.8-.5-.4.7-.8 1.3-1.3 2-.3.4-.4.6-.7 1l-.8.9-.1.1c-.4-.6-.3-.3-.7-.5.5-1.4 1.9-2.9 2.6-4.2-.4-.4-.4-.3-.8-.6l-.3-.9zm56.5-.4c1 1.2 2.6 3.8 3.7 4.6 1.9-1.4 4-2.4 2-5.4-.5-.8-1.6-1.7-3.1-1.2-.5.3-2.1 1.6-2.6 2zm-61.1 2.5c.7.7 1.4 1.2 2.2 1.6-.3.7-.2.5-.6 1l-3.3-2.5c1-1.7 2.4-3.3 3.6-4.8l.8.6c-.6 1.5-2 2.5-2.7 4.1zm65.6-6.2c.5-.3.4-.3 1-.5 1.1 1.2 3 3.3 3.8 4.5-.5.3-.3.3-.9.6-1.3-1.1-3.8-4.5-3.9-4.6zm-69.8 2.8c-.1-2 1.2-1.9 2.9-4.3-3.1-2 0-1.6-5.5-2 .6-.6 1.3-1 1.8-1.8l-.5-.8c-.9.4-1.9 1.5-2.7 2.1-2 1.7-2.4 1.2-1.5 2.4 1.4.1 0-1 3-.9-.2.7-.7 1.5-.8 2.3-.3 1.4.2 1 .7 1.9.4-1.4.8-2.8 1.2-4.1l3.2.1-2.5 2.9c-1.2 1.5-.3 2.8.9 3.5 1.8 1.1 3.1-.7 4.8-2.7.7-.9.7-.6-.1-1.4-2.4 1.3-2.5 4.8-4.9 2.8zm74.8-7.6l.1 3.1 4.2.9c-.5.6-.7 1.1-1.6 1-.7-.1-2-.5-2.6-.6-.1 1.6.4 1.9 1.3 2.5l-.7.9c-.9-.6-4-3.3-4.4-4.3l.5-.5c1.2.3 1 1 2.2 1.5-.1-2.7-.7-3.1 1-4.5zm1.2-1.5c.4.9 2.7 4.8 3.1 5.3 1-.8.6-1.1 0-2.2.3-.3 1.1-1.2 1.4-1.7 1.7.1 1.2.8 2.2-.5-.4-.4-.9-.5-1.5-.7-.5-.1-1-.3-1.5-.4-.9-.3-2.3-.6-3-1-.2.5-.5.7-.7 1.2zM17.8 96l-.7-.7c.3-.9.4-.6.7-1.5-.5-.7-.8-1.2-1.2-2-1.7.5-1.2.6-2.2-.4l1.4-.6c.5-.1 1-.2 1.6-.4 1.1-.3 2.3-.7 3.3-.8l.6 1c-.2 1-2.9 4.7-3.5 5.4zm86.5-9.4l.4-.9c1.2.8 4.3 2.2 5.2 3.1l-.5.9-4.3.2c1.2 1.3 3.5 1.5 2.7 2.5l-.7.2c-.1 0-.6-.3-.6-.3l-4-2.5c.6-1.3.9-1.1 4.9-1-.6-1-1.8-1.1-3.1-2.2zm-88.2.4l1.2 2.3-.7.4c-.6-.4-.3-.2-.7-.9-.3-.5-.4-.8-.8-1.2-2.1 1.2-1.8 1.4-2.6.5.2-.7-.1-.1.4-.6 0 0 .5-.3.6-.4l4.2-2.3c.3.7.6 1 1 1.7 1.4 2.5.9 1.7.5 2-.7.5-1.2-1.4-1.8-2.1l-1.3.6zm98.1-22.2c3-1.5 4.7 3.1 1.9 4.3-2.7 1.2-4.8-2.9-1.9-4.3zm-107.5 0c2.8-1.5 4.9 3 1.9 4.3-2.4 1.1-5-2.6-1.9-4.3zm51-50.2c-4.3.7-4.3.1-10 1.8-7.2 2.2-13.1 5.9-18.5 10.8-9.9 9.3-16.3 24-14.6 38.1C16.1 78 21 88.5 30.3 96.6c19.6 17.2 48.7 15.6 66.5-4.1 6.6-7.3 13.2-21 11.6-35.2-1.1-9.8-3.5-16.1-8.7-23.5-5.4-7.6-12.9-13.3-21.7-16.7-5.4-1.8-14.1-3.4-20.3-2.5zm52.9 35c-.3-.5-.3-1.6-.8-1.9-1.3-.8-1 .8-1.5-1.2 1.5.2 3.6 0 5.4.4 2.6.5-3 4.1-3.8 4.6-.2-.2-.2.4-.3-.7-.1-.6.2-.5 1-1.2zM9.7 47.9c1.9.4 4.1 1.8 3.9-.8-1.8-1.5-4.6-.5-4.1-2.3.7-.3.9-.1 1.8.2.6.2 1.2.3 1.7.5 2.8.9 1.9 4.8-1.4 4L9 48.8c-.7-.3-.3-.1-.6-.4.5-.8 0-.8 1.3-.5zm98.1-2.6l-.3-1 4.3-1.6c-.3-1.3-.8-1.3.3-1.8.5.7 1.6 3.3 1.2 4.1-1-.1-.7-.3-1.1-1.3l-4.4 1.6zm-93.1-4.1c-1.4-.9-2.5-.9-3.1-1.7l.3-.6c.6.1 4.6 1.7 5.2 2.3-.6 1.3-.4.9-4.5 1.3.7.6 2.5 1.2 2.7 1.3.5.4.4 0 .4.8-.8.5-5-1.6-5.3-2.2.5-.9-.1-.4.7-.7.5-.1 2.5-.1 3.6-.5zm95.2-5.2c.4 1.4 1.4 2.2 1.2 3.8-1 1.1-1.6 1.2-2.8.3-.3 1-.8 1.8-1.5 2.4-1.3-1.8.9-1.5.7-4-.8.1-1.7.6-2.3.9l-.3-1 5-2.4zm-97 .7c.2.1 4.7 2 5 2.6l-.5.7-5-2.4.5-.9zm88.9-3.4c.7-.4 4.5-.9 5.8-1.2l.7 1c-.7.8-3.3 4.2-3.8 4.5-.9-1.2-.3-.7.2-1.9-.2-.4-.7-1.4-1.1-1.6-1.4-.4-1.1 1.1-1.8-.8zm-86.1 1.8c.7.2 1.6.4 2.5.6-.8-.8-1.8-2.5-2.8-3.1l.6-1.1c.7.8 1.4 1.5 2.1 2.5.9 1.2 1.9 1.4 1.4 2.8-.8.3-3.4-.5-4.6-.8l-1.4-.6c.6-.6 0-.9 2.2-.3zm.9-4.6c.3-.5.7-.9 1.1-1.5.7-1 .7-1.3 1.3-1.3 1.5-.2-.8 1.8-1 2.8.6.3.4.3 1 .5l1.5-2 .7.3c-.3 1.1-1 1.6-1.5 2.4l1.2.8c.7-.5 1.2-1.5 1.5-1.8.4-.4 0-.2.6-.3.7 1.2-.7 1.4-1.8 3.6-1-.5-3.6-2.7-4.6-3.5zm82.3-.6c.3-1.2 3.2-3.1 4.3-3.8.5.6.3.3.5.9l-1.6 1.4c2.2.2 2.8-.1 3.9 1.2h-2.7c-.2.3 0 0-.3.5l-.5 1.4c-.3.7-.4 1.1-.6 1.8-1.5-1.3-.5-1.8.2-3.8-3.5-.4-1.3 1.5-3.2.4zM20 26.2c2-3.8 5.3-2.9 4.3-.2.6 0 1.1.1 1.6.2l1.2.5c-2 1.5-2.3-.5-4.1.7.2.9 1 1.3 1.6 1.7-.4.6-.2.4-.9.8 0-.4-3.1-2.9-3.7-3.7zm74.8-1c.7-.5 2-1 2.9-1.4.8-.4 2.2-1.4 2.8-.7.7.7-1.2 3.6-2 5.8-.5-.3-.8-.1-.7-1 0-.2.2-.6.3-1l-1.3-1.5c-1.3.4-1.2.8-2-.2zm-66.2-2.5c-1.1-.3-3.3 2-4-.3-.6-1.9 1.4-2.9 3.2-2.3-.6 2.2-2.1-.7-2.3 2.2 1.4-.1 1.6-.8 2.7-.9 1.7-.2 2.8 2.4.5 3.6-1.1.7-1.5.2-2.5-.2 1.2-1.5.3-.5 1.6-.6.3 0 .7-.2.9-.5.4-.7-.1-1-.1-1zm64.3 1c.4-.7 1.3-1.4 1.5-2.2.2-.8.4-2.4.6-3.3 1.5.7.8 1.4.5 3.1l2.4-.8c.5.3.5.4.9.8-6.1 1.9-3.1 1.8-5.3 2.9l-.6-.5zm-60.8-1.6c-.6.5-.2.3-1.1.6-.6-1.4-2.4-2.9-3.2-4.3l.7-.5c.8.4 3 3.3 3.6 4.2zm59.3-.8c-3.3.1-4.4-2.7-2.6-4.9 1.6-1.8 5-.6 4.6 2.1-1.8-.3-.5-.9-1.6-1.7-2.5-2-4.4 4.5-.7 3.4-.1-1.9-1.2 0-.4-1.9.6.2 1.6.9 2 1.2l-1.3 1.8zm-6.6-8.8c1.6-.7 3.2.4 3.5 1.8.3 1.4-1 3.2-1.8 3.6-3.4 1.3-5.4-3.8-1.7-5.4zm-52.1 2.1l.5.7c-.3.5-.7.7-1.1 1.1l2.7 3.8-.7.5c-1-.7-1.7-2.3-2.9-3.6l-1.4.7c-.2-.3-.1-.3-.4-.6l3.3-2.6zm6.9 2.7c-.8-.3-.7-.5-1.5-.7-1.8 1.2-1.4.4-1.5 1.2-.1.6.5.5-.6 1.7-.5-.7-.7-2.5-.9-3.5-1.2-6.1 2.2-1 5.2.6-.2.2-.4.3-.7.7zm3.4-3.7c-1.1-.3-1.6.3-2.8 0-3.2-.8 1.1-5.4 2.5-2.3-1.7.9-.2.2-1.5 0-.9-.1-1 .2-1.1.9l.8.2c.1 0 4-.8 3.2 2-.4 1.5-3.3 2.5-4 .4 1.6-.7.5.2 1.9.2.9 0 1-.5 1-1.4zM83.7 11c-1.7 1.8-3 1.2-3.8 4.4l-1.1-.4c1.2-2 .7-3.4.4-5.8 1 .3.9.1 1.2.9.1.3.2 1.6.2 2.1l1.9-1.6 1.2.4zM69.5 6.9c.8-.2 3 .2 3.6.9.3.4.5 1.3.2 1.9-.4.7-.7.5-1.4.8.6.6.9 1.5 1.2 2.7-1.5-.3-1.1-.1-1.6-1.5-.4-1-.4-1.1-1.3-1.5-.5.7-.3 1.5-.7 2.3l-1-.2c.2-1.5.6-4.2 1-5.4zm4.2 6.5c.2-1.1 1.1-4.8 1.4-5.5l1 .2c-.6 1.5-.8 4.5-1.7 5.4l-.7-.1zM46 8.4c1.4-.1 1.6.4 2.3 1.1.6.6.9 1 1.6 1.5-.1-1.2-1-2.5-.6-3.6 1.1.1.6-.4 1 1l1.1 4.4c-1.5.2-1.2-.1-2.1-1-.6-.6-1.1-1.1-1.8-1.6.9 3.4 1.4 3.2.3 3.6-.7-.4-1.7-4.6-1.8-5.4zm4 2.7s0-.1 0 0zM52.1 7l2.1-.3c1.8-.3 1.5-.3 1.8.3-.3.6.1.2-.5.5-.5.2-1.6.1-2.2.5l.1 1c2.9 0 2.1-.7 2.8.1-.3 1 .6.4-2.5.9-.2 1.8.1 1.7 3 1.2l.1 1c-1.1.2-3 .5-4 .3L52.1 7zm11.8-.7l4 .4c-.3 1.6-1.1.3-3 .6v1.1c1.9.5 2.6-.1 2.6.7 0 .8-.8.7-2.3.3-.2.2-.5 0-.4 1.5 1.2.2 2.2-.1 2.9.6-.3 1-.4.6-1.8.5l-1.9-.3s-.2 0-.2-.1-.1-.1-.2-.1l.3-5.2zm-1.5 2.5h-1.2c-1.7.2-.6-.3-1.1.6.4.7.6.2 1.3.7-.5 1.6-3.7 1.5-2.5-2.7 3.1-1 1.9 1.5 3.1.4 1.1-1-3.3-3.1-4.4.2-1 3.2 2.2 5 4.3 3.6.8-.6.5-1.6.5-2.8zM122 63.6c.8-8.1-1.9-19.3-4.6-25.5-6.1-14.3-15.9-24.2-29.3-31.1-15.7-8-36.6-8.1-52.3-.5-.1 0-.1.1-.2.1l-2.8 1.5c-1.4.7-3.3 1.8-4.7 2.8-3.1 2.2-5.8 4.3-8.4 6.7C8.4 28 1.6 43.3.9 59.3c-1 25.4 14 47.2 34.2 56.8 15.5 7.4 33.7 8.2 49.8 1.3 16.9-7.3 30.8-22.4 35.1-40.5 1.8-7.1 1.3-6.6 2-13.3z" clip-rule="evenodd"/>
  <path fill="#8CC137" fill-rule="evenodd" d="M122 63.6c-.7 6.7-.2 6.2-1.9 13.3-4.3 18.1-18.2 33.2-35.1 40.5-16.1 6.9-34.3 6.1-49.8-1.3C14.9 106.5-.1 84.6.9 59.3c.7-16 7.4-31.3 18.8-41.8 2.6-2.4 5.3-4.5 8.4-6.7 1.3-.9 3.3-2 4.7-2.8l2.8-1.5s.1-.1.2-.1C51.5-1.1 72.4-1 88.1 7c13.5 6.9 23.2 16.8 29.3 31.1 2.7 6.2 5.4 17.4 4.6 25.5zM0 57.2v8.6c.3.6.6 4.8.9 6.1.3 2 .8 4 1.3 5.9 1.9 6.9 4.1 11.3 7.6 17.1l3 4.2c6.8 9.5 20.2 18.7 31.9 21.6 2 .5 3.9 1 5.9 1.3 1.1.2 5.7.6 6.3.9h9.3c.7-.4 4.9-.7 6.1-.9 2-.3 4-.9 5.9-1.3 9.9-2.5 20.1-9 26.7-15.7 4.4-4.5 8.7-9.7 11.8-16.5 1.6-3.4 2.9-6.4 3.9-10.2.5-2 1-3.9 1.3-5.9.2-1.2.7-5.7.9-6.3v-9c-.3-.7-.7-4.9-.9-6.3-.4-2-.8-3.9-1.4-5.9-3-10.6-8.6-19.8-16-27-2.6-2.6-6.6-6.1-10-8C86.6 5.3 81 2.6 71.3 1c-1-.2-5.7-.6-6.1-.8h-7.8C55.7 1 36.2.1 18 18.1c-4.4 4.3-6.5 7.2-9.5 12.1-1 1.6-1.7 3-2.5 4.7-2.5 5-4.3 10.7-5.2 16.3-.2 1.1-.5 5.3-.8 6z" clip-rule="evenodd"/>
  <path fill="#8CC137" fill-rule="evenodd" d="M57.5 82.3c.5-2.5.1-10.7 0-13.6-.4-10.4.5-13.7 6.8-20.5C73.7 38 88.6 38 88.5 49.7c0 8.1-8.2 10.8-16.3 10.8-1.7 0-4.6-.3-5.2.6-.7.9.1 2 .9 2.2 1.1.3 6.3 0 7.5-.1C95.8 61.4 94 43.5 85.7 39.3c-10.8-5.5-23.6 4.6-29 13.9-3.3 5.7-2.1 17.4-2 24.3.1 2.5-.5 6.7 2.8 4.8z" clip-rule="evenodd"/>
  <path fill="#8CC137" fill-rule="evenodd" d="M107.3 66.5c-1.7 12.9-6.7 22-16 30.2-7.6 6.6-20.6 12.6-35.1 10.7-6.8-.9-12.2-2.7-17.4-5.6-4.8-2.7-9.6-6.7-12.6-10.4-7.9-9.8-12.3-21.3-10.7-35.1C19.3 24.1 54.1 5 84 21.1c15.5 8.4 25.8 27.2 23.3 45.4zM57.7 14.6c-4.3.7-4.3.1-10 1.8-7.2 2.2-13.1 5.9-18.5 10.8-9.9 9.3-16.3 24-14.6 38.1C16.1 78 21 88.5 30.3 96.6c19.6 17.2 48.7 15.6 66.5-4.1 6.6-7.3 13.2-21 11.6-35.2-1.1-9.8-3.5-16.1-8.7-23.5-5.4-7.6-12.9-13.3-21.7-16.7-5.4-1.8-14.1-3.4-20.3-2.5z" clip-rule="evenodd"/>
  <path fill="#8CC137" fill-rule="evenodd" d="M34.6 35.9c1.7.3 4.3.2 6.2.3 5.5.4 10.8 2.3 14.9 5.3 1.2.9 2.6 2.5 3.5 3.2 3.3 2.2 4.1-8.5 24.4-8.6 3.5 0 3.1-2.5 1.3-2.9l-6.1.2c-5.5.5-10.8 2.1-15.1 5.1-1 .7-3 2.6-3.7 2.9-4.5-4.7-12.7-7.8-19.9-8-3-.1-7.3-1.2-5.5 2.5z" clip-rule="evenodd"/>
  <path fill="#464D57" fill-rule="evenodd" d="M61.3 52.9c-.3.3-.7.9-.7 1.3 0 .3 1.9 3.9 2 11.6 0 3-.2 5.9-.2 8.9 0 1.9-.6 7.5 1.1 8 2.6.9 1.8-5.1 1.9-6.9.3-7.9.6-18-2.9-24.2-.6.4-.7.7-1.2 1.3zM40.5 37.7c-12.9-1.3-9.5 2.8-6.9 2.8 1.7 0 3.1-.1 4.8 0 3 .1 5.7.5 8.3 1.3 3.8 1.2 9.1 4.7 11 8.1l1.2-1.2c.4-.5.4-.6.7-1.1-.9-1.6-3.2-3.7-4.9-4.9-4.1-3-8.7-4.4-14.2-5z" clip-rule="evenodd"/>
  <path fill="#FFFEFD" fill-rule="evenodd" d="M75 110.4c.7-.1 1.3-.3 2-.5.6-.2 1.1-.5 1.2-1.1 0-.1 0-.1.1-.2.2 1.1.8 2 1.2 3 .9 2.1.6 2.1 1.5 2.4.6-.5.4.1.4-.8 0-.5-.9-1.9-1.2-3 3.2 1.9 3.2 2.9 4.7 1.9l-2.4-5.3-1 .4c.6 1 1 2.4 1.5 3.5-1-.3-3.4-2.5-4.1-2.4l-5.3 1.7 1.6 5.7 3.6-1c.8-.4.5.1.5-.8-.8-.5-2.2.4-3.3.5l-.4-1.5 2.7-.9c-.1-1-.2-1.1-3-.1l-.3-1.5zm-50.7-8.7c-.1-2 1.2-1.9 2.9-4.3-3.1-2 0-1.6-5.5-2 .6-.6 1.3-1 1.8-1.8l-.5-.8c-.9.4-1.9 1.5-2.7 2.1-2 1.7-2.4 1.2-1.5 2.4 1.4.1 0-1 3-.9-.2.7-.7 1.5-.8 2.3-.3 1.4.2 1 .7 1.9.4-1.4.8-2.8 1.2-4.1l3.2.1-2.5 2.9c-1.2 1.5-.3 2.8.9 3.5 1.8 1.1 3.1-.7 4.8-2.7.7-.9.7-.6-.1-1.4-2.4 1.3-2.5 4.8-4.9 2.8zm36.3 9.7l-1.8-.1-1.5 3.7c-.6-4.2-.4-4-2.4-4.1-.2 1-.2 2-.3 3.1-.1.9-.4 2.2.1 2.9 1.5-.2.4-.2 1.2-3.7.5 1 .4 2.6.7 3.2.2.7 0 .4.6.7 1.1-.1.9-.4 1.3-1.6l.9-2.2c0 2.1-.5 3.1 0 4h.8l.4-5.9zm49.3-22.6c-.9-.9-4-2.3-5.2-3.1l-.4.9c1.2 1.1 2.5 1.2 3 2.1-4-.1-4.3-.3-4.9 1l4 2.5c.1 0 .6.3.6.3l.7-.2c.8-1-1.5-1.2-2.7-2.5l4.3-.2.6-.8zm-18.7 13.9c2.4-2.9 5.7 1.6 2.4 2.9-.7-.5-.2-.1-.7-.8l-1.7-2.1zm-1.6-.1c1 1.2 2.6 3.8 3.7 4.6 1.9-1.4 4-2.4 2-5.4-.5-.8-1.6-1.7-3.1-1.2-.5.3-2.1 1.6-2.6 2zM6.7 64.8c-3.1 1.7-.5 5.4 1.9 4.3 3-1.3.9-5.9-1.9-4.3zm107.5 0c-3 1.5-.8 5.5 1.9 4.3 2.8-1.3 1.1-5.8-1.9-4.3zm-29.5 41.7c.9-.4 1.6-1 2.5-.3.7.5 1.1 1.7 1.1 2.8-.6.5-.9.7-1.6 1-.8-.7-1.5-2.4-2-3.5zm1.3 5c1.4-.3 4.7-1.9 3-4.9-1.9-3.3-3.6-1.2-5.8-.3l2.8 5.2zm13.8-9.5l.7-.9c-.9-.6-1.4-.9-1.3-2.5.6.2 1.9.5 2.6.6.9.1 1.1-.4 1.6-1l-4.2-.9-.1-3.1c-1.7 1.4-1.1 1.8-.9 4.5-1.2-.6-1-1.2-2.2-1.5l-.5.5c.3 1 3.4 3.6 4.3 4.3zm-81.3-9.2l-.9-1.2c1-.2 1.3-.4 2.1-.4-.4.6-.7 1.1-1.2 1.6zm-.7 3.2c.6-.7 3.3-4.5 3.5-5.3l-.6-1c-1 .1-2.2.5-3.3.8-.5.1-1.1.2-1.6.4l-1.4.6c1 1.1.5.9 2.2.4.4.8.7 1.2 1.2 2-.3.9-.4.5-.7 1.5l.7.6zM70.4 8l2 .3-.1 1.1h-2.2l.3-1.4zm-.9-1.1c-.5 1.2-.8 3.9-1.2 5.4l1 .2c.4-.8.2-1.6.7-2.3.9.4.9.5 1.3 1.5.5 1.4.2 1.2 1.6 1.5-.2-1.2-.6-2.1-1.2-2.7.7-.3 1.1-.1 1.4-.8.3-.6.2-1.5-.2-1.9-.4-.7-2.6-1.1-3.4-.9zm-29.4 104c-.6 4.4 5.6 3.7 4.3.6-.4-.9-2.7-1.8-2-2.6.9-.9 1.8 1 1.8 1l.9.6c.4-4.5-6.4-2.8-3.5.1.7.7 1.5.8 1.7 2-.9.5-1 .3-1.9 0-.8-1.9.7-.8-1.3-1.7zm21.1.5c-.1.1-1.2 6 2.4 6 3.5 0 2.2-3.5 2.2-6.3h-1c-.4.7-.3 1.5-.1 2.5.5 3.9-1.7 2.7-2 2.3-.6-.7-.1-3.6-.8-4.6l-.7.1zM103 94.8c-.2-.2-1.2-1.6-1.2-1.6l1.2.1c.3.1.6.2 1 .3l-1 1.2zm2.6-1.9c-.5-.1-1-.3-1.5-.4-.9-.3-2.3-.6-3-1-.3.4-.6.5-.8 1.1.4.9 2.7 4.8 3.1 5.3 1-.8.6-1.1 0-2.2.3-.3 1.1-1.2 1.4-1.7 1.7.1 1.2.8 2.2-.5-.4-.3-.8-.4-1.4-.6zm-84.2-67c1.8-2.3 3.2-.9.9.9l-.9-.9zm-1.4.3c.7.8 3.8 3.3 3.9 3.7.7-.3.5-.2.9-.8-.7-.4-1.4-.8-1.6-1.7 1.7-1.2 2.1.8 4.1-.7l-1.2-.5c-.5-.1-1-.1-1.6-.2.7-2.7-2.6-3.6-4.5.2zm16.8 82.5c.5-.5 1-.9 1.6-1.3l-.3 2.2-1.3-.9zm2.1 3.8c.3-.6.7-5.2.8-6.3l-1.1-.6-4.7 4.3c1.1.8 1.2.5 1.9-.4l2 1c.4 1.6-.4 1.6 1.1 2zm-27.3-73c.6.8 1.7.8 3.1 1.7-1.1.4-3 .3-3.6.5-.8.3-.2-.2-.7.7.3.5 4.5 2.6 5.3 2.2 0-.8.2-.4-.4-.8-.2-.2-2-.8-2.7-1.3 4.1-.3 3.9.1 4.5-1.3-.6-.6-4.5-2.2-5.2-2.3l-.3.6zM62.4 8.8h-1.2c-1.7.2-.6-.3-1.1.6.4.7.6.2 1.3.7-.5 1.6-3.7 1.5-2.5-2.7 3.1-1 1.9 1.5 3.1.4 1.1-1-3.3-3.1-4.4.2-1 3.2 2.2 5 4.3 3.6.8-.6.5-1.6.5-2.8zM49.9 11c.1 0 .1.1 0 0 .1.1.1.1 0 0 .1.1-.3.3 0 0zm0 0c-.7-.5-1-.9-1.6-1.5-.7-.7-.9-1.2-2.3-1.1 0 .8 1.1 5 1.7 5.5 1.2-.4.6-.2-.3-3.6.7.4 1.2 1 1.8 1.6.9.9.7 1.2 2.1 1l-1.1-4.4c-.4-1.3 0-.9-1-1-.3 1 .7 2.3.7 3.5zm59.7 26.4c.1.2 1.3 2.5-.3 2.2-.6-.1-.9-1.1-1-1.7l1.3-.5zm-4.7.9l.3 1c.6-.3 1.5-.8 2.3-.9.2 2.6-2 2.3-.7 4 .6-.6 1.2-1.4 1.5-2.4 1.2.9 1.8.9 2.8-.3.2-1.7-.7-2.4-1.2-3.8l-5 2.4zM85.3 13.4c2.2-1.1 2.5 2.5.7 3.4-1 .5-2-.1-2-1.2-.1-1.6.8-2 1.3-2.2zm-.5-.9c-3.7 1.7-1.7 6.7 1.7 5.3.8-.3 2.1-2.2 1.8-3.6-.3-1.3-2-2.5-3.5-1.7zM72.1 112.7c-.5.4-1 .4-1.8.5l-.3-1.6c1.3-.4 2.5-.5 2.1 1.1zm-1.5 3.9c.5-.7 0-1.2 0-2.3 1.8-.3 3.6-.8 2.8-2.8-.7-1.8-2.8-.8-4.7-.7.2 1 .3 2.2.5 3.4.1.4.1 1.2.2 1.7.4 1-.1.7 1.2.7zm20.8-95.3l1.4-1.8c-.4-.3-1.4-1-2-1.2-.8 1.9.3 0 .4 1.9-3.7 1.2-1.8-5.3.7-3.4 1.1.8-.2 1.4 1.6 1.7.5-2.8-3-3.9-4.6-2.1-1.9 2.2-.8 5 2.5 4.9zm7.5 8.6c1.9 1.1-.3-.8 3.1-.5-.7 2.1-1.7 2.5-.2 3.8.2-.7.3-1.1.6-1.8l.5-1.4c.3-.5.1-.2.3-.5h2.7c-1.1-1.3-1.7-1-3.9-1.2l1.6-1.4c-.3-.6-.1-.3-.5-.9-1 .8-3.9 2.6-4.2 3.9zM43 13.6c0 .9-.1 1.4-1 1.5-1.4 0-.3-.9-1.9-.2.7 2.1 3.6 1.1 4-.4.8-2.8-3.1-2-3.2-2l-.8-.2c.1-.7.3-1 1.1-.9 1.3.2-.2.9 1.5 0-1.5-3.2-5.7 1.5-2.5 2.3 1.2.2 1.7-.4 2.8-.1zm-14.4 9.1s.5.3.1 1.1c-.2.3-.5.5-.9.5-1.3.1-.4-.9-1.6.6 1 .4 1.4.8 2.5.2 2.2-1.3 1.1-3.8-.5-3.6-1.1.1-1.3.8-2.7.9.3-2.9 1.7 0 2.3-2.2-1.8-.5-3.8.4-3.2 2.3.7 2.2 2.9-.1 4 .2zm-12 7.8c.9.8 3.5 3.1 4.6 3.4 1.1-2.2 2.5-2.4 1.8-3.6-.6.1-.2 0-.6.3-.3.3-.8 1.3-1.5 1.8l-1.2-.8c.5-.8 1.2-1.2 1.5-2.4l-.7-.2-1.5 2c-.6-.2-.4-.2-1-.5.3-.9 2.5-2.9 1-2.8-.6.1-.6.3-1.3 1.3-.4.6-.7 1-1.1 1.5zM52.1 7l.6 5.4c1.1.2 3-.1 4-.3l-.1-1c-2.9.5-3.2.7-3-1.2 3.1-.5 2.2.2 2.5-.9-.7-.8.1-.1-2.8-.1l-.1-1c.6-.4 1.7-.2 2.2-.5.7-.3.3.2.6-.4-.3-.5 0-.5-1.7-.3l-2.2.3zm53.7 26.5c.3-.1.5-.1.8-.1l-1.1 1.4s-.1.1-.3.2l-.5-1.1 1.1-.4zm-4-.2c.7 1.8.4.3 1.7.9.4.2.9 1.2 1.1 1.6-.5 1.2-1.2.7-.2 1.9.6-.4 3.1-3.8 3.8-4.5l-.7-1c-1.2.2-5 .8-5.7 1.1zM63.5 11.5c.1 0 .2 0 .2.1s.1.1.2.1l1.9.3c1.4.1 1.5.5 1.8-.5-.7-.7-1.7-.4-2.9-.6-.1-1.5.2-1.3.4-1.5 1.5.4 2.4.5 2.3-.3 0-.8-.6-.3-2.6-.7V7.3c1.9-.2 2.7 1 3-.6l-4-.4-.3 5.2zM111 47.7h1.9c-.5.6-.2.3-.8.8-.4.3-.4.3-.7.5l-.4-1.3zm-.4 1.9c-.7.6-1 .6-1 1.2.1 1.1.2.4.3.7.8-.5 6.4-4 3.8-4.6-1.8-.4-3.9-.2-5.4-.4.5 2.1.2.5 1.5 1.2.4.3.5 1.4.8 1.9zM98.7 25.9c-1-.6-.7-.5-1-1.1.6-.3 1.2-.5 1.8-.8l-.8 1.9zm-3.9-.7c.8 1 .6.6 1.9.3L98 27c-.1.4-.3.8-.3 1 0 .9.2.7.7 1 .8-2.2 2.7-5.1 2-5.8-.6-.7-2 .3-2.8.7-.8.3-2.1.8-2.8 1.3zm-57.3-9.4l-1.2.7-.3-1.9c.7.3 1.1.7 1.5 1.2zM36 19.4c1.1-1.2.5-1.1.6-1.7.1-.8-.3 0 1.5-1.2.8.3.6.4 1.5.7.3-.3.5-.4.7-.7-3-1.6-6.4-6.7-5.2-.6.3 1 .4 2.8.9 3.5zM9.5 44.9c-.5 1.8 2.3.7 4.1 2.3.2 2.6-2.1 1.2-3.9.8-1.3-.3-.8-.3-1.2.6.2.2-.2 0 .6.4l2.6.7c3.3.8 4.2-3.1 1.4-4-.5-.2-1.1-.3-1.7-.5-1-.4-1.2-.6-1.9-.3zm7.8 41.5c.6.7 1.1 2.6 1.8 2.1.4-.3.9.4-.5-2-.4-.7-.7-1-1-1.7l-4.2 2.3c-.1 0-.5.3-.6.4-.5.5-.2-.1-.4.6.8.8.5.7 2.6-.5.3.4.5.7.8 1.2.4.7.1.5.7.9l.7-.4-1.1-2.3 1.2-.6zm-1.9-53.8c1 .6 2 2.3 2.8 3.1-.9-.1-1.8-.4-2.5-.6-2.2-.6-1.7-.3-2.3.3l1.4.6c1.2.3 3.8 1 4.6.8.5-1.4-.5-1.7-1.4-2.8-.7-1-1.4-1.7-2.1-2.5l-.5 1.1zm19.2 70.8c-1.6-1.1-1.2-.6-1.5-.4l.4.9c.4.3.4.2.8.6-.7 1.3-2.1 2.9-2.6 4.2.5.2.3 0 .7.5l.1-.1.8-.9c.3-.4.4-.6.7-1 .4-.7.9-1.4 1.3-2 1.4.4 1.2 1.1 1.8.5.5-.5-.4-1-.8-1.2-.6-.5-1-.7-1.7-1.1zm-6.1 1.7c.7-1.6 2.1-2.6 2.7-4.2l-.8-.6c-1.2 1.5-2.6 3.1-3.6 4.8l3.3 2.5c.4-.5.3-.2.6-1-.8-.2-1.5-.8-2.2-1.5zm22.4 10.2c.1-3.6 1.9-4.9-.2-5.1-.4.6-1.1 4.9-1.1 5.7.7.4 1.5.4 2.3.5 1.5.3 1.6.6 2-.6l-3-.5zM78.8 15l1.1.4c.9-3.2 2.1-2.6 3.8-4.4l-1.2-.5-1.9 1.6c-.1-.5-.1-1.8-.2-2.1-.3-.8-.2-.6-1.2-.9.3 2.5.8 3.9-.4 5.9z" clip-rule="evenodd"/>
  <path fill="#464D57" fill-rule="evenodd" d="M85.3 13.4c-.4.2-1.4.6-1.3 2.2 0 1.1 1 1.7 2 1.2 1.8-.9 1.4-4.4-.7-3.4z" clip-rule="evenodd"/>
  <path fill="#FFFEFD" fill-rule="evenodd" d="M92.9 23.7l.6.5c2.1-1.2-.8-1.1 5.3-2.9-.4-.3-.5-.5-.9-.8l-2.4.8c.3-1.8 1-2.5-.5-3.1-.2.9-.3 2.5-.6 3.3-.2.8-1 1.5-1.5 2.2z" clip-rule="evenodd"/>
  <path fill="#464D57" fill-rule="evenodd" d="M86.7 110.1c.7-.3 1-.5 1.6-1 0-1.2-.4-2.3-1.1-2.8-.9-.7-1.6 0-2.5.3.5 1 1.2 2.7 2 3.5zm4.5-7.4l1.7 2.1c.5.7.1.3.7.8 3.3-1.3 0-5.8-2.4-2.9z" clip-rule="evenodd"/>
  <path fill="#FFFEFD" fill-rule="evenodd" d="M111.8 42.8l-4.3 1.6.3 1 4.4-1.5c.4.9.1 1.2 1.1 1.3.4-.7-.7-3.3-1.2-4.1-1.1.4-.6.4-.3 1.7zM29.4 17.2c.3.3.3.3.4.6l1.4-.7c1.2 1.2 1.9 2.9 2.9 3.6l.7-.5-2.7-3.8c.4-.4.8-.6 1.1-1.1l-.5-.7-3.3 2.6zm18.9 98.5c.3-1.5 1.5-4.9 1.2-5.9l-1-.1-1.4 5.7 1.2.3zm50.5-12.8c-.8-1.3-2.7-3.4-3.8-4.5-.6.2-.5.3-1 .5.1.1 2.6 3.6 3.8 4.6.7-.3.5-.3 1-.6zm-6.6 5.2c-.2-.7-2.6-4.5-3.2-5.1l-.9.5c.4 1 2.6 3.9 3.1 5.1l1-.5zM73.7 13.4l.8.1c.9-.8 1.1-3.9 1.7-5.4l-1-.2c-.5.8-1.4 4.4-1.5 5.5zM12.5 37.7l5 2.4.5-.7c-.3-.6-4.8-2.5-5-2.6l-.5.9zm15.4-19.4c.8 1.4 2.6 2.9 3.2 4.3.8-.3.5-.1 1.1-.6-.6-.9-2.8-3.8-3.6-4.3l-.7.6z" clip-rule="evenodd"/>
  <path fill="#464D57" fill-rule="evenodd" d="M54.8 87.5c1-1.1 1.8-.2 2.8-.8-.6-.4-1.9-.4-2.5-.1-.8.2-1 .8-.8 1.8.2 1.6 2 1.3 3.6 1.2v-1.7h-1.2l-.8.1-.1.1c1.1.7 1.2-.3 1.6.7-.9.6-1.9.2-2.6-.3v-1z" clip-rule="evenodd"/>
  <path fill="#FFFEFD" fill-rule="evenodd" d="M50.3 87.2l-.1 1.3c1.4.8 3.3 1.1 3-1.3-.9-.3-2-.6-2.9 0zm-4.3.2c-2.7-1.8-4 1.2-2.1 1.6 1.7.4 2.2-.1 2.1-1.6z" clip-rule="evenodd"/>
  <path fill="#464D57" fill-rule="evenodd" d="M50.3 87.2c.9-.7 2-.3 2.8 0 .3 2.4-1.6 2.1-3 1.3l.2-1.3zm-.5 0c-.5 3.7 3.5 2.5 4 1.6.1-1.3 0-2.1-1.1-2.3-1.6-.3-2.3-.1-2.9.7zm-3.8.2c.1 1.4-.4 2-2.1 1.6-1.9-.4-.6-3.4 2.1-1.6zm.4-.6c-1.3-.7-4.2-.8-3.9 1.5.2 1.7 3 1.7 4.1.5l-.2-2zm26.9.2c1.2-.2 2.4-.2 2.3 1.1-.1 1.2-1.2 1-2.4.9l.1-2zm2.1 2.5c1.3-1.3 1.1-1.8.1-3.1h-2.7v3.2l2.6-.1zm3.3-2.6c1.7 0 2.3-.2 2.4 1.6-.6.5-1.2.5-2.4.5v-2.1zm-.5 2.7c2.6 0 3.5.3 3.3-2.4-1-1-1.6-.7-3.3-.7v3.1zm-9.3 0c.6-.7.2-1 .4-2.1 1.2.8 1.2 1.7 2.5 2.1.2-.8.1-.7 0-1.5-.1-2.1 0-1.3-.3-1.7-.4.6-.2 1.1-.3 2.1-.5-.6-1.6-2-2.5-2 0 .8-.2 2.3.2 3.1zm20-1.9c.3-.4.1-.1.4-.4.4 1.1.3.5-.7 1.1.2-.8-.2 0 .3-.7zm-.6.6c.8.6.5.4 1.7.5.7.9.1.6 1.2.8-.4-1-1.2-2.5-1.9-3.2-.9.3-1.8 2.2-2.2 3.2 1-.2 1-.4 1.2-1.3zm-49.4 1.3c.2-.4 0 .4.2-.6l.1-1.6c1.3 1.2 1.5 2 2.6 2.2 0-.9.2-2.5-.3-3.1-.2.3-.1 0-.2.5v1.6c-1.1-.8-1.3-1.8-2.6-2.2v2.7c.1.9 0 .1.2.5zm22.8-.6l.1-.7V87c1.1-.3 2.8-.5 2.3.9-.8.3-.8.1-1.7.3l-.3.1c.5 1 1.9.3 2.6-.2l-.1-1.1c-1-.8-2-.5-3.5-.5v2.6c.1.4.1.3.2.5.4-.3.3-.1.4-.6z" clip-rule="evenodd"/>
  <path fill="#FFFEFD" fill-rule="evenodd" d="M73.2 89c1.2.1 2.3.2 2.4-.9.1-1.4-1.1-1.3-2.3-1.1l-.1 2zm5.5.1c1.1 0 1.8-.1 2.4-.5 0-1.8-.7-1.6-2.4-1.6v2.1z" clip-rule="evenodd"/>
  <path fill="#464D57" fill-rule="evenodd" d="M91.9 89.6c.1-.2.1-.1.2-.5l.1-1.6c1 .8 1.1 1.8 2.6 2.1v-3.2l-.5 2.1c-1.5-.8-1.3-1.8-2.6-2.1 0 .6-.1 1.1-.1 1.7 0 1 0 1 .3 1.5zM36.3 88c.6-.4 1.2-1.2 1.7-1.5-1.5-.2-.7.3-2.5 1.4 0-.9.1-1-.3-1.5-.5.6-.4 2.6 0 3.1.3-.6.2-.6.3-1.5.6.7 1.2 1.4 2.5 1.5L36.3 88zm-4.2-1.1l2.2-.2c-.6-.4-1.9-.3-2.8-.2v3c.5 0 1.1.1 1.6.1 1.2 0 .9-.1 1.2-.3l-.9-.3h-1.3v-2.1zm33.7 0c1 0 1.5.1 2.3-.3-.8-.4-1.7-.2-2.8-.2v3.1h1.4c1 0 .8 0 1.3-.3-.7-.4-1.3-.2-2.2-.2v-2.1zm4.3 24.7l.3 1.6c.8-.1 1.3-.2 1.8-.5.3-1.6-.9-1.5-2.1-1.1zm38.1-73.7c.1.6.4 1.6 1 1.7 1.7.3.4-2 .3-2.2l-1.3.5zM70.1 9.4h2.2V8.3L70.4 8M48.7 89h-1.2v-2.2c-.1-.5-.1-.3-.2-.5-.5.7-.2 1.7-.3 3.2 1.2 0 2 .2 2.8-.3-.2-.1-.1-.1-.5-.2h-.6zm-20.6-2.4l.3.2s.1 0 .2.1c.1 0 .1 0 .2.1l.5.2c0 .9-.1 1.8.2 2.4.6-.8.1-1.3.4-2.5.6-.2.7 0 1.3-.4-.5-.4-.6-.3-1.7-.2-.9-.1-.9-.2-1.4.1zm-6.7-60.7l.9.9c2.3-1.8.8-3.2-.9-.9zM85 88.2c.6-1.1.5-.3 1.6-1.7-1.1 0-2 .9-2.4 1.6.7.7 1.1 1.3 2.3 1.5l-.8-.8c-.3-.3-.4-.4-.7-.6zm-2.4-1.8c-.7.4-.7 2.7 0 3.2.3-.6.3-2.1.2-2.7-.1-.5-.1-.2-.2-.5zm-45.8 22.3l1.4.8.3-2.2c-.7.5-1.2.9-1.7 1.4zM18.5 92.8c.6-.5.9-1.1 1.2-1.6-.9 0-1.1.2-2.1.4l.9 1.2zm83.2.4s1 1.4 1.2 1.6l1-1.1c-.4-.1-.7-.2-1-.3l-1.2-.2zm-2.2-69.1c-.6.3-1.2.5-1.8.8.3.5 0 .5 1 1.1l.8-1.9z" clip-rule="evenodd"/>
  <path fill="#464D57" fill-rule="evenodd" d="M83.8 86.4c-.4.6-.3 2.6 0 3.2.4-.7.5-2.6 0-3.2zm-7 .5v1c0 2 .1 1.4.3 1.7.2-.3.3.4.3-1.5v-1.7c-.7.2-.4-.1-.6.5zM36.3 16.5l1.2-.7c-.4-.5-.7-.9-1.5-1.2l.3 1.9zm22.5 69.9c-.5.6-.3 2.6 0 3.2.3-.6.5-2.5 0-3.2zM111.3 49c.3-.2.4-.2.7-.5.7-.5.3-.1.8-.8h-1.9l.4 1.3zm-6.5-15.2l.5 1.1c.1-.1.2-.2.3-.2l1.1-1.4c-.3 0-.5.1-.8.1l-1.1.4zM33.4 87.6c-.7-.1-.8.2-1 .3 0 0-.1 1.1 1.8.2-.3-.5.5-.4-.8-.5zm33.6 0c-.8 0-.6.1-.9.3.3.2-.6.5.9.5l.9-.2c-.2-.5.4-.6-.9-.6z" clip-rule="evenodd"/>
</svg>
