<svg xmlns="http://www.w3.org/2000/svg" width="523.3" height="252.4">
  <path fill="#FEFEFE" d="M.1 233.1C.1 156.4.1 79.6 0 2.9 0 .7.2 0 2.7 0c172.6.1 345.2.1 517.8 0 2.5 0 2.7.7 2.7 2.9-.1 63.9-.1 127.8-.1 191.7-1.2 1.1-2.7.9-4.2 1h-16.6c-1.2 0-2.5-.2-3.6.6-1.4 2.3-.7 4.9-.7 7.4 0 1.1.8 1.6 1.9 1.6 1.2 0 2-.4 2.2-1.7.3-1.5.4-3.1 2.3-3.4 2.4-.4 4.8-.6 7.1.3 1.3.5 1.3 1.8.9 3-2.2 6.6-4.4 13.2-6.9 19.7-.5 1.2-1.4 2-2.6 2.6-1.2.6-1.6 1.6-1.3 2.9.3 1.3 1.4 1.4 2.4 1.4 3 .1 5.9.1 8.9 0 1.1 0 2.4 0 2.8-1.5.3-1.3-.1-2.3-1.2-2.9-1.6-.8-2-2.2-1.4-3.8 2.6-6.6 4.1-13.6 7.5-19.9.7-.7 1.5-1.3 2.5-.6 0 16-.1 32.1.1 48.1 0 2.4-.5 2.8-2.8 2.8-60.8-.1-121.7-.1-182.5-.1h-309c-.2-.4-.1-.7.2-1 2.2-1 4.7-1 7-1.5 6.4-1.3 12.2-4 17.4-7.8 5-3.6 7.4-8.5 7.4-14.7-.1-11.6 0-23.1 0-34.7 0-.9-.1-1.8 0-2.7.1-1.3-.3-3.1 1.4-3.5 1.8-.4 2.9 1 3.7 2.4 1 1.7.9 3.5.9 5.4 0 11.3 0 22.6.1 33.9 0-12.3.1-24.7 0-37 0-6.1-2.1-7.7-8.1-6.8-2 .3-4.1.7-6.1 1.2-1.9.5-3.9 1-5.9.8 5.2.2 6.8 1.8 6.9 7.5.2 9.5 0 19 .1 28.5 0 4.4-.1 8.7 0 13.1.1 3.6-1.6 6-4.3 8.1-6.2 4.6-13.2 4.8-20.4 4.2-4-.3-8-.7-11.9-1.6-1.7-.4-3.3-.9-4.9-1.6C3.3 240.2 1.9 231 9.2 224c.2-.2.4-.4.4-.5-2.9 2.5-5.9 5.4-8.1 8.9-.3.5-.8.8-1.4.7z"/>
  <path fill="#E66A16" d="M.1 233.1c3.5-6 7.9-10.2 13-11.9-1.3 1.3-2.6 2.6-3.9 3.8-5.6 5.4-4.9 14.3 2 17.5 10.2 4.8 21.1 5.4 32.1 3.1 2.9-.6 5.1-2.5 7.4-4.2 1.5-1.1 2.1-2.6 2.1-4.4v-43.3c0-5.7-.2-5.7-8.1-7 5.6-1.8 10.9-3.3 16.3-3.7 4.9-.3 7 1.7 7.1 6.6v40.2c-.1.7.3 1.7-.9 1.8-1.5.1-1.2-1-1.2-1.9v-37.1c0-1.4-.2-2.8-.7-4-.5-1.2-1.6-1.9-2.7-1.8-1.6.2-.8 1.6-.8 2.5-.1 12.4-.6 24.8.1 37.1.5 9.4-4.4 14.7-11.4 19-6.6 4-13.8 5.8-21.5 6.3-1.6.6-3.3-.3-4.8.6h-.7c-1.9-.6-3.8-.5-5.7-.7-6-.6-10.7-3.6-15-7.6-1.8-1.7-2.1-3.9-2.7-6.1v-4.8z"/>
  <path fill="#FEFDFD" d="M.1 237.9c3.5 7.9 10.2 11.6 18.3 13.1 1.7.3 3.6-.1 5.1 1.3-7.2 0-14.4-.1-21.7 0-1.5 0-1.8-.3-1.8-1.8.1-4.1.1-8.3.1-12.6z"/>
  <path fill="#F3B993" d="M523.2 201.5c-.9-.1-1.5.5-2.1.9-.2-.3-.4-.6-.3-1 .4-5.1.4-5.1-4.9-5.1h-14.4c-1.5 0-3 .2-4.3-.7.3-1.6 1.6-1 2.5-1h23.6c-.1 2.3-.1 4.6-.1 6.9z"/>
  <path fill="#FAE3D3" d="M24.1 252.4c1.5-1.3 3.2-.5 4.8-.6v.6h-4.8z"/>
  <path fill="#A42F32" d="M273 168.5c-4 1.1-8.2 1.1-12.3 1.2-18 .4-35.9.6-53.9-1.2-12.7-1.3-19.1-8-19.1-20.8 0-2.7.1-5.5.1-8.2.5-3.4.2-6.8.2-10.2 0-2 .8-3 2.7-3.1 2.4-.1 4.8-.5 7.1.5 1.3 1.1 1.2 2.7 1.2 4.1.1 3.1 0 6.2 0 9.3 0 5 2 9.1 5.2 12.7 3.6 4.1 8.6 4 13.3 4.2 7.1.3 14.2 0 21.3.1 9.5.2 18.9.8 28.4-.5 6.3-.9 12.3-2.6 18-5.4 1.5-.7 3-1.8 4.8-1.8 1.7.5 1.3 1.8.7 2.7-4.5 7.1-8.8 14.3-17.7 16.4zm-26.1-163c5.9-2.1 12.1-2.3 18.2-2.6 17.6-.8 35.2.6 52.8 1.4 8.9.4 16.4 8.6 16.8 18.6.3 7.7.3 15.5-.5 23.3-3.1 1.6-6.2 1.2-9.4.4-1.4-1.1-1.2-2.6-1.2-4.1-.1-3.4 0-6.9 0-10.3 0-6.1-3-10.4-8.2-13.3-4.6-2.5-9.6-3.8-14.8-3.9-15.6-.4-31.3-1.1-46.8 1.6-6.4 1.1-12.7 3-18.4 6.3-.9.5-1.8 1-2.9 1-1.5-.4-1.2-1.5-.7-2.4 3.6-6.6 7.8-12.8 15.1-16z"/>
  <path fill="#DF5252" d="M324.5 46.1h9.7c.1 20.4 1.4 40.9-3 60.9-6 27.8-21.9 48.1-48.7 59-3 1.2-6.2 2.3-9.6 2.4 7.4-3.1 12.2-9.1 16.5-15.5.7-1 1.4-2.1 1.3-3.4 1.5-3.3 4.8-4.8 7.3-7 13.1-11.6 20.3-26.2 23.4-43.2 1.8-9.9 1.4-19.9 1.3-29.8-.1-6.9.5-13.7.8-20.6.1-.9.2-2 1-2.8zM246.9 5.5c-6 4.4-11 9.7-14.5 16.3-.3.6-.4 1.3-.6 1.9-.4 1.9-2.1 2.7-3.4 3.6-11.3 7.8-18.4 18.6-23.2 31.2-4.1 10.7-5 21.7-5.5 33-.5 10.8-.5 21.5-.6 32.3 0 1.2.1 2.6-1 3.5-3 .2-6.8-1.4-8.8.6-2 1.9-.5 5.8-.7 8.8-.1 1 .3 2-.5 2.9.1-22-.6-44 2.1-65.9 2.3-18.6 9.7-35.4 23-48.8 8.8-8.9 19-16.1 31.6-19.1.5-.2 1.3-.2 2.1-.3z"/>
  <path fill="#E66A16" d="M144.3 223.3c0-3.4.1-6.9-.1-10.3-.1-1.8 1.3-4.4-2.2-5.1-1-.2-.4-2.3-.4-3.5.1-1.4 1.2-1.1 2.1-1.1h9.3c.9 0 2-.1 2 1.2s.8 3.2-.8 3.6c-2.2.5-1.6 1.9-1.6 3.1V237c0 5.4-1.7 7.5-7.1 7.5-4.7 0-9.7 1.5-13.7-2.5-.6-.6-1-.1-1.4.4-1.5 2-3.7 2.1-5.9 2.1-3.7 0-7.3.1-11-.2-4.4-.4-6.9-4.7-5.6-8.8.3-.9.8-1 1.5-1 1.4 0 2.8.1 4.1 0 2.1-.2 3 .5 2.7 2.6-.6 3.3 1.5 3.4 3.9 3.5 2.7.1 3.3-1.1 3.2-3.5-.2-5.7.5-4.7-4.7-4.8h-3.4c-5.2-.2-7.2-2.3-7.3-7.4v-14.4c0-4.9 1.8-6.9 6.8-7 5.6-.2 11.2-.1 16.8 0 .9 0 2.4-.5 2.4 1 0 1.3 1.1 3.2-.9 3.8-1.2.4-1.2 1.1-1.2 2.1 0 7.3.1 14.7 0 22 0 2.7 1.7 2.1 3.2 2.2 2 .1 4.5-.7 4.2 3-.1 1.7 1.7 1.4 3 1.4 1.7.1 2.1-1 2.1-2.4v-13.3z"/>
  <path fill="#E66A17" d="M334 193.5c7.9 0 15.8.1 23.7-.1 2.6-.1 2.6 1.2 2.7 3.1.1 2-.4 2.8-2.6 2.8-10.9-.1-21.7 0-32.6-.1-2.7 0-3.4.8-3.2 3.3.2 1.9 0 3.9.1 5.8 0 .6.1 1.2.8 1.3.7.1 1.5.1 1.6-.8.3-2.3 2-1.5 3.2-1.4 1.8.2 1 1.8 1.1 2.7.1 1.6.1 3.2 0 4.8-.1.9.6 2.3-1.1 2.4-1.1 0-2.7.9-3.1-1.1-.2-.9-.6-1.2-1.4-1.1-1.2.1-1 1-1 1.8 0 1.6.1 3.2 0 4.8-.3 3 0 5.2 4 4.5 2.3-.4 1.7 1.6 1.7 2.8.1 1.4.3 2.8-1.9 2.8-5.4-.1-10.8-.1-16.1 0-2.6 0-1.7-1.8-1.8-3.1-.2-1.6.1-2.9 2.1-2.5 3.5.7 3.6-1.3 3.5-3.9-.1-6.7-.1-13.5 0-20.2 0-2.2-.6-3.2-2.9-2.9-2.3.4-2.9-.7-2.9-2.9s.6-3 2.9-2.9c7.6.2 15.4.1 23.2.1z"/>
  <path fill="#642C0E" d="M473.9 212.9c0 3.8.1 7.6 0 11.3-.1 4.4-2.1 6.6-6.5 6.7-3.7.1-7.3.1-11 0-4-.1-6.2-2.2-6.2-6.2-.2-7.9-.1-15.8 0-23.7 0-3.3 1.8-5.3 5.1-5.8 4.4-.6 8.9-.5 13.3-.1 3.4.4 5.1 2.4 5.2 5.7.1 4.1 0 8.1.1 12.1z"/>
  <path fill="#642D0E" d="M447.5 218.1c0 2.2 0 4.3-.1 6.5-.2 3.8-2.4 6.2-6.2 6.4-5.3.2-10.5.1-15.8.1-1.4 0-2.2-.4-2-1.9v-.3c-.9-6.9.6-12.8 6.9-16.8 2.5-1.6 4.5-4.2 6.7-6.3 1.3-1.2 1.7-2.8.8-4-1.2-1.5-3.2-.7-4.8-.7-1.6 0-1.5 1.4-1.6 2.5v.3c-.2 1.4.7 3.6-.6 4.1-1.9.7-4.3.3-6.4.3-.5 0-.7-.4-.9-.8-2.5-6.3 1-12.1 7.7-12.4 3.4-.1 6.9-.1 10.3.2 4 .4 5.6 2.6 6 6.6.4 4.6-.6 8.3-4.6 11-1.4 1-2.4 2.4-3.6 3.6-.5 2.2-2.4 3.2-3.8 4.7-.6.6-1.6 1.2-1.1 2.3.3.6 1 .5 1.5.5 1.1 0 2-.3 2.3-1.5.4-1.5-.4-3.6 1.3-4.4 1.7-.9 3.8-.2 5.7-.3.8-.1 1.6-.4 2.3.3z"/>
  <path fill="#E66A16" d="M219.7 193.5c4.6 0 9.2.1 13.7 0 2.5-.1 2.3 1.5 2.3 3.1 0 1.7-.1 2.8-2.3 2.7-4.5-.1-8.9 0-13.4-.1-1.8 0-2.8.4-2.6 2.5.2 2.2 0 4.3 0 6.5 0 .7.1 1.4 1 1.5.7.1 1.4.1 1.5-.9.2-2.3 2-1.4 3.1-1.4 1.6.1 1 1.5 1 2.4.1 1.7.1 3.4 0 5.2 0 .9.5 2.4-1.1 2.3-1.1 0-2.7.9-3-1.1-.2-1.2-.9-1.1-1.7-1-.9.2-.8.9-.9 1.6v2.7c0 6.8 0 6.7 6.9 6.7 2.1 0 3-.6 2.6-2.7-.4-2.4 1-2.5 2.9-2.5 2-.1 2.7.5 2.8 2.7.2 8.1.2 8.1-7.9 8.1-6.2 0-12.4-.1-18.6 0-2 0-3-.3-2.8-2.6.1-1.8-.1-3.6 2.6-3.1 2.5.5 3-.8 3-3.1-.1-7-.1-14 0-21 0-2.1-.3-3.4-2.8-2.9-2.4.4-2.8-.8-2.8-2.9 0-2.3.6-3 2.9-2.9 4.6.4 9.1.2 13.6.2zm40.9 16.7c0 3.5-.2 7.1.1 10.6.1 2.1-1.4 4.7 1.9 6.1.6.2.4 2.8.1 4.2-.3 1.2-1.8.7-2.7.7-5.4 0-10.8.1-16.1 0-5-.1-7.1-2.2-7.1-7.1v-14.4c0-5 1.7-6.9 6.6-7.3 2.2-.2 4.3 0 6.5-.1.9 0 2.3.5 2.4-1.1.1-1 .5-2.1-1.3-2.6-2.4-.7-1-2.9-1.1-4.4-.1-1.8 1.6-1.3 2.6-1.3 8.2-.3 8.2-.3 8.2 7.8-.1 3-.1 6-.1 8.9zm31 5.8c0 3.3.1 6.6 0 10-.1 3.8-1.9 5.7-5.7 5.8-3.9.2-7.8.2-11.7 0-4.2-.2-6.2-2.3-6.3-6.6-.1-4.8 0-9.6 0-14.4 0-1.2.2-2.3-1.6-2.8-2-.5-.9-2.5-.9-3.9-.1-1.3 1.2-1.1 2.1-1.1 8.9-.6 8.9-.6 8.9 8.2 0 4.4.2 8.7-.1 13.1-.2 2.9.8 3.7 3.7 3.7 3.1.1 3.6-1.2 3.5-3.9-.2-4.1 0-8.2-.1-12.4 0-1.5.8-3.3-2-3.9-1.4-.3-.7-2.4-.6-3.7 0-1.3 1.2-1 2.1-1.1 8.8-.6 8.8-.6 8.8 8.2 0 1.6 0 3.2-.1 4.8z"/>
  <path fill="#E66A17" d="M174.6 232.2H167c-2 0-3.8-.5-5.2-2.2-1.7-2.1-2.3-10.7-.7-12.9.8-1.2 2-1.9 3.5-2 1.8-.1 3.7-.3 5.5-.3 4.5 0 4.4 0 4.3-4.5 0-1.9-.4-3-2.6-3-2.1 0-3.4.6-3.1 2.9.3 2.1-.8 2.6-2.6 2.4-.5-.1-1 .1-1.4 0-1.5-.5-3.9 1.4-4.4-1.5-.6-3.4.9-6.7 3.7-7.2 5-.9 10.1-.9 15-.1 3 .5 3.6 3.2 3.7 5.9v13.7c0 1.3-.4 2.5 1.4 3.4 1.5.8.8 3 .5 4.5-.3 1.6-1.9.9-2.9 1-2.3 0-4.7-.1-7.1-.1z"/>
  <path fill="#E66A16" d="M346.7 231.9c-2.6 0-5.3.1-7.9 0-3.8-.2-5.9-2.3-6-6-.1-1.8 0-3.7 0-5.5.1-3.6 1.7-5.4 5.4-5.6 2.2-.1 4.3-.1 6.5 0 1.5.1 2.3-.6 1.9-2-.6-2 2.1-5.5-2.6-5.6-1.9-.1-3.2.5-2.9 2.7.4 2.4-.7 3.1-2.9 2.7-.3 0-.7.1-1 0-1.5-.5-3.9 1.4-4.4-1.5-.7-3.7.5-6.6 3.4-7.3 5-1.2 10.2-1.1 15.3-.1 2.5.5 3.4 2.6 3.4 5 0 3.7-.2 7.3.1 11 .2 2.6-1.1 5.2 1.7 7.7 2 1.7-.1 4.8-2.9 4.8-2.3-.3-4.7-.3-7.1-.3zm-244.9-14.1c0 2.6.1 5.3 0 7.9-.1 3.6-1.6 5.6-5.2 6.1-4.5.7-9.1.7-13.7 0-3.3-.5-5-2.8-5-6-.1-5.5-.1-11 0-16.5.1-3.5 1.9-5.6 5.4-5.9 4.3-.3 8.7-.3 13-.1 3.7.2 5.2 1.9 5.4 5.8.2 3 0 5.9.1 8.7z"/>
  <path fill="#652D0E" d="M497.1 195.6c7.2 0 14.4-.1 21.6-.1 3.4 0 4.6 1.7 3.2 4.9-.3.7-1.2 1.1-.9 2.1-2.4 6.7-4.8 13.3-7.2 20-.5 1.3-1.2 2.5 1.3 2.7 3 .2 1.1 2.6 1.5 4 .4 1.4-.4 2-1.9 2-4.1-.1-8.2-.1-12.4 0-1.7 0-2.4-.7-2-2.2.3-1.4-1.4-3.9 1.7-3.8 1.8 0 2.3-.8 2.8-2.3 2.2-6.5 4.4-12.9 6.8-19.3.7-1.8.5-2.6-1.6-2.4-1.1.1-2.3.1-3.4 0-2.5-.2-4 .2-3.5 3.3.5 2.8-1.8 1.9-3.2 2-1.5.1-3 .4-2.8-2.1.2-3.1.1-5.9 0-8.8zm-4.3 14.6c0 4 .1 8 0 12-.1 2.2.6 3.2 2.8 2.8 2.8-.5 2.7 1.2 2.8 3.2.1 2.2-.5 3-2.8 2.9-4.9-.2-9.8-.2-14.8 0-2.3.1-3-.6-2.8-2.9.1-1.9-.2-3.8 2.7-3.3 2.5.5 3-.7 3-3-.2-6.1-.2-12.1 0-18.2.1-2.3-.6-3.3-2.9-2.9-2.8.5-2.7-1.2-2.8-3.2-.1-2.4.7-2.9 2.9-2.8 3.1.2 6.2.2 9.3 0 2.4-.1 2.9.8 2.8 3-.3 4.1-.2 8.3-.2 12.4z"/>
  <path fill="#E66A16" d="M392.2 206.3c1.9-1.4 3.8-2.5 6.1-3 3.9-.9 6.6 1.1 6.7 5 .1 2.6-.1 5.3 0 7.9.1 1.8-.4 2.6-2.4 2.6-6 .1-5.9.2-6-5.9 0-1.4.8-3.6-.6-4-1.6-.5-2.4 1.8-3.4 2.9-.7.7-1 1.5-1 2.5v10c0 .7-.2 1.7.9 1.9 2.8.7 1.4 3 1.4 4.5 0 2-1.9 1.1-3 1.2-2.5.1-5 .1-7.6 0-1 0-2.7.5-2.5-1.3.2-1.4-1.4-3.7 1.3-4.2 1.8-.4 1.3-1.6 1.3-2.6.1-3.9.1-7.8 0-11.7 0-1.6.9-3.6-2-4.2-1.3-.3-.6-2.5-.5-3.8 0-1.4 1.3-1 2.1-1h4.5c3.7-.1 3.7-.1 4.7 3.2z"/>
  <path fill="#E66A17" d="M365.9 217.3v-6.5c0-1.2.3-2.4-1.6-2.8-1.9-.4-.9-2.3-1-3.5-.1-1.5 1-1.5 2.1-1.5h9.3c1 0 2.3-.3 2.2 1.3-.1 1.3 1.1 3.3-1.1 3.8-1.7.4-1.5 1.4-1.5 2.5V224c0 1.2-.1 2 1.6 2.4 2.1.6.9 2.7 1.1 4.1.2 1.5-1.1 1.5-2.1 1.5h-9.3c-1 0-2.3.3-2.3-1.3 0-1.4-.8-3.7.6-4 2.8-.6 1.9-2.3 2-3.8v-5.6z"/>
  <path fill="#E76D1B" d="M280.5 199.3c-4.2 0-8.5-.1-12.7.1-2.3.1-2.6-.9-2.6-2.9.1-1.7-.1-3.1 2.4-3 8.6.1 17.1.1 25.7 0 2.6 0 2.3 1.4 2.3 3 .1 1.9-.2 3-2.5 2.9-4.2-.2-8.4-.1-12.6-.1z"/>
  <path fill="#E76D1C" d="M394.3 199.3c-3.8 0-7.6-.1-11.3 0-2.4.1-2.1-1.4-2.1-2.9 0-1.4-.4-3 2-3 7.7.1 15.3.1 23 0 2.5 0 2.3 1.4 2.4 3.1 0 1.7-.1 2.9-2.3 2.8-3.9-.1-7.8 0-11.7 0z"/>
  <path fill="#E66A16" d="M122.2 199.4c-4 0-8-.2-12 .1-2.7.1-2.2-1.5-2.3-3-.1-1.7.1-2.7 2.3-2.7 8.1.1 16.2.1 24.3 0 2.4 0 2.5 1.1 2.5 2.9 0 1.9-.2 2.9-2.5 2.8-4.1-.2-8.2-.1-12.3-.1z"/>
  <path fill="#E66A17" d="M91.4 199.4c-3.8 0-7.6-.1-11.3 0-2.2.1-2.4-1-2.3-2.7 0-1.7-.1-3.1 2.4-3 7.7.1 15.3.1 23 0 2.4 0 2.1 1.4 2.1 2.9s.3 2.9-2.1 2.8c-4-.1-7.9 0-11.8 0zm82.9 0c-3.9 0-7.8-.1-11.7 0-2.2.1-2.3-1-2.3-2.7 0-1.7 0-3 2.4-3 7.7.1 15.3.1 23 0 2.4 0 2 1.4 2.1 2.9 0 1.6.1 2.9-2.2 2.8-3.7-.1-7.5 0-11.3 0z"/>
  <path fill="#E66B17" d="M150 196.4c2.7-3 3.7-5.8 3.3-9.2-.1-.8-.8-1.8.7-2.2 1.4-.4 1.8.4 2.2 1.5 2 4.9-1.8 12.9-6.9 14.3-3 .8-5.9-.5-7.1-3.2-1.1-2.4-.5-4.4 1.9-5.4 2.2-.9 4.3-.4 5.3 2.2.1.5.2 1 .6 2z"/>
  <path fill="#E66B18" d="M371.5 196.7c2.7-3.1 3.9-5.9 3.4-9.3-.1-1.1-.7-2.2 1.1-2.6 1.9-.3 1.7 1.3 1.9 2.1 1.3 4.3-1.2 10.6-5.1 12.9-1.6.9-3.4 1.5-5.3.9-2.7-.9-4.3-2.7-4.1-5.6.1-1.9 1.3-3.1 3.3-3.3 3.3-.4 4.4 1.4 4.8 4.9z"/>
  <path fill="#E77121" d="M241.9 199.3c-.8 0-1.6-.1-2.4 0-2.2.3-3-.5-3-2.8s.6-3.4 3.1-3.1c1.2.1 2.5 0 3.7 0 2.1 0 4.2-.7 4.2 3 0 3.8-2.4 2.7-4.3 2.8-.4.2-.9.1-1.3.1z"/>
  <path fill="#FAE4D5" d="M447.5 218.1c-1-.1-2-.2-3-.2-4.7-.1-4.7 0-5 4.7-.1 1 .2 2.3-1.3 2.4-1.9.1-4 .8-5.6-.4-1-.7 0-2.2.9-2.9 1.9-1.8 3.5-3.9 5.8-5.2 1.4 1.4 3.2.4 4.9.8 1.1.1 2.5-.8 3.3.8z"/>
  <path fill="#FEFEFE" d="M197.9 127.3c.3-12.6.5-25.1.7-37.7.2-13.6 2.6-26.7 8.8-39.1 5.6-11.2 13.7-20.1 24.2-26.8 12-7.3 25.4-9.6 39.1-9.8 11.3-.2 22.7-1.2 34 .7 5.7.9 11.1 2.6 15.5 6.7 3.1 2.9 4.2 6.4 4.3 10.5v14.4c-.2 13.6-.3 27.2-.8 40.8-.6 19.9-7 37.6-20.7 52.3-3.6 3.9-7.9 7.2-12.3 10.3-13.4 8.1-28.1 9.5-43.3 9-9.5-.3-19-.2-28.5-.5-4-.1-8.2.4-11.7-1.7-5.7-3.3-8.9-8.4-9.3-15.1-.1-4.6.1-9.3 0-14z"/>
  <path fill="#FEFEFD" d="M123.3 217.8c0 2.5-.1 5 0 7.5.2 3.1-1.9 2.8-3.9 2.8-2.2.1-3.4-.4-3.3-3 .2-5 .2-10.1 0-15.1-.1-2.8 1.6-2.8 3.5-2.8s3.8-.3 3.6 2.6c0 2.7.1 5.4.1 8z"/>
  <path fill="#FCF2EC" d="M459.1 212.8c0-3.1.1-6.2 0-9.2-.1-2.1.9-2.8 2.9-2.8 1.9 0 3 .4 2.9 2.7-.1 6.4-.1 12.8 0 19.1 0 2.1-.9 2.5-2.7 2.4-1.7-.1-3.2.2-3.1-2.4.1-3.2 0-6.5 0-9.8z"/>
  <path fill="#FEFCFB" d="M253.1 217.6c0 2.5-.1 5 0 7.5.2 2.9-1.6 2.7-3.5 2.7-2 0-4 .3-3.9-2.8.1-5 .1-10.1 0-15.1-.1-3.3 2-2.8 4.1-2.9 2.3-.1 3.4.5 3.3 3-.2 2.6 0 5.1 0 7.6z"/>
  <path fill="#FDF6F2" d="M174.5 223c0 .9-.1 1.8 0 2.7.2 1.8-.6 2.5-2.4 2.4-1.7-.1-3.3-.1-3.3-2.4v-5.2c-.1-2.5 1.4-2.6 3.4-2.7 2.1-.1 2.6.9 2.4 2.7-.2.9-.1 1.7-.1 2.5z"/>
  <path fill="#FEFDFC" d="M346.6 223c0 5-.3 5.3-3.6 4.8-1.4-.2-2-.9-2-2.2v-3.8c0-2.1-.3-4 3-4 3.4 0 2.5 2.1 2.6 3.8.1.5 0 1 0 1.4z"/>
  <path fill="#FEFBFA" d="M93.4 217.9c0 2.2-.1 4.4 0 6.5.2 2.8-.8 3.8-3.7 3.8-3 0-3.7-1.2-3.6-3.9.2-4.7.2-9.4 0-14.1-.1-2.9 1.5-3 3.7-3.1 2.3 0 3.8.3 3.6 3.1-.1 2.7 0 5.2 0 7.7z"/>
  <path fill="#DF3A3C" d="M229.1 146.5c-5.2.1-9.9.3-14.5-.9-1.7-.4-4.1-.8-3.9-3.1.2-2.1 1.9-3.7 4.1-4.1 2.4-.4 4.8-.6 7.2-.8 7.5-.6 12.6-4.4 15.2-11.4 3.4-9.2 3.9-19 5.5-28.6 1.7-10.3 3-20.6 4.7-30.9 1.6-10 7.9-15.6 16.6-19.2 5.8-2.4 5.9-2.2 5.5 3.8-.2 3.1-.9 5.9-5 5.9-1.1 0-2.2 1.2-2.5 2.4-.3 1-.1 1.8 1.2 2.7 2.1 1.5 3 4.6 3 6.7-.4 9-1.3 18-3.5 26.8-.2.7 0 1.6-1.3 1.4-1.2-.2-3.4 0-2.9 1.2.8 1.9-2.7 4.8 1.4 5.6.2 0 .5.4.5.4-1.6 2.6 1.7 4 1.5 6.4-.4 3.4-.2 6.9 0 10.3.1 2.5.1 4.8-2.6 6.1-.9.5-1.1 1.4-.9 2.4.8 3.4-1.2 6.4-1.4 9.6 0 .4-.3 1.1-.5 1.2-4.5.6-6.6 5.7-11.8 5.4-5.3-.3-10.7 1-15.6.7z"/>
  <path fill="#61BB47" d="M307.3 88.8c-1 2.8-2.7 3.4-4.8 3.3-2.6 0-5.3-.1-7.9 0-2.8 0-4.6 1.4-5.2 4-.7 2.8-1.1 5.6-1.7 8.4-.3 1.4.5 1.5 1.5 1.5 2.5 0 5 0 7.6.1.6 0 1.5-.4 1.8.4.3.9-.4 1.5-1 2-1.9 1.5-4.2 1-6.3.8-3.1-.3-4.6.4-5 3.9-.9 7.2-2.4 14.4-3.6 21.6-.9 5.2-3.9 8.6-8.8 10.5-1.9.7-3 .9-2.5-1.9 2.4-12.8 4.7-25.6 7-38.4.4-2.1.6-4.3 1-6.4 1.1-5.5 6.1-9.7 11.7-9.7 5.2-.2 10.5-.1 16.2-.1z"/>
  <path fill="#009DDB" d="M308.6 80.8c-.5 1.7-1.6 2.4-3.2 2.5-4.8.2-9.6.5-14.4.6-5.1.1-8.2-3.3-7.6-8.3.6-5.6 1.4-11.1 2.2-16.7 1-6.1 4.6-9.1 10.8-9.4 2.6-.1 5.3-.4 7.9-.4 5-.1 8.2 3.3 7.6 8.3-.3 2.6-.7 5.2-.9 7.8-.1 1.8-.9 2.2-2.6 2.3-4.5.1-8.9.5-13.4.5-2 0-2.8.7-2.9 2.7 0 1.9-.5 3.8-.7 5.8-.2 3.4.7 4.3 4.1 4.3h13.1z"/>
  <path fill="#FA6A4B" d="M278.5 37.2c.4.2.9.4 1.3.6.2-.1.5 0 .7.1.1 1.3-.7 1.5-1.7 1.4-11.2-1.5-19.7 3.2-26.8 11.6-1.1-1.7-2.1-3.2-3.1-4.8-.6-1.8 1-2.5 1.8-3.6 1.4-1.1 2.8-2.3 4-3.6.7-.7 1.1-1.5 1.8-2.1 1.3-1 2.5-2.2 4.3-2.2 3.5.4 7 .7 10.5.2.8-.2 1.6 0 2.4.5.8.5 1.7.6 2.5.9.8.2 1.5.8 2.3 1z"/>
  <path fill="#DF3B3D" d="M279.4 58.5c-1.7-1.9-4.6-.5-6-3.3-1.6-3.3-.8-6.6-1.4-9.9-.1-.6 1.1-.7 1.7-.9 2.7-.5 6-2.1 7.9-.7 2.3 1.5-.4 4.6-.6 7-.1 2.6-1 5.1-1.6 7.8z"/>
  <path fill="#A51218" d="M257.8 33c-6.1 1-10.6 4.4-14.2 9.2-.5.7-.9 2.7-2.3 1.2-.9-1-3-2-1-4.2 7.6-7.9 16.6-10.3 27.1-7.5.1 1-.8 1.1-1.5 1.3-.7.1-1.5.1-2.2.1-2 .6-3.9-1.1-5.9-.1z"/>
  <path fill="#CD252A" d="M260.5 35.1c-1.8-.1-2.2 2.3-4 2.1-.9 1.1-2.3 1.5-3.4 2.5-2.3.6-2.8 4-5.7 3.8-2.8-1-1.1-2.1 0-3.1 3.8-3.5 8.2-5.7 13.2-6.7 1-.9 2.3-.4 3.4-.7 1.5.2 3.1 0 4.6.4.4.2.5.5.5.9-.4.8-1.1.8-1.9.9-2.3.2-4.5-.6-6.7-.1z"/>
  <path fill="#EF4739" d="M247.4 43.5c2.2-.9 2.5-4.3 5.5-4.2.3-.2.5-.2.8-.1.1 2-1.7 2.4-2.8 3.5.1 1.6-2 2-2.1 3.5-1 .1-1 2.3-2.1 1.4-2-1.6.8-2.7.7-4.1z"/>
  <path fill="#2F1818" d="M282.7 39.4c.2-3.9 1-6.8 3.6-8.9.6-.5 1.2-1.4 1.8-.1.4.8 1.5 1.6-.1 2.4-2.4 1.2-3.5 3.7-5.3 6.6z"/>
  <path fill="#E24E50" d="M278.8 62.7c-.9 4.3-1.6 8-2.5 12.4-1.4-5.9-.8-9.1 2.5-12.4z"/>
  <path fill="#F5D9DA" d="M264.1 33.2c-1 1.2-2.4.2-3.5.5-.8-.9-1.9-.3-2.8-.6 2-1 4.1-.7 6.3-.5.2.1.3.3.3.4-.2.1-.3.2-.3.2z"/>
  <path fill="#9A2425" d="M273.5 31.1c-.4-.1-.9-.1-1.3-.3-.7-.3-1.8-.5-1.2-1.6.5-1 1.4-.2 2 .1.5.3.9.7 1.3 1 .1.7 0 1.1-.8.8z"/>
  <path fill="#B2373B" d="M265.9 32.5c.5-.2 1-.5 1.5-.7 1.1.1 2.1.2 2.8 1.2.3.3.3.6 0 .9-.5.3-1 .3-1.4-.2l-.1-.1c-.7-.8-2.4.7-2.8-1.1z"/>
  <path fill="#712D2D" d="M283.9 28.3c.4-1.5 1.1-2.4 2.3-2.6.1 0 .6.5.5.7-.4 1.1-1.2 1.7-2.8 1.9z"/>
  <path fill="#B93B3F" d="M276.4 36.6c-1 .1-1.9-.2-2.7-.8-.4-.5-.4-1 0-1.4 1.1.5 2.2 1.1 3.4 1.6.1.5 0 .8-.7.6z"/>
  <path fill="#B89391" d="M282.3 35.2c-.6-1.9-.4-3 .9-4.4-.3 1.6-.6 2.6-.9 4.4z"/>
  <path fill="#9D2D2E" d="M273.5 31.1c.3-.2.5-.5.8-.7.9.6 2.1.8 2.2 2.5-1.3-.3-2.2-1-3-1.8z"/>
  <path fill="#C75357" d="M276.4 36.6c.2-.2.4-.4.7-.6.6.2 1.3.4 1.5 1.2-1.1.8-1.6-.1-2.2-.6z"/>
  <path fill="#C84247" d="M273.7 34.3v1.4l-2-.6-.3-.3c0-.3.1-.5.3-.7.4-.2.8-.1 1.2-.3.3.2.5.4.8.5z"/>
  <path fill="#A91D22" d="M272.9 33.9c-.3.5-.8.5-1.3.5-.6 0-1.2-.1-1.4-.8V33l2.7.9z"/>
  <path fill="#FDFBFB" d="M280.5 37.9c-.2 0-.4-.1-.7-.1.4-.4.6-.3.7.1z"/>
  <path fill="#FCFDFE" d="M297.6 65.1c-1 .1-2.1.1-3.1.2-1.2.1-1.6-.5-1.4-1.7.4-2.2.6-4.5 1-6.8.7-4 3.3-5.6 7.2-4.7 2.1.5 2.6 2 2.5 3.9-.2 2.3-.5 4.5-.7 6.8-.1 1.4-.7 2.1-2.1 2-1.1 0-2.3.2-3.4.3z"/>
  <path fill="#EC9886" d="M260.5 35.1c2.2-1.2 4.6-.4 7-.5 1.3.8 3-1.3 4.2.5-3.8 1.4-7.5.8-11.2 0z"/>
  <path fill="#EF4D3E" d="M253.8 39.3c-.3 0-.6 0-.9-.1.5-1.9 2.2-1.6 3.5-2 0 1-.5 1.7-1.4 2.1-.4.3-.8.4-1.2 0z"/>
  <path fill="#EE8573" d="M253.8 39.3h1.3c-1.1 1.4-2 3.1-4 3.4.8-1.2 1.8-2.3 2.7-3.4z"/>
  <path fill="#EDC5C7" d="M265.9 32.5c.6 1.2 2.2 0 2.8 1.2-1.6.1-3.2-.1-4.7-.5 0-.2 0-.5-.1-.7h2z"/>
  <path fill="#D36568" d="M271.6 35.1c-1.3-.8-2.9.8-4.2-.5.5-.2 1.1-.2 1.4-.8.5 0 1-.1 1.5-.1.5.3.9.5 1.4.8-.1.1-.1.4-.1.6z"/>
</svg>
