<?xml version="1.0" encoding="utf-8"?>
<!-- Generator: Adobe Illustrator 17.0.0, SVG Export Plug-In . SVG Version: 6.00 Build 0)  -->
<!DOCTYPE svg PUBLIC "-//W3C//DTD SVG 1.1//EN" "http://www.w3.org/Graphics/SVG/1.1/DTD/svg11.dtd">
<svg version="1.1" id="Layer_1" xmlns="http://www.w3.org/2000/svg" xmlns:xlink="http://www.w3.org/1999/xlink" x="0px" y="0px"
	 width="202.2px" height="180px" viewBox="0 0 202.2 180" enable-background="new 0 0 202.2 180" xml:space="preserve">
<g>
	<path fill="#FDFDFD" d="M101.1,179.9c-33.4,0-66.9,0-100.3,0c-0.7,0-0.8-0.2-0.8-0.8C0,119.7,0,60.3,0,0.8C0,0.2,0.1,0,0.8,0
		c66.8,0,133.7,0,200.5,0c0.8,0,0.9,0.2,0.9,0.9c0,59.4,0,118.8,0,178.3c0,0.6-0.1,0.8-0.8,0.8C168,179.9,134.6,179.9,101.1,179.9z"
		/>
	<path d="M34.1,94.3c-1-2.7-1.6-5.5-2.4-8.3c-2.4-8.9-4.4-17.9-6.1-27c-1.4-7.5-2.7-15-3.8-22.6c-0.5-3.4-1-6.7-1.5-10.1
		c-0.1-0.6,0.1-0.8,0.6-1.1c11.2-5.7,22.9-10.3,35-13.6c6.7-1.8,13.5-3.1,20.4-4.1c8.7-1.2,17.4-1.6,26.1-1.3
		c7.9,0.2,15.7,1.1,23.4,2.5c18,3.2,35.2,9.1,51.7,16.8c1,0.4,0.5,1,0.4,1.6c-0.3-0.3-0.3-0.3-0.6,0.1c-0.8,1-1.3,0.9-2.3,0
		c-0.7-0.7-1.7-0.8-2.6-0.6c-0.7,0-1.2-0.3-1.7-0.6c-1-0.5-2.1-0.8-3-1.5c-0.1-0.3,0.1-0.4,0.4-0.5c-0.5-0.2-1-0.3-1.5,0
		c-0.5,0-0.9-0.2-1.3-0.4c-9.8-4-19.7-7.4-30-9.8c-0.5-0.1-0.9-0.3-1.4-0.3c-0.1,0-0.3,0-0.4-0.1c-0.2-0.1-0.4-0.1-0.6-0.2
		c-0.5-0.2-1.1-0.2-1.6-0.3c-5.7-1.2-11.4-2.1-17.2-2.8c-7.3-0.8-14.7-1-22-0.8c-3.6,0.1-7.1,0.3-10.7,0.8c-1,0.1-2,0.2-3,0.3
		c-7,0.9-14,2.2-20.8,4.1c-0.3,0.1-0.7,0.2-1,0.2c-0.6-0.1-1.2-0.3-1.9,0c-0.3,0.2-0.4,0.1-0.2,0.5c-0.2,0.3-0.4,0.3-0.7,0.4
		c-5.6,1.6-11,3.6-16.4,5.8c-1.7,0.7-3.3,1.4-4.9,2.1c-2.8,1.3-5.5,2.6-8.3,3.9c-1.2,0.6-1.2,0.6-1,1.9c1.1,8,2.4,16.1,3.8,24.1
		c1.6,9.3,3.5,18.6,5.8,27.9c0.9,3.7,1.9,7.5,3,11.1c0.1,0.4,0.2,0.7,0.2,1.1c0,0.2,0,0.5,0,0.7c0.1,0.3,0,0.6-0.1,0.9
		c-0.2,0.4-0.7,0.1-0.9,0.6c0,0.1-0.2-0.1-0.3-0.2C34.4,95,34.2,94.7,34.1,94.3z"/>
	<path fill="#010101" d="M172.4,26.4c0-0.1,0-0.1,0.1-0.2c0.3-0.5,1-0.1,1.1-0.1c0.5,0.4,1.5,0,1.8,0.9c0.2,0.5,0.8,0.8,1.3,0.4
		c0.4-0.3,0.9-0.7,0.7-1.5c0.5,0.1,0.3,0.7,0.6,1c-0.4,2.1-0.7,4.1-1.1,6.2c-1.3,6.7-2.6,13.4-3.9,20.1c-2.6,12.8-5.5,25.5-9.1,38
		c-2.9,10.1-6.3,20.1-10.6,29.7c-4.1,9.2-8.9,18-15.1,26c-7.5,9.7-16.6,17.4-27.9,22.3c-4,1.7-8.1,3-12.4,4c-0.3,0.1-0.5,0-0.8-0.1
		c-10.7-3-20.1-8.4-28.3-15.9c-1.5-1.4-3-2.8-4.3-4.3c0.3-0.3,0.7-0.3,1.1-0.1c0-0.2-0.1-0.2-0.2-0.3c-0.1-0.1-0.2-0.5-0.3,0.1
		c0,0.3-0.4,0.1-0.6,0c-0.3-0.1-0.5-0.3-0.5-0.7c0-0.3,0.2-0.5,0.5-0.5c0.4,0,0.8-0.1,1.3-0.1c0.4,0.1,0.6,0.3,0.8,0.6
		c4.3,4.3,8.9,8.1,14.1,11.3c0.8,0.5,1.6,0.9,2.4,1.4c0.5,0.3,1,0.6,1.5,0.8c4,2.1,8.1,3.6,12.4,4.9c0.5,0.2,1.1,0.1,1.6,0
		c7.8-1.8,15-4.8,21.7-9.2c2.6-1.8,5.1-3.7,7.5-5.8c0.4-0.4,0.9-0.8,1.3-1.2c1.3-1,2.3-2.2,3.4-3.4c0.8-0.7,1.4-1.5,2.1-2.3
		c1.8-2.1,3.5-4.3,5.1-6.6c3.4-4.8,6.3-9.9,8.9-15.2c3.3-6.5,6-13.2,8.4-20.1c4.7-13.2,8.2-26.8,11.2-40.5
		c2.1-9.4,3.9-18.9,5.7-28.4c0.5-2.8,1-5.6,1.5-8.4c0.1-0.4,0.2-0.7-0.3-1c-0.1-0.1-0.3-0.2-0.4-0.2
		C173.8,27.3,172.9,27.2,172.4,26.4z"/>
	<path fill="#010101" d="M65.6,151.5c-0.3,0.1-0.6,0.3-0.9,0.2c-0.2,0-0.5-0.3-0.6,0.1c-0.2,0.4,0.1,0.5,0.3,0.7
		c0.1,0.1,0.2,0.1,0.4,0.2c0.3-0.4-0.4-0.2-0.2-0.5c0.8,0.1,1.1,0.4,1,1.1c-0.1-0.2-0.4-0.2-1.1-0.2c-2.1-2-3.8-4.2-5.6-6.4
		c-6.9-8.8-12.1-18.6-16.5-28.9c-3.2-7.4-5.8-15.1-8.1-22.8c-0.1-0.2-0.1-0.4-0.1-0.6c0.1,0.1,0.3,0.3,0.4,0.4
		c0.2,0.2,0.2,0.6,0.4,0.5c0.4-0.3,1.2-0.4,0.8-1.3c-0.1-0.2,0-0.4,0-0.6c0.4,0.1,0.5,0.6,0.6,0.9c1.4,4.7,2.9,9.4,4.6,14
		c1.7,4.5,3.5,8.9,5.5,13.2c2,4.3,4.1,8.5,6.5,12.5c2.7,4.6,5.7,8.9,9.1,13c0.6,0.7,1.2,1.3,1.8,2.1c0.2,0.3,0.5,0.5,0.7,0.8
		c0.1,0.1,0.3,0.3,0.4,0.4c0.1,0.1,0.2,0.3,0.2,0.5c0,0.2,0.1,0.3,0.3,0.3C65.5,151.2,65.6,151.3,65.6,151.5z"/>
	<path fill="#FDFDFD" d="M175,27.8c0.6,0.1,0.8,0.3,0.7,0.9c-1.1,6-2.2,11.9-3.4,17.9c-1.9,9.9-4,19.7-6.3,29.5
		c-2.6,10.6-5.5,21.1-9.2,31.4c-3.6,10-7.8,19.6-13.4,28.7c-2.6,4.2-5.5,8.3-8.7,12.1c-0.1,0.1-0.2,0.1-0.3,0.2
		c-0.4,0.2-0.9,0.1-1.3,0.2c-0.5,0.2-0.9-0.1-0.9-0.8c0.2-0.6,0.8-0.9,1.1-1.5c1.8-2.1,3.5-4.4,5.1-6.7c3.3-4.7,6.1-9.7,8.6-14.8
		c0.2-0.4,0.4-0.9,0.7-1.3c0.2-0.2,0.3-0.4,0.3-0.7c0-0.1,0.1-0.1,0.1-0.2c0.5,0,0.2-0.4,0.2-0.6c0.2-0.7,0.4-1.4,0.9-2
		c0.1-0.1,0.2-0.1,0.3-0.2c0.8-0.2,0.8-0.2,0.4-1c-0.1-0.1-0.1-0.3-0.1-0.4c0.4-1.3,1-2.5,1.5-3.8c2.8-6.8,5.2-13.7,7.3-20.7
		c1.7-5.7,3.2-11.4,4.7-17.1c3-12.4,5.6-24.9,7.9-37.4c0.6-3.1,1.1-6.2,1.7-9.3c0.1-0.7-0.1-1.1-0.8-1.5c-2.4-1.1-4.8-2.2-7.2-3.2
		c-0.7-0.4-1.4-0.6-2.2-0.9c-5.2-2.1-10.4-4-15.7-5.7c-1.5-0.5-3-0.8-4.4-1.4c-0.2-1-0.8-0.3-1.3-0.3c-1.7-0.3-3.2-0.8-4.9-1.2
		c-1.2-0.3-2.4-0.6-3.6-0.9c-0.3-0.1-0.6-0.1-0.8-0.3c-0.1-0.4,0.1-0.5,0.4-0.5c0.1,0,0.1,0.1,0.2,0.1c0,0-0.1,0-0.1-0.1
		c-0.1-0.1-0.1-0.2-0.1-0.3c0-0.4,0.5-0.5,0.7-0.9c0.1,0,0.2,0,0.3,0c0.4,0.3,0.9,0.3,1.4,0.3c2.6,0.5,5.2,1.3,7.8,2
		c7.8,2.2,15.5,5,22.9,8.1c0.2,0.1,0.4,0.1,0.6,0.2c0.4,0.1,0.8,0.1,1.1,0.5c1.6,0.7,3.2,1.4,4.8,2.1c0.7,0.4,1.5,0.8,2.2,1.1
		C174.6,27.9,174.9,27.6,175,27.8z"/>
	<path fill="#FDFDFD" d="M63.7,149.3c-3.4-3.7-6.3-7.7-9-11.8c-6.8-10.6-11.8-22.1-15.8-33.9c-1.1-3.3-2.2-6.7-3.3-10.1
		c-0.8-3.1-1.7-6.2-2.5-9.3c-1.7-6.7-3.2-13.4-4.6-20.1c-1-4.8-1.8-9.6-2.7-14.5c-0.6-3.7-1.2-7.5-1.8-11.3c-0.5-3.3-1-6.7-1.5-10
		c0-0.3-0.1-0.5,0.3-0.7c3.1-1.6,6.2-3.2,9.4-4.5c0.3-0.1,0.5-0.1,0.7,0.2c0.1,0.3-0.2,0.3-0.3,0.5c-0.3,0.3-0.4,0.6,0.1,0.8
		c0.1,0.1,0.2,0.3,0.1,0.4c-0.8,0.6-1.7,0.9-2.5,1.3c-0.7,0.3-1.4,0.7-2.1,1c-0.5,0.2-1,0.5-1.5,0.8c-2,1-1.8,0.7-1.5,2.8
		c1.6,11.2,3.4,22.4,5.6,33.5c2.1,10.4,4.6,20.8,7.7,31c2.7,8.9,5.9,17.6,9.8,26c0.2,0.4,0.4,0.8,0.6,1.2
		c2.9,6.1,6.2,11.9,10.1,17.4c0.2,0.4,0.5,0.7,0.7,1.1c0,0.1,0,0.2,0,0.2c0,0.1-0.1,0.2-0.1,0.2c0.3,0.5,0.4,1.1,0.8,1.5
		c0.3,0.3,0.6,0.3,1,0.3c0.9,0.7,1.6,1.6,2.1,2.6c-0.2,0.9,0,1.1,0.8,1.2c0.1,0,0.1,0.1,0.2,0.1c0.1,0.4,0,0.9,0.5,1.2
		c0.3,0.2,0.3,0.5,0.2,0.8c-0.1,0.4-0.5,0.2-0.7,0.2C64.2,149.4,63.9,149.5,63.7,149.3z"/>
	<path fill="#FDFDFD" d="M133.4,13.2c0.1,0.2,0.2,0.5-0.2,0.5c-0.2,0-0.3,0.1-0.3,0.3c-0.7,0.5-1.5,0.2-2.2,0.5
		c-1.2,0.1-2.3-0.4-3.4-0.6c-5.7-1.1-11.5-1.9-17.3-2.4c-2.4-0.2-4.8-0.3-7.3-0.4c-2.5-0.1-5.1-0.2-7.6-0.1
		c-5.8,0.1-11.5,0.5-17.2,1.2c-5.6,0.7-11.1,1.8-16.6,3.1c-2.2,0.5-4.4,1.1-6.5,1.8c-0.4,0.1-0.8,0.2-1.3,0.3
		c-0.5-0.1-0.9-0.2-1.4-0.3c-0.8-0.1,0.2,0.2,0,0.2c0,0.3-0.2,0.5-0.4,0.6c-4.1,1.5-8.2,2.8-12.2,4.5c-0.4,0.2-0.7,0.4-1.1,0.3
		c-0.3-0.1-0.5-0.3-0.6-0.6c-0.1-0.3-0.1-0.6-0.6-0.6c-0.3,0-0.1-0.4,0.1-0.5c3.3-1.5,6.8-2.7,10.3-3.9c2.3-0.8,4.6-1.5,6.8-2.2
		c0.5-0.5,1.2-0.4,1.9-0.5c5.8-1.5,11.6-2.8,17.5-3.7c1.5-0.2,3-0.5,4.6-0.6c0.6,0.1,1.1,0.1,1.7-0.1c0.4-0.1,1,0.4,1.3-0.3
		c1.5-0.3,3-0.4,4.5-0.5c5-0.4,10-0.5,15-0.4c4.2,0.1,8.5,0.4,12.7,0.8c5.1,0.5,10.1,1.3,15.1,2.3c1,0.2,1.9,0.4,2.9,0.6
		c0.5,0.1,1,0.5,1.5,0.3C133,13,133.3,12.9,133.4,13.2z"/>
	<path fill="#FBFBFB" d="M37.2,21.1c0,0.1,0,0.3-0.1,0.4c0.9-0.1,0.6,0.9,1.1,1.2c0,0.3-0.2,0.4-0.4,0.5c-1.5,0.6-2.9,1.2-4.4,1.9
		c-0.2,0.1-0.4,0.2-0.6,0c-0.2-0.3-0.4-0.5-0.8-0.2c0.3-0.6,0.2-1.2,1.1-1.3c-0.4-0.2-0.6-0.3-0.8-0.3
		C33.9,22.3,35.5,21.6,37.2,21.1z"/>
	<path fill="#F5F5F5" d="M81.2,9.8c-0.4,0.3,0.1,0.3,0.2,0.4c-0.7,0.7-1.3-0.2-2.1,0c0.2,0.1,0.3,0.1,0.4,0.2
		c-0.6,0.4-0.9-0.2-1.4-0.3C79.2,9.9,80.2,9.7,81.2,9.8z"/>
	<path fill="#0B0B0B" d="M56.2,14.4c-0.6,0.3-1.2,0.5-1.9,0.5c-0.1-0.1-0.3-0.2-0.5-0.4C54.7,14.5,55.3,13.7,56.2,14.4z"/>
	<path fill="#0B0B0B" d="M167.6,24.4c-0.4-0.2-0.7-0.3-1.1-0.5c0.3-0.1-0.1-0.3,0.1-0.5c0.5,0.4,1.3,0,1.7,0.7
		C168.1,24.3,167.7,23.9,167.6,24.4z"/>
	<path fill="#F7F7F7" d="M132.9,13c0,0.3-0.1,0.3-0.4,0.2c-0.4-0.2-0.8-0.3-1.2-0.6C131.9,12.7,132.4,12.8,132.9,13z"/>
	<path fill="#F7F7F7" d="M135.1,13.5c-0.5,0.2-1.1,0.3-1.4-0.3C134.2,13.2,134.7,13.3,135.1,13.5z"/>
	<path fill="#FDFDFD" d="M63.7,149.3c0.4-0.1,0.8-0.1,1.3,0.2c0-0.4,0.1-0.7-0.3-0.9c-0.5-0.3-0.5-0.8-0.3-1.4
		c0.3-0.1,0.5,0.2,0.7,0.4c1.3,1.5,2.7,3,4.1,4.4c0.6,0.6,1.4,1.1,2,1.8c0.2,0.2,0.4,0.4,0.6,0.6c0.5,0.3,0.9,0.7,1.2,1.2
		c0,1,0.7,1.1,1.5,1.1c1.6,1,3,2.2,4.5,3.2c0.5,0.3,0.9,0.6,1.4,0.9c0.2,0.1,0.4,0.3,0.6,0.4c0.2,0.1,0.4,0.2,0.6,0.4
		c0.2,0.1,0.4,0.2,0.6,0.3c4.5,2.6,9.3,4.7,14.3,6.3c0.8,0.3,1.6,0.3,2.5,0.1c4.6-1.1,9.1-2.7,13.4-4.8c1.3-0.6,2.4-1.3,3.7-2
		c0.4-0.2,0.8-0.4,1.1-0.7c2.2-1.3,4.3-2.8,6.3-4.4c0.3-0.2,0.6-0.4,0.8-0.6c0.1-0.1,0.1-0.1,0.2-0.1c0.2-0.1,0.4-0.3,0.6-0.4
		c0.1-0.1,0.3-0.3,0.4-0.4c0.2-0.2,0.4-0.4,0.6-0.5c1.6-1.4,3-2.9,4.5-4.4c0.2-0.2,0.5-0.5,0.8-0.6c0.4-0.1,0.7-0.2,1.1-0.3
		c0.4-0.1,0.7,0.4,0.5,0.6c-0.5,0.4-0.3,0.9-0.4,1.3c-1,1.2-2.1,2.4-3.4,3.4c-0.8,0-1.2,0.4-1.3,1.2c-3.7,3.5-7.8,6.3-12.1,8.8
		c-5.5,3.1-11.5,5.2-17.7,6.6c-0.2,0-0.5,0.1-0.7,0c-4.5-1.3-8.9-2.9-13-5.1c0-1.1-0.9-0.7-1.4-0.8c-2.9-1.4-5.5-3.3-8.1-5.2
		c-3.3-2.4-6.2-5.2-9.1-8.1c-0.1-0.1-0.2-0.3-0.4-0.4c-0.2,0-0.3-0.2-0.3-0.4c-0.1-0.1-0.2-0.3-0.3-0.4c0-0.2-0.1-0.3-0.3-0.3
		C64.1,149.8,63.9,149.6,63.7,149.3z"/>
	<path fill="#F6F6F6" d="M132.4,150.7c-0.2-0.4-0.8-0.9,0.2-1.2c0.2-0.1,0.1-0.3,0-0.4c-0.1-0.2-0.2-0.1-0.3,0
		c-0.4,0.1-0.7,0.3-1.1,0.3c0.2-0.6,0.5-1.2,1.2-1.4c0,0.5,0.4,0.9,0.7,0.6c0.5-0.5,0.9-0.1,1.3-0.1
		C133.8,149.3,133.1,150,132.4,150.7z"/>
	<path fill="#F1F1F1" d="M82.8,164.7c1.3-0.5,1.6-0.3,1.4,0.8C83.7,165.3,83.2,165.1,82.8,164.7z"/>
	<path fill="#F3F3F3" d="M127.7,155.3c0-0.2-0.4-0.3-0.2-0.6c0.5-0.9,0.6-0.9,1.5-0.6C128.6,154.6,128.2,154.9,127.7,155.3z"/>
	<path fill="#F5F5F5" d="M175,27.8c-0.1,0-0.2,0.1-0.2,0.1c-0.2,0.2-0.3,0.2-0.5,0c0.1-0.1,0.2-0.2,0.4-0.3
		C174.8,27.6,174.9,27.6,175,27.8z"/>
	<path fill="#010101" d="M64.9,150.8c0.1,0.1,0.2,0.2,0.3,0.4c-0.1,0.1-0.2,0.2-0.3,0.1C64.7,151.1,64.9,150.9,64.9,150.8z"/>
	<path fill="#FDFDFD" d="M64.4,150c0.1-0.2,0.2-0.1,0.3,0c0.1,0.1,0.2,0.2,0,0.3C64.5,150.3,64.4,150.2,64.4,150z"/>
	<path d="M116.1,161.4c-3.6,2.3-7.5,3.9-11.5,5.3c-2.1,0.7-4.2,1.3-6.4,1.8c-0.3,0.1-0.7,0.1-1,0c-5.4-1.6-10.6-3.7-15.4-6.7
		c-0.1-0.3-0.4-0.2-0.5-0.3c-0.2-0.1-0.4-0.1-0.5-0.3c-0.2-0.1-0.2-0.5-0.5-0.4c-1.8-1-3.5-2.3-5.1-3.5c-0.3-0.2-0.5-0.4-0.8-0.6
		c-0.6-0.3-1.2-0.7-1.5-1.2c-0.4-0.4-0.8-0.8-1.2-1.1c-0.1-0.2-0.2-0.5-0.5-0.5c-2.2-1.8-4.1-3.9-6-6c-0.2-0.2-0.4-0.4-0.6-0.7l0,0
		c-0.5-0.2-0.8-0.7-1-1.2c-0.7-0.9-1.4-1.7-2.1-2.6c-0.8-0.6-1.3-1.3-1.7-2.2c0-0.1,0-0.1,0-0.2c-0.1-0.4,0.1-1.1-0.7-1
		c-2.4-3.2-4.4-6.5-6.3-10c-1.4-2.4-2.7-4.9-3.8-7.5c0.1-0.3,0-0.6,0.2-0.8c0.1-0.1,0.1-0.2,0.1-0.3c0,0.1,0,0.2-0.1,0.3
		c-0.4,0.5-0.5-0.1-0.7-0.1c-1.7-3.4-3.2-7-4.5-10.6c-4-10.4-7.2-21.1-9.8-31.9c-2-8.1-3.6-16.2-5.1-24.4c-1.1-6.1-2.1-12.2-3-18.4
		c-0.3-2.1-0.6-4.3-1-6.4c-0.1-0.7-0.1-1.3,0.7-1.5c0.4-0.1,0.8-0.4,1.2-0.5c0.7,0.3,0.9,0.3,1.4-0.7c1.5-0.9,3.1-1.5,4.6-2.3
		c1.8-0.8,3.6-1.6,5.3-2.3c2.5-0.9,5-1.9,7.5-2.8c1.8-0.7,3.7-1.1,5.4-1.9c0.2-0.1,0.4,0,0.6-0.1c0.5-0.3,0.9-0.6,1.5-0.5
		c6.4-1.8,12.8-3.4,19.4-4.5c8.9-1.5,17.8-2.1,26.9-2c5,0.1,9.9,0.4,14.8,1c5.1,0.6,10.2,1.4,15.2,2.4c0.4,0.1,0.8,0.2,1.2,0.2
		c0.2,0,0.3,0,0.5,0c0.3,0,0.6,0.1,0.9,0.2c0.1,0,0.1,0.1,0.2,0.2c3.1,0.8,6.3,1.6,9.4,2.4c0.4,0,0.8-0.1,1,0.3c3.2,1,6.4,2,9.5,3.1
		c3.6,1.2,7.2,2.5,10.7,4.1c0.4,1.1,1.3,0.8,2.1,0.9c2.7,1,5.4,2.3,8,3.5c0.5,0.2,0.3,0.6,0.3,0.9c-0.4,2.5-0.9,5.1-1.4,7.6
		c-1.1,5.5-2.1,10.9-3.2,16.4c-1.4,7.2-3,14.5-4.8,21.6c-2.7,11.3-5.9,22.5-9.9,33.4c-1.2,3.2-2.5,6.4-3.8,9.5
		c-0.1,0.1-0.1,0.3-0.1,0.4c0,0.5-0.2,1-0.6,1.4c-0.3,0.7-0.6,1.4-0.9,2c-0.1,0.2,0,0.4-0.3,0.5c-0.1,0-0.1,0.1,0,0.2
		c-0.1,0.2-0.2,0.5-0.3,0.7c-3.9,8-8.4,15.6-14.1,22.5c-0.1,0.2-0.3,0.3-0.5,0.5c-0.4,0.1-0.7,0.8-1.3,0.4c-0.1-0.1-0.3,0.1-0.3,0.3
		c0.3,1-0.6,1.3-1,1.8c-0.2,0.3-0.4,0.5-0.3,0.8c-1.4,1.6-2.9,3.1-4.6,4.5c-0.2,0.1-0.3-0.1-0.3-0.3c-0.1-0.2-0.2-0.2-0.3-0.1
		c-0.2,0.1-0.3,0.3-0.3,0.4c0,0.2,0.2,0,0.3,0.1c0.2,0.1,0.2,0.2,0.1,0.4c-0.1,0.1-0.2,0.2-0.4,0.3c-0.2,0.2-0.6,0.2-0.7,0.5l0,0
		c-0.4,0.1-0.8,0.2-0.9,0.7c-1.8,1.6-3.8,3-5.9,4.2c-0.1,0.1-0.3,0.2-0.4,0.3C116.7,160.8,116.4,161.2,116.1,161.4z"/>
	<path fill="#070707" d="M130.5,149.8c-0.6-0.3-0.3-0.7,0-0.9c0.3-0.1,0.3-0.3,0.5-0.4c0.5-0.4,0.7-0.9,0.5-1.5
		c-0.1-0.6,0.6-0.3,0.6-0.3c0.3,0.3,0.5,0.4,0.7-0.1c0.1-0.3,0.3,0,0.5,0c-0.4,0.5-0.7,0.9-1.1,1.4c-0.4,0.5-0.8,0.9-1.2,1.4
		C130.9,149.5,130.7,149.6,130.5,149.8z"/>
	<path fill="#080808" d="M165.1,25.5c-1,0.7-1.9,0.3-2.1-0.9C163.7,24.8,164.4,25.1,165.1,25.5z"/>
	<path fill="#F3F3F3" d="M149.5,120.2c0.2-0.5,0.4-0.9,0.6-1.4c0.2,0.3,0.4,0.6,0.7,0.8C150.4,119.9,150,120.1,149.5,120.2z"/>
	<path fill="#F7F7F7" d="M132.3,14.8c-0.1,0-0.1,0-0.2,0c-0.3-0.2-0.6-0.3-1-0.2c-0.1,0-0.3,0-0.4-0.1c0.6-0.6,1.4-0.2,2.1-0.4
		c0,0.1,0,0.2,0,0.3l0,0C132.7,14.5,132.5,14.6,132.3,14.8z"/>
	<path fill="#F3F3F3" d="M142.8,17.5c-0.4,0-0.7-0.1-1-0.3c0.3-0.4,0.8-0.3,1.1-0.1C143.2,17.2,142.8,17.3,142.8,17.5z"/>
	<path fill="#F5F5F5" d="M174.2,28.5c0.5-0.2,0.8-0.5,1.1-0.2C175,28.6,175,28.6,174.2,28.5z"/>
	<path fill="#EFEFEF" d="M148.3,122.8c0.1-0.2,0.1-0.4,0.3-0.5c0.2,0.3,0.2,0.5,0,0.7C148.5,123,148.4,122.8,148.3,122.8z"/>
	<path fill="#F7F7F7" d="M132.9,14.4c0.2,0,0.4-0.1,0.7,0.2C133.2,14.8,133,14.6,132.9,14.4C132.9,14.4,132.9,14.4,132.9,14.4z"/>
	<path fill="#EFEFEF" d="M148.3,123.6c0.1-0.1,0.1-0.2,0.2-0.2c0.2,0,0.1,0.2,0.1,0.2c0,0.1,0,0.2-0.1,0.1
		C148.4,123.8,148.4,123.7,148.3,123.6z"/>
	<path fill="#EFEFEF" d="M147.9,123.6c0-0.3,0.1-0.5,0.3-0.7C148.3,123.2,148.2,123.5,147.9,123.6z"/>
	<path fill="#F6F6F6" d="M59.6,141.2c0.6,0.7,1.1,1.5,1.7,2.2c-0.4,0.2-0.7,0.1-1.1-0.2c-0.5-0.3-0.2-1.2-1-1.2
		C59.2,142,59.1,141.4,59.6,141.2z"/>
	<path fill="#F3F3F3" d="M63.4,146c0.4,0.4,0.7,0.8,1,1.2c-0.4,0.2-0.9,0.2-1.1,0C63.2,146.9,62.9,146.4,63.4,146z"/>
	<path fill="#0A0A0A" d="M28.3,27.2c0,0.1,0,0.3-0.1,0.3c-0.3,0.2,0.4,0.5,0,0.6c-0.4,0.1-1,0.5-1.3-0.2
		C27.3,27.6,27.8,27.4,28.3,27.2z"/>
	<path fill="#0C0C0C" d="M58.9,140.1c0.1,0,0.3-0.1,0.4-0.1c0.2-0.1,0.3-0.1,0.5,0c0.3,0.2,0.1,0.3,0,0.5c-0.1,0.2,0.1,0.5-0.1,0.7
		C59.3,140.8,59,140.4,58.9,140.1z"/>
	<path fill="#0B0B0B" d="M49,121.7c0,0.3,0.3,0.7-0.2,0.9c-0.2-0.3-0.3-0.7-0.5-1C48.5,121.5,48.7,122,49,121.7L49,121.7z"/>
	<path fill="#F4F4F4" d="M53.3,17.3c-0.5,0.2-1,0.3-1.5,0.5c0.1-0.1,0.2-0.3,0.2-0.3c-0.4-0.4-0.1-0.5,0.2-0.5
		C52.5,17,53,16.8,53.3,17.3z"/>
	<path fill="#F2F2F2" d="M72.8,155.6c0.6,0.4,1.1,0.8,1.5,1.2c-0.1,0-0.2,0-0.2,0C72.9,156.7,72.9,156.7,72.8,155.6z"/>
	<path fill="#090909" d="M125.3,154.8c0-0.1,0-0.2-0.1-0.2c-0.1-0.1-0.7,0.3-0.5-0.3c0.1-0.4,0.4-0.7,0.9-0.6
		c0.5,0.1-0.1,0.6,0.2,0.7C125.8,154.5,125.6,154.7,125.3,154.8z"/>
	<path fill="#0C0C0C" d="M123.5,156.3c-0.2-0.8-0.1-0.9,0.9-0.7C124.1,155.9,123.8,156.2,123.5,156.3z"/>
	<path fill="#0C0C0C" d="M116.1,161.4c0.3-0.3,0.4-0.9,1.1-0.6C116.8,161.1,116.5,161.3,116.1,161.4z"/>
	<path fill="#0E0E0E" d="M71,153.9c0.6-0.2,0.5,0.2,0.5,0.5C71.4,154.3,71.2,154.1,71,153.9z"/>
	<path fill="#0C0C0C" d="M124.3,155.6c0-0.4,0.3-0.5,0.7-0.5C124.8,155.4,124.6,155.5,124.3,155.6z"/>
	<path fill="#0E0E0E" d="M81.3,161.6c0.2,0.1,0.7-0.5,0.5,0.3C81.7,161.8,81.5,161.7,81.3,161.6z"/>
	<path fill="#F2F2F2" d="M72.9,156.9c0.1,0.1,0.2,0.1,0.2,0.2c0.1,0.1-0.1,0.2-0.1,0.1c-0.1-0.1-0.1-0.2-0.2-0.2
		C72.8,157,72.9,157,72.9,156.9z"/>
	<path fill="#0E0E0E" d="M80.3,160.9c0.4-0.2,0.4,0.1,0.5,0.4C80.6,161.2,80.4,161.2,80.3,160.9z"/>
	<path fill="#FEFEFE" d="M137,47.2c0.1,0.1,0.2,0.1,0.3,0.2c0,0.7,0.3,1,0.8,0.9c0.2,0,0.4,0.1,0.5,0.2c0.3,0.2,0.6,0.5,0.9,0.6
		c0.3,0.2,0.7,0.5,1,0.7c0.1,0.5,0.5,0.6,0.8,0.7c0.1,0.2,0.2,0.1,0.4,0.2c-0.3,0.5,0.1,0.8,0.4,0.9c0.4,0.1,0.7,0.2,1.1,0.2
		c0.2,0,0.3,0.1,0.4,0.3c0.6,0.4,1.1,0.8,1.7,1.2c0.1,1.1,0.2,2.3,0.1,3.4c-0.1,1.3,0.2,2.7,0.1,4c-0.1,0.5,0,1.1,0,1.6
		c0.5,2,0.2,4,0.3,6c-0.1,1.2-0.1,2.4,0,3.6c0,1.1-0.2,2.3-0.2,3.4c0,0.3-0.1,0.6-0.3,0.8c-0.5,0.4-0.9,0.9-1.5,1.3
		c-0.4,0.2-1.2-0.1-1.1,0.9c-0.4,0.8-1.1,1.4-1.8,1.9c-0.4,0.3-0.8,0.7-1.2,1c-0.6,0-0.9,0.3-0.9,0.9c-0.2,0.3-0.5,0.5-0.7,0.8
		c-0.2,0.4-0.4,0.8-0.9,0.9c-0.3,0.2-0.5,0.4-0.7,0.7c-0.6,1.1-1.6,1.9-2.6,2.6c-0.9,0.9-1.9,1.8-2.8,2.8c-0.5,0.6-0.8,1.4-1.7,1.4
		c-5,0-9.9,0-14.9,0c-1.4,0-2.9,0-4.3,0c-0.6,0-0.7,0.2-0.7,0.7c0,10.9,0.1,21.9,0.1,32.8c0,0,0,0.1,0,0.1c0.4,1.8-0.5,3.1-1.9,4.1
		c-0.6,0.2-1,0.8-1.6,0.8c-0.4,0-0.4-0.1-0.4-0.3c0.1,0.6-0.5,1.3-0.6,2c-0.1,0.1-0.1,0.1-0.2,0.2c-0.3,0-0.5,0.2-0.7,0.5
		c-0.2,0.3-0.5,0.6-0.9,0.1c0,0,0-0.1,0.1-0.1c0-0.1,0,0-0.1,0c0,0.1,0,0,0,0.1c-0.3,0.7-0.4,1.4-1.4,1.6c-0.4,0.1,0.2,0.6-0.2,0.8
		c-0.6,0.3-1.3,0.5-1.5,1.2c-0.1,0.2-0.3,0.3-0.5,0.3c-0.4,0-0.7,0.2-0.7,0.6c0,0.2-0.2,0.4-0.5,0.4c-0.3,0-0.4-0.3-0.4-0.5
		c0-0.8-0.2-1.7,0.2-2.4c0.1-0.3,0.1-0.6,0.1-0.9c0-8.4,0-16.9,0-25.3c0-4.8,0-9.7,0-14.5c0-1.1-0.1-2.2-0.1-3.3
		c0-0.6,0.1-1.3,0.1-1.9c0-7,0-14,0-21c0-0.3,0-0.7,0-1c0-0.4,0.3-0.6,0.8-0.5c-0.3-0.1-0.6,0-0.6-0.3c0.4-0.5,1-0.2,1.5-0.4
		c2.8-0.1,5.6-0.1,8.4,0c0.1,0,0.2,0.1,0.3,0.2c0.3,0.4,0.2,0.9,0.2,1.3c0,3.1,0,6.1,0,9.2c0,0.5,0,1,0.6,1.3
		c0.5,0.4,0.9,0.6,1.5,0.3c0.3-0.1,0.6-0.2,0.8-0.1c1.4,0.4,2.8,0,4.1,0.1c1.7,0.1,3.5,0,5.2,0.1c1.1,0.1,2.2,0,3.3-0.1
		c1.5-0.1,2.9,0.1,4.4,0.2c-0.5-0.1-1,0-1.5-0.1c0.3-0.6,0.9-0.3,1.2-0.5c0.3-0.1,0.5-0.4,0.8-0.4c0.3,0.1,0.6,0.2,1,0.1
		c0.1-0.4-0.5-0.3-0.5-0.7c0-0.2,0.1-0.4,0.3-0.4c0.3,0.1,0.4-0.1,0.3-0.4c0.5-1,1.3-1.8,2.1-2.6c0.6-0.6,0.9-1.4,1.7-1.7
		c0.6,0.2-0.1-0.3,0.2-0.3c0-0.1,0.1-0.2,0.3-0.2c0.4,0.1,1-0.4,1-0.8c0-0.2-0.1-0.3,0-0.5c0.4-0.6,0.5-1.2,0.5-1.9
		c0-1.8,0-3.6,0-5.4c0-0.5,0-1-0.4-1.3c-0.6-0.6-1.2-1.2-1.8-1.8c-0.1-0.1-0.2-0.2-0.3-0.4c-0.3-1-0.1-2-0.1-3c0-0.8,0-1.7,0-2.5
		c0-0.7-0.3-0.9-0.9-0.9c-0.3,0-0.7,0-1,0c-26,0-51.9,0-77.9,0c-0.5,0-0.9,0-1.4-0.1c-0.3-0.1-0.7-0.1-0.5-0.6
		c0.9-1.8,1.8-3.5,2.8-5.3c0.2-0.3,0.3-0.6,0.5-0.9c0.1-0.1,0.2-0.1,0.2-0.1c0.3-0.8,0.9-1.4,1.3-2.1c0.1-0.2-0.2-0.3-0.2-0.4
		c0-0.2,0.1-0.4,0.2-0.5c0.3-0.2,0.4-0.5,0.5-0.8c0.3,0,0.6-0.1,0.8,0c23.3,0.1,46.6,0.1,69.9,0.1c0.5,0,0.9,0.2,1.3,0.5
		c0.8,0.3,1.5,0.8,2.1,1.5c1.5,1.1,3,2.3,4.5,3.4c0.2,0.3,0,0.6,0,1C136.3,47.3,136.7,47,137,47.2z"/>
	<path fill="#FEFEFE" d="M51.9,63.5c0-1.7,0-3.4,0-5.1c0.1-1.6,0-3.2,0-4.8c0-0.7,0.3-0.9,0.9-0.9c0.3,0,0.6,0,0.9,0
		c5.6,0,11.2-0.1,16.9,0c20.4,0.3,40.8,0,61.2,0.1c1.3,0,1.4,0.1,1.4,1.4c0,0.5,0,1,0,1.5c0.1,1.5,0,3,0,4.4c0,1.2,0.2,2.3-0.4,3.5
		c-0.6,0.2-1.1,0.1-1.7,0.1c-7.2,0-14.4,0.1-21.6,0c-3.2-0.1-6.3,0.1-9.5,0.1c-0.6,0-1.1,0-1.6-0.3c-0.5-0.3-1.1-0.2-1.7-0.1
		c-0.2,0-0.4,0.1-0.4,0.3c0,0.5-0.5,0.9-0.5,1.4c0.1,0.4-0.5,0.2-0.7,0.5c-0.1,0.4-0.5,0.3-0.7,0.4c-0.9,0.2-1,0.3-1,1.2
		c0,0.4,0,0.9-0.2,1.3c-0.5,0.4-1.1,0.4-1.5,0.2c0.2,0.1,0.4,0.2,0.2,0.6c-0.1,0-0.1,0-0.2,0c-0.4-0.2-0.5,0-0.5,0.4
		c0,0.3-0.3,0.4-0.5,0.6c-0.2,0.3,0,0.7-0.3,1c-0.3,0.2-0.6,0.2-0.9,0.3c-0.3,0-0.6-0.1-0.9-0.1c-0.5-0.1-0.6,0.1-0.7,0.6
		C88,72.7,88,73.3,87.8,74c-0.1,0.2-0.3,0.2-0.6,0.3c-0.4,0-0.9-0.1-1.3,0.3c-0.2,0.2-0.3,0.1-0.4-0.2c0.1-1.7-0.1-3.4,0.1-5.1
		c0-1.6,0-3.1,0.1-4.7c0-0.3,0-0.6-0.4-0.6c-0.5-0.3-1-0.2-1.5-0.2c-10.2,0-20.5,0-30.7,0C52.8,63.8,52.3,63.9,51.9,63.5z"/>
	<path fill="#040404" d="M132.9,60.3c0-1.5,0-2.9,0-4.4c0.2-0.8,0-1.6,0.1-2.5c0-0.4-0.2-0.6-0.6-0.6c-0.3,0-0.5,0-0.8,0
		c-12.6,0-25.3,0-37.9,0c-13.5,0-26.9-0.1-40.4-0.1c-0.5,0-1.1,0-1.6,0c-0.5-0.1-0.4,0.4-0.7,0.7c0-0.5,0.1-1,0.1-1.4
		c-0.2-0.1-0.2,0.3-0.3,0.2c0.1-1.4,0.4-1.6,1.3-1.2c-0.1,0.3,0.1,0.4,0.4,0.4c0.5,0,1,0,1.5,0c26.4,0,52.8,0,79.2,0
		c0.7,0,1,0.1,0.9,0.9c-0.1,1.7-0.1,3.4-0.1,5c0,0.3,0,0.6,0.2,0.9c0,0.1-0.1,0.2-0.1,0.4c0,0.1,0,0.1-0.1,0.2
		C133.4,59.1,133.4,59.9,132.9,60.3z"/>
	<path fill="#FCFCFC" d="M101.4,158.5c-2.3,2.2-6.9,1.8-8.9,0.5c-0.8-0.5-1.3-1.2-1.6-2c-0.1-0.4,0-0.8-0.1-1.3
		c-0.1-0.4,0.1-0.6,0.5-0.8c0.5-0.5,1-0.9,1.7-1.2c0.4-0.1,0.6-0.4,1-0.4c0.4,0,0.7,0,1.1,0c1.1,0,2,0.5,2.9,0.8
		c0.7,0.2,1.4,0.4,2.2,0.5c0.9,0,1.3-0.3,1.4-1c-0.2-0.4-0.5-0.1-0.8-0.1c-0.1,0-0.1,0-0.2-0.1c-0.1-0.2-0.1-0.3-0.2-0.4
		c0,0.2,0.3,0.3,0.1,0.5c-0.5,0.2-0.8,0-1.1-0.5c-0.1-0.3,0-0.6,0.2-0.7c0.7-0.4,0.7-1,0.6-1.6c0-0.3,0-0.6,0.2-0.9
		c0.3-0.3,0.5-0.2,0.6,0.2c0,0.7,0,1.4,0,2.1c0,0.3,0,0.6,0.4,0.6c0.4,0,0.6-0.3,0.5-0.6c-0.1-0.9,0.3-1.9-0.2-2.8
		c-0.1-0.2,0-0.4,0.3-0.4c0.3,0,0.7,0.1,0.7,0.4c-0.1,1.9,0.5,3.9-0.5,5.7c-0.1,0.2-0.2,0.4-0.5,0.4c0,0,0,0.1,0,0.1
		c0.7,0.5,0.5,1.2,0.5,1.9C102.1,157.9,101.9,158.3,101.4,158.5z"/>
	<path fill="#FBFBFB" d="M51.7,52.7c0.2-0.4,0.5-0.2,0.7-0.2c26.6,0,53.2,0,79.8,0c0.6,0,0.8,0.1,0.8,0.8c-0.1,0.9,0,1.8-0.2,2.6
		c0-0.7,0-1.5,0-2.2c0-0.4-0.1-0.6-0.6-0.6c-0.2,0-0.5,0-0.7,0c-19.2,0-38.4,0.1-57.6-0.1c-7-0.1-14,0-21-0.1c-0.8,0-1.1,0.1-1,1
		c0.1,1.3,0,2.7,0,4c0,0.2,0,0.3-0.2,0.5C51.8,56.5,51.8,54.6,51.7,52.7z"/>
	<path fill="#FAFAFA" d="M98.6,65.2c0.3,0.4,0.8,0,1.2,0.3c-0.1,0-0.2,0.1-0.2,0.1c-0.9-0.2-1,0.3-1,1.1c0,5.4,0,10.8,0,16.3
		c0,1.9,0,3.8,0,5.6c0,5.3,0,10.7,0,16c0,9.5,0,18.9,0,28.4c0,1.1-0.6,2.2-0.4,3.3c0,0.2-0.1,0.5,0.2,0.7c0.1,0,0.2,0,0.2,0
		c0.2-0.2,0.2-0.4,0.1-0.7c-0.2-0.5,0-0.6,0.5-0.4c0.5,0.2,0.9,0.3,0.9-0.5c0-0.2,0.1-0.6,0.6-0.5c0.5,0.1,0.6-0.6,1.2-0.5
		c0,0,0.1,0,0.1-0.1c0.1,0,0.2,0,0.2,0.1c-0.6,0.6-1.1,1.1-1.7,1.7c-0.1,0.2-0.3,0.4-0.5,0.5c-0.5,0.4-1,0.9-1.4,1.4
		c-0.1,0.2-0.2,0.3-0.3,0.3l0,0c-0.6-0.1-0.4-0.6-0.4-1c0-1.9,0-3.8,0-5.7c0-4,0-8.1,0-12.1c0-6.9,0-13.8,0-20.7c0-2.3,0-4.6,0-6.8
		c0-0.9-0.1-1.9,0.1-2.8c0.2-0.4,0.1-0.9,0.1-1.4c0-7.3,0-14.5,0-21.8C98.1,65.5,98.1,65.1,98.6,65.2z"/>
	<path fill="#FCFCFC" d="M101,150c-0.7-0.6-0.5,0.2-0.6,0.4c-0.1,0.3,0.1,0.6,0.1,0.9c0,0.5,0.1,1-0.6,1c-0.3,0-0.2,0.4-0.4,0.6
		c-0.5-0.1-0.4-0.5-0.4-0.8c0-0.6,0-1.2,0-2c0,0.9,0,1.7,0,2.5c-0.1,1-1.3,1.6-2.1,1c-0.2-0.2-0.2-0.4-0.2-0.6
		c0.3-1.4,0.1-2.8,0.1-4.3c0-0.4,0-0.8-0.5-0.8c-0.5,0-0.6,0.4-0.7,0.8c-0.1,1.1,0,2.2,0,3.3c0,0.5,0,1-0.4,1.3
		c-0.4,0.2-0.8,0.2-1.1,0.2c-0.2,0-0.5,0.1-0.7-0.1c-2.1-0.1-2-0.1-2.3-2.2c-0.1-0.7,0.2-1.5-0.4-2.1c-0.1-0.1,0.1-0.3,0.3-0.3
		c0.3-0.2,0.7-0.1,1.1-0.1c1,0.2,1.1,0.4,1.1,1.4c0,0.7-0.1,1.4,0.1,2c0,0.1,0,0.1,0.2,0.2c0.2-1,0.2-1.9,0-2.9
		c-0.1-0.7-0.1-0.8,0.7-0.6c0.3,0.3,0.4,0.6,0.3,1c0,1,0,1.9,0,2.9c0.5,0,0.3-0.3,0.3-0.5c0-1.2,0-2.3,0-3.5c0-1.6,1.1-2.4,2.7-2
		c0.3,0.1,0.5,0.2,0.8,0.3c0.3,0.1,0.4,0.2,0.5,0.5l0,0c0.3,0.7,0.8,1.1,1.7,1.3c0.1,0,0.2,0.1,0.3,0.3
		C100.9,149.3,101.1,149.6,101,150z"/>
	<path fill="#FDFDFD" d="M82.4,24.6c-0.8-1-1-2.2-0.5-3.4c0.4-1,1.3-1.4,2.4-1.2c0.7,0.1,1.5-0.1,2.3-0.2c0.2,0,0.6-0.3,0.7,0.1
		c0.1,0.4,0.4,1.1,0,1.4c-0.5,0.3-0.3,0.6-0.3,0.9c0,0.9,0.1,1.9,0.2,2.8c0.1,1.8-1,2.4-2.4,2.5c-0.3,0-0.6,0-0.9,0
		c-1.5,0-1.6-0.1-1.1-1.6c0.3-0.2,0.6,0,0.9,0c0.6,0,1.1-0.1,1.4-0.9C84,25.2,83,25.7,82.4,24.6z"/>
	<path fill="#FDFDFD" d="M104.1,18.2c0.6,0.8,0.7,1.7,0.2,2.6c-0.2,0.1-0.5,0.1-0.8,0.3c-0.6,0.6-1.2,0.9-2.1,0.8
		c-0.4,0-0.6,0.1-0.4,0.5c0.1,0.3,0.2,0.5,0.4,0.7c0.1,1.7,0.1,1.7-1.7,1.7c-0.2,0-0.3,0-0.5,0c-0.3-0.1-1,0.2-1-0.2
		c0-0.5-0.5-1.3,0.4-1.6c0.2-0.1,0.2-0.3,0.2-0.5c0-1,0-1.9,0-2.9c0-0.2,0-0.4-0.3-0.6c-0.5-0.3-0.2-1-0.2-1.5
		c0-0.5,0.5-0.2,0.8-0.2c1.2,0,2.4,0.1,3.7,0.2c0.2,0.2,0.4,0.3,0.7,0.3l0,0C103.8,17.8,104,18,104.1,18.2z"/>
	<path fill="#FDFDFD" d="M121.4,26.4c-1.2,0.6-2.5,0-2.7-1.3c-0.2-1,0-1.9,0.5-2.8c0.7-1.2,1.8-1.3,3.3-0.4
		c-0.2-0.4,0.5-0.8-0.3-1.1c-0.3-0.1,0.1-0.8,0.1-1.3c0.1-0.4,0.5-0.2,0.7-0.1c1.7,0.2,1.7,0.2,1.5,1.9c-0.2,1.2-0.4,2.5-0.6,3.7
		c0,0.3-0.2,0.4,0.2,0.7c0.4,0.2,0,0.8,0,1.2c0,0.4-0.4,0.3-0.6,0.2c-0.6-0.2-1.4,0-1.9-0.5C121.6,26.4,121.6,26.3,121.4,26.4z"/>
	<path fill="#FDFDFD" d="M133.3,23.1c-0.1,0-0.1,0-0.1,0c-0.1,0-0.2-0.2-0.2-0.2c0.5-0.3,0.3-0.8,0.4-1.3c0.7,0,1.3,0.3,1.9,0.3
		c0.4,0,0.3,0.3,0.3,0.6c-0.3,1.3-0.6,2.6-0.9,4c-0.1,0.5-0.5,1,0,1.6c0.2,0.2-0.1,0.9-0.2,1.4c-0.4-0.1-0.8-0.1-1.1-0.1
		c-0.2-0.2-0.5,0.1-0.7-0.2l0,0c-0.2-0.1-0.4,0-0.5-0.2l0,0c-0.2-0.1-0.3-0.3-0.5-0.2c-1.8,0-2.6-0.8-2.4-2.7
		c0.1-1.8,1.2-2.9,2.7-2.7c0.5,0.1,0.8,0.5,1.3,0.5c0.2-0.3,0.4,0.3,0.6-0.1C134.1,23.4,133.3,23.5,133.3,23.1z"/>
	<path fill="#FDFDFD" d="M60.8,24c1.3-0.2,1.7,0,2.1,1.3c0.2,0.6,0.2,1.5,0.6,1.7c0.5,0.3,0.5,0.7,0.7,1.1c0.1,0.3,0.1,0.5-0.3,0.7
		c-1.9,0.5-1.9,0.5-2.3-1.4c-0.1-0.4-0.2-0.8-0.4-1.2c-0.2-0.5-0.6-0.4-0.9-0.1c-0.3,0.3,0.1,1.7,0.4,1.8c0.8,0.2,0.6,0.8,0.7,1.3
		c0.1,0.5-0.5,0.3-0.8,0.4c-0.3,0.2-0.7,0.2-1.1,0.3c-0.3,0.1-0.9,0.4-1,0.1c-0.2-0.4-0.7-0.9-0.1-1.5c0.3-0.3-0.2-1.7-0.6-1.9
		c-0.5-0.3-0.4-0.8-0.5-1.3c-0.1-0.5,0.4-0.3,0.7-0.4c0.4-0.2,0.9-0.3,1.4-0.4C59.9,24.9,60.2,23.9,60.8,24z"/>
	<path fill="#FDFDFD" d="M153.1,35.6c-0.1-0.2-0.3-0.1-0.5-0.2c-0.4-0.2-1.1,0-1.2-0.6c-0.1-0.6,0.2-1.1,0.7-1.5
		c0.6-0.4,0.8-1,0.6-1.7c-0.1-0.3,0-0.6,0.1-0.8c0.3-0.8,0.5-0.8,1.2-0.5c0.4,0.2,0.7,0.4,1.1,0.5c0.5,0.1,0.5,0.4,0.3,0.7
		c0.3,0.1,0.5-0.1,0.7-0.1c1.4-0.1,2.2,0.6,1.8,2.1c-0.1,0.4-0.3,0.8-0.4,1.2c-0.1,0.3-0.4,0.6,0,1.1c0.2,0.3-0.2,0.8-0.4,1.2
		c-0.2,0.4-0.5,0-0.7,0c-0.2,0-0.4-0.1-0.6-0.2c-0.3,0-0.6-0.1-0.9-0.3l0,0c-0.3-0.4-0.1-0.7,0-1c0.2-0.6,0.4-1.1,0.6-1.7
		c0.1-0.2,0.1-0.4-0.1-0.5c-0.3-0.1-0.4,0.1-0.5,0.3c-0.2,0.4-0.2,0.7-0.1,1.1c0.2,0.8-0.2,1.3-0.8,1.5l0,0l-0.1,0
		C153.6,35.9,153.3,35.9,153.1,35.6z"/>
	<path fill="#FDFDFD" d="M111.4,21.6c0.3-0.4-0.1-1.1,0.4-1.3c0.4-0.2,1,0.1,1.5,0.1c0.4,0,0.9-0.1,0.7,0.6c1.7-0.7,2.2-0.6,2.9,0.4
		c0.2,1,0,2,0.3,3c0,0.1,0,0.1,0,0.2c0,1.3,0,1.4-1.3,1.3c-0.3,0-0.6,0-0.9,0c-0.5-0.1-0.6-0.4-0.5-0.8c0.1-0.6,0.1-1.3,0.2-1.9
		c0-0.3,0-0.6-0.3-0.6c-0.4,0-0.3,0.3-0.4,0.5c0,0.3,0,0.7,0.1,1c0.2,0.4,0.3,0.8,0.1,1.2c-0.3,0.3-0.6,0.4-1,0.3
		c-0.5,0-1.1-0.1-1.6-0.1c-0.6,0-0.6-0.3-0.6-0.8c-0.1-0.3,0-0.6,0.1-0.9C111.8,23.1,111.8,22.4,111.4,21.6z"/>
	<path fill="#FCFCFC" d="M42.8,31.2c0.3,0.7,0.4,1.5,0.8,2c0.4,0.4,0.7,0.7,0.9,1.2c0.2,0.4,0.2,0.6-0.3,0.8
		c-0.8,0.3-1.5,0.6-2.2,0.9c-0.6-0.1-0.3-0.7-0.6-1c-0.1-0.1-0.2-0.2-0.1-0.3c0.7-1.1-0.3-1.9-0.5-2.9c-0.1-0.4-0.3-0.7-0.4-1
		c-0.1-0.2-0.2-0.3-0.4-0.3c-0.2-0.2,0-0.4,0-0.6c-0.3,0.8-0.9,0.5-1.5,0.4c-0.1-0.2-0.2-0.5-0.4-0.7c-0.1-0.5,0.4-0.4,0.6-0.5
		c1.3-0.5,2.5-1,3.8-1.5c0.6-0.3,0.8-0.1,1,0.5c0.1,0.4,0.3,0.9,0.5,1.2c0.5,0.7,0.3,1.1-0.5,1.3c-0.3-0.1-0.4-0.5-0.8-0.9
		C42.6,30.4,42.8,30.8,42.8,31.2z"/>
	<path fill="#040205" d="M95.9,138.2c-0.7,0.7-1.1,0.7-1.5,0c-0.1-0.1-0.2-0.3-0.1-0.4c0.1-0.8,0.1-0.8-0.8-0.9c-0.1,0-0.1,0-0.2,0
		c0-0.2,0.3-0.4,0-0.7c-0.2-0.2-0.1-0.5-0.2-0.7c-0.3,0.3-0.6,0.8-1.2,0.4c-0.2-0.2-0.5-0.3-0.4-0.7c0-0.5,0.3-0.2,0.6-0.2
		c0.3,0,0.2-0.2,0.2-0.4c-0.1-0.3-0.4-0.3-0.6-0.3c-1,0.3-1.2-0.2-1.2-1.1c0-0.6-0.5-0.9-0.9-1.2c-0.2,0.3,0.1,0.4,0.2,0.5
		c0.2,0.2,0.5,0.4,0.2,0.7c-0.2,0.2-0.6,0.2-0.8-0.1c-0.2-0.3-0.7-0.6,0-1c0.2-0.1-0.1-0.5-0.2-0.5c-1,0-1-0.9-1.4-1.5
		c-0.3,0.4-0.7,0.6-1.1,0.4c-0.4-0.2-0.6-0.6-0.4-1.2c0.3,0,0.5,0.3,0.7,0.4c0.2-0.9-0.9-0.9-1-1.6c-0.4,0.2,0,1-0.7,0.7
		c-0.4-0.2-0.2-0.6-0.1-0.9c0.2-0.4-0.2-0.7-0.2-1.1c0.1-2.1,0-4.1,0-6.2c0.1-0.1,0.2,0,0.2,0.1c0,0.8,0,1.6,0,2.3
		c0-0.7,0-1.5,0-2.2c0-0.1,0-0.2,0-0.3c0-1.1,0-2.2,0-3.3c0-0.3,0-0.7,0.2-1c0.1,0,0.2,0,0.3,0.1c0.1,0.2,0.2,0.4,0.2,0.6
		c0,3,0.1,6,0,8.9c0,0.3-0.2,0.6-0.1,1c0,0.1,0,0.1,0.1,0.2c0.1,0.2,0.3,0.4,0.4,0.6c0.1,0.1,0.1,0.2,0.2,0.3c0.2,0.4,0.5,0.7,1,0.9
		c0.1,0.1,0.3,0.1,0.4,0.3c0.3,0.4,0.7,0.7,1,1.2c0.2,0.5,0.6,0.8,1,1c0.1,0.1,0.2,0.2,0.3,0.3c0.2,0.3,0.4,0.5,0.7,0.7
		c0.1,0,0.1,0.1,0.2,0.2c0.1,0.2,0.3,0.4,0.6,0.5c1.1,1,2.2,2.1,3.3,3.2c0.2,0.3,0.5,0.7,0.7,1c0.2,0.2,0.4,0.4,0.6,0.6
		c0,0.1,0.1,0.1,0.1,0.2c0,0.1-0.1,0.2-0.1,0.3C96,138.1,95.9,138.1,95.9,138.2z"/>
	<path fill="#FCFCFC" d="M68.8,27.7c-2,0.7-3.4,0.1-3.9-1.5c-0.4-1.1-0.2-2.1,0.6-3c0.1-0.2,0.3-0.3,0.5-0.4
		c0.2-0.1,0.3-0.1,0.5-0.2c0.2-0.1,0.5,0,0.7-0.1c2.5,0.2,3.6,2.1,2.6,4.4C69.6,27.4,69.3,27.7,68.8,27.7z"/>
	<path fill="#FCFCFC" d="M79.6,25.5c-1.9,1.3-3.4,0.6-4.3-0.5c-0.2-0.2-0.2-0.6-0.3-0.9l0,0c-0.1-0.5-0.2-0.9,0-1.4
		c0.5-1.5,1.3-2.1,2.8-2.1c1.2,0,2.1,0.6,2.5,1.7c0.3,0.8,0.2,1.6-0.1,2.4C80.1,25.2,79.9,25.4,79.6,25.5z"/>
	<path fill="#FCFCFC" d="M149.3,34.1c-0.7-0.3-1.3-0.7-2.1-0.7c-0.6,0-1-0.4-1.4-0.9c-0.5-0.8-0.4-1.3,0.4-2
		c0.3-0.1,0.6-0.1,0.8-0.3l0,0c0.6,0,0.9,0.3,1.1,0.9c0,0.1-0.1,0.1-0.1,0.2c-0.2,0.3-0.2,0.5,0,0.8c0.1,0.1,0.2,0.2,0.4,0.2
		c0.3-0.1,0.4-0.4,0.4-0.7c0-0.1,0-0.3,0-0.4c0.1-0.2,0.2-0.4,0.5-0.3c0.5-1.3,0.4-1.5-1.1-1.4c-0.4,0-0.8-0.3-1.2-0.5
		c-0.2-0.1,0-0.3,0.1-0.4c0.6-0.6,1.3-0.5,2-0.3c0.7,0.2,1.4,0.5,2.1,0.9c0.9,0.5,0.6,1.3,0.4,2c-0.2,0.7-0.4,1.4-0.3,2.2
		c0.1,0.4-0.1,1-0.5,1.2C150.1,34.8,149.6,34.5,149.3,34.1z"/>
	<path fill="#FBFBFB" d="M49.6,33.2c-0.2,0.1-0.5,0.2-0.7,0.3c-0.2,0.3-0.6,0-0.9,0.2l0,0c-0.5,0.3-1,0.1-1.4-0.3
		c-1-1-1.7-2.1-1.2-3.6c0.3-1,1.4-1.7,2.4-1.6c0.9,0.1,2.1,1,2.3,1.9c0.1,0.3-0.2,0.3-0.3,0.4c-0.6,0.6-1.5,0.5-2.2,1
		c0.3,0.5,0.6,0.8,1.1,0.2c0.4-0.5,1-0.5,1.6-0.4c0.3,0.4-0.1,0.7-0.1,1C50.4,32.9,50,33,49.6,33.2z"/>
	<path fill="#FAFAFA" d="M51.9,63.5c10.7,0,21.4,0,32.1,0c0.5,0,1.1-0.1,1.4,0.5c-0.2,0-0.4,0-0.6,0c-10.7,0-21.5,0-32.2,0
		C52.3,64.1,51.7,64.3,51.9,63.5z"/>
	<path fill="#FDFDFD" d="M74.3,26.6c-0.6,0.1-1.3,0.3-1.9,0.3c-0.3,0-0.7,0.2-0.8,0c-0.1-0.5-0.5-1-0.1-1.4c0.2-0.2,0.2-0.4,0.2-0.6
		c-0.2-1.1-0.3-2.1-0.5-3.2c-0.1-0.6-0.8-0.9-0.7-1.6c0-0.3,0-0.5,0.4-0.5c2-0.3,1.9-0.3,2.2,1.7c0.2,1.1,0.4,2.3,0.5,3.4
		c0,0.4,0.7,0.4,0.6,0.9C74.2,25.9,74.6,26.2,74.3,26.6z"/>
	<path fill="#FCFCFC" d="M141.9,29.5C141.9,29.5,141.9,29.5,141.9,29.5c-0.2,0.7-0.2,1.5-0.6,1.9c-0.4,0.3-1.1-0.3-1.8-0.3
		c-0.2,0-0.4,0-0.5-0.1c-0.1-0.3,0.2-0.6,0.2-0.9c0-0.3,0.1-0.5,0.2-0.7c0.4,0.1,0.6-0.1,0.8-0.5c0.3-1,0.6-1.9,0.9-2.9
		c0.1-0.2,0.3-0.5-0.1-0.8c-0.3-0.2,0.1-0.9,0.3-1.3c0.1-0.4,0.4-0.1,0.6,0c1.8,0.5,1.8,0.5,1.2,2.3c0,0.2-0.1,0.3-0.1,0.5
		c0.1,0.9-0.4,1.7-0.7,2.5C142.3,29.4,141.3,28.8,141.9,29.5z"/>
	<path fill="#FCFCFC" d="M108.7,25.1c-2.6,0.5-4-1.3-3.2-3.8c0.3-0.9,1-1.5,2-1.7c1.3-0.1,2.1,0.4,2.7,1.5c0.3,0.2,0.3,0.5,0.4,0.8
		c0.1,0.8-0.1,1-0.9,1c-0.5,0-1,0-1.4-0.1c-0.6-0.1-0.7,0.2-0.6,0.7C107.8,24.3,108.7,24.4,108.7,25.1z"/>
	<path fill="#FCFCFC" d="M52.7,26.1c0,0.1,0,0.1,0,0.2c0.3,0.2,0.3,0.5,0.3,0.8c-0.3,0.7-0.4,1.3,0.4,1.7c0.2,0.1,0.3,0.3,0.4,0.5
		c0.2,0.3,0.1,0.6,0.2,0.9c0.3,1.3,0.3,1.3-1.1,1.8c-0.3,0.1-0.8,0.4-0.9,0.2c-0.1-0.5-0.8-0.9-0.2-1.5c0.2-0.2,0-0.4,0-0.5
		c-0.3-1-0.7-2-1-3.1c-0.1-0.3-0.2-0.3-0.5-0.4c-0.5-0.2-0.5-0.8-0.6-1.2c-0.1-0.4,0.4-0.3,0.6-0.4c0.2-0.1,0.4-0.1,0.6-0.2
		c0.7-0.3,1.2-0.4,1.4,0.5C52.7,25.4,52.7,25.7,52.7,26.1z"/>
	<path fill="#FCFCFC" d="M138.7,27.6c-0.4,0.6-0.3,1.2-0.2,1.8c-0.1,0.3,0.1,0.7-0.3,0.9c-0.9,0.2-1.7-0.4-2.5-0.6
		c-0.2-0.1,0.1-1.2,0.4-1.5c0.6-0.5,0.8-1.2,0.6-1.9c-0.2-0.6,0.1-1,0.3-1.4c0.2-0.3,0.6,0,0.9,0.1c0.3,0.1,0.6,0.2,1,0.3
		c0.4,0.1,0.3,0.3,0.3,0.6c-0.2,0.3,0.1,0.8-0.3,1c0,0-0.1,0.1,0,0.1C138.7,27.2,138.9,27.4,138.7,27.6z"/>
	<path fill="#FDFDFD" d="M128.3,23.1c-0.1,0.6-0.2,1.2-0.4,1.7c-0.3,0.9,0.1,1.7-0.1,2.6c-0.1,0.5-0.3,0.5-0.7,0.4
		c-0.3-0.1-0.7-0.2-1.1-0.2c-0.4-0.1-1-0.2-1-0.3c0.2-0.5,0-1,0.5-1.5c0.5-0.4,0.6-1.3,0.4-1.9c-0.3-0.6,0-1,0.1-1.4
		c0-0.1,0.1-0.2,0.1-0.2c0.7,0.1,1.4,0.3,2.1,0.5C128.4,22.8,128.3,23,128.3,23.1z"/>
	<path fill="#FDFDFD" d="M90.9,21.2c-0.2,1,0.3,1.9,0.4,2.9c0.1,0.5-0.1,0.7-0.6,0.7c-0.4,0-0.7,0.1-1.1,0c-0.3,0-0.9,0.3-0.9-0.2
		c0-0.4-0.4-0.9,0.1-1.5c0.4-0.4,0.2-1.4-0.1-1.8c-0.4-0.6-0.2-1.2-0.4-1.7c0.6-0.4,1.2-0.4,1.9-0.4c0.5,0,0.8,0.3,0.6,0.8
		C90.8,20.5,91.1,20.9,90.9,21.2z"/>
	<path fill="#FAFAFA" d="M53.8,29.3c-0.4-0.1-0.4-0.6-0.9-0.7c-0.4-0.1-0.4-1.1,0.1-1.5c0.4,0.1,0.3,0.5,0.5,0.7
		c0.1,0.2,0.2,0.5,0.4,0.8c0.2-0.5,0.4-0.9-0.2-1.3c-0.6-0.5-0.4-1.1,0.3-1.2c0.3-0.1,0.6-0.2,0.9-0.2c0.3,0,0.7-0.5,0.9-0.1
		c0.2,0.4,0.6,0.8,0,1.3c-0.6,0.6-0.2,1.5,0.8,1.9c0.8,0.3,0.8,1.1,0.7,1.4c-0.1,0.4-0.9,0.6-1.4,0.5c-0.6-0.1-1-0.6-1.4-1l0,0
		C54.2,29.7,53.9,29.6,53.8,29.3z"/>
	<path fill="#030303" d="M149.3,34.1c0.4,0.1,0.9,0.3,1.3,0.4c0.1-0.6,0.6-1.1,0.1-1.9c-0.2-0.3,0.3-1,0.5-1.6
		c0.2-0.7,0.2-1.3-0.2-1.8c0.4-0.2,0.7-0.6,1.3-0.4c-0.9,0.4,0.3,1.5-0.8,1.9c0.7,0,0.7,0,0.8-0.5c0.1-0.3,0.1-0.7,0.5-0.8
		c0.6-0.1,0.8,0.4,1.2,0.8c-0.3,0.1-0.7-0.4-0.8,0c-0.2,0.4-0.7,0.8-0.3,1.4c0.2,0.3-0.3,1.8-0.6,1.9c-0.8,0.1-0.6,0.8-0.8,1.2
		c-0.1,0.2,0.2,0.2,0.3,0.3c0.2,0.1,0.5,0.2,0.8,0.3c-0.6,0-1.1,0-1.7,0.1c-0.3,0.1-0.5-0.1-0.6-0.3c-0.5-0.7-0.5,0-0.7,0.3
		C149.3,35.1,149.3,34.6,149.3,34.1z"/>
	<path fill="#FBFBFB" d="M141.9,29.5c-0.2-0.1-0.5,0.1-0.5-0.2c0-0.1,0-0.4,0.2-0.4c0.3-0.2,0.3,0.2,0.5,0.2
		c0.3-0.1,0.5-0.4,0.7-0.5c0.3-0.2,0.4-0.4,0.3-0.7c-0.1-0.4,0-1,0.6-1.1c0.5,0.2,1,0.3,1.5,0.5c0.2,0.1,0.7,0,0.6,0.4
		c-0.1,0.4,0.1,0.9-0.7,1c-1.1,0.1-1.2,1.1-0.4,2.2c0.3,0.9,0,1.4-0.7,1.5c-0.9-0.2-1.3-0.8-1.5-1.7
		C142.4,30.3,142.4,29.7,141.9,29.5z"/>
	<path fill="#140118" d="M85.6,116.1c0,0-0.1,0-0.1,0c-0.1-0.1-0.2-0.2-0.2-0.3c-0.1-0.2-0.2-0.5,0-0.7c0.3-0.3,0.2-0.6,0.2-0.9
		c0-1.9-0.2-3.8,0-5.7c0.2-2.2,0-4.5,0-6.8c0-2.7,0-5.4,0-8.1c0-0.9,0-1.7-0.2-2.5c0.1-0.1,0.1-0.3,0.1-0.5c-0.1-3.8,0-7.5,0-11.3
		c0-0.4,0-0.7,0.2-1.1c0-0.1,0-0.1,0-0.2c-0.3-0.4-0.3-0.9-0.2-1.4c0.3-0.4-0.4-0.5-0.2-0.9c0.1-0.4,0.3-0.3,0.6-0.2
		c0.2,0.2,0.2,0.5,0.2,0.7c0,0.3,0,0.5,0,0.8c0,4,0,8.1,0,12.1c0,0.4,0,0.8,0,1.2c-0.1,0.3-0.1,0.7-0.1,1c0,3.3,0,6.6,0,9.8
		c0,0.5,0,1,0,1.5c0.1,3.3-0.1,6.5,0,9.8c-0.1,0.9,0,1.7,0,2.6c0,0.2,0,0.5-0.1,0.7C85.7,116,85.7,116,85.6,116.1z"/>
	<path fill="#040404" d="M107.4,23.9c-0.1-0.2-0.2-0.4-0.2-0.7c0-0.4,0.1-0.6,0.6-0.5c0.6,0.1,1.2,0.1,1.8,0.2
		c0.7,0.1,0.8-0.1,0.7-0.7c-0.1-0.3-0.1-0.6-0.2-0.9c0.1-0.1,0.3-0.1,0.2-0.3c0-0.1-0.2-0.2,0-0.3c0.1-0.1,0.2,0,0.3,0.1
		c0.2,0.4,0.4,0.8,0.9,0.8c0.6,0.4,0.7,1.8,0,2.2c-0.4,0.2-0.1,0.6-0.4,0.9c-0.4-0.1-0.8-0.2-1.2-0.4c-0.5-0.4-1-0.7-1.7-0.3
		C107.9,24.2,107.6,24.2,107.4,23.9z"/>
	<path fill="#010306" d="M85.6,78.2c0,3.1,0.1,6.3,0,9.4c0,1.1,0.4,2.4-0.3,3.5c-0.7-3.9-0.2-7.8-0.3-11.7
		C84.9,78.9,85.1,78.5,85.6,78.2z"/>
	<path fill="#060606" d="M90.9,21.2c-0.3-0.5,0.3-1.5-0.6-1.7c-0.6-0.1-1.3,0.1-2,0.2c0.1-0.3-0.9,0-0.3-0.5c0.1,0,0-0.3,0-0.3
		c-0.8-0.7,0-1.2,0.2-1.7c0.2-0.5,0.7-0.3,1.1-0.1c0.1,0.2-0.1,0.3-0.2,0.4c-0.3,0.3-0.4,0.6-0.1,1c0.3,0.3,0.7,0.4,1.1,0.1
		c0.4-0.3,0.5-0.6,0.2-1c-0.1-0.1-0.2-0.3-0.2-0.4c-0.1-0.6,0.5-0.6,0.7-0.7c0.4-0.1,0.5,0.3,0.5,0.6c0,0-0.1,0-0.1,0.1
		c0.1,0,0.1,0,0.1-0.1c0.4,0.2,0.5,0.4,0.3,0.8c-0.2,0.5-0.4,1-0.3,1.6c0,0.2,0.5,0.3,0.1,0.5c0.3,0.5-0.7,0.1-0.3,0.6
		c0.2,0.3,0.3,0.7,0.2,1.1C91.1,21.6,91,21.4,90.9,21.2z"/>
	<path fill="#070707" d="M143.5,77.4c0.6-0.5,1.1-1.1,1.7-1.6c0.3-0.3,0.3-0.6,0.3-0.9c0-2.1,0-4.3,0-6.4c0.6,0.2,0.5,0.7,0.4,1.1
		c-0.2,1.2,0,2.4-0.1,3.6c0,0.3,0,0.6-0.2,0.8c0,0.2,0,0.5,0,0.7c0,0.5-0.1,1,0.8,0.8c-0.8,0.8-1.8,1.3-2.3,2.2
		c-0.2,0.3-0.6,0.2-0.6,0.6c0,0.1-0.3,0.2-0.1,0.4c0.2,0.1,0.3,0.3,0,0.5c-0.1,0.1-0.2,0.2-0.4,0.1c-0.4-0.2,0.1-0.4-0.1-0.6
		c-0.8,0.6-1,1.8-2.1,2.3c0.1-0.3,0.4-0.6-0.1-0.8c0.6-0.6,1.2-1.2,1.7-1.8C142.8,77.8,143,77.5,143.5,77.4z"/>
	<path fill="#040404" d="M145.7,74c0-1.7,0-3.4,0-5.1c0-0.1-0.1-0.3-0.1-0.4c0-2.1,0-4.1,0-6.2c0.2,0.1,0.2,0.3,0.3,0.8
		c0-0.6,0-0.9,0.1-1.3c0.2,4.1,0.3,8.1,0.1,12.1C145.9,74,145.8,74,145.7,74z"/>
	<path fill="#060606" d="M94,148.9c-0.3,0-0.6-0.2-0.4,0.5c0.3,1,0.1,2.1,0.1,3.1c0,0.2-0.2,0.3-0.4,0.3c-0.3,0-0.4-0.1-0.4-0.4
		c0-0.7-0.1-1.4,0-2c0.1-0.8-0.2-1.4-0.9-1.7c0.2-0.2,0.8-0.1,0.3-0.7c-0.1-0.1,0.2-0.1,0.3-0.1C93.2,148,93.9,148,94,148.9z"/>
	<path fill="#050505" d="M103.4,155.5c0.2-0.3,0.5-0.4,0.8-0.5c0.3-0.1,0.8-0.3,0.4,0.4c-0.1,0.3,0.2,0.4,0.3,0.4
		c1.2,0,0.4,0.8,0.5,1.2c0.1,0.6-0.4,0.4-0.8,0.4c-0.4,0-0.8-0.6-1.3-0.1c-0.1,0.1-0.2-0.6-0.6-0.5c0.2-0.8,0.4-0.8,1.5-0.5
		C104,155.9,103.4,155.9,103.4,155.5z"/>
	<path fill="#1D0A03" d="M98.1,119.3c0,6,0,12,0,18c0,0.3-0.2,0.6,0.2,0.8c0,0.3,0.1,0.6-0.2,0.9c-0.1,0.1-0.1,0.1-0.2,0
		c0-0.2,0-0.5,0-0.7c-0.3-0.3-0.2-0.7-0.2-1.1c-0.1-5.6,0-11.1,0-16.7C97.7,120.1,97.5,119.6,98.1,119.3z"/>
	<path fill="#050505" d="M144,32.4c0.7-0.3,0.6-1,0.7-1.5c0.2-0.3,0.3-0.9,0.9-0.4c0.2,0.2,0.6-0.4,1-0.1c0,0.2-0.1,0.3-0.3,0.3
		c-0.7,0.5-0.7,1.2-0.5,1.9C145.2,32.9,144.5,33.1,144,32.4z"/>
	<path fill="#0B0B0B" d="M114.2,25.4c0-0.5,0.2-1-0.3-1.5c-0.2-0.2,0-1,0.2-1.5c0.1-0.2,0.4-0.3,0.7-0.2c0.3,0.1,0.4,0.4,0.4,0.7
		c-0.1,0.8-0.2,1.5-0.3,2.3c-0.1,0.4,0,0.6,0.3,0.7c-0.3,0.2-0.6,0-0.9-0.2C114.1,25.6,114.1,25.5,114.2,25.4z"/>
	<path fill="#040404" d="M145.5,60.7c-0.2-2-0.1-4-0.1-6c0-0.5,0-1,0-1.4c0.3,0.3,0.1,0.8,0.2,1.1c0.1,0.3-0.3,0.9,0.5,0.8
		c0,0,0.1,0.1,0.1,0.2c-0.1,0.9-0.2,1.8-0.2,2.7c-0.1,0-0.2,0-0.2,0c0-0.6,0-1.2,0-1.7c0.1,0.9-0.7,2,0.4,2.7
		c0.2,0.1,0.1,0.4-0.1,0.5c-0.3,0.2-0.4,0.4-0.4,0.7C145.5,60.4,145.5,60.5,145.5,60.7z"/>
	<path fill="#050505" d="M134,87c0.8-0.9,1.7-1.8,2.6-2.6c0.1,0.2,0.2,0.4,0,0.6c-0.2,0.3-0.4,0.5,0.2,0.4c0.2,0,0.1,0.2,0,0.3
		c-0.2,0.3-0.4,0.4-0.8,0.5c-0.4,0.1-1.1-0.1-0.8,0.9c0.2,0.4-0.3,0.6-0.7,0.4C134.3,87.4,134.3,87,134,87z"/>
	<path fill="#F7F7F7" d="M90,17.2c0.4,0.3,0.8,0.5,0.6,1.1C90.5,18.8,90,19,89.5,19c-0.5,0-0.9-0.2-1-0.8c-0.1-0.6,0.4-0.9,0.8-1.1
		C89.6,17.2,89.8,17.2,90,17.2z"/>
	<path fill="#F7F7F7" d="M128.4,20.4c0.4,0.6,0.4,1.1-0.2,1.5c-0.5,0.3-1.4-0.1-1.6-0.6c-0.2-0.7,0.2-1,0.8-1.2
		C127.8,19.8,128.2,20,128.4,20.4z"/>
	<path fill="#050505" d="M154.1,36c0.6-0.5,0.7-1.1,0.4-1.6c-0.2-0.3,0.4-1.6,0.7-1.7c0.5-0.1,0.8,0.2,0.6,0.7
		c-0.2,0.7-0.5,1.3-0.7,2c-0.1,0.3-0.3,0.6-0.2,0.9C154.6,36.5,154.3,36.3,154.1,36z"/>
	<path fill="#F9F9F9" d="M139.7,23.7c0,0.6-0.4,0.9-0.9,0.9c-0.6,0-1.1-0.2-1.2-1c0-0.6,0.4-0.8,0.9-0.8
		C139.2,22.7,139.7,23,139.7,23.7z"/>
	<path fill="#070707" d="M53.9,26c-0.5,0.1-0.5,0.4-0.4,0.9c0.2,0.5,0.4,0.6,0.9,0.3c-0.2,0.7-0.4,1.3-0.7,2.1
		c-0.3-0.9-0.6-1.5-0.9-2.2c-0.1-0.3-0.1-0.6-0.2-0.8c0.4-0.3,0.6-0.6,0.3-1.1c-0.2-0.3-0.1-0.6,0.2-1.2
		C53.3,24.8,53.4,25.5,53.9,26z"/>
	<path fill="#0A0A0A" d="M82.4,24.6c0.9,0.6,1.8,0.6,2.8,0c0.1,1-0.2,1.5-1.2,1.6c-0.4,0-0.8-0.1-1.3-0.2c0.1-0.3,0.2-0.7-0.3-0.9
		C82.2,25,82.3,24.8,82.4,24.6z"/>
	<path fill="#F5F5F5" d="M103.4,155.5c0.5,0.3,1.1,0.4,1,1.3c-0.6-0.3-1.3-1-1.8,0l0,0c-0.1,0.2-0.1,0.6-0.5,0.5
		c0.1-0.4-0.5-0.8,0-1.1c0.1-0.1-0.1-0.2-0.2-0.2c-0.5,0-0.4-0.3-0.3-0.6c0,0,0.1,0,0.1,0c0,0,0,0,0.1,0.1
		C102.3,155.8,102.8,155.2,103.4,155.5z"/>
	<path fill="#0A0A0A" d="M50.5,31.3c-0.6,0.2-1.5-0.1-1.7,0.9c-0.1,0.2-0.4,0.2-0.6,0.1c-0.4-0.2-0.6-0.5-0.6-0.9
		c0-0.2,0.2-0.2,0.4-0.3c0.7-0.2,1.3-0.4,2-0.7C50.2,30.8,50.3,31,50.5,31.3z"/>
	<path fill="#F6F6F6" d="M103.4,132c0.4,0.4,0.7,0,0.8-0.2c0-0.9,0.4-0.5,0.8-0.3c-0.4,0.4-0.7,0.8-1.1,1.2
		c-0.1,0.3-0.2,0.5-0.5,0.5c-0.3,0.3-0.7,0.6-1,0.9c-0.2,0-0.4,0.1-0.5,0.2c0,0,0,0,0,0c-0.1-0.2-0.5-0.3-0.3-0.6
		c0.1-0.2,0.4-0.2,0.7-0.2c0.4,0,0.8-0.5,0.8-1C103,132.1,103.2,132,103.4,132L103.4,132z"/>
	<path fill="#F6F6F6" d="M38.4,30.5c0.1,0,0.2-0.1,0.3-0.1c0.6,0,1.2,0.1,1.4-0.7c-0.1,0.3-0.1,0.7-0.2,1c-0.5,0.3-0.1,0.7,0,1
		c0.1,0.3,0.2,0.6-0.2,0.7c-0.3,0.1-0.6,0.2-0.7-0.3C38.8,31.5,38.6,31,38.4,30.5z"/>
	<path fill="#1D0A03" d="M97.3,138c-0.1,0.1-0.2,0.2-0.2,0.3c0,0-0.1,0-0.1,0c-0.1-0.1-0.1-0.1-0.2-0.2c-0.1-0.2-0.1-0.5-0.1-0.7
		c-0.1-3.2,0-6.4,0-9.6c0-0.3,0-0.5,0-0.8c0-0.3,0-0.5,0.2-0.7c0.1,0,0.2,0,0.3,0.1c0.3,0.5,0.3,1,0.3,1.5c-0.2,3.1-0.1,6.1-0.1,9.2
		C97.4,137.4,97.7,137.7,97.3,138z"/>
	<path fill="#F7F7F7" d="M105.1,131.3c0-0.4-0.3-0.9,0.3-1.3c0.2-0.2,0.2-0.8,0.2-1.3c0.4,0.9,0.9,0.6,1.4,0.2
		c0.2-0.2,0.4-0.5,0.7-0.2C106.9,129.6,106,130.5,105.1,131.3z"/>
	<path fill="#080508" d="M85.8,75.7c-0.2,0-0.4,0-0.5,0.2c-0.7,0-0.3-0.5-0.3-0.7c0.1-0.3,0.4-0.5,0.1-0.9c-0.1-0.1-0.1-0.2,0-0.3
		c0.8-0.2,0.5-0.9,0.4-1.3c-0.2-1.1,0.1-2.2,0.2-3.3c0,1.8,0,3.5,0.1,5.3C86.1,75,86.1,75.4,85.8,75.7z"/>
	<path fill="#F3F3F3" d="M107.4,23.9c0.4,0.1,0.7,0.1,1-0.2c0.4-0.4,0.9,0.1,1.4,0.1c0.3,0,0.1,0.3,0.1,0.5
		c-0.4,0.3-0.7,0.7-1.2,0.8C108.3,24.7,107.8,24.3,107.4,23.9z"/>
	<path fill="#0A0A0A" d="M143.6,26.7c-0.6,1-0.6,1.1,0.1,1.5c-0.6,0.4-0.9,1-1.6,1c0.3-0.9,0.6-1.7,0.9-2.6
		C143.2,26.5,143.5,26.2,143.6,26.7z"/>
	<path fill="#080808" d="M131.5,43c-0.7-0.4-1.4-0.9-2.1-1.5c0.6-0.2,1.2-0.1,1.7-0.1c0.2,0,0.2,0.2,0.2,0.3c0,0.4-0.1,0.7,0.3,0.9
		C131.9,42.7,131.5,42.8,131.5,43z"/>
	<path fill="#070308" d="M85.3,115.1c0.1,0.2,0.1,0.5,0.2,0.7c-0.2,1.1,0,2.1-0.1,3.2c0,0.5,0.1,1.1-0.1,1.6l0,0
		c-0.1,0.1-0.1,0.1-0.2,0c-0.1,0-0.1,0-0.2,0c0-1.7,0-3.5,0-5.2C84.9,115,85,114.9,85.3,115.1z"/>
	<path fill="#080808" d="M129.4,91.1c0.8-0.2,1.1-1,1.7-1.4c0,0.5,0.5,1.3-0.2,1.4c-0.6,0.1-0.9,0.5-1.4,0.6
		C129.1,91.7,129.7,91.3,129.4,91.1z"/>
	<path fill="#F7F7F7" d="M56.6,42.3c0.2,0.1,0.4,0.1,0.8,0c-0.6,0.5-0.5,1.2-1.2,1.4c-0.3,0.1-0.4,0.6-0.3,0.9
		c0,0.6-0.3,0.4-0.6,0.2C55.7,44,56.1,43.1,56.6,42.3z"/>
	<path fill="#F5F5F5" d="M139.5,49.1c-0.3,0.3-0.5-0.1-0.7-0.2c-0.4-0.3-0.7-0.6-1.1-0.1c-0.1,0.1-0.3,0.1-0.3,0
		c0-0.5-0.8-0.8-0.2-1.4C138.1,47.9,138.8,48.5,139.5,49.1z"/>
	<path fill="#F6F6F6" d="M101,22.3c-0.3-0.5,0.1-0.6,0.4-0.6c0.9,0.2,1.5-0.2,2-0.9c0.3-0.4,0.6-0.2,0.9-0.1c-0.3,0.8-1,1-1.7,1.1
		c-0.5,0-0.9,0.1-1.4,0.1C101.1,22,101.2,22.2,101,22.3z"/>
	<path fill="#F4F4F4" d="M143.3,51.9c-0.5,0.1-1.2-0.1-1.6-0.5c0,0-0.1,0-0.1,0c-0.2,0.2-0.4,0.2-0.4-0.1c-0.1-0.4,0.3-0.2,0.5-0.3
		c0.1,0,0.1-0.1,0.2-0.2c0.3,0.2,0.6,0.3,0.9,0.5C143,51.3,143.3,51.4,143.3,51.9z"/>
	<path fill="#02030E" d="M97.3,138c0.2-0.2,0-0.5,0-0.7c-0.2-0.9,0-1.8-0.1-2.7c0-0.2,0-0.4,0.3-0.4c0.2,0,0.3,0.2,0.3,0.4
		c0,0.9,0,1.9,0,2.8c0,0.3,0.1,0.7-0.2,0.9C97.4,138.3,97.3,138.2,97.3,138z"/>
	<path fill="#01050D" d="M96.9,138.4c0.1,0,0.1,0,0.2,0c0.6,0.7-0.2,0.9-0.5,1.3c-0.1,0.1-0.3,0-0.3-0.1c0.1-0.5-0.4-0.9-0.4-1.3
		c0-0.1,0-0.1,0-0.2C96.4,137.7,96.5,138.4,96.9,138.4z"/>
	<path fill="#070707" d="M46.7,33.4c0.5,0.1,0.9,0.2,1.4,0.3c0,0.2-0.1,0.4-0.3,0.4c-0.7,0-1.4,0.1-2-0.2
		C46.2,33.9,46.5,33.7,46.7,33.4z"/>
	<path fill="#050505" d="M102.1,157.4c0.2-0.2,0.3-0.4,0.5-0.5c0.3,1.1-0.2,1.9-1.2,1.7C101.6,158.1,102,157.9,102.1,157.4z"/>
	<path fill="#F4F4F4" d="M149.2,31c-0.1,0.1-0.3,0.2-0.4,0.3c-0.3,0.2-0.5,0.1-0.7-0.2c-0.3-0.4-0.7-0.6-1-0.8
		C147.9,30,148.6,30.5,149.2,31z"/>
	<path fill="#141414" d="M42.8,31.2c-0.2-0.3-0.3-0.7-0.5-1c-0.1-0.2-0.1-0.4,0.2-0.5c0.2-0.1,0.4,0,0.4,0.2
		c0.1,0.3,0.3,0.6,0.4,0.9C43.1,30.8,42.9,30.9,42.8,31.2z"/>
	<path fill="#080808" d="M100.7,149.1c-0.2-0.1-0.3-0.2-0.5-0.1c-1.1,0.2-1.6-0.3-1.6-1.4c0.3,0.4,0.3,0.4,0.4,1
		c0,0.3,0.2,0.2,0.4,0.2c0.6-0.1,1.3,0,2-0.3C101.2,148.8,100.8,148.8,100.7,149.1z"/>
	<path fill="#F2F2F2" d="M137,47.2c-0.1,0-0.2,0.1-0.2,0c-0.4-0.1-0.5,0.7-0.9,0.3c-0.4-0.4,0.1-0.8,0.1-1.2
		C136.3,46.6,136.7,46.9,137,47.2z"/>
	<path fill="#0B0B0B" d="M117.2,24.4c-0.4,0-0.4-0.2-0.3-0.5c0-0.8,0-1.6,0-2.5c0.1,0,0.4,0,0.4,0.1c-0.5,0.9,0,1.7,0.2,2.5
		C117.5,24.2,117.3,24.2,117.2,24.4z"/>
	<path fill="#0B0B0B" d="M143.3,51.9c-0.2-0.2-0.5-0.4-0.7-0.6c0.2-0.3,0.4-0.6,0.7-0.4c0.3,0.3,0.6,0.7,0.3,1.2
		C143.5,52,143.4,51.9,143.3,51.9z"/>
	<path fill="#080508" d="M85.4,76.7c0.1,0.5,0.1,0.9,0.2,1.4c-0.5,0.1-0.8-0.2-0.6-0.6C85.1,77.2,84.7,76.6,85.4,76.7z"/>
	<path fill="#090909" d="M60.8,24c-0.2,0.1-0.4,0.2-0.5,0.3c-0.3,0.5-0.7,0.6-1.1,0.1c0-0.2,0.1-0.3,0.3-0.2c0.3,0,0.4-0.2,0.4-0.4
		l0,0C60.3,23.7,60.6,23.8,60.8,24z"/>
	<path fill="#F6F6F6" d="M133.3,23.1c0.1,0,0.1,0.1,0.2,0.1c0.3,0,0.6-0.1,0.6,0.3c0.1,0.3-0.2,0.5-0.3,0.6
		c-0.4,0.4-0.3-0.4-0.6-0.2C133.2,23.7,133.3,23.4,133.3,23.1z"/>
	<path fill="#0B0B0B" d="M128.4,20.4c-0.3-0.1-0.7-0.2-1-0.3c0.2-0.2,0-0.8,0.5-0.7C128.3,19.5,128.6,19.9,128.4,20.4z"/>
	<path fill="#F6F6F6" d="M138.9,82c0.1-0.3-0.6-0.5-0.1-0.8c0.3-0.1,0.6-0.6,0.9-0.1C139.5,81.5,139.2,81.8,138.9,82z"/>
	<path fill="#090909" d="M91.3,154.9c-0.4,0.6-0.5,1.3-0.4,2.1c-0.1-0.5-0.3-1-0.4-1.5C90.5,155,90.8,154.8,91.3,154.9z"/>
	<path fill="#F0F0F0" d="M133.4,21.6c0.4,0.6,0.2,1-0.2,1.5c-0.6,0-0.2-0.4-0.2-0.6C133,22.2,133,21.8,133.4,21.6z"/>
	<path fill="#0B0B0B" d="M54.5,29.8c0.5,0.2,1,0.6,1.4,1C55.2,31,54.6,30.5,54.5,29.8z"/>
	<path fill="#080808" d="M137.3,83.7c0.2-0.3,0.5-0.6,0.9-0.9c0,0.1,0,0.2,0,0.3c0.2,0.4-0.1,0.7-0.3,0.9
		C137.6,84.3,137.5,83.7,137.3,83.7z"/>
	<path fill="#050505" d="M153.1,35.6c0.3,0,0.6,0.2,0.9,0.3c-0.4,0.2,0.5,0.6-0.1,0.6C153.4,36.6,153.1,36.1,153.1,35.6z"/>
	<path fill="#070707" d="M49.6,33.2c0.3-0.3,0.5-0.6,0.8-0.9c0.1,0.1,0.4-0.2,0.3,0.1c-0.1,0.3,0,0.9-0.6,0.8
		C50,33.3,49.8,33.2,49.6,33.2z"/>
	<path fill="#0B0B0B" d="M38.6,29.3c-0.1,0.2-0.6,0.1-0.6,0.5c-0.2-0.2-0.6-0.4-0.3-0.8C38.2,28.5,38.3,29.2,38.6,29.3z"/>
	<path fill="#101010" d="M68.8,27.7c0.3-0.3,0.6-0.5,0.9-0.8C69.7,27.8,69.6,28,68.8,27.7z"/>
	<path fill="#0D0D0D" d="M101,22.3c0.1-0.1,0-0.3,0.2-0.3c0.1,0.2,0,0.5,0.4,0.6c0.5,0.2,0,0.3,0,0.4C100.9,23.1,101,22.6,101,22.3z
		"/>
	<path fill="#F4F4F4" d="M141.4,50.5c-0.5,0.4-0.7-0.1-1-0.3c-0.2-0.2,0.1-0.2,0.1-0.4C140.9,50,141.2,50.1,141.4,50.5z"/>
	<path fill="#01050D" d="M97.9,139c0.1,0,0.1,0,0.2,0c-0.1,0.2,0.3,0.5-0.1,0.7c-0.1,0.1-0.3,0-0.4-0.1
		C97.5,139.3,97.6,139.1,97.9,139z"/>
	<path fill="#080808" d="M41.4,35.1c0.4,0.2,0.3,0.7,0.6,1C40.9,36.3,41.5,35.5,41.4,35.1z"/>
	<path fill="#0A0A0A" d="M79.6,25.5c0.2-0.2,0.4-0.4,0.5-0.7c0.2,0.2,0.4,0.4,0.3,0.6C80.2,25.7,79.9,25.4,79.6,25.5z"/>
	<path fill="#080808" d="M75,22.8c0,0.5,0,0.9,0,1.4C74.8,23.7,74.3,23.3,75,22.8z"/>
	<path fill="#0A0A0A" d="M138.2,30.3c0-0.3,0.1-0.6,0.3-0.9C138.6,29.8,139,30.3,138.2,30.3z"/>
	<path fill="#0B0B0B" d="M138.7,27.6c0-0.2,0-0.4,0.2-0.5c0,0,0.1,0.1,0.1,0.1c0.2,0.2,0.5,0.3,0.4,0.6
		C139.1,28.1,138.9,27.5,138.7,27.6z"/>
	<path fill="#0A0A0A" d="M103.4,133.2c0.1-0.2,0.3-0.4,0.5-0.5c0.2,0.3,0.2,0.5-0.1,0.7C103.6,133.6,103.5,133.3,103.4,133.2z"/>
	<path fill="#070707" d="M52.7,26.1c-0.2-0.3-0.3-0.6-0.3-0.9C52.9,25.3,53,25.4,52.7,26.1z"/>
	<path fill="#080808" d="M74.3,26.6c0-0.3-0.1-0.7-0.1-1c0,0,0.1,0,0.1,0l0,0c0,0.1,0,0.3,0.2,0.3l0,0
		C74.5,26.1,75.2,26.5,74.3,26.6z"/>
	<path fill="#0B0B0B" d="M138.9,26.9c0-0.4,0.1-0.7,0.3-1c0,0.2,0.1,0.4,0.1,0.7C139.3,26.7,139.3,27.1,138.9,26.9z"/>
	<path fill="#111111" d="M101.1,136.5c0,0.1-0.1,0.3-0.3,0.3c-0.2,0-0.3-0.1-0.2-0.3c0-0.2,0.1-0.3,0.3-0.3
		C101,136.2,101.1,136.3,101.1,136.5z"/>
	<path fill="#050505" d="M154.9,36.3c0.3,0,0.6,0.1,0.9,0.3C155.2,37.3,155.1,36.6,154.9,36.3z"/>
	<path fill="#01050D" d="M97.6,138.3c0-0.3,0-0.6,0-0.9c0.1-0.1,0.1-0.3,0.3-0.2c0,0.3,0,0.7,0,1C97.8,138.3,97.7,138.3,97.6,138.3z
		"/>
	<path fill="#0D0D0D" d="M67,148.7c-0.2-0.1-0.5,0.2-0.7-0.1c0-0.1,0.1-0.3,0.1-0.3C66.8,148.1,66.9,148.5,67,148.7z"/>
	<path fill="#0B0B0B" d="M65.2,22.6c-0.2-0.1-0.5-0.2-0.4-0.5c0.1-0.1,0.3-0.2,0.4-0.1C65.7,22.3,65.2,22.4,65.2,22.6L65.2,22.6z"/>
	<path fill="#040404" d="M146,73.8c0.3,0.6,0.1,1-0.1,1.4C145.7,74.8,146.1,74.4,146,73.8z"/>
	<path fill="#050505" d="M105.1,154.8c0.2,0,0.4,0.1,0.4,0.3c0,0.1-0.1,0.2-0.1,0.2c-0.2,0-0.3-0.2-0.4-0.3
		C104.9,154.8,105,154.8,105.1,154.8z"/>
	<path fill="#F7F7F7" d="M57.4,41c0.2,0.5,0,0.7-0.5,0.8C57,41.5,57.1,41.2,57.4,41z"/>
	<path fill="#0B0B0B" d="M53.8,29.3c0.3,0.1,0.5,0.2,0.7,0.5c-0.2,0-0.4,0.1-0.4,0.4C54,29.9,53.9,29.6,53.8,29.3z"/>
	<path fill="#080808" d="M98.6,147.6c-0.2-0.2-0.3-0.3-0.5-0.5c0.1-0.1,0.2-0.2,0.3-0.4C98.4,147,98.8,147.2,98.6,147.6z"/>
	<path fill="#EAEAEA" d="M114.2,25.4c0,0.1,0,0.2,0,0.3c-0.3,0-0.6,0-0.9-0.1C113.6,25.6,113.8,25.1,114.2,25.4z"/>
	<path fill="#EFEFEF" d="M103.6,17.6c-0.4,0.2-0.6,0.2-0.7-0.3C103.2,17.4,103.4,17.4,103.6,17.6z"/>
	<path fill="#030303" d="M153,28.9c0,0,0.1,0.1,0.1,0.2c0,0.2-0.2,0.2-0.3,0.2c-0.1,0-0.2-0.1-0.2-0.2
		C152.6,28.9,152.7,28.9,153,28.9z"/>
	<path fill="#0B0B0B" d="M67.1,22.5c-0.2,0.2-0.4,0.2-0.7,0.1c0.2-0.1,0.4-0.3,0.6-0.4c0.1-0.1,0.2-0.1,0.3,0
		C67.3,22.3,67.2,22.4,67.1,22.5z"/>
	<path fill="#FDFDFD" d="M131.1,14.5c0.4-0.2,0.7-0.2,1,0.2C131.8,14.8,131.5,14.6,131.1,14.5z"/>
	<path fill="#070707" d="M50.4,34c-0.1,0.2-0.2,0.3-0.3,0.2c-0.1,0-0.2-0.2-0.3-0.3c0.1,0,0.2-0.1,0.3-0.1
		C50.3,33.8,50.4,33.9,50.4,34z"/>
	<path fill="#080808" d="M75,24.2c0.2,0.3,0.3,0.5,0.3,0.9C75,24.8,74.7,24.6,75,24.2z"/>
	<path fill="#0B0B0B" d="M66,22.8c-0.2,0.1-0.4,0.2-0.5,0.4c-0.1-0.2-0.1-0.4-0.2-0.6c0,0,0,0,0,0C65.5,22.7,65.7,22.7,66,22.8z"/>
	<path fill="#252525" d="M93.3,153.4c0.2,0,0.5,0,0.7,0c0,0,0,0.1,0,0.1c-0.3,0.1-0.7,0.1-1,0.2C93.1,153.6,93.2,153.5,93.3,153.4z"
		/>
	<path fill="#090909" d="M59.9,23.8c-0.1,0-0.3,0.3-0.4,0c-0.1-0.2,0.2-0.3,0.3-0.3C60,23.5,59.9,23.7,59.9,23.8
		C59.9,23.8,59.9,23.8,59.9,23.8z"/>
	<path fill="#0B0B0B" d="M49,121.7c-0.1-0.2-0.2-0.4-0.2-0.6c0.1,0,0.3-0.1,0.3,0C49.2,121.4,49.2,121.6,49,121.7L49,121.7z"/>
	<path fill="#101010" d="M132.7,29.1c0.2,0,0.5-0.1,0.7,0.2C133.2,29.3,132.8,29.9,132.7,29.1z"/>
	<path fill="#040404" d="M145.7,60.3c0.4,0.1,0.3,0.4,0.3,0.7C145.7,60.8,145.8,60.5,145.7,60.3z"/>
	<path fill="#0A0A0A" d="M139,30.9c0.2,0,0.4-0.1,0.5,0.1C139.4,31.3,139.4,31.3,139,30.9z"/>
	<path fill="#0A0A0A" d="M139.4,29.3c0,0.2,0,0.5-0.2,0.7C138.8,29.6,139.3,29.5,139.4,29.3z"/>
	<path fill="#FEFEFE" d="M101.9,134.2c0.1-0.1,0.2-0.6,0.5-0.2c-0.1,0.1-0.1,0.1-0.2,0.2C102.1,134.2,102,134.2,101.9,134.2z"/>
	<path fill="#080808" d="M42.4,36.4c0,0.4-0.2,0.4-0.4,0.5C42.1,36.6,42.3,36.6,42.4,36.4z"/>
	<path fill="#070707" d="M49.6,34c-0.2,0-0.2-0.1-0.2-0.2c0-0.1,0.1-0.1,0.2-0.1c0.1,0,0.2,0.1,0.2,0.2C49.9,34,49.6,33.9,49.6,34z"
		/>
	<path fill="#101010" d="M144.7,26.6c0.4-0.3,0.6-0.1,1-0.2C145.3,26.6,145.1,26.5,144.7,26.6z"/>
	<path fill="#080808" d="M74.5,25.9c0.3-0.3,0.5-0.1,0.6,0.3C74.8,26,74.7,26,74.5,25.9C74.5,25.9,74.5,25.9,74.5,25.9z"/>
	<path fill="#111111" d="M100,136.5c0.2-0.2,0.3-0.3,0.5-0.5C100.4,136.2,100.5,136.6,100,136.5z"/>
	<path fill="#070707" d="M52.6,24.1c0,0.1,0.1,0.2,0.1,0.3c0,0.1-0.1,0.2-0.1,0.1c-0.1-0.1-0.1-0.2-0.1-0.3
		C52.5,24.2,52.5,24.1,52.6,24.1z"/>
	<path fill="#EFEFEF" d="M104.1,18.2c-0.2-0.1-0.4-0.3-0.5-0.5C103.9,17.7,104.1,17.8,104.1,18.2z"/>
	<path fill="#F5F5F5" d="M121.4,26.4c0.1-0.1,0.2-0.4,0.4-0.2c0.2,0.2,0,0.3-0.2,0.4C121.5,26.5,121.4,26.4,121.4,26.4z"/>
	<path fill="#F4F4F4" d="M146.3,30.6c0.1-0.1,0.2-0.2,0.3-0.3c0.2,0,0.3,0,0.5,0C146.9,30.6,146.6,30.7,146.3,30.6z"/>
	<path fill="#101010" d="M132.2,29c0.2,0,0.4,0,0.5,0.2C132.5,29.2,132.2,29.4,132.2,29z"/>
	<path fill="#080808" d="M74.3,25.5c0.2-0.2,0.4-0.2,0.7-0.1C74.8,25.6,74.5,25.5,74.3,25.5C74.3,25.5,74.3,25.5,74.3,25.5z"/>
	<path fill="#101010" d="M131.7,28.8c0.3-0.2,0.5-0.2,0.5,0.2C132,28.9,131.8,28.8,131.7,28.8z"/>
	<path fill="#1D0A03" d="M98.3,138.2c0.1-0.1,0.2-0.2,0.3-0.3c0,0.1,0.2,0.2,0,0.4C98.5,138.3,98.4,138.2,98.3,138.2z"/>
	<path fill="#070707" d="M48.1,33.7c0.3-0.2,0.6-0.1,0.9-0.2C48.7,33.9,48.4,33.7,48.1,33.7z"/>
	<path d="M132.9,60.3c0.2-0.1,0.1-0.4,0.2-0.5c0.2-0.3-0.1-1.1,0.7-0.8c0,0,0.2-0.3,0.3-0.4c0.2,0.1,0.4,0.2,0.4,0.4
		c0.1,0.9,0.7,1.1,1.5,1c0.4,0.2,0.6,0.6,0.6,1c0,2.3,0,4.5,0.1,6.8c0,0.6-0.5,0.9-0.7,1.3c-0.1,0.6-0.6,0.9-1,1.2
		c-0.1,0-0.2,0.1-0.2,0.2c-0.1,0.1-0.1,0.2-0.2,0.3c-1.3,1.4-2.6,2.8-3.8,4.3c0,0.2-0.2,0.3-0.3,0.4c-0.2,0.1-0.3,0.2-0.3,0.4
		c-0.1,0.3-0.1,0.6-0.5,0.6c-0.2,0.2-0.3,0.4-0.5,0.5c-2,0.3-4.1,0.3-6.1,0.3c-3.2,0-6.4,0.1-9.6,0.1c-1,0-2-0.2-3,0
		c-0.3,0.1-0.6-0.1-0.8-0.2c-0.7,0.1-0.8-0.3-0.8-0.9c0-3.3,0-6.7,0-10c0-0.3,0-0.7-0.1-1c0,0-0.1-0.1-0.1-0.1c0,0,0-0.1,0-0.1
		c0.2-0.2,0.5,0.1,0.6,0c-0.2-0.1-0.4-0.2-0.3-0.5c0.2-0.1,0.5-0.1,0.7-0.2c0.5,0,0.9,0,1.4,0c0.4,0,0.7,0,1.1,0c1,0,2,0,3,0
		c0.8,0,1.6,0,2.4,0c4.5,0,9,0,13.5,0c0.4,0,0.8,0.1,1.2-0.2c0.1-0.1,0.2-0.2,0.4-0.3C132.7,62.6,132.8,61.4,132.9,60.3z"/>
	<path fill="#080606" d="M117.6,64.4c-0.8,0-1.6,0-2.4,0c-1-0.1-2.1-0.1-3.1,0c-0.3,0-0.7,0-1,0c-0.5-0.1-1-0.1-1.5,0
		c-0.2,0.1-0.3,0.1-0.5,0c-0.1,0.2-0.2,0.4-0.3,0.5c0,0.1,0,0.1,0,0.2l-0.1,0l-0.1,0c-0.5-0.6-1.1-0.7-1.8-0.5
		c-0.9,0.2-1.8-0.1-2.7-0.1c-1.6,0-3.2,0.2-5,0.2c0.4,0.3,0.8,0.1,1,0.4c-0.5,0-0.9,0.1-1.4,0.1c-0.6-0.1-0.2,0.4-0.4,0.5
		c-0.1,1.9-0.1,3.7-0.1,5.6c0.1,2.7,0.1,5.3,0,8c-0.1,0.1-0.2,0.1-0.3,0c-0.3-0.8-0.1-1.7-0.1-2.6c0-0.6,0-1.2,0-1.7
		c-0.1,0.6,0.2,1.3-0.2,1.9c-0.1,0.1-0.3,0.1-0.4,0c-0.3-0.5-0.2-1.1-0.1-1.6c0.2-0.5,0.2-1.1,0-1.6c-0.1-0.9,0-1.8,0-2.7
		c0-2.3-0.1-4.6,0-6.9c0-0.1,0.1-0.2,0.1-0.3c0.1-0.1,0.3-0.2,0.5-0.2c2.4-0.1,4.8,0,7.2,0c3.9,0,7.8,0,11.7,0c0.3,0,0.7,0,1,0.1
		C117.9,64,117.9,64.2,117.6,64.4z"/>
	<path fill="#F7F7F7" d="M109.6,77.1c4.3,0,8.6-0.1,12.9-0.1c2.2,0,4.4,0,6.6-0.1c-0.4,0.4-0.9,0-1.5,0.4c0.6,0,1,0,1.4,0
		c0.2,0,0.3,0.1,0.2,0.3c0,0.1-0.1,0.2-0.1,0.2c-0.3,0.1-0.1-0.2-0.2-0.2c-0.2-0.1-0.4-0.1-0.6-0.1c-2,0-4.1,0.1-6.1,0.1
		c-2.4,0.1-4.9-0.1-7.4-0.1c-1,0-2,0.2-2.9-0.1c-0.3-0.1-0.6,0-0.9,0.2C110.5,77.7,109.9,77.8,109.6,77.1z"/>
	<path fill="#030303" d="M100,65.1c-0.3,0-0.7,0-1,0c-0.2,0-0.4,0-0.4-0.3c0-0.2,0.1-0.4,0.4-0.4c2.2,0,4.3-0.4,6.5-0.1
		c0.5,0.1,1.1,0.1,1.6,0c0.7-0.1,1.4-0.2,1.5,0.8C105.7,65.1,102.9,65.2,100,65.1z"/>
	<path fill="#070707" d="M136,59.9c-0.6,0.4-1.3,0.3-1.6-0.3c-0.1-0.3-0.3-0.7-0.4-1l0,0c0.1-0.1,0.2-0.2,0.3-0.2
		C134.9,58.9,135.5,59.4,136,59.9z"/>
	<path fill="#F5F5F5" d="M129.6,76.3c0.2-0.2,0.4-0.4,0.5-0.6c0,0,0.1,0.1,0.1,0.1c0.2,0.2,0.7,0,0.6,0.5c0,0.1,0,0.4-0.3,0.4
		C130.2,76.6,129.7,77,129.6,76.3z"/>
	<path fill="#F3F3F3" d="M134.9,70.2c0.3-0.4,0.7-0.8,1-1.2c0.4,0.4,0.6,0.7-0.2,0.9C135.5,70,135.4,70.6,134.9,70.2z"/>
	<path fill="#F5F5F5" d="M143.5,77.4c-0.2,0.3-0.5,0.6-0.9,0.9C142.4,77.4,142.5,77.2,143.5,77.4z"/>
	<path fill="#F3F3F3" d="M134.5,70.7c0.1-0.1,0.1-0.2,0.2-0.3c0,0.3,0.6,0.3,0.3,0.5C134.8,71.2,134.7,70.9,134.5,70.7z"/>
	<path fill="#F6F6F6" d="M103.4,132c-0.2-0.3,0-0.4,0.3-0.4c0.1,0,0.2,0.1,0.2,0.1C103.9,131.9,103.6,132,103.4,132L103.4,132z"/>
	<path fill="#F5F5F5" d="M130.4,75.3c0.1-0.1,0.2-0.2,0.3-0.4c0.1,0.2,0.2,0.4,0,0.5C130.6,75.7,130.6,75.3,130.4,75.3z"/>
	<path fill="#F0F0F0" d="M135.2,58.5c-0.1-0.1-0.2-0.2-0.2-0.3c0-0.2,0.1-0.1,0.2-0.1c0.1,0,0.1,0,0.2,0.1
		C135.3,58.3,135.3,58.4,135.2,58.5z"/>
	<path d="M134.4,58.4c-0.1,0.1-0.2,0.2-0.3,0.2c-0.1-0.2-0.1-0.4,0.2-0.3C134.3,58.3,134.3,58.3,134.4,58.4z"/>
	<path fill="#FAFAFA" d="M117.8,64.1c-5.9,0-11.9,0-17.8,0c-0.8,0-1.6,0-2.4,0c-0.1-0.1-0.2-0.1-0.3,0c0,0.1-0.1,0.1-0.1,0.2
		c-0.2,0.6-0.8,1-1.3,1.4c-0.1,0.1-0.2,0.1-0.3,0.2c-0.3,0.2-0.5,0-0.6-0.3c-0.2-0.1-0.5-0.2-0.4-0.6c0.1-0.1,0.3,0,0.4,0
		c0.2,0,0.5,0.4,0.7,0c0.2-0.5-0.5,0-0.5-0.4c0.7,0,0.9-0.4,0.8-1c-0.1-0.4,0.2-0.7,0.6-0.6c0.8,0.1,1.7-0.4,2.4,0.5
		c0.1,0.1,0.3,0,0.4,0c1.7-0.1,3.5,0,5.2-0.1c1.3-0.1,2.6-0.3,4,0.1c0.2,0.1,0.5,0,0.8,0c7.4,0,14.7,0,22.1,0c0.5,0,1-0.4,1.4,0.2
		c0,0.1,0,0.2,0,0.3c-0.4,0.2-0.8,0.2-1.2,0.2c-0.5,0-1,0-1.4,0c-3.7,0-7.4,0-11.2,0C118.5,64.2,118.1,64.3,117.8,64.1z"/>
	<path fill="#F9F6F9" d="M87.8,74c-0.2-0.6-0.3-1.1,0-1.7c0-0.1,0.1-0.2,0.1-0.2c-0.7-1.2,0.4-0.7,0.8-0.8c0.3,0.1,0.5,0.4,0.9,0.2
		c0.2-0.3,0.6-0.1,0.8-0.2c0,0,0,0.1,0.1,0.1c0,0.3-0.2,0.5-0.3,0.7c-0.5,0.6-1,1.3-1.7,1.8C88.3,74,88.1,74.1,87.8,74
		C87.9,74,87.8,74,87.8,74z"/>
	<path fill="#F7F6F4" d="M95,65.6c0.2,0.1,0.2,0.4,0.5,0.2c0.2,0.3-0.1,0.5-0.2,0.7c-0.8,0.6-1.2,1.6-2.1,2c0,0-0.1,0-0.1-0.1
		c0-0.4,0.1-0.9,0-1.3c-0.1-1,0.1-1.2,1.2-1.4C94.5,65.7,94.8,65.9,95,65.6z"/>
	<path fill="#F5F3F5" d="M85.8,75.7c0-0.3,0-0.7,0.1-1c0.3-0.8,0.9-0.8,1.5-0.5c0.2,0,0.3,0,0.4,0.2c0,0.5-0.5,0.7-0.7,1.1
		c-0.3,0.3-0.6,0.8-1,1c-0.1,0-0.2,0-0.2,0C85.8,76.1,85.8,75.9,85.8,75.7z"/>
	<path fill="#FAF4F9" d="M90.4,71.2c0.1-0.4-0.1-0.8,0.2-1.2c0.7,0.2,0.8-0.6,1.2-0.9c0.2-0.4-0.2-0.4-0.4-0.7c0.6,0.1,1.2,0,1.7,0
		c0,0,0,0,0,0c0.1,0.4-0.1,0.6-0.4,0.8c-0.6,0.5-1.1,1.1-1.6,1.7C91,71.2,90.8,71.4,90.4,71.2L90.4,71.2z"/>
	<path fill="#EEFDE4" d="M91.8,69.2c0,0.4-0.3,0.7-0.6,1c-0.2,0.2-0.4,0.2-0.6-0.1c0.1-0.2,0.5-0.1,0.5-0.5c0.1-0.2,0.2-0.4,0.5-0.3
		C91.7,69.2,91.7,69.2,91.8,69.2z"/>
	<path fill="#F0FAE9" d="M89.5,71.4c0.1,0.2,0.2,0.5-0.2,0.4c-0.2-0.1-0.5-0.2-0.6-0.5C89,71.2,89.3,71.2,89.5,71.4z"/>
	<path fill="#FAF4F9" d="M91.6,69.2c-0.2,0.1-0.2,0.4-0.5,0.3c-0.3-0.3-0.1-0.5,0.1-0.6C91.5,68.8,91.6,68.9,91.6,69.2z"/>
	<path fill="#FAF4F9" d="M90.6,68.6c0.1,0,0.2,0.1,0.2,0.2c0,0.1,0,0.2-0.2,0.2c-0.2,0-0.2-0.1-0.2-0.2
		C90.4,68.7,90.4,68.6,90.6,68.6z"/>
	<path fill="#D8FEE7" d="M87.7,74.3c-0.1,0-0.3,0-0.3-0.2c0.1-0.2,0.3-0.2,0.5-0.2c0,0,0,0,0,0C87.9,74.2,87.9,74.3,87.7,74.3z"/>
	<path fill="#010101" d="M101,156.1c-1,3.2-6.2,3.7-8.4,1.9c-1.3-1.1-0.9-1.9,0.4-2.5c0.9-0.4,1.9-0.2,2.8,0.1
		C97.5,156.2,99.2,156.6,101,156.1z"/>
	<path fill="#030303" d="M95,153.2c0.4-0.2,0.3-0.6,0.3-1c0-1.2,0-2.4,0-3.6c0-0.3,0-0.6,0.2-0.9c0.2-0.3,0.5-0.5,0.9-0.4
		c0.3,0.1,0.5,0.4,0.5,0.7c0,1.6,0,3.1,0,4.7c0,0.2-0.3,0.2-0.3,0.6c0.4,0,0.8,0,1.2,0c0.5,0,0.8-0.3,0.8-0.9c0-0.9,0-1.8,0-2.7
		c0-0.2-0.1-0.5,0.3-0.5c0.3,0,0.2,0.3,0.2,0.5c0,0.8,0,1.5,0,2.3c0,0.3-0.1,0.6,0.1,0.8c0.2,0.4,0.6,0.6,1,0.5
		c0.1-0.1,0.1-0.1,0.2,0c0.1,0,0.1,0,0.2,0c0.3-0.2,0.6-0.1,0.9,0c0.2,0,0.3,0.1,0.3,0.4c-0.2,0.8-0.9,1.2-1.9,1.1
		c-1.1-0.1-2.2-0.5-3.2-0.9c-0.5-0.2-1.1-0.4-1.6-0.4C95.1,153.5,94.9,153.4,95,153.2z"/>
	<path fill="#FCFCFC" d="M100.7,153.4c-0.1,0-0.1,0-0.2,0c-0.1-0.3-0.6-0.2-0.5-0.5c0-0.2,0.3-0.3,0.5-0.3
		C100.8,152.7,100.6,153.1,100.7,153.4z"/>
	<path fill="#6A6A6A" d="M95,153.2c0.1,0.1,0.1,0.2,0.2,0.3c-0.4,0-0.8,0-1.2,0c0,0,0-0.1,0-0.1C94.3,153.4,94.7,153.4,95,153.2z"/>
	<path fill="#FCFCFC" d="M101.7,153.4c-0.3,0-0.6,0-0.9,0C101.1,153.2,101.4,152.9,101.7,153.4z"/>
	<path fill="#030405" d="M97.9,137.3c-0.1,0.1-0.2,0.1-0.3,0.2c0-1,0-2.1,0-3.1c-0.1,0-0.2,0-0.3,0c0,1,0,2,0,3
		c-0.3-0.3-0.2-0.6-0.2-0.9c0-2.5,0-5,0-7.5c0-0.9,0.2-1.7,0-2.6c-0.2-0.2-0.2-0.5-0.2-0.7c0-3.1-0.1-6.2,0-9.3
		c0.1-0.4,0.1-0.8,0.3-1.2c0.1-0.2,0.2-0.3,0.2-0.5c0-2.4,0-4.9,0-7.3c0-0.1-0.1-0.3-0.1-0.4c-0.2-0.9,0.1-1.8-0.2-2.7
		c-0.1-0.7-0.1-1.3,0-2c0.6-0.7,0.7-1.6,0.6-2.5c0-0.3,0-0.6,0.1-0.9c0.1-0.1,0.1-0.1,0.3-0.1c0,3.1,0,6.3,0,9.4c0,3.8,0,7.6,0,11.3
		c-0.2,0.3-0.1,0.7-0.1,1C97.9,126,97.9,131.7,97.9,137.3z"/>
	<path fill="#030405" d="M97.3,77.1c0.1,0,0.2,0,0.3,0c0,0,0.1,0.1,0.1,0.1c0.2,0.7-0.1,1.6,0.2,2.3l0,0c0.3,0.9,0.3,1.8,0.2,2.7
		c-0.4,0.8-0.3,1.6-0.3,2.3c0.2-0.3-0.2-0.7,0.2-1c0.3,0.7,0.1,1.5,0.1,2.2c-0.1,0.1-0.3-0.1-0.2,0.2c0.1,0.5,0.2,1.1,0,1.7
		c-0.1,0.6,0,1.3,0,1.9c0,0.1,0.2,0,0.1,0c0,0,0,0,0,0c0.1-0.6-0.3-1.3,0.2-1.9c0.3,0.5,0.1,1,0.1,1.5c0.1,0.9,0.1,1.8,0,2.6
		c-0.1,0.1-0.1,0.1-0.2,0c-0.2-0.1-0.1-0.3-0.2-0.5c0.1,0.7,0.1,1.4,0.1,2c0,2.4,0,4.8-0.1,7.3c0,0.3,0.1,0.9-0.5,0.8
		c-0.3-0.3-0.2-0.7-0.2-1.1c0-7.4,0-14.8,0-22.1C97,77.8,96.9,77.4,97.3,77.1z"/>
	<path fill="#0A040B" d="M97.9,82.2c0.3-0.5,0.1-1.1,0-1.6c-0.1-0.4,0-0.7,0-1.1c0.3-0.2,0.2-0.5,0.2-0.8c0-2.2,0.1-4.4,0-6.7
		c-0.1-1.3-0.2-2.7-0.1-4c0-0.8,0.1-1.5,0.3-2.2c0,5.9,0,11.9,0,17.8c0,1.8,0.1,3.7-0.1,5.5c-0.1-0.5,0.2-1-0.2-1.5
		c0,0,0-0.1-0.1-0.1c0-0.6-0.1-1.2,0.1-1.8c0.3-0.7,0.3-1.5,0-2.2C97.6,83.1,97.9,82.6,97.9,82.2z"/>
	<path fill="#080606" d="M97.9,91.8c0.1,0,0.1,0,0.2,0c0.1,2.3,0,4.6,0,6.8l-0.1,0h-0.1c-0.3-0.3-0.2-0.6-0.2-0.9c0-1.3,0-2.5,0-3.8
		c0-0.3,0.1-0.6-0.2-0.8c0.1-0.9-0.2-1.8,0.2-2.7C98,90.8,97.7,91.3,97.9,91.8z"/>
	<path fill="#070707" d="M85.1,22.5c0,0.6-0.1,1.2-0.7,1.2c-0.7,0-0.8-0.7-0.8-1.2c0-0.4,0-1.1,0.6-1.1
		C85.1,21.4,84.9,22.1,85.1,22.5z"/>
	<path fill="#101010" d="M101.6,18.8c0.5,0,0.8,0.1,0.8,0.7c0,0.6-0.3,0.7-0.8,0.8c-0.4,0.1-0.7-0.1-0.6-0.6
		C101.1,19.4,100.8,18.8,101.6,18.8z"/>
	<path fill="#080808" d="M120.6,24.8c-0.1-0.5,0-1,0.2-1.5c0.1-0.3,0.3-0.5,0.7-0.4c0.3,0,0.5,0.3,0.6,0.6c0.1,0.6-0.1,1.2-0.5,1.7
		C121.1,25.4,120.7,25.3,120.6,24.8z"/>
	<path fill="#F5F5F5" d="M120.6,24.8c0.2,0.4,0.6,0.5,1,0.4c0.3,0.6-0.4,0.1-0.4,0.4C120.8,25.4,120.4,25.3,120.6,24.8z"/>
	<path fill="#080808" d="M132.7,25.9c0,0.9-0.4,1.5-0.9,1.5c-0.5,0-0.6-0.5-0.6-0.9c0-0.7,0.4-1.5,0.9-1.5
		C132.6,25.1,132.7,25.5,132.7,25.9z"/>
	<path fill="#FD6601" d="M94.6,136c-1.2-0.9-2.2-2.1-3.3-3.1c-0.3-0.2-0.4-0.4-0.6-0.6l0,0c-0.3-0.2-0.5-0.5-0.8-0.7
		c-0.1-0.1-0.2-0.2-0.2-0.3c-0.3-0.4-0.8-0.6-1-1.2c0-0.2-0.2-0.3-0.3-0.4c-0.2-0.2-0.1-0.5,0.1-0.7c0.2-0.2,0.5-0.3,0.8-0.1
		c0.3,0.2,0.5,0.4,0.9,0.7c0-0.8,0.5-0.9,1.1-0.9c1.3,0,2.5,0,3.8,0c0.9,0,1,0.2,1.1,1.1c0,1.3,0,2.5,0.2,3.8
		c0.1,0.6-0.1,1.1-0.9,1.2c0.3,0.5,0.9,0.9,0.5,1.5C95.5,136.4,95,136.2,94.6,136z"/>
	<path fill="#F86507" d="M94.6,136c0.4-0.1,1,0.4,1.1-0.2c0.1-0.4-0.3-0.8-0.7-1c-0.1-0.1-0.3-0.2-0.3-0.4c0,0,0.1-0.1,0.1-0.1
		c1.3-0.1,1.2-0.1,1-1.5c-0.1-1-0.1-2.1-0.1-3.2c0-0.7-0.2-0.9-0.9-0.9c-1.2,0-2.4,0-3.6,0c-0.7,0-1.2,0.1-1,1c0,0.1,0,0.2-0.1,0.5
		c-0.2-0.6-0.6-0.9-0.9-1.2c-0.2-0.2-0.3-0.5-0.6-0.2c-0.3,0.2-0.3,0.5-0.1,0.7c0.1,0.2,0.2,0.3,0.2,0.5c-0.1,0.1-0.2,0.1-0.3-0.1
		c-0.3-0.4-0.6-0.7-0.9-1.1c-0.3-0.8,0.3-0.8,0.8-0.8c1.9,0,3.7,0,5.6,0c0.5,0,1,0.1,1.4-0.1c0.1-0.1,0.1-0.2,0.2-0.4
		c0-0.1,0.1-0.3,0.2-0.3c0.1,0,0.2,0,0.3,0.1c0.5,0.7,0,1.5,0.2,2.2c0.1-0.3-0.1-0.6,0.2-0.9c0.2,0.7,0.1,1.4,0.1,2.1
		c0,0.1,0.2,0,0.1,0c0,0-0.1,0-0.1,0c0.1-1-0.2-2.1,0-3.1c0.1-0.1,0.2-0.1,0.2,0c0,3.3,0,6.6,0,9.9c-0.1,0.1-0.3,0.2-0.5,0.2
		c-0.1,0-0.3-0.1-0.3-0.2l0,0c-0.2-0.2-0.4-0.5-0.7-0.7C95.1,136.6,94.9,136.3,94.6,136z"/>
	<path fill="#05FA07" d="M85.6,126c0-3,0-6,0-9c0-0.3,0-0.6,0-0.9c0,0,0.1,0,0.1-0.1c0.4-0.3,0.7-0.2,1.1,0.1
		c0.3,0.6-0.2,0.7-0.6,0.9c0.1,0.1,0.1,0.1,0.1,0.1c0.4,0.3,1.1-0.1,1.4,0.4c0.2,0.4-0.1,0.9-0.1,1.4c0,1.7-0.5,3.4-0.4,5
		c0-0.1-0.1-0.4,0.2-0.6c0.3-0.2,0.4,0.2,0.6,0.3c0.2,0.2,0.3,0,0.4-0.1c0.2-0.2,0.4-0.4,0.7-0.3c0.4,0.3,0.1,0.5-0.1,0.7
		c-0.3,0.4-0.8,0.8-1.2,1.2c-0.1,0.2-0.2,0.3-0.4,0.4c-0.3,0.1-0.5,0.3-0.6,0.5c0,0.1-0.1,0.1-0.1,0.2c-0.3,0.2-0.5,0.7-1,0.3
		C85.6,126.3,85.6,126.1,85.6,126z"/>
	<path fill="#F86800" d="M95.9,128.1c-0.1,0.5-0.5,0.3-0.8,0.3c-2.2,0-4.4,0-6.6,0c-0.4,0-0.8-0.1-0.8,0.6c-0.1-0.1-0.2-0.1-0.3-0.2
		c-0.1-0.1-0.1-0.2-0.1-0.3c0-0.4,0.3-0.6,0.7-0.6c2.5,0,5,0,7.5,0C95.5,127.8,95.7,127.9,95.9,128.1z"/>
	<path fill="#E47003" d="M96.1,127.4c-0.1,0-0.1,0-0.2,0c-0.3,0.3-0.7,0.2-1.1,0.2c-2.3,0-4.5,0-6.8,0c-0.5,0-1-0.1-1.4,0.1
		c-0.1,0-0.2,0.1-0.2,0.1c-0.1-0.1-0.1-0.1-0.2-0.2c-0.1-0.2-0.1-0.3,0-0.4c0.4-0.2,0.8-0.2,1.2-0.2c2.7,0,5.4,0,8,0
		c0.4,0,0.7,0,1.1-0.1c0.2,0,0.3,0,0.5,0.2c0,0.2,0,0.4,0,0.7c-0.1,0-0.1,0-0.2,0C96.5,127.7,96.2,127.6,96.1,127.4z"/>
	<path fill="#78F409" d="M85.6,127c0-0.1,0-0.1-0.1-0.2c0-0.1,0-0.1,0-0.2c0.5,0,0.9-0.1,1-0.6l0,0c0.2-0.1,0.3-0.2,0.5-0.1
		c0.4,0.2,0.4,0.6,0.4,1c0,0.1-0.1,0.2-0.1,0.2c-0.4,0-0.8,0-1.3,0C86,127.2,85.8,127.2,85.6,127z"/>
	<path d="M85.3,120.5c0-1.4,0-2.7-0.1-4.1c0-0.3,0-0.5,0.2-0.7c0,0.1,0,0.2,0,0.3c0,1.2,0,2.4,0,3.7C85.4,120,85.5,120.3,85.3,120.5
		z"/>
	<path d="M85.1,120.5c0.1,0,0.1,0,0.2,0c0,0.8,0,1.7,0,2.5c-0.1,0-0.1,0-0.2,0C85.1,122.2,85.1,121.4,85.1,120.5z"/>
	<path fill="#1C0703" d="M96.1,137.6c0.1,0,0.2,0,0.3,0.1c0.3,0.1,0.4,0.4,0.5,0.6c0,0,0.1,0.1,0.1,0.1c-0.1,0.3-0.2,0.3-0.4,0.1
		c-0.2-0.2-0.3-0.5-0.6-0.5C95.7,137.7,96.1,137.8,96.1,137.6z"/>
	<path fill="#1C0905" d="M88.5,130.1c0.1,0,0.2,0.1,0.3,0.1c0.3,0.3,0.5,0.7,0.8,1C89.1,131,88.7,130.6,88.5,130.1z"/>
	<path fill="#401103" d="M87.3,128.6c0,0,0,0.1,0,0.1c-0.5-0.2-0.8-0.5-1-1c0,0,0-0.1,0-0.1C86.9,127.7,87.1,128.2,87.3,128.6z"/>
	<path d="M94.9,137.4c0.2,0.2,0.4,0.2,0.4,0.5c0,0-0.1,0.1-0.2,0.1C94.8,137.9,94.8,137.7,94.9,137.4z"/>
	<path fill="#1C0905" d="M89.9,131.5c0.4,0.1,0.6,0.4,0.8,0.7C90.3,132.1,90.1,131.8,89.9,131.5z"/>
	<path fill="#20E83F" d="M85.7,126.7c0,0.1-0.1,0.1-0.1,0.2c-0.1-0.3-0.2-0.6,0-0.9c0.2,0.1,0.2,0.2,0.2,0.4
		C85.7,126.5,85.7,126.6,85.7,126.7z"/>
	<path fill="#1C0703" d="M95.4,136.9c0.4,0.1,0.6,0.3,0.7,0.7C95.7,137.5,95.5,137.3,95.4,136.9z"/>
	<path fill="#1C0905" d="M90.7,132.2c0.3,0.1,0.5,0.3,0.6,0.6C91,132.8,90.8,132.5,90.7,132.2z"/>
	<path fill="#B08843" d="M85.6,127c0.2,0,0.3,0,0.5,0c0.1,0,0.1,0.1,0.1,0.1c0,0,0,0.1,0,0.1c0,0.1,0,0.2,0,0.4
		C86,127.4,85.8,127.2,85.6,127z"/>
	<path fill="#050505" d="M68.2,25.6c0,0.5-0.1,0.8-0.6,0.9c-0.4,0.1-0.7-0.3-0.8-0.7c-0.2-0.6-0.4-1.2,0.1-1.7
		c0.2-0.2,0.4-0.3,0.6-0.1C68,24.4,68.1,25.1,68.2,25.6z"/>
	<path fill="#070707" d="M78.4,23.7c0,0.4,0,0.9-0.6,1c-0.6,0.1-0.7-0.4-0.8-0.8c-0.2-0.6-0.3-1.1,0.2-1.6c0.2-0.2,0.3-0.2,0.5-0.1
		C78.1,22.3,78.4,23,78.4,23.7z"/>
	<path fill="#0F0F0F" d="M148.1,31.2c0.2,0.1,0.5,0.1,0.7,0.2c0.3,0.6,0.2,1-0.4,1.3c-0.3,0.1-0.6,0-0.7-0.4
		C147.5,31.8,147.5,31.3,148.1,31.2z"/>
	<path fill="#0F0F0F" d="M47.6,30.7c-0.5,0-0.5-0.3-0.5-0.6c0-0.4,0.1-0.7,0.5-0.7c0.4,0,0.7,0.4,0.7,0.7
		C48.4,30.7,47.7,30.4,47.6,30.7z"/>
	<path fill="#101010" d="M107.9,22.1c-0.2-0.1-0.7,0.2-0.6-0.3c0-0.3,0.1-0.8,0.6-0.9c0.5,0,0.5,0.4,0.6,0.8
		C108.5,22.1,108.3,22.1,107.9,22.1z"/>
	<path fill="#1761F4" d="M85.6,112.7c0-3.3,0-6.6,0-9.9c0.2-0.1,0.5,0,0.8-0.1c0.2,0,0.5,0,0.7,0.1c0.2,0,0.3,0.1,0.3,0.3
		c0.1,0.4,0.1,0.8,0.1,1.2c0,2.4,0,4.7,0,7.1c0,0.3,0,0.6-0.1,0.9c-0.1,0.2-0.2,0.5-0.5,0.5c-0.2-0.4-0.2-0.9-0.2-1.3
		c0-1.3-0.4-2.6-0.4-3.9c-0.2,1.5-0.3,3.1,0.1,4.6c0.4,0.2,0.6,0.4,0.3,0.8c-0.1,0.1,0,0-0.1,0.1c-0.3,0.4-0.4,0.8,0.3,0.9
		c0,0.5-0.4,0.7-0.8,0.7c-0.4-0.1-0.4-0.5-0.4-0.8C85.7,113.3,85.8,113,85.6,112.7z"/>
	<path fill="#630CF5" d="M85.8,89.4c0-4.1-0.1-8.2,0-12.3c0.1-0.1,0.2-0.1,0.4-0.1c0.4,0.1,0.7,0,1-0.1c1.1-0.1,2.1,0,3.2,0
		c0.5,0,0.9,0,1.4,0c1.3,0,2.7,0,4,0c0.4,0,0.8-0.1,1.2,0.1c0.2,0.2,0.1,0.5,0.1,0.7c-0.1,0.3-0.4,0.5-0.7,0.6c-0.2,0-0.3,0-0.5,0
		c-0.4,0-0.7-0.1-1,0.2c-0.1,0-0.2,0-0.2,0c-0.5-0.3-1.1-0.1-1.6-0.5c0-0.4,0.3-0.4,0.6-0.4c0.4,0,0.7,0,1.1,0
		c-2.2,0.1-4.3,0.1-6.5,0.1c-0.4,0-0.6,0.2-0.6,0.5c-0.1,0-0.1,0.1-0.2,0.1c-1.1,0.2-1.2,0.2-1.2,1.5c0,2.8,0,5.5,0,8.3
		c0,0.4,0.1,0.9-0.2,1.3C86,89.4,85.9,89.4,85.8,89.4z"/>
	<path fill="#1A71F8" d="M86.3,102.9c-0.2,0-0.5,0-0.7-0.2c0-0.5,0-0.9,0-1.4c0.1-0.3,0.1-0.6,0.1-0.9c-0.1-3,0.1-5.9,0.1-8.9
		c0-0.3,0-0.5,0.1-0.8c0.4-0.2,0.5,0.1,0.6,0.3c0.1,2.5,0,5,0.1,7.5c0,1,0,2.1,0,3.1C86.6,102.2,86.6,102.6,86.3,102.9z"/>
	<path fill="#1B6ADA" d="M86,90.7c-0.1,3.3-0.1,6.6-0.2,10c0,0.2,0,0.5-0.1,0.6c0-3.5,0-7.1,0-10.6c0-0.1,0.1-0.2,0.1-0.3
		c0.1-0.1,0.2-0.1,0.2,0C86.1,90.5,86.1,90.6,86,90.7z"/>
	<path fill="#1F24F0" d="M85.9,90.4c-0.1,0-0.1,0-0.2,0c0-0.3,0-0.7,0-1c0.1,0,0.1,0,0.2,0c0,0,0.1,0,0.1,0c1.8,0.2,3.6,0.1,5.4,0.1
		c0.5,0,1-0.1,1.4,0.1c0.1,0,0.2,0.1,0.2,0.2c0.1,0.2,0,0.3-0.1,0.4c-0.4,0.2-0.8,0.2-1.2,0.2c-1.6,0-3.1,0-4.7,0
		c-0.3,0-0.6,0-0.9,0.1C86.2,90.5,86.1,90.5,85.9,90.4z"/>
	<path fill="#3DC7ED" d="M86.6,116.1c-0.3,0-0.7,0-1,0c0-0.2,0-0.4,0-0.6c0.1-0.1,0.1-0.1,0.2-0.1c0.4-0.1,0.7-0.2,0.9-0.6
		c0.1-0.2,0.2-0.5,0.6-0.4c0.2,0.1,0.2,0.5,0.5,0.5c0.2,0,0.4-0.1,0.6-0.3c0.2-0.2,0.3-0.4,0.6-0.3c0.3,0.4,0.6,0.6,1.1,0.5
		c0.2,0,0.4,0.1,0.5,0.2c0,0.1,0,0.3-0.1,0.4c-0.6,0.3-1.3,0.1-1.9,0.2c-0.4,0-0.9-0.1-1.3,0.1C87,115.9,86.8,116,86.6,116.1z"/>
	<path fill="#1567E9" d="M85.8,115.4L85.8,115.4c-0.1,0-0.2,0-0.2,0c0-0.9,0-1.8,0-2.7c0.2,0.2,0.1,0.5,0.1,0.8c0,0.3,0,0.7,0.3,0.8
		c0.3,0.1,0.6-0.2,0.7-0.6c-0.1-0.4-0.1-0.7,0.2-1c0.1-0.1,0.2-0.2,0.3-0.3c0.1,0.1,0.3,0.3,0.5,0.1c0.2-0.2,0.4-0.3,0.7-0.1
		c0.2,0.6-0.5,0.9-0.7,1.3C87.1,114.1,86.6,114.9,85.8,115.4z"/>
	<path fill="#D51AFE" d="M86.1,77.1c-0.1,0-0.2,0-0.3,0c0-0.2,0-0.5,0-0.7c0,0,0.1,0,0.1,0c0.4,0.1,0.7,0.2,0.5,0.7
		C86.4,77.1,86.2,77.1,86.1,77.1z"/>
	<path d="M85.4,80.8c-0.2-0.5-0.1-0.8,0-1.1C85.4,80,85.4,80.3,85.4,80.8z"/>
	<path d="M91.3,17.1c0,0.2-0.1,0.4-0.3,0.2c-0.1-0.1-0.2-0.2-0.1-0.4C91.1,16.8,91.1,17.1,91.3,17.1C91.3,17.1,91.3,17.1,91.3,17.1z
		"/>
	<path fill="#70FB04" d="M96.9,127.1c-0.1,0-0.2,0-0.4,0c-0.2,0.1-0.4,0.1-0.6,0c-1.4-0.2-2.9-0.2-4.3-0.3c-0.4,0-0.9,0.1-1.3-0.2
		c-0.1-0.1-0.1-0.2,0-0.3c0.2-0.4,0.6-0.3,1-0.3c1.5,0,3.1-0.1,4.6,0.1c0.5,0.1,0.5-0.2,0.5-0.6c0-2.6,0.1-5.2-0.1-7.8
		c0-0.2,0-0.5,0.1-0.7c0.1-0.2,0.2-0.2,0.4-0.2c0.1,0.1,0.1,0.3,0.1,0.5c0,2.9,0,5.9,0,8.8c0,0.1,0,0.2-0.1,0.3
		C96.9,126.6,96.9,126.8,96.9,127.1z"/>
	<path fill="#5CE407" d="M96.9,126.4c0-2.9,0-5.8,0-8.7c0-0.3,0.1-0.7-0.2-1c-0.2-0.2-0.1-0.4,0.1-0.6c0.1-0.1,0.1-0.1,0.2-0.1
		c0,0,0.1,0,0.1,0.1c0,3.4,0,6.8,0,10.2C97,126.3,97,126.4,96.9,126.4z"/>
	<path fill="#BB602C" d="M96.9,138.3c-0.2-0.2-0.4-0.3-0.5-0.6c0.2,0,0.4,0,0.6,0C96.9,137.9,96.9,138.1,96.9,138.3z"/>
	<path fill="#030303" d="M131.5,64.1c0.4,0,0.8,0,1.2,0c-0.3,0.4-0.7,0.4-1.2,0.4c-4.6,0-9.3,0-13.9,0c0.1-0.1,0.1-0.2,0.2-0.3
		c4.1,0,8.2,0,12.3,0C130.6,64.2,131,64.2,131.5,64.1z"/>
	<path fill="#030303" d="M112.1,64.4c1-0.3,2.1-0.3,3.1,0C114.2,64.4,113.2,64.4,112.1,64.4z"/>
	<path fill="#030303" d="M108.7,64.9c0-0.2,0.1-0.4,0.3-0.5c0,0.3,0.4,0.3,0.4,0.6C109.2,65.2,109,64.9,108.7,64.9z"/>
	<path fill="#030303" d="M109.6,64.4c0.5-0.3,1-0.3,1.5,0C110.6,64.4,110.1,64.4,109.6,64.4z"/>
	<path fill="#F506F4" d="M91.8,77c-0.5,0-0.9,0-1.4,0c-1-0.2-2,0-3.1-0.1c0.1-0.4,0.5-0.4,0.8-0.4c2.1-0.1,4.2,0,6.3,0
		c1.2,0,1.2,0,1.2-1.3c0-1.9,0-3.8,0-5.6c0-0.4-0.1-1,0.5-1.1c0.4,0.3,0.3,0.7,0.3,1.1c0.2,2.1,0.2,4.2-0.1,6.3
		c0.4-3,0.2-6.1,0.2-9.1c-0.1,0.6,0.2,1.3-0.3,1.8c-0.5-0.2-0.3-0.7-0.3-1.1c-0.1-0.6,0.1-1.2-0.2-1.7c0,0,0-0.1,0-0.1
		c0.5-0.4,1-0.9,1.4-1.3c0.1,2,0,3.9,0,5.9c0,0.3,0,0.7,0,1c-0.1,1-0.1,1.9,0,2.9c0.1,1,0,2-0.1,3c-0.4,0-0.8,0-1.2,0
		C94.5,76.9,93.1,76.9,91.8,77z"/>
	<path fill="#00131E" d="M97.1,77.1c0.2-1.6,0-3.3,0.1-4.9c0-0.3-0.1-0.6,0.1-0.9c0,0.9,0,1.9,0,2.8c0.1,0.4,0.1,0.9,0,1.3
		c0,0.6,0,1.2,0,1.7c0,6.1,0,12.3,0,18.4c0,2,0,3.9,0,5.9c0.2,0.2,0.1,0.5,0,0.7c0,0.7,0,1.4,0,2.1c0.2,0.9,0,1.9,0.1,2.8
		c0.1,2.6,0,5.2,0,7.8c0,0.1-0.1,0.3-0.2,0.4c-0.1,0.3,0.1,0.7-0.2,1c0,0-0.1,0-0.1,0c-0.2-0.4-0.2-0.8-0.2-1.2c0-3.8,0-7.6,0-11.3
		c0-0.2,0-0.4,0-0.7c0-0.3,0-0.5,0-0.8c0-6.6,0-13.2,0-19.9c0-1.2,0-2.3,0-3.5c0-0.3,0-0.7,0.3-1C97.1,77.5,97.1,77.3,97.1,77.1z"/>
	<path fill="#0A040B" d="M97.6,77.1c0-1,0-2,0-3c0.1,0,0.2,0,0.3,0c0,0.9,0,1.8,0,2.6C97.8,76.8,97.9,77.2,97.6,77.1L97.6,77.1z"/>
	<path fill="#040114" d="M97.6,77.1c0.1-0.1,0.2-0.2,0.3-0.3c0,0.9,0,1.8,0,2.7c-0.4-0.1-0.3-0.4-0.3-0.6
		C97.6,78.2,97.6,77.6,97.6,77.1z"/>
	<path fill="#000C01" d="M98.2,64.4c0,0.2-0.1,0.3-0.2,0.3c-0.2,0-0.4,0-0.4-0.2c0-0.1,0.1-0.2,0.2-0.2C98,64.2,98.2,64.2,98.2,64.4
		z"/>
	<path fill="#F8FEDB" d="M97.3,64.1c0-0.2-0.1-0.4,0.1-0.6c0.3,0.1,0.2,0.4,0.2,0.6C97.5,64,97.4,64,97.3,64.1z"/>
	<path fill="#0A040B" d="M97.3,75.3c0-0.4,0-0.9,0-1.3C97.5,74.4,97.5,74.9,97.3,75.3z"/>
	<path fill="#DE2ADE" d="M95.1,66.4c0-0.3,0.4-0.4,0.4-0.7c0.1-0.1,0.1-0.1,0.2-0.2c0,0,0.1,0,0.1,0C95.9,66.5,95.9,66.5,95.1,66.4z
		"/>
	<path d="M131.5,64.1c-0.5,0.2-0.9,0.2-1.4,0C130.6,64.1,131,64.1,131.5,64.1z"/>
	<path fill="#F804FA" d="M88,76.7c-0.2,0-0.3,0-0.5,0c0.9,0.3,1.9-0.1,2.9,0.3c-1.1,0-2.3,0-3.4,0.1c-0.2,0.1-0.3,0.1-0.5,0
		c0-0.4-0.4-0.4-0.5-0.7c0.3-0.4,0.6-0.7,1-1.1c0.5-0.5,1.2-0.8,1.4-1.6c0.6-0.6,1.2-1.2,1.7-1.8c0,0,0.1,0,0.1,0.1
		c0.1,0.4,0.1,0.8,0.3,1.2c0.2,0.3,0.1,0.7,0,1c0,0.1-0.1,0.3-0.1,0.4C90.3,76.1,89.1,76.3,88,76.7z"/>
	<path fill="#EF0FEF" d="M90.4,71.3c0.3,0,0.4-0.3,0.6-0.4c0.5,0.4,0.5,0.8,0.1,1.3c-0.4,0.5-0.8,0.2-1.1-0.2c0,0,0,0,0,0
		C90.2,71.7,90.3,71.5,90.4,71.3z"/>
	<path fill="#E135E0" d="M88.3,73.8c0.1,1-0.8,1.2-1.4,1.6c0.2-0.3,0.5-0.7,0.7-1c0.1-0.1,0.1-0.2,0.2-0.3
		C88,74,88.2,73.9,88.3,73.8z"/>
	<path fill="#EAFEE9" d="M88,73.3c0.2-0.4,0.3-0.6,0.6-0.7C88.6,73,88.6,73,88,73.3z"/>
	<path fill="#FD00FD" d="M90.1,72c0.3,0,0.5,0.5,1,0.1c0.5-0.4,0.1-0.8,0-1.2c0.6-0.9,1.5-1.5,2.1-2.4c0.7-0.7,1.3-1.4,2-2.1
		c0.7,0.1,0.5-0.5,0.6-0.8c0.4,0.1,0.5,0.4,0.5,0.8c0,0.7,0,1.4,0,2.1l0,0c-0.5,0.1-0.3,0.5-0.3,0.8c0,2.2,0,4.3,0,6.5
		c0,0.7-0.2,0.9-0.9,0.9c-2.3,0-4.7,0-7,0c0.2-0.4,0.6-0.7,1.1-0.7c0.6,0,0.9-0.1,0.8-0.8c0-0.2,0.1-0.4,0.2-0.6
		c0.3-0.6,0.8-1.2-0.2-1.7C89.4,72.6,90.3,72.3,90.1,72z"/>
	<path fill="#07000A" d="M97.3,125.9c0-3.1,0-6.2,0-9.3c0.1,0,0.1,0,0.2,0c0,3.1,0,6.2,0,9.3C97.4,125.9,97.4,125.9,97.3,125.9z"/>
	<path fill="#08010D" d="M97.3,102c0-0.2,0-0.5,0-0.7c0.5-0.1,0.3-0.5,0.3-0.8c0-2.5,0-4.9,0-7.4c0.4-0.4,0.3-0.1,0.3,0.2
		c0,1.8,0,3.5,0,5.3c0,0.6,0,1.2,0,1.8C98,101.1,97.8,101.6,97.3,102z"/>
	<path fill="#0A0000" d="M97.3,115.1c0-2.7,0-5.5,0-8.2c0.1-0.1,0.1-0.1,0.2,0c0.2,0.1,0.2,0.3,0.2,0.5c0,2.5,0,5,0,7.5
		C97.6,115.1,97.7,115.4,97.3,115.1z"/>
	<path fill="#020212" d="M97.4,106.8c-0.1,0-0.1,0-0.2,0c0-0.9,0-1.8,0-2.7C97.6,105,97.3,105.9,97.4,106.8z"/>
	<path fill="#080606" d="M97.9,82.2c0,0.5,0,0.9,0,1.4c0,0.4,0,0.8,0,1.2C97.9,83.9,97.3,83,97.9,82.2z"/>
	<path fill="#0A040B" d="M97.9,87.7c0,0.7,0,1.5,0,2.2c-0.1,0-0.1,0-0.2,0c0-0.7,0-1.5,0-2.2C97.8,87.6,97.9,87.6,97.9,87.7
		L97.9,87.7z"/>
	<path fill="#080606" d="M97.9,87.7L97.9,87.7c-0.1,0-0.2,0-0.2,0c0-0.7,0-1.3,0-2c0,0,0,0,0-0.1c0,0.1,0.1,0.1,0.1,0.2
		C97.9,86.4,97.9,87,97.9,87.7z"/>
	<path fill="#0A040B" d="M97.9,91.8c-0.3-0.4-0.1-0.9-0.2-1.4C98.1,90.8,97.9,91.3,97.9,91.8z"/>
	<path fill="#F6650B" d="M87.3,128.6c-0.3-0.3-0.7-0.6-1-0.9c0.3-0.6,0.9-0.2,1.4-0.3c0.3,0.2,0.7,0.2,1,0.2c2.1,0,4.2,0,6.2,0
		c0.3,0,0.7-0.1,1,0.2c0,0.1,0,0.2,0,0.3c-2.6,0-5.2,0-7.8,0C87.7,128.1,87.3,128,87.3,128.6z"/>
	<path fill="#F96501" d="M95.9,127.7c-2.5,0-4.9,0-7.4,0c-0.3,0-0.7,0.2-0.8-0.3c2.7,0,5.5,0,8.2,0
		C95.9,127.5,95.9,127.6,95.9,127.7z"/>
	<path fill="#F96501" d="M96.1,127.4c0.3,0,0.6-0.1,0.7,0.3c0,1.2,0,2.4,0,3.6c-0.1,0-0.1,0-0.2,0c0-0.8,0-1.6,0-2.4
		c-0.1,0-0.1,0-0.2,0c0,0.3,0,0.6,0,1C96.2,129.1,96.3,128.2,96.1,127.4z"/>
	<path fill="#6DFE00" d="M96.6,116.9c0.3,1.6,0.1,3.1,0.2,4.7c0,1.3,0,2.6,0,3.9c0,0.7-0.2,0.8-0.8,0.7c-1.8-0.2-3.7-0.3-5.5,0.1
		c-0.4,0.3-0.9,0.2-1.3,0.2c-0.4,0-0.8-0.1-1.2,0.1c-0.1,0.1-0.2,0.1-0.4,0.1c-0.3-0.2,0-0.7-0.3-0.9c-0.2-0.3,0-0.5,0.2-0.7
		c0.1-0.1,0.2-0.2,0.3-0.3c0.6-0.5,1.3-1,1.7-1.7c0.2-0.3,0.4-0.5,0.7-0.7c0.1-0.1,0.2-0.2,0.3-0.3c0-0.1,0.1-0.1,0.2-0.1
		c0.2-0.1,0.3-0.2,0.4-0.3c0.1-0.2,0.2-0.3,0.4-0.4c0.3-0.2,0.6-0.4,0.8-0.7c0.5-0.5,0.9-1.3,1.8-1.3c0.2,0.4,0.6,0.5,0.9,0.7
		c0,0.1,0.2,0,0.1,0c0,0,0,0-0.1-0.1c-0.2-0.3-0.2-0.6,0.1-0.8c0.4-0.4,0.3-0.7-0.1-1c0.1-0.4,0.2-0.9,0.9-0.6
		c0.3,0.3,0.4,0.7,0.4,1.2c0,1.9,0,3.9,0,5.3c0-1.9,0.1-4.3-0.1-6.7c0-0.1,0-0.3,0-0.4C96.1,116.9,96.3,116.9,96.6,116.9z"/>
	<path fill="#01FE02" d="M96.6,116.9c-0.2,0.1-0.3,0.1-0.5,0.2c-0.5,0.2-1,0.4-1.2,1c-0.2,0.4-0.7,0.7-1.1,1.1
		c-0.6,0.5-1.3,1-1.7,1.7c-0.2,0.3-0.5,0.4-0.8,0.7c-0.1,0.1-0.2,0.2-0.3,0.3c-0.1,0.2-0.4,0.2-0.5,0.4l0,0
		c-0.2,0.1-0.3,0.2-0.5,0.4c-0.2,0.2-0.4,0.4-0.5,0.7c-0.1,0-0.1,0-0.2,0c-0.7,0-0.8,0.7-1.4,0.9c-0.4-0.2,0-0.6-0.4-0.8
		c-0.4,0.4,0,1.1-0.4,1.7c-0.2-0.7-0.1-1.3-0.1-1.9c-0.1-1.8,0.3-3.6,0.5-5.4c0-0.3-0.1-0.3-0.3-0.3c-0.3,0-0.6,0-0.9,0
		c-0.3,0-0.6-0.1-0.5-0.5c0-0.2,0-0.6,0.5-0.4c0.5,0.2,0.2-0.3,0.3-0.5c0-0.2,0.2-0.2,0.3-0.3c0,0,0.1,0,0.1,0.1
		c0.1,0.1,0.1,0.2,0.1,0.3c0-0.1,0.1,0,0,0.1s0,0.1,0,0c0.1-0.2,0.1-0.3,0.3-0.4c2.9,0,5.7,0,8.5,0c0.2,0,0.5,0,0.7,0.1
		c0.1,0,0.2,0.1,0.3,0.2c-0.1,0.2-0.2,0.4-0.2,0.7C96.7,116.8,96.6,116.9,96.6,116.9z"/>
	<path fill="#00FE00" d="M86.4,124c-0.2-0.3-0.6-0.4-0.2-1.1c0.3-0.6,0.3-1.6-0.1-2.5c-0.3-0.8-0.1-1.6-0.1-2.4
		c0-0.2,0.1-0.2,0.3-0.2c0.2,0,0.3,0.1,0.3,0.3c0,0.4,0,0.8,0,1.2c0,1.3,0,2.6,0,3.8C86.6,123.4,86.7,123.7,86.4,124z"/>
	<path fill="#54FD07" d="M89.2,123.3c0.1,0,0.1,0,0.2,0c0.1-0.1,0.1-0.1,0.2,0c-0.4,0.8-1,1.4-1.9,1.7C88,124.3,88.8,124,89.2,123.3
		z"/>
	<path fill="#4DFE02" d="M85.7,126.7c0-0.1,0-0.2,0.1-0.3c0.4,0.2,0.5-0.4,0.9-0.4C86.7,126.8,86.2,126.8,85.7,126.7z"/>
	<path fill="#4AFA04" d="M87.3,125.3c-0.1,0.2-0.1,0.5-0.2,0.7c-0.2,0-0.3,0-0.5,0C86.7,125.6,86.8,125.3,87.3,125.3z"/>
	<path fill="#FC8D1F" d="M96,127c0.2,0,0.3,0,0.5,0.1c-0.3,0.2-0.6,0.1-0.9,0.1c-3.2,0-6.3,0-9.5,0c0,0,0-0.1,0-0.1
		c0.5,0,0.9,0,1.4-0.1c0.1-0.1,0.3-0.2,0.5-0.2c2.6-0.1,5.3,0,7.9,0.1C96,126.9,96,127,96,127z"/>
	<path fill="#63FA03" d="M96,127c-2.9,0-5.7,0-8.6,0c0-0.1,0-0.1,0-0.2c0.1-0.1,0.1-0.1,0.2-0.2c0.9-0.4,1.8-0.1,2.7-0.2
		c1.8-0.1,3.6,0.3,5.3,0.1C96.1,126.6,96,126.8,96,127z"/>
	<path fill="#2070FA" d="M97,102.2c0,0.2,0,0.5,0,0.7c-0.2,0.6-0.7,0.2-1,0.2c-2.7,0-5.5,0.1-8.2,0c-0.2,0-0.3-0.1-0.4-0.2
		c-0.1,0-0.2,0-0.3,0c-0.4-0.5-0.2-1-0.2-1.6c0-1.5,0-2.9,0-4.4c0-0.4,0-0.7-0.2-1.1c-0.1-1.4,0-2.8,0-4.2c0.1-0.3,0.2-0.3,0.5-0.2
		c0.3,0.2,0.5,0.4,0.7,0.7c0.1,0.3,0.2,0.7,0.5,0.8c0.1,0,0.1,0.1,0.2,0.2c0.5,0.8,1,1.5,1.9,1.9c0.1,0.1,0.2,0.1,0.3,0.2
		c0.1,0.2,0.3,0.4,0.5,0.5c0.8,0.5,1.2,1.3,1.9,1.9c0.3,0.3,0.6,0.6,0.9,0.9c0.7,0.8,1.5,1.5,2.2,2.2c0.1,0.2,0.3,0.3,0.3,0.5
		c0,0.1,0,0.1-0.1,0.2c-0.1,0.1-0.1,0.3-0.1,0.4c0-0.1,0-0.3,0.1-0.4C96.8,101.2,96.8,101.8,97,102.2z"/>
	<path fill="#195FFA" d="M87.3,102.9c0.1,0,0.2,0,0.3,0c0.2,0.3,0.5,0.3,0.9,0.3c2.2,0,4.4,0,6.6,0c0.2,0,0.5,0,0.7-0.1
		c0.6-0.2,0.6,0.1,0.5,0.5c0,0.3-0.1,0.5-0.2,0.8c-0.1,0.6-0.5,0.9-0.9,1.3c-0.7,0.6-1.3,1.4-2,1.9c-1.1,0.5-1.7,1.4-2.4,2.3
		c0,0.1-0.1,0.1-0.1,0.2c-0.7,0.7-1.6,1.3-2.1,2.2c0,0-0.1,0.1-0.1,0.1c-0.3,0-0.5,0.1-0.6,0.3c-0.1,0.1-0.2,0.4-0.4,0.2
		c-0.1-0.1-0.1-0.4-0.1-0.5C87.3,109.2,87.3,106,87.3,102.9z"/>
	<path fill="#2B68FD" d="M87,101.4c0,0.5,0,1,0,1.5c-0.2,0-0.5,0-0.7,0c0-3.9,0-7.9,0-11.8c0.3,0,0.4,0.1,0.3,0.4c0,1.5,0,3,0,4.4
		c0.2,0.3,0.2,0.6,0.2,0.9c0,1.2,0,2.5,0,3.7C86.8,100.8,86.7,101.1,87,101.4z"/>
	<path fill="#1D5BFB" d="M87,112.7c-0.1,0.3,0.1,0.7-0.2,1c-0.2-0.1-0.5,0.2-0.7-0.1c-0.1-0.3,0-0.6,0.3-0.8
		c0.2-0.2,0.6-0.5-0.1-0.5c-0.2-0.2-0.2-0.5-0.2-0.8c0-1.3,0-2.6,0-3.8c0-0.3,0-0.6,0.2-0.8c0.2,0,0.4,0.2,0.3,0.4
		C86.5,109.1,87.2,110.8,87,112.7z"/>
	<path fill="#0F64F6" d="M86.3,106.8c0,1.8,0,3.7,0,5.5c-0.3,0-0.3-0.2-0.3-0.5c0-1.5,0-3,0-4.5C85.9,107.1,86,106.9,86.3,106.8z"/>
	<path fill="#5E0FFD" d="M86,89.4c0-3.8,0-7.7,0-11.6c0.6,0.4,1.2,0.3,1.7,0.3c0,0,0.1,0,0.1,0c1.7,0.1,3.5,0.1,5.2,0
		c0,0,0.1,0,0.1,0c0.6,0,1.2-0.1,1.7,0.3c0.1,0,0.3,0.1,0.4,0.1c0.2,0.1,0.5,0.1,0.5,0.4c0,0.3-0.2,0.3-0.4,0.4
		c-0.2,0.1-0.2,0.3-0.2,0.4c-0.2,0.4-0.5,0.8-0.8,1.1c-0.1,0.1-0.1,0.1-0.2,0.1c-0.4,0.2-0.7,0.6-0.8,1c-0.1,0.2-0.2,0.3-0.4,0.4
		c-0.3,0.1-0.5,0.3-0.7,0.5c0,0.1-0.1,0.1-0.2,0.2c-0.3,0.3-0.5,0.6-0.9,0.9c-0.1,0.1-0.1,0.1-0.2,0.1c-0.2,0.2-0.4,0.4-0.5,0.7
		c-0.4,0.6-1,1.1-1.5,1.6c-0.2,0.2-0.3,0.3-0.6,0.4c-0.6-0.1-0.8,0.2-0.7,0.7c0,0.1,0,0.2-0.1,0.2c-0.1,0.2-0.2,0.3-0.4,0.5
		c-0.3,0.3-0.6,0.5-0.8,0.9C86.5,89.3,86.3,89.6,86,89.4L86,89.4z"/>
	<path fill="#231DFC" d="M92.8,82.2c0.2,0,0.3-0.1,0.3-0.3c0.5-0.2,0.6-0.8,1-1l0,0c0.5-0.4,0.9-0.9,1.3-1.4
		c0.4-0.4,0.5-0.9,0.9-1.3c0.2-0.1,0.4-0.2,0.7-0.3c0.1,1.5,0.1,3,0,4.5c-0.1,2.2,0,4.3-0.1,6.5c0,0.4,0,0.9,0,1.3
		c-0.3,0.2-0.3,0-0.4-0.2c-0.3-0.7-0.2-1.4-0.2-2c0-1.4,0-2.9,0-4c0,1.3,0,3,0,4.7c0,0.5-0.1,1-0.6,1.4c-0.9,0.1-1.8,0.3-2.7-0.1v0
		c-0.1-0.1-0.2-0.2-0.2-0.4c-0.1-0.2,0-0.5-0.1-0.7c-0.2-0.5-0.6-0.3-1-0.4c-1.2,0-2.3,0-3.5,0c-0.3,0-0.9,0.1-0.8-0.6l0,0
		c0.3-0.3,0.3-0.7,0.7-0.8c0.4,0,0.4-0.3,0.6-0.5c0.2-0.7,1-1.1,1.4-1.7c0.6,0.1,0.6-0.3,0.7-0.7l0,0c0.3-0.3,0.6-0.2,1-0.1
		c-0.3-0.4-0.2-0.7,0.1-1l0,0C92.4,82.7,92.6,82.5,92.8,82.2z"/>
	<path fill="#5E0FFD" d="M87.7,78.1c0-0.4-0.5-0.3-0.6-0.6c3,0,5.8,0,8.7,0c-0.6,0.3-1.2,0.2-1.9,0.3c-0.3,0-0.7-0.1-0.7,0.3l0,0
		c-0.2,0.2-0.5,0.2-0.8,0.2c-1.3,0-2.6,0-3.8,0C88.2,78.2,87.9,78.3,87.7,78.1L87.7,78.1z"/>
	<path fill="#5312FB" d="M96.4,78.1c0,0.6-0.5,1-0.9,1.4c-0.2,0.1-0.2,0.4-0.5,0.3c-0.6-0.8,0.2-0.6,0.6-0.8
		c-0.1-0.5-0.8-0.1-0.8-0.6h0c0.3-0.3,0.8,0,1-0.3C96.1,78.1,96.2,78.1,96.4,78.1z"/>
	<path fill="#F804FA" d="M91.8,77c1.4-0.2,2.7-0.2,4.1,0C94.5,77,93.1,77,91.8,77z"/>
	<path fill="#5E0FFD" d="M95.9,78.1c-0.2,0.6-0.7,0.2-1,0.3C95,77.8,95.5,78.2,95.9,78.1z"/>
	<path fill="#6D10F8" d="M86.5,77c0.2,0,0.3,0,0.5,0c-0.3,0.2-0.6,0.2-0.8,0C86.2,77.1,86.4,77,86.5,77z"/>
	<path fill="#073AE0" d="M86.6,91.4c-0.1-0.2-0.2-0.3-0.3-0.4c-0.1-0.1-0.2-0.2-0.3-0.3c0-0.1,0-0.2,0-0.3c0.1,0,0.2,0,0.3,0
		c0.7-0.3,1.2-0.2,1.3,0.7c0.1,0.4,0.3,0.6,0.8,0.5c0.5-0.1,0.7,0.1,0.8,0.7c0.2,1,0.7,1.8,1.8,2c0.6,0.1,1,0.4,0.9,1.1
		c0,0.4,0.1,0.7,0.5,0.9c0.3,0.2,0.6,0.6,0.8,0.9c0.2,0.3,0.1,0.6-0.3,0.4c-0.7-0.5-1.1-1.4-1.9-1.9c-0.2-0.1-0.4-0.3-0.5-0.5
		c-0.1-0.1-0.1-0.1-0.2-0.2c-0.8-0.6-1.4-1.3-2-2.1l0,0c-0.3-0.2-0.4-0.5-0.7-0.7C87.3,92,86.9,91.8,86.6,91.4z"/>
	<path fill="#0B39E6" d="M92.8,97.8c0.2,0,0.4-0.2,0.2-0.4c-0.4-0.3-0.4-0.8-0.9-0.9c-0.3-0.1-0.6-0.5-0.4-0.9
		c0.3-0.7-0.3-0.9-0.7-1c-1.1-0.3-2-1.1-2-2.2c0-0.6-0.4-0.6-0.5-0.5c-0.8,0.4-0.9-0.4-1-0.7c-0.2-0.6-0.2-1-0.9-0.5
		c0,0-0.1-0.1-0.2-0.2c-0.1-0.6,0.3-0.3,0.5-0.3c2.1,0,4.2,0,6.3,0c1.1-0.2,2.2-0.5,3.2,0.3c0,0.1,0.1,0.2,0.1,0.2
		c-0.2,1.7,0.2,3.5,0,5.2c-0.4,1-0.4,1.9,0,2.9c0,0.8,0.3,1.7-0.2,2.5c-0.2,0-0.3-0.1-0.3-0.3c-0.7-0.8-1.3-1.7-2.2-2.2
		C93.3,98.4,93.1,98,92.8,97.8z"/>
	<path fill="#2B19FB" d="M93.1,89.4c0,0.1,0,0.2,0,0.3c-2.1,0-4.3,0-6.4,0c-0.3,0-0.7,0.2-0.7-0.3c0.6-0.3,0.6-1.2,1.4-1.4
		c0.1,0.1,0.1,0.2,0.1,0.4c0,0.7,0.6,0.7,1.1,0.7c1.2,0,2.4,0,3.5,0C92.5,89.1,92.8,89.1,93.1,89.4z"/>
	<path fill="#1728F1" d="M96.2,90.4c-1-0.6-2.1-0.2-3.1-0.3c0-0.1,0-0.2,0-0.3c0.9,0,1.8,0,2.7,0c0.3-0.2,0.6-0.2,0.9,0
		c0,0.1,0,0.3,0.2,0.3c0.1,0.1,0.1,0.2,0.1,0.4c-0.1,0.1-0.2,0.1-0.4,0.1C96.4,90.6,96.3,90.5,96.2,90.4z"/>
	<path fill="#39C7F8" d="M87.7,113.5c0.3-0.4,0.6-0.8,0.9-1.2c0,0,0,0,0,0c0.1-0.1,0.1-0.1,0.2-0.2c0.2-0.1,0.4-0.1,0.6-0.1
		c0.4,0,0.7-0.1,1-0.5c0.6-0.7,1.5-1,2.3-1.2c-0.1-0.1-0.4,0.1-0.6-0.1c-0.2-0.1-0.5-0.2-0.7-0.4c0-0.3,0.2-0.4,0.5-0.5
		c0.2,0,0.4-0.1,0.5,0c0.4,0.2,0.2,0,0.1-0.2c0-0.4,0.4-0.4,0.6-0.4c0.6-0.1,1-0.4,0.6-1.1c0-0.3,0.2-0.4,0.4-0.4
		c0.4,0,0.6-0.2,0.9-0.5c0.4-0.4,0.7-0.4,1,0.1c0.1,0.1,0.1,0.3,0.1,0.4c-0.6,0.9-0.1,1.8,0,2.8c0.1,1.6,0.1,3.3,0,4.9
		c0,0.2-0.1,0.3-0.2,0.4c-0.7,0.3-1.4,0.2-2,0.1c-1.1,0-2.2,0.2-3.3-0.1c0,0-0.1-0.1-0.1-0.1c0-0.1,0-0.2,0-0.3
		c-0.3-0.4-0.1-0.9-0.2-1.2c0-0.2-0.1,0,0-0.1c0,0,0,0,0,0.1c0,0.4,0.1,0.9-0.3,1.2c-0.5,0-1,0-1-0.7c-0.4-0.5,0-0.9,0.1-1.4
		c-0.5,0.4-0.8,1-0.6,1.7c-0.1,0.5-0.4,0.3-0.7,0.3c-0.2-0.2-0.2-0.6-0.3-0.8C87.4,113.9,87.6,113.7,87.7,113.5z"/>
	<path fill="#39C8F5" d="M88.3,114.7c-0.3-0.2-0.5-0.6-0.4-0.9c0.2-0.4,0.6-0.8,0.9-1.2c0.1-0.1,0.3-0.1,0.4,0
		c0.2,0.1,0.2,0.3,0.1,0.4c-0.3,0.4-0.4,0.8-0.4,1.3C88.6,114.3,88.5,114.6,88.3,114.7z"/>
	<path fill="#39C7F8" d="M86.9,115.8c0.1-0.4,0.4-0.4,0.7-0.4c0.9,0,1.8,0,2.7,0l0,0c0.1,0.2,0.1,0.3-0.1,0.4
		C89.2,116,88.1,116,86.9,115.8L86.9,115.8z"/>
	<path fill="#48B8FE" d="M87.7,113.5c0,0.3,0,0.5-0.2,0.7c-0.1,0.1-0.1,0.2-0.2,0.2c-0.3,0-0.4,0.2-0.5,0.4
		c-0.2,0.5-0.6,0.7-1.1,0.6C86.3,114.7,87,114.1,87.7,113.5z"/>
	<path fill="#39C8F5" d="M89.9,115.1c0.1-0.5,0.3-1,0-1.5c-0.1-0.2-0.1-0.4,0.1-0.5c0.4-0.1,0.3,0.2,0.3,0.5c0,0.5,0,1,0,1.5
		C90.2,115.1,90.1,115.1,89.9,115.1z"/>
	<path fill="#39C8F5" d="M87.3,114.4c0.1-0.1,0.1-0.1,0.2-0.2c0.2,0.3,0.2,0.6,0.2,0.9C87.2,115,87.2,114.7,87.3,114.4z"/>
	<path fill="#78F409" d="M90.4,126.5c-0.9,0.4-1.8,0.1-2.7,0.2c0.1-0.4,0.4-0.3,0.6-0.3c0.7,0,1.4,0,2.1,0
		C90.4,126.4,90.4,126.5,90.4,126.5z"/>
	<path fill="#66B5D3" d="M96.9,116.1c0-0.1-0.1-0.2-0.1-0.3c-0.2-0.3-0.1-0.6-0.1-0.9c0-3.5,0-7.1,0-10.6c0-0.2,0-0.4,0.1-0.6
		c0.1-0.1,0.1-0.3,0.3-0.3c0,3.4,0,6.9,0,10.3C97.1,114.5,97,115.3,96.9,116.1C97,116.1,96.9,116.1,96.9,116.1z"/>
	<path fill="#FD00FD" d="M96.2,68.5c0.4-0.7,0.1-1.4,0.2-2.1c0-0.2-0.1-0.6,0.3-0.6c0.3,0,0.2,0.3,0.2,0.6c0,2.4,0.1,4.7,0,7.1
		c0,0.9-0.1,1.8-0.1,2.7c0,0.2,0,0.5-0.2,0.5c-0.3,0-0.3-0.3-0.3-0.5c-0.1-1,0.1-2,0.2-3.1C96.5,71.6,96.1,70,96.2,68.5L96.2,68.5z"
		/>
	<path fill="#063ADE" d="M96.9,90.4c0-0.1,0-0.2,0-0.3c0-2.3,0-4.6,0-7c0-0.3-0.1-0.6,0.1-0.9c0,2.6,0,5.2,0,7.8
		c0,4.1,0,8.1-0.1,12.2c-0.3-0.2-0.4-0.7-0.8-0.8l0,0c0-0.1,0-0.1,0-0.2c0-0.9,0-1.7,0-2.6c-0.3-0.9-0.3-1.8,0-2.7
		c0.1-1.8-0.3-3.7,0-5.5c0.1,0,0.2,0,0.3,0c0.2,0.3,0.2,0.7,0.2,1c0,2.9,0.1,5.7,0,7.7c0-2,0-4.8,0-7.7
		C96.7,91.1,96.7,90.7,96.9,90.4z"/>
	<path fill="#1368EC" d="M97,103.4c0,0.1-0.1,0.1-0.1,0.2c-0.2,0.4-0.3,1-1,0.9c0.1-0.2,0.1-0.5,0.2-0.7c0.3-0.2,0.2-0.6,0.3-0.9
		c0.2,0.3,0.4,0,0.6,0C97,103.1,97,103.2,97,103.4z"/>
	<path fill="#F208E9" d="M91.8,71.2c0.3-0.5,0.7-0.9,1.1-1.2C93.1,70.6,92.7,71,91.8,71.2z"/>
	<path fill="#F409EA" d="M95.5,67.7c-0.1,0.2-0.2,0.4-0.5,0.4c-0.2,0-0.3-0.1-0.2-0.3c0.1-0.2,0.2-0.4,0.5-0.4
		C95.4,67.5,95.5,67.6,95.5,67.7z"/>
	<path fill="#70FB04" d="M96.1,117.4c0.2,0.1,0.2,0.3,0.2,0.5c0,2.5,0,5,0,7.4c0,0.2,0.1,0.3-0.2,0.5c-0.3-0.1-0.2-0.4-0.2-0.6
		c0-2.1,0-4.2,0-6.3c0-0.5-0.3-0.8-0.4-1.2C95.6,117.6,95.7,117.4,96.1,117.4z"/>
	<path fill="#70FB04" d="M94.9,118.5c0.2,0,0.5-0.1,0.6,0.2c0.1,0.3-0.1,0.4-0.3,0.6c-0.5,0.5-0.5,0.8,0.3,1
		c-0.8,0.3-1.7-0.2-1.7-0.8C93.9,118.9,94.2,118.4,94.9,118.5z"/>
	<path fill="#14F705" d="M94.9,118.5c-0.5,0.2-0.7,0.6-1,1c-0.7,0.3-1.1,1-1.7,1.4c-0.1,0.1-0.1,0.1-0.2,0c0.5-1.2,1.8-1.7,2.5-2.6
		c0.2-0.2,0.2-0.3,0.3-0.6c0.2-0.5,0.7-0.7,1.3-0.6c0,0.1,0,0.2,0,0.3c-0.2,0.1-0.3,0.4-0.5,0.4C95.1,117.9,95.1,118.2,94.9,118.5z"
		/>
	<path fill="#22F703" d="M89.5,123.3c-0.1,0-0.1,0-0.2,0c0.1-0.3,0.1-0.6,0.5-0.7c0.1-0.1,0.2-0.1,0.4,0
		C90.1,122.9,89.8,123.1,89.5,123.3z"/>
	<path fill="#33FA04" d="M91.9,120.9c0.1,0,0.1,0,0.2,0c-0.1,0.4-0.5,0.6-0.9,0.7C91.3,121.2,91.7,121.1,91.9,120.9z"/>
	<path fill="#17F801" d="M90.2,122.6c-0.1,0-0.2,0-0.4,0c0-0.3,0.3-0.3,0.5-0.3C90.4,122.4,90.4,122.5,90.2,122.6z"/>
	<path fill="#31F404" d="M90.4,122.3c0.1-0.2,0.3-0.4,0.5-0.4C90.9,122.2,90.7,122.2,90.4,122.3z"/>
	<path fill="#39C7E9" d="M96.9,104.1c0,3.7,0,7.4,0,11.1c0,0.2-0.1,0.4-0.1,0.7c-0.2,0.2-0.5,0.2-0.7,0.2c-2.8,0-5.7,0.1-8.5-0.1
		c-0.1,0-0.2,0.1-0.2,0.1c-0.1,0.1-0.2,0.1-0.3,0c0-0.1,0-0.2,0-0.3c1.1,0,2.3,0,3.4-0.1c1.1-0.3,2.3-0.1,3.4-0.1
		c0.7-0.1,1.4,0.2,2.1-0.2c0-0.1,0-0.2,0-0.3c0.2-0.2,0.4,0.4,0.6,0c0.1-2.7,0-5.4,0-8.1c0-0.6,0-1.2-0.1-1.7c0-0.1,0-0.3,0-0.4
		C96.5,104.6,96.4,104.2,96.9,104.1z"/>
	<path fill="#00FC0E" d="M93,117.1c-0.8,0-1.7,0-2.5,0c0-0.1,0-0.1,0-0.2c0.8,0,1.7,0,2.5,0C93,116.9,93,117,93,117.1z"/>
	<path fill="#02F81F" d="M87,116.1c0.1,0,0.2,0,0.3,0c0,0.3,0.1,0.7-0.2,1C86.9,116.7,87,116.4,87,116.1z"/>
	<path fill="#1763F5" d="M96.4,102.9c-0.1,0.3,0.2,0.7-0.3,0.9c0-0.2,0.1-0.4,0.1-0.7c-0.5,0.5-0.9,0.4-1.3,0.4c-2.1,0-4.3,0-6.4,0
		c-0.4,0-0.8,0.1-0.8-0.5C90.6,102.9,93.5,102.9,96.4,102.9z"/>
	<path fill="#1775F8" d="M87,101.4c-0.5-0.1-0.3-0.5-0.3-0.7c0-1.6,0-3.2,0-4.7c0.5,0.1,0.3,0.5,0.3,0.7C87,98.2,87,99.8,87,101.4z"
		/>
	<path fill="#2468FC" d="M88.2,93.1c0.9,0.5,1.4,1.3,2,2.1C89.1,95,88.5,94.1,88.2,93.1z"/>
	<path fill="#053DDF" d="M93.7,98.6c0.1,0,0.3,0,0.4,0c0.8,0.6,1.5,1.2,1.8,2.2C95.1,100.2,94.3,99.4,93.7,98.6z"/>
	<path fill="#2670EC" d="M96.2,101.4c0,0.4,0,0.8,0,1.2C95.9,102.1,95.6,101.7,96.2,101.4C96.2,101.4,96.2,101.4,96.2,101.4z"/>
	<path fill="#2468FC" d="M87.5,92.4c0.4,0.1,0.6,0.3,0.7,0.7C87.6,93.2,87.7,92.7,87.5,92.4z"/>
	<path fill="#2468FC" d="M90.4,95.4c0.2,0.1,0.4,0.3,0.5,0.5C90.5,95.9,90.4,95.8,90.4,95.4z"/>
	<path fill="#43BCFB" d="M96.9,104.1c-0.3,0.2,0,0.5-0.3,0.7c-0.2,0.2-0.3,0.6-0.6,0.8c-0.7,0.6-1.3,1.2-1.8,2
		c-0.2,0-0.3,0.1-0.3,0.3c-0.7,0.5-1.3,1.1-1.9,1.7c-0.2,0-0.4,0.1-0.5,0.3c0,0.9-0.7,1.1-1.3,1.4c-0.1-0.1-0.2-0.2-0.2-0.3
		c0-0.5,0.6-0.7,0.8-1.1l0,0c0.7-0.9,1.5-1.7,2.4-2.4c0.7-0.8,1.5-1.5,2.2-2.3c0.2-0.2,0.5-0.4,0.5-0.7c0.5-0.2,0.6-0.6,1-0.9
		C96.9,103.8,96.9,103.9,96.9,104.1z"/>
	<path fill="#1567E9" d="M93.1,107.5c-0.7,0.9-1.5,1.7-2.4,2.4c-0.2-0.4,0.1-0.6,0.3-0.7C91.8,108.7,92,107.6,93.1,107.5z"/>
	<path fill="#1567E9" d="M90.8,109.9c-0.1,0.5-0.5,0.6-0.7,1c-0.3,0.6-0.8,1.1-1.4,1.4c-0.1,0-0.1,0-0.2,0c0-0.5,0.1-0.8,0.6-1.1
		C89.8,110.9,89.9,110,90.8,109.9z"/>
	<path fill="#2A1AF8" d="M87.3,88.4c0-0.1,0-0.2,0-0.3c0.1-0.2,0.2-0.3,0.3-0.3c0.1,0.5,0.5,0.3,0.7,0.3c1.4,0,2.7,0,4.1,0
		c0.5,0,0.7,0.2,0.7,0.7c-0.2,0.2-0.4,0.2-0.7,0.3c-1.4,0-2.8,0-4.2,0C87.9,88.9,87.5,88.8,87.3,88.4z"/>
	<path fill="#6A08FC" d="M87.7,78.1c1.8,0,3.7,0,5.5,0c0,0.3-0.2,0.3-0.5,0.3c-1.5,0-3,0-4.5,0C87.9,78.4,87.7,78.4,87.7,78.1z"/>
	<path fill="#3318FA" d="M92.1,82.9c-0.1,0.3-0.2,0.6,0.2,0.9c0.1,0.1,0.2,0.2,0,0.4c-0.1,0.1-0.3,0.1-0.4-0.1
		c-0.2-0.3-0.6-0.2-0.9-0.2C91.4,83.5,91.7,83.1,92.1,82.9z"/>
	<path fill="#4D13FB" d="M88.5,87c-0.5,0-0.4,0.7-0.9,0.7c0-0.4-0.1-0.8,0.1-1.3c0.3,0,0.5,0.3,0.8,0.2C88.6,86.8,88.6,86.9,88.5,87
		z"/>
	<path fill="#3317FA" d="M95,79.8c0.2-0.1,0.2-0.4,0.5-0.3c-0.2,0.7-0.7,1.1-1.4,1.4C94.5,80.5,94.5,79.9,95,79.8z"/>
	<path fill="#3318FA" d="M91.1,83.9c-0.1,0.4,0.1,0.7,0.5,0.8c-0.5,0.5-0.8-0.3-1.2-0.1C90.5,84.2,90.7,84,91.1,83.9z"/>
	<path fill="#3317FA" d="M94.2,80.8c-0.3,0.4-0.3,1-1,1C93.4,81.4,93.6,80.9,94.2,80.8z"/>
	<path fill="#3019FA" d="M92.8,82.2c0.1,0.5-0.2,0.8-0.7,0.7C92.2,82.5,92.4,82.3,92.8,82.2z"/>
	<path fill="#3815FB" d="M88.5,87c0-0.1,0-0.2,0-0.3c0.2-0.1,0.2-0.4,0.5-0.4C89,86.6,88.9,86.9,88.5,87z"/>
	<path fill="#1C20FB" d="M87.3,88.4c0.4,0.3,1,0.4,1.5,0.3c1.4,0,2.9,0,4.3,0c0,0.2,0,0.5,0,0.7c-1.5,0-3,0-4.5,0
		c-0.4,0-0.8-0.1-1.2-0.3C86.8,88.9,87,88.7,87.3,88.4z"/>
	<path fill="#201FF0" d="M96.7,89.7c-0.3,0-0.6,0-0.9,0c0.5-1,0.3-2,0.3-3.1c0.1-1.2,0-2.4,0-3.6c0-0.3-0.1-0.5,0.1-0.8
		c0.3,0.3,0.2,0.6,0.2,0.8c0,1.8,0,3.5,0,5.3C96.6,88.8,96.6,89.3,96.7,89.7z"/>
	<path fill="#3317FA" d="M94.9,81.2c0.1,0,0.2,0.1,0.2,0.1c0,0.1,0,0.2-0.2,0.2c-0.1,0-0.1-0.1-0.2-0.1
		C94.8,81.3,94.8,81.2,94.9,81.2z"/>
	<path fill="#0E35F1" d="M96.2,95.9c0,0.9,0,1.8,0,2.7c-0.2,0-0.3-0.2-0.3-0.4c0-0.6,0-1.3,0-1.9C95.9,96,96,95.9,96.2,95.9z"/>
	<path fill="#1332EF" d="M96.9,90.4c0,3.6,0,7.2,0,10.8c-0.1,0-0.2,0-0.3,0c0-3.6,0-7.2,0-10.8C96.7,90.4,96.8,90.4,96.9,90.4z"/>
	<path fill="#39C8F3" d="M96.4,115.4c0,0.2-0.1,0.4-0.3,0.1c-0.1-0.1,0-0.3-0.2-0.4c0-1.3,0-2.6,0-3.8c0-0.8,0-1.6-0.4-2.3
		c-0.2-0.3-0.3-0.8,0.2-1.1c0.3-0.2,0.1-0.6,0.2-1c0.1,0,0.1,0,0.2-0.1c0.4,0.1,0.4,0.4,0.4,0.6C96.4,110.1,96.6,112.7,96.4,115.4z"
		/>
	<path fill="#39C8F5" d="M90.1,111.3c0.5-0.4,1.1-0.8,1.4-1.4c0.6-0.1,1,0.7,1.6,0.1c-0.1,0.4,0.5,1.3-0.6,0.7
		c-0.2-0.1-0.4,0-0.5,0.2c-0.3,0.3-0.6,0.5-1,0.5c-0.2,0-0.4,0.2-0.4,0.4c-0.1,0.8-0.6,0.6-1.1,0.6
		C89.2,111.7,89.6,111.5,90.1,111.3z"/>
	<path fill="#39C8F3" d="M95.9,115.4c-0.1,0.4-0.4,0.3-0.7,0.3c-1.6,0-3.2,0-4.8,0c0-0.1,0-0.2,0-0.3
		C92.2,115.4,94.1,115.4,95.9,115.4z"/>
	<path fill="#39C8F3" d="M94.2,107.5c0.1-1.1,1-1.5,1.7-2.1c0.3,0.5,0.3,0.9,0,1.4c-0.4-0.2-0.7-0.2-0.8,0.2
		C94.9,107.7,94.5,107.5,94.2,107.5z"/>
	<path fill="#39C8F3" d="M91.9,109.6c0.5-0.7,0.9-1.5,1.9-1.7c0.5,0.7,0.5,0.9-0.3,1c-0.3,0-0.4,0.4-0.7,0.3c-0.1,0-0.2,0.1,0,0.4
		C92.5,109.6,92.2,109.6,91.9,109.6z"/>
	<path fill="#44B5FC" d="M90.1,111.3c-0.3,0.3-0.7,0.5-0.7,1c-0.2,0-0.5,0-0.7,0c0.4-0.5,0.9-1,1.4-1.4
		C90.1,111,90.1,111.2,90.1,111.3z"/>
	<path fill="#3AC3FD" d="M95.9,106.8c0-0.5,0-0.9,0-1.4c0.3-0.2,0.2-0.7,0.7-0.7c0,0.1,0,0.2,0,0.3c-0.2,0.6,0,1.2,0.2,1.7
		c0,2.6,0,5.2,0,7.7c0,0.3,0.2,0.7-0.3,0.8c-0.3-0.3-0.2-0.6-0.2-0.9c0-2.3,0-4.6,0-6.8C96.2,107.4,96.4,106.9,95.9,106.8z"/>
	<path fill="#39C8F3" d="M96.7,106.8c-0.4-0.5-0.8-1.1-0.2-1.7C96.8,105.7,96.7,106.3,96.7,106.8z"/>
</g>
</svg>
