<svg xmlns="http://www.w3.org/2000/svg" width="202.2" height="180">
  <path fill="#FDFDFD" d="M101.1 179.9H.8c-.7 0-.8-.2-.8-.8V.8C0 .2.1 0 .8 0h200.5c.8 0 .9.2.9.9v178.3c0 .6-.1.8-.8.8-33.4-.1-66.8-.1-100.3-.1z"/>
  <path d="M34.1 94.3c-1-2.7-1.6-5.5-2.4-8.3-2.4-8.9-4.4-17.9-6.1-27-1.4-7.5-2.7-15-3.8-22.6l-1.5-10.1c-.1-.6.1-.8.6-1.1 11.2-5.7 22.9-10.3 35-13.6 6.7-1.8 13.5-3.1 20.4-4.1 8.7-1.2 17.4-1.6 26.1-1.3 7.9.2 15.7 1.1 23.4 2.5 18 3.2 35.2 9.1 51.7 16.8 1 .4.5 1 .4 1.6-.3-.3-.3-.3-.6.1-.8 1-1.3.9-2.3 0-.7-.7-1.7-.8-2.6-.6-.7 0-1.2-.3-1.7-.6-1-.5-2.1-.8-3-1.5-.1-.3.1-.4.4-.5-.5-.2-1-.3-1.5 0-.5 0-.9-.2-1.3-.4-9.8-4-19.7-7.4-30-9.8-.5-.1-.9-.3-1.4-.3-.1 0-.3 0-.4-.1-.2-.1-.4-.1-.6-.2-.5-.2-1.1-.2-1.6-.3-5.7-1.2-11.4-2.1-17.2-2.8-7.3-.8-14.7-1-22-.8-3.6.1-7.1.3-10.7.8l-3 .3c-7 .9-14 2.2-20.8 4.1-.3.1-.7.2-1 .2-.6-.1-1.2-.3-1.9 0-.3.2-.4.1-.2.5-.2.3-.4.3-.7.4-5.6 1.6-11 3.6-16.4 5.8-1.7.7-3.3 1.4-4.9 2.1-2.8 1.3-5.5 2.6-8.3 3.9-1.2.6-1.2.6-1 1.9 1.1 8 2.4 16.1 3.8 24.1 1.6 9.3 3.5 18.6 5.8 27.9.9 3.7 1.9 7.5 3 11.1.1.4.2.7.2 1.1v.7c.1.3 0 .6-.1.9-.2.4-.7.1-.9.6 0 .1-.2-.1-.3-.2-.3-.5-.5-.8-.6-1.2z"/>
  <path fill="#010101" d="M172.4 26.4c0-.1 0-.1.1-.2.3-.5 1-.1 1.1-.1.5.4 1.5 0 1.8.9.2.5.8.8 1.3.4.4-.3.9-.7.7-1.5.5.1.3.7.6 1-.4 2.1-.7 4.1-1.1 6.2L173 53.2c-2.6 12.8-5.5 25.5-9.1 38-2.9 10.1-6.3 20.1-10.6 29.7-4.1 9.2-8.9 18-15.1 26-7.5 9.7-16.6 17.4-27.9 22.3-4 1.7-8.1 3-12.4 4-.3.1-.5 0-.8-.1-10.7-3-20.1-8.4-28.3-15.9-1.5-1.4-3-2.8-4.3-4.3.3-.3.7-.3 1.1-.1 0-.2-.1-.2-.2-.3-.1-.1-.2-.5-.3.1 0 .3-.4.1-.6 0-.3-.1-.5-.3-.5-.7 0-.3.2-.5.5-.5.4 0 .8-.1 1.3-.1.4.1.6.3.8.6 4.3 4.3 8.9 8.1 14.1 11.3.8.5 1.6.9 2.4 1.4.5.3 1 .6 1.5.8 4 2.1 8.1 3.6 12.4 4.9.5.2 1.1.1 1.6 0 7.8-1.8 15-4.8 21.7-9.2 2.6-1.8 5.1-3.7 7.5-5.8.4-.4.9-.8 1.3-1.2 1.3-1 2.3-2.2 3.4-3.4.8-.7 1.4-1.5 2.1-2.3 1.8-2.1 3.5-4.3 5.1-6.6 3.4-4.8 6.3-9.9 8.9-15.2 3.3-6.5 6-13.2 8.4-20.1 4.7-13.2 8.2-26.8 11.2-40.5 2.1-9.4 3.9-18.9 5.7-28.4l1.5-8.4c.1-.4.2-.7-.3-1-.1-.1-.3-.2-.4-.2-.9-.7-1.8-.8-2.3-1.6z"/>
  <path fill="#010101" d="M65.6 151.5c-.3.1-.6.3-.9.2-.2 0-.5-.3-.6.1-.2.4.1.5.3.7.1.1.2.1.4.2.3-.4-.4-.2-.2-.5.8.1 1.1.4 1 1.1-.1-.2-.4-.2-1.1-.2-2.1-2-3.8-4.2-5.6-6.4-6.9-8.8-12.1-18.6-16.5-28.9-3.2-7.4-5.8-15.1-8.1-22.8-.1-.2-.1-.4-.1-.6l.4.4c.2.2.2.6.4.5.4-.3 1.2-.4.8-1.3-.1-.2 0-.4 0-.6.4.1.5.6.6.9 1.4 4.7 2.9 9.4 4.6 14 1.7 4.5 3.5 8.9 5.5 13.2 2 4.3 4.1 8.5 6.5 12.5 2.7 4.6 5.7 8.9 9.1 13 .6.7 1.2 1.3 1.8 2.1.2.3.5.5.7.8l.4.4c.1.1.2.3.2.5s.1.3.3.3c0 .1.1.2.1.4z"/>
  <path fill="#FDFDFD" d="M175 27.8c.6.1.8.3.7.9-1.1 6-2.2 11.9-3.4 17.9-1.9 9.9-4 19.7-6.3 29.5-2.6 10.6-5.5 21.1-9.2 31.4-3.6 10-7.8 19.6-13.4 28.7-2.6 4.2-5.5 8.3-8.7 12.1-.1.1-.2.1-.3.2-.4.2-.9.1-1.3.2-.5.2-.9-.1-.9-.8.2-.6.8-.9 1.1-1.5 1.8-2.1 3.5-4.4 5.1-6.7 3.3-4.7 6.1-9.7 8.6-14.8.2-.4.4-.9.7-1.3.2-.2.3-.4.3-.7 0-.1.1-.1.1-.2.5 0 .2-.4.2-.6.2-.7.4-1.4.9-2 .1-.1.2-.1.3-.2.8-.2.8-.2.4-1-.1-.1-.1-.3-.1-.4.4-1.3 1-2.5 1.5-3.8 2.8-6.8 5.2-13.7 7.3-20.7 1.7-5.7 3.2-11.4 4.7-17.1 3-12.4 5.6-24.9 7.9-37.4.6-3.1 1.1-6.2 1.7-9.3.1-.7-.1-1.1-.8-1.5-2.4-1.1-4.8-2.2-7.2-3.2-.7-.4-1.4-.6-2.2-.9-5.2-2.1-10.4-4-15.7-5.7-1.5-.5-3-.8-4.4-1.4-.2-1-.8-.3-1.3-.3-1.7-.3-3.2-.8-4.9-1.2l-3.6-.9c-.3-.1-.6-.1-.8-.3-.1-.4.1-.5.4-.5.1 0 .1.1.2.1 0 0-.1 0-.1-.1-.1-.1-.1-.2-.1-.3 0-.4.5-.5.7-.9h.3c.4.3.9.3 1.4.3 2.6.5 5.2 1.3 7.8 2 7.8 2.2 15.5 5 22.9 8.1.2.1.4.1.6.2.4.1.8.1 1.1.5l4.8 2.1c.7.4 1.5.8 2.2 1.1.4.5.7.2.8.4zM63.7 149.3c-3.4-3.7-6.3-7.7-9-11.8-6.8-10.6-11.8-22.1-15.8-33.9-1.1-3.3-2.2-6.7-3.3-10.1-.8-3.1-1.7-6.2-2.5-9.3-1.7-6.7-3.2-13.4-4.6-20.1-1-4.8-1.8-9.6-2.7-14.5-.6-3.7-1.2-7.5-1.8-11.3l-1.5-10c0-.3-.1-.5.3-.7 3.1-1.6 6.2-3.2 9.4-4.5.3-.1.5-.1.7.2.1.3-.2.3-.3.5-.3.3-.4.6.1.8.1.1.2.3.1.4-.8.6-1.7.9-2.5 1.3-.7.3-1.4.7-2.1 1-.5.2-1 .5-1.5.8-2 1-1.8.7-1.5 2.8 1.6 11.2 3.4 22.4 5.6 33.5 2.1 10.4 4.6 20.8 7.7 31 2.7 8.9 5.9 17.6 9.8 26l.6 1.2c2.9 6.1 6.2 11.9 10.1 17.4.2.4.5.7.7 1.1v.2c0 .1-.1.2-.1.2.3.5.4 1.1.8 1.5.3.3.6.3 1 .3.9.7 1.6 1.6 2.1 2.6-.2.9 0 1.1.8 1.2.1 0 .1.1.2.1.1.4 0 .9.5 1.2.3.2.3.5.2.8-.1.4-.5.2-.7.2-.3 0-.6.1-.8-.1z"/>
  <path fill="#FDFDFD" d="M133.4 13.2c.1.2.2.5-.2.5-.2 0-.3.1-.3.3-.7.5-1.5.2-2.2.5-1.2.1-2.3-.4-3.4-.6-5.7-1.1-11.5-1.9-17.3-2.4-2.4-.2-4.8-.3-7.3-.4-2.5-.1-5.1-.2-7.6-.1-5.8.1-11.5.5-17.2 1.2-5.6.7-11.1 1.8-16.6 3.1-2.2.5-4.4 1.1-6.5 1.8-.4.1-.8.2-1.3.3l-1.4-.3c-.8-.1.2.2 0 .2 0 .3-.2.5-.4.6-4.1 1.5-8.2 2.8-12.2 4.5-.4.2-.7.4-1.1.3-.3-.1-.5-.3-.6-.6-.1-.3-.1-.6-.6-.6-.3 0-.1-.4.1-.5 3.3-1.5 6.8-2.7 10.3-3.9 2.3-.8 4.6-1.5 6.8-2.2.5-.5 1.2-.4 1.9-.5 5.8-1.5 11.6-2.8 17.5-3.7 1.5-.2 3-.5 4.6-.6.6.1 1.1.1 1.7-.1.4-.1 1 .4 1.3-.3 1.5-.3 3-.4 4.5-.5 5-.4 10-.5 15-.4 4.2.1 8.5.4 12.7.8 5.1.5 10.1 1.3 15.1 2.3l2.9.6c.5.1 1 .5 1.5.3-.1.2.2.1.3.4z"/>
  <path fill="#FBFBFB" d="M37.2 21.1c0 .1 0 .3-.1.4.9-.1.6.9 1.1 1.2 0 .3-.2.4-.4.5-1.5.6-2.9 1.2-4.4 1.9-.2.1-.4.2-.6 0-.2-.3-.4-.5-.8-.2.3-.6.2-1.2 1.1-1.3-.4-.2-.6-.3-.8-.3 1.6-1 3.2-1.7 4.9-2.2z"/>
  <path fill="#F5F5F5" d="M81.2 9.8c-.4.3.1.3.2.4-.7.7-1.3-.2-2.1 0 .2.1.3.1.4.2-.6.4-.9-.2-1.4-.3.9-.2 1.9-.4 2.9-.3z"/>
  <path fill="#0B0B0B" d="M56.2 14.4c-.6.3-1.2.5-1.9.5-.1-.1-.3-.2-.5-.4.9 0 1.5-.8 2.4-.1zm111.4 10c-.4-.2-.7-.3-1.1-.5.3-.1-.1-.3.1-.5.5.4 1.3 0 1.7.7-.2.2-.6-.2-.7.3z"/>
  <path fill="#F7F7F7" d="M132.9 13c0 .3-.1.3-.4.2-.4-.2-.8-.3-1.2-.6.6.1 1.1.2 1.6.4zm2.2.5c-.5.2-1.1.3-1.4-.3.5 0 1 .1 1.4.3z"/>
  <path fill="#FDFDFD" d="M63.7 149.3c.4-.1.8-.1 1.3.2 0-.4.1-.7-.3-.9-.5-.3-.5-.8-.3-1.4.3-.1.5.2.7.4 1.3 1.5 2.7 3 4.1 4.4.6.6 1.4 1.1 2 1.8l.6.6c.5.3.9.7 1.2 1.2 0 1 .7 1.1 1.5 1.1 1.6 1 3 2.2 4.5 3.2.5.3.9.6 1.4.9.2.1.4.3.6.4.2.1.4.2.6.4l.6.3c4.5 2.6 9.3 4.7 14.3 6.3.8.3 1.6.3 2.5.1 4.6-1.1 9.1-2.7 13.4-4.8 1.3-.6 2.4-1.3 3.7-2 .4-.2.8-.4 1.1-.7 2.2-1.3 4.3-2.8 6.3-4.4.3-.2.6-.4.8-.6.1-.1.1-.1.2-.1.2-.1.4-.3.6-.4l.4-.4c.2-.2.4-.4.6-.5 1.6-1.4 3-2.9 4.5-4.4.2-.2.5-.5.8-.6l1.1-.3c.4-.1.7.4.5.6-.5.4-.3.9-.4 1.3-1 1.2-2.1 2.4-3.4 3.4-.8 0-1.2.4-1.3 1.2-3.7 3.5-7.8 6.3-12.1 8.8-5.5 3.1-11.5 5.2-17.7 6.6-.2 0-.5.1-.7 0-4.5-1.3-8.9-2.9-13-5.1 0-1.1-.9-.7-1.4-.8-2.9-1.4-5.5-3.3-8.1-5.2-3.3-2.4-6.2-5.2-9.1-8.1-.1-.1-.2-.3-.4-.4-.2 0-.3-.2-.3-.4-.1-.1-.2-.3-.3-.4 0-.2-.1-.3-.3-.3-.4-.5-.6-.7-.8-1z"/>
  <path fill="#F6F6F6" d="M132.4 150.7c-.2-.4-.8-.9.2-1.2.2-.1.1-.3 0-.4-.1-.2-.2-.1-.3 0-.4.1-.7.3-1.1.3.2-.6.5-1.2 1.2-1.4 0 .5.4.9.7.6.5-.5.9-.1 1.3-.1-.6.8-1.3 1.5-2 2.2z"/>
  <path fill="#F1F1F1" d="M82.8 164.7c1.3-.5 1.6-.3 1.4.8-.5-.2-1-.4-1.4-.8z"/>
  <path fill="#F3F3F3" d="M127.7 155.3c0-.2-.4-.3-.2-.6.5-.9.6-.9 1.5-.6-.4.5-.8.8-1.3 1.2z"/>
  <path fill="#F5F5F5" d="M175 27.8c-.1 0-.2.1-.2.1-.2.2-.3.2-.5 0 .1-.1.2-.2.4-.3.1 0 .2 0 .3.2z"/>
  <path fill="#010101" d="M64.9 150.8c.1.1.2.2.3.4-.1.1-.2.2-.3.1-.2-.2 0-.4 0-.5z"/>
  <path fill="#FDFDFD" d="M64.4 150c.1-.2.2-.1.3 0 .1.1.2.2 0 .3-.2 0-.3-.1-.3-.3z"/>
  <path d="M116.1 161.4c-3.6 2.3-7.5 3.9-11.5 5.3-2.1.7-4.2 1.3-6.4 1.8-.3.1-.7.1-1 0-5.4-1.6-10.6-3.7-15.4-6.7-.1-.3-.4-.2-.5-.3-.2-.1-.4-.1-.5-.3-.2-.1-.2-.5-.5-.4-1.8-1-3.5-2.3-5.1-3.5-.3-.2-.5-.4-.8-.6-.6-.3-1.2-.7-1.5-1.2-.4-.4-.8-.8-1.2-1.1-.1-.2-.2-.5-.5-.5-2.2-1.8-4.1-3.9-6-6-.2-.2-.4-.4-.6-.7-.5-.2-.8-.7-1-1.2-.7-.9-1.4-1.7-2.1-2.6-.8-.6-1.3-1.3-1.7-2.2v-.2c-.1-.4.1-1.1-.7-1-2.4-3.2-4.4-6.5-6.3-10-1.4-2.4-2.7-4.9-3.8-7.5.1-.3 0-.6.2-.8.1-.1.1-.2.1-.3 0 .1 0 .2-.1.3-.4.5-.5-.1-.7-.1-1.7-3.4-3.2-7-4.5-10.6-4-10.4-7.2-21.1-9.8-31.9-2-8.1-3.6-16.2-5.1-24.4-1.1-6.1-2.1-12.2-3-18.4-.3-2.1-.6-4.3-1-6.4-.1-.7-.1-1.3.7-1.5.4-.1.8-.4 1.2-.5.7.3.9.3 1.4-.7 1.5-.9 3.1-1.5 4.6-2.3 1.8-.8 3.6-1.6 5.3-2.3 2.5-.9 5-1.9 7.5-2.8 1.8-.7 3.7-1.1 5.4-1.9.2-.1.4 0 .6-.1.5-.3.9-.6 1.5-.5 6.4-1.8 12.8-3.4 19.4-4.5 8.9-1.5 17.8-2.1 26.9-2 5 .1 9.9.4 14.8 1 5.1.6 10.2 1.4 15.2 2.4.4.1.8.2 1.2.2h.5c.3 0 .6.1.9.2.1 0 .1.1.2.2l9.4 2.4c.4 0 .8-.1 1 .3 3.2 1 6.4 2 9.5 3.1 3.6 1.2 7.2 2.5 10.7 4.1.4 1.1 1.3.8 2.1.9 2.7 1 5.4 2.3 8 3.5.5.2.3.6.3.9-.4 2.5-.9 5.1-1.4 7.6-1.1 5.5-2.1 10.9-3.2 16.4-1.4 7.2-3 14.5-4.8 21.6-2.7 11.3-5.9 22.5-9.9 33.4-1.2 3.2-2.5 6.4-3.8 9.5-.1.1-.1.3-.1.4 0 .5-.2 1-.6 1.4-.3.7-.6 1.4-.9 2-.1.2 0 .4-.3.5-.1 0-.1.1 0 .2-.1.2-.2.5-.3.7-3.9 8-8.4 15.6-14.1 22.5-.1.2-.3.3-.5.5-.4.1-.7.8-1.3.4-.1-.1-.3.1-.3.3.3 1-.6 1.3-1 1.8-.2.3-.4.5-.3.8-1.4 1.6-2.9 3.1-4.6 4.5-.2.1-.3-.1-.3-.3-.1-.2-.2-.2-.3-.1-.2.1-.3.3-.3.4 0 .2.2 0 .3.1.2.1.2.2.1.4-.1.1-.2.2-.4.3-.2.2-.6.2-.7.5-.4.1-.8.2-.9.7-1.8 1.6-3.8 3-5.9 4.2-.1.1-.3.2-.4.3-.5-.2-.8.2-1.1.4z"/>
  <path fill="#070707" d="M130.5 149.8c-.6-.3-.3-.7 0-.9.3-.1.3-.3.5-.4.5-.4.7-.9.5-1.5-.1-.6.6-.3.6-.3.3.3.5.4.7-.1.1-.3.3 0 .5 0l-1.1 1.4c-.4.5-.8.9-1.2 1.4-.1.1-.3.2-.5.4z"/>
  <path fill="#080808" d="M165.1 25.5c-1 .7-1.9.3-2.1-.9.7.2 1.4.5 2.1.9z"/>
  <path fill="#F3F3F3" d="M149.5 120.2c.2-.5.4-.9.6-1.4.2.3.4.6.7.8-.4.3-.8.5-1.3.6z"/>
  <path fill="#F7F7F7" d="M132.3 14.8h-.2c-.3-.2-.6-.3-1-.2-.1 0-.3 0-.4-.1.6-.6 1.4-.2 2.1-.4v.3c-.1.1-.3.2-.5.4z"/>
  <path fill="#F3F3F3" d="M142.8 17.5c-.4 0-.7-.1-1-.3.3-.4.8-.3 1.1-.1.3.1-.1.2-.1.4z"/>
  <path fill="#F5F5F5" d="M174.2 28.5c.5-.2.8-.5 1.1-.2-.3.3-.3.3-1.1.2z"/>
  <path fill="#EFEFEF" d="M148.3 122.8c.1-.2.1-.4.3-.5.2.3.2.5 0 .7-.1 0-.2-.2-.3-.2z"/>
  <path fill="#F7F7F7" d="M132.9 14.4c.2 0 .4-.1.7.2-.4.2-.6 0-.7-.2z"/>
  <path fill="#EFEFEF" d="M148.3 123.6c.1-.1.1-.2.2-.2.2 0 .1.2.1.2 0 .1 0 .2-.1.1-.1.1-.1 0-.2-.1zm-.4 0c0-.3.1-.5.3-.7.1.3 0 .6-.3.7z"/>
  <path fill="#F6F6F6" d="M59.6 141.2c.6.7 1.1 1.5 1.7 2.2-.4.2-.7.1-1.1-.2-.5-.3-.2-1.2-1-1.2 0 0-.1-.6.4-.8z"/>
  <path fill="#F3F3F3" d="M63.4 146c.4.4.7.8 1 1.2-.4.2-.9.2-1.1 0-.1-.3-.4-.8.1-1.2z"/>
  <path fill="#0A0A0A" d="M28.3 27.2c0 .1 0 .3-.1.3-.3.2.4.5 0 .6-.4.1-1 .5-1.3-.2.4-.3.9-.5 1.4-.7z"/>
  <path fill="#0C0C0C" d="M58.9 140.1c.1 0 .3-.1.4-.1.2-.1.3-.1.5 0 .3.2.1.3 0 .5s.1.5-.1.7c-.4-.4-.7-.8-.8-1.1z"/>
  <path fill="#0B0B0B" d="M49 121.7c0 .3.3.7-.2.9-.2-.3-.3-.7-.5-1 .2-.1.4.4.7.1z"/>
  <path fill="#F4F4F4" d="M53.3 17.3c-.5.2-1 .3-1.5.5.1-.1.2-.3.2-.3-.4-.4-.1-.5.2-.5.3 0 .8-.2 1.1.3z"/>
  <path fill="#F2F2F2" d="M72.8 155.6c.6.4 1.1.8 1.5 1.2h-.2c-1.2-.1-1.2-.1-1.3-1.2z"/>
  <path fill="#090909" d="M125.3 154.8c0-.1 0-.2-.1-.2-.1-.1-.7.3-.5-.3.1-.4.4-.7.9-.6.5.1-.1.6.2.7 0 .1-.2.3-.5.4z"/>
  <path fill="#0C0C0C" d="M123.5 156.3c-.2-.8-.1-.9.9-.7-.3.3-.6.6-.9.7zm-7.4 5.1c.3-.3.4-.9 1.1-.6-.4.3-.7.5-1.1.6z"/>
  <path fill="#0E0E0E" d="M71 153.9c.6-.2.5.2.5.5l-.5-.5z"/>
  <path fill="#0C0C0C" d="M124.3 155.6c0-.4.3-.5.7-.5-.2.3-.4.4-.7.5z"/>
  <path fill="#0E0E0E" d="M81.3 161.6c.2.1.7-.5.5.3-.1-.1-.3-.2-.5-.3z"/>
  <path fill="#F2F2F2" d="M72.9 156.9c.1.1.2.1.2.2.1.1-.1.2-.1.1-.1-.1-.1-.2-.2-.2 0 0 .1 0 .1-.1z"/>
  <path fill="#0E0E0E" d="M80.3 160.9c.4-.2.4.1.5.4-.2-.1-.4-.1-.5-.4z"/>
  <path fill="#FEFEFE" d="M137 47.2c.1.1.2.1.3.2 0 .7.3 1 .8.9.2 0 .4.1.5.2.3.2.6.5.9.6l1 .7c.1.5.5.6.8.7.1.2.2.1.4.2-.3.5.1.8.4.9.4.1.7.2 1.1.2.2 0 .3.1.4.3.6.4 1.1.8 1.7 1.2.1 1.1.2 2.3.1 3.4-.1 1.3.2 2.7.1 4-.1.5 0 1.1 0 1.6.5 2 .2 4 .3 6-.1 1.2-.1 2.4 0 3.6 0 1.1-.2 2.3-.2 3.4 0 .3-.1.6-.3.8-.5.4-.9.9-1.5 1.3-.4.2-1.2-.1-1.1.9-.4.8-1.1 1.4-1.8 1.9-.4.3-.8.7-1.2 1-.6 0-.9.3-.9.9-.2.3-.5.5-.7.8-.2.4-.4.8-.9.9-.3.2-.5.4-.7.7-.6 1.1-1.6 1.9-2.6 2.6-.9.9-1.9 1.8-2.8 2.8-.5.6-.8 1.4-1.7 1.4h-19.2c-.6 0-.7.2-.7.7 0 10.9.1 21.9.1 32.8v.1c.4 1.8-.5 3.1-1.9 4.1-.6.2-1 .8-1.6.8-.4 0-.4-.1-.4-.3.1.6-.5 1.3-.6 2l-.2.2c-.3 0-.5.2-.7.5-.2.3-.5.6-.9.1 0 0 0-.1.1-.1 0-.1 0 0-.1 0v.1c-.3.7-.4 1.4-1.4 1.6-.4.1.2.6-.2.8-.6.3-1.3.5-1.5 1.2-.1.2-.3.3-.5.3-.4 0-.7.2-.7.6 0 .2-.2.4-.5.4s-.4-.3-.4-.5c0-.8-.2-1.7.2-2.4.1-.3.1-.6.1-.9V93.6c0-1.1-.1-2.2-.1-3.3 0-.6.1-1.3.1-1.9v-22c0-.4.3-.6.8-.5-.3-.1-.6 0-.6-.3.4-.5 1-.2 1.5-.4 2.8-.1 5.6-.1 8.4 0 .1 0 .2.1.3.2.3.4.2.9.2 1.3v9.2c0 .5 0 1 .6 1.3.5.4.9.6 1.5.3.3-.1.6-.2.8-.1 1.4.4 2.8 0 4.1.1 1.7.1 3.5 0 5.2.1 1.1.1 2.2 0 3.3-.1 1.5-.1 2.9.1 4.4.2-.5-.1-1 0-1.5-.1.3-.6.9-.3 1.2-.5.3-.1.5-.4.8-.4.3.1.6.2 1 .1.1-.4-.5-.3-.5-.7 0-.2.1-.4.3-.4.3.1.4-.1.3-.4.5-1 1.3-1.8 2.1-2.6.6-.6.9-1.4 1.7-1.7.6.2-.1-.3.2-.3 0-.1.1-.2.3-.2.4.1 1-.4 1-.8 0-.2-.1-.3 0-.5.4-.6.5-1.2.5-1.9v-5.4c0-.5 0-1-.4-1.3l-1.8-1.8c-.1-.1-.2-.2-.3-.4-.3-1-.1-2-.1-3v-2.5c0-.7-.3-.9-.9-.9H53.9c-.5 0-.9 0-1.4-.1-.3-.1-.7-.1-.5-.6.9-1.8 1.8-3.5 2.8-5.3.2-.3.3-.6.5-.9.1-.1.2-.1.2-.1.3-.8.9-1.4 1.3-2.1.1-.2-.2-.3-.2-.4 0-.2.1-.4.2-.5.3-.2.4-.5.5-.8.3 0 .6-.1.8 0 23.3.1 46.6.1 69.9.1.5 0 .9.2 1.3.5.8.3 1.5.8 2.1 1.5 1.5 1.1 3 2.3 4.5 3.4.2.3 0 .6 0 1 .4-.4.8-.7 1.1-.5z"/>
  <path fill="#FEFEFE" d="M51.9 63.5v-5.1c.1-1.6 0-3.2 0-4.8 0-.7.3-.9.9-.9h.9c5.6 0 11.2-.1 16.9 0 20.4.3 40.8 0 61.2.1 1.3 0 1.4.1 1.4 1.4v1.5c.1 1.5 0 3 0 4.4 0 1.2.2 2.3-.4 3.5-.6.2-1.1.1-1.7.1-7.2 0-14.4.1-21.6 0-3.2-.1-6.3.1-9.5.1-.6 0-1.1 0-1.6-.3s-1.1-.2-1.7-.1c-.2 0-.4.1-.4.3 0 .5-.5.9-.5 1.4.1.4-.5.2-.7.5-.1.4-.5.3-.7.4-.9.2-1 .3-1 1.2 0 .4 0 .9-.2 1.3-.5.4-1.1.4-1.5.2.2.1.4.2.2.6h-.2c-.4-.2-.5 0-.5.4 0 .3-.3.4-.5.6-.2.3 0 .7-.3 1-.3.2-.6.2-.9.3-.3 0-.6-.1-.9-.1-.5-.1-.6.1-.7.6.1.6.1 1.2-.1 1.9-.1.2-.3.2-.6.3-.4 0-.9-.1-1.3.3-.2.2-.3.1-.4-.2.1-1.7-.1-3.4.1-5.1 0-1.6 0-3.1.1-4.7 0-.3 0-.6-.4-.6-.5-.3-1-.2-1.5-.2H53.1c-.3 0-.8.1-1.2-.3z"/>
  <path fill="#040404" d="M132.9 60.3v-4.4c.2-.8 0-1.6.1-2.5 0-.4-.2-.6-.6-.6H93.7c-13.5 0-26.9-.1-40.4-.1h-1.6c-.5-.1-.4.4-.7.7 0-.5.1-1 .1-1.4-.2-.1-.2.3-.3.2.1-1.4.4-1.6 1.3-1.2-.1.3.1.4.4.4h80.7c.7 0 1 .1.9.9-.1 1.7-.1 3.4-.1 5 0 .3 0 .6.2.9 0 .1-.1.2-.1.4 0 .1 0 .1-.1.2-.6.3-.6 1.1-1.1 1.5z"/>
  <path fill="#FCFCFC" d="M101.4 158.5c-2.3 2.2-6.9 1.8-8.9.5-.8-.5-1.3-1.2-1.6-2-.1-.4 0-.8-.1-1.3-.1-.4.1-.6.5-.8.5-.5 1-.9 1.7-1.2.4-.1.6-.4 1-.4h1.1c1.1 0 2 .5 2.9.8.7.2 1.4.4 2.2.5.9 0 1.3-.3 1.4-1-.2-.4-.5-.1-.8-.1-.1 0-.1 0-.2-.1-.1-.2-.1-.3-.2-.4 0 .2.3.3.1.5-.5.2-.8 0-1.1-.5-.1-.3 0-.6.2-.7.7-.4.7-1 .6-1.6 0-.3 0-.6.2-.9.3-.3.5-.2.6.2v2.1c0 .3 0 .6.4.6s.6-.3.5-.6c-.1-.9.3-1.9-.2-2.8-.1-.2 0-.4.3-.4s.7.1.7.4c-.1 1.9.5 3.9-.5 5.7-.1.2-.2.4-.5.4v.1c.7.5.5 1.2.5 1.9-.1.5-.3.9-.8 1.1z"/>
  <path fill="#FBFBFB" d="M51.7 52.7c.2-.4.5-.2.7-.2h79.8c.6 0 .8.1.8.8-.1.9 0 1.8-.2 2.6v-2.2c0-.4-.1-.6-.6-.6h-.7c-19.2 0-38.4.1-57.6-.1-7-.1-14 0-21-.1-.8 0-1.1.1-1 1 .1 1.3 0 2.7 0 4 0 .2 0 .3-.2.5.1-1.9.1-3.8 0-5.7z"/>
  <path fill="#FAFAFA" d="M98.6 65.2c.3.4.8 0 1.2.3-.1 0-.2.1-.2.1-.9-.2-1 .3-1 1.1V133c0 1.1-.6 2.2-.4 3.3 0 .2-.1.5.2.7h.2c.2-.2.2-.4.1-.7-.2-.5 0-.6.5-.4.5.2.9.3.9-.5 0-.2.1-.6.6-.5.5.1.6-.6 1.2-.5 0 0 .1 0 .1-.1.1 0 .2 0 .2.1l-1.7 1.7c-.1.2-.3.4-.5.5-.5.4-1 .9-1.4 1.4-.1.2-.2.3-.3.3-.6-.1-.4-.6-.4-1V92c0-.9-.1-1.9.1-2.8.2-.4.1-.9.1-1.4V66c0-.5 0-.9.5-.8z"/>
  <path fill="#FCFCFC" d="M101 150c-.7-.6-.5.2-.6.4-.1.3.1.6.1.9 0 .5.1 1-.6 1-.3 0-.2.4-.4.6-.5-.1-.4-.5-.4-.8v-2 2.5c-.1 1-1.3 1.6-2.1 1-.2-.2-.2-.4-.2-.6.3-1.4.1-2.8.1-4.3 0-.4 0-.8-.5-.8s-.6.4-.7.8c-.1 1.1 0 2.2 0 3.3 0 .5 0 1-.4 1.3-.4.2-.8.2-1.1.2-.2 0-.5.1-.7-.1-2.1-.1-2-.1-2.3-2.2-.1-.7.2-1.5-.4-2.1-.1-.1.1-.3.3-.3.3-.2.7-.1 1.1-.1 1 .2 1.1.4 1.1 1.4 0 .7-.1 1.4.1 2 0 .1 0 .1.2.2.2-1 .2-1.9 0-2.9-.1-.7-.1-.8.7-.6.3.3.4.6.3 1v2.9c.5 0 .3-.3.3-.5v-3.5c0-1.6 1.1-2.4 2.7-2 .3.1.5.2.8.3.3.1.4.2.5.5.3.7.8 1.1 1.7 1.3.1 0 .2.1.3.3 0 .2.2.5.1.9z"/>
  <path fill="#FDFDFD" d="M82.4 24.6c-.8-1-1-2.2-.5-3.4.4-1 1.3-1.4 2.4-1.2.7.1 1.5-.1 2.3-.2.2 0 .6-.3.7.1.1.4.4 1.1 0 1.4-.5.3-.3.6-.3.9 0 .9.1 1.9.2 2.8.1 1.8-1 2.4-2.4 2.5h-.9c-1.5 0-1.6-.1-1.1-1.6.3-.2.6 0 .9 0 .6 0 1.1-.1 1.4-.9-1.1.2-2.1.7-2.7-.4zm21.7-6.4c.6.8.7 1.7.2 2.6-.2.1-.5.1-.8.3-.6.6-1.2.9-2.1.8-.4 0-.6.1-.4.5.1.3.2.5.4.7.1 1.7.1 1.7-1.7 1.7h-.5c-.3-.1-1 .2-1-.2 0-.5-.5-1.3.4-1.6.2-.1.2-.3.2-.5v-2.9c0-.2 0-.4-.3-.6-.5-.3-.2-1-.2-1.5s.5-.2.8-.2c1.2 0 2.4.1 3.7.2.2.2.4.3.7.3.3 0 .5.2.6.4zm17.3 8.2c-1.2.6-2.5 0-2.7-1.3-.2-1 0-1.9.5-2.8.7-1.2 1.8-1.3 3.3-.4-.2-.4.5-.8-.3-1.1-.3-.1.1-.8.1-1.3.1-.4.5-.2.7-.1 1.7.2 1.7.2 1.5 1.9l-.6 3.7c0 .3-.2.4.2.7.4.2 0 .8 0 1.2 0 .4-.4.3-.6.2-.6-.2-1.4 0-1.9-.5 0-.2 0-.3-.2-.2zm11.9-3.3h-.1c-.1 0-.2-.2-.2-.2.5-.3.3-.8.4-1.3.7 0 1.3.3 1.9.3.4 0 .3.3.3.6-.3 1.3-.6 2.6-.9 4-.1.5-.5 1 0 1.6.2.2-.1.9-.2 1.4-.4-.1-.8-.1-1.1-.1-.2-.2-.5.1-.7-.2-.2-.1-.4 0-.5-.2-.2-.1-.3-.3-.5-.2-1.8 0-2.6-.8-2.4-2.7.1-1.8 1.2-2.9 2.7-2.7.5.1.8.5 1.3.5.2-.3.4.3.6-.1.2-.4-.6-.3-.6-.7zm-72.5.9c1.3-.2 1.7 0 2.1 1.3.2.6.2 1.5.6 1.7.5.3.5.7.7 1.1.1.3.1.5-.3.7-1.9.5-1.9.5-2.3-1.4-.1-.4-.2-.8-.4-1.2-.2-.5-.6-.4-.9-.1-.3.3.1 1.7.4 1.8.8.2.6.8.7 1.3.1.5-.5.3-.8.4-.3.2-.7.2-1.1.3-.3.1-.9.4-1 .1-.2-.4-.7-.9-.1-1.5.3-.3-.2-1.7-.6-1.9-.5-.3-.4-.8-.5-1.3-.1-.5.4-.3.7-.4.4-.2.9-.3 1.4-.4.5.4.8-.6 1.4-.5zm92.3 11.6c-.1-.2-.3-.1-.5-.2-.4-.2-1.1 0-1.2-.6-.1-.6.2-1.1.7-1.5.6-.4.8-1 .6-1.7-.1-.3 0-.6.1-.8.3-.8.5-.8 1.2-.5.4.2.7.4 1.1.5.5.1.5.4.3.7.3.1.5-.1.7-.1 1.4-.1 2.2.6 1.8 2.1-.1.4-.3.8-.4 1.2-.1.3-.4.6 0 1.1.2.3-.2.8-.4 1.2-.2.4-.5 0-.7 0-.2 0-.4-.1-.6-.2-.3 0-.6-.1-.9-.3-.3-.4-.1-.7 0-1 .2-.6.4-1.1.6-1.7.1-.2.1-.4-.1-.5-.3-.1-.4.1-.5.3-.2.4-.2.7-.1 1.1.2.8-.2 1.3-.8 1.5h-.1c-.3-.3-.6-.3-.8-.6zm-41.7-14c.3-.4-.1-1.1.4-1.3.4-.2 1 .1 1.5.1.4 0 .9-.1.7.6 1.7-.7 2.2-.6 2.9.4.2 1 0 2 .3 3v.2c0 1.3 0 1.4-1.3 1.3h-.9c-.5-.1-.6-.4-.5-.8.1-.6.1-1.3.2-1.9 0-.3 0-.6-.3-.6-.4 0-.3.3-.4.5 0 .3 0 .7.1 1 .2.4.3.8.1 1.2-.3.3-.6.4-1 .3-.5 0-1.1-.1-1.6-.1-.6 0-.6-.3-.6-.8-.1-.3 0-.6.1-.9.7-.7.7-1.4.3-2.2z"/>
  <path fill="#FCFCFC" d="M42.8 31.2c.3.7.4 1.5.8 2 .4.4.7.7.9 1.2.2.4.2.6-.3.8-.8.3-1.5.6-2.2.9-.6-.1-.3-.7-.6-1-.1-.1-.2-.2-.1-.3.7-1.1-.3-1.9-.5-2.9-.1-.4-.3-.7-.4-1-.1-.2-.2-.3-.4-.3-.2-.2 0-.4 0-.6-.3.8-.9.5-1.5.4-.1-.2-.2-.5-.4-.7-.1-.5.4-.4.6-.5 1.3-.5 2.5-1 3.8-1.5.6-.3.8-.1 1 .5.1.4.3.9.5 1.2.5.7.3 1.1-.5 1.3-.3-.1-.4-.5-.8-.9-.1.6.1 1 .1 1.4z"/>
  <path fill="#040205" d="M95.9 138.2c-.7.7-1.1.7-1.5 0-.1-.1-.2-.3-.1-.4.1-.8.1-.8-.8-.9h-.2c0-.2.3-.4 0-.7-.2-.2-.1-.5-.2-.7-.3.3-.6.8-1.2.4-.2-.2-.5-.3-.4-.7 0-.5.3-.2.6-.2s.2-.2.2-.4c-.1-.3-.4-.3-.6-.3-1 .3-1.2-.2-1.2-1.1 0-.6-.5-.9-.9-1.2-.2.3.1.4.2.5.2.2.5.4.2.7-.2.2-.6.2-.8-.1-.2-.3-.7-.6 0-1 .2-.1-.1-.5-.2-.5-1 0-1-.9-1.4-1.5-.3.4-.7.6-1.1.4-.4-.2-.6-.6-.4-1.2.3 0 .5.3.7.4.2-.9-.9-.9-1-1.6-.4.2 0 1-.7.7-.4-.2-.2-.6-.1-.9.2-.4-.2-.7-.2-1.1.1-2.1 0-4.1 0-6.2.1-.1.2 0 .2.1v-3.5c0-.3 0-.7.2-1 .1 0 .2 0 .3.1.1.2.2.4.2.6 0 3 .1 6 0 8.9 0 .3-.2.6-.1 1 0 .1 0 .1.1.2.1.2.3.4.4.6.1.1.1.2.2.3.2.4.5.7 1 .9.1.1.3.1.4.3.3.4.7.7 1 1.2.2.5.6.8 1 1l.3.3c.2.3.4.5.7.7.1 0 .1.1.2.2.1.2.3.4.6.5 1.1 1 2.2 2.1 3.3 3.2l.7 1 .6.6c0 .1.1.1.1.2s-.1.2-.1.3c-.1-.2-.2-.2-.2-.1z"/>
  <path fill="#FCFCFC" d="M68.8 27.7c-2 .7-3.4.1-3.9-1.5-.4-1.1-.2-2.1.6-3 .1-.2.3-.3.5-.4.2-.1.3-.1.5-.2s.5 0 .7-.1c2.5.2 3.6 2.1 2.6 4.4-.2.5-.5.8-1 .8zm10.8-2.2c-1.9 1.3-3.4.6-4.3-.5-.2-.2-.2-.6-.3-.9-.1-.5-.2-.9 0-1.4.5-1.5 1.3-2.1 2.8-2.1 1.2 0 2.1.6 2.5 1.7.3.8.2 1.6-.1 2.4-.1.5-.3.7-.6.8zm69.7 8.6c-.7-.3-1.3-.7-2.1-.7-.6 0-1-.4-1.4-.9-.5-.8-.4-1.3.4-2 .3-.1.6-.1.8-.3.6 0 .9.3 1.1.9 0 .1-.1.1-.1.2-.2.3-.2.5 0 .8.1.1.2.2.4.2.3-.1.4-.4.4-.7v-.4c.1-.2.2-.4.5-.3.5-1.3.4-1.5-1.1-1.4-.4 0-.8-.3-1.2-.5-.2-.1 0-.3.1-.4.6-.6 1.3-.5 2-.3s1.4.5 2.1.9c.9.5.6 1.3.4 2-.2.7-.4 1.4-.3 2.2.1.4-.1 1-.5 1.2-.7.2-1.2-.1-1.5-.5z"/>
  <path fill="#FBFBFB" d="M49.6 33.2c-.2.1-.5.2-.7.3-.2.3-.6 0-.9.2-.5.3-1 .1-1.4-.3-1-1-1.7-2.1-1.2-3.6.3-1 1.4-1.7 2.4-1.6.9.1 2.1 1 2.3 1.9.1.3-.2.3-.3.4-.6.6-1.5.5-2.2 1 .3.5.6.8 1.1.2.4-.5 1-.5 1.6-.4.3.4-.1.7-.1 1 .2.6-.2.7-.6.9z"/>
  <path fill="#FAFAFA" d="M51.9 63.5H84c.5 0 1.1-.1 1.4.5H52.6c-.3.1-.9.3-.7-.5z"/>
  <path fill="#FDFDFD" d="M74.3 26.6c-.6.1-1.3.3-1.9.3-.3 0-.7.2-.8 0-.1-.5-.5-1-.1-1.4.2-.2.2-.4.2-.6-.2-1.1-.3-2.1-.5-3.2-.1-.6-.8-.9-.7-1.6 0-.3 0-.5.4-.5 2-.3 1.9-.3 2.2 1.7.2 1.1.4 2.3.5 3.4 0 .4.7.4.6.9 0 .3.4.6.1 1z"/>
  <path fill="#FCFCFC" d="M141.9 29.5c-.2.7-.2 1.5-.6 1.9-.4.3-1.1-.3-1.8-.3-.2 0-.4 0-.5-.1-.1-.3.2-.6.2-.9 0-.3.1-.5.2-.7.4.1.6-.1.8-.5l.9-2.9c.1-.2.3-.5-.1-.8-.3-.2.1-.9.3-1.3.1-.4.4-.1.6 0 1.8.5 1.8.5 1.2 2.3 0 .2-.1.3-.1.5.1.9-.4 1.7-.7 2.5 0 .2-1-.4-.4.3zm-33.2-4.4c-2.6.5-4-1.3-3.2-3.8.3-.9 1-1.5 2-1.7 1.3-.1 2.1.4 2.7 1.5.3.2.3.5.4.8.1.8-.1 1-.9 1-.5 0-1 0-1.4-.1-.6-.1-.7.2-.6.7.1.8 1 .9 1 1.6zm-56 1v.2c.3.2.3.5.3.8-.3.7-.4 1.3.4 1.7.2.1.3.3.4.5.2.3.1.6.2.9.3 1.3.3 1.3-1.1 1.8-.3.1-.8.4-.9.2-.1-.5-.8-.9-.2-1.5.2-.2 0-.4 0-.5-.3-1-.7-2-1-3.1-.1-.3-.2-.3-.5-.4-.5-.2-.5-.8-.6-1.2-.1-.4.4-.3.6-.4.2-.1.4-.1.6-.2.7-.3 1.2-.4 1.4.5.4 0 .4.3.4.7zm86 1.5c-.4.6-.3 1.2-.2 1.8-.1.3.1.7-.3.9-.9.2-1.7-.4-2.5-.6-.2-.1.1-1.2.4-1.5.6-.5.8-1.2.6-1.9-.2-.6.1-1 .3-1.4.2-.3.6 0 .9.1.3.1.6.2 1 .3.4.1.3.3.3.6-.2.3.1.8-.3 1 0 0-.1.1 0 .1-.2.2 0 .4-.2.6z"/>
  <path fill="#FDFDFD" d="M128.3 23.1c-.1.6-.2 1.2-.4 1.7-.3.9.1 1.7-.1 2.6-.1.5-.3.5-.7.4-.3-.1-.7-.2-1.1-.2-.4-.1-1-.2-1-.3.2-.5 0-1 .5-1.5.5-.4.6-1.3.4-1.9-.3-.6 0-1 .1-1.4 0-.1.1-.2.1-.2.7.1 1.4.3 2.1.5.2 0 .1.2.1.3zm-37.4-1.9c-.2 1 .3 1.9.4 2.9.1.5-.1.7-.6.7-.4 0-.7.1-1.1 0-.3 0-.9.3-.9-.2 0-.4-.4-.9.1-1.5.4-.4.2-1.4-.1-1.8-.4-.6-.2-1.2-.4-1.7.6-.4 1.2-.4 1.9-.4.5 0 .8.3.6.8 0 .5.3.9.1 1.2z"/>
  <path fill="#FAFAFA" d="M53.8 29.3c-.4-.1-.4-.6-.9-.7-.4-.1-.4-1.1.1-1.5.4.1.3.5.5.7.1.2.2.5.4.8.2-.5.4-.9-.2-1.3-.6-.5-.4-1.1.3-1.2.3-.1.6-.2.9-.2.3 0 .7-.5.9-.1.2.4.6.8 0 1.3-.6.6-.2 1.5.8 1.9.8.3.8 1.1.7 1.4-.1.4-.9.6-1.4.5-.6-.1-1-.6-1.4-1-.3-.2-.6-.3-.7-.6z"/>
  <path fill="#030303" d="M149.3 34.1c.4.1.9.3 1.3.4.1-.6.6-1.1.1-1.9-.2-.3.3-1 .5-1.6.2-.7.2-1.3-.2-1.8.4-.2.7-.6 1.3-.4-.9.4.3 1.5-.8 1.9.7 0 .7 0 .8-.5.1-.3.1-.7.5-.8.6-.1.8.4 1.2.8-.3.1-.7-.4-.8 0-.2.4-.7.8-.3 1.4.2.3-.3 1.8-.6 1.9-.8.1-.6.8-.8 1.2-.1.2.2.2.3.3.2.1.5.2.8.3-.6 0-1.1 0-1.7.1-.3.1-.5-.1-.6-.3-.5-.7-.5 0-.7.3-.3-.3-.3-.8-.3-1.3z"/>
  <path fill="#FBFBFB" d="M141.9 29.5c-.2-.1-.5.1-.5-.2 0-.1 0-.4.2-.4.3-.2.3.2.5.2.3-.1.5-.4.7-.5.3-.2.4-.4.3-.7-.1-.4 0-1 .6-1.1.5.2 1 .3 1.5.5.2.1.7 0 .6.4-.1.4.1.9-.7 1-1.1.1-1.2 1.1-.4 2.2.3.9 0 1.4-.7 1.5-.9-.2-1.3-.8-1.5-1.7-.1-.4-.1-1-.6-1.2z"/>
  <path fill="#140118" d="M85.6 116.1h-.1c-.1-.1-.2-.2-.2-.3-.1-.2-.2-.5 0-.7.3-.3.2-.6.2-.9 0-1.9-.2-3.8 0-5.7.2-2.2 0-4.5 0-6.8v-8.1c0-.9 0-1.7-.2-2.5.1-.1.1-.3.1-.5-.1-3.8 0-7.5 0-11.3 0-.4 0-.7.2-1.1V78c-.3-.4-.3-.9-.2-1.4.3-.4-.4-.5-.2-.9.1-.4.3-.3.6-.2.2.2.2.5.2.7v14.1c-.1.3-.1.7-.1 1v11.3c.1 3.3-.1 6.5 0 9.8-.1.9 0 1.7 0 2.6 0 .2 0 .5-.1.7-.1.3-.1.3-.2.4z"/>
  <path fill="#040404" d="M107.4 23.9c-.1-.2-.2-.4-.2-.7 0-.4.1-.6.6-.5.6.1 1.2.1 1.8.2.7.1.8-.1.7-.7-.1-.3-.1-.6-.2-.9.1-.1.3-.1.2-.3 0-.1-.2-.2 0-.3.1-.1.2 0 .3.1.2.4.4.8.9.8.6.4.7 1.8 0 2.2-.4.2-.1.6-.4.9-.4-.1-.8-.2-1.2-.4-.5-.4-1-.7-1.7-.3-.3.2-.6.2-.8-.1z"/>
  <path fill="#010306" d="M85.6 78.2c0 3.1.1 6.3 0 9.4 0 1.1.4 2.4-.3 3.5-.7-3.9-.2-7.8-.3-11.7-.1-.5.1-.9.6-1.2z"/>
  <path fill="#060606" d="M90.9 21.2c-.3-.5.3-1.5-.6-1.7-.6-.1-1.3.1-2 .2.1-.3-.9 0-.3-.5.1 0 0-.3 0-.3-.8-.7 0-1.2.2-1.7s.7-.3 1.1-.1c.1.2-.1.3-.2.4-.3.3-.4.6-.1 1 .3.3.7.4 1.1.1.4-.3.5-.6.2-1-.1-.1-.2-.3-.2-.4-.1-.6.5-.6.7-.7.4-.1.5.3.5.6 0 0-.1 0-.1.1.1 0 .1 0 .1-.1.4.2.5.4.3.8-.2.5-.4 1-.3 1.6 0 .2.5.3.1.5.3.5-.7.1-.3.6.2.3.3.7.2 1.1-.2-.1-.3-.3-.4-.5z"/>
  <path fill="#070707" d="M143.5 77.4c.6-.5 1.1-1.1 1.7-1.6.3-.3.3-.6.3-.9v-6.4c.6.2.5.7.4 1.1-.2 1.2 0 2.4-.1 3.6 0 .3 0 .6-.2.8v.7c0 .5-.1 1 .8.8-.8.8-1.8 1.3-2.3 2.2-.2.3-.6.2-.6.6 0 .1-.3.2-.1.4.2.1.3.3 0 .5-.1.1-.2.2-.4.1-.4-.2.1-.4-.1-.6-.8.6-1 1.8-2.1 2.3.1-.3.4-.6-.1-.8.6-.6 1.2-1.2 1.7-1.8.4-.6.6-.9 1.1-1z"/>
  <path fill="#040404" d="M145.7 74v-5.1c0-.1-.1-.3-.1-.4v-6.2c.2.1.2.3.3.8 0-.6 0-.9.1-1.3.2 4.1.3 8.1.1 12.1-.2.1-.3.1-.4.1z"/>
  <path fill="#060606" d="M94 148.9c-.3 0-.6-.2-.4.5.3 1 .1 2.1.1 3.1 0 .2-.2.3-.4.3-.3 0-.4-.1-.4-.4 0-.7-.1-1.4 0-2 .1-.8-.2-1.4-.9-1.7.2-.2.8-.1.3-.7-.1-.1.2-.1.3-.1.6.1 1.3.1 1.4 1z"/>
  <path fill="#050505" d="M103.4 155.5c.2-.3.5-.4.8-.5.3-.1.8-.3.4.4-.1.3.2.4.3.4 1.2 0 .4.8.5 1.2.1.6-.4.4-.8.4s-.8-.6-1.3-.1c-.1.1-.2-.6-.6-.5.2-.8.4-.8 1.5-.5-.2-.4-.8-.4-.8-.8z"/>
  <path fill="#1D0A03" d="M98.1 119.3v18c0 .3-.2.6.2.8 0 .3.1.6-.2.9-.1.1-.1.1-.2 0v-.7c-.3-.3-.2-.7-.2-1.1-.1-5.6 0-11.1 0-16.7 0-.4-.2-.9.4-1.2z"/>
  <path fill="#050505" d="M144 32.4c.7-.3.6-1 .7-1.5.2-.3.3-.9.9-.4.2.2.6-.4 1-.1 0 .2-.1.3-.3.3-.7.5-.7 1.2-.5 1.9-.6.3-1.3.5-1.8-.2z"/>
  <path fill="#0B0B0B" d="M114.2 25.4c0-.5.2-1-.3-1.5-.2-.2 0-1 .2-1.5.1-.2.4-.3.7-.2.3.1.4.4.4.7l-.3 2.3c-.1.4 0 .6.3.7-.3.2-.6 0-.9-.2-.2-.1-.2-.2-.1-.3z"/>
  <path fill="#040404" d="M145.5 60.7c-.2-2-.1-4-.1-6v-1.4c.3.3.1.8.2 1.1.1.3-.3.9.5.8 0 0 .1.1.1.2-.1.9-.2 1.8-.2 2.7h-.2v-1.7c.1.9-.7 2 .4 2.7.2.1.1.4-.1.5-.3.2-.4.4-.4.7-.2.1-.2.2-.2.4z"/>
  <path fill="#050505" d="M134 87c.8-.9 1.7-1.8 2.6-2.6.1.2.2.4 0 .6-.2.3-.4.5.2.4.2 0 .1.2 0 .3-.2.3-.4.4-.8.5-.4.1-1.1-.1-.8.9.2.4-.3.6-.7.4-.2-.1-.2-.5-.5-.5z"/>
  <path fill="#F7F7F7" d="M90 17.2c.4.3.8.5.6 1.1-.1.5-.6.7-1.1.7-.5 0-.9-.2-1-.8-.1-.6.4-.9.8-1.1.3.1.5.1.7.1zm38.4 3.2c.4.6.4 1.1-.2 1.5-.5.3-1.4-.1-1.6-.6-.2-.7.2-1 .8-1.2.4-.3.8-.1 1 .3z"/>
  <path fill="#050505" d="M154.1 36c.6-.5.7-1.1.4-1.6-.2-.3.4-1.6.7-1.7.5-.1.8.2.6.7-.2.7-.5 1.3-.7 2-.1.3-.3.6-.2.9-.3.2-.6 0-.8-.3z"/>
  <path fill="#F9F9F9" d="M139.7 23.7c0 .6-.4.9-.9.9-.6 0-1.1-.2-1.2-1 0-.6.4-.8.9-.8.7-.1 1.2.2 1.2.9z"/>
  <path fill="#070707" d="M53.9 26c-.5.1-.5.4-.4.9.2.5.4.6.9.3-.2.7-.4 1.3-.7 2.1-.3-.9-.6-1.5-.9-2.2-.1-.3-.1-.6-.2-.8.4-.3.6-.6.3-1.1-.2-.3-.1-.6.2-1.2.2.8.3 1.5.8 2z"/>
  <path fill="#0A0A0A" d="M82.4 24.6c.9.6 1.8.6 2.8 0 .1 1-.2 1.5-1.2 1.6-.4 0-.8-.1-1.3-.2.1-.3.2-.7-.3-.9-.2-.1-.1-.3 0-.5z"/>
  <path fill="#F5F5F5" d="M103.4 155.5c.5.3 1.1.4 1 1.3-.6-.3-1.3-1-1.8 0-.1.2-.1.6-.5.5.1-.4-.5-.8 0-1.1.1-.1-.1-.2-.2-.2-.5 0-.4-.3-.3-.6h.1l.1.1c.5.3 1-.3 1.6 0z"/>
  <path fill="#0A0A0A" d="M50.5 31.3c-.6.2-1.5-.1-1.7.9-.1.2-.4.2-.6.1-.4-.2-.6-.5-.6-.9 0-.2.2-.2.4-.3.7-.2 1.3-.4 2-.7.2.4.3.6.5.9z"/>
  <path fill="#F6F6F6" d="M103.4 132c.4.4.7 0 .8-.2 0-.9.4-.5.8-.3-.4.4-.7.8-1.1 1.2-.1.3-.2.5-.5.5-.3.3-.7.6-1 .9-.2 0-.4.1-.5.2-.1-.2-.5-.3-.3-.6.1-.2.4-.2.7-.2.4 0 .8-.5.8-1-.1-.4.1-.5.3-.5zm-65-101.5c.1 0 .2-.1.3-.1.6 0 1.2.1 1.4-.7-.1.3-.1.7-.2 1-.5.3-.1.7 0 1 .1.3.2.6-.2.7-.3.1-.6.2-.7-.3-.2-.6-.4-1.1-.6-1.6z"/>
  <path fill="#1D0A03" d="M97.3 138c-.1.1-.2.2-.2.3H97l-.2-.2c-.1-.2-.1-.5-.1-.7-.1-3.2 0-6.4 0-9.6v-.8c0-.3 0-.5.2-.7.1 0 .2 0 .3.1.3.5.3 1 .3 1.5-.2 3.1-.1 6.1-.1 9.2 0 .3.3.6-.1.9z"/>
  <path fill="#F7F7F7" d="M105.1 131.3c0-.4-.3-.9.3-1.3.2-.2.2-.8.2-1.3.4.9.9.6 1.4.2.2-.2.4-.5.7-.2-.8.9-1.7 1.8-2.6 2.6z"/>
  <path fill="#080508" d="M85.8 75.7c-.2 0-.4 0-.5.2-.7 0-.3-.5-.3-.7.1-.3.4-.5.1-.9-.1-.1-.1-.2 0-.3.8-.2.5-.9.4-1.3-.2-1.1.1-2.2.2-3.3 0 1.8 0 3.5.1 5.3.3.3.3.7 0 1z"/>
  <path fill="#F3F3F3" d="M107.4 23.9c.4.1.7.1 1-.2.4-.4.9.1 1.4.1.3 0 .1.3.1.5-.4.3-.7.7-1.2.8-.4-.4-.9-.8-1.3-1.2z"/>
  <path fill="#0A0A0A" d="M143.6 26.7c-.6 1-.6 1.1.1 1.5-.6.4-.9 1-1.6 1 .3-.9.6-1.7.9-2.6.2-.1.5-.4.6.1z"/>
  <path fill="#080808" d="M131.5 43c-.7-.4-1.4-.9-2.1-1.5.6-.2 1.2-.1 1.7-.1.2 0 .2.2.2.3 0 .4-.1.7.3.9.3.1-.1.2-.1.4z"/>
  <path fill="#070308" d="M85.3 115.1c.1.2.1.5.2.7-.2 1.1 0 2.1-.1 3.2 0 .5.1 1.1-.1 1.6-.1.1-.1.1-.2 0h-.2v-5.2c0-.4.1-.5.4-.3z"/>
  <path fill="#080808" d="M129.4 91.1c.8-.2 1.1-1 1.7-1.4 0 .5.5 1.3-.2 1.4-.6.1-.9.5-1.4.6-.4 0 .2-.4-.1-.6z"/>
  <path fill="#F7F7F7" d="M56.6 42.3c.2.1.4.1.8 0-.6.5-.5 1.2-1.2 1.4-.3.1-.4.6-.3.9 0 .6-.3.4-.6.2.4-.8.8-1.7 1.3-2.5z"/>
  <path fill="#F5F5F5" d="M139.5 49.1c-.3.3-.5-.1-.7-.2-.4-.3-.7-.6-1.1-.1-.1.1-.3.1-.3 0 0-.5-.8-.8-.2-1.4.9.5 1.6 1.1 2.3 1.7z"/>
  <path fill="#F6F6F6" d="M101 22.3c-.3-.5.1-.6.4-.6.9.2 1.5-.2 2-.9.3-.4.6-.2.9-.1-.3.8-1 1-1.7 1.1-.5 0-.9.1-1.4.1-.1.1 0 .3-.2.4z"/>
  <path fill="#F4F4F4" d="M143.3 51.9c-.5.1-1.2-.1-1.6-.5h-.1c-.2.2-.4.2-.4-.1-.1-.4.3-.2.5-.3.1 0 .1-.1.2-.2.3.2.6.3.9.5.2 0 .5.1.5.6z"/>
  <path fill="#02030E" d="M97.3 138c.2-.2 0-.5 0-.7-.2-.9 0-1.8-.1-2.7 0-.2 0-.4.3-.4.2 0 .3.2.3.4v2.8c0 .3.1.7-.2.9-.2 0-.3-.1-.3-.3z"/>
  <path fill="#01050D" d="M96.9 138.4h.2c.6.7-.2.9-.5 1.3-.1.1-.3 0-.3-.1.1-.5-.4-.9-.4-1.3v-.2c.5-.4.6.3 1 .3z"/>
  <path fill="#070707" d="M46.7 33.4l1.4.3c0 .2-.1.4-.3.4-.7 0-1.4.1-2-.2.4 0 .7-.2.9-.5z"/>
  <path fill="#050505" d="M102.1 157.4c.2-.2.3-.4.5-.5.3 1.1-.2 1.9-1.2 1.7.2-.5.6-.7.7-1.2z"/>
  <path fill="#F4F4F4" d="M149.2 31c-.1.1-.3.2-.4.3-.3.2-.5.1-.7-.2-.3-.4-.7-.6-1-.8.8-.3 1.5.2 2.1.7z"/>
  <path fill="#141414" d="M42.8 31.2c-.2-.3-.3-.7-.5-1-.1-.2-.1-.4.2-.5.2-.1.4 0 .4.2.1.3.3.6.4.9-.2 0-.4.1-.5.4z"/>
  <path fill="#080808" d="M100.7 149.1c-.2-.1-.3-.2-.5-.1-1.1.2-1.6-.3-1.6-1.4.3.4.3.4.4 1 0 .3.2.2.4.2.6-.1 1.3 0 2-.3-.2.3-.6.3-.7.6z"/>
  <path fill="#F2F2F2" d="M137 47.2c-.1 0-.2.1-.2 0-.4-.1-.5.7-.9.3-.4-.4.1-.8.1-1.2.3.3.7.6 1 .9z"/>
  <path fill="#0B0B0B" d="M117.2 24.4c-.4 0-.4-.2-.3-.5v-2.5c.1 0 .4 0 .4.1-.5.9 0 1.7.2 2.5 0 .2-.2.2-.3.4zm26.1 27.5c-.2-.2-.5-.4-.7-.6.2-.3.4-.6.7-.4.3.3.6.7.3 1.2-.1-.1-.2-.2-.3-.2z"/>
  <path fill="#080508" d="M85.4 76.7c.1.5.1.9.2 1.4-.5.1-.8-.2-.6-.6.1-.3-.3-.9.4-.8z"/>
  <path fill="#090909" d="M60.8 24c-.2.1-.4.2-.5.3-.3.5-.7.6-1.1.1 0-.2.1-.3.3-.2.3 0 .4-.2.4-.4.4-.1.7 0 .9.2z"/>
  <path fill="#F6F6F6" d="M133.3 23.1c.1 0 .1.1.2.1.3 0 .6-.1.6.3.1.3-.2.5-.3.6-.4.4-.3-.4-.6-.2 0-.2.1-.5.1-.8z"/>
  <path fill="#0B0B0B" d="M128.4 20.4l-1-.3c.2-.2 0-.8.5-.7.4.1.7.5.5 1z"/>
  <path fill="#F6F6F6" d="M138.9 82c.1-.3-.6-.5-.1-.8.3-.1.6-.6.9-.1-.2.4-.5.7-.8.9z"/>
  <path fill="#090909" d="M91.3 154.9c-.4.6-.5 1.3-.4 2.1-.1-.5-.3-1-.4-1.5 0-.5.3-.7.8-.6z"/>
  <path fill="#F0F0F0" d="M133.4 21.6c.4.6.2 1-.2 1.5-.6 0-.2-.4-.2-.6 0-.3 0-.7.4-.9z"/>
  <path fill="#0B0B0B" d="M54.5 29.8c.5.2 1 .6 1.4 1-.7.2-1.3-.3-1.4-1z"/>
  <path fill="#080808" d="M137.3 83.7c.2-.3.5-.6.9-.9v.3c.2.4-.1.7-.3.9-.3.3-.4-.3-.6-.3z"/>
  <path fill="#050505" d="M153.1 35.6c.3 0 .6.2.9.3-.4.2.5.6-.1.6-.5.1-.8-.4-.8-.9z"/>
  <path fill="#070707" d="M49.6 33.2c.3-.3.5-.6.8-.9.1.1.4-.2.3.1-.1.3 0 .9-.6.8-.1.1-.3 0-.5 0z"/>
  <path fill="#0B0B0B" d="M38.6 29.3c-.1.2-.6.1-.6.5-.2-.2-.6-.4-.3-.8.5-.5.6.2.9.3z"/>
  <path fill="#101010" d="M68.8 27.7c.3-.3.6-.5.9-.8 0 .9-.1 1.1-.9.8z"/>
  <path fill="#0D0D0D" d="M101 22.3c.1-.1 0-.3.2-.3.1.2 0 .5.4.6.5.2 0 .3 0 .4-.7.1-.6-.4-.6-.7z"/>
  <path fill="#F4F4F4" d="M141.4 50.5c-.5.4-.7-.1-1-.3-.2-.2.1-.2.1-.4.4.2.7.3.9.7z"/>
  <path fill="#01050D" d="M97.9 139h.2c-.1.2.3.5-.1.7-.1.1-.3 0-.4-.1-.1-.3 0-.5.3-.6z"/>
  <path fill="#080808" d="M41.4 35.1c.4.2.3.7.6 1-1.1.2-.5-.6-.6-1z"/>
  <path fill="#0A0A0A" d="M79.6 25.5c.2-.2.4-.4.5-.7.2.2.4.4.3.6-.2.3-.5 0-.8.1z"/>
  <path fill="#080808" d="M75 22.8v1.4c-.2-.5-.7-.9 0-1.4z"/>
  <path fill="#0A0A0A" d="M138.2 30.3c0-.3.1-.6.3-.9.1.4.5.9-.3.9z"/>
  <path fill="#0B0B0B" d="M138.7 27.6c0-.2 0-.4.2-.5l.1.1c.2.2.5.3.4.6-.3.3-.5-.3-.7-.2z"/>
  <path fill="#0A0A0A" d="M103.4 133.2c.1-.2.3-.4.5-.5.2.3.2.5-.1.7-.2.2-.3-.1-.4-.2z"/>
  <path fill="#070707" d="M52.7 26.1c-.2-.3-.3-.6-.3-.9.5.1.6.2.3.9z"/>
  <path fill="#080808" d="M74.3 26.6c0-.3-.1-.7-.1-1h.1c0 .1 0 .3.2.3 0 .2.7.6-.2.7z"/>
  <path fill="#0B0B0B" d="M138.9 26.9c0-.4.1-.7.3-1 0 .2.1.4.1.7 0 .1 0 .5-.4.3z"/>
  <path fill="#111" d="M101.1 136.5c0 .1-.1.3-.3.3-.2 0-.3-.1-.2-.3 0-.2.1-.3.3-.3.1 0 .2.1.2.3z"/>
  <path fill="#050505" d="M154.9 36.3c.3 0 .6.1.9.3-.6.7-.7 0-.9-.3z"/>
  <path fill="#01050D" d="M97.6 138.3v-.9c.1-.1.1-.3.3-.2v1c-.1.1-.2.1-.3.1z"/>
  <path fill="#0D0D0D" d="M67 148.7c-.2-.1-.5.2-.7-.1 0-.1.1-.3.1-.3.4-.2.5.2.6.4z"/>
  <path fill="#0B0B0B" d="M65.2 22.6c-.2-.1-.5-.2-.4-.5.1-.1.3-.2.4-.1.5.3 0 .4 0 .6z"/>
  <path fill="#040404" d="M146 73.8c.3.6.1 1-.1 1.4-.2-.4.2-.8.1-1.4z"/>
  <path fill="#050505" d="M105.1 154.8c.2 0 .4.1.4.3 0 .1-.1.2-.1.2-.2 0-.3-.2-.4-.3-.1-.2 0-.2.1-.2z"/>
  <path fill="#F7F7F7" d="M57.4 41c.2.5 0 .7-.5.8.1-.3.2-.6.5-.8z"/>
  <path fill="#0B0B0B" d="M53.8 29.3c.3.1.5.2.7.5-.2 0-.4.1-.4.4l-.3-.9z"/>
  <path fill="#080808" d="M98.6 147.6l-.5-.5c.1-.1.2-.2.3-.4 0 .3.4.5.2.9z"/>
  <path fill="#EAEAEA" d="M114.2 25.4v.3c-.3 0-.6 0-.9-.1.3 0 .5-.5.9-.2z"/>
  <path fill="#EFEFEF" d="M103.6 17.6c-.4.2-.6.2-.7-.3.3.1.5.1.7.3z"/>
  <path fill="#030303" d="M153 28.9s.1.1.1.2c0 .2-.2.2-.3.2-.1 0-.2-.1-.2-.2 0-.2.1-.2.4-.2z"/>
  <path fill="#0B0B0B" d="M67.1 22.5c-.2.2-.4.2-.7.1.2-.1.4-.3.6-.4.1-.1.2-.1.3 0 0 .1-.1.2-.2.3z"/>
  <path fill="#FDFDFD" d="M131.1 14.5c.4-.2.7-.2 1 .2-.3.1-.6-.1-1-.2z"/>
  <path fill="#070707" d="M50.4 34c-.1.2-.2.3-.3.2-.1 0-.2-.2-.3-.3.1 0 .2-.1.3-.1.2 0 .3.1.3.2z"/>
  <path fill="#080808" d="M75 24.2c.2.3.3.5.3.9-.3-.3-.6-.5-.3-.9z"/>
  <path fill="#0B0B0B" d="M66 22.8c-.2.1-.4.2-.5.4-.1-.2-.1-.4-.2-.6.2.1.4.1.7.2z"/>
  <path fill="#252525" d="M93.3 153.4h.7v.1c-.3.1-.7.1-1 .2l.3-.3z"/>
  <path fill="#090909" d="M59.9 23.8c-.1 0-.3.3-.4 0-.1-.2.2-.3.3-.3.2 0 .1.2.1.3z"/>
  <path fill="#0B0B0B" d="M49 121.7c-.1-.2-.2-.4-.2-.6.1 0 .3-.1.3 0 .1.3.1.5-.1.6z"/>
  <path fill="#101010" d="M132.7 29.1c.2 0 .5-.1.7.2-.2 0-.6.6-.7-.2z"/>
  <path fill="#040404" d="M145.7 60.3c.4.1.3.4.3.7-.3-.2-.2-.5-.3-.7z"/>
  <path fill="#0A0A0A" d="M139 30.9c.2 0 .4-.1.5.1-.1.3-.1.3-.5-.1zm.4-1.6c0 .2 0 .5-.2.7-.4-.4.1-.5.2-.7z"/>
  <path fill="#FEFEFE" d="M101.9 134.2c.1-.1.2-.6.5-.2l-.2.2h-.3z"/>
  <path fill="#080808" d="M42.4 36.4c0 .4-.2.4-.4.5.1-.3.3-.3.4-.5z"/>
  <path fill="#070707" d="M49.6 34c-.2 0-.2-.1-.2-.2s.1-.1.2-.1.2.1.2.2c.1.1-.2 0-.2.1z"/>
  <path fill="#101010" d="M144.7 26.6c.4-.3.6-.1 1-.2-.4.2-.6.1-1 .2z"/>
  <path fill="#080808" d="M74.5 25.9c.3-.3.5-.1.6.3-.3-.2-.4-.2-.6-.3z"/>
  <path fill="#111" d="M100 136.5l.5-.5c-.1.2 0 .6-.5.5z"/>
  <path fill="#070707" d="M52.6 24.1c0 .1.1.2.1.3 0 .1-.1.2-.1.1-.1-.1-.1-.2-.1-.3 0 0 0-.1.1-.1z"/>
  <path fill="#EFEFEF" d="M104.1 18.2c-.2-.1-.4-.3-.5-.5.3 0 .5.1.5.5z"/>
  <path fill="#F5F5F5" d="M121.4 26.4c.1-.1.2-.4.4-.2s0 .3-.2.4l-.2-.2z"/>
  <path fill="#F4F4F4" d="M146.3 30.6l.3-.3h.5c-.2.3-.5.4-.8.3z"/>
  <path fill="#101010" d="M132.2 29c.2 0 .4 0 .5.2-.2 0-.5.2-.5-.2z"/>
  <path fill="#080808" d="M74.3 25.5c.2-.2.4-.2.7-.1-.2.2-.5.1-.7.1z"/>
  <path fill="#101010" d="M131.7 28.8c.3-.2.5-.2.5.2-.2-.1-.4-.2-.5-.2z"/>
  <path fill="#1D0A03" d="M98.3 138.2l.3-.3c0 .1.2.2 0 .4-.1 0-.2-.1-.3-.1z"/>
  <path fill="#070707" d="M48.1 33.7c.3-.2.6-.1.9-.2-.3.4-.6.2-.9.2z"/>
  <path d="M132.9 60.3c.2-.1.1-.4.2-.5.2-.3-.1-1.1.7-.8 0 0 .2-.3.3-.4.2.1.4.2.4.4.1.9.7 1.1 1.5 1 .4.2.6.6.6 1 0 2.3 0 4.5.1 6.8 0 .6-.5.9-.7 1.3-.1.6-.6.9-1 1.2-.1 0-.2.1-.2.2-.1.1-.1.2-.2.3-1.3 1.4-2.6 2.8-3.8 4.3 0 .2-.2.3-.3.4-.2.1-.3.2-.3.4-.1.3-.1.6-.5.6-.2.2-.3.4-.5.5-2 .3-4.1.3-6.1.3-3.2 0-6.4.1-9.6.1-1 0-2-.2-3 0-.3.1-.6-.1-.8-.2-.7.1-.8-.3-.8-.9v-10c0-.3 0-.7-.1-1l-.1-.1v-.1c.2-.2.5.1.6 0-.2-.1-.4-.2-.3-.5.2-.1.5-.1.7-.2h21.4c.4 0 .8.1 1.2-.2.1-.1.2-.2.4-.3 0-1.3.1-2.5.2-3.6z"/>
  <path fill="#080606" d="M117.6 64.4h-2.4c-1-.1-2.1-.1-3.1 0h-1c-.5-.1-1-.1-1.5 0-.2.1-.3.1-.5 0-.1.2-.2.4-.3.5v.2h-.2c-.5-.6-1.1-.7-1.8-.5-.9.2-1.8-.1-2.7-.1-1.6 0-3.2.2-5 .2.4.3.8.1 1 .4-.5 0-.9.1-1.4.1-.6-.1-.2.4-.4.5-.1 1.9-.1 3.7-.1 5.6.1 2.7.1 5.3 0 8-.1.1-.2.1-.3 0-.3-.8-.1-1.7-.1-2.6V75c-.1.6.2 1.3-.2 1.9-.1.1-.3.1-.4 0-.3-.5-.2-1.1-.1-1.6.2-.5.2-1.1 0-1.6-.1-.9 0-1.8 0-2.7 0-2.3-.1-4.6 0-6.9 0-.1.1-.2.1-.3.1-.1.3-.2.5-.2 2.4-.1 4.8 0 7.2 0h11.7c.3 0 .7 0 1 .1.3.3.3.5 0 .7z"/>
  <path fill="#F7F7F7" d="M109.6 77.1c4.3 0 8.6-.1 12.9-.1 2.2 0 4.4 0 6.6-.1-.4.4-.9 0-1.5.4h1.4c.2 0 .3.1.2.3 0 .1-.1.2-.1.2-.3.1-.1-.2-.2-.2-.2-.1-.4-.1-.6-.1-2 0-4.1.1-6.1.1-2.4.1-4.9-.1-7.4-.1-1 0-2 .2-2.9-.1-.3-.1-.6 0-.9.2-.5.1-1.1.2-1.4-.5z"/>
  <path fill="#030303" d="M100 65.1h-1c-.2 0-.4 0-.4-.3 0-.2.1-.4.4-.4 2.2 0 4.3-.4 6.5-.1.5.1 1.1.1 1.6 0 .7-.1 1.4-.2 1.5.8-2.9 0-5.7.1-8.6 0z"/>
  <path fill="#070707" d="M136 59.9c-.6.4-1.3.3-1.6-.3-.1-.3-.3-.7-.4-1 .1-.1.2-.2.3-.2.6.5 1.2 1 1.7 1.5z"/>
  <path fill="#F5F5F5" d="M129.6 76.3c.2-.2.4-.4.5-.6l.1.1c.2.2.7 0 .6.5 0 .1 0 .4-.3.4-.3-.1-.8.3-.9-.4z"/>
  <path fill="#F3F3F3" d="M134.9 70.2c.3-.4.7-.8 1-1.2.4.4.6.7-.2.9-.2.1-.3.7-.8.3z"/>
  <path fill="#F5F5F5" d="M143.5 77.4c-.2.3-.5.6-.9.9-.2-.9-.1-1.1.9-.9z"/>
  <path fill="#F3F3F3" d="M134.5 70.7c.1-.1.1-.2.2-.3 0 .3.6.3.3.5-.2.3-.3 0-.5-.2z"/>
  <path fill="#F6F6F6" d="M103.4 132c-.2-.3 0-.4.3-.4.1 0 .2.1.2.1 0 .2-.3.3-.5.3z"/>
  <path fill="#F5F5F5" d="M130.4 75.3c.1-.1.2-.2.3-.4.1.2.2.4 0 .5-.1.3-.1-.1-.3-.1z"/>
  <path fill="#F0F0F0" d="M135.2 58.5c-.1-.1-.2-.2-.2-.3 0-.2.1-.1.2-.1s.1 0 .2.1c-.1.1-.1.2-.2.3z"/>
  <path d="M134.4 58.4c-.1.1-.2.2-.3.2-.1-.2-.1-.4.2-.3l.1.1z"/>
  <path fill="#FAFAFA" d="M117.8 64.1H97.6c-.1-.1-.2-.1-.3 0 0 .1-.1.1-.1.2-.2.6-.8 1-1.3 1.4-.1.1-.2.1-.3.2-.3.2-.5 0-.6-.3-.2-.1-.5-.2-.4-.6.1-.1.3 0 .4 0 .2 0 .5.4.7 0 .2-.5-.5 0-.5-.4.7 0 .9-.4.8-1-.1-.4.2-.7.6-.6.8.1 1.7-.4 2.4.5.1.1.3 0 .4 0 1.7-.1 3.5 0 5.2-.1 1.3-.1 2.6-.3 4 .1.2.1.5 0 .8 0h22.1c.5 0 1-.4 1.4.2v.3c-.4.2-.8.2-1.2.2h-12.6c-.6 0-1 .1-1.3-.1z"/>
  <path fill="#F9F6F9" d="M87.8 74c-.2-.6-.3-1.1 0-1.7 0-.1.1-.2.1-.2-.7-1.2.4-.7.8-.8.3.1.5.4.9.2.2-.3.6-.1.8-.2 0 0 0 .1.1.1 0 .3-.2.5-.3.7-.5.6-1 1.3-1.7 1.8-.2.1-.4.2-.7.1.1 0 0 0 0 0z"/>
  <path fill="#F7F6F4" d="M95 65.6c.2.1.2.4.5.2.2.3-.1.5-.2.7-.8.6-1.2 1.6-2.1 2 0 0-.1 0-.1-.1 0-.4.1-.9 0-1.3-.1-1 .1-1.2 1.2-1.4.2 0 .5.2.7-.1z"/>
  <path fill="#F5F3F5" d="M85.8 75.7c0-.3 0-.7.1-1 .3-.8.9-.8 1.5-.5.2 0 .3 0 .4.2 0 .5-.5.7-.7 1.1-.3.3-.6.8-1 1h-.2c-.1-.4-.1-.6-.1-.8z"/>
  <path fill="#FAF4F9" d="M90.4 71.2c.1-.4-.1-.8.2-1.2.7.2.8-.6 1.2-.9.2-.4-.2-.4-.4-.7.6.1 1.2 0 1.7 0 .1.4-.1.6-.4.8-.6.5-1.1 1.1-1.6 1.7-.1.3-.3.5-.7.3z"/>
  <path fill="#EEFDE4" d="M91.8 69.2c0 .4-.3.7-.6 1-.2.2-.4.2-.6-.1.1-.2.5-.1.5-.5.1-.2.2-.4.5-.3.1-.1.1-.1.2-.1z"/>
  <path fill="#F0FAE9" d="M89.5 71.4c.1.2.2.5-.2.4-.2-.1-.5-.2-.6-.5.3-.1.6-.1.8.1z"/>
  <path fill="#FAF4F9" d="M91.6 69.2c-.2.1-.2.4-.5.3-.3-.3-.1-.5.1-.6.3-.1.4 0 .4.3zm-1-.6c.1 0 .2.1.2.2s0 .2-.2.2-.2-.1-.2-.2 0-.2.2-.2z"/>
  <path fill="#D8FEE7" d="M87.7 74.3c-.1 0-.3 0-.3-.2.1-.2.3-.2.5-.2 0 .3 0 .4-.2.4z"/>
  <path fill="#010101" d="M101 156.1c-1 3.2-6.2 3.7-8.4 1.9-1.3-1.1-.9-1.9.4-2.5.9-.4 1.9-.2 2.8.1 1.7.6 3.4 1 5.2.5z"/>
  <path fill="#030303" d="M95 153.2c.4-.2.3-.6.3-1v-3.6c0-.3 0-.6.2-.9.2-.3.5-.5.9-.4.3.1.5.4.5.7v4.7c0 .2-.3.2-.3.6h1.2c.5 0 .8-.3.8-.9v-2.7c0-.2-.1-.5.3-.5.3 0 .2.3.2.5v2.3c0 .3-.1.6.1.8.2.4.6.6 1 .5.1-.1.1-.1.2 0h.2c.3-.2.6-.1.9 0 .2 0 .3.1.3.4-.2.8-.9 1.2-1.9 1.1-1.1-.1-2.2-.5-3.2-.9-.5-.2-1.1-.4-1.6-.4 0 0-.2-.1-.1-.3z"/>
  <path fill="#FCFCFC" d="M100.7 153.4h-.2c-.1-.3-.6-.2-.5-.5 0-.2.3-.3.5-.3.3.1.1.5.2.8z"/>
  <path fill="#6A6A6A" d="M95 153.2c.1.1.1.2.2.3H94v-.1c.3 0 .7 0 1-.2z"/>
  <path fill="#FCFCFC" d="M101.7 153.4h-.9c.3-.2.6-.5.9 0z"/>
  <path fill="#030405" d="M97.9 137.3c-.1.1-.2.1-.3.2v-3.1h-.3v3c-.3-.3-.2-.6-.2-.9V129c0-.9.2-1.7 0-2.6-.2-.2-.2-.5-.2-.7 0-3.1-.1-6.2 0-9.3.1-.4.1-.8.3-1.2.1-.2.2-.3.2-.5v-7.3c0-.1-.1-.3-.1-.4-.2-.9.1-1.8-.2-2.7-.1-.7-.1-1.3 0-2 .6-.7.7-1.6.6-2.5 0-.3 0-.6.1-.9.1-.1.1-.1.3-.1v20.7c-.2.3-.1.7-.1 1-.1 5.5-.1 11.2-.1 16.8z"/>
  <path fill="#030405" d="M97.3 77.1h.3l.1.1c.2.7-.1 1.6.2 2.3.3.9.3 1.8.2 2.7-.4.8-.3 1.6-.3 2.3.2-.3-.2-.7.2-1 .3.7.1 1.5.1 2.2-.1.1-.3-.1-.2.2.1.5.2 1.1 0 1.7-.1.6 0 1.3 0 1.9 0 .1.2 0 .1 0 .1-.6-.3-1.3.2-1.9.3.5.1 1 .1 1.5.1.9.1 1.8 0 2.6-.1.1-.1.1-.2 0-.2-.1-.1-.3-.2-.5.1.7.1 1.4.1 2 0 2.4 0 4.8-.1 7.3 0 .3.1.9-.5.8-.3-.3-.2-.7-.2-1.1V78.1c-.2-.3-.3-.7.1-1z"/>
  <path fill="#0A040B" d="M97.9 82.2c.3-.5.1-1.1 0-1.6-.1-.4 0-.7 0-1.1.3-.2.2-.5.2-.8 0-2.2.1-4.4 0-6.7-.1-1.3-.2-2.7-.1-4 0-.8.1-1.5.3-2.2v17.8c0 1.8.1 3.7-.1 5.5-.1-.5.2-1-.2-1.5 0 0 0-.1-.1-.1 0-.6-.1-1.2.1-1.8.3-.7.3-1.5 0-2.2-.4-.4-.1-.9-.1-1.3z"/>
  <path fill="#080606" d="M97.9 91.8h.2c.1 2.3 0 4.6 0 6.8h-.2c-.3-.3-.2-.6-.2-.9v-3.8c0-.3.1-.6-.2-.8.1-.9-.2-1.8.2-2.7.3.4 0 .9.2 1.4z"/>
  <path fill="#070707" d="M85.1 22.5c0 .6-.1 1.2-.7 1.2-.7 0-.8-.7-.8-1.2 0-.4 0-1.1.6-1.1.9 0 .7.7.9 1.1z"/>
  <path fill="#101010" d="M101.6 18.8c.5 0 .8.1.8.7s-.3.7-.8.8c-.4.1-.7-.1-.6-.6.1-.3-.2-.9.6-.9z"/>
  <path fill="#080808" d="M120.6 24.8c-.1-.5 0-1 .2-1.5.1-.3.3-.5.7-.4.3 0 .5.3.6.6.1.6-.1 1.2-.5 1.7-.5.2-.9.1-1-.4z"/>
  <path fill="#F5F5F5" d="M120.6 24.8c.2.4.6.5 1 .4.3.6-.4.1-.4.4-.4-.2-.8-.3-.6-.8z"/>
  <path fill="#080808" d="M132.7 25.9c0 .9-.4 1.5-.9 1.5s-.6-.5-.6-.9c0-.7.4-1.5.9-1.5.5.1.6.5.6.9z"/>
  <path fill="#FD6601" d="M94.6 136c-1.2-.9-2.2-2.1-3.3-3.1-.3-.2-.4-.4-.6-.6-.3-.2-.5-.5-.8-.7-.1-.1-.2-.2-.2-.3-.3-.4-.8-.6-1-1.2 0-.2-.2-.3-.3-.4-.2-.2-.1-.5.1-.7.2-.2.5-.3.8-.1.3.2.5.4.9.7 0-.8.5-.9 1.1-.9h3.8c.9 0 1 .2 1.1 1.1 0 1.3 0 2.5.2 3.8.1.6-.1 1.1-.9 1.2.3.5.9.9.5 1.5-.5.1-1-.1-1.4-.3z"/>
  <path fill="#F86507" d="M94.6 136c.4-.1 1 .4 1.1-.2.1-.4-.3-.8-.7-1-.1-.1-.3-.2-.3-.4l.1-.1c1.3-.1 1.2-.1 1-1.5-.1-1-.1-2.1-.1-3.2 0-.7-.2-.9-.9-.9h-3.6c-.7 0-1.2.1-1 1 0 .1 0 .2-.1.5-.2-.6-.6-.9-.9-1.2-.2-.2-.3-.5-.6-.2-.3.2-.3.5-.1.7.1.2.2.3.2.5-.1.1-.2.1-.3-.1-.3-.4-.6-.7-.9-1.1-.3-.8.3-.8.8-.8h5.6c.5 0 1 .1 1.4-.1.1-.1.1-.2.2-.4 0-.1.1-.3.2-.3s.2 0 .3.1c.5.7 0 1.5.2 2.2.1-.3-.1-.6.2-.9.2.7.1 1.4.1 2.1 0 .1.2 0 .1 0h-.1c.1-1-.2-2.1 0-3.1.1-.1.2-.1.2 0v9.9c-.1.1-.3.2-.5.2-.1 0-.3-.1-.3-.2-.2-.2-.4-.5-.7-.7-.1-.2-.3-.5-.6-.8z"/>
  <path fill="#05FA07" d="M85.6 126v-9.9s.1 0 .1-.1c.4-.3.7-.2 1.1.1.3.6-.2.7-.6.9l.1.1c.4.3 1.1-.1 1.4.4.2.4-.1.9-.1 1.4 0 1.7-.5 3.4-.4 5 0-.1-.1-.4.2-.6.3-.2.4.2.6.3.2.2.3 0 .4-.1.2-.2.4-.4.7-.3.4.3.1.5-.1.7-.3.4-.8.8-1.2 1.2-.1.2-.2.3-.4.4-.3.1-.5.3-.6.5 0 .1-.1.1-.1.2-.3.2-.5.7-1 .3-.1-.2-.1-.4-.1-.5z"/>
  <path fill="#F86800" d="M95.9 128.1c-.1.5-.5.3-.8.3h-6.6c-.4 0-.8-.1-.8.6-.1-.1-.2-.1-.3-.2-.1-.1-.1-.2-.1-.3 0-.4.3-.6.7-.6h7.5c0-.1.2 0 .4.2z"/>
  <path fill="#E47003" d="M96.1 127.4h-.2c-.3.3-.7.2-1.1.2H88c-.5 0-1-.1-1.4.1-.1 0-.2.1-.2.1l-.2-.2c-.1-.2-.1-.3 0-.4.4-.2.8-.2 1.2-.2h8c.4 0 .7 0 1.1-.1.2 0 .3 0 .5.2v.7h-.2c-.3-.1-.6-.2-.7-.4z"/>
  <path fill="#78F409" d="M85.6 127c0-.1 0-.1-.1-.2v-.2c.5 0 .9-.1 1-.6.2-.1.3-.2.5-.1.4.2.4.6.4 1 0 .1-.1.2-.1.2H86c0 .1-.2.1-.4-.1z"/>
  <path d="M85.3 120.5c0-1.4 0-2.7-.1-4.1 0-.3 0-.5.2-.7v4c0 .3.1.6-.1.8zm-.2 0h.2v2.5h-.2v-2.5z"/>
  <path fill="#1C0703" d="M96.1 137.6c.1 0 .2 0 .3.1.3.1.4.4.5.6l.1.1c-.1.3-.2.3-.4.1-.2-.2-.3-.5-.6-.5-.3-.3.1-.2.1-.4z"/>
  <path fill="#1C0905" d="M88.5 130.1c.1 0 .2.1.3.1.3.3.5.7.8 1-.5-.2-.9-.6-1.1-1.1z"/>
  <path fill="#401103" d="M87.3 128.6v.1c-.5-.2-.8-.5-1-1v-.1c.6.1.8.6 1 1z"/>
  <path d="M94.9 137.4c.2.2.4.2.4.5 0 0-.1.1-.2.1-.3-.1-.3-.3-.2-.6z"/>
  <path fill="#1C0905" d="M89.9 131.5c.4.1.6.4.8.7-.4-.1-.6-.4-.8-.7z"/>
  <path fill="#20E83F" d="M85.7 126.7c0 .1-.1.1-.1.2-.1-.3-.2-.6 0-.9.2.1.2.2.2.4-.1.1-.1.2-.1.3z"/>
  <path fill="#1C0703" d="M95.4 136.9c.4.1.6.3.7.7-.4-.1-.6-.3-.7-.7z"/>
  <path fill="#1C0905" d="M90.7 132.2c.3.1.5.3.6.6-.3 0-.5-.3-.6-.6z"/>
  <path fill="#B08843" d="M85.6 127h.5c.1 0 .1.1.1.1v.5l-.6-.6z"/>
  <path fill="#050505" d="M68.2 25.6c0 .5-.1.8-.6.9-.4.1-.7-.3-.8-.7-.2-.6-.4-1.2.1-1.7.2-.2.4-.3.6-.1.5.4.6 1.1.7 1.6z"/>
  <path fill="#070707" d="M78.4 23.7c0 .4 0 .9-.6 1-.6.1-.7-.4-.8-.8-.2-.6-.3-1.1.2-1.6.2-.2.3-.2.5-.1.4.1.7.8.7 1.5z"/>
  <path fill="#0F0F0F" d="M148.1 31.2c.2.1.5.1.7.2.3.6.2 1-.4 1.3-.3.1-.6 0-.7-.4-.2-.5-.2-1 .4-1.1zm-100.5-.5c-.5 0-.5-.3-.5-.6 0-.4.1-.7.5-.7s.7.4.7.7c.1.6-.6.3-.7.6z"/>
  <path fill="#101010" d="M107.9 22.1c-.2-.1-.7.2-.6-.3 0-.3.1-.8.6-.9.5 0 .5.4.6.8 0 .4-.2.4-.6.4z"/>
  <path fill="#1761F4" d="M85.6 112.7v-9.9c.2-.1.5 0 .8-.1.2 0 .5 0 .7.1.2 0 .3.1.3.3.1.4.1.8.1 1.2v7.1c0 .3 0 .6-.1.9-.1.2-.2.5-.5.5-.2-.4-.2-.9-.2-1.3 0-1.3-.4-2.6-.4-3.9-.2 1.5-.3 3.1.1 4.6.4.2.6.4.3.8l-.1.1c-.3.4-.4.8.3.9 0 .5-.4.7-.8.7-.4-.1-.4-.5-.4-.8 0-.6.1-.9-.1-1.2z"/>
  <path fill="#630CF5" d="M85.8 89.4c0-4.1-.1-8.2 0-12.3.1-.1.2-.1.4-.1.4.1.7 0 1-.1 1.1-.1 2.1 0 3.2 0h5.4c.4 0 .8-.1 1.2.1.2.2.1.5.1.7-.1.3-.4.5-.7.6h-.5c-.4 0-.7-.1-1 .2h-.2c-.5-.3-1.1-.1-1.6-.5 0-.4.3-.4.6-.4h1.1c-2.2.1-4.3.1-6.5.1-.4 0-.6.2-.6.5-.1 0-.1.1-.2.1-1.1.2-1.2.2-1.2 1.5v8.3c0 .4.1.9-.2 1.3h-.3z"/>
  <path fill="#1A71F8" d="M86.3 102.9c-.2 0-.5 0-.7-.2v-1.4c.1-.3.1-.6.1-.9-.1-3 .1-5.9.1-8.9 0-.3 0-.5.1-.8.4-.2.5.1.6.3.1 2.5 0 5 .1 7.5v3.1c0 .6 0 1-.3 1.3z"/>
  <path fill="#1B6ADA" d="M86 90.7c-.1 3.3-.1 6.6-.2 10 0 .2 0 .5-.1.6V90.7c0-.1.1-.2.1-.3.1-.1.2-.1.2 0 .1.1.1.2 0 .3z"/>
  <path fill="#1F24F0" d="M85.9 90.4h-.2v-1h.3c1.8.2 3.6.1 5.4.1.5 0 1-.1 1.4.1.1 0 .2.1.2.2.1.2 0 .3-.1.4-.4.2-.8.2-1.2.2H87c-.3 0-.6 0-.9.1.1 0 0 0-.2-.1z"/>
  <path fill="#3DC7ED" d="M86.6 116.1h-1v-.6c.1-.1.1-.1.2-.1.4-.1.7-.2.9-.6.1-.2.2-.5.6-.4.2.1.2.5.5.5.2 0 .4-.1.6-.3.2-.2.3-.4.6-.3.3.4.6.6 1.1.5.2 0 .4.1.5.2 0 .1 0 .3-.1.4-.6.3-1.3.1-1.9.2-.4 0-.9-.1-1.3.1-.3.2-.5.3-.7.4z"/>
  <path fill="#1567E9" d="M85.8 115.4h-.2v-2.7c.2.2.1.5.1.8 0 .3 0 .7.3.8.3.1.6-.2.7-.6-.1-.4-.1-.7.2-1l.3-.3c.1.1.3.3.5.1.2-.2.4-.3.7-.1.2.6-.5.9-.7 1.3-.6.4-1.1 1.2-1.9 1.7z"/>
  <path fill="#D51AFE" d="M86.1 77.1h-.3v-.7h.1c.4.1.7.2.5.7h-.3z"/>
  <path d="M85.4 80.8c-.2-.5-.1-.8 0-1.1v1.1zm5.9-63.7c0 .2-.1.4-.3.2-.1-.1-.2-.2-.1-.4.2-.1.2.2.4.2z"/>
  <path fill="#70FB04" d="M96.9 127.1h-.4c-.2.1-.4.1-.6 0-1.4-.2-2.9-.2-4.3-.3-.4 0-.9.1-1.3-.2-.1-.1-.1-.2 0-.3.2-.4.6-.3 1-.3 1.5 0 3.1-.1 4.6.1.5.1.5-.2.5-.6 0-2.6.1-5.2-.1-7.8 0-.2 0-.5.1-.7.1-.2.2-.2.4-.2.1.1.1.3.1.5v8.8c0 .1 0 .2-.1.3.1.2.1.4.1.7z"/>
  <path fill="#5CE407" d="M96.9 126.4v-8.7c0-.3.1-.7-.2-1-.2-.2-.1-.4.1-.6.1-.1.1-.1.2-.1 0 0 .1 0 .1.1v10.2c-.1 0-.1.1-.2.1z"/>
  <path fill="#BB602C" d="M96.9 138.3c-.2-.2-.4-.3-.5-.6h.6c-.1.2-.1.4-.1.6z"/>
  <path fill="#030303" d="M131.5 64.1h1.2c-.3.4-.7.4-1.2.4h-13.9c.1-.1.1-.2.2-.3h12.3c.5 0 .9 0 1.4-.1zm-19.4.3c1-.3 2.1-.3 3.1 0h-3.1zm-3.4.5c0-.2.1-.4.3-.5 0 .3.4.3.4.6-.2.2-.4-.1-.7-.1zm.9-.5c.5-.3 1-.3 1.5 0h-1.5z"/>
  <path fill="#F506F4" d="M91.8 77h-1.4c-1-.2-2 0-3.1-.1.1-.4.5-.4.8-.4 2.1-.1 4.2 0 6.3 0 1.2 0 1.2 0 1.2-1.3v-5.6c0-.4-.1-1 .5-1.1.4.3.3.7.3 1.1.2 2.1.2 4.2-.1 6.3.4-3 .2-6.1.2-9.1-.1.6.2 1.3-.3 1.8-.5-.2-.3-.7-.3-1.1-.1-.6.1-1.2-.2-1.7v-.1c.5-.4 1-.9 1.4-1.3.1 2 0 3.9 0 5.9v1c-.1 1-.1 1.9 0 2.9s0 2-.1 3h-1.2c-1.3-.3-2.7-.3-4-.2z"/>
  <path fill="#00131E" d="M97.1 77.1c.2-1.6 0-3.3.1-4.9 0-.3-.1-.6.1-.9v2.8c.1.4.1.9 0 1.3v26c.2.2.1.5 0 .7v2.1c.2.9 0 1.9.1 2.8.1 2.6 0 5.2 0 7.8 0 .1-.1.3-.2.4-.1.3.1.7-.2 1h-.1c-.2-.4-.2-.8-.2-1.2V78.8c0-.3 0-.7.3-1 .1-.3.1-.5.1-.7z"/>
  <path fill="#0A040B" d="M97.6 77.1v-3h.3v2.6c-.1.1 0 .5-.3.4z"/>
  <path fill="#040114" d="M97.6 77.1l.3-.3v2.7c-.4-.1-.3-.4-.3-.6v-1.8z"/>
  <path fill="#000C01" d="M98.2 64.4c0 .2-.1.3-.2.3-.2 0-.4 0-.4-.2 0-.1.1-.2.2-.2.2-.1.4-.1.4.1z"/>
  <path fill="#F8FEDB" d="M97.3 64.1c0-.2-.1-.4.1-.6.3.1.2.4.2.6-.1-.1-.2-.1-.3 0z"/>
  <path fill="#0A040B" d="M97.3 75.3V74c.2.4.2.9 0 1.3z"/>
  <path fill="#DE2ADE" d="M95.1 66.4c0-.3.4-.4.4-.7l.2-.2h.1c.1 1 .1 1-.7.9z"/>
  <path d="M131.5 64.1c-.5.2-.9.2-1.4 0h1.4z"/>
  <path fill="#F804FA" d="M88 76.7h-.5c.9.3 1.9-.1 2.9.3-1.1 0-2.3 0-3.4.1-.2.1-.3.1-.5 0 0-.4-.4-.4-.5-.7.3-.4.6-.7 1-1.1.5-.5 1.2-.8 1.4-1.6.6-.6 1.2-1.2 1.7-1.8 0 0 .1 0 .1.1.1.4.1.8.3 1.2.2.3.1.7 0 1 0 .1-.1.3-.1.4-.1 1.5-1.3 1.7-2.4 2.1z"/>
  <path fill="#EF0FEF" d="M90.4 71.3c.3 0 .4-.3.6-.4.5.4.5.8.1 1.3s-.8.2-1.1-.2c.2-.3.3-.5.4-.7z"/>
  <path fill="#E135E0" d="M88.3 73.8c.1 1-.8 1.2-1.4 1.6l.7-1c.1-.1.1-.2.2-.3.2-.1.4-.2.5-.3z"/>
  <path fill="#EAFEE9" d="M88 73.3c.2-.4.3-.6.6-.7 0 .4 0 .4-.6.7z"/>
  <path fill="#FD00FD" d="M90.1 72c.3 0 .5.5 1 .1s.1-.8 0-1.2c.6-.9 1.5-1.5 2.1-2.4.7-.7 1.3-1.4 2-2.1.7.1.5-.5.6-.8.4.1.5.4.5.8v2.1c-.5.1-.3.5-.3.8v6.5c0 .7-.2.9-.9.9h-7c.2-.4.6-.7 1.1-.7.6 0 .9-.1.8-.8 0-.2.1-.4.2-.6.3-.6.8-1.2-.2-1.7-.6-.3.3-.6.1-.9z"/>
  <path fill="#07000A" d="M97.3 125.9v-9.3h.2v9.3h-.2z"/>
  <path fill="#08010D" d="M97.3 102v-.7c.5-.1.3-.5.3-.8v-7.4c.4-.4.3-.1.3.2v7.1c.1.7-.1 1.2-.6 1.6z"/>
  <path fill="#0A0000" d="M97.3 115.1v-8.2c.1-.1.1-.1.2 0 .2.1.2.3.2.5v7.5c-.1.2 0 .5-.4.2z"/>
  <path fill="#020212" d="M97.4 106.8h-.2v-2.7c.4.9.1 1.8.2 2.7z"/>
  <path fill="#080606" d="M97.9 82.2v2.6c0-.9-.6-1.8 0-2.6z"/>
  <path fill="#0A040B" d="M97.9 87.7v2.2h-.2v-2.2c.1-.1.2-.1.2 0z"/>
  <path fill="#080606" d="M97.9 87.7h-.2v-2.1c0 .1.1.1.1.2.1.6.1 1.2.1 1.9z"/>
  <path fill="#0A040B" d="M97.9 91.8c-.3-.4-.1-.9-.2-1.4.4.4.2.9.2 1.4z"/>
  <path fill="#F6650B" d="M87.3 128.6c-.3-.3-.7-.6-1-.9.3-.6.9-.2 1.4-.3.3.2.7.2 1 .2h6.2c.3 0 .7-.1 1 .2v.3h-7.8c-.4 0-.8-.1-.8.5z"/>
  <path fill="#F96501" d="M95.9 127.7h-7.4c-.3 0-.7.2-.8-.3h8.2v.3zm.2-.3c.3 0 .6-.1.7.3v3.6h-.2v-2.4h-.2v1c-.2-.8-.1-1.7-.3-2.5z"/>
  <path fill="#6DFE00" d="M96.6 116.9c.3 1.6.1 3.1.2 4.7v3.9c0 .7-.2.8-.8.7-1.8-.2-3.7-.3-5.5.1-.4.3-.9.2-1.3.2s-.8-.1-1.2.1c-.1.1-.2.1-.4.1-.3-.2 0-.7-.3-.9-.2-.3 0-.5.2-.7l.3-.3c.6-.5 1.3-1 1.7-1.7.2-.3.4-.5.7-.7l.3-.3c0-.1.1-.1.2-.1.2-.1.3-.2.4-.3.1-.2.2-.3.4-.4.3-.2.6-.4.8-.7.5-.5.9-1.3 1.8-1.3.2.4.6.5.9.7 0 .1.2 0 .1 0l-.1-.1c-.2-.3-.2-.6.1-.8.4-.4.3-.7-.1-1 .1-.4.2-.9.9-.6.3.3.4.7.4 1.2v5.3c0-1.9.1-4.3-.1-6.7v-.4h.4z"/>
  <path fill="#01FE02" d="M96.6 116.9c-.2.1-.3.1-.5.2-.5.2-1 .4-1.2 1-.2.4-.7.7-1.1 1.1-.6.5-1.3 1-1.7 1.7-.2.3-.5.4-.8.7l-.3.3c-.1.2-.4.2-.5.4-.2.1-.3.2-.5.4s-.4.4-.5.7h-.2c-.7 0-.8.7-1.4.9-.4-.2 0-.6-.4-.8-.4.4 0 1.1-.4 1.7-.2-.7-.1-1.3-.1-1.9-.1-1.8.3-3.6.5-5.4 0-.3-.1-.3-.3-.3h-.9c-.3 0-.6-.1-.5-.5 0-.2 0-.6.5-.4.5.2.2-.3.3-.5 0-.2.2-.2.3-.3 0 0 .1 0 .1.1.1.1.1.2.1.3 0-.1.1 0 0 .1s0 .1 0 0c.1-.2.1-.3.3-.4h8.5c.2 0 .5 0 .7.1.1 0 .2.1.3.2-.1.2-.2.4-.2.7 0-.2-.1-.1-.1-.1z"/>
  <path fill="#00FE00" d="M86.4 124c-.2-.3-.6-.4-.2-1.1.3-.6.3-1.6-.1-2.5-.3-.8-.1-1.6-.1-2.4 0-.2.1-.2.3-.2.2 0 .3.1.3.3v5c0 .3.1.6-.2.9z"/>
  <path fill="#54FD07" d="M89.2 123.3h.2c.1-.1.1-.1.2 0-.4.8-1 1.4-1.9 1.7.3-.7 1.1-1 1.5-1.7z"/>
  <path fill="#4DFE02" d="M85.7 126.7c0-.1 0-.2.1-.3.4.2.5-.4.9-.4 0 .8-.5.8-1 .7z"/>
  <path fill="#4AFA04" d="M87.3 125.3c-.1.2-.1.5-.2.7h-.5c.1-.4.2-.7.7-.7z"/>
  <path fill="#FC8D1F" d="M96 127c.2 0 .3 0 .5.1-.3.2-.6.1-.9.1h-9.5v-.1c.5 0 .9 0 1.4-.1.1-.1.3-.2.5-.2 2.6-.1 5.3 0 7.9.1.1 0 .1.1.1.1z"/>
  <path fill="#63FA03" d="M96 127h-8.6v-.2l.2-.2c.9-.4 1.8-.1 2.7-.2 1.8-.1 3.6.3 5.3.1.5.1.4.3.4.5z"/>
  <path fill="#2070FA" d="M97 102.2v.7c-.2.6-.7.2-1 .2-2.7 0-5.5.1-8.2 0-.2 0-.3-.1-.4-.2h-.3c-.4-.5-.2-1-.2-1.6v-4.4c0-.4 0-.7-.2-1.1-.1-1.4 0-2.8 0-4.2.1-.3.2-.3.5-.2.3.2.5.4.7.7.1.3.2.7.5.8.1 0 .1.1.2.2.5.8 1 1.5 1.9 1.9.1.1.2.1.3.2.1.2.3.4.5.5.8.5 1.2 1.3 1.9 1.9l.9.9c.7.8 1.5 1.5 2.2 2.2.1.2.3.3.3.5 0 .1 0 .1-.1.2s-.1.3-.1.4c0-.1 0-.3.1-.4.3-.2.3.4.5.8z"/>
  <path fill="#195FFA" d="M87.3 102.9h.3c.2.3.5.3.9.3h6.6c.2 0 .5 0 .7-.1.6-.2.6.1.5.5 0 .3-.1.5-.2.8-.1.6-.5.9-.9 1.3-.7.6-1.3 1.4-2 1.9-1.1.5-1.7 1.4-2.4 2.3 0 .1-.1.1-.1.2-.7.7-1.6 1.3-2.1 2.2l-.1.1c-.3 0-.5.1-.6.3-.1.1-.2.4-.4.2-.1-.1-.1-.4-.1-.5-.1-3.2-.1-6.4-.1-9.5z"/>
  <path fill="#2B68FD" d="M87 101.4v1.5h-.7V91.1c.3 0 .4.1.3.4v4.4c.2.3.2.6.2.9v3.7c0 .3-.1.6.2.9z"/>
  <path fill="#1D5BFB" d="M87 112.7c-.1.3.1.7-.2 1-.2-.1-.5.2-.7-.1-.1-.3 0-.6.3-.8.2-.2.6-.5-.1-.5-.2-.2-.2-.5-.2-.8v-3.8c0-.3 0-.6.2-.8.2 0 .4.2.3.4-.1 1.8.6 3.5.4 5.4z"/>
  <path fill="#0F64F6" d="M86.3 106.8v5.5c-.3 0-.3-.2-.3-.5v-4.5c-.1-.2 0-.4.3-.5z"/>
  <path fill="#5E0FFD" d="M86 89.4V77.8c.6.4 1.2.3 1.7.3h.1c1.7.1 3.5.1 5.2 0h.1c.6 0 1.2-.1 1.7.3.1 0 .3.1.4.1.2.1.5.1.5.4 0 .3-.2.3-.4.4-.2.1-.2.3-.2.4-.2.4-.5.8-.8 1.1-.1.1-.1.1-.2.1-.4.2-.7.6-.8 1-.1.2-.2.3-.4.4-.3.1-.5.3-.7.5 0 .1-.1.1-.2.2-.3.3-.5.6-.9.9-.1.1-.1.1-.2.1-.2.2-.4.4-.5.7-.4.6-1 1.1-1.5 1.6-.2.2-.3.3-.6.4-.6-.1-.8.2-.7.7 0 .1 0 .2-.1.2-.1.2-.2.3-.4.5-.3.3-.6.5-.8.9.2.3 0 .6-.3.4z"/>
  <path fill="#231DFC" d="M92.8 82.2c.2 0 .3-.1.3-.3.5-.2.6-.8 1-1 .5-.4.9-.9 1.3-1.4.4-.4.5-.9.9-1.3.2-.1.4-.2.7-.3.1 1.5.1 3 0 4.5-.1 2.2 0 4.3-.1 6.5v1.3c-.3.2-.3 0-.4-.2-.3-.7-.2-1.4-.2-2v-4 4.7c0 .5-.1 1-.6 1.4-.9.1-1.8.3-2.7-.1-.1-.1-.2-.2-.2-.4-.1-.2 0-.5-.1-.7-.2-.5-.6-.3-1-.4h-3.5c-.3 0-.9.1-.8-.6.3-.3.3-.7.7-.8.4 0 .4-.3.6-.5.2-.7 1-1.1 1.4-1.7.6.1.6-.3.7-.7.3-.3.6-.2 1-.1-.3-.4-.2-.7.1-1 .5-.4.7-.6.9-.9z"/>
  <path fill="#5E0FFD" d="M87.7 78.1c0-.4-.5-.3-.6-.6h8.7c-.6.3-1.2.2-1.9.3-.3 0-.7-.1-.7.3-.2.2-.5.2-.8.2h-3.8c-.4-.1-.7 0-.9-.2z"/>
  <path fill="#5312FB" d="M96.4 78.1c0 .6-.5 1-.9 1.4-.2.1-.2.4-.5.3-.6-.8.2-.6.6-.8-.1-.5-.8-.1-.8-.6.3-.3.8 0 1-.3h.6z"/>
  <path fill="#F804FA" d="M91.8 77c1.4-.2 2.7-.2 4.1 0h-4.1z"/>
  <path fill="#5E0FFD" d="M95.9 78.1c-.2.6-.7.2-1 .3.1-.6.6-.2 1-.3z"/>
  <path fill="#6D10F8" d="M86.5 77h.5c-.3.2-.6.2-.8 0 0 .1.2 0 .3 0z"/>
  <path fill="#073AE0" d="M86.6 91.4c-.1-.2-.2-.3-.3-.4l-.3-.3v-.3h.3c.7-.3 1.2-.2 1.3.7.1.4.3.6.8.5.5-.1.7.1.8.7.2 1 .7 1.8 1.8 2 .6.1 1 .4.9 1.1 0 .4.1.7.5.9.3.2.6.6.8.9.2.3.1.6-.3.4-.7-.5-1.1-1.4-1.9-1.9-.2-.1-.4-.3-.5-.5l-.2-.2c-.8-.6-1.4-1.3-2-2.1-.3-.2-.4-.5-.7-.7-.3-.2-.7-.4-1-.8z"/>
  <path fill="#0B39E6" d="M92.8 97.8c.2 0 .4-.2.2-.4-.4-.3-.4-.8-.9-.9-.3-.1-.6-.5-.4-.9.3-.7-.3-.9-.7-1-1.1-.3-2-1.1-2-2.2 0-.6-.4-.6-.5-.5-.8.4-.9-.4-1-.7-.2-.6-.2-1-.9-.5l-.2-.2c-.1-.6.3-.3.5-.3h6.3c1.1-.2 2.2-.5 3.2.3 0 .1.1.2.1.2-.2 1.7.2 3.5 0 5.2-.4 1-.4 1.9 0 2.9 0 .8.3 1.7-.2 2.5-.2 0-.3-.1-.3-.3-.7-.8-1.3-1.7-2.2-2.2-.5-.4-.7-.8-1-1z"/>
  <path fill="#2B19FB" d="M93.1 89.4v.3h-6.4c-.3 0-.7.2-.7-.3.6-.3.6-1.2 1.4-1.4.1.1.1.2.1.4 0 .7.6.7 1.1.7h3.5c.4 0 .7 0 1 .3z"/>
  <path fill="#1728F1" d="M96.2 90.4c-1-.6-2.1-.2-3.1-.3v-.3h2.7c.3-.2.6-.2.9 0 0 .1 0 .3.2.3.1.1.1.2.1.4-.1.1-.2.1-.4.1s-.3-.1-.4-.2z"/>
  <path fill="#39C7F8" d="M87.7 113.5l.9-1.2.2-.2c.2-.1.4-.1.6-.1.4 0 .7-.1 1-.5.6-.7 1.5-1 2.3-1.2-.1-.1-.4.1-.6-.1-.2-.1-.5-.2-.7-.4 0-.3.2-.4.5-.5.2 0 .4-.1.5 0 .4.2.2 0 .1-.2 0-.4.4-.4.6-.4.6-.1 1-.4.6-1.1 0-.3.2-.4.4-.4.4 0 .6-.2.9-.5.4-.4.7-.4 1 .1.1.1.1.3.1.4-.6.9-.1 1.8 0 2.8.1 1.6.1 3.3 0 4.9 0 .2-.1.3-.2.4-.7.3-1.4.2-2 .1-1.1 0-2.2.2-3.3-.1l-.1-.1v-.3c-.3-.4-.1-.9-.2-1.2 0-.2-.1 0 0-.1v.1c0 .4.1.9-.3 1.2-.5 0-1 0-1-.7-.4-.5 0-.9.1-1.4-.5.4-.8 1-.6 1.7-.1.5-.4.3-.7.3-.2-.2-.2-.6-.3-.8-.1-.1.1-.3.2-.5z"/>
  <path fill="#39C8F5" d="M88.3 114.7c-.3-.2-.5-.6-.4-.9.2-.4.6-.8.9-1.2.1-.1.3-.1.4 0 .2.1.2.3.1.4-.3.4-.4.8-.4 1.3-.3 0-.4.3-.6.4z"/>
  <path fill="#39C7F8" d="M86.9 115.8c.1-.4.4-.4.7-.4h2.7c.1.2.1.3-.1.4-1 .2-2.1.2-3.3 0z"/>
  <path fill="#48B8FE" d="M87.7 113.5c0 .3 0 .5-.2.7-.1.1-.1.2-.2.2-.3 0-.4.2-.5.4-.2.5-.6.7-1.1.6.6-.7 1.3-1.3 2-1.9z"/>
  <path fill="#39C8F5" d="M89.9 115.1c.1-.5.3-1 0-1.5-.1-.2-.1-.4.1-.5.4-.1.3.2.3.5v1.5h-.4zm-2.6-.7l.2-.2c.2.3.2.6.2.9-.5-.1-.5-.4-.4-.7z"/>
  <path fill="#78F409" d="M90.4 126.5c-.9.4-1.8.1-2.7.2.1-.4.4-.3.6-.3h2.1v.1z"/>
  <path fill="#66B5D3" d="M96.9 116.1c0-.1-.1-.2-.1-.3-.2-.3-.1-.6-.1-.9v-10.6c0-.2 0-.4.1-.6.1-.1.1-.3.3-.3v10.3c0 .8-.1 1.6-.2 2.4.1 0 0 0 0 0z"/>
  <path fill="#FD00FD" d="M96.2 68.5c.4-.7.1-1.4.2-2.1 0-.2-.1-.6.3-.6.3 0 .2.3.2.6 0 2.4.1 4.7 0 7.1 0 .9-.1 1.8-.1 2.7 0 .2 0 .5-.2.5-.3 0-.3-.3-.3-.5-.1-1 .1-2 .2-3.1 0-1.5-.4-3.1-.3-4.6z"/>
  <path fill="#063ADE" d="M96.9 90.4v-7.3c0-.3-.1-.6.1-.9V90c0 4.1 0 8.1-.1 12.2-.3-.2-.4-.7-.8-.8v-2.8c-.3-.9-.3-1.8 0-2.7.1-1.8-.3-3.7 0-5.5h.3c.2.3.2.7.2 1 0 2.9.1 5.7 0 7.7v-7.7c.1-.3.1-.7.3-1z"/>
  <path fill="#1368EC" d="M97 103.4c0 .1-.1.1-.1.2-.2.4-.3 1-1 .9.1-.2.1-.5.2-.7.3-.2.2-.6.3-.9.2.3.4 0 .6 0v.5z"/>
  <path fill="#F208E9" d="M91.8 71.2c.3-.5.7-.9 1.1-1.2.2.6-.2 1-1.1 1.2z"/>
  <path fill="#F409EA" d="M95.5 67.7c-.1.2-.2.4-.5.4-.2 0-.3-.1-.2-.3.1-.2.2-.4.5-.4.1.1.2.2.2.3z"/>
  <path fill="#70FB04" d="M96.1 117.4c.2.1.2.3.2.5v7.4c0 .2.1.3-.2.5-.3-.1-.2-.4-.2-.6v-6.3c0-.5-.3-.8-.4-1.2.1-.1.2-.3.6-.3zm-1.2 1.1c.2 0 .5-.1.6.2.1.3-.1.4-.3.6-.5.5-.5.8.3 1-.8.3-1.7-.2-1.7-.8.1-.6.4-1.1 1.1-1z"/>
  <path fill="#14F705" d="M94.9 118.5c-.5.2-.7.6-1 1-.7.3-1.1 1-1.7 1.4-.1.1-.1.1-.2 0 .5-1.2 1.8-1.7 2.5-2.6.2-.2.2-.3.3-.6.2-.5.7-.7 1.3-.6v.3c-.2.1-.3.4-.5.4-.5.1-.5.4-.7.7z"/>
  <path fill="#22F703" d="M89.5 123.3h-.2c.1-.3.1-.6.5-.7.1-.1.2-.1.4 0-.1.3-.4.5-.7.7z"/>
  <path fill="#33FA04" d="M91.9 120.9h.2c-.1.4-.5.6-.9.7.1-.4.5-.5.7-.7z"/>
  <path fill="#17F801" d="M90.2 122.6h-.4c0-.3.3-.3.5-.3.1.1.1.2-.1.3z"/>
  <path fill="#31F404" d="M90.4 122.3c.1-.2.3-.4.5-.4 0 .3-.2.3-.5.4z"/>
  <path fill="#39C7E9" d="M96.9 104.1v11.1c0 .2-.1.4-.1.7-.2.2-.5.2-.7.2-2.8 0-5.7.1-8.5-.1-.1 0-.2.1-.2.1-.1.1-.2.1-.3 0v-.3c1.1 0 2.3 0 3.4-.1 1.1-.3 2.3-.1 3.4-.1.7-.1 1.4.2 2.1-.2v-.3c.2-.2.4.4.6 0 .1-2.7 0-5.4 0-8.1 0-.6 0-1.2-.1-1.7v-.4c0-.3-.1-.7.4-.8z"/>
  <path fill="#00FC0E" d="M93 117.1h-2.5v-.2H93v.2z"/>
  <path fill="#02F81F" d="M87 116.1h.3c0 .3.1.7-.2 1-.2-.4-.1-.7-.1-1z"/>
  <path fill="#1763F5" d="M96.4 102.9c-.1.3.2.7-.3.9 0-.2.1-.4.1-.7-.5.5-.9.4-1.3.4h-6.4c-.4 0-.8.1-.8-.5 2.9-.1 5.8-.1 8.7-.1z"/>
  <path fill="#1775F8" d="M87 101.4c-.5-.1-.3-.5-.3-.7V96c.5.1.3.5.3.7v4.7z"/>
  <path fill="#2468FC" d="M88.2 93.1c.9.5 1.4 1.3 2 2.1-1.1-.2-1.7-1.1-2-2.1z"/>
  <path fill="#053DDF" d="M93.7 98.6h.4c.8.6 1.5 1.2 1.8 2.2-.8-.6-1.6-1.4-2.2-2.2z"/>
  <path fill="#2670EC" d="M96.2 101.4v1.2c-.3-.5-.6-.9 0-1.2z"/>
  <path fill="#2468FC" d="M87.5 92.4c.4.1.6.3.7.7-.6.1-.5-.4-.7-.7zm2.9 3c.2.1.4.3.5.5-.4 0-.5-.1-.5-.5z"/>
  <path fill="#43BCFB" d="M96.9 104.1c-.3.2 0 .5-.3.7-.2.2-.3.6-.6.8-.7.6-1.3 1.2-1.8 2-.2 0-.3.1-.3.3-.7.5-1.3 1.1-1.9 1.7-.2 0-.4.1-.5.3 0 .9-.7 1.1-1.3 1.4-.1-.1-.2-.2-.2-.3 0-.5.6-.7.8-1.1.7-.9 1.5-1.7 2.4-2.4.7-.8 1.5-1.5 2.2-2.3.2-.2.5-.4.5-.7.5-.2.6-.6 1-.9v.5z"/>
  <path fill="#1567E9" d="M93.1 107.5c-.7.9-1.5 1.7-2.4 2.4-.2-.4.1-.6.3-.7.8-.5 1-1.6 2.1-1.7zm-2.3 2.4c-.1.5-.5.6-.7 1-.3.6-.8 1.1-1.4 1.4h-.2c0-.5.1-.8.6-1.1.7-.3.8-1.2 1.7-1.3z"/>
  <path fill="#2A1AF8" d="M87.3 88.4v-.3c.1-.2.2-.3.3-.3.1.5.5.3.7.3h4.1c.5 0 .7.2.7.7-.2.2-.4.2-.7.3h-4.2c-.3-.2-.7-.3-.9-.7z"/>
  <path fill="#6A08FC" d="M87.7 78.1h5.5c0 .3-.2.3-.5.3h-4.5c-.3 0-.5 0-.5-.3z"/>
  <path fill="#3318FA" d="M92.1 82.9c-.1.3-.2.6.2.9.1.1.2.2 0 .4-.1.1-.3.1-.4-.1-.2-.3-.6-.2-.9-.2.4-.4.7-.8 1.1-1z"/>
  <path fill="#4D13FB" d="M88.5 87c-.5 0-.4.7-.9.7 0-.4-.1-.8.1-1.3.3 0 .5.3.8.2.1.2.1.3 0 .4z"/>
  <path fill="#3317FA" d="M95 79.8c.2-.1.2-.4.5-.3-.2.7-.7 1.1-1.4 1.4.4-.4.4-1 .9-1.1z"/>
  <path fill="#3318FA" d="M91.1 83.9c-.1.4.1.7.5.8-.5.5-.8-.3-1.2-.1.1-.4.3-.6.7-.7z"/>
  <path fill="#3317FA" d="M94.2 80.8c-.3.4-.3 1-1 1 .2-.4.4-.9 1-1z"/>
  <path fill="#3019FA" d="M92.8 82.2c.1.5-.2.8-.7.7.1-.4.3-.6.7-.7z"/>
  <path fill="#3815FB" d="M88.5 87v-.3c.2-.1.2-.4.5-.4 0 .3-.1.6-.5.7z"/>
  <path fill="#1C20FB" d="M87.3 88.4c.4.3 1 .4 1.5.3h4.3v.7h-4.5c-.4 0-.8-.1-1.2-.3-.6-.2-.4-.4-.1-.7z"/>
  <path fill="#201FF0" d="M96.7 89.7h-.9c.5-1 .3-2 .3-3.1.1-1.2 0-2.4 0-3.6 0-.3-.1-.5.1-.8.3.3.2.6.2.8v5.3c.2.5.2 1 .3 1.4z"/>
  <path fill="#3317FA" d="M94.9 81.2c.1 0 .2.1.2.1 0 .1 0 .2-.2.2-.1 0-.1-.1-.2-.1.1-.1.1-.2.2-.2z"/>
  <path fill="#0E35F1" d="M96.2 95.9v2.7c-.2 0-.3-.2-.3-.4v-1.9c0-.3.1-.4.3-.4z"/>
  <path fill="#1332EF" d="M96.9 90.4v10.8h-.3V90.4h.3z"/>
  <path fill="#39C8F3" d="M96.4 115.4c0 .2-.1.4-.3.1-.1-.1 0-.3-.2-.4v-3.8c0-.8 0-1.6-.4-2.3-.2-.3-.3-.8.2-1.1.3-.2.1-.6.2-1 .1 0 .1 0 .2-.1.4.1.4.4.4.6-.1 2.7.1 5.3-.1 8z"/>
  <path fill="#39C8F5" d="M90.1 111.3c.5-.4 1.1-.8 1.4-1.4.6-.1 1 .7 1.6.1-.1.4.5 1.3-.6.7-.2-.1-.4 0-.5.2-.3.3-.6.5-1 .5-.2 0-.4.2-.4.4-.1.8-.6.6-1.1.6-.3-.7.1-.9.6-1.1z"/>
  <path fill="#39C8F3" d="M95.9 115.4c-.1.4-.4.3-.7.3h-4.8v-.3h5.5zm-1.7-7.9c.1-1.1 1-1.5 1.7-2.1.3.5.3.9 0 1.4-.4-.2-.7-.2-.8.2-.2.7-.6.5-.9.5zm-2.3 2.1c.5-.7.9-1.5 1.9-1.7.5.7.5.9-.3 1-.3 0-.4.4-.7.3-.1 0-.2.1 0 .4h-.9z"/>
  <path fill="#44B5FC" d="M90.1 111.3c-.3.3-.7.5-.7 1h-.7c.4-.5.9-1 1.4-1.4v.4z"/>
  <path fill="#3AC3FD" d="M95.9 106.8v-1.4c.3-.2.2-.7.7-.7v.3c-.2.6 0 1.2.2 1.7v7.7c0 .3.2.7-.3.8-.3-.3-.2-.6-.2-.9v-6.8c-.1-.1.1-.6-.4-.7z"/>
  <path fill="#39C8F3" d="M96.7 106.8c-.4-.5-.8-1.1-.2-1.7.3.6.2 1.2.2 1.7z"/>
</svg>
